G04 ================== begin FILE IDENTIFICATION RECORD ==================*
G04 Layout Name:  pc065c_fibv2_toplevel_19.brd*
G04 Film Name:    art_pc065a_L04P.ger*
G04 File Format:  Gerber RS274X*
G04 File Origin:  Cadence Allegro 17.4-S011*
G04 Origin Date:  Thu Apr  4 13:41:42 2024*
G04 *
G04 Layer:  VIA CLASS/L4_PWR*
G04 Layer:  PIN/L4_PWR*
G04 Layer:  ETCH/L4_PWR*
G04 *
G04 Offset:    (0.000 0.000)*
G04 Mirror:    No*
G04 Mode:      Positive*
G04 Rotation:  0*
G04 FullContactRelief:  No*
G04 UndefLineWidth:     0.200*
G04 ================== end FILE IDENTIFICATION RECORD ====================*
%FSLAX35Y35*MOMM*%
%IR0*IPPOS*OFA0.00000B0.00000*MIA0B0*SFA1.00000B1.00000*%
%ADD13C,1.*%
%ADD16C,1.001*%
%ADD15C,1.7*%
%ADD10C,4.5*%
%ADD12C,1.65*%
%ADD14C,1.75*%
%ADD17C,1.397*%
%ADD11C,.56*%
%ADD18C,.2*%
%ADD19C,.5*%
%ADD26C,2.204*%
%ADD22C,5.004*%
%ADD21C,1.71*%
%ADD20C,1.064*%
%ADD28C,2.154*%
%ADD25C,1.902*%
%ADD27C,2.254*%
%ADD23C,1.96*%
%ADD24C,1.958*%
G75*
%LPD*%
G75*
G36*
G01X13850000Y3822400D02*
G02X13830500Y3818200I-10198J-20D01*
G03X13730000Y3883200I-100500J-45194D01*
G03Y3662800I0J-110200D01*
G03X13830500Y3727800I0J110194D01*
G02X13850000Y3723600I9302J-4180D01*
G01Y3568400D01*
G02X13830500Y3564200I-10198J-20D01*
G03X13730000Y3629200I-100500J-45194D01*
G03Y3408800I0J-110200D01*
G03X13830500Y3473800I0J110194D01*
G02X13850000Y3469600I9302J-4180D01*
G01Y3079200D01*
G02X13831800Y3072900I-10199J24D01*
G03X13790000Y3093200I-41800J-32885D01*
G03Y2986800I0J-53200D01*
G03X13831800Y3007100I0J53185D01*
G02X13850000Y3000800I8001J-6324D01*
G01Y2406000D01*
G02X13835000Y2397000I-10185J-25D01*
G03X13810100Y2403200I-24929J-47018D01*
G01X13810000D01*
G03Y2296800I0J-53200D01*
G01X13810100D01*
G03X13835000Y2303000I-29J53218D01*
G02X13850000Y2294000I4815J-8975D01*
G01Y1876000D01*
G02X13835000Y1867000I-10185J-25D01*
G03X13810100Y1873200I-24929J-47018D01*
G01X13810000D01*
G03Y1766800I0J-53200D01*
G01X13810100D01*
G03X13835000Y1773000I-29J53218D01*
G02X13850000Y1764000I4815J-8975D01*
G01Y1191500D01*
G02X13830400Y1187500I-10203J-24D01*
G03X13600000Y1340200I-230400J-97468D01*
G03Y839800I0J-250200D01*
G03X13830400Y992500I0J250168D01*
G02X13850000Y988500I9397J-3976D01*
G01Y50000D01*
X1164500D01*
G02X1155800Y65400I59J10191D01*
G03X1163200Y92500I-45922J27100D01*
G03X1056800I-53200J0D01*
G03X1064200Y65400I53322J0D01*
G02X1055500Y50000I-8759J-5209D01*
G01X50000D01*
Y988500D01*
G02X69600Y992500I10203J24D01*
G03X300000Y839800I230400J97468D01*
G03Y1340200I0J250200D01*
G03X69600Y1187500I0J-250168D01*
G02X50000Y1191500I-9397J3976D01*
G01Y4890000D01*
X230000D01*
G03X380000Y5040000I0J150000D01*
G01Y5070000D01*
X610000D01*
Y5499800D01*
X610200D01*
Y5680200D01*
X610000D01*
Y6270000D01*
X380000D01*
Y6344400D01*
G02X396500Y6352500I10218J42D01*
G03X550000Y6299800I153592J197468D01*
G03Y6800200I0J250200D01*
G03X396500Y6747500I92J-250168D01*
G02X380000Y6755600I-6282J8058D01*
G01Y7600000D01*
X13380000D01*
Y6751600D01*
G02X13363300Y6743700I-10211J-16D01*
G03X13205000Y6800200I-158360J-193679D01*
G03Y6299800I0J-250200D01*
G03X13440200Y6464800I0J250133D01*
G02X13454900Y6470100I9572J-3512D01*
G03X13529800Y6450000I75013J129923D01*
G01X13590000D01*
Y5520000D01*
G03X13740000Y5370000I150000J0D01*
G01X13850000D01*
Y4076400D01*
G02X13830500Y4072200I-10198J-20D01*
G03X13730000Y4137200I-100500J-45194D01*
G03Y3916800I0J-110200D01*
G03X13830500Y3981800I0J110194D01*
G02X13850000Y3977600I9302J-4180D01*
G01Y3822400D01*
G37*
G36*
G01X200000Y5670000D02*
Y5520000D01*
X380000D01*
Y5670000D01*
X200000D01*
G37*
%LPC*%
G75*
G36*
G01X7320000Y336800D02*
G02X7301100Y340300I75J53186D01*
G03X7288200Y335000I-3617J-9546D01*
G02X7240000Y304300I-48200J22488D01*
G02Y410700I0J53200D01*
G02X7258900Y407200I-75J-53186D01*
G03X7271800Y412500I3617J9546D01*
G02X7320000Y443200I48200J-22488D01*
G02Y336800I0J-53200D01*
G37*
G36*
G01X2289900Y655000D02*
G02X2276800Y690000I40206J35000D01*
G02X2330000Y743200I53200J0D01*
G02X2365000Y730100I0J-53306D01*
G02X2400000Y743200I35000J-40206D01*
G02X2453200Y690000I0J-53200D01*
G02X2440100Y655000I-53306J0D01*
G02Y585000I-40206J-35000D01*
G02X2453200Y550000I-40206J-35000D01*
G02X2400000Y496800I-53200J0D01*
G02X2365000Y509900I0J53306D01*
G02X2330000Y496800I-35000J40206D01*
G02X2276800Y550000I0J53200D01*
G02X2289900Y585000I53306J0D01*
G02Y655000I40206J35000D01*
G37*
G36*
G01X3166800Y1640000D02*
G02X3220000Y1693200I53200J0D01*
G02X3255000Y1680100I0J-53306D01*
G02X3290000Y1693200I35000J-40206D01*
G02X3343200Y1640000I0J-53200D01*
G02X3330100Y1605000I-53306J0D01*
G02Y1535000I-40206J-35000D01*
G02X3343200Y1500000I-40206J-35000D01*
G02X3290000Y1446800I-53200J0D01*
G02X3255000Y1459900I0J53306D01*
G02X3220000Y1446800I-35000J40206D01*
G02X3166800Y1500000I0J53200D01*
G02X3179900Y1535000I53306J0D01*
G02Y1605000I40206J35000D01*
G02X3166800Y1640000I40206J35000D01*
G37*
G36*
G01X5730700Y1796600D02*
G02X5767200Y1811100I36500J-38690D01*
G02Y1704700I0J-53200D01*
G02X5730700Y1719200I0J53190D01*
G02X5694200Y1704700I-36500J38690D01*
G02Y1811100I0J53200D01*
G02X5730700Y1796600I0J-53190D01*
G37*
G36*
G01X12198800Y4861000D02*
G02X12291200I46200J-26621D01*
G03X12308800I8800J5030D01*
G02X12355000Y4887700I46200J-26621D01*
G02Y4781300I0J-53200D01*
G02X12308800Y4808000I0J53321D01*
G03X12291200I-8800J-5030D01*
G02X12198800I-46200J26621D01*
G03X12181200I-8800J-5030D01*
G02X12088800I-46200J26621D01*
G03X12071200I-8800J-5030D01*
G02X11978800I-46200J26621D01*
G03X11961200I-8800J-5030D01*
G02X11868800I-46200J26621D01*
G03X11851200I-8800J-5030D01*
G02X11805000Y4781300I-46200J26621D01*
G02Y4887700I0J53200D01*
G02X11851200Y4861000I0J-53321D01*
G03X11868800I8800J5030D01*
G02X11961200I46200J-26621D01*
G03X11978800I8800J5030D01*
G02X12071200I46200J-26621D01*
G03X12088800I8800J5030D01*
G02X12181200I46200J-26621D01*
G03X12198800I8800J5030D01*
G37*
G36*
G01X10773800D02*
G02X10866200I46200J-26621D01*
G03X10883800I8800J5030D01*
G02X10930000Y4887700I46200J-26621D01*
G02Y4781300I0J-53200D01*
G02X10883800Y4808000I0J53321D01*
G03X10866200I-8800J-5030D01*
G02X10773800I-46200J26621D01*
G03X10756200I-8800J-5030D01*
G02X10663800I-46200J26621D01*
G03X10646200I-8800J-5030D01*
G02X10553800I-46200J26621D01*
G03X10536200I-8800J-5030D01*
G02X10443800I-46200J26621D01*
G03X10426200I-8800J-5030D01*
G02X10380000Y4781300I-46200J26621D01*
G02Y4887700I0J53200D01*
G02X10426200Y4861000I0J-53321D01*
G03X10443800I8800J5030D01*
G02X10536200I46200J-26621D01*
G03X10553800I8800J5030D01*
G02X10646200I46200J-26621D01*
G03X10663800I8800J5030D01*
G02X10756200I46200J-26621D01*
G03X10773800I8800J5030D01*
G37*
G36*
G01X9348800D02*
G02X9441200I46200J-26621D01*
G03X9458800I8800J5030D01*
G02X9505000Y4887700I46200J-26621D01*
G02Y4781300I0J-53200D01*
G02X9458800Y4808000I0J53321D01*
G03X9441200I-8800J-5030D01*
G02X9348800I-46200J26621D01*
G03X9331200I-8800J-5030D01*
G02X9238800I-46200J26621D01*
G03X9221200I-8800J-5030D01*
G02X9128800I-46200J26621D01*
G03X9111200I-8800J-5030D01*
G02X9018800I-46200J26621D01*
G03X9001200I-8800J-5030D01*
G02X8955000Y4781300I-46200J26621D01*
G02Y4887700I0J53200D01*
G02X9001200Y4861000I0J-53321D01*
G03X9018800I8800J5030D01*
G02X9111200I46200J-26621D01*
G03X9128800I8800J5030D01*
G02X9221200I46200J-26621D01*
G03X9238800I8800J5030D01*
G02X9331200I46200J-26621D01*
G03X9348800I8800J5030D01*
G37*
G36*
G01X7923800D02*
G02X8016200I46200J-26621D01*
G03X8033800I8800J5030D01*
G02X8080000Y4887700I46200J-26621D01*
G02Y4781300I0J-53200D01*
G02X8033800Y4808000I0J53321D01*
G03X8016200I-8800J-5030D01*
G02X7923800I-46200J26621D01*
G03X7906200I-8800J-5030D01*
G02X7813800I-46200J26621D01*
G03X7796200I-8800J-5030D01*
G02X7703800I-46200J26621D01*
G03X7686200I-8800J-5030D01*
G02X7593800I-46200J26621D01*
G03X7576200I-8800J-5030D01*
G02X7530000Y4781300I-46200J26621D01*
G02Y4887700I0J53200D01*
G02X7576200Y4861000I0J-53321D01*
G03X7593800I8800J5030D01*
G02X7686200I46200J-26621D01*
G03X7703800I8800J5030D01*
G02X7796200I46200J-26621D01*
G03X7813800I8800J5030D01*
G02X7906200I46200J-26621D01*
G03X7923800I8800J5030D01*
G37*
G36*
G01X6028800D02*
G02X6121200I46200J-26621D01*
G03X6138800I8800J5030D01*
G02X6185000Y4887700I46200J-26621D01*
G02Y4781300I0J-53200D01*
G02X6138800Y4808000I0J53321D01*
G03X6121200I-8800J-5030D01*
G02X6028800I-46200J26621D01*
G03X6011200I-8800J-5030D01*
G02X5918800I-46200J26621D01*
G03X5901200I-8800J-5030D01*
G02X5808800I-46200J26621D01*
G03X5791200I-8800J-5030D01*
G02X5698800I-46200J26621D01*
G03X5681200I-8800J-5030D01*
G02X5666700Y4791800I-46065J26641D01*
G03X5667400Y4775000I6119J-8160D01*
G02X5692200Y4730000I-28427J-45000D01*
G02X5585800I-53200J0D01*
G02X5607300Y4772700I53152J0D01*
G03X5606600Y4789500I-6119J8160D01*
G02X5581800Y4834500I28427J45000D01*
G02X5635000Y4887700I53200J0D01*
G02X5681200Y4861000I0J-53321D01*
G03X5698800I8800J5030D01*
G02X5791200I46200J-26621D01*
G03X5808800I8800J5030D01*
G02X5901200I46200J-26621D01*
G03X5918800I8800J5030D01*
G02X6011200I46200J-26621D01*
G03X6028800I8800J5030D01*
G37*
G36*
G01X4603800D02*
G02X4696200I46200J-26621D01*
G03X4713800I8800J5030D01*
G02X4760000Y4887700I46200J-26621D01*
G02Y4781300I0J-53200D01*
G02X4713800Y4808000I0J53321D01*
G03X4696200I-8800J-5030D01*
G02X4603800I-46200J26621D01*
G03X4586200I-8800J-5030D01*
G02X4493800I-46200J26621D01*
G03X4476200I-8800J-5030D01*
G02X4383800I-46200J26621D01*
G03X4366200I-8800J-5030D01*
G02X4273800I-46200J26621D01*
G03X4256200I-8800J-5030D01*
G02X4210000Y4781300I-46200J26621D01*
G02Y4887700I0J53200D01*
G02X4256200Y4861000I0J-53321D01*
G03X4273800I8800J5030D01*
G02X4366200I46200J-26621D01*
G03X4383800I8800J5030D01*
G02X4476200I46200J-26621D01*
G03X4493800I8800J5030D01*
G02X4586200I46200J-26621D01*
G03X4603800I8800J5030D01*
G37*
G36*
G01X3178800D02*
G02X3271200I46200J-26621D01*
G03X3288800I8800J5030D01*
G02X3335000Y4887700I46200J-26621D01*
G02Y4781300I0J-53200D01*
G02X3288800Y4808000I0J53321D01*
G03X3271200I-8800J-5030D01*
G02X3178800I-46200J26621D01*
G03X3161200I-8800J-5030D01*
G02X3068800I-46200J26621D01*
G03X3051200I-8800J-5030D01*
G02X2958800I-46200J26621D01*
G03X2941200I-8800J-5030D01*
G02X2848800I-46200J26621D01*
G03X2831200I-8800J-5030D01*
G02X2785000Y4781300I-46200J26621D01*
G02Y4887700I0J53200D01*
G02X2831200Y4861000I0J-53321D01*
G03X2848800I8800J5030D01*
G02X2941200I46200J-26621D01*
G03X2958800I8800J5030D01*
G02X3051200I46200J-26621D01*
G03X3068800I8800J5030D01*
G02X3161200I46200J-26621D01*
G03X3178800I8800J5030D01*
G37*
G36*
G01X1753800D02*
G02X1846200I46200J-26621D01*
G03X1863800I8800J5030D01*
G02X1910000Y4887700I46200J-26621D01*
G02Y4781300I0J-53200D01*
G02X1863800Y4808000I0J53321D01*
G03X1846200I-8800J-5030D01*
G02X1753800I-46200J26621D01*
G03X1736200I-8800J-5030D01*
G02X1643800I-46200J26621D01*
G03X1626200I-8800J-5030D01*
G02X1533800I-46200J26621D01*
G03X1516200I-8800J-5030D01*
G02X1423800I-46200J26621D01*
G03X1406200I-8800J-5030D01*
G02X1360000Y4781300I-46200J26621D01*
G02Y4887700I0J53200D01*
G02X1406200Y4861000I0J-53321D01*
G03X1423800I8800J5030D01*
G02X1516200I46200J-26621D01*
G03X1533800I8800J5030D01*
G02X1626200I46200J-26621D01*
G03X1643800I8800J5030D01*
G02X1736200I46200J-26621D01*
G03X1753800I8800J5030D01*
G37*
G36*
G01X6923500Y4353800D02*
G02X6896800Y4400000I26621J46200D01*
G02X7003200I53200J0D01*
G02X6976500Y4353800I-53321J0D01*
G03Y4336200I5030J-8800D01*
G02X7003200Y4290000I-26621J-46200D01*
G02X6896800I-53200J0D01*
G02X6923500Y4336200I53321J0D01*
G03Y4353800I-5030J8800D01*
G37*
G36*
G01X13023200Y3269900D02*
G02X13019300Y3290000I49320J19998D01*
G02X13125700I53200J0D01*
G02X13121800Y3269900I-53220J-102D01*
G03X13132200Y3255900I9440J-3850D01*
G02X13137500Y3256200I5652J-52880D01*
G02X13084300Y3203000I0J-53200D01*
G02X13088200Y3223100I53220J102D01*
G03X13077800Y3237100I-9440J3850D01*
G02X13072500Y3236800I-5652J52880D01*
G02X13067200Y3237100I352J53180D01*
G03X13056800Y3223100I-960J-10150D01*
G02X13060700Y3203000I-49320J-19998D01*
G02X13007500Y3256200I-53200J0D01*
G02X13012800Y3255900I-352J-53180D01*
G03X13023200Y3269900I960J10150D01*
G37*
G36*
G01X4077300Y2698000D02*
G02X4056800Y2740000I32774J42000D01*
G02X4163200I53200J0D01*
G02X4142700Y2698000I-53274J0D01*
G03Y2682000I6276J-8000D01*
G02X4163200Y2642000I-32684J-42004D01*
G03X4179600Y2634300I10180J366D01*
G02X4212500Y2645700I32900J-41774D01*
G02Y2539300I0J-53200D01*
G02X4159300Y2590500I0J53239D01*
G03X4142900Y2598200I-10180J-366D01*
G02X4110000Y2586800I-32900J41774D01*
G02X4056800Y2640000I0J53200D01*
G02X4077300Y2682000I53274J0D01*
G03Y2698000I-6276J8000D01*
G37*
G36*
G01X7876100Y2470900D02*
G02X7840000Y2456800I-36100J39163D01*
G02Y2563200I0J53200D01*
G02X7890800Y2525900I0J-53243D01*
G03X7907400Y2521500I9702J3088D01*
G02X7943500Y2535600I36100J-39163D01*
G02X7980000Y2521100I0J-53190D01*
G02X8016500Y2535600I36500J-38690D01*
G02Y2429200I0J-53200D01*
G02X7980000Y2443700I0J53190D01*
G02X7943500Y2429200I-36500J38690D01*
G02X7892700Y2466500I0J53243D01*
G03X7876100Y2470900I-9702J-3088D01*
G37*
G36*
G01X10246200Y2453500D02*
G02X10200000Y2426800I-46200J26621D01*
G02Y2533200I0J53200D01*
G02X10246200Y2506500I0J-53321D01*
G03X10263800I8800J5030D01*
G02X10310000Y2533200I46200J-26621D01*
G02Y2426800I0J-53200D01*
G02X10263800Y2453500I0J53321D01*
G03X10246200I-8800J-5030D01*
G37*
G36*
G01X2011800Y1424900D02*
G02X1986800Y1470000I28180J45100D01*
G02X2093200I53200J0D01*
G02X2064600Y1422800I-53248J0D01*
G03X2063900Y1405100I4688J-9049D01*
G02X2088900Y1360000I-28180J-45100D01*
G02X1982500I-53200J0D01*
G02X2011100Y1407200I53248J0D01*
G03X2011800Y1424900I-4688J9049D01*
G37*
G36*
G01X1779800Y746200D02*
G02X1756800Y790000I30205J43800D01*
G02X1863200I53200J0D01*
G02X1831800Y741500I-53156J0D01*
G03X1830200Y723800I4197J-9302D01*
G02X1853200Y680000I-30205J-43800D01*
G02X1746800I-53200J0D01*
G02X1778200Y728500I53156J0D01*
G03X1779800Y746200I-4197J9302D01*
G37*
G36*
G01X6941300Y7036500D02*
G03Y7043500I-3711J3500D01*
G02X6926800Y7080000I38690J36500D01*
G02X7033200I53200J0D01*
G02X7018700Y7043500I-53190J0D01*
G03Y7036500I3711J-3500D01*
G02Y6963500I-38690J-36500D01*
G03Y6956500I3711J-3500D01*
G02X7033200Y6920000I-38690J-36500D01*
G02X6926800I-53200J0D01*
G02X6941300Y6956500I53190J0D01*
G03Y6963500I-3711J3500D01*
G02Y7036500I38690J36500D01*
G37*
G36*
G01X727600Y5919000D02*
G02X686300Y5970800I11835J51800D01*
G02X687100Y5979700I53174J-294D01*
G02X645700Y6031600I11832J51900D01*
G02X752100I53200J0D01*
G02X751300Y6022700I-53174J294D01*
G02X792700Y5970800I-11832J-51900D01*
G02X791900Y5961800I-53183J192D01*
G02X833200Y5910000I-11835J-51800D01*
G02X832400Y5901000I-53183J192D01*
G02X873700Y5849200I-11835J-51800D01*
G02X767300I-53200J0D01*
G02X768100Y5858200I53183J-192D01*
G02X726800Y5910000I11835J51800D01*
G02X727600Y5919000I53183J-192D01*
G37*
G36*
G01X12752600Y4863400D02*
G03X12752800Y4882000I-4047J9345D01*
G02X12689800Y4980000I44722J98000D01*
G02X12905200I107700J0D01*
G02X12842200Y4882000I-107722J0D01*
G03X12842400Y4863400I4247J-9255D01*
G02X12910200Y4760000I-44946J-103400D01*
G02X12684800I-112700J0D01*
G02X12752600Y4863400I112746J0D01*
G37*
G36*
G01X8477600D02*
G03X8477800Y4882000I-4047J9345D01*
G02X8414800Y4980000I44722J98000D01*
G02X8630200I107700J0D01*
G02X8567200Y4882000I-107722J0D01*
G03X8567400Y4863400I4247J-9255D01*
G02X8635200Y4760000I-44946J-103400D01*
G02X8409800I-112700J0D01*
G02X8477600Y4863400I112746J0D01*
G37*
G36*
G01X6587600D02*
G03X6587800Y4882000I-4047J9345D01*
G02X6524800Y4980000I44722J98000D01*
G02X6740200I107700J0D01*
G02X6677200Y4882000I-107722J0D01*
G03X6677400Y4863400I4247J-9255D01*
G02X6745200Y4760000I-44946J-103400D01*
G02X6519800I-112700J0D01*
G02X6587600Y4863400I112746J0D01*
G37*
G36*
G01X2312600D02*
G03X2312800Y4882000I-4047J9345D01*
G02X2249800Y4980000I44722J98000D01*
G02X2465200I107700J0D01*
G02X2402200Y4882000I-107722J0D01*
G03X2402400Y4863400I4247J-9255D01*
G02X2470200Y4760000I-44946J-103400D01*
G02X2244800I-112700J0D01*
G02X2312600Y4863400I112746J0D01*
G37*
G36*
G01X10327500Y4400600D02*
G03X10320500I-3500J-3711D01*
G02X10284000Y4386100I-36500J38690D01*
G02Y4492500I0J53200D01*
G02X10320500Y4478000I0J-53190D01*
G03X10327500I3500J3711D01*
G02X10364000Y4492500I36500J-38690D01*
G02Y4386100I0J-53200D01*
G02X10327500Y4400600I0J53190D01*
G37*
G36*
G01X11752500Y4390800D02*
G03X11745500I-3500J-3711D01*
G02X11709000Y4376300I-36500J38690D01*
G02Y4482700I0J53200D01*
G02X11745500Y4468200I0J-53190D01*
G03X11752500I3500J3711D01*
G02X11789000Y4482700I36500J-38690D01*
G02Y4376300I0J-53200D01*
G02X11752500Y4390800I0J53190D01*
G37*
G36*
G01X8902500D02*
G03X8895500I-3500J-3711D01*
G02X8859000Y4376300I-36500J38690D01*
G02Y4482700I0J53200D01*
G02X8895500Y4468200I0J-53190D01*
G03X8902500I3500J3711D01*
G02X8939000Y4482700I36500J-38690D01*
G02Y4376300I0J-53200D01*
G02X8902500Y4390800I0J53190D01*
G37*
G36*
G01X7477500D02*
G03X7470500I-3500J-3711D01*
G02X7434000Y4376300I-36500J38690D01*
G02Y4482700I0J53200D01*
G02X7470500Y4468200I0J-53190D01*
G03X7477500I3500J3711D01*
G02X7514000Y4482700I36500J-38690D01*
G02Y4376300I0J-53200D01*
G02X7477500Y4390800I0J53190D01*
G37*
G36*
G01X5551900Y4428500D02*
G03X5566300Y4436400I4283J9267D01*
G02X5619000Y4482700I52700J-6842D01*
G02Y4376300I0J-53200D01*
G02X5597100Y4381000I-35J53208D01*
G03X5582700Y4373100I-4283J-9267D01*
G02X5530000Y4326800I-52700J6842D01*
G02Y4433200I0J53200D01*
G02X5551900Y4428500I35J-53208D01*
G37*
G36*
G01X4157500Y4390800D02*
G03X4150500I-3500J-3711D01*
G02X4114000Y4376300I-36500J38690D01*
G02Y4482700I0J53200D01*
G02X4150500Y4468200I0J-53190D01*
G03X4157500I3500J3711D01*
G02X4194000Y4482700I36500J-38690D01*
G02Y4376300I0J-53200D01*
G02X4157500Y4390800I0J53190D01*
G37*
G36*
G01X2732500D02*
G03X2725500I-3500J-3711D01*
G02X2689000Y4376300I-36500J38690D01*
G02Y4482700I0J53200D01*
G02X2725500Y4468200I0J-53190D01*
G03X2732500I3500J3711D01*
G02X2769000Y4482700I36500J-38690D01*
G02Y4376300I0J-53200D01*
G02X2732500Y4390800I0J53190D01*
G37*
G36*
G01X1307500D02*
G03X1300500I-3500J-3711D01*
G02X1264000Y4376300I-36500J38690D01*
G02Y4482700I0J53200D01*
G02X1300500Y4468200I0J-53190D01*
G03X1307500I3500J3711D01*
G02X1344000Y4482700I36500J-38690D01*
G02Y4376300I0J-53200D01*
G02X1307500Y4390800I0J53190D01*
G37*
G36*
G01X13329400Y4068300D02*
G03X13325500Y4082800I-8602J5461D01*
G02X13296800Y4130000I24463J47200D01*
G02X13403200I53200J0D01*
G02X13395100Y4101700I-53222J-76D01*
G03X13399000Y4087200I8602J-5461D01*
G02X13427700Y4040000I-24463J-47200D01*
G02X13321300I-53200J0D01*
G02X13329400Y4068300I53222J76D01*
G37*
G36*
G01X8647600Y3754500D02*
G03X8634300Y3746100I-3171J-9709D01*
G02X8522500Y3647300I-111800J13855D01*
G02Y3872700I0J112700D01*
G02X8605800Y3835900I0J-112678D01*
G03X8621600Y3836700I7574J6841D01*
G02X8664300Y3858200I42700J-31652D01*
G02Y3751800I0J-53200D01*
G02X8647600Y3754500I32J53195D01*
G37*
G36*
G01X10066700Y3753400D02*
G03X10054100Y3744900I-2478J-9916D01*
G02X9947500Y3652300I-106600J15058D01*
G02Y3867700I0J107700D01*
G02X10022700Y3837100I0J-107703D01*
G03X10037800Y3838100I7100J7300D01*
G02X10079500Y3858200I41700J-33206D01*
G02Y3751800I0J-53200D01*
G02X10066700Y3753400I148J53182D01*
G37*
G36*
G01X3900800Y3752500D02*
G03X3889000Y3744000I-1725J-10046D01*
G02X3782500Y3652300I-106500J15994D01*
G02Y3867700I0J107700D01*
G02X3855200Y3839500I0J-107811D01*
G03X3869700Y3840300I6856J7535D01*
G02X3909500Y3858200I39800J-35297D01*
G02Y3751800I0J-53200D01*
G02X3900800Y3752500I-97J53208D01*
G37*
G36*
G01X11978600Y3567000D02*
G03X11975000Y3572700I-5025J813D01*
G02X11935800Y3624000I13967J51300D01*
G02X11989000Y3677200I53200J0D01*
G02X12035000Y3650600I0J-53074D01*
G03X12041500Y3648500I4425J2588D01*
G02X12085000Y3657700I43553J-98489D01*
G02X12162400Y3624900I0J-107723D01*
G03X12179300Y3628400I7346J7082D01*
G02X12229000Y3662700I49700J-18857D01*
G02Y3556300I0J-53200D01*
G02X12207100Y3561000I-35J53208D01*
G03X12192700Y3551600I-4213J-9276D01*
G01Y3550000D01*
G02X11977300I-107700J0D01*
G02X11978600Y3567000I107724J312D01*
G37*
G36*
G01X10553600D02*
G03X10550000Y3572700I-5025J813D01*
G02X10510800Y3624000I13967J51300D01*
G02X10564000Y3677200I53200J0D01*
G02X10610000Y3650600I0J-53074D01*
G03X10616500Y3648500I4425J2588D01*
G02X10660000Y3657700I43553J-98489D01*
G02X10737400Y3624900I0J-107723D01*
G03X10754300Y3628400I7346J7082D01*
G02X10804000Y3662700I49700J-18857D01*
G02Y3556300I0J-53200D01*
G02X10782100Y3561000I-35J53208D01*
G03X10767700Y3551600I-4213J-9276D01*
G01Y3550000D01*
G02X10552300I-107700J0D01*
G02X10553600Y3567000I107724J312D01*
G37*
G36*
G01X9128600D02*
G03X9125000Y3572700I-5025J813D01*
G02X9085800Y3624000I13967J51300D01*
G02X9139000Y3677200I53200J0D01*
G02X9185000Y3650600I0J-53074D01*
G03X9191500Y3648500I4425J2588D01*
G02X9235000Y3657700I43553J-98489D01*
G02X9312400Y3624900I0J-107723D01*
G03X9329300Y3628400I7346J7082D01*
G02X9379000Y3662700I49700J-18857D01*
G02Y3556300I0J-53200D01*
G02X9357100Y3561000I-35J53208D01*
G03X9342700Y3551600I-4213J-9276D01*
G01Y3550000D01*
G02X9127300I-107700J0D01*
G02X9128600Y3567000I107724J312D01*
G37*
G36*
G01X7703600D02*
G03X7700000Y3572700I-5025J813D01*
G02X7660800Y3624000I13967J51300D01*
G02X7714000Y3677200I53200J0D01*
G02X7760000Y3650600I0J-53074D01*
G03X7766500Y3648500I4425J2588D01*
G02X7810000Y3657700I43553J-98489D01*
G02X7887400Y3624900I0J-107723D01*
G03X7904300Y3628400I7346J7082D01*
G02X7954000Y3662700I49700J-18857D01*
G02Y3556300I0J-53200D01*
G02X7932100Y3561000I-35J53208D01*
G03X7917700Y3551600I-4213J-9276D01*
G01Y3550000D01*
G02X7702300I-107700J0D01*
G02X7703600Y3567000I107724J312D01*
G37*
G36*
G01X5812400Y3554800D02*
G03X5807900Y3560100I-5103J227D01*
G02X5760900Y3612900I6158J52800D01*
G02X5814100Y3666100I53200J0D01*
G02X5857500Y3643600I0J-53107D01*
G03X5864300Y3642200I4155J2967D01*
G02X5920000Y3657700I55700J-92330D01*
G02X5994200Y3628100I0J-107801D01*
G03X6010500Y3631300I7011J7404D01*
G02X6059000Y3662700I48500J-21756D01*
G02Y3556300I0J-53200D01*
G02X6041300Y3559300I-85J53214D01*
G03X6027700Y3549700I-3413J-9598D01*
G02X5920000Y3442300I-107700J300D01*
G02X5812300Y3550000I0J107700D01*
G02X5812400Y3554800I107703J157D01*
G37*
G36*
G01X4401500Y3623700D02*
G03X4416400Y3623600I7497J6916D01*
G02X4495000Y3657700I78600J-73536D01*
G02X4569200Y3628100I0J-107801D01*
G03X4585500Y3631300I7011J7404D01*
G02X4634000Y3662700I48500J-21756D01*
G02Y3556300I0J-53200D01*
G02X4616300Y3559300I-85J53214D01*
G03X4602700Y3549700I-3413J-9598D01*
G02X4495000Y3442300I-107700J300D01*
G02X4389500Y3528500I0J107661D01*
G03X4376800Y3536200I-9967J-2115D01*
G02X4362500Y3534300I-14096J51327D01*
G02Y3640700I0J53200D01*
G02X4401500Y3623700I0J-53235D01*
G37*
G36*
G01X2979000Y3626200D02*
G03X2993700Y3626000I7446J6965D01*
G02X3070000Y3657700I76300J-75975D01*
G02X3144200Y3628100I0J-107801D01*
G03X3160500Y3631300I7011J7404D01*
G02X3209000Y3662700I48500J-21756D01*
G02Y3556300I0J-53200D01*
G02X3191300Y3559300I-85J53214D01*
G03X3177700Y3549700I-3413J-9598D01*
G02X3070000Y3442300I-107700J300D01*
G02X2964200Y3530100I0J107645D01*
G03X2951900Y3538100I-10011J-1936D01*
G02X2940000Y3536800I-11693J51923D01*
G02Y3643200I0J53200D01*
G02X2979000Y3626200I0J-53235D01*
G37*
G36*
G01X1561200Y3633700D02*
G03X1575600Y3632400I7844J6484D01*
G02X1645000Y3657700I69400J-82535D01*
G02X1719200Y3628100I0J-107801D01*
G03X1735500Y3631300I7011J7404D01*
G02X1784000Y3662700I48500J-21756D01*
G02Y3556300I0J-53200D01*
G02X1766300Y3559300I-85J53214D01*
G03X1752700Y3549700I-3413J-9598D01*
G02X1645000Y3442300I-107700J300D01*
G02X1537900Y3538200I0J107754D01*
G03X1526600Y3547200I-10117J-1108D01*
G02X1520000Y3546800I-6512J52805D01*
G02Y3653200I0J53200D01*
G02X1561200Y3633700I0J-53274D01*
G37*
G36*
G01X9019000Y3566100D02*
G02X9055500Y3580600I36500J-38690D01*
G02Y3474200I0J-53200D01*
G02X9019000Y3488700I0J53190D01*
G02X8982500Y3474200I-36500J38690D01*
G02Y3580600I0J53200D01*
G02X9019000Y3566100I0J-53190D01*
G37*
G36*
G01X11869000Y3466100D02*
G02X11905500Y3480600I36500J-38690D01*
G02Y3374200I0J-53200D01*
G02X11869000Y3388700I0J53190D01*
G02X11832500Y3374200I-36500J38690D01*
G02Y3480600I0J53200D01*
G02X11869000Y3466100I0J-53190D01*
G37*
G36*
G01X10444000D02*
G02X10480500Y3480600I36500J-38690D01*
G02Y3374200I0J-53200D01*
G02X10444000Y3388700I0J53190D01*
G02X10407500Y3374200I-36500J38690D01*
G02Y3480600I0J53200D01*
G02X10444000Y3466100I0J-53190D01*
G37*
G36*
G01X5699000D02*
G02X5735500Y3480600I36500J-38690D01*
G02Y3374200I0J-53200D01*
G02X5699000Y3388700I0J53190D01*
G02X5662500Y3374200I-36500J38690D01*
G02Y3480600I0J53200D01*
G02X5699000Y3466100I0J-53190D01*
G37*
G36*
G01X4274000D02*
G02X4310500Y3480600I36500J-38690D01*
G02Y3374200I0J-53200D01*
G02X4274000Y3388700I0J53190D01*
G02X4237500Y3374200I-36500J38690D01*
G02Y3480600I0J53200D01*
G02X4274000Y3466100I0J-53190D01*
G37*
G36*
G01X2849000D02*
G02X2885500Y3480600I36500J-38690D01*
G02Y3374200I0J-53200D01*
G02X2849000Y3388700I0J53190D01*
G02X2812500Y3374200I-36500J38690D01*
G02Y3480600I0J53200D01*
G02X2849000Y3466100I0J-53190D01*
G37*
G36*
G01X1424000D02*
G02X1460500Y3480600I36500J-38690D01*
G02Y3374200I0J-53200D01*
G02X1424000Y3388700I0J53190D01*
G02X1387500Y3374200I-36500J38690D01*
G02Y3480600I0J53200D01*
G02X1424000Y3466100I0J-53190D01*
G37*
G36*
G01X11690100Y3256100D02*
G03X11700600Y3268500I515J10210D01*
G02X11699300Y3280000I51879J11688D01*
G02X11805700I53200J0D01*
G02X11803800Y3266000I-53188J89D01*
G03X11814700Y3253100I9834J-2746D01*
G02X11820200Y3253400I5643J-52892D01*
G02X11767000Y3200200I0J-53200D01*
G02X11768900Y3214200I53188J-89D01*
G03X11758000Y3227100I-9834J2746D01*
G02X11752500Y3226800I-5643J52892D01*
G02X11749900Y3226900I743J53171D01*
G03X11739400Y3214500I-515J-10210D01*
G02X11740700Y3203000I-51879J-11688D01*
G02X11687500Y3256200I-53200J0D01*
G02X11690100Y3256100I-743J-53171D01*
G37*
G36*
G01X10255300Y3255600D02*
G03X10266900Y3266400I1426J10098D01*
G02X10266800Y3270000I53109J3277D01*
G02X10373200I53200J0D01*
G02X10373100Y3266800I-53198J61D01*
G03X10382300Y3256000I10172J-654D01*
G02X10430700Y3203000I-4819J-53000D01*
G02X10324300I-53200J0D01*
G02X10324400Y3206200I53198J-61D01*
G03X10315200Y3217000I-10172J654D01*
G02X10312200Y3217400I5527J52903D01*
G03X10300600Y3206600I-1426J-10098D01*
G02X10300700Y3203000I-53109J-3277D01*
G02X10247500Y3256200I-53200J0D01*
G02X10255300Y3255600I-168J-53187D01*
G37*
G36*
G01X8828900Y3256200D02*
G03X8839400Y3267000I322J10191D01*
G02X8839300Y3270000I53091J3271D01*
G02X8945700I53200J0D01*
G02X8945600Y3267000I-53191J271D01*
G03X8956100Y3256200I10178J-609D01*
G01X8957500D01*
G02X8904300Y3203000I0J-53200D01*
G02X8904400Y3206000I53191J-271D01*
G03X8893900Y3216800I-10178J609D01*
G01X8892500D01*
X8891100D01*
G03X8880600Y3206000I-322J-10191D01*
G02X8880700Y3203000I-53091J-3271D01*
G02X8827500Y3256200I-53200J0D01*
G01X8828900D01*
G37*
G36*
G01X6587200Y2967500D02*
G03X6572800I-7200J-7156D01*
G02X6535000Y2951800I-37745J37523D01*
G02Y3058200I0J53200D01*
G02X6572800Y3042500I55J-53223D01*
G03X6587200I7200J7156D01*
G02X6625000Y3058200I37745J-37523D01*
G02Y2951800I0J-53200D01*
G02X6587200Y2967500I-55J53223D01*
G37*
G36*
G01X13297800Y2822500D02*
G02X13308900Y2790000I-42029J-32500D01*
G02X13202500I-53200J0D01*
G02X13217900Y2827500I53223J55D01*
G02X13206800Y2860000I42029J32500D01*
G02X13313200I53200J0D01*
G02X13297800Y2822500I-53223J-55D01*
G37*
G36*
G01X9992700Y2815400D02*
G03X10007900Y2821900I5259J8725D01*
G02X10059800Y2863200I51900J-11960D01*
G02Y2756800I0J-53200D01*
G02X10032100Y2764600I0J53085D01*
G03X10016900Y2758100I-5259J-8725D01*
G02X9965000Y2716800I-51900J11960D01*
G02Y2823200I0J53200D01*
G02X9992700Y2815400I0J-53085D01*
G37*
G36*
G01X8610000Y2765900D02*
G03X8594700Y2761100I-5764J-8413D01*
G02X8545000Y2726800I-49700J18857D01*
G02Y2833200I0J53200D01*
G02X8574800Y2824100I40J-53212D01*
G03X8590100Y2828900I5764J8413D01*
G02X8639800Y2863200I49700J-18857D01*
G02Y2756800I0J-53200D01*
G02X8610000Y2765900I-40J53212D01*
G37*
G36*
G01X11456900Y2742300D02*
G03X11442600I-7150J-7207D01*
G02X11405000Y2726800I-37545J37723D01*
G02Y2833200I0J53200D01*
G02X11442600Y2817700I55J-53223D01*
G03X11456900I7150J7207D01*
G02X11494500Y2833200I37545J-37723D01*
G02Y2726800I0J-53200D01*
G02X11456900Y2742300I-55J53223D01*
G37*
G36*
G01X6360600Y2699800D02*
G03X6355800Y2712600I-9468J3750D01*
G02X6326800Y2760000I24237J47400D01*
G02X6433200I53200J0D01*
G02X6429400Y2740200I-53210J-53D01*
G03X6434200Y2727400I9468J-3750D01*
G02X6455200Y2708100I-24192J-47397D01*
G03X6471300Y2706500I8663J5366D01*
G01X6474600Y2710000D01*
X6471300Y2713500D01*
G02X6456800Y2750000I38690J36500D01*
G02X6563200I53200J0D01*
G02X6548700Y2713500I-53190J0D01*
G03Y2706500I3711J-3500D01*
G02X6563200Y2670000I-38690J-36500D01*
G02X6529400Y2620500I-53146J0D01*
G03X6523400Y2608000I3752J-9491D01*
G02X6525700Y2592500I-50904J-15474D01*
G02X6419300I-53200J0D01*
G02X6423300Y2612800I53212J59D01*
G03X6413300Y2626900I-9400J3929D01*
G02X6410000Y2626800I-3261J53101D01*
G02X6356800Y2680000I0J53200D01*
G02X6360600Y2699800I53210J53D01*
G37*
G36*
G01X7807300Y2682000D02*
G03Y2698000I-6276J8000D01*
G02X7786800Y2740000I32774J42000D01*
G02X7893200I53200J0D01*
G02X7872700Y2698000I-53274J0D01*
G03Y2682000I6276J-8000D01*
G02X7893200Y2640000I-32774J-42000D01*
G02X7786800I-53200J0D01*
G02X7807300Y2682000I53274J0D01*
G37*
G36*
G01X7647300D02*
G03Y2698000I-6276J8000D01*
G02X7626800Y2740000I32774J42000D01*
G02X7733200I53200J0D01*
G02X7712700Y2698000I-53274J0D01*
G03Y2682000I6276J-8000D01*
G02X7733200Y2640000I-32774J-42000D01*
G02X7626800I-53200J0D01*
G02X7647300Y2682000I53274J0D01*
G37*
G36*
G01X2357300D02*
G03Y2698000I-6276J8000D01*
G02X2336800Y2740000I32774J42000D01*
G02X2443200I53200J0D01*
G02X2422700Y2698000I-53274J0D01*
G03Y2682000I6276J-8000D01*
G02X2443200Y2640000I-32774J-42000D01*
G02X2336800I-53200J0D01*
G02X2357300Y2682000I53274J0D01*
G37*
G36*
G01X11715200Y2559400D02*
G02X11752500Y2574700I37300J-37817D01*
G02Y2468300I0J-53200D01*
G02X11716800Y2482000I-55J53221D01*
G02X11679500Y2466700I-37300J37817D01*
G02Y2573100I0J53200D01*
G02X11715200Y2559400I55J-53221D01*
G37*
G36*
G01X13043100Y2462200D02*
G03X13035900I-3600J-3645D01*
G02X12998500Y2446800I-37400J37714D01*
G02Y2553200I0J53200D01*
G02X13035900Y2537800I0J-53114D01*
G03X13043100I3600J3645D01*
G02X13080500Y2553200I37400J-37714D01*
G02Y2446800I0J-53200D01*
G02X13043100Y2462200I0J53114D01*
G37*
G36*
G01X12260000Y2461100D02*
G02X12296500Y2475600I36500J-38690D01*
G02Y2369200I0J-53200D01*
G02X12260000Y2383700I0J53190D01*
G02X12223500Y2369200I-36500J38690D01*
G02Y2475600I0J53200D01*
G02X12260000Y2461100I0J-53190D01*
G37*
G36*
G01X10840000D02*
G02X10876500Y2475600I36500J-38690D01*
G02Y2369200I0J-53200D01*
G02X10840000Y2383700I0J53190D01*
G02X10803500Y2369200I-36500J38690D01*
G02Y2475600I0J53200D01*
G02X10840000Y2461100I0J-53190D01*
G37*
G36*
G01X9400000D02*
G02X9436500Y2475600I36500J-38690D01*
G02Y2369200I0J-53200D01*
G02X9400000Y2383700I0J53190D01*
G02X9363500Y2369200I-36500J38690D01*
G02Y2475600I0J53200D01*
G02X9400000Y2461100I0J-53190D01*
G37*
G36*
G01X3230000Y2438700D02*
G02X3266500Y2453200I36500J-38690D01*
G02Y2346800I0J-53200D01*
G02X3230000Y2361300I0J53190D01*
G02X3193500Y2346800I-36500J38690D01*
G02Y2453200I0J53200D01*
G02X3230000Y2438700I0J-53190D01*
G37*
G36*
G01X1810000Y2365600D02*
G02X1846500Y2380100I36500J-38690D01*
G02Y2273700I0J-53200D01*
G02X1810000Y2288200I0J53190D01*
G02X1773500Y2273700I-36500J38690D01*
G02Y2380100I0J53200D01*
G02X1810000Y2365600I0J-53190D01*
G37*
G36*
G01X6080000Y2361100D02*
G02X6116500Y2375600I36500J-38690D01*
G02Y2269200I0J-53200D01*
G02X6080000Y2283700I0J53190D01*
G02X6043500Y2269200I-36500J38690D01*
G02Y2375600I0J53200D01*
G02X6080000Y2361100I0J-53190D01*
G37*
G36*
G01X4650000D02*
G02X4686500Y2375600I36500J-38690D01*
G02Y2269200I0J-53200D01*
G02X4650000Y2283700I0J53190D01*
G02X4613500Y2269200I-36500J38690D01*
G02Y2375600I0J53200D01*
G02X4650000Y2361100I0J-53190D01*
G37*
G36*
G01X13159900Y1815000D02*
G02Y1885000I40206J35000D01*
G02X13146800Y1920000I40206J35000D01*
G02X13253200I53200J0D01*
G02X13240100Y1885000I-53306J0D01*
G02Y1815000I-40206J-35000D01*
G02Y1745000I-40206J-35000D01*
G02X13253200Y1710000I-40206J-35000D01*
G02X13146800I-53200J0D01*
G02X13159900Y1745000I53306J0D01*
G02Y1815000I40206J35000D01*
G37*
G36*
G01X2297900Y1679400D02*
G03X2282200Y1685800I-9985J-2037D01*
G02X2252500Y1676800I-29615J44226D01*
G02Y1783200I0J53200D01*
G02X2304600Y1740600I0J-53159D01*
G03X2320300Y1734200I9985J2037D01*
G02X2350000Y1743200I29615J-44226D01*
G02X2385000Y1730100I0J-53306D01*
G02X2455000I35000J-40206D01*
G02X2490000Y1743200I35000J-40206D01*
G02Y1636800I0J-53200D01*
G02X2455000Y1649900I0J53306D01*
G02X2420000Y1636800I-35000J40206D01*
G02X2414100Y1637100I-252J53213D01*
G03X2402900Y1625900I-1079J-10121D01*
G02X2403200Y1620000I-52913J-5648D01*
G02X2390100Y1585000I-53306J0D01*
G02Y1515000I-40206J-35000D01*
G02X2403200Y1480000I-40206J-35000D01*
G02X2350000Y1426800I-53200J0D01*
G02X2327300Y1431900I0J53069D01*
G03X2312800Y1423800I-4350J-9241D01*
G02X2260000Y1376800I-52800J6158D01*
G02Y1483200I0J53200D01*
G02X2282700Y1478100I0J-53069D01*
G03X2297200Y1486200I4350J9241D01*
G02X2309900Y1515000I52845J-6103D01*
G02Y1585000I40206J35000D01*
G02X2296800Y1620000I40206J35000D01*
G02X2309900Y1655000I53306J0D01*
G02X2297900Y1679400I40152J34898D01*
G37*
G36*
G01X1543700Y1170000D02*
G02X1529200Y1206500I38690J36500D01*
G02X1554900Y1252000I53127J0D01*
G02X1548700Y1276900I46901J24900D01*
G02X1655100I53200J0D01*
G02X1629400Y1231400I-53127J0D01*
G02X1635600Y1206500I-46901J-24900D01*
G02X1621100Y1170000I-53190J0D01*
G02X1635600Y1133500I-38690J-36500D01*
G02X1625200Y1101900I-53208J0D01*
G02X1644300Y1061000I-34241J-40900D01*
G02X1537900I-53200J0D01*
G02X1548300Y1092600I53208J0D01*
G02X1529200Y1133500I34241J40900D01*
G02X1543700Y1170000I53190J0D01*
G37*
G36*
G01X4417800Y987500D02*
G03X4432200I7200J7156D01*
G02X4470000Y1003200I37745J-37523D01*
G02X4505700Y989500I55J-53221D01*
G03X4519300I6800J7542D01*
G02X4555000Y1003200I35645J-39521D01*
G02X4608200Y950000I0J-53200D01*
G02X4606300Y936000I-53188J89D01*
G03X4616800Y923100I9838J-2715D01*
G02X4620000Y923200I3261J-53098D01*
G02X4566800Y870000I0J-53200D01*
G02X4568700Y884000I53188J-89D01*
G03X4558200Y896900I-9838J2715D01*
G02X4555000Y896800I-3261J53098D01*
G02X4519300Y910500I-55J53221D01*
G03X4505700I-6800J-7542D01*
G02X4494200Y902600I-35625J39539D01*
G03X4489400Y889800I4668J-9050D01*
G02X4493200Y870000I-49410J-19747D01*
G02X4386800I-53200J0D01*
G02X4388700Y883900I53174J-189D01*
G03X4379000Y896800I-9850J2691D01*
G02X4326800Y950000I1010J53200D01*
G02X4380000Y1003200I53200J0D01*
G02X4417800Y987500I55J-53223D01*
G37*
G36*
G01X6648000Y847300D02*
G03X6632000I-8000J-6276D01*
G02X6590000Y826800I-42000J32774D01*
G02Y933200I0J53200D01*
G02X6632000Y912700I0J-53274D01*
G03X6648000I8000J6276D01*
G02X6690000Y933200I42000J-32774D01*
G02Y826800I0J-53200D01*
G02X6648000Y847300I0J53274D01*
G37*
G36*
G01X5444200Y887400D02*
G03X5458600Y893800I4580J9095D01*
G02X5510000Y933200I51400J-13827D01*
G02Y826800I0J-53200D01*
G02X5485800Y832600I-42J53210D01*
G03X5471400Y826200I-4580J-9095D01*
G02X5420000Y786800I-51400J13827D01*
G02X5382600Y802200I0J53114D01*
G03X5375400I-3600J-3645D01*
G02X5338000Y786800I-37400J37714D01*
G02Y893200I0J53200D01*
G02X5375400Y877800I0J-53114D01*
G03X5382600I3600J3645D01*
G02X5420000Y893200I37400J-37714D01*
G02X5444200Y887400I42J-53210D01*
G37*
G36*
G01X4872200Y762500D02*
G03X4857800I-7200J-7156D01*
G02X4820000Y746800I-37745J37523D01*
G02Y853200I0J53200D01*
G02X4857800Y837500I55J-53223D01*
G03X4872200I7200J7156D01*
G02X4910000Y853200I37745J-37523D01*
G02Y746800I0J-53200D01*
G02X4872200Y762500I-55J53223D01*
G37*
G36*
G01X3736700Y712800D02*
G03X3747900Y720800I1235J10111D01*
G02X3800000Y763200I52100J-10810D01*
G02X3811700Y761900I0J-53300D01*
G03X3823700Y769100I2185J9958D01*
G02X3875000Y808200I51300J-14103D01*
G02Y701800I0J-53200D01*
G02X3863300Y703100I0J53300D01*
G03X3851300Y695900I-2185J-9958D01*
G02X3800000Y656800I-51300J14103D01*
G02X3793300Y657200I-185J53211D01*
G03X3782100Y649200I-1235J-10111D01*
G02X3730000Y606800I-52100J10810D01*
G02X3723300Y607200I-185J53211D01*
G03X3712100Y599200I-1235J-10111D01*
G02X3660000Y556800I-52100J10810D01*
G02X3653300Y557200I-185J53211D01*
G03X3642100Y549200I-1235J-10111D01*
G02X3590000Y506800I-52100J10810D01*
G02X3573800Y509300I-81J53213D01*
G03X3561000Y503000I-3180J-9693D01*
G02X3510800Y467300I-50200J17445D01*
G02X3501800Y468100I192J53183D01*
G02X3450000Y426800I-51800J11835D01*
G02Y533200I0J53200D01*
G02X3459000Y532400I-192J-53183D01*
G02X3510800Y573700I51800J-11835D01*
G02X3527000Y571200I81J-53213D01*
G03X3539800Y577500I3180J9693D01*
G02X3590000Y613200I50200J-17445D01*
G02X3596700Y612800I185J-53211D01*
G03X3607900Y620800I1235J10111D01*
G02X3660000Y663200I52100J-10810D01*
G02X3666700Y662800I185J-53211D01*
G03X3677900Y670800I1235J10111D01*
G02X3730000Y713200I52100J-10810D01*
G02X3736700Y712800I185J-53211D01*
G37*
G36*
G01X3185000Y699900D02*
G02X3150000Y686800I-35000J40206D01*
G02Y793200I0J53200D01*
G02X3185000Y780100I0J-53306D01*
G02X3255000I35000J-40206D01*
G02X3290000Y793200I35000J-40206D01*
G02X3343200Y740000I0J-53200D01*
G02X3330100Y705000I-53306J0D01*
G02Y635000I-40206J-35000D01*
G02Y565000I-40206J-35000D01*
G02X3343200Y530000I-40206J-35000D01*
G02X3236800I-53200J0D01*
G02X3249900Y565000I53306J0D01*
G02Y635000I40206J35000D01*
G02X3236800Y670000I40206J35000D01*
G02X3237100Y675900I53213J252D01*
G03X3225900Y687100I-10121J1079D01*
G02X3220000Y686800I-5648J52913D01*
G02X3185000Y699900I0J53306D01*
G37*
G36*
G01X5256900Y587200D02*
G03X5247200Y596900I-10202J-502D01*
G02X5196800Y650000I2772J53100D01*
G02X5250000Y703200I53200J0D01*
G02X5303100Y652800I0J-53172D01*
G03X5312800Y643100I10202J502D01*
G02X5363200Y590000I-2772J-53100D01*
G01Y588100D01*
G02X5413200Y535000I-3196J-53100D01*
G02X5306800I-53200J0D01*
G01Y536900D01*
G02X5256900Y587200I3217J53093D01*
G37*
G36*
G01X13327500Y672700D02*
G02X13402500I37500J-37613D01*
G02X13477500I37500J-37613D01*
G02X13515000Y688200I37500J-37613D01*
G02X13568200Y635000I0J-53200D01*
G02X13552700Y597500I-53113J0D01*
G02X13568200Y560000I-37613J-37500D01*
G02X13515000Y506800I-53200J0D01*
G02X13477500Y522300I0J53113D01*
G02X13402500I-37500J37613D01*
G02X13327500I-37500J37613D01*
G02X13252500I-37500J37613D01*
G02X13177500I-37500J37613D01*
G02X13140000Y506800I-37500J37613D01*
G02Y613200I0J53200D01*
G02X13177500Y597700I0J-53113D01*
G02X13215000Y613200I37500J-37613D01*
G02X13225900Y612100I135J-53214D01*
G03X13237900Y624100I2025J9975D01*
G02X13236800Y635000I52114J10765D01*
G02X13290000Y688200I53200J0D01*
G02X13327500Y672700I0J-53113D01*
G37*
G36*
G01X4795600Y587900D02*
G03X4806800Y598400I1016J10140D01*
G01Y600000D01*
G02X4913200I53200J0D01*
G02X4907200Y575600I-53167J136D01*
G02X4933300Y529800I-27135J-45800D01*
G02X4880100Y476600I-53200J0D01*
G02X4840100Y494700I0J53249D01*
G03X4825700Y495500I-7598J-6771D01*
G02X4790000Y481800I-35645J39521D01*
G02Y588200I0J53200D01*
G02X4795600Y587900I-42J-53198D01*
G37*
G36*
G01X1976400Y460000D02*
G02X1990900Y423500I-38690J-36500D01*
G02X1884500I-53200J0D01*
G02X1899000Y460000I53190J0D01*
G02X1884500Y496500I38690J36500D01*
G02X1990900I53200J0D01*
G02X1976400Y460000I-53190J0D01*
G37*
G36*
G01X2810000Y528500D02*
G02X2846500Y543000I36500J-38690D01*
G02Y436600I0J-53200D01*
G02X2810000Y451100I0J53190D01*
G02X2773500Y436600I-36500J38690D01*
G02Y543000I0J53200D01*
G02X2810000Y528500I0J-53190D01*
G37*
G36*
G01X6439300Y374300D02*
G03X6438600Y381500I-3915J3253D01*
G02X6419300Y422500I33899J41000D01*
G02X6525700I53200J0D01*
G02X6513200Y388200I-53310J0D01*
G03X6513900Y381000I3915J-3253D01*
G02X6533200Y340000I-33899J-41000D01*
G02X6426800I-53200J0D01*
G02X6439300Y374300I53310J0D01*
G37*
G36*
G01X13329900Y1815000D02*
G02Y1885000I40206J35000D01*
G02X13316800Y1920000I40206J35000D01*
G02X13423200I53200J0D01*
G02X13410100Y1885000I-53306J0D01*
G02Y1815000I-40206J-35000D01*
G02Y1745000I-40206J-35000D01*
G02X13423200Y1710000I-40206J-35000D01*
G02X13316800I-53200J0D01*
G02X13329900Y1745000I53306J0D01*
G02Y1815000I40206J35000D01*
G37*
G54D26*
X6296000Y1310000D03*
X6550000D03*
X6804000D03*
G54D22*
X7300000Y1090000D03*
G54D21*
X13168000Y1195000D03*
X7730000Y890000D03*
G54D20*
X6240000Y520000D03*
X7225000Y230000D03*
X13575000Y2005000D03*
X11839100Y642900D03*
X11712100D03*
X1110000Y827500D03*
X1800000Y240000D03*
X7240000Y2520000D03*
X2705000Y2985000D03*
X1910000Y2500000D03*
X2865000Y2805000D03*
X7975000Y2995000D03*
X7820000Y2930000D03*
X4505000Y2570000D03*
X2110000Y790000D03*
X4605000Y180000D03*
X4345000Y3000000D03*
X1380000Y1610000D03*
X7680000Y2930000D03*
X2607500Y2592500D03*
X2420000Y2930000D03*
X2550000D03*
X3040000Y1090000D03*
X13070000Y2120000D03*
X8169900Y1137100D03*
X2865000Y2585000D03*
X3105000Y325000D03*
X13420000Y2680000D03*
X2635000Y1255000D03*
X13420000Y3060000D03*
X1350000Y1910000D03*
X4090000Y2930000D03*
X4505000Y2815000D03*
X8042900Y1137100D03*
X3675000Y2465000D03*
X9045100Y896900D03*
X7915900Y1137100D03*
X8423900Y1518100D03*
X12093100Y1264100D03*
X8296900Y1518100D03*
X9110000Y3035000D03*
X13260000D03*
X10530000D03*
X6285000Y3020000D03*
X12855100Y1137100D03*
X13700000Y1700000D03*
X6980000Y7410000D03*
X1110000Y387500D03*
X973000Y993000D03*
X1110000Y532500D03*
X12347100Y642900D03*
X1810000Y1470000D03*
Y980000D03*
X11970000Y3035000D03*
X12093100Y261900D03*
X11966100Y769900D03*
Y642900D03*
Y515900D03*
Y261900D03*
X11839100Y515900D03*
Y388900D03*
X11712100Y515900D03*
Y388900D03*
X11585100Y769900D03*
Y515900D03*
Y261900D03*
X11458100D03*
X11331100Y515900D03*
X11204100Y769900D03*
Y642900D03*
Y515900D03*
X8423900Y769900D03*
Y261900D03*
X8296900D03*
X8169900Y388900D03*
X8042900D03*
X7915900Y261900D03*
Y1391100D03*
X8042900Y1264100D03*
X8296900Y769900D03*
X7915900D03*
X8169900Y642900D03*
X8042900D03*
X7915900D03*
Y388900D03*
X12855100Y1518100D03*
X12601100Y1264100D03*
Y1137100D03*
X12474100Y1518100D03*
Y1264100D03*
Y1137100D03*
X10950100Y1010100D03*
X10569100Y1264100D03*
Y1518100D03*
X10074900D03*
X12347100Y1137100D03*
X12220100Y1264100D03*
Y1137100D03*
X12093100Y1518100D03*
Y1137100D03*
X11966100Y1264100D03*
X11839100D03*
X9312900Y642900D03*
X12347100Y515900D03*
X12601100Y261900D03*
X12474100Y642900D03*
Y515900D03*
Y261900D03*
X12601100Y515900D03*
Y642900D03*
X12728100Y388900D03*
Y515900D03*
X12982100Y261900D03*
X12855100Y388900D03*
X10823100Y1391100D03*
Y1264100D03*
X11077100Y642900D03*
Y515900D03*
Y261900D03*
X10950100Y515900D03*
X12347100Y769900D03*
Y388900D03*
X12220100Y515900D03*
Y388900D03*
X12093100Y515900D03*
X11331100Y1518100D03*
Y1010100D03*
X11204100Y1264100D03*
Y1137100D03*
X11077100Y1264100D03*
X10950100Y1518100D03*
X10823100Y1137100D03*
X10696100Y1264100D03*
X8931900Y1518100D03*
X9820900Y1264100D03*
X9566900D03*
X9947900D03*
X9693900Y1137100D03*
X10074900Y1010100D03*
X9693900Y1264100D03*
X11585100D03*
Y1137100D03*
X11458100Y1264100D03*
X9439900Y1137100D03*
X12855100Y515900D03*
X11712100Y1010100D03*
X9947900Y1137100D03*
X12982100Y515900D03*
X11712100Y1518100D03*
Y1264100D03*
Y1137100D03*
X9439900Y1264100D03*
X12855100Y642900D03*
X10328900Y1391100D03*
X9312900Y1010100D03*
Y1137100D03*
X10201900Y1264100D03*
X9185900Y1137100D03*
X12728100Y642900D03*
X9693900Y1518100D03*
X9312900Y1264100D03*
X9566900Y1137100D03*
X9820900D03*
X8042900Y1518100D03*
X9058900Y1137100D03*
X9185900Y1264100D03*
X10328900Y1137100D03*
X9312900Y1518100D03*
X10328900Y1264100D03*
X9693900Y1010100D03*
X10569100D03*
X12982100Y1391100D03*
X10950100Y261900D03*
X10823100Y769900D03*
Y515900D03*
Y388900D03*
X10696100Y642900D03*
Y515900D03*
Y388900D03*
X10569100Y515900D03*
Y261900D03*
X10328900Y769900D03*
Y515900D03*
Y261900D03*
X10201900Y642900D03*
Y515900D03*
Y388900D03*
X10074900Y515900D03*
Y388900D03*
X9947900Y769900D03*
Y515900D03*
Y261900D03*
X9820900Y642900D03*
Y515900D03*
Y261900D03*
X9693900Y642900D03*
Y515900D03*
Y388900D03*
X9566900Y769900D03*
Y642900D03*
Y515900D03*
Y388900D03*
X9439900Y642900D03*
Y515900D03*
Y261900D03*
X9312900D03*
X9185900Y769900D03*
Y642900D03*
Y515900D03*
Y388900D03*
X9058900Y515900D03*
Y388900D03*
X8931900Y642900D03*
Y261900D03*
X8804900Y769900D03*
Y642900D03*
Y261900D03*
X8677900Y642900D03*
Y388900D03*
X8550900Y642900D03*
Y388900D03*
X12830000Y2640000D03*
X12347100Y1264100D03*
X8550900D03*
X8296900Y1391100D03*
X12982100Y1010100D03*
X8550900Y1518100D03*
X660000Y2513000D03*
X270000Y2597000D03*
X400000Y2600000D03*
X393500Y3053000D03*
X266500D03*
X139500D03*
X140000Y2597000D03*
X266500Y2267000D03*
X139500D03*
X520500Y3053000D03*
X8677900Y1264100D03*
X10580000Y3310000D03*
X8550900Y1137100D03*
X12982100Y769900D03*
X8804900Y1264100D03*
X6748000Y4440000D03*
X12982100Y642900D03*
X9058900Y1264100D03*
X12855100Y769900D03*
X6490000Y4360000D03*
X4420000Y3350000D03*
X8677900Y1137100D03*
X10924000Y3964000D03*
X7967000Y4397000D03*
X12855100Y1010100D03*
X10800000Y4394000D03*
X8296900Y1137100D03*
X4340000Y3150000D03*
X5440000Y4490000D03*
X6800000Y5623400D03*
X12269000Y4381000D03*
X9421300Y4379000D03*
X12982100Y1137100D03*
X6880000Y5190000D03*
X12728100Y769900D03*
X6099000Y4371000D03*
X4674000Y4356000D03*
X4220000Y2930000D03*
X13600000Y3060000D03*
X1824000Y4364000D03*
X8931900Y1137100D03*
X6790000Y6648000D03*
X13510000Y3464300D03*
X3249000Y4331000D03*
X5675000Y155000D03*
X13374500Y4400000D03*
X13219500Y4250000D03*
X13372500Y3637500D03*
X12982100Y1264100D03*
X11960000Y2640000D03*
X11490000D03*
X11945500Y2780000D03*
X11410000Y3135500D03*
X13200000Y2480000D03*
X12644500Y2710000D03*
X12814500Y2790000D03*
X12730000Y3135500D03*
X9100000Y2640000D03*
X8630000D03*
X8939600Y2509600D03*
X9090000Y2810000D03*
X8800000Y2510000D03*
X8479300Y3080000D03*
X10430000Y2500000D03*
X10050000Y2640000D03*
X10510000Y2810000D03*
X9890000Y3070000D03*
X13330000Y3464300D03*
X4340000Y180000D03*
X5840000Y890000D03*
X5635000Y880000D03*
X5295000Y255000D03*
X4480000Y560000D03*
X6370000Y220000D03*
X13219500Y3890000D03*
X5950000Y540000D03*
X5190000Y380000D03*
X6110000Y680000D03*
X5190000Y180000D03*
X5980000Y920000D03*
X4870000Y210000D03*
X6280000Y650000D03*
X6493800Y640000D03*
X6910000Y164500D03*
Y615500D03*
X7070000Y160000D03*
X13500000Y2350000D03*
X7070000Y620000D03*
X1228500Y3760000D03*
X1059500Y3805000D03*
X2653500Y3760000D03*
X10160000Y4719500D03*
X2565000Y3940000D03*
X4078500Y3760000D03*
X8735000Y4719500D03*
X5503500Y3760000D03*
X7310000Y4719500D03*
X5334500Y3805000D03*
X7398500Y3760000D03*
X5415000Y4719500D03*
X7229500Y3805000D03*
X8823500Y3760000D03*
X3990000Y4719500D03*
X10248500Y3760000D03*
X2565000Y4719500D03*
X1140000D03*
X12469000Y3900700D03*
X12429000Y4429500D03*
X11044000Y3900700D03*
X11004000Y4439300D03*
X9619000Y3910500D03*
X9579000Y4429500D03*
X8194000Y3910500D03*
X8154000Y4429500D03*
X6299000Y3910500D03*
X6259000Y4429500D03*
X4874000Y3910500D03*
X4834000Y4429500D03*
X3449000Y3910500D03*
X2024000D03*
X3409000Y4429500D03*
X1984000D03*
X1400000Y4155500D03*
X1550000Y4310500D03*
X1700000Y4155500D03*
X2825000D03*
X2975000Y4310500D03*
X3125000Y4155500D03*
X4250000D03*
X4400000Y4310500D03*
X4550000Y4155500D03*
X4400000Y3910000D03*
X5975000Y4155500D03*
X11749000Y3619300D03*
X5675000Y4155500D03*
X7570000D03*
X7720000Y4310500D03*
X9295000Y4155500D03*
X11504500Y3805000D03*
X10720000Y3900000D03*
X12145000Y3915000D03*
X10570000Y3910000D03*
X11845000Y4155500D03*
X3125000Y3915000D03*
X10420000Y4155500D03*
X9295000Y3915000D03*
X11585000Y4719500D03*
X7720000Y3916800D03*
X2975000Y3915000D03*
X7870000Y4155500D03*
X11995000Y3915000D03*
X1710000Y3336000D03*
X2110000Y3335000D03*
X3140000Y3336000D03*
X3530000Y3335000D03*
X4560000Y3336000D03*
X4960000Y3335000D03*
X5980000Y3336000D03*
X6390000Y3335000D03*
X7866300Y3336000D03*
X8292700Y3335000D03*
X9291300Y3336000D03*
X9717700Y3335000D03*
X10716300Y3336000D03*
X11142700Y3335000D03*
X12567700D03*
X12141300Y3336000D03*
X5975000Y3915000D03*
X10570000Y4310500D03*
X4910000Y3180000D03*
X4550000Y3910000D03*
X12515700Y3180000D03*
X9145000Y3915000D03*
Y4310500D03*
X8995000Y4155500D03*
X5660000Y560000D03*
X9665700Y3180000D03*
X12145000Y4155500D03*
X10720000D03*
X6340000Y3180000D03*
X3490000D03*
X8230000D03*
X11995000Y4310500D03*
X5825000D03*
X1700000Y3910000D03*
X5825000Y3916800D03*
X7870000Y3910000D03*
X11090700Y3180000D03*
X2060000D03*
X8423900Y1391100D03*
X1560000Y3910000D03*
X5900000Y2520000D03*
X2410000Y330000D03*
X130000Y2090000D03*
X480000Y1600000D03*
X270000Y1930000D03*
X590000Y1880000D03*
X595000Y2075000D03*
X820000Y1780000D03*
X1000000Y1785000D03*
X775000Y2075000D03*
X6240000Y370000D03*
X6110000Y300000D03*
G54D28*
X12565000Y3550000D03*
X11140000D03*
X9715000D03*
X8290000D03*
X11372500Y4010000D03*
X7097500D03*
X11372500Y4510000D03*
X9947500Y4760000D03*
X7097500Y4510000D03*
X11372500Y4980000D03*
X7097500D03*
X9947500Y5760000D03*
Y6760000D03*
X6400000Y3550000D03*
X4975000D03*
X3550000D03*
X2125000D03*
X5207500Y4010000D03*
X932500D03*
X5207500Y4510000D03*
X3782500Y4760000D03*
X932500Y4510000D03*
X5207500Y4980000D03*
X932500D03*
X3782500Y5760000D03*
Y6760000D03*
G54D25*
X13440000Y4866000D03*
G54D27*
X12797500Y3760000D03*
X11372500Y5260000D03*
X7097500D03*
X12797500Y5760000D03*
X12230000D03*
X11690000D03*
X10805000D03*
X10265000D03*
X9380000D03*
X8840000D03*
X8522500D03*
X7955000D03*
X7415000D03*
X11372500Y6260000D03*
X7097500D03*
X12797500Y6760000D03*
X8522500D03*
X11940000Y7260000D03*
X11372500D03*
X10515000D03*
X9090000D03*
X7665000D03*
X7097500D03*
X6632500Y3760000D03*
X2357500D03*
X5207500Y5260000D03*
X932500D03*
X6632500Y5760000D03*
X6065000D03*
X5525000D03*
X4640000D03*
X4100000D03*
X3215000D03*
X2675000D03*
X2357500D03*
X1790000D03*
X1250000D03*
X5207500Y6260000D03*
X932500D03*
X6632500Y6760000D03*
X2357500D03*
X5775000Y7260000D03*
X5207500D03*
X4350000D03*
X2925000D03*
X1500000D03*
X932500D03*
G54D23*
X12569000Y4170000D03*
X11609000D03*
X11144000D03*
X10184000D03*
X8294000D03*
X7334000D03*
X9719000D03*
X8759000D03*
X6399000D03*
X5439000D03*
X4974000D03*
X4014000D03*
X3549000D03*
X2589000D03*
X2124000D03*
X1164000D03*
G54D24*
X13730000Y4281000D03*
%LPD*%
G75*
G54D10*
X300000Y1090000D03*
X550000Y6550000D03*
X7300000Y1090000D03*
X13205000Y6550000D03*
X13600000Y1090000D03*
G54D11*
X140000Y1600000D03*
X130000Y2090000D03*
X139500Y2267000D03*
X140000Y2597000D03*
X139500Y3053000D03*
X270000Y1930000D03*
X480000Y1600000D03*
X590000Y1880000D03*
X266500Y2267000D03*
X595000Y2075000D03*
X660000Y2267000D03*
X400000Y2600000D03*
X270000Y2597000D03*
X660000Y2513000D03*
X530000Y2590000D03*
X520500Y3053000D03*
X393500D03*
X266500D03*
X698900Y6031600D03*
X1110000Y532500D03*
Y92500D03*
Y387500D03*
X973000Y993000D03*
X1110000Y827500D03*
X820000Y1780000D03*
X1000000Y1785000D03*
X775000Y2075000D03*
X1059500Y3805000D03*
Y3715000D03*
X1140000Y4719500D03*
X820500Y5849200D03*
X739500Y5970800D03*
X780000Y5910000D03*
X1582400Y1133500D03*
Y1206500D03*
X1591100Y1061000D03*
X1601900Y1276900D03*
X1350000Y1910000D03*
X1380000Y1610000D03*
X1530000Y1910000D03*
X1387500Y3427400D03*
X1460500D03*
X1520000Y3600000D03*
X1228500Y3760000D03*
X1560000Y3910000D03*
X1700000D03*
Y4155500D03*
X1550000Y4310500D03*
X1400000Y4155500D03*
X1290000Y4121800D03*
X1264000Y4429500D03*
X1344000D03*
X1360000Y4834500D03*
X1580000D03*
X1690000D03*
X1470000D03*
X1570000Y5080200D03*
X1470000Y5085500D03*
X1360000D03*
X1800000Y240000D03*
X1937700Y496500D03*
Y423500D03*
X1810000Y790000D03*
Y980000D03*
X1800000Y680000D03*
X2110000Y790000D03*
X1810000Y1470000D03*
X2035700Y1360000D03*
X2040000Y1470000D03*
X1846500Y2326900D03*
X1773500D03*
X1910000Y2500000D03*
X2060000Y3180000D03*
X2110000Y3335000D03*
X1710000Y3336000D03*
X1760000Y3180000D03*
X2024000Y3910500D03*
X1784000Y3609500D03*
X1810000Y4131800D03*
X1824000Y4364000D03*
X1984000Y4429500D03*
X1800000Y4834500D03*
X1910000D03*
Y5085500D03*
X1790000Y5080200D03*
X1710000D03*
X2330000Y550000D03*
X2400000D03*
X2410000Y330000D03*
X2330000Y620000D03*
Y690000D03*
X2400000Y620000D03*
Y690000D03*
X2260000Y1430000D03*
X2350000Y1480000D03*
X2635000Y1255000D03*
X2490000Y1690000D03*
X2420000D03*
X2350000D03*
Y1620000D03*
Y1550000D03*
X2252500Y1730000D03*
X2607500Y2592500D03*
X2550000Y2930000D03*
X2420000D03*
X2390000Y2740000D03*
Y2640000D03*
X2330000Y3360000D03*
X2275000Y2985000D03*
X2653500Y3760000D03*
X2565000Y3940000D03*
Y4719500D03*
X3105000Y325000D03*
X2773500Y489800D03*
X2846500D03*
X3040000Y1090000D03*
X2865000Y2805000D03*
Y2585000D03*
X3140000Y3336000D03*
X2705000Y2985000D03*
X2812500Y3427400D03*
X2885500D03*
X2940000Y3590000D03*
X2975000Y3915000D03*
X3125000D03*
Y4155500D03*
X2975000Y4310500D03*
X2825000Y4155500D03*
X2715000Y4121800D03*
X2689000Y4429500D03*
X2769000D03*
X2785000Y4834500D03*
X3005000D03*
X3115000D03*
X2895000D03*
X2785000Y5085500D03*
X2895000D03*
X3000000Y5080200D03*
X3130000D03*
X3290000Y530000D03*
X3450000Y480000D03*
X3510800Y520500D03*
X3590000Y560000D03*
X3290000Y740000D03*
Y670000D03*
Y600000D03*
X3220000Y740000D03*
X3150000D03*
X3290000Y1500000D03*
X3220000D03*
X3290000Y1640000D03*
X3220000D03*
Y1570000D03*
X3290000D03*
X3266500Y2400000D03*
X3193500D03*
X3490000Y3180000D03*
X3530000Y3335000D03*
X3190000Y3180000D03*
X3449000Y3910500D03*
X3209000Y3609500D03*
X3235000Y4131800D03*
X3249000Y4331000D03*
X3409000Y4429500D03*
X3225000Y4834500D03*
X3335000D03*
X3220000Y5080200D03*
X3350000D03*
X3660000Y610000D03*
X3730000Y660000D03*
X3800000Y710000D03*
X3875000Y755000D03*
X3675000Y2465000D03*
X4090000Y2930000D03*
X3890000Y2980000D03*
X3909500Y3805000D03*
X4078500Y3760000D03*
X3909500Y3715000D03*
X3990000Y4719500D03*
X4480000Y560000D03*
X4340000Y180000D03*
X4515000D03*
X4440000Y870000D03*
X4470000Y950000D03*
X4555000D03*
X4380000D03*
X4212500Y2592500D03*
X4220000Y2930000D03*
X4505000Y2815000D03*
Y2570000D03*
X4110000Y2740000D03*
Y2640000D03*
X4560000Y3336000D03*
X4345000Y3000000D03*
X4237500Y3427400D03*
X4310500D03*
X4340000Y3150000D03*
X4420000Y3350000D03*
X4362500Y3587500D03*
X4400000Y3910000D03*
X4550000D03*
Y4155500D03*
X4400000Y4310500D03*
X4250000Y4155500D03*
X4140000Y4121800D03*
X4114000Y4429500D03*
X4194000D03*
X4210000Y4834500D03*
X4430000D03*
X4540000D03*
X4320000D03*
X4420000Y5080200D03*
X4560000D03*
X4210000Y5085500D03*
X4320000D03*
X4605000Y180000D03*
X4870000Y210000D03*
X5050000Y500000D03*
X4790000Y535000D03*
X4880100Y529800D03*
X4620000Y870000D03*
X4820000Y800000D03*
X4910000D03*
X4860000Y600000D03*
X4686500Y2322400D03*
X4613500D03*
X4910000Y3180000D03*
X4960000Y3335000D03*
X4610000Y3180000D03*
X4874000Y3910500D03*
X4634000Y3609500D03*
X4660000Y4131800D03*
X4674000Y4356000D03*
X4834000Y4429500D03*
X4650000Y4834500D03*
X4760000D03*
X4780000Y5080200D03*
X4650000Y5085500D03*
X5190000Y180000D03*
X5295000Y255000D03*
X5190000Y380000D03*
X5360000Y535000D03*
X5310000Y590000D03*
X5510000Y880000D03*
X5420000Y840000D03*
X5338000D03*
X5250000Y650000D03*
X5334500Y3805000D03*
X5503500Y3760000D03*
X5334500Y3715000D03*
X5530000Y4380000D03*
X5415000Y4719500D03*
X5440000Y4490000D03*
X5660000Y560000D03*
X5675000Y155000D03*
X5713900Y227200D03*
X5950000Y540000D03*
X5635000Y880000D03*
X5980000Y920000D03*
X5840000Y890000D03*
X5694200Y1757900D03*
X5767200D03*
X5900000Y2520000D03*
X5980000Y3336000D03*
X5662500Y3427400D03*
X5735500D03*
X5814100Y3612900D03*
X5825000Y3916800D03*
X5975000Y3915000D03*
X5825000Y4310500D03*
X5675000Y4155500D03*
X5975000D03*
X5565000Y4121800D03*
X5619000Y4429500D03*
X5635000Y4834500D03*
X5855000D03*
X5965000D03*
X5745000D03*
X5639000Y4730000D03*
X5745000Y5075700D03*
X5635000D03*
X5855000D03*
X5980000Y5090000D03*
X6240000Y370000D03*
X6110000Y300000D03*
X6480000Y340000D03*
X6472500Y422500D03*
X6370000Y220000D03*
X6240000Y520000D03*
X6110000Y680000D03*
X6280000Y650000D03*
X6493800Y640000D03*
X6116500Y2322400D03*
X6043500D03*
X6472500Y2592500D03*
X6510000Y2750000D03*
Y2670000D03*
X6380000Y2760000D03*
X6410000Y2680000D03*
X6340000Y3180000D03*
X6285000Y3020000D03*
X6390000Y3335000D03*
X6040000Y3180000D03*
X6195000Y3020000D03*
X6299000Y3910500D03*
X6059000Y3609500D03*
X6085000Y4131800D03*
X6099000Y4371000D03*
X6490000Y4360000D03*
X6259000Y4429500D03*
X6075000Y4834500D03*
X6185000D03*
X6075000Y5075700D03*
X6255700Y5005000D03*
X6630000Y170000D03*
X6790000Y164500D03*
X6910000D03*
X6790000Y615500D03*
X6944500Y710000D03*
X6800000Y1025000D03*
X6540000D03*
X6910000Y615500D03*
X6590000Y880000D03*
X6690000D03*
X6535000Y3005000D03*
X6625000D03*
X6950000Y4290000D03*
Y4400000D03*
X6748000Y4440000D03*
X6880000Y5190000D03*
X6800000Y5623400D03*
X6790000Y6648000D03*
X6980000Y7080000D03*
Y7000000D03*
Y6920000D03*
Y7410000D03*
X7225000Y230000D03*
X7070000Y160000D03*
X7240000Y357500D03*
X7320000Y390000D03*
X7070000Y620000D03*
X7240000Y2520000D03*
X7229500Y3805000D03*
X7398500Y3760000D03*
X7229500Y3715000D03*
X7460000Y4121800D03*
X7434000Y4429500D03*
X7310000Y4719500D03*
X7915900Y261900D03*
X7600000Y510000D03*
X7915900Y388900D03*
Y769900D03*
Y642900D03*
Y1391100D03*
Y1137100D03*
X7943500Y2482400D03*
X7820000Y2930000D03*
X7680000D03*
X7840000Y2510000D03*
Y2740000D03*
Y2640000D03*
X7680000Y2740000D03*
Y2640000D03*
X7866300Y3336000D03*
X7930000Y3180000D03*
X7545000Y2985000D03*
X7714000Y3624000D03*
X7954000Y3609500D03*
X7720000Y3916800D03*
X7870000Y3910000D03*
Y4155500D03*
X7720000Y4310500D03*
X7570000Y4155500D03*
X7514000Y4429500D03*
X7750000Y4834500D03*
X7640000D03*
X7860000D03*
X7530000D03*
Y5075700D03*
X7640000D03*
X7750000D03*
X7860000D03*
X8042900Y388900D03*
X8169900D03*
X8296900Y261900D03*
X8423900D03*
X8042900Y642900D03*
X8169900D03*
X8296900Y769900D03*
X8423900D03*
X8042900Y1518100D03*
X8296900Y1137100D03*
Y1391100D03*
X8423900D03*
Y1518100D03*
X8296900D03*
X8169900Y1137100D03*
X8042900D03*
Y1264100D03*
X8016500Y2482400D03*
X8320000Y2930000D03*
X8230000Y3180000D03*
X8292700Y3335000D03*
X7975000Y2995000D03*
X8194000Y3910500D03*
X7980000Y4131800D03*
X7967000Y4397000D03*
X8154000Y4429500D03*
X7970000Y4834500D03*
X8080000D03*
X7970000Y5075700D03*
X8080000D03*
X8550900Y388900D03*
X8677900D03*
X8804900Y261900D03*
X8550900Y642900D03*
X8677900D03*
X8804900Y769900D03*
Y642900D03*
X8550900Y1264100D03*
Y1518100D03*
X8804900Y1264100D03*
X8677900D03*
Y1137100D03*
X8550900D03*
X8545000Y2780000D03*
X8634500Y2930000D03*
X8639800Y2810000D03*
X8630000Y2640000D03*
X8800000Y2510000D03*
X8479300Y3080000D03*
X8699300D03*
X8827500Y3203000D03*
X8892500Y3270000D03*
X8664300Y3805000D03*
X8823500Y3760000D03*
X8765000Y3685000D03*
X8885000Y4121800D03*
X8859000Y4429500D03*
X8735000Y4719500D03*
X8931900Y261900D03*
X9058900Y388900D03*
X9185900D03*
X9312900Y261900D03*
X9185900Y515900D03*
X9058900D03*
X9312900Y1010100D03*
X9185900Y769900D03*
X9045100Y896900D03*
X8931900Y642900D03*
X9312900D03*
X9185900D03*
X8931900Y1518100D03*
X9185900Y1137100D03*
X9312900Y1264100D03*
Y1518100D03*
X9185900Y1264100D03*
X9058900D03*
X9312900Y1137100D03*
X9058900D03*
X8931900D03*
X9363500Y2422400D03*
X9100000Y2640000D03*
X9085500Y2930000D03*
X9090000Y2810000D03*
X8939600Y2509600D03*
X9291300Y3336000D03*
X9344300Y3180000D03*
X9110000Y3035000D03*
X8957500Y3203000D03*
X9139000Y3624000D03*
X9379000Y3609500D03*
X9145000Y3915000D03*
X9295000D03*
X8982500Y3527400D03*
X9055500D03*
X8995000Y4155500D03*
X9145000Y4310500D03*
X9295000Y4155500D03*
X8939000Y4429500D03*
X9175000Y4834500D03*
X9065000D03*
X9285000D03*
X9395000D03*
X8955000D03*
Y5075700D03*
X9175000D03*
X9065000D03*
X9285000D03*
X9395000D03*
X9439900Y261900D03*
Y515900D03*
X9566900Y388900D03*
X9693900D03*
X9820900Y261900D03*
Y515900D03*
X9693900D03*
X9566900D03*
X9693900Y1010100D03*
X9439900Y642900D03*
X9566900Y769900D03*
X9820900Y642900D03*
X9693900D03*
X9566900D03*
Y1137100D03*
X9693900Y1264100D03*
Y1518100D03*
X9820900Y1137100D03*
X9566900Y1264100D03*
X9439900Y1137100D03*
X9820900Y1264100D03*
X9693900Y1137100D03*
X9439900Y1264100D03*
X9436500Y2422400D03*
X9840000Y2920000D03*
X9665700Y3180000D03*
X9717700Y3335000D03*
X9619000Y3910500D03*
X9405000Y4131800D03*
X9421300Y4379000D03*
X9579000Y4429500D03*
X9505000Y4834500D03*
Y5075700D03*
X9947900Y261900D03*
Y515900D03*
X10074900Y388900D03*
X10201900D03*
X10328900Y261900D03*
Y515900D03*
X10201900D03*
X10074900D03*
Y1010100D03*
X9947900Y769900D03*
X10201900Y642900D03*
X10328900Y769900D03*
X9947900Y1137100D03*
X10074900Y1518100D03*
X10328900Y1137100D03*
Y1391100D03*
X9947900Y1264100D03*
X10328900D03*
X10201900D03*
X10200000Y2480000D03*
X10310000D03*
X9965000Y2770000D03*
X10054500Y2930000D03*
X10059800Y2810000D03*
X10050000Y2640000D03*
X9890000Y3070000D03*
X10119300Y3080000D03*
X10247500Y3203000D03*
X10320000Y3270000D03*
X10079500Y3805000D03*
X10248500Y3760000D03*
X10079500Y3715000D03*
X10310000Y4121800D03*
X10284000Y4439300D03*
X10160000Y4719500D03*
X10569100Y261900D03*
Y515900D03*
X10696100Y388900D03*
X10823100D03*
Y515900D03*
X10696100D03*
X10569100Y1010100D03*
X10696100Y642900D03*
X10823100Y769900D03*
X10569100Y1264100D03*
Y1518100D03*
X10823100Y1137100D03*
Y1391100D03*
Y1264100D03*
X10696100D03*
X10803500Y2422400D03*
X10430000Y2500000D03*
X10505500Y2930000D03*
X10510000Y2810000D03*
X10716300Y3336000D03*
X10832500Y3066800D03*
X10530000Y3035000D03*
X10580000Y3310000D03*
X10377500Y3203000D03*
X10407500Y3427400D03*
X10480500D03*
X10564000Y3624000D03*
X10804000Y3609500D03*
X10570000Y3910000D03*
X10720000Y3900000D03*
Y4155500D03*
X10570000Y4310500D03*
X10420000Y4155500D03*
X10830000Y4131800D03*
X10800000Y4394000D03*
X10364000Y4439300D03*
X10600000Y4834500D03*
X10490000D03*
X10710000D03*
X10820000D03*
X10380000D03*
Y5075700D03*
X10490000D03*
X10600000D03*
X10710000D03*
X10820000D03*
X10950100Y261900D03*
Y515900D03*
X11077100Y261900D03*
Y515900D03*
X11204100D03*
X10950100Y1010100D03*
X11077100Y642900D03*
X11204100Y769900D03*
Y642900D03*
X10950100Y1518100D03*
X11204100Y1137100D03*
Y1264100D03*
X11077100D03*
X10876500Y2422400D03*
X11090700Y3180000D03*
X11142700Y3335000D03*
X11300000Y3040000D03*
X11044000Y3900700D03*
X10924000Y3964000D03*
X11004000Y4439300D03*
X10930000Y4834500D03*
Y5075700D03*
X11458100Y261900D03*
X11585100D03*
Y515900D03*
X11712100Y388900D03*
Y515900D03*
X11331100D03*
Y1010100D03*
X11712100D03*
X11585100Y769900D03*
X11712100Y642900D03*
X11331100Y1518100D03*
X11585100Y1137100D03*
X11712100Y1264100D03*
Y1518100D03*
X11585100Y1264100D03*
X11458100D03*
X11712100Y1137100D03*
X11405000Y2780000D03*
X11494500D03*
X11490000Y2640000D03*
X11679500Y2519900D03*
X11752500Y2521500D03*
X11410000Y3135500D03*
X11490000Y3000000D03*
X11559300Y3080000D03*
X11687500Y3203000D03*
X11752500Y3280000D03*
X11504500Y3805000D03*
X11749000Y3619300D03*
X11504500Y3715000D03*
X11735000Y4121800D03*
X11585000Y4719500D03*
X11709000Y4429500D03*
X11789000D03*
X11805000Y4834500D03*
Y5075700D03*
X11839100Y388900D03*
X11966100Y261900D03*
Y515900D03*
X12093100Y261900D03*
Y515900D03*
X12220100Y388900D03*
X11839100Y515900D03*
X12220100D03*
X11966100Y769900D03*
Y642900D03*
X11839100D03*
X12093100Y1518100D03*
Y1264100D03*
X11966100D03*
X12220100Y1137100D03*
X11839100Y1264100D03*
X12220100D03*
X12093100Y1137100D03*
X12223500Y2422400D03*
X11960000Y2640000D03*
X11945500Y2930000D03*
Y2780000D03*
X12141300Y3336000D03*
X12194300Y3180000D03*
X11970000Y3035000D03*
X11820200Y3200200D03*
X11832500Y3427400D03*
X11905500D03*
X11989000Y3624000D03*
X12229000Y3609500D03*
X11995000Y3915000D03*
X12145000D03*
X11995000Y4310500D03*
X12145000Y4155500D03*
X11845000D03*
X12255000Y4131800D03*
X12269000Y4381000D03*
X12025000Y4834500D03*
X11915000D03*
X12135000D03*
X12245000D03*
X11915000Y5075700D03*
X12025000D03*
X12135000D03*
X12245000D03*
X12347100Y388900D03*
X12474100Y261900D03*
Y515900D03*
X12601100Y261900D03*
X12728100Y388900D03*
Y515900D03*
X12347100D03*
X12601100D03*
X12728100Y769900D03*
X12347100D03*
X12601100Y642900D03*
X12347100D03*
X12474100D03*
X12728100D03*
X12347100Y1137100D03*
X12474100Y1264100D03*
Y1518100D03*
X12347100Y1264100D03*
X12601100Y1137100D03*
Y1264100D03*
X12474100Y1137100D03*
X12296500Y2422400D03*
X12644500Y2710000D03*
X12640000Y2965000D03*
X12730000Y3135500D03*
X12515700Y3180000D03*
X12567700Y3335000D03*
X12469000Y3900700D03*
X12429000Y4429500D03*
X12355000Y4834500D03*
Y5075700D03*
X12982100Y515900D03*
X12855100Y388900D03*
X12982100Y261900D03*
X13140000Y560000D03*
X13215000D03*
X12855100Y515900D03*
Y642900D03*
X12982100Y769900D03*
X12855100Y1010100D03*
X12982100D03*
X12855100Y769900D03*
X12982100Y642900D03*
Y1137100D03*
Y1391100D03*
X12855100Y1518100D03*
X12982100Y1264100D03*
X12855100Y1137100D03*
X13200000Y1920000D03*
Y1850000D03*
Y1780000D03*
Y1710000D03*
Y2480000D03*
X13070000Y2120000D03*
X12814500Y2790000D03*
X12830000Y2640000D03*
X12998500Y2500000D03*
X13080500D03*
X12817500Y3017500D03*
X12820000Y3080000D03*
X13007500Y3203000D03*
X13072500Y3290000D03*
X13137500Y3203000D03*
X13219500Y3890000D03*
Y4250000D03*
X13660000Y110000D03*
Y185000D03*
Y260000D03*
Y560000D03*
X13290000D03*
X13365000D03*
X13440000D03*
X13515000D03*
X13660000Y635000D03*
X13290000D03*
X13365000D03*
X13440000D03*
X13515000D03*
X13575000Y2005000D03*
X13590000Y1700000D03*
X13370000Y1920000D03*
Y1850000D03*
Y1780000D03*
Y1710000D03*
X13700000Y1700000D03*
X13500000Y2350000D03*
X13340000Y2010000D03*
X13420000Y2680000D03*
X13255700Y2950000D03*
X13260000Y2860000D03*
X13255700Y2790000D03*
X13420000Y3060000D03*
X13600000D03*
X13260000Y3035000D03*
X13330000Y3464300D03*
X13372500Y3637500D03*
X13510000Y3464300D03*
X13374500Y4040000D03*
Y4400000D03*
X13350000Y4130000D03*
X13735000Y110000D03*
X13810000D03*
X13735000Y185000D03*
X13810000D03*
X13735000Y260000D03*
X13810000D03*
Y335000D03*
Y410000D03*
Y485000D03*
X13735000Y560000D03*
X13810000D03*
X13735000Y635000D03*
X13810000D03*
Y1820000D03*
Y2350000D03*
X13790000Y2770000D03*
Y3040000D03*
G54D12*
X932500Y4010000D03*
Y4510000D03*
Y4980000D03*
X1645000Y3550000D03*
X2125000D03*
X2357500Y4980000D03*
X3070000Y3550000D03*
X3550000D03*
X3782500Y3760000D03*
Y4760000D03*
Y5760000D03*
Y6760000D03*
X4495000Y3550000D03*
X4975000D03*
X5207500Y4010000D03*
Y4510000D03*
Y4980000D03*
X5920000Y3550000D03*
X6400000D03*
X6632500Y4980000D03*
X7097500Y4010000D03*
Y4510000D03*
Y4980000D03*
X7810000Y3550000D03*
X8290000D03*
X8522500Y4980000D03*
X9235000Y3550000D03*
X9715000D03*
X9947500Y3760000D03*
Y4760000D03*
Y5760000D03*
Y6760000D03*
X10660000Y3550000D03*
X11140000D03*
X11372500Y4010000D03*
Y4510000D03*
Y4980000D03*
X12085000Y3550000D03*
X12565000D03*
X12797500Y4980000D03*
G54D13*
X1164000Y4170000D03*
X2124000D03*
X2589000D03*
X3549000D03*
X4014000D03*
X4974000D03*
X5439000D03*
X6399000D03*
X7334000D03*
X8294000D03*
X8759000D03*
X9719000D03*
X10184000D03*
X11144000D03*
X11609000D03*
X12569000D03*
G54D14*
X932500Y5260000D03*
X1250000Y5760000D03*
X932500Y6260000D03*
Y7260000D03*
X1500000D03*
X1790000Y5760000D03*
X2357500Y3760000D03*
Y4760000D03*
Y5760000D03*
X2675000D03*
X2357500Y6760000D03*
X3215000Y5760000D03*
X2925000Y7260000D03*
X4100000Y5760000D03*
X4640000D03*
X4350000Y7260000D03*
X5207500Y5260000D03*
X5525000Y5760000D03*
X5207500Y6260000D03*
Y7260000D03*
X6065000Y5760000D03*
X5775000Y7260000D03*
X6632500Y3760000D03*
Y4760000D03*
Y5760000D03*
Y6760000D03*
X7097500Y5260000D03*
X7415000Y5760000D03*
X7097500Y6260000D03*
Y7260000D03*
X7955000Y5760000D03*
X7665000Y7260000D03*
X8522500Y3760000D03*
Y4760000D03*
Y5760000D03*
Y6760000D03*
X8840000Y5760000D03*
X9380000D03*
X9090000Y7260000D03*
X10265000Y5760000D03*
X10805000D03*
X10515000Y7260000D03*
X11372500Y5260000D03*
Y6260000D03*
Y7260000D03*
X11690000Y5760000D03*
X12230000D03*
X11940000Y7260000D03*
X12797500Y3760000D03*
Y4760000D03*
Y5760000D03*
Y6760000D03*
G54D15*
X6550000Y1310000D03*
X6296000D03*
X6804000D03*
X13730000Y3773000D03*
Y3519000D03*
Y4027000D03*
Y4281000D03*
G54D16*
X7730000Y890000D03*
X13168000Y1195000D03*
G54D17*
X13440000Y4866000D03*
G54D18*
G01X580000Y5614000D02*
X420000D01*
X534700Y5540000D01*
Y5640000D01*
G54D19*
G01X13627000Y4281000D02*
X13730000D01*
G01X13652100Y4203100D02*
X13730000Y4281000D01*
G01X13652100Y4358900D02*
X13730000Y4281000D01*
G01Y4178000D02*
Y4281000D01*
G01D02*
Y4384000D01*
G01Y4281000D02*
X13807900Y4358900D01*
G01X13730000Y4281000D02*
X13807900Y4203100D01*
M02*
