G04 ================== begin FILE IDENTIFICATION RECORD ==================*
G04 Layout Name:  pc065c_fibv2_toplevel_19.brd*
G04 Film Name:    art_pc065a_L03P.ger*
G04 File Format:  Gerber RS274X*
G04 File Origin:  Cadence Allegro 17.4-S011*
G04 Origin Date:  Thu Apr  4 13:41:42 2024*
G04 *
G04 Layer:  ETCH/L3_SIG*
G04 Layer:  PIN/L3_SIG*
G04 Layer:  VIA CLASS/L3_SIG*
G04 *
G04 Offset:    (0.000 0.000)*
G04 Mirror:    No*
G04 Mode:      Positive*
G04 Rotation:  0*
G04 FullContactRelief:  No*
G04 UndefLineWidth:     0.200*
G04 ================== end FILE IDENTIFICATION RECORD ====================*
%FSLAX35Y35*MOMM*%
%IR0*IPPOS*OFA0.00000B0.00000*MIA0B0*SFA1.00000B1.00000*%
%ADD13C,1.*%
%ADD16C,1.001*%
%ADD15C,1.7*%
%ADD10C,4.5*%
%ADD12C,1.65*%
%ADD14C,1.75*%
%ADD17C,1.397*%
%ADD11C,.56*%
%ADD18C,.2*%
%ADD19C,.5*%
%ADD20C,.17*%
G75*
%LPD*%
G75*
G36*
G01X200000Y5520000D02*
Y5370000D01*
X380000D01*
Y5520000D01*
X200000D01*
G37*
G54D10*
X300000Y1090000D03*
X550000Y6550000D03*
X7300000Y1090000D03*
X13205000Y6550000D03*
X13600000Y1090000D03*
G54D20*
G01X775000Y2075000D02*
X695000Y2155000D01*
X595000D01*
X402500Y2347500D01*
X220000D01*
X139500Y2267000D01*
G01X595000Y2075000D02*
Y2005000D01*
X530000Y1940000D01*
Y1725000D01*
X595000Y1660000D01*
Y695000D01*
X1170000Y120000D01*
X5050800D01*
X5110800Y180000D01*
X5190000D01*
G01X595000Y2075000D02*
X375000D01*
X266500Y2183500D01*
Y2267000D01*
G01X3450000Y480000D02*
X3415200Y514800D01*
Y3685200D01*
X3510000Y3780000D01*
Y3960000D01*
X3410000Y4060000D01*
Y4300000D01*
X3490000Y4380000D01*
Y5140000D01*
X3240000Y5390000D01*
X990000D01*
X664100Y5715900D01*
Y5996800D01*
X698900Y6031600D01*
G01X739500Y5970800D02*
X704700Y5936000D01*
Y5735300D01*
X1010000Y5430000D01*
X3260000D01*
X3550000Y5140000D01*
Y4380000D01*
X3700000Y4230000D01*
Y4060000D01*
X3590000Y3950000D01*
Y3760000D01*
X3680000Y3670000D01*
Y2990000D01*
X3510800Y2820800D01*
Y520500D01*
G01X775000Y2075000D02*
X730000Y2030000D01*
Y660000D01*
X1217000Y173000D01*
X4193000D01*
X4270000Y250000D01*
X4830000D01*
X4870000Y210000D01*
G01X780000Y5910000D02*
X745200Y5875200D01*
Y5754800D01*
X1030000Y5470000D01*
X3290000D01*
X3910000Y4850000D01*
Y4640000D01*
X3860000Y4590000D01*
Y3968800D01*
X3980000Y3848800D01*
Y3700000D01*
X3750000Y3470000D01*
Y2170000D01*
X3590000Y2010000D01*
Y560000D01*
G01X820500Y5849200D02*
Y5739500D01*
X1050000Y5510000D01*
X3320000D01*
X4060000Y4770000D01*
Y4690000D01*
X3907700Y4537700D01*
Y4002200D01*
X4020000Y3889900D01*
Y3670000D01*
X3830000Y3480000D01*
Y2080000D01*
X3660000Y1910000D01*
Y610000D01*
G01X5295000Y255000D02*
X5260000Y290000D01*
X3400000D01*
X3340000Y230000D01*
X1990000D01*
X1740000Y480000D01*
Y1519900D01*
X1700000Y1559900D01*
Y2420000D01*
X1880000Y2600000D01*
Y4308000D01*
X1824000Y4364000D01*
G01X2390000Y2740000D02*
X2060000D01*
X1940000Y2860000D01*
Y4350000D01*
X1690000Y4600000D01*
Y4834500D01*
G01X2390000Y2640000D02*
X2450000Y2700000D01*
Y2793000D01*
X2393000Y2850000D01*
X2170000D01*
X2000000Y3020000D01*
Y3740000D01*
X2100000Y3840000D01*
Y4043600D01*
X1990000Y4153600D01*
Y4250000D01*
X2100000Y4360000D01*
Y4405600D01*
X1800000Y4705600D01*
Y4834500D01*
G01X2785000D02*
Y4564900D01*
X2890000Y4459900D01*
Y3975500D01*
X2760000Y3845500D01*
Y2492700D01*
X2287300Y2020000D01*
Y1764800D01*
X2252500Y1730000D01*
G01X5190000Y380000D02*
X5150000Y340000D01*
X3397000D01*
X3060000Y677000D01*
Y860000D01*
X3130000Y930000D01*
Y2510000D01*
X3280000Y2660000D01*
Y3910000D01*
X3180000Y4010000D01*
Y4262000D01*
X3249000Y4331000D01*
G01X3335000Y4834500D02*
Y3975100D01*
X3353000Y3957100D01*
Y457000D01*
X3420000Y390000D01*
X5125700D01*
X5188200Y452500D01*
X5324200D01*
X5351700Y480000D01*
X5430000D01*
X5840000Y890000D01*
G01X6980000Y7410000D02*
X6710000Y7140000D01*
X6310000D01*
X4910000Y5740000D01*
Y4720000D01*
X4135000Y3945000D01*
Y3645000D01*
X3950000Y3460000D01*
Y2070000D01*
X3730000Y1850000D01*
Y660000D01*
G01X3800000Y710000D02*
Y1690000D01*
X3990000Y1880000D01*
Y3380000D01*
X4420000Y3810000D01*
X4530000D01*
X4740000Y4020000D01*
Y4420000D01*
X4960000Y4640000D01*
Y5700000D01*
X6340000Y7080000D01*
X6980000D01*
G01Y7000000D02*
X6360000D01*
X5010000Y5650000D01*
Y4480000D01*
X4790000Y4260000D01*
Y4000000D01*
X4550000Y3760000D01*
X4460700D01*
X4030000Y3329300D01*
Y1830000D01*
X3875000Y1675000D01*
Y755000D01*
G01X6980000Y6920000D02*
X6380000D01*
X5060000Y5600000D01*
Y4450000D01*
X4840000Y4230000D01*
Y3990000D01*
X4770000Y3920000D01*
Y3520000D01*
X4690000Y3440000D01*
X4429900D01*
X4160000Y3170100D01*
Y2840000D01*
X4280000Y2720000D01*
Y1160000D01*
X4380000Y1060000D01*
Y950000D01*
G01X4620000Y870000D02*
Y919200D01*
X4610000Y929200D01*
Y2080000D01*
X4340000Y2350000D01*
Y2810000D01*
X4290000Y2860000D01*
Y3100000D01*
X4340000Y3150000D01*
G01X4420000Y3350000D02*
Y3100000D01*
X4490000Y3030000D01*
Y2890000D01*
X4450000Y2850000D01*
Y2330000D01*
X4690000Y2090000D01*
Y490000D01*
X4740000Y440000D01*
X5119900D01*
X5165400Y485500D01*
X5225500D01*
X5275000Y535000D01*
X5360000D01*
G01X5639000Y4730000D02*
Y4609000D01*
X5500000Y4470000D01*
Y4460000D01*
X5332700Y4292700D01*
Y4126000D01*
X5360000Y4098700D01*
Y3920000D01*
X5230000Y3790000D01*
Y1360000D01*
X5140000Y1270000D01*
Y789700D01*
X4880100Y529800D01*
G01X4820000Y800000D02*
Y1670000D01*
X5097000Y1947000D01*
Y4226900D01*
X5380000Y4509900D01*
Y4579500D01*
X5635000Y4834500D01*
G01X4910000Y800000D02*
Y1670000D01*
X5177000Y1937000D01*
Y3783700D01*
X5187000Y3793700D01*
Y3797000D01*
X5327000Y3937000D01*
Y4085000D01*
X5270000Y4142000D01*
Y4320000D01*
X5440000Y4490000D01*
G01X5310000Y590000D02*
Y750000D01*
X5251000Y809000D01*
Y1100900D01*
X5480000Y1329900D01*
Y2299400D01*
X5557500Y2376900D01*
Y3298200D01*
X5557600Y3298300D01*
Y3322500D01*
X5556000Y3324100D01*
Y3731900D01*
X5560500Y3736400D01*
Y3783600D01*
X5555900Y3788200D01*
Y3827900D01*
X6099000Y4371000D01*
G01X10800000Y4394000D02*
X10650000Y4244000D01*
Y3870000D01*
X10910000Y3610000D01*
Y3200000D01*
X10880000Y3170000D01*
X10450000D01*
X10290000Y3010000D01*
Y3007000D01*
X10273000Y2990000D01*
X9260000D01*
X9145000Y3105000D01*
X8955000D01*
X8850000Y3000000D01*
X8180000D01*
X8110000Y3070000D01*
X6960000D01*
X6760000Y2870000D01*
X6400000D01*
X6300000Y2770000D01*
Y2140000D01*
X6960000Y1480000D01*
Y920000D01*
X6780000Y740000D01*
X6280000D01*
X6160000Y620000D01*
X6000000D01*
X5910000Y710000D01*
Y940000D01*
X5860000Y990000D01*
X5510000D01*
X5420000Y900000D01*
Y840000D01*
G01X5250000Y650000D02*
Y730000D01*
X5200000Y780000D01*
Y1190000D01*
X5330000Y1320000D01*
Y3490000D01*
X5450000Y3610000D01*
Y3810000D01*
X6145000Y4505000D01*
X6345000D01*
X6490000Y4360000D01*
G01X5980000Y920000D02*
Y2170000D01*
X5820000Y2330000D01*
Y3060000D01*
X6160000Y3400000D01*
X6712100D01*
X6766000Y3453900D01*
Y3844100D01*
X6585000Y4025100D01*
Y4425100D01*
X6480000Y4530100D01*
Y5449100D01*
X6744500Y5713600D01*
Y5806400D01*
X6700000Y5850900D01*
Y6478000D01*
X6790000Y6568000D01*
Y6648000D01*
G01X6110000Y680000D02*
X6070000Y720000D01*
Y2160000D01*
X5960000Y2270000D01*
Y3020000D01*
X6220000Y3280000D01*
X6660000D01*
X6810000Y3430000D01*
Y4328800D01*
X6748000Y4390800D01*
Y4440000D01*
G01X6370000Y220000D02*
Y370000D01*
X6422500Y422500D01*
X6472500D01*
G01X6240000Y520000D02*
X6180000Y460000D01*
Y180000D01*
X6290000Y70000D01*
X11900000D01*
X12030000Y200000D01*
Y790000D01*
X12100000Y860000D01*
X12340000D01*
X12410000Y930000D01*
Y1360000D01*
X12355000Y1415000D01*
Y4834500D01*
G01X6590000Y880000D02*
X6430000Y1040000D01*
Y1390000D01*
X6190000Y1630000D01*
Y2790000D01*
X6470000Y3070000D01*
X6650000D01*
X6886000Y3306000D01*
Y3454100D01*
X6843000Y3497100D01*
Y4342500D01*
X6842500Y4343000D01*
Y4911800D01*
X6840000Y4914200D01*
Y5020000D01*
X6810000Y5050000D01*
Y5564200D01*
X6800000Y5574200D01*
Y5623400D01*
G01X6690000Y880000D02*
Y1640000D01*
X6250000Y2080000D01*
Y2780000D01*
X6410000Y2940000D01*
X6720000D01*
X6920000Y3140000D01*
Y3490000D01*
X6880000Y3530000D01*
Y5190000D01*
G01X9693900Y515900D02*
X9644700D01*
X9580600Y580000D01*
X9419900D01*
X9377100Y622800D01*
Y1366100D01*
X8923200Y1820000D01*
X7733200D01*
X6803200Y2750000D01*
X6510000D01*
G01Y2670000D02*
X6770000D01*
X7700000Y1740000D01*
X8890000D01*
X9260000Y1370000D01*
Y529900D01*
X9339900Y450000D01*
X9501000D01*
X9566900Y515900D01*
G01X7240000Y357500D02*
X7467500Y130000D01*
X11560000D01*
X11640000Y210000D01*
Y443800D01*
X11712100Y515900D01*
G01X11839100D02*
X11775000Y580000D01*
X11520000D01*
X11470000Y530000D01*
Y390000D01*
X11270000Y190000D01*
X7520000D01*
X7320000Y390000D01*
G01X7840000Y2740000D02*
X8050000D01*
X8460000Y2330000D01*
X9610000D01*
X9990000Y2710000D01*
X11780000D01*
X12167600Y2322400D01*
Y1189600D01*
X12220100Y1137100D01*
G01X12093100D02*
X12040600Y1189600D01*
Y2339500D01*
X11800100Y2580000D01*
X10001500D01*
X9651500Y2230000D01*
X8418500D01*
X8008500Y2640000D01*
X7840000D01*
G01X9285000Y4834500D02*
Y4364900D01*
X9543000Y4106900D01*
Y3387000D01*
X9761800Y3168200D01*
X10212700D01*
X10247500Y3203000D01*
G01X9693900Y642900D02*
Y793900D01*
X10130000Y1230000D01*
Y1330000D01*
X10200000Y1400000D01*
Y2480000D01*
G01X10310000D02*
Y1480000D01*
X10260000Y1430000D01*
Y1030000D01*
X10020000Y790000D01*
Y630100D01*
X9969900Y580000D01*
X9679000D01*
X9616100Y642900D01*
X9566900D01*
G01X10320000Y3270000D02*
X10020000Y3570000D01*
X9919900D01*
X9740000Y3749900D01*
Y3976700D01*
X9513000Y4203700D01*
Y4507000D01*
X9395000Y4625000D01*
Y4834500D01*
G01X10580000Y3310000D02*
X10400000D01*
X10160000Y3550000D01*
Y4000100D01*
X9505000Y4655100D01*
Y4834500D01*
G01X11752500Y2521500D02*
Y2202500D01*
X11486500Y1936500D01*
Y1436400D01*
X11400000Y1349900D01*
Y510500D01*
X11330900Y441400D01*
X10819800D01*
X10745300Y515900D01*
X10696100D01*
G01X10710000Y4834500D02*
X10880000Y4664500D01*
Y4173300D01*
X11687500Y3365800D01*
Y3203000D01*
G01X11679500Y2519900D02*
Y2299600D01*
X11400000Y2020100D01*
Y1460000D01*
X11280000Y1340000D01*
Y1090000D01*
X10823100Y633100D01*
Y515900D01*
G01X11752500Y3280000D02*
Y3377500D01*
X10933000Y4197000D01*
Y4721500D01*
X10820000Y4834500D01*
G01X13080500Y2500000D02*
X13130000Y2450500D01*
Y1840000D01*
X12920000Y1630000D01*
Y980000D01*
X12850000Y910000D01*
X12590000D01*
X12474100Y1025900D01*
Y1137100D01*
G01X12601100D02*
X12740000Y1276000D01*
Y1959900D01*
X12998500Y2218400D01*
Y2500000D01*
G54D11*
X140000Y1600000D03*
X130000Y2090000D03*
X139500Y2267000D03*
X140000Y2597000D03*
X139500Y3053000D03*
X270000Y1930000D03*
X480000Y1600000D03*
X590000Y1880000D03*
X266500Y2267000D03*
X595000Y2075000D03*
X660000Y2267000D03*
X400000Y2600000D03*
X270000Y2597000D03*
X660000Y2513000D03*
X530000Y2590000D03*
X520500Y3053000D03*
X393500D03*
X266500D03*
X698900Y6031600D03*
X1110000Y532500D03*
Y92500D03*
Y387500D03*
X973000Y993000D03*
X1110000Y827500D03*
X820000Y1780000D03*
X1000000Y1785000D03*
X775000Y2075000D03*
X1059500Y3805000D03*
Y3715000D03*
X1140000Y4719500D03*
X820500Y5849200D03*
X739500Y5970800D03*
X780000Y5910000D03*
X1582400Y1133500D03*
Y1206500D03*
X1591100Y1061000D03*
X1601900Y1276900D03*
X1350000Y1910000D03*
X1380000Y1610000D03*
X1530000Y1910000D03*
X1387500Y3427400D03*
X1460500D03*
X1520000Y3600000D03*
X1228500Y3760000D03*
X1560000Y3910000D03*
X1700000D03*
Y4155500D03*
X1550000Y4310500D03*
X1400000Y4155500D03*
X1290000Y4121800D03*
X1264000Y4429500D03*
X1344000D03*
X1360000Y4834500D03*
X1580000D03*
X1690000D03*
X1470000D03*
X1570000Y5080200D03*
X1470000Y5085500D03*
X1360000D03*
X1800000Y240000D03*
X1937700Y496500D03*
Y423500D03*
X1810000Y790000D03*
Y980000D03*
X1800000Y680000D03*
X2110000Y790000D03*
X1810000Y1470000D03*
X2035700Y1360000D03*
X2040000Y1470000D03*
X1846500Y2326900D03*
X1773500D03*
X1910000Y2500000D03*
X2060000Y3180000D03*
X2110000Y3335000D03*
X1710000Y3336000D03*
X1760000Y3180000D03*
X2024000Y3910500D03*
X1784000Y3609500D03*
X1810000Y4131800D03*
X1824000Y4364000D03*
X1984000Y4429500D03*
X1800000Y4834500D03*
X1910000D03*
Y5085500D03*
X1790000Y5080200D03*
X1710000D03*
X2330000Y550000D03*
X2400000D03*
X2410000Y330000D03*
X2330000Y620000D03*
Y690000D03*
X2400000Y620000D03*
Y690000D03*
X2260000Y1430000D03*
X2350000Y1480000D03*
X2635000Y1255000D03*
X2490000Y1690000D03*
X2420000D03*
X2350000D03*
Y1620000D03*
Y1550000D03*
X2252500Y1730000D03*
X2607500Y2592500D03*
X2550000Y2930000D03*
X2420000D03*
X2390000Y2740000D03*
Y2640000D03*
X2330000Y3360000D03*
X2275000Y2985000D03*
X2653500Y3760000D03*
X2565000Y3940000D03*
Y4719500D03*
X3105000Y325000D03*
X2773500Y489800D03*
X2846500D03*
X3040000Y1090000D03*
X2865000Y2805000D03*
Y2585000D03*
X3140000Y3336000D03*
X2705000Y2985000D03*
X2812500Y3427400D03*
X2885500D03*
X2940000Y3590000D03*
X2975000Y3915000D03*
X3125000D03*
Y4155500D03*
X2975000Y4310500D03*
X2825000Y4155500D03*
X2715000Y4121800D03*
X2689000Y4429500D03*
X2769000D03*
X2785000Y4834500D03*
X3005000D03*
X3115000D03*
X2895000D03*
X2785000Y5085500D03*
X2895000D03*
X3000000Y5080200D03*
X3130000D03*
X3290000Y530000D03*
X3450000Y480000D03*
X3510800Y520500D03*
X3590000Y560000D03*
X3290000Y740000D03*
Y670000D03*
Y600000D03*
X3220000Y740000D03*
X3150000D03*
X3290000Y1500000D03*
X3220000D03*
X3290000Y1640000D03*
X3220000D03*
Y1570000D03*
X3290000D03*
X3266500Y2400000D03*
X3193500D03*
X3490000Y3180000D03*
X3530000Y3335000D03*
X3190000Y3180000D03*
X3449000Y3910500D03*
X3209000Y3609500D03*
X3235000Y4131800D03*
X3249000Y4331000D03*
X3409000Y4429500D03*
X3225000Y4834500D03*
X3335000D03*
X3220000Y5080200D03*
X3350000D03*
X3660000Y610000D03*
X3730000Y660000D03*
X3800000Y710000D03*
X3875000Y755000D03*
X3675000Y2465000D03*
X4090000Y2930000D03*
X3890000Y2980000D03*
X3909500Y3805000D03*
X4078500Y3760000D03*
X3909500Y3715000D03*
X3990000Y4719500D03*
X4480000Y560000D03*
X4340000Y180000D03*
X4515000D03*
X4440000Y870000D03*
X4470000Y950000D03*
X4555000D03*
X4380000D03*
X4212500Y2592500D03*
X4220000Y2930000D03*
X4505000Y2815000D03*
Y2570000D03*
X4110000Y2740000D03*
Y2640000D03*
X4560000Y3336000D03*
X4345000Y3000000D03*
X4237500Y3427400D03*
X4310500D03*
X4340000Y3150000D03*
X4420000Y3350000D03*
X4362500Y3587500D03*
X4400000Y3910000D03*
X4550000D03*
Y4155500D03*
X4400000Y4310500D03*
X4250000Y4155500D03*
X4140000Y4121800D03*
X4114000Y4429500D03*
X4194000D03*
X4210000Y4834500D03*
X4430000D03*
X4540000D03*
X4320000D03*
X4420000Y5080200D03*
X4560000D03*
X4210000Y5085500D03*
X4320000D03*
X4605000Y180000D03*
X4870000Y210000D03*
X5050000Y500000D03*
X4790000Y535000D03*
X4880100Y529800D03*
X4620000Y870000D03*
X4820000Y800000D03*
X4910000D03*
X4860000Y600000D03*
X4686500Y2322400D03*
X4613500D03*
X4910000Y3180000D03*
X4960000Y3335000D03*
X4610000Y3180000D03*
X4874000Y3910500D03*
X4634000Y3609500D03*
X4660000Y4131800D03*
X4674000Y4356000D03*
X4834000Y4429500D03*
X4650000Y4834500D03*
X4760000D03*
X4780000Y5080200D03*
X4650000Y5085500D03*
X5190000Y180000D03*
X5295000Y255000D03*
X5190000Y380000D03*
X5360000Y535000D03*
X5310000Y590000D03*
X5510000Y880000D03*
X5420000Y840000D03*
X5338000D03*
X5250000Y650000D03*
X5334500Y3805000D03*
X5503500Y3760000D03*
X5334500Y3715000D03*
X5530000Y4380000D03*
X5415000Y4719500D03*
X5440000Y4490000D03*
X5660000Y560000D03*
X5675000Y155000D03*
X5713900Y227200D03*
X5950000Y540000D03*
X5635000Y880000D03*
X5980000Y920000D03*
X5840000Y890000D03*
X5694200Y1757900D03*
X5767200D03*
X5900000Y2520000D03*
X5980000Y3336000D03*
X5662500Y3427400D03*
X5735500D03*
X5814100Y3612900D03*
X5825000Y3916800D03*
X5975000Y3915000D03*
X5825000Y4310500D03*
X5675000Y4155500D03*
X5975000D03*
X5565000Y4121800D03*
X5619000Y4429500D03*
X5635000Y4834500D03*
X5855000D03*
X5965000D03*
X5745000D03*
X5639000Y4730000D03*
X5745000Y5075700D03*
X5635000D03*
X5855000D03*
X5980000Y5090000D03*
X6240000Y370000D03*
X6110000Y300000D03*
X6480000Y340000D03*
X6472500Y422500D03*
X6370000Y220000D03*
X6240000Y520000D03*
X6110000Y680000D03*
X6280000Y650000D03*
X6493800Y640000D03*
X6116500Y2322400D03*
X6043500D03*
X6472500Y2592500D03*
X6510000Y2750000D03*
Y2670000D03*
X6380000Y2760000D03*
X6410000Y2680000D03*
X6340000Y3180000D03*
X6285000Y3020000D03*
X6390000Y3335000D03*
X6040000Y3180000D03*
X6195000Y3020000D03*
X6299000Y3910500D03*
X6059000Y3609500D03*
X6085000Y4131800D03*
X6099000Y4371000D03*
X6490000Y4360000D03*
X6259000Y4429500D03*
X6075000Y4834500D03*
X6185000D03*
X6075000Y5075700D03*
X6255700Y5005000D03*
X6630000Y170000D03*
X6790000Y164500D03*
X6910000D03*
X6790000Y615500D03*
X6944500Y710000D03*
X6800000Y1025000D03*
X6540000D03*
X6910000Y615500D03*
X6590000Y880000D03*
X6690000D03*
X6535000Y3005000D03*
X6625000D03*
X6950000Y4290000D03*
Y4400000D03*
X6748000Y4440000D03*
X6880000Y5190000D03*
X6800000Y5623400D03*
X6790000Y6648000D03*
X6980000Y7080000D03*
Y7000000D03*
Y6920000D03*
Y7410000D03*
X7225000Y230000D03*
X7070000Y160000D03*
X7240000Y357500D03*
X7320000Y390000D03*
X7070000Y620000D03*
X7240000Y2520000D03*
X7229500Y3805000D03*
X7398500Y3760000D03*
X7229500Y3715000D03*
X7460000Y4121800D03*
X7434000Y4429500D03*
X7310000Y4719500D03*
X7915900Y261900D03*
X7600000Y510000D03*
X7915900Y388900D03*
Y769900D03*
Y642900D03*
Y1391100D03*
Y1137100D03*
X7943500Y2482400D03*
X7820000Y2930000D03*
X7680000D03*
X7840000Y2510000D03*
Y2740000D03*
Y2640000D03*
X7680000Y2740000D03*
Y2640000D03*
X7866300Y3336000D03*
X7930000Y3180000D03*
X7545000Y2985000D03*
X7714000Y3624000D03*
X7954000Y3609500D03*
X7720000Y3916800D03*
X7870000Y3910000D03*
Y4155500D03*
X7720000Y4310500D03*
X7570000Y4155500D03*
X7514000Y4429500D03*
X7750000Y4834500D03*
X7640000D03*
X7860000D03*
X7530000D03*
Y5075700D03*
X7640000D03*
X7750000D03*
X7860000D03*
X8042900Y388900D03*
X8169900D03*
X8296900Y261900D03*
X8423900D03*
X8042900Y642900D03*
X8169900D03*
X8296900Y769900D03*
X8423900D03*
X8042900Y1518100D03*
X8296900Y1137100D03*
Y1391100D03*
X8423900D03*
Y1518100D03*
X8296900D03*
X8169900Y1137100D03*
X8042900D03*
Y1264100D03*
X8016500Y2482400D03*
X8320000Y2930000D03*
X8230000Y3180000D03*
X8292700Y3335000D03*
X7975000Y2995000D03*
X8194000Y3910500D03*
X7980000Y4131800D03*
X7967000Y4397000D03*
X8154000Y4429500D03*
X7970000Y4834500D03*
X8080000D03*
X7970000Y5075700D03*
X8080000D03*
X8550900Y388900D03*
X8677900D03*
X8804900Y261900D03*
X8550900Y642900D03*
X8677900D03*
X8804900Y769900D03*
Y642900D03*
X8550900Y1264100D03*
Y1518100D03*
X8804900Y1264100D03*
X8677900D03*
Y1137100D03*
X8550900D03*
X8545000Y2780000D03*
X8634500Y2930000D03*
X8639800Y2810000D03*
X8630000Y2640000D03*
X8800000Y2510000D03*
X8479300Y3080000D03*
X8699300D03*
X8827500Y3203000D03*
X8892500Y3270000D03*
X8664300Y3805000D03*
X8823500Y3760000D03*
X8765000Y3685000D03*
X8885000Y4121800D03*
X8859000Y4429500D03*
X8735000Y4719500D03*
X8931900Y261900D03*
X9058900Y388900D03*
X9185900D03*
X9312900Y261900D03*
X9185900Y515900D03*
X9058900D03*
X9312900Y1010100D03*
X9185900Y769900D03*
X9045100Y896900D03*
X8931900Y642900D03*
X9312900D03*
X9185900D03*
X8931900Y1518100D03*
X9185900Y1137100D03*
X9312900Y1264100D03*
Y1518100D03*
X9185900Y1264100D03*
X9058900D03*
X9312900Y1137100D03*
X9058900D03*
X8931900D03*
X9363500Y2422400D03*
X9100000Y2640000D03*
X9085500Y2930000D03*
X9090000Y2810000D03*
X8939600Y2509600D03*
X9291300Y3336000D03*
X9344300Y3180000D03*
X9110000Y3035000D03*
X8957500Y3203000D03*
X9139000Y3624000D03*
X9379000Y3609500D03*
X9145000Y3915000D03*
X9295000D03*
X8982500Y3527400D03*
X9055500D03*
X8995000Y4155500D03*
X9145000Y4310500D03*
X9295000Y4155500D03*
X8939000Y4429500D03*
X9175000Y4834500D03*
X9065000D03*
X9285000D03*
X9395000D03*
X8955000D03*
Y5075700D03*
X9175000D03*
X9065000D03*
X9285000D03*
X9395000D03*
X9439900Y261900D03*
Y515900D03*
X9566900Y388900D03*
X9693900D03*
X9820900Y261900D03*
Y515900D03*
X9693900D03*
X9566900D03*
X9693900Y1010100D03*
X9439900Y642900D03*
X9566900Y769900D03*
X9820900Y642900D03*
X9693900D03*
X9566900D03*
Y1137100D03*
X9693900Y1264100D03*
Y1518100D03*
X9820900Y1137100D03*
X9566900Y1264100D03*
X9439900Y1137100D03*
X9820900Y1264100D03*
X9693900Y1137100D03*
X9439900Y1264100D03*
X9436500Y2422400D03*
X9840000Y2920000D03*
X9665700Y3180000D03*
X9717700Y3335000D03*
X9619000Y3910500D03*
X9405000Y4131800D03*
X9421300Y4379000D03*
X9579000Y4429500D03*
X9505000Y4834500D03*
Y5075700D03*
X9947900Y261900D03*
Y515900D03*
X10074900Y388900D03*
X10201900D03*
X10328900Y261900D03*
Y515900D03*
X10201900D03*
X10074900D03*
Y1010100D03*
X9947900Y769900D03*
X10201900Y642900D03*
X10328900Y769900D03*
X9947900Y1137100D03*
X10074900Y1518100D03*
X10328900Y1137100D03*
Y1391100D03*
X9947900Y1264100D03*
X10328900D03*
X10201900D03*
X10200000Y2480000D03*
X10310000D03*
X9965000Y2770000D03*
X10054500Y2930000D03*
X10059800Y2810000D03*
X10050000Y2640000D03*
X9890000Y3070000D03*
X10119300Y3080000D03*
X10247500Y3203000D03*
X10320000Y3270000D03*
X10079500Y3805000D03*
X10248500Y3760000D03*
X10079500Y3715000D03*
X10310000Y4121800D03*
X10284000Y4439300D03*
X10160000Y4719500D03*
X10569100Y261900D03*
Y515900D03*
X10696100Y388900D03*
X10823100D03*
Y515900D03*
X10696100D03*
X10569100Y1010100D03*
X10696100Y642900D03*
X10823100Y769900D03*
X10569100Y1264100D03*
Y1518100D03*
X10823100Y1137100D03*
Y1391100D03*
Y1264100D03*
X10696100D03*
X10803500Y2422400D03*
X10430000Y2500000D03*
X10505500Y2930000D03*
X10510000Y2810000D03*
X10716300Y3336000D03*
X10832500Y3066800D03*
X10530000Y3035000D03*
X10580000Y3310000D03*
X10377500Y3203000D03*
X10407500Y3427400D03*
X10480500D03*
X10564000Y3624000D03*
X10804000Y3609500D03*
X10570000Y3910000D03*
X10720000Y3900000D03*
Y4155500D03*
X10570000Y4310500D03*
X10420000Y4155500D03*
X10830000Y4131800D03*
X10800000Y4394000D03*
X10364000Y4439300D03*
X10600000Y4834500D03*
X10490000D03*
X10710000D03*
X10820000D03*
X10380000D03*
Y5075700D03*
X10490000D03*
X10600000D03*
X10710000D03*
X10820000D03*
X10950100Y261900D03*
Y515900D03*
X11077100Y261900D03*
Y515900D03*
X11204100D03*
X10950100Y1010100D03*
X11077100Y642900D03*
X11204100Y769900D03*
Y642900D03*
X10950100Y1518100D03*
X11204100Y1137100D03*
Y1264100D03*
X11077100D03*
X10876500Y2422400D03*
X11090700Y3180000D03*
X11142700Y3335000D03*
X11300000Y3040000D03*
X11044000Y3900700D03*
X10924000Y3964000D03*
X11004000Y4439300D03*
X10930000Y4834500D03*
Y5075700D03*
X11458100Y261900D03*
X11585100D03*
Y515900D03*
X11712100Y388900D03*
Y515900D03*
X11331100D03*
Y1010100D03*
X11712100D03*
X11585100Y769900D03*
X11712100Y642900D03*
X11331100Y1518100D03*
X11585100Y1137100D03*
X11712100Y1264100D03*
Y1518100D03*
X11585100Y1264100D03*
X11458100D03*
X11712100Y1137100D03*
X11405000Y2780000D03*
X11494500D03*
X11490000Y2640000D03*
X11679500Y2519900D03*
X11752500Y2521500D03*
X11410000Y3135500D03*
X11490000Y3000000D03*
X11559300Y3080000D03*
X11687500Y3203000D03*
X11752500Y3280000D03*
X11504500Y3805000D03*
X11749000Y3619300D03*
X11504500Y3715000D03*
X11735000Y4121800D03*
X11585000Y4719500D03*
X11709000Y4429500D03*
X11789000D03*
X11805000Y4834500D03*
Y5075700D03*
X11839100Y388900D03*
X11966100Y261900D03*
Y515900D03*
X12093100Y261900D03*
Y515900D03*
X12220100Y388900D03*
X11839100Y515900D03*
X12220100D03*
X11966100Y769900D03*
Y642900D03*
X11839100D03*
X12093100Y1518100D03*
Y1264100D03*
X11966100D03*
X12220100Y1137100D03*
X11839100Y1264100D03*
X12220100D03*
X12093100Y1137100D03*
X12223500Y2422400D03*
X11960000Y2640000D03*
X11945500Y2930000D03*
Y2780000D03*
X12141300Y3336000D03*
X12194300Y3180000D03*
X11970000Y3035000D03*
X11820200Y3200200D03*
X11832500Y3427400D03*
X11905500D03*
X11989000Y3624000D03*
X12229000Y3609500D03*
X11995000Y3915000D03*
X12145000D03*
X11995000Y4310500D03*
X12145000Y4155500D03*
X11845000D03*
X12255000Y4131800D03*
X12269000Y4381000D03*
X12025000Y4834500D03*
X11915000D03*
X12135000D03*
X12245000D03*
X11915000Y5075700D03*
X12025000D03*
X12135000D03*
X12245000D03*
X12347100Y388900D03*
X12474100Y261900D03*
Y515900D03*
X12601100Y261900D03*
X12728100Y388900D03*
Y515900D03*
X12347100D03*
X12601100D03*
X12728100Y769900D03*
X12347100D03*
X12601100Y642900D03*
X12347100D03*
X12474100D03*
X12728100D03*
X12347100Y1137100D03*
X12474100Y1264100D03*
Y1518100D03*
X12347100Y1264100D03*
X12601100Y1137100D03*
Y1264100D03*
X12474100Y1137100D03*
X12296500Y2422400D03*
X12644500Y2710000D03*
X12640000Y2965000D03*
X12730000Y3135500D03*
X12515700Y3180000D03*
X12567700Y3335000D03*
X12469000Y3900700D03*
X12429000Y4429500D03*
X12355000Y4834500D03*
Y5075700D03*
X12982100Y515900D03*
X12855100Y388900D03*
X12982100Y261900D03*
X13140000Y560000D03*
X13215000D03*
X12855100Y515900D03*
Y642900D03*
X12982100Y769900D03*
X12855100Y1010100D03*
X12982100D03*
X12855100Y769900D03*
X12982100Y642900D03*
Y1137100D03*
Y1391100D03*
X12855100Y1518100D03*
X12982100Y1264100D03*
X12855100Y1137100D03*
X13200000Y1920000D03*
Y1850000D03*
Y1780000D03*
Y1710000D03*
Y2480000D03*
X13070000Y2120000D03*
X12814500Y2790000D03*
X12830000Y2640000D03*
X12998500Y2500000D03*
X13080500D03*
X12817500Y3017500D03*
X12820000Y3080000D03*
X13007500Y3203000D03*
X13072500Y3290000D03*
X13137500Y3203000D03*
X13219500Y3890000D03*
Y4250000D03*
X13660000Y110000D03*
Y185000D03*
Y260000D03*
Y560000D03*
X13290000D03*
X13365000D03*
X13440000D03*
X13515000D03*
X13660000Y635000D03*
X13290000D03*
X13365000D03*
X13440000D03*
X13515000D03*
X13575000Y2005000D03*
X13590000Y1700000D03*
X13370000Y1920000D03*
Y1850000D03*
Y1780000D03*
Y1710000D03*
X13700000Y1700000D03*
X13500000Y2350000D03*
X13340000Y2010000D03*
X13420000Y2680000D03*
X13255700Y2950000D03*
X13260000Y2860000D03*
X13255700Y2790000D03*
X13420000Y3060000D03*
X13600000D03*
X13260000Y3035000D03*
X13330000Y3464300D03*
X13372500Y3637500D03*
X13510000Y3464300D03*
X13374500Y4040000D03*
Y4400000D03*
X13350000Y4130000D03*
X13735000Y110000D03*
X13810000D03*
X13735000Y185000D03*
X13810000D03*
X13735000Y260000D03*
X13810000D03*
Y335000D03*
Y410000D03*
Y485000D03*
X13735000Y560000D03*
X13810000D03*
X13735000Y635000D03*
X13810000D03*
Y1820000D03*
Y2350000D03*
X13790000Y2770000D03*
Y3040000D03*
G54D12*
X932500Y4010000D03*
Y4510000D03*
Y4980000D03*
X1645000Y3550000D03*
X2125000D03*
X2357500Y4980000D03*
X3070000Y3550000D03*
X3550000D03*
X3782500Y3760000D03*
Y4760000D03*
Y5760000D03*
Y6760000D03*
X4495000Y3550000D03*
X4975000D03*
X5207500Y4010000D03*
Y4510000D03*
Y4980000D03*
X5920000Y3550000D03*
X6400000D03*
X6632500Y4980000D03*
X7097500Y4010000D03*
Y4510000D03*
Y4980000D03*
X7810000Y3550000D03*
X8290000D03*
X8522500Y4980000D03*
X9235000Y3550000D03*
X9715000D03*
X9947500Y3760000D03*
Y4760000D03*
Y5760000D03*
Y6760000D03*
X10660000Y3550000D03*
X11140000D03*
X11372500Y4010000D03*
Y4510000D03*
Y4980000D03*
X12085000Y3550000D03*
X12565000D03*
X12797500Y4980000D03*
G54D13*
X1164000Y4170000D03*
X2124000D03*
X2589000D03*
X3549000D03*
X4014000D03*
X4974000D03*
X5439000D03*
X6399000D03*
X7334000D03*
X8294000D03*
X8759000D03*
X9719000D03*
X10184000D03*
X11144000D03*
X11609000D03*
X12569000D03*
G54D14*
X932500Y5260000D03*
X1250000Y5760000D03*
X932500Y6260000D03*
Y7260000D03*
X1500000D03*
X1790000Y5760000D03*
X2357500Y3760000D03*
Y4760000D03*
Y5760000D03*
X2675000D03*
X2357500Y6760000D03*
X3215000Y5760000D03*
X2925000Y7260000D03*
X4100000Y5760000D03*
X4640000D03*
X4350000Y7260000D03*
X5207500Y5260000D03*
X5525000Y5760000D03*
X5207500Y6260000D03*
Y7260000D03*
X6065000Y5760000D03*
X5775000Y7260000D03*
X6632500Y3760000D03*
Y4760000D03*
Y5760000D03*
Y6760000D03*
X7097500Y5260000D03*
X7415000Y5760000D03*
X7097500Y6260000D03*
Y7260000D03*
X7955000Y5760000D03*
X7665000Y7260000D03*
X8522500Y3760000D03*
Y4760000D03*
Y5760000D03*
Y6760000D03*
X8840000Y5760000D03*
X9380000D03*
X9090000Y7260000D03*
X10265000Y5760000D03*
X10805000D03*
X10515000Y7260000D03*
X11372500Y5260000D03*
Y6260000D03*
Y7260000D03*
X11690000Y5760000D03*
X12230000D03*
X11940000Y7260000D03*
X12797500Y3760000D03*
Y4760000D03*
Y5760000D03*
Y6760000D03*
G54D15*
X6550000Y1310000D03*
X6296000D03*
X6804000D03*
X13730000Y3773000D03*
Y3519000D03*
Y4027000D03*
Y4281000D03*
G54D16*
X7730000Y890000D03*
X13168000Y1195000D03*
G54D17*
X13440000Y4866000D03*
G54D18*
G01X548000Y5396000D02*
X566700Y5408000D01*
X577300Y5424000D01*
X580000Y5442000D01*
X577300Y5458000D01*
X564000Y5474000D01*
X548000Y5484000D01*
X532000Y5486000D01*
X513300Y5482000D01*
X500000Y5468000D01*
X494700Y5454000D01*
Y5436000D01*
G01Y5454000D02*
X486700Y5466000D01*
X473300Y5476000D01*
X457300Y5480000D01*
X441300Y5476000D01*
X428000Y5466000D01*
X420000Y5448000D01*
X422700Y5430000D01*
X433300Y5412000D01*
G54D19*
G01X12601100Y515900D02*
X12528200Y443000D01*
X12420000D01*
X12347100Y515900D01*
M02*
