G04 ================== begin FILE IDENTIFICATION RECORD ==================*
G04 Layout Name:  pc065c_fibv2_toplevel_19.brd*
G04 Film Name:    art_pc065a_BOHR.ger*
G04 File Format:  Gerber RS274X*
G04 File Origin:  Cadence Allegro 17.4-S011*
G04 Origin Date:  Thu Apr  4 13:41:42 2024*
G04 *
G04 Layer:  MANUFACTURING/NCDRILL_LEGEND*
G04 Layer:  MANUFACTURING/NCDRILL_FIGURE*
G04 Layer:  MANUFACTURING/NCLEGEND-1-6*
G04 Layer:  DRAWING FORMAT/OUTLINE*
G04 Layer:  DRAWING FORMAT/TITLE_BLOCK*
G04 Layer:  DRAWING FORMAT/TITLE_DATA*
G04 Layer:  DRAWING FORMAT/REVISION_BLOCK*
G04 Layer:  DRAWING FORMAT/REVISION_DATA*
G04 Layer:  BOARD GEOMETRY/DESIGN_OUTLINE*
G04 *
G04 Offset:    (0.000 0.000)*
G04 Mirror:    No*
G04 Mode:      Positive*
G04 Rotation:  0*
G04 FullContactRelief:  No*
G04 UndefLineWidth:     0.500*
G04 ================== end FILE IDENTIFICATION RECORD ====================*
%FSLAX35Y35*MOMM*%
%IR0*IPPOS*OFA0.00000B0.00000*MIA0B0*SFA1.00000B1.00000*%
%AMMACRO13*
1,1,.5,.7,0.0*
20,1,.5,.7,0.0,-.7,0.0,0.0*
1,1,.5,-.7,0.0*
1,1,.5,0.0,.7*
20,1,.5,0.0,.7,0.0,-.7,0.0*
1,1,.5,0.0,-.7*
%
%ADD13MACRO13*%
%AMMACRO14*
1,1,.5,.289949,-.7*
20,1,.5,.289949,-.7,-.289949,-.7,0.0*
1,1,.5,-.289949,-.7*
20,1,.5,-.289949,-.7,-.7,-.289949,0.0*
1,1,.5,-.7,-.289949*
20,1,.5,-.7,-.289949,-.7,.289949,0.0*
1,1,.5,-.7,.289949*
20,1,.5,-.7,.289949,-.289949,.7,0.0*
1,1,.5,-.289949,.7*
20,1,.5,-.289949,.7,.289949,.7,0.0*
1,1,.5,.289949,.7*
20,1,.5,.289949,.7,.7,.289949,0.0*
1,1,.5,.7,.289949*
20,1,.5,.7,.289949,.7,-.289949,0.0*
1,1,.5,.7,-.289949*
20,1,.5,.7,-.289949,.289949,-.7,0.0*
1,1,.5,.289949,-.7*
1,1,.5,-.496,-.297*
20,1,.5,-.496,-.297,-.496,.298,0.0*
1,1,.5,-.496,.298*
20,1,.5,-.496,.298,-.258,.298,0.0*
1,1,.5,-.258,.298*
20,1,.5,-.258,.298,-.178,.268,0.0*
1,1,.5,-.178,.268*
20,1,.5,-.178,.268,-.119,.199,0.0*
1,1,.5,-.119,.199*
20,1,.5,-.119,.199,-.099,.12,0.0*
1,1,.5,-.099,.12*
20,1,.5,-.099,.12,-.119,.04,0.0*
1,1,.5,-.119,.04*
20,1,.5,-.119,.04,-.169,-.019,0.0*
1,1,.5,-.169,-.019*
20,1,.5,-.169,-.019,-.258,-.049,0.0*
1,1,.5,-.258,-.049*
20,1,.5,-.258,-.049,-.496,-.049,0.0*
1,1,.5,-.496,-.049*
1,1,.5,.11,-.297*
20,1,.5,.11,-.297,.11,.298,0.0*
1,1,.5,.11,.298*
20,1,.5,.11,.298,.487,.298,0.0*
1,1,.5,.487,.298*
1,1,.5,.348,.01*
20,1,.5,.348,.01,.11,.01,0.0*
1,1,.5,.11,.01*
%
%ADD14MACRO14*%
%AMMACRO10*
1,1,.5,-.559,-.762*
20,1,.5,-.559,-.762,-.559,.762,0.0*
1,1,.5,-.559,.762*
20,1,.5,-.559,.762,-.051,.762,0.0*
1,1,.5,-.051,.762*
20,1,.5,-.051,.762,.152,.686,0.0*
1,1,.5,.152,.686*
20,1,.5,.152,.686,.305,.584,0.0*
1,1,.5,.305,.584*
20,1,.5,.305,.584,.432,.432,0.0*
1,1,.5,.432,.432*
20,1,.5,.432,.432,.533,.254,0.0*
1,1,.5,.533,.254*
20,1,.5,.533,.254,.559,0.0,0.0*
1,1,.5,.559,0.0*
20,1,.5,.559,0.0,.533,-.254,0.0*
1,1,.5,.533,-.254*
20,1,.5,.533,-.254,.432,-.432,0.0*
1,1,.5,.432,-.432*
20,1,.5,.432,-.432,.305,-.584,0.0*
1,1,.5,.305,-.584*
20,1,.5,.305,-.584,.152,-.686,0.0*
1,1,.5,.152,-.686*
20,1,.5,.152,-.686,-.051,-.762,0.0*
1,1,.5,-.051,-.762*
20,1,.5,-.051,-.762,-.559,-.762,0.0*
1,1,.5,-.559,-.762*
%
%ADD10MACRO10*%
%AMMACRO11*
1,1,.5,.25,0.0*
20,1,.5,.25,0.0,.125,.216506,0.0*
1,1,.5,.125,.216506*
20,1,.5,.125,.216506,-.125,.216506,0.0*
1,1,.5,-.125,.216506*
20,1,.5,-.125,.216506,-.25,0.0,0.0*
1,1,.5,-.25,0.0*
20,1,.5,-.25,0.0,-.125,-.216506,0.0*
1,1,.5,-.125,-.216506*
20,1,.5,-.125,-.216506,.125,-.216506,0.0*
1,1,.5,.125,-.216506*
20,1,.5,.125,-.216506,.25,0.0,0.0*
1,1,.5,.25,0.0*
%
%ADD11MACRO11*%
%AMMACRO12*
1,1,.5,0.0,.7*
20,1,.5,0.0,.7,.606218,-.35,0.0*
1,1,.5,.606218,-.35*
20,1,.5,.606218,-.35,-.606218,-.35,0.0*
1,1,.5,-.606218,-.35*
20,1,.5,-.606218,-.35,0.0,.7,0.0*
1,1,.5,0.0,.7*
1,1,.5,-.263,-.157*
20,1,.5,-.263,-.157,-.263,.158,0.0*
1,1,.5,-.263,.158*
20,1,.5,-.263,.158,-.136,.158,0.0*
1,1,.5,-.136,.158*
20,1,.5,-.136,.158,-.094,.142,0.0*
1,1,.5,-.094,.142*
20,1,.5,-.094,.142,-.063,.106,0.0*
1,1,.5,-.063,.106*
20,1,.5,-.063,.106,-.052,.064,0.0*
1,1,.5,-.052,.064*
20,1,.5,-.052,.064,-.063,.022,0.0*
1,1,.5,-.063,.022*
20,1,.5,-.063,.022,-.089,-.01,0.0*
1,1,.5,-.089,-.01*
20,1,.5,-.089,-.01,-.136,-.026,0.0*
1,1,.5,-.136,-.026*
20,1,.5,-.136,-.026,-.263,-.026,0.0*
1,1,.5,-.263,-.026*
1,1,.5,.059,-.157*
20,1,.5,.059,-.157,.059,.158,0.0*
1,1,.5,.059,.158*
20,1,.5,.059,.158,.258,.158,0.0*
1,1,.5,.258,.158*
1,1,.5,.185,.006*
20,1,.5,.185,.006,.059,.006,0.0*
1,1,.5,.059,.006*
%
%ADD12MACRO12*%
%AMMACRO15*
1,1,.5,.6985,0.0*
20,1,.5,.6985,0.0,.34925,.604919,0.0*
1,1,.5,.34925,.604919*
20,1,.5,.34925,.604919,-.34925,.604919,0.0*
1,1,.5,-.34925,.604919*
20,1,.5,-.34925,.604919,-.6985,0.0,0.0*
1,1,.5,-.6985,0.0*
20,1,.5,-.6985,0.0,-.34925,-.604919,0.0*
1,1,.5,-.34925,-.604919*
20,1,.5,-.34925,-.604919,.34925,-.604919,0.0*
1,1,.5,.34925,-.604919*
20,1,.5,.34925,-.604919,.6985,0.0,0.0*
1,1,.5,.6985,0.0*
%
%ADD15MACRO15*%
%ADD16C,.2*%
%ADD17C,.5*%
%ADD18C,.15*%
%ADD19C,.25*%
G75*
%LPD*%
G75*
G54D10*
X300000Y1090000D03*
X550000Y6550000D03*
X7300000Y1090000D03*
X13205000Y6550000D03*
X13600000Y1090000D03*
G54D11*
X130000Y2090000D03*
X139500Y2267000D03*
X140000Y2597000D03*
X139500Y3053000D03*
X270000Y1930000D03*
X266500Y2267000D03*
X660000D03*
X400000Y2600000D03*
X270000Y2597000D03*
X660000Y2513000D03*
X530000Y2590000D03*
X520500Y3053000D03*
X393500D03*
X266500D03*
X1059500Y3805000D03*
Y3715000D03*
X1140000Y4719500D03*
X1520000Y3600000D03*
X1228500Y3760000D03*
X1560000Y3910000D03*
X1700000D03*
Y4155500D03*
X1550000Y4310500D03*
X1400000Y4155500D03*
X1290000Y4121800D03*
X1264000Y4429500D03*
X1344000D03*
X1360000Y4834500D03*
X1580000D03*
X1690000D03*
X1470000D03*
X1570000Y5080200D03*
X1470000Y5085500D03*
X1360000D03*
X2060000Y3180000D03*
X2110000Y3335000D03*
X1710000Y3336000D03*
X1760000Y3180000D03*
X2024000Y3910500D03*
X1784000Y3609500D03*
X1810000Y4131800D03*
X1824000Y4364000D03*
X1984000Y4429500D03*
X1800000Y4834500D03*
X1910000D03*
Y5085500D03*
X1790000Y5080200D03*
X1710000D03*
X2330000Y3360000D03*
X2653500Y3760000D03*
X2565000Y3940000D03*
Y4719500D03*
X3140000Y3336000D03*
X2940000Y3590000D03*
X2975000Y3915000D03*
X3125000D03*
Y4155500D03*
X2975000Y4310500D03*
X2825000Y4155500D03*
X2715000Y4121800D03*
X2689000Y4429500D03*
X2769000D03*
X2785000Y4834500D03*
X3005000D03*
X3115000D03*
X2895000D03*
X2785000Y5085500D03*
X2895000D03*
X3000000Y5080200D03*
X3130000D03*
X3490000Y3180000D03*
X3530000Y3335000D03*
X3190000Y3180000D03*
X3449000Y3910500D03*
X3209000Y3609500D03*
X3235000Y4131800D03*
X3249000Y4331000D03*
X3409000Y4429500D03*
X3225000Y4834500D03*
X3335000D03*
X3220000Y5080200D03*
X3350000D03*
X3909500Y3805000D03*
X4078500Y3760000D03*
X3909500Y3715000D03*
X3990000Y4719500D03*
X4480000Y560000D03*
X4340000Y180000D03*
X4440000Y870000D03*
X4555000Y950000D03*
X4560000Y3336000D03*
X4340000Y3150000D03*
X4420000Y3350000D03*
X4362500Y3587500D03*
X4400000Y3910000D03*
X4550000D03*
Y4155500D03*
X4400000Y4310500D03*
X4250000Y4155500D03*
X4140000Y4121800D03*
X4114000Y4429500D03*
X4194000D03*
X4210000Y4834500D03*
X4430000D03*
X4540000D03*
X4320000D03*
X4420000Y5080200D03*
X4560000D03*
X4210000Y5085500D03*
X4320000D03*
X4870000Y210000D03*
X5050000Y500000D03*
X4790000Y535000D03*
X4880100Y529800D03*
X4620000Y870000D03*
X4820000Y800000D03*
X4910000D03*
Y3180000D03*
X4960000Y3335000D03*
X4610000Y3180000D03*
X4874000Y3910500D03*
X4634000Y3609500D03*
X4660000Y4131800D03*
X4674000Y4356000D03*
X4834000Y4429500D03*
X4650000Y4834500D03*
X4760000D03*
X4780000Y5080200D03*
X4650000Y5085500D03*
X5190000Y180000D03*
X5295000Y255000D03*
X5190000Y380000D03*
X5360000Y535000D03*
X5310000Y590000D03*
X5510000Y880000D03*
X5420000Y840000D03*
X5338000D03*
X5250000Y650000D03*
X5334500Y3805000D03*
X5503500Y3760000D03*
X5334500Y3715000D03*
X5530000Y4380000D03*
X5415000Y4719500D03*
X5440000Y4490000D03*
X5660000Y560000D03*
X5675000Y155000D03*
X5713900Y227200D03*
X5950000Y540000D03*
X5635000Y880000D03*
X5980000Y920000D03*
X5840000Y890000D03*
X5980000Y3336000D03*
X5814100Y3612900D03*
X5825000Y3916800D03*
X5975000Y3915000D03*
X5825000Y4310500D03*
X5675000Y4155500D03*
X5975000D03*
X5565000Y4121800D03*
X5619000Y4429500D03*
X5635000Y4834500D03*
X5855000D03*
X5965000D03*
X5745000D03*
X5639000Y4730000D03*
X5745000Y5075700D03*
X5635000D03*
X5855000D03*
X5980000Y5090000D03*
X6240000Y370000D03*
X6110000Y300000D03*
X6480000Y340000D03*
X6472500Y422500D03*
X6370000Y220000D03*
X6110000Y680000D03*
X6280000Y650000D03*
X6493800Y640000D03*
X6340000Y3180000D03*
X6390000Y3335000D03*
X6040000Y3180000D03*
X6299000Y3910500D03*
X6059000Y3609500D03*
X6085000Y4131800D03*
X6099000Y4371000D03*
X6490000Y4360000D03*
X6259000Y4429500D03*
X6075000Y4834500D03*
X6185000D03*
X6075000Y5075700D03*
X6255700Y5005000D03*
X6630000Y170000D03*
X6790000Y164500D03*
X6910000D03*
X6790000Y615500D03*
X6944500Y710000D03*
X6910000Y615500D03*
X6590000Y880000D03*
X6690000D03*
X6950000Y4290000D03*
Y4400000D03*
X6748000Y4440000D03*
X6880000Y5190000D03*
X6800000Y5623400D03*
X6790000Y6648000D03*
X7225000Y230000D03*
X7070000Y160000D03*
X7240000Y357500D03*
X7320000Y390000D03*
X7070000Y620000D03*
X7229500Y3805000D03*
X7398500Y3760000D03*
X7229500Y3715000D03*
X7460000Y4121800D03*
X7434000Y4429500D03*
X7310000Y4719500D03*
X7866300Y3336000D03*
X7930000Y3180000D03*
X7714000Y3624000D03*
X7954000Y3609500D03*
X7720000Y3916800D03*
X7870000Y3910000D03*
Y4155500D03*
X7720000Y4310500D03*
X7570000Y4155500D03*
X7514000Y4429500D03*
X7750000Y4834500D03*
X7640000D03*
X7860000D03*
X7530000D03*
Y5075700D03*
X7640000D03*
X7750000D03*
X7860000D03*
X8320000Y2930000D03*
X8230000Y3180000D03*
X8292700Y3335000D03*
X8194000Y3910500D03*
X7980000Y4131800D03*
X7967000Y4397000D03*
X8154000Y4429500D03*
X7970000Y4834500D03*
X8080000D03*
X7970000Y5075700D03*
X8080000D03*
X8545000Y2780000D03*
X8634500Y2930000D03*
X8639800Y2810000D03*
X8630000Y2640000D03*
X8800000Y2510000D03*
X8479300Y3080000D03*
X8699300D03*
X8827500Y3203000D03*
X8892500Y3270000D03*
X8664300Y3805000D03*
X8823500Y3760000D03*
X8765000Y3685000D03*
X8885000Y4121800D03*
X8859000Y4429500D03*
X8735000Y4719500D03*
X9100000Y2640000D03*
X9085500Y2930000D03*
X9090000Y2810000D03*
X8939600Y2509600D03*
X9291300Y3336000D03*
X9344300Y3180000D03*
X8957500Y3203000D03*
X9139000Y3624000D03*
X9379000Y3609500D03*
X9145000Y3915000D03*
X9295000D03*
X8995000Y4155500D03*
X9145000Y4310500D03*
X9295000Y4155500D03*
X8939000Y4429500D03*
X9175000Y4834500D03*
X9065000D03*
X9285000D03*
X9395000D03*
X8955000D03*
Y5075700D03*
X9175000D03*
X9065000D03*
X9285000D03*
X9395000D03*
X9840000Y2920000D03*
X9665700Y3180000D03*
X9717700Y3335000D03*
X9619000Y3910500D03*
X9405000Y4131800D03*
X9421300Y4379000D03*
X9579000Y4429500D03*
X9505000Y4834500D03*
Y5075700D03*
X10200000Y2480000D03*
X10310000D03*
X9965000Y2770000D03*
X10054500Y2930000D03*
X10059800Y2810000D03*
X10050000Y2640000D03*
X9890000Y3070000D03*
X10119300Y3080000D03*
X10247500Y3203000D03*
X10320000Y3270000D03*
X10079500Y3805000D03*
X10248500Y3760000D03*
X10079500Y3715000D03*
X10310000Y4121800D03*
X10284000Y4439300D03*
X10160000Y4719500D03*
X10430000Y2500000D03*
X10505500Y2930000D03*
X10510000Y2810000D03*
X10716300Y3336000D03*
X10832500Y3066800D03*
X10580000Y3310000D03*
X10377500Y3203000D03*
X10564000Y3624000D03*
X10804000Y3609500D03*
X10570000Y3910000D03*
X10720000Y3900000D03*
Y4155500D03*
X10570000Y4310500D03*
X10420000Y4155500D03*
X10830000Y4131800D03*
X10800000Y4394000D03*
X10364000Y4439300D03*
X10600000Y4834500D03*
X10490000D03*
X10710000D03*
X10820000D03*
X10380000D03*
Y5075700D03*
X10490000D03*
X10600000D03*
X10710000D03*
X10820000D03*
X11090700Y3180000D03*
X11142700Y3335000D03*
X11300000Y3040000D03*
X11044000Y3900700D03*
X10924000Y3964000D03*
X11004000Y4439300D03*
X10930000Y4834500D03*
Y5075700D03*
X11405000Y2780000D03*
X11494500D03*
X11490000Y2640000D03*
X11410000Y3135500D03*
X11490000Y3000000D03*
X11559300Y3080000D03*
X11687500Y3203000D03*
X11752500Y3280000D03*
X11504500Y3805000D03*
X11749000Y3619300D03*
X11504500Y3715000D03*
X11735000Y4121800D03*
X11585000Y4719500D03*
X11709000Y4429500D03*
X11789000D03*
X11805000Y4834500D03*
Y5075700D03*
X11960000Y2640000D03*
X11945500Y2930000D03*
Y2780000D03*
X12141300Y3336000D03*
X12194300Y3180000D03*
X11820200Y3200200D03*
X11989000Y3624000D03*
X12229000Y3609500D03*
X11995000Y3915000D03*
X12145000D03*
X11995000Y4310500D03*
X12145000Y4155500D03*
X11845000D03*
X12255000Y4131800D03*
X12269000Y4381000D03*
X12025000Y4834500D03*
X11915000D03*
X12135000D03*
X12245000D03*
X11915000Y5075700D03*
X12025000D03*
X12135000D03*
X12245000D03*
X12644500Y2710000D03*
X12640000Y2965000D03*
X12730000Y3135500D03*
X12515700Y3180000D03*
X12567700Y3335000D03*
X12469000Y3900700D03*
X12429000Y4429500D03*
X12355000Y4834500D03*
Y5075700D03*
X13200000Y1920000D03*
Y1850000D03*
Y1780000D03*
Y1710000D03*
Y2480000D03*
X12814500Y2790000D03*
X12998500Y2500000D03*
X13080500D03*
X12817500Y3017500D03*
X12820000Y3080000D03*
X13007500Y3203000D03*
X13072500Y3290000D03*
X13137500Y3203000D03*
X13219500Y3890000D03*
Y4250000D03*
X13590000Y1700000D03*
X13370000Y1920000D03*
Y1850000D03*
Y1780000D03*
Y1710000D03*
X13500000Y2350000D03*
X13255700Y2950000D03*
X13260000Y2860000D03*
X13255700Y2790000D03*
X13330000Y3464300D03*
X13372500Y3637500D03*
X13510000Y3464300D03*
X13374500Y4040000D03*
Y4400000D03*
X13350000Y4130000D03*
X13810000Y1820000D03*
Y2350000D03*
G54D12*
X932500Y4010000D03*
Y4510000D03*
Y4980000D03*
X1645000Y3550000D03*
X2125000D03*
X2357500Y4980000D03*
X3070000Y3550000D03*
X3550000D03*
X3782500Y3760000D03*
Y4760000D03*
Y5760000D03*
Y6760000D03*
X4495000Y3550000D03*
X4975000D03*
X5207500Y4010000D03*
Y4510000D03*
Y4980000D03*
X5920000Y3550000D03*
X6400000D03*
X6632500Y4980000D03*
X7097500Y4010000D03*
Y4510000D03*
Y4980000D03*
X7810000Y3550000D03*
X8290000D03*
X8522500Y4980000D03*
X9235000Y3550000D03*
X9715000D03*
X9947500Y3760000D03*
Y4760000D03*
Y5760000D03*
Y6760000D03*
X10660000Y3550000D03*
X11140000D03*
X11372500Y4010000D03*
Y4510000D03*
Y4980000D03*
X12085000Y3550000D03*
X12565000D03*
X12797500Y4980000D03*
G54D13*
X1164000Y4170000D03*
X2124000D03*
X2589000D03*
X3549000D03*
X4014000D03*
X4974000D03*
X5439000D03*
X6550000Y1310000D03*
X6296000D03*
X6399000Y4170000D03*
X6804000Y1310000D03*
X7334000Y4170000D03*
X8294000D03*
X8759000D03*
X9719000D03*
X10184000D03*
X11144000D03*
X11609000D03*
X12569000D03*
X13730000Y3773000D03*
Y3519000D03*
Y4027000D03*
Y4281000D03*
G54D14*
X932500Y5260000D03*
X1250000Y5760000D03*
X932500Y6260000D03*
Y7260000D03*
X1500000D03*
X1790000Y5760000D03*
X2357500Y3760000D03*
Y4760000D03*
Y5760000D03*
X2675000D03*
X2357500Y6760000D03*
X3215000Y5760000D03*
X2925000Y7260000D03*
X4100000Y5760000D03*
X4640000D03*
X4350000Y7260000D03*
X5207500Y5260000D03*
X5525000Y5760000D03*
X5207500Y6260000D03*
Y7260000D03*
X6065000Y5760000D03*
X5775000Y7260000D03*
X6632500Y3760000D03*
Y4760000D03*
Y5760000D03*
Y6760000D03*
X7097500Y5260000D03*
X7415000Y5760000D03*
X7097500Y6260000D03*
Y7260000D03*
X7955000Y5760000D03*
X7665000Y7260000D03*
X8522500Y3760000D03*
Y4760000D03*
Y5760000D03*
Y6760000D03*
X8840000Y5760000D03*
X9380000D03*
X9090000Y7260000D03*
X10265000Y5760000D03*
X10805000D03*
X10515000Y7260000D03*
X11372500Y5260000D03*
Y6260000D03*
Y7260000D03*
X11690000Y5760000D03*
X12230000D03*
X11940000Y7260000D03*
X12797500Y3760000D03*
Y4760000D03*
Y5760000D03*
Y6760000D03*
G54D15*
X13440000Y4866000D03*
G54D16*
G01X7294000Y-4663300D02*
Y-4503300D01*
G01Y-4527300D02*
X7304000Y-4514000D01*
X7314000Y-4506000D01*
X7330000Y-4503300D01*
X7344000Y-4506000D01*
X7358000Y-4519300D01*
X7364000Y-4538000D01*
X7366000Y-4556700D01*
X7364000Y-4575300D01*
X7358000Y-4594000D01*
X7346000Y-4604700D01*
X7330000Y-4610000D01*
X7316000Y-4607300D01*
X7302000Y-4599300D01*
X7294000Y-4588700D01*
G01X7507000Y-4516700D02*
X7493000Y-4506000D01*
X7481000Y-4503300D01*
X7465000Y-4508700D01*
X7453000Y-4519300D01*
X7445000Y-4538000D01*
X7443000Y-4556700D01*
X7445000Y-4575300D01*
X7453000Y-4591300D01*
X7465000Y-4604700D01*
X7481000Y-4610000D01*
X7495000Y-4604700D01*
X7507000Y-4594000D01*
G01X7620000Y-4450000D02*
X7604000Y-4455300D01*
X7592000Y-4468700D01*
X7584000Y-4484700D01*
X7578000Y-4506000D01*
X7576000Y-4530000D01*
X7578000Y-4554000D01*
X7584000Y-4575300D01*
X7592000Y-4591300D01*
X7604000Y-4604700D01*
X7620000Y-4610000D01*
X7636000Y-4604700D01*
X7648000Y-4591300D01*
X7656000Y-4575300D01*
X7662000Y-4554000D01*
X7664000Y-4530000D01*
X7662000Y-4506000D01*
X7656000Y-4484700D01*
X7648000Y-4468700D01*
X7636000Y-4455300D01*
X7620000Y-4450000D01*
G01X7727000Y-4543300D02*
X7741000Y-4524700D01*
X7753000Y-4514000D01*
X7769000Y-4508700D01*
X7783000Y-4514000D01*
X7793000Y-4524700D01*
X7801000Y-4540700D01*
X7803000Y-4559300D01*
X7801000Y-4575300D01*
X7793000Y-4591300D01*
X7781000Y-4604700D01*
X7767000Y-4610000D01*
X7751000Y-4604700D01*
X7737000Y-4588700D01*
X7729000Y-4564700D01*
X7727000Y-4538000D01*
X7731000Y-4503300D01*
X7737000Y-4484700D01*
X7747000Y-4466000D01*
X7761000Y-4452700D01*
X7775000Y-4450000D01*
X7789000Y-4455300D01*
X7799000Y-4468700D01*
G01X7866000Y-4586000D02*
X7878000Y-4599300D01*
X7892000Y-4607300D01*
X7910000Y-4610000D01*
X7928000Y-4604700D01*
X7942000Y-4594000D01*
X7952000Y-4575300D01*
X7954000Y-4554000D01*
X7950000Y-4532700D01*
X7940000Y-4519300D01*
X7926000Y-4508700D01*
X7912000Y-4506000D01*
X7898000Y-4508700D01*
X7880000Y-4519300D01*
X7886000Y-4450000D01*
X7940000D01*
G01X8019000Y-4610000D02*
Y-4450000D01*
G01Y-4530000D02*
X8029000Y-4514000D01*
X8041000Y-4506000D01*
X8053000Y-4503300D01*
X8071000Y-4508700D01*
X8083000Y-4519300D01*
X8091000Y-4538000D01*
Y-4559300D01*
X8087000Y-4580700D01*
X8079000Y-4596700D01*
X8065000Y-4607300D01*
X8053000Y-4610000D01*
X8041000Y-4607300D01*
X8029000Y-4599300D01*
X8019000Y-4586000D01*
G01X7290000Y-4210000D02*
Y-4050000D01*
X7338000D01*
X7354000Y-4058000D01*
X7366000Y-4076700D01*
X7370000Y-4098000D01*
X7366000Y-4119300D01*
X7356000Y-4135300D01*
X7338000Y-4143300D01*
X7290000D01*
G01X7511000Y-4210000D02*
Y-4103300D01*
G01Y-4122000D02*
X7503000Y-4111300D01*
X7491000Y-4106000D01*
X7477000Y-4103300D01*
X7463000Y-4108700D01*
X7451000Y-4119300D01*
X7443000Y-4135300D01*
X7439000Y-4156700D01*
X7443000Y-4178000D01*
X7451000Y-4194000D01*
X7463000Y-4204700D01*
X7477000Y-4210000D01*
X7491000Y-4207300D01*
X7503000Y-4199300D01*
X7511000Y-4188700D01*
G01X7620000Y-4210000D02*
X7608000Y-4207300D01*
X7596000Y-4196700D01*
X7588000Y-4178000D01*
X7584000Y-4156700D01*
X7588000Y-4135300D01*
X7596000Y-4116700D01*
X7608000Y-4106000D01*
X7620000Y-4103300D01*
X7632000Y-4106000D01*
X7644000Y-4116700D01*
X7652000Y-4135300D01*
X7654000Y-4156700D01*
X7652000Y-4178000D01*
X7644000Y-4196700D01*
X7632000Y-4207300D01*
X7620000Y-4210000D01*
G01X7765000D02*
Y-4050000D01*
G01X7910000Y-4210000D02*
X7898000Y-4207300D01*
X7886000Y-4196700D01*
X7878000Y-4178000D01*
X7874000Y-4156700D01*
X7878000Y-4135300D01*
X7886000Y-4116700D01*
X7898000Y-4106000D01*
X7910000Y-4103300D01*
X7922000Y-4106000D01*
X7934000Y-4116700D01*
X7942000Y-4135300D01*
X7944000Y-4156700D01*
X7942000Y-4178000D01*
X7934000Y-4196700D01*
X7922000Y-4207300D01*
X7910000Y-4210000D01*
G01X8216000Y-4124700D02*
X8224000Y-4116700D01*
X8230000Y-4103300D01*
X8234000Y-4084700D01*
X8230000Y-4068700D01*
X8222000Y-4058000D01*
X8208000Y-4050000D01*
X8154000D01*
Y-4210000D01*
X8220000D01*
X8234000Y-4199300D01*
X8242000Y-4183300D01*
X8246000Y-4164700D01*
X8242000Y-4146000D01*
X8230000Y-4130000D01*
X8216000Y-4124700D01*
X8154000D01*
G01X8381000Y-4210000D02*
Y-4103300D01*
G01Y-4122000D02*
X8373000Y-4111300D01*
X8361000Y-4106000D01*
X8347000Y-4103300D01*
X8333000Y-4108700D01*
X8321000Y-4119300D01*
X8313000Y-4135300D01*
X8309000Y-4156700D01*
X8313000Y-4178000D01*
X8321000Y-4194000D01*
X8333000Y-4204700D01*
X8347000Y-4210000D01*
X8361000Y-4207300D01*
X8373000Y-4199300D01*
X8381000Y-4188700D01*
G01X8460000Y-4138000D02*
X8524000D01*
X8518000Y-4119300D01*
X8508000Y-4108700D01*
X8494000Y-4103300D01*
X8480000Y-4106000D01*
X8468000Y-4114000D01*
X8460000Y-4132700D01*
X8456000Y-4148700D01*
Y-4164700D01*
X8460000Y-4180700D01*
X8470000Y-4196700D01*
X8482000Y-4207300D01*
X8496000Y-4210000D01*
X8510000Y-4204700D01*
X8524000Y-4188700D01*
G01X8605000Y-4191300D02*
X8615000Y-4202000D01*
X8629000Y-4210000D01*
X8641000D01*
X8653000Y-4204700D01*
X8661000Y-4196700D01*
X8665000Y-4186000D01*
X8663000Y-4170000D01*
X8655000Y-4162000D01*
X8619000Y-4146000D01*
X8611000Y-4127300D01*
X8615000Y-4114000D01*
X8623000Y-4106000D01*
X8635000Y-4103300D01*
X8647000Y-4106000D01*
X8659000Y-4114000D01*
G01X8750000Y-4191300D02*
X8760000Y-4202000D01*
X8774000Y-4210000D01*
X8786000D01*
X8798000Y-4204700D01*
X8806000Y-4196700D01*
X8810000Y-4186000D01*
X8808000Y-4170000D01*
X8800000Y-4162000D01*
X8764000Y-4146000D01*
X8756000Y-4127300D01*
X8760000Y-4114000D01*
X8768000Y-4106000D01*
X8780000Y-4103300D01*
X8792000Y-4106000D01*
X8804000Y-4114000D01*
G01X8925000Y-4210000D02*
X8913000Y-4207300D01*
X8901000Y-4196700D01*
X8893000Y-4178000D01*
X8889000Y-4156700D01*
X8893000Y-4135300D01*
X8901000Y-4116700D01*
X8913000Y-4106000D01*
X8925000Y-4103300D01*
X8937000Y-4106000D01*
X8949000Y-4116700D01*
X8957000Y-4135300D01*
X8959000Y-4156700D01*
X8957000Y-4178000D01*
X8949000Y-4196700D01*
X8937000Y-4207300D01*
X8925000Y-4210000D01*
G01X9066000Y-4239300D02*
X9074000Y-4204700D01*
G01X9308000Y-4210000D02*
Y-4050000D01*
X9360000Y-4183300D01*
X9412000Y-4050000D01*
Y-4210000D01*
G01X9541000D02*
Y-4103300D01*
G01Y-4122000D02*
X9533000Y-4111300D01*
X9521000Y-4106000D01*
X9507000Y-4103300D01*
X9493000Y-4108700D01*
X9481000Y-4119300D01*
X9473000Y-4135300D01*
X9469000Y-4156700D01*
X9473000Y-4178000D01*
X9481000Y-4194000D01*
X9493000Y-4204700D01*
X9507000Y-4210000D01*
X9521000Y-4207300D01*
X9533000Y-4199300D01*
X9541000Y-4188700D01*
G01X9608000Y-4258000D02*
X9620000Y-4263300D01*
X9636000Y-4258000D01*
X9646000Y-4247300D01*
X9654000Y-4234000D01*
X9666000Y-4191300D01*
X9692000Y-4103300D01*
G01X9628000D02*
X9666000Y-4191300D01*
G01X9902000Y-4076700D02*
X9914000Y-4060700D01*
X9928000Y-4052700D01*
X9944000Y-4050000D01*
X9964000Y-4055300D01*
X9978000Y-4068700D01*
X9982000Y-4084700D01*
X9980000Y-4100700D01*
X9972000Y-4114000D01*
X9932000Y-4140700D01*
X9914000Y-4159300D01*
X9902000Y-4186000D01*
X9898000Y-4210000D01*
X9982000D01*
G01X10085000Y-4050000D02*
X10069000Y-4055300D01*
X10057000Y-4068700D01*
X10049000Y-4084700D01*
X10043000Y-4106000D01*
X10041000Y-4130000D01*
X10043000Y-4154000D01*
X10049000Y-4175300D01*
X10057000Y-4191300D01*
X10069000Y-4204700D01*
X10085000Y-4210000D01*
X10101000Y-4204700D01*
X10113000Y-4191300D01*
X10121000Y-4175300D01*
X10127000Y-4154000D01*
X10129000Y-4130000D01*
X10127000Y-4106000D01*
X10121000Y-4084700D01*
X10113000Y-4068700D01*
X10101000Y-4055300D01*
X10085000Y-4050000D01*
G01X10192000Y-4076700D02*
X10204000Y-4060700D01*
X10218000Y-4052700D01*
X10234000Y-4050000D01*
X10254000Y-4055300D01*
X10268000Y-4068700D01*
X10272000Y-4084700D01*
X10270000Y-4100700D01*
X10262000Y-4114000D01*
X10222000Y-4140700D01*
X10204000Y-4159300D01*
X10192000Y-4186000D01*
X10188000Y-4210000D01*
X10272000D01*
G01X10375000Y-4050000D02*
X10359000Y-4055300D01*
X10347000Y-4068700D01*
X10339000Y-4084700D01*
X10333000Y-4106000D01*
X10331000Y-4130000D01*
X10333000Y-4154000D01*
X10339000Y-4175300D01*
X10347000Y-4191300D01*
X10359000Y-4204700D01*
X10375000Y-4210000D01*
X10391000Y-4204700D01*
X10403000Y-4191300D01*
X10411000Y-4175300D01*
X10417000Y-4154000D01*
X10419000Y-4130000D01*
X10417000Y-4106000D01*
X10411000Y-4084700D01*
X10403000Y-4068700D01*
X10391000Y-4055300D01*
X10375000Y-4050000D01*
G01X10516000Y-4239300D02*
X10524000Y-4204700D01*
G01X10766000Y-4210000D02*
Y-4050000D01*
X10806000D01*
X10822000Y-4058000D01*
X10834000Y-4068700D01*
X10844000Y-4084700D01*
X10852000Y-4103300D01*
X10854000Y-4130000D01*
X10852000Y-4156700D01*
X10844000Y-4175300D01*
X10834000Y-4191300D01*
X10822000Y-4202000D01*
X10806000Y-4210000D01*
X10766000D01*
G01X10991000D02*
Y-4103300D01*
G01Y-4122000D02*
X10983000Y-4111300D01*
X10971000Y-4106000D01*
X10957000Y-4103300D01*
X10943000Y-4108700D01*
X10931000Y-4119300D01*
X10923000Y-4135300D01*
X10919000Y-4156700D01*
X10923000Y-4178000D01*
X10931000Y-4194000D01*
X10943000Y-4204700D01*
X10957000Y-4210000D01*
X10971000Y-4207300D01*
X10983000Y-4199300D01*
X10991000Y-4188700D01*
G01X11064000Y-4103300D02*
X11100000Y-4210000D01*
X11136000Y-4103300D01*
G01X11245000D02*
Y-4210000D01*
G01Y-4060700D02*
X11241000Y-4058000D01*
Y-4052700D01*
X11245000Y-4050000D01*
X11249000Y-4052700D01*
Y-4058000D01*
X11245000Y-4060700D01*
G01X11426000Y-4050000D02*
Y-4210000D01*
G01Y-4186000D02*
X11418000Y-4199300D01*
X11406000Y-4207300D01*
X11392000Y-4210000D01*
X11376000Y-4204700D01*
X11364000Y-4191300D01*
X11356000Y-4175300D01*
X11354000Y-4156700D01*
X11356000Y-4138000D01*
X11364000Y-4122000D01*
X11376000Y-4108700D01*
X11392000Y-4103300D01*
X11406000Y-4106000D01*
X11416000Y-4111300D01*
X11426000Y-4122000D01*
G01X11724000Y-4063300D02*
X11712000Y-4055300D01*
X11698000Y-4050000D01*
X11682000D01*
X11664000Y-4058000D01*
X11650000Y-4071300D01*
X11640000Y-4087300D01*
X11632000Y-4114000D01*
X11630000Y-4138000D01*
X11634000Y-4162000D01*
X11640000Y-4178000D01*
X11652000Y-4194000D01*
X11666000Y-4204700D01*
X11680000Y-4210000D01*
X11694000D01*
X11708000Y-4204700D01*
X11720000Y-4196700D01*
X11730000Y-4186000D01*
G01X11791000Y-4103300D02*
Y-4178000D01*
X11799000Y-4196700D01*
X11811000Y-4207300D01*
X11825000Y-4210000D01*
X11839000Y-4207300D01*
X11851000Y-4196700D01*
X11859000Y-4178000D01*
G01Y-4210000D02*
Y-4103300D01*
G01X11940000Y-4191300D02*
X11950000Y-4202000D01*
X11964000Y-4210000D01*
X11976000D01*
X11988000Y-4204700D01*
X11996000Y-4196700D01*
X12000000Y-4186000D01*
X11998000Y-4170000D01*
X11990000Y-4162000D01*
X11954000Y-4146000D01*
X11946000Y-4127300D01*
X11950000Y-4114000D01*
X11958000Y-4106000D01*
X11970000Y-4103300D01*
X11982000Y-4106000D01*
X11994000Y-4114000D01*
G01X12085000Y-4191300D02*
X12095000Y-4202000D01*
X12109000Y-4210000D01*
X12121000D01*
X12133000Y-4204700D01*
X12141000Y-4196700D01*
X12145000Y-4186000D01*
X12143000Y-4170000D01*
X12135000Y-4162000D01*
X12099000Y-4146000D01*
X12091000Y-4127300D01*
X12095000Y-4114000D01*
X12103000Y-4106000D01*
X12115000Y-4103300D01*
X12127000Y-4106000D01*
X12139000Y-4114000D01*
G01X12296000Y-4210000D02*
Y-4103300D01*
G01Y-4122000D02*
X12288000Y-4111300D01*
X12276000Y-4106000D01*
X12262000Y-4103300D01*
X12248000Y-4108700D01*
X12236000Y-4119300D01*
X12228000Y-4135300D01*
X12224000Y-4156700D01*
X12228000Y-4178000D01*
X12236000Y-4194000D01*
X12248000Y-4204700D01*
X12262000Y-4210000D01*
X12276000Y-4207300D01*
X12288000Y-4199300D01*
X12296000Y-4188700D01*
G01X12371000Y-4210000D02*
Y-4103300D01*
G01Y-4130000D02*
X12379000Y-4116700D01*
X12391000Y-4106000D01*
X12407000Y-4103300D01*
X12421000Y-4106000D01*
X12433000Y-4116700D01*
X12439000Y-4135300D01*
Y-4210000D01*
G01X12520000Y-4191300D02*
X12530000Y-4202000D01*
X12544000Y-4210000D01*
X12556000D01*
X12568000Y-4204700D01*
X12576000Y-4196700D01*
X12580000Y-4186000D01*
X12578000Y-4170000D01*
X12570000Y-4162000D01*
X12534000Y-4146000D01*
X12526000Y-4127300D01*
X12530000Y-4114000D01*
X12538000Y-4106000D01*
X12550000Y-4103300D01*
X12562000Y-4106000D01*
X12574000Y-4114000D01*
G01X12691000Y-4239300D02*
X12699000Y-4204700D01*
G01X12945000Y-4178000D02*
X12955000Y-4194000D01*
X12967000Y-4204700D01*
X12981000Y-4210000D01*
X12997000Y-4204700D01*
X13009000Y-4194000D01*
X13021000Y-4178000D01*
X13025000Y-4156700D01*
Y-4050000D01*
G01X13096000Y-4103300D02*
Y-4178000D01*
X13104000Y-4196700D01*
X13116000Y-4207300D01*
X13130000Y-4210000D01*
X13144000Y-4207300D01*
X13156000Y-4196700D01*
X13164000Y-4178000D01*
G01Y-4210000D02*
Y-4103300D01*
G01X13275000Y-4210000D02*
Y-4050000D01*
G01X13378000Y-4258000D02*
X13390000Y-4263300D01*
X13406000Y-4258000D01*
X13416000Y-4247300D01*
X13424000Y-4234000D01*
X13436000Y-4191300D01*
X13462000Y-4103300D01*
G01X13398000D02*
X13436000Y-4191300D01*
G01X13672000Y-4076700D02*
X13684000Y-4060700D01*
X13698000Y-4052700D01*
X13714000Y-4050000D01*
X13734000Y-4055300D01*
X13748000Y-4068700D01*
X13752000Y-4084700D01*
X13750000Y-4100700D01*
X13742000Y-4114000D01*
X13702000Y-4140700D01*
X13684000Y-4159300D01*
X13672000Y-4186000D01*
X13668000Y-4210000D01*
X13752000D01*
G01X13855000Y-4050000D02*
X13839000Y-4055300D01*
X13827000Y-4068700D01*
X13819000Y-4084700D01*
X13813000Y-4106000D01*
X13811000Y-4130000D01*
X13813000Y-4154000D01*
X13819000Y-4175300D01*
X13827000Y-4191300D01*
X13839000Y-4204700D01*
X13855000Y-4210000D01*
X13871000Y-4204700D01*
X13883000Y-4191300D01*
X13891000Y-4175300D01*
X13897000Y-4154000D01*
X13899000Y-4130000D01*
X13897000Y-4106000D01*
X13891000Y-4084700D01*
X13883000Y-4068700D01*
X13871000Y-4055300D01*
X13855000Y-4050000D01*
G01X13962000Y-4076700D02*
X13974000Y-4060700D01*
X13988000Y-4052700D01*
X14004000Y-4050000D01*
X14024000Y-4055300D01*
X14038000Y-4068700D01*
X14042000Y-4084700D01*
X14040000Y-4100700D01*
X14032000Y-4114000D01*
X13992000Y-4140700D01*
X13974000Y-4159300D01*
X13962000Y-4186000D01*
X13958000Y-4210000D01*
X14042000D01*
G01X14101000Y-4178000D02*
X14113000Y-4196700D01*
X14129000Y-4207300D01*
X14147000Y-4210000D01*
X14163000Y-4207300D01*
X14179000Y-4194000D01*
X14189000Y-4178000D01*
X14191000Y-4162000D01*
X14187000Y-4143300D01*
X14173000Y-4130000D01*
X14159000Y-4124700D01*
X14141000D01*
G01X14159000D02*
X14171000Y-4116700D01*
X14181000Y-4103300D01*
X14185000Y-4087300D01*
X14181000Y-4071300D01*
X14171000Y-4058000D01*
X14153000Y-4050000D01*
X14135000Y-4052700D01*
X14117000Y-4063300D01*
G54D17*
G01X-3615400Y-7810800D02*
Y20865800D01*
X17009400D01*
Y-7810800D01*
X-3615400D01*
G01X-3234400Y-6972600D02*
Y20154600D01*
X16552200D01*
Y-6972600D01*
X-3234400D01*
G01X-3209000Y-6934500D02*
Y-2362500D01*
X16603000D01*
G01X-3209000Y-3124500D02*
X5935000D01*
G01X-3000800Y-5474000D02*
Y-5347000D01*
X-2939700D01*
G01X-2962200Y-5408400D02*
X-3000800D01*
G01X-2872900Y-5474000D02*
Y-5347000D01*
X-2832700D01*
X-2819800Y-5353400D01*
X-2811800Y-5361800D01*
X-2808600Y-5378800D01*
X-2811800Y-5395700D01*
X-2821400Y-5406300D01*
X-2832700Y-5412600D01*
X-2872900D01*
G01X-2832700D02*
X-2808600Y-5474000D01*
G01X-2751500D02*
X-2711300Y-5347000D01*
X-2671000Y-5474000D01*
G01X-2685500Y-5429600D02*
X-2737000D01*
G01X-2546400Y-5357600D02*
X-2556000Y-5351200D01*
X-2567300Y-5347000D01*
X-2580100D01*
X-2594600Y-5353400D01*
X-2605900Y-5363900D01*
X-2613900Y-5376600D01*
X-2620400Y-5397800D01*
X-2622000Y-5416900D01*
X-2618700Y-5435900D01*
X-2613900Y-5448600D01*
X-2604300Y-5461300D01*
X-2593000Y-5469800D01*
X-2581800Y-5474000D01*
X-2570500D01*
X-2559200Y-5469800D01*
X-2549600Y-5463400D01*
X-2541500Y-5455000D01*
G01X-2452300Y-5347000D02*
Y-5474000D01*
G01X-2489200Y-5347000D02*
X-2415300D01*
G01X-2342100D02*
X-2303500D01*
G01X-2322800D02*
Y-5474000D01*
G01X-2342100D02*
X-2303500D01*
G01X-2193300D02*
X-2206100Y-5471900D01*
X-2217400Y-5463400D01*
X-2227000Y-5450700D01*
X-2233500Y-5435900D01*
X-2236700Y-5419000D01*
Y-5402000D01*
X-2233500Y-5385100D01*
X-2227000Y-5370300D01*
X-2217400Y-5357600D01*
X-2206100Y-5349100D01*
X-2193300Y-5347000D01*
X-2180400Y-5349100D01*
X-2169100Y-5357600D01*
X-2159500Y-5370300D01*
X-2153000Y-5385100D01*
X-2149800Y-5402000D01*
Y-5419000D01*
X-2153000Y-5435900D01*
X-2159500Y-5450700D01*
X-2169100Y-5463400D01*
X-2180400Y-5471900D01*
X-2193300Y-5474000D01*
G01X-2100700D02*
Y-5347000D01*
X-2026800Y-5474000D01*
Y-5347000D01*
G01X-1968000Y-5457100D02*
X-1955200Y-5467700D01*
X-1940700Y-5474000D01*
X-1927800D01*
X-1914900Y-5467700D01*
X-1905300Y-5457100D01*
X-1900500Y-5442200D01*
X-1903700Y-5427400D01*
X-1911700Y-5414700D01*
X-1926200Y-5406300D01*
X-1945500Y-5402000D01*
X-1956800Y-5393600D01*
X-1961600Y-5378800D01*
X-1958400Y-5363900D01*
X-1950300Y-5353400D01*
X-1939100Y-5347000D01*
X-1927800D01*
X-1916600Y-5351200D01*
X-1906900Y-5361800D01*
G01X-1692900Y-5431700D02*
X-1654300D01*
G01X-1675300Y-5404100D02*
Y-5459200D01*
G01X-3010500Y-5093000D02*
X-2970300Y-4966000D01*
X-2930000Y-5093000D01*
G01X-2944500Y-5048600D02*
X-2996000D01*
G01X-2877700Y-5093000D02*
Y-4966000D01*
X-2803800Y-5093000D01*
Y-4966000D01*
G01X-2701600Y-5029500D02*
X-2669400D01*
Y-5067600D01*
X-2679100Y-5080300D01*
X-2690300Y-5088800D01*
X-2706400Y-5093000D01*
X-2722500Y-5088800D01*
X-2733800Y-5080300D01*
X-2743400Y-5067600D01*
X-2749900Y-5052800D01*
X-2753100Y-5035900D01*
Y-5021000D01*
X-2749900Y-5008300D01*
X-2743400Y-4993500D01*
X-2733800Y-4980800D01*
X-2724100Y-4972400D01*
X-2711300Y-4966000D01*
X-2700000D01*
X-2687100Y-4970200D01*
X-2677500Y-4978700D01*
G01X-2613900Y-4966000D02*
Y-5093000D01*
X-2549600D01*
G01X-2420100D02*
X-2484400D01*
Y-4966000D01*
X-2420100D01*
G01X-2445800Y-5027400D02*
X-2484400D01*
G01X-2356500Y-5076100D02*
X-2343700Y-5086700D01*
X-2329200Y-5093000D01*
X-2316300D01*
X-2303400Y-5086700D01*
X-2293800Y-5076100D01*
X-2289000Y-5061200D01*
X-2292200Y-5046400D01*
X-2300200Y-5033700D01*
X-2314700Y-5025300D01*
X-2334000Y-5021000D01*
X-2345300Y-5012600D01*
X-2350100Y-4997800D01*
X-2346900Y-4982900D01*
X-2338800Y-4972400D01*
X-2327600Y-4966000D01*
X-2316300D01*
X-2305100Y-4970200D01*
X-2295400Y-4980800D01*
G01X-2081400Y-5050700D02*
X-2042800D01*
G01X-2063800Y-5023100D02*
Y-5078200D01*
G01X-3005600Y-4686600D02*
X-2996000Y-4701400D01*
X-2983100Y-4709900D01*
X-2968600Y-4712000D01*
X-2955800Y-4709900D01*
X-2942900Y-4699300D01*
X-2934900Y-4686600D01*
X-2933300Y-4673900D01*
X-2936500Y-4659100D01*
X-2947700Y-4648500D01*
X-2959000Y-4644300D01*
X-2973500D01*
G01X-2959000D02*
X-2949300Y-4637900D01*
X-2941300Y-4627300D01*
X-2938100Y-4614600D01*
X-2941300Y-4601900D01*
X-2949300Y-4591400D01*
X-2963800Y-4585000D01*
X-2978300Y-4587100D01*
X-2992800Y-4595600D01*
G01X-2743400Y-4712000D02*
Y-4585000D01*
X-2704800D01*
X-2691900Y-4591400D01*
X-2682300Y-4606200D01*
X-2679100Y-4623100D01*
X-2682300Y-4640000D01*
X-2690300Y-4652700D01*
X-2704800Y-4659100D01*
X-2743400D01*
G01X-2613900Y-4585000D02*
Y-4712000D01*
X-2549600D01*
G01X-2358100D02*
Y-4585000D01*
X-2326000D01*
X-2313100Y-4591400D01*
X-2303400Y-4599800D01*
X-2295400Y-4612500D01*
X-2289000Y-4627300D01*
X-2287400Y-4648500D01*
X-2289000Y-4669700D01*
X-2295400Y-4684500D01*
X-2303400Y-4697200D01*
X-2313100Y-4705700D01*
X-2326000Y-4712000D01*
X-2358100D01*
G01X-2161100D02*
X-2225400D01*
Y-4585000D01*
X-2161100D01*
G01X-2186800Y-4646400D02*
X-2225400D01*
G01X-2028400Y-4595600D02*
X-2038000Y-4589200D01*
X-2049300Y-4585000D01*
X-2062100D01*
X-2076600Y-4591400D01*
X-2087900Y-4601900D01*
X-2095900Y-4614600D01*
X-2102400Y-4635800D01*
X-2104000Y-4654900D01*
X-2100700Y-4673900D01*
X-2095900Y-4686600D01*
X-2086300Y-4699300D01*
X-2075000Y-4707800D01*
X-2063800Y-4712000D01*
X-2052500D01*
X-2041200Y-4707800D01*
X-2031600Y-4701400D01*
X-2023500Y-4693000D01*
G01X-1953600Y-4585000D02*
X-1915000D01*
G01X-1934300D02*
Y-4712000D01*
G01X-1953600D02*
X-1915000D01*
G01X-1846600D02*
Y-4585000D01*
X-1804800Y-4690800D01*
X-1762900Y-4585000D01*
Y-4712000D01*
G01X-1715500D02*
X-1675300Y-4585000D01*
X-1635000Y-4712000D01*
G01X-1649500Y-4667600D02*
X-1701000D01*
G01X-1577900Y-4585000D02*
Y-4712000D01*
X-1513600D01*
G01X-1450000Y-4695100D02*
X-1437200Y-4705700D01*
X-1422700Y-4712000D01*
X-1409800D01*
X-1396900Y-4705700D01*
X-1387300Y-4695100D01*
X-1382500Y-4680200D01*
X-1385700Y-4665400D01*
X-1393700Y-4652700D01*
X-1408200Y-4644300D01*
X-1427500Y-4640000D01*
X-1438800Y-4631600D01*
X-1443600Y-4616800D01*
X-1440400Y-4601900D01*
X-1432300Y-4591400D01*
X-1421100Y-4585000D01*
X-1409800D01*
X-1398600Y-4589200D01*
X-1388900Y-4599800D01*
G01X-1174900Y-4669700D02*
X-1136300D01*
G01X-1157300Y-4642100D02*
Y-4697200D01*
G01X-3000800Y-4225200D02*
X-2991200Y-4212500D01*
X-2979900Y-4206100D01*
X-2967000Y-4204000D01*
X-2950900Y-4208200D01*
X-2939700Y-4218800D01*
X-2936500Y-4231500D01*
X-2938100Y-4244200D01*
X-2944500Y-4254800D01*
X-2976700Y-4276000D01*
X-2991200Y-4290800D01*
X-3000800Y-4312000D01*
X-3004000Y-4331000D01*
X-2936500D01*
G01X-2743400D02*
Y-4204000D01*
X-2704800D01*
X-2691900Y-4210400D01*
X-2682300Y-4225200D01*
X-2679100Y-4242100D01*
X-2682300Y-4259000D01*
X-2690300Y-4271700D01*
X-2704800Y-4278100D01*
X-2743400D01*
G01X-2613900Y-4204000D02*
Y-4331000D01*
X-2549600D01*
G01X-2358100D02*
Y-4204000D01*
X-2326000D01*
X-2313100Y-4210400D01*
X-2303400Y-4218800D01*
X-2295400Y-4231500D01*
X-2289000Y-4246300D01*
X-2287400Y-4267500D01*
X-2289000Y-4288700D01*
X-2295400Y-4303500D01*
X-2303400Y-4316200D01*
X-2313100Y-4324700D01*
X-2326000Y-4331000D01*
X-2358100D01*
G01X-2161100D02*
X-2225400D01*
Y-4204000D01*
X-2161100D01*
G01X-2186800Y-4265400D02*
X-2225400D01*
G01X-2028400Y-4214600D02*
X-2038000Y-4208200D01*
X-2049300Y-4204000D01*
X-2062100D01*
X-2076600Y-4210400D01*
X-2087900Y-4220900D01*
X-2095900Y-4233600D01*
X-2102400Y-4254800D01*
X-2104000Y-4273900D01*
X-2100700Y-4292900D01*
X-2095900Y-4305600D01*
X-2086300Y-4318300D01*
X-2075000Y-4326800D01*
X-2063800Y-4331000D01*
X-2052500D01*
X-2041200Y-4326800D01*
X-2031600Y-4320400D01*
X-2023500Y-4312000D01*
G01X-1953600Y-4204000D02*
X-1915000D01*
G01X-1934300D02*
Y-4331000D01*
G01X-1953600D02*
X-1915000D01*
G01X-1846600D02*
Y-4204000D01*
X-1804800Y-4309800D01*
X-1762900Y-4204000D01*
Y-4331000D01*
G01X-1715500D02*
X-1675300Y-4204000D01*
X-1635000Y-4331000D01*
G01X-1649500Y-4286600D02*
X-1701000D01*
G01X-1577900Y-4204000D02*
Y-4331000D01*
X-1513600D01*
G01X-1450000Y-4314100D02*
X-1437200Y-4324700D01*
X-1422700Y-4331000D01*
X-1409800D01*
X-1396900Y-4324700D01*
X-1387300Y-4314100D01*
X-1382500Y-4299200D01*
X-1385700Y-4284400D01*
X-1393700Y-4271700D01*
X-1408200Y-4263300D01*
X-1427500Y-4259000D01*
X-1438800Y-4250600D01*
X-1443600Y-4235800D01*
X-1440400Y-4220900D01*
X-1432300Y-4210400D01*
X-1421100Y-4204000D01*
X-1409800D01*
X-1398600Y-4208200D01*
X-1388900Y-4218800D01*
G01X-1174900Y-4288700D02*
X-1136300D01*
G01X-1157300Y-4261100D02*
Y-4316200D01*
G01X-2970300Y-3823000D02*
Y-3950000D01*
G01X-3007200Y-3823000D02*
X-2933300D01*
G01X-2840800Y-3950000D02*
X-2853600Y-3947900D01*
X-2864900Y-3939400D01*
X-2874500Y-3926700D01*
X-2881000Y-3911900D01*
X-2884200Y-3895000D01*
Y-3878000D01*
X-2881000Y-3861100D01*
X-2874500Y-3846300D01*
X-2864900Y-3833600D01*
X-2853600Y-3825100D01*
X-2840800Y-3823000D01*
X-2827900Y-3825100D01*
X-2816600Y-3833600D01*
X-2807000Y-3846300D01*
X-2800500Y-3861100D01*
X-2797300Y-3878000D01*
Y-3895000D01*
X-2800500Y-3911900D01*
X-2807000Y-3926700D01*
X-2816600Y-3939400D01*
X-2827900Y-3947900D01*
X-2840800Y-3950000D01*
G01X-2743400Y-3823000D02*
Y-3950000D01*
X-2679100D01*
G01X-2549600D02*
X-2613900D01*
Y-3823000D01*
X-2549600D01*
G01X-2575300Y-3884400D02*
X-2613900D01*
G01X-2484400Y-3950000D02*
Y-3823000D01*
X-2444200D01*
X-2431300Y-3829400D01*
X-2423300Y-3837800D01*
X-2420100Y-3854800D01*
X-2423300Y-3871700D01*
X-2432900Y-3882300D01*
X-2444200Y-3888600D01*
X-2484400D01*
G01X-2444200D02*
X-2420100Y-3950000D01*
G01X-2363000D02*
X-2322800Y-3823000D01*
X-2282500Y-3950000D01*
G01X-2297000Y-3905600D02*
X-2348500D01*
G01X-2230200Y-3950000D02*
Y-3823000D01*
X-2156300Y-3950000D01*
Y-3823000D01*
G01X-2028400Y-3833600D02*
X-2038000Y-3827200D01*
X-2049300Y-3823000D01*
X-2062100D01*
X-2076600Y-3829400D01*
X-2087900Y-3839900D01*
X-2095900Y-3852600D01*
X-2102400Y-3873800D01*
X-2104000Y-3892900D01*
X-2100700Y-3911900D01*
X-2095900Y-3924600D01*
X-2086300Y-3937300D01*
X-2075000Y-3945800D01*
X-2063800Y-3950000D01*
X-2052500D01*
X-2041200Y-3945800D01*
X-2031600Y-3939400D01*
X-2023500Y-3931000D01*
G01X-1902100Y-3950000D02*
X-1966400D01*
Y-3823000D01*
X-1902100D01*
G01X-1927800Y-3884400D02*
X-1966400D01*
G01X-1838500Y-3933100D02*
X-1825700Y-3943700D01*
X-1811200Y-3950000D01*
X-1798300D01*
X-1785400Y-3943700D01*
X-1775800Y-3933100D01*
X-1771000Y-3918200D01*
X-1774200Y-3903400D01*
X-1782200Y-3890700D01*
X-1796700Y-3882300D01*
X-1816000Y-3878000D01*
X-1827300Y-3869600D01*
X-1832100Y-3854800D01*
X-1828900Y-3839900D01*
X-1820800Y-3829400D01*
X-1809600Y-3823000D01*
X-1798300D01*
X-1787100Y-3827200D01*
X-1777400Y-3837800D01*
G01X-1545800Y-3950000D02*
X-1558600Y-3947900D01*
X-1569900Y-3939400D01*
X-1579500Y-3926700D01*
X-1586000Y-3911900D01*
X-1589200Y-3895000D01*
Y-3878000D01*
X-1586000Y-3861100D01*
X-1579500Y-3846300D01*
X-1569900Y-3833600D01*
X-1558600Y-3825100D01*
X-1545800Y-3823000D01*
X-1532900Y-3825100D01*
X-1521600Y-3833600D01*
X-1512000Y-3846300D01*
X-1505500Y-3861100D01*
X-1502300Y-3878000D01*
Y-3895000D01*
X-1505500Y-3911900D01*
X-1512000Y-3926700D01*
X-1521600Y-3939400D01*
X-1532900Y-3947900D01*
X-1545800Y-3950000D01*
G01X-1453200D02*
Y-3823000D01*
X-1379300Y-3950000D01*
Y-3823000D01*
G01X-1286800Y-3954200D02*
X-1290000Y-3952100D01*
Y-3947900D01*
X-1286800Y-3945800D01*
X-1283500Y-3947900D01*
Y-3952100D01*
X-1286800Y-3954200D01*
G01Y-3897100D02*
X-1290000Y-3895000D01*
Y-3890700D01*
X-1286800Y-3888600D01*
X-1283500Y-3890700D01*
Y-3895000D01*
X-1286800Y-3897100D01*
G01X-3005600Y-3505500D02*
Y-3378500D01*
X-2973500D01*
X-2960600Y-3384900D01*
X-2950900Y-3393300D01*
X-2942900Y-3406000D01*
X-2936500Y-3420800D01*
X-2934900Y-3442000D01*
X-2936500Y-3463200D01*
X-2942900Y-3478000D01*
X-2950900Y-3490700D01*
X-2960600Y-3499200D01*
X-2973500Y-3505500D01*
X-3005600D01*
G01X-2860100Y-3378500D02*
X-2821500D01*
G01X-2840800D02*
Y-3505500D01*
G01X-2860100D02*
X-2821500D01*
G01X-2753100D02*
Y-3378500D01*
X-2711300Y-3484300D01*
X-2669400Y-3378500D01*
Y-3505500D01*
G01X-2549600D02*
X-2613900D01*
Y-3378500D01*
X-2549600D01*
G01X-2575300Y-3439900D02*
X-2613900D01*
G01X-2489200Y-3505500D02*
Y-3378500D01*
X-2415300Y-3505500D01*
Y-3378500D01*
G01X-2356500Y-3488600D02*
X-2343700Y-3499200D01*
X-2329200Y-3505500D01*
X-2316300D01*
X-2303400Y-3499200D01*
X-2293800Y-3488600D01*
X-2289000Y-3473700D01*
X-2292200Y-3458900D01*
X-2300200Y-3446200D01*
X-2314700Y-3437800D01*
X-2334000Y-3433500D01*
X-2345300Y-3425100D01*
X-2350100Y-3410300D01*
X-2346900Y-3395400D01*
X-2338800Y-3384900D01*
X-2327600Y-3378500D01*
X-2316300D01*
X-2305100Y-3382700D01*
X-2295400Y-3393300D01*
G01X-2212600Y-3378500D02*
X-2174000D01*
G01X-2193300D02*
Y-3505500D01*
G01X-2212600D02*
X-2174000D01*
G01X-2063800D02*
X-2076600Y-3503400D01*
X-2087900Y-3494900D01*
X-2097500Y-3482200D01*
X-2104000Y-3467400D01*
X-2107200Y-3450500D01*
Y-3433500D01*
X-2104000Y-3416600D01*
X-2097500Y-3401800D01*
X-2087900Y-3389100D01*
X-2076600Y-3380600D01*
X-2063800Y-3378500D01*
X-2050900Y-3380600D01*
X-2039600Y-3389100D01*
X-2030000Y-3401800D01*
X-2023500Y-3416600D01*
X-2020300Y-3433500D01*
Y-3450500D01*
X-2023500Y-3467400D01*
X-2030000Y-3482200D01*
X-2039600Y-3494900D01*
X-2050900Y-3503400D01*
X-2063800Y-3505500D01*
G01X-1971200D02*
Y-3378500D01*
X-1897300Y-3505500D01*
Y-3378500D01*
G01X-1838500Y-3488600D02*
X-1825700Y-3499200D01*
X-1811200Y-3505500D01*
X-1798300D01*
X-1785400Y-3499200D01*
X-1775800Y-3488600D01*
X-1771000Y-3473700D01*
X-1774200Y-3458900D01*
X-1782200Y-3446200D01*
X-1796700Y-3437800D01*
X-1816000Y-3433500D01*
X-1827300Y-3425100D01*
X-1832100Y-3410300D01*
X-1828900Y-3395400D01*
X-1820800Y-3384900D01*
X-1809600Y-3378500D01*
X-1798300D01*
X-1787100Y-3382700D01*
X-1777400Y-3393300D01*
G01X-1586000Y-3505500D02*
X-1545800Y-3378500D01*
X-1505500Y-3505500D01*
G01X-1520000Y-3461100D02*
X-1571500D01*
G01X-1448400Y-3505500D02*
Y-3378500D01*
X-1408200D01*
X-1395300Y-3384900D01*
X-1387300Y-3393300D01*
X-1384100Y-3410300D01*
X-1387300Y-3427200D01*
X-1396900Y-3437800D01*
X-1408200Y-3444100D01*
X-1448400D01*
G01X-1408200D02*
X-1384100Y-3505500D01*
G01X-1254600D02*
X-1318900D01*
Y-3378500D01*
X-1254600D01*
G01X-1280300Y-3439900D02*
X-1318900D01*
G01X-1047100Y-3378500D02*
X-1008500D01*
G01X-1027800D02*
Y-3505500D01*
G01X-1047100D02*
X-1008500D01*
G01X-935200D02*
Y-3378500D01*
X-861300Y-3505500D01*
Y-3378500D01*
G01X-681100Y-3505500D02*
Y-3378500D01*
X-639300Y-3484300D01*
X-597400Y-3378500D01*
Y-3505500D01*
G01X-529100Y-3378500D02*
X-490500D01*
G01X-509800D02*
Y-3505500D01*
G01X-529100D02*
X-490500D01*
G01X-412400Y-3378500D02*
Y-3505500D01*
X-348100D01*
G01X-292600D02*
Y-3378500D01*
X-250800Y-3484300D01*
X-208900Y-3378500D01*
Y-3505500D01*
G01X-89100D02*
X-153400D01*
Y-3378500D01*
X-89100D01*
G01X-114800Y-3439900D02*
X-153400D01*
G01X8200Y-3378500D02*
Y-3505500D01*
G01X-28700Y-3378500D02*
X45200D01*
G01X105600Y-3505500D02*
Y-3378500D01*
X145800D01*
X158700Y-3384900D01*
X166700Y-3393300D01*
X169900Y-3410300D01*
X166700Y-3427200D01*
X157100Y-3437800D01*
X145800Y-3444100D01*
X105600D01*
G01X145800D02*
X169900Y-3505500D01*
G01X299400D02*
X235100D01*
Y-3378500D01*
X299400D01*
G01X273700Y-3439900D02*
X235100D01*
G01X363000Y-3488600D02*
X375800Y-3499200D01*
X390300Y-3505500D01*
X403200D01*
X416100Y-3499200D01*
X425700Y-3488600D01*
X430500Y-3473700D01*
X427300Y-3458900D01*
X419300Y-3446200D01*
X404800Y-3437800D01*
X385500Y-3433500D01*
X374200Y-3425100D01*
X369400Y-3410300D01*
X372600Y-3395400D01*
X380700Y-3384900D01*
X391900Y-3378500D01*
X403200D01*
X414400Y-3382700D01*
X424100Y-3393300D01*
G01X-3005600Y-2680000D02*
Y-2771000D01*
X-2999200Y-2790100D01*
X-2986300Y-2802800D01*
X-2970300Y-2807000D01*
X-2954200Y-2802800D01*
X-2941300Y-2790100D01*
X-2934900Y-2771000D01*
Y-2680000D01*
G01X-2877700Y-2807000D02*
Y-2680000D01*
X-2803800Y-2807000D01*
Y-2680000D01*
G01X-2743400D02*
Y-2807000D01*
X-2679100D01*
G01X-2549600D02*
X-2613900D01*
Y-2680000D01*
X-2549600D01*
G01X-2575300Y-2741400D02*
X-2613900D01*
G01X-2486000Y-2790100D02*
X-2473200Y-2800700D01*
X-2458700Y-2807000D01*
X-2445800D01*
X-2432900Y-2800700D01*
X-2423300Y-2790100D01*
X-2418500Y-2775200D01*
X-2421700Y-2760400D01*
X-2429700Y-2747700D01*
X-2444200Y-2739300D01*
X-2463500Y-2735000D01*
X-2474800Y-2726600D01*
X-2479600Y-2711800D01*
X-2476400Y-2696900D01*
X-2468300Y-2686400D01*
X-2457100Y-2680000D01*
X-2445800D01*
X-2434600Y-2684200D01*
X-2424900Y-2694800D01*
G01X-2356500Y-2790100D02*
X-2343700Y-2800700D01*
X-2329200Y-2807000D01*
X-2316300D01*
X-2303400Y-2800700D01*
X-2293800Y-2790100D01*
X-2289000Y-2775200D01*
X-2292200Y-2760400D01*
X-2300200Y-2747700D01*
X-2314700Y-2739300D01*
X-2334000Y-2735000D01*
X-2345300Y-2726600D01*
X-2350100Y-2711800D01*
X-2346900Y-2696900D01*
X-2338800Y-2686400D01*
X-2327600Y-2680000D01*
X-2316300D01*
X-2305100Y-2684200D01*
X-2295400Y-2694800D01*
G01X-2063800Y-2807000D02*
X-2076600Y-2804900D01*
X-2087900Y-2796400D01*
X-2097500Y-2783700D01*
X-2104000Y-2768900D01*
X-2107200Y-2752000D01*
Y-2735000D01*
X-2104000Y-2718100D01*
X-2097500Y-2703300D01*
X-2087900Y-2690600D01*
X-2076600Y-2682100D01*
X-2063800Y-2680000D01*
X-2050900Y-2682100D01*
X-2039600Y-2690600D01*
X-2030000Y-2703300D01*
X-2023500Y-2718100D01*
X-2020300Y-2735000D01*
Y-2752000D01*
X-2023500Y-2768900D01*
X-2030000Y-2783700D01*
X-2039600Y-2796400D01*
X-2050900Y-2804900D01*
X-2063800Y-2807000D01*
G01X-1934300Y-2680000D02*
Y-2807000D01*
G01X-1971200Y-2680000D02*
X-1897300D01*
G01X-1838500Y-2807000D02*
Y-2680000D01*
G01X-1771000D02*
Y-2807000D01*
G01Y-2743500D02*
X-1838500D01*
G01X-1643100Y-2807000D02*
X-1707400D01*
Y-2680000D01*
X-1643100D01*
G01X-1668800Y-2741400D02*
X-1707400D01*
G01X-1577900Y-2807000D02*
Y-2680000D01*
X-1537700D01*
X-1524800Y-2686400D01*
X-1516800Y-2694800D01*
X-1513600Y-2711800D01*
X-1516800Y-2728700D01*
X-1526400Y-2739300D01*
X-1537700Y-2745600D01*
X-1577900D01*
G01X-1537700D02*
X-1513600Y-2807000D01*
G01X-1464500Y-2680000D02*
X-1442000Y-2807000D01*
X-1416300Y-2680000D01*
X-1390500Y-2807000D01*
X-1368000Y-2680000D01*
G01X-1306100D02*
X-1267500D01*
G01X-1286800D02*
Y-2807000D01*
G01X-1306100D02*
X-1267500D01*
G01X-1191000Y-2790100D02*
X-1178200Y-2800700D01*
X-1163700Y-2807000D01*
X-1150800D01*
X-1137900Y-2800700D01*
X-1128300Y-2790100D01*
X-1123500Y-2775200D01*
X-1126700Y-2760400D01*
X-1134700Y-2747700D01*
X-1149200Y-2739300D01*
X-1168500Y-2735000D01*
X-1179800Y-2726600D01*
X-1184600Y-2711800D01*
X-1181400Y-2696900D01*
X-1173300Y-2686400D01*
X-1162100Y-2680000D01*
X-1150800D01*
X-1139600Y-2684200D01*
X-1129900Y-2694800D01*
G01X-995600Y-2807000D02*
X-1059900D01*
Y-2680000D01*
X-995600D01*
G01X-1021300Y-2741400D02*
X-1059900D01*
G01X-802500Y-2790100D02*
X-789700Y-2800700D01*
X-775200Y-2807000D01*
X-762300D01*
X-749400Y-2800700D01*
X-739800Y-2790100D01*
X-735000Y-2775200D01*
X-738200Y-2760400D01*
X-746200Y-2747700D01*
X-760700Y-2739300D01*
X-780000Y-2735000D01*
X-791300Y-2726600D01*
X-796100Y-2711800D01*
X-792900Y-2696900D01*
X-784800Y-2686400D01*
X-773600Y-2680000D01*
X-762300D01*
X-751100Y-2684200D01*
X-741400Y-2694800D01*
G01X-671400Y-2807000D02*
Y-2680000D01*
X-632800D01*
X-619900Y-2686400D01*
X-610300Y-2701200D01*
X-607100Y-2718100D01*
X-610300Y-2735000D01*
X-618300Y-2747700D01*
X-632800Y-2754100D01*
X-671400D01*
G01X-477600Y-2807000D02*
X-541900D01*
Y-2680000D01*
X-477600D01*
G01X-503300Y-2741400D02*
X-541900D01*
G01X-344900Y-2690600D02*
X-354500Y-2684200D01*
X-365800Y-2680000D01*
X-378600D01*
X-393100Y-2686400D01*
X-404400Y-2696900D01*
X-412400Y-2709600D01*
X-418900Y-2730800D01*
X-420500Y-2749900D01*
X-417200Y-2768900D01*
X-412400Y-2781600D01*
X-402800Y-2794300D01*
X-391500Y-2802800D01*
X-380300Y-2807000D01*
X-369000D01*
X-357700Y-2802800D01*
X-348100Y-2796400D01*
X-340000Y-2788000D01*
G01X-270100Y-2680000D02*
X-231500D01*
G01X-250800D02*
Y-2807000D01*
G01X-270100D02*
X-231500D01*
G01X-151800D02*
Y-2680000D01*
X-90700D01*
G01X-113200Y-2741400D02*
X-151800D01*
G01X-11100Y-2680000D02*
X27500D01*
G01X8200D02*
Y-2807000D01*
G01X-11100D02*
X27500D01*
G01X169900D02*
X105600D01*
Y-2680000D01*
X169900D01*
G01X144200Y-2741400D02*
X105600D01*
G01X231900Y-2807000D02*
Y-2680000D01*
X264000D01*
X276900Y-2686400D01*
X286600Y-2694800D01*
X294600Y-2707500D01*
X301000Y-2722300D01*
X302600Y-2743500D01*
X301000Y-2764700D01*
X294600Y-2779500D01*
X286600Y-2792200D01*
X276900Y-2800700D01*
X264000Y-2807000D01*
X231900D01*
G01X0Y0D02*
X13900000D01*
Y5420000D01*
X13740000D01*
G02X13640000Y5520000I0J100000D01*
G01Y6500000D01*
X13530000D01*
G02X13430000Y6600000I0J100000D01*
G01Y7650000D01*
X330000D01*
Y5040000D01*
G02X230000Y4940000I-100000J0D01*
G01X0D01*
Y0D01*
G01X601000Y-2362500D02*
Y-6934500D01*
G01Y-6045500D02*
X5935000D01*
G01X601000Y-5410500D02*
X5935000D01*
G01X601000Y-4648500D02*
X5935000D01*
G01X601000Y-3886500D02*
X5935000D01*
G01X3903000Y-5347000D02*
Y-5410500D01*
G01Y-5347000D02*
Y-2362500D01*
G01X3839500Y17767000D02*
Y17005000D01*
G01Y20053000D02*
Y17767000D01*
G01Y18529000D02*
X16539500D01*
G01X3839500Y19291000D02*
X16539500D01*
G01X4855500Y17767000D02*
Y17005000D01*
G01Y17767000D02*
Y19291000D01*
G01X5935000Y-2362500D02*
Y-6934500D01*
G01X12285000Y-6172500D02*
X5935000D01*
G01X16603000Y-5156500D02*
X5935000D01*
G01X16603000Y-3632500D02*
X5935000D01*
G01X7205000Y-6172500D02*
Y-5156500D01*
G01X8221000Y-6172500D02*
Y-6934500D01*
G01X10253000Y-6172500D02*
Y-5156500D01*
G01X11713500Y17767000D02*
Y17005000D01*
G01Y17513000D02*
Y18529000D01*
G01D02*
Y19291000D01*
G01X12285000Y-6934500D02*
Y-6172500D01*
X16603000D01*
G01X13999500Y17767000D02*
Y17005000D01*
G01Y17767000D02*
Y18529000D01*
G01D02*
Y19291000D01*
G01X16539500Y19926000D02*
Y16878000D01*
G54D18*
G01X1698400Y-2785700D02*
X1714300Y-2799000D01*
X1732200Y-2807000D01*
X1748200D01*
X1764100Y-2799000D01*
X1776000Y-2785700D01*
X1782000Y-2767000D01*
X1778000Y-2748300D01*
X1768100Y-2732300D01*
X1750100Y-2721700D01*
X1726300Y-2716300D01*
X1712300Y-2705700D01*
X1706400Y-2687000D01*
X1710400Y-2668300D01*
X1720300Y-2655000D01*
X1734200Y-2647000D01*
X1748200D01*
X1762100Y-2652300D01*
X1774000Y-2665700D01*
G01X1876300Y-2647000D02*
X1924100D01*
G01X1900200D02*
Y-2807000D01*
G01X1876300D02*
X1924100D01*
G01X2072100Y-2727000D02*
X2111900D01*
Y-2775000D01*
X2100000Y-2791000D01*
X2086100Y-2801700D01*
X2066200Y-2807000D01*
X2046300Y-2801700D01*
X2032300Y-2791000D01*
X2020400Y-2775000D01*
X2012400Y-2756300D01*
X2008500Y-2735000D01*
Y-2716300D01*
X2012400Y-2700300D01*
X2020400Y-2681700D01*
X2032300Y-2665700D01*
X2044300Y-2655000D01*
X2060200Y-2647000D01*
X2074100D01*
X2090000Y-2652300D01*
X2102000Y-2663000D01*
G01X2174400Y-2807000D02*
Y-2647000D01*
X2266000Y-2807000D01*
Y-2647000D01*
G01X2330400Y-2807000D02*
X2380200Y-2647000D01*
X2430000Y-2807000D01*
G01X2412000Y-2751000D02*
X2348400D01*
G01X2540200Y-2647000D02*
Y-2807000D01*
G01X2494400Y-2647000D02*
X2586000D01*
G01X2656400D02*
Y-2761700D01*
X2664400Y-2785700D01*
X2680300Y-2801700D01*
X2700200Y-2807000D01*
X2720100Y-2801700D01*
X2736000Y-2785700D01*
X2744000Y-2761700D01*
Y-2647000D01*
G01X2820400Y-2807000D02*
Y-2647000D01*
X2870100D01*
X2886100Y-2655000D01*
X2896000Y-2665700D01*
X2900000Y-2687000D01*
X2896000Y-2708300D01*
X2884100Y-2721700D01*
X2870100Y-2729700D01*
X2820400D01*
G01X2870100D02*
X2900000Y-2807000D01*
G01X3060000D02*
X2980400D01*
Y-2647000D01*
X3060000D01*
G01X3028200Y-2724300D02*
X2980400D01*
G01X3138400Y-2785700D02*
X3154300Y-2799000D01*
X3172200Y-2807000D01*
X3188200D01*
X3204100Y-2799000D01*
X3216000Y-2785700D01*
X3222000Y-2767000D01*
X3218000Y-2748300D01*
X3208100Y-2732300D01*
X3190100Y-2721700D01*
X3166300Y-2716300D01*
X3152300Y-2705700D01*
X3146400Y-2687000D01*
X3150400Y-2668300D01*
X3160300Y-2655000D01*
X3174200Y-2647000D01*
X3188200D01*
X3202100Y-2652300D01*
X3214000Y-2665700D01*
G01X4553900Y-2807000D02*
Y-2647000D01*
X4593700D01*
X4609600Y-2655000D01*
X4621600Y-2665700D01*
X4631500Y-2681700D01*
X4639500Y-2700300D01*
X4641500Y-2727000D01*
X4639500Y-2753700D01*
X4631500Y-2772300D01*
X4621600Y-2788300D01*
X4609600Y-2799000D01*
X4593700Y-2807000D01*
X4553900D01*
G01X4707900D02*
X4757700Y-2647000D01*
X4807500Y-2807000D01*
G01X4789500Y-2751000D02*
X4725900D01*
G01X4917700Y-2647000D02*
Y-2807000D01*
G01X4871900Y-2647000D02*
X4963500D01*
G01X5117500Y-2807000D02*
X5037900D01*
Y-2647000D01*
X5117500D01*
G01X5085700Y-2724300D02*
X5037900D01*
G54D19*
G01X3998200Y18783000D02*
Y19037000D01*
X4077600D01*
X4103000Y19024300D01*
X4118900Y19007400D01*
X4125300Y18973500D01*
X4118900Y18939600D01*
X4099900Y18918500D01*
X4077600Y18905800D01*
X3998200D01*
G01X4077600D02*
X4125300Y18783000D01*
G01X4379300D02*
X4252200D01*
Y19037000D01*
X4379300D01*
G01X4328500Y18914200D02*
X4252200D01*
G01X4490400Y19037000D02*
X4569700Y18783000D01*
X4649100Y19037000D01*
G01X6090600Y-6519600D02*
X6116000Y-6540800D01*
X6144500Y-6553500D01*
X6170000D01*
X6195400Y-6540800D01*
X6214400Y-6519600D01*
X6223900Y-6490000D01*
X6217600Y-6460400D01*
X6201700Y-6435000D01*
X6173100Y-6418000D01*
X6135000Y-6409600D01*
X6112800Y-6392600D01*
X6103300Y-6363000D01*
X6109600Y-6333400D01*
X6125500Y-6312200D01*
X6147700Y-6299500D01*
X6170000D01*
X6192200Y-6308000D01*
X6211200Y-6329100D01*
G01X6481100Y-6320700D02*
X6462000Y-6308000D01*
X6439800Y-6299500D01*
X6414400D01*
X6385800Y-6312200D01*
X6363600Y-6333400D01*
X6347700Y-6358800D01*
X6335000Y-6401100D01*
X6331900Y-6439200D01*
X6338200Y-6477300D01*
X6347700Y-6502700D01*
X6366800Y-6528100D01*
X6389000Y-6545000D01*
X6411200Y-6553500D01*
X6433500D01*
X6455700Y-6545000D01*
X6474800Y-6532300D01*
X6490600Y-6515400D01*
G01X6585900Y-6553500D02*
X6665200Y-6299500D01*
X6744600Y-6553500D01*
G01X6716000Y-6464600D02*
X6614400D01*
G01X6855700Y-6299500D02*
Y-6553500D01*
X6982800D01*
G01X7236800D02*
X7109700D01*
Y-6299500D01*
X7236800D01*
G01X7186000Y-6422300D02*
X7109700D01*
G01X6090600Y-5503600D02*
X6116000Y-5524800D01*
X6144500Y-5537500D01*
X6170000D01*
X6195400Y-5524800D01*
X6214400Y-5503600D01*
X6223900Y-5474000D01*
X6217600Y-5444400D01*
X6201700Y-5419000D01*
X6173100Y-5402000D01*
X6135000Y-5393600D01*
X6112800Y-5376600D01*
X6103300Y-5347000D01*
X6109600Y-5317400D01*
X6125500Y-5296200D01*
X6147700Y-5283500D01*
X6170000D01*
X6192200Y-5292000D01*
X6211200Y-5313100D01*
G01X6373100Y-5283500D02*
X6449300D01*
G01X6411200D02*
Y-5537500D01*
G01X6373100D02*
X6449300D01*
G01X6604900Y-5283500D02*
X6725600D01*
X6604900Y-5537500D01*
X6725600D01*
G01X6982800D02*
X6855700D01*
Y-5283500D01*
X6982800D01*
G01X6932000Y-5406300D02*
X6855700D01*
G01X6658900Y18783000D02*
Y19037000D01*
X6722400D01*
X6747800Y19024300D01*
X6766900Y19007400D01*
X6782700Y18982000D01*
X6795400Y18952300D01*
X6798600Y18910000D01*
X6795400Y18867700D01*
X6782700Y18838000D01*
X6766900Y18812600D01*
X6747800Y18795700D01*
X6722400Y18783000D01*
X6658900D01*
G01X7046300D02*
X6919200D01*
Y19037000D01*
X7046300D01*
G01X6995500Y18914200D02*
X6919200D01*
G01X7170100Y18816900D02*
X7195500Y18795700D01*
X7224000Y18783000D01*
X7249500D01*
X7274900Y18795700D01*
X7293900Y18816900D01*
X7303400Y18846500D01*
X7297100Y18876100D01*
X7281200Y18901500D01*
X7252600Y18918500D01*
X7214500Y18926900D01*
X7192300Y18943900D01*
X7182800Y18973500D01*
X7189100Y19003100D01*
X7205000Y19024300D01*
X7227200Y19037000D01*
X7249500D01*
X7271700Y19028500D01*
X7290700Y19007400D01*
G01X7560600Y19015800D02*
X7541500Y19028500D01*
X7519300Y19037000D01*
X7493900D01*
X7465300Y19024300D01*
X7443100Y19003100D01*
X7427200Y18977700D01*
X7414500Y18935400D01*
X7411400Y18897300D01*
X7417700Y18859200D01*
X7427200Y18833800D01*
X7446300Y18808400D01*
X7468500Y18791500D01*
X7490700Y18783000D01*
X7513000D01*
X7535200Y18791500D01*
X7554300Y18804200D01*
X7570100Y18821100D01*
G01X7681200Y18783000D02*
Y19037000D01*
X7760600D01*
X7786000Y19024300D01*
X7801900Y19007400D01*
X7808300Y18973500D01*
X7801900Y18939600D01*
X7782900Y18918500D01*
X7760600Y18905800D01*
X7681200D01*
G01X7760600D02*
X7808300Y18783000D01*
G01X7960600Y19037000D02*
X8036800D01*
G01X7998700D02*
Y18783000D01*
G01X7960600D02*
X8036800D01*
G01X8189200D02*
Y19037000D01*
X8265500D01*
X8290900Y19024300D01*
X8309900Y18994700D01*
X8316300Y18960800D01*
X8309900Y18926900D01*
X8294000Y18901500D01*
X8265500Y18888800D01*
X8189200D01*
G01X8506700Y19037000D02*
Y18783000D01*
G01X8433700Y19037000D02*
X8579800D01*
G01X8722600D02*
X8798800D01*
G01X8760700D02*
Y18783000D01*
G01X8722600D02*
X8798800D01*
G01X9014700D02*
X8989300Y18787200D01*
X8967100Y18804200D01*
X8948100Y18829600D01*
X8935400Y18859200D01*
X8929000Y18893100D01*
Y18926900D01*
X8935400Y18960800D01*
X8948100Y18990400D01*
X8967100Y19015800D01*
X8989300Y19032800D01*
X9014700Y19037000D01*
X9040100Y19032800D01*
X9062400Y19015800D01*
X9081400Y18990400D01*
X9094100Y18960800D01*
X9100500Y18926900D01*
Y18893100D01*
X9094100Y18859200D01*
X9081400Y18829600D01*
X9062400Y18804200D01*
X9040100Y18787200D01*
X9014700Y18783000D01*
G01X9195700D02*
Y19037000D01*
X9341800Y18783000D01*
Y19037000D01*
G01X7493900Y-5537500D02*
Y-5283500D01*
X7614600D01*
G01X7570100Y-5406300D02*
X7493900D01*
G01X7741600Y-5503600D02*
X7767000Y-5524800D01*
X7795500Y-5537500D01*
X7821000D01*
X7846400Y-5524800D01*
X7865400Y-5503600D01*
X7874900Y-5474000D01*
X7868600Y-5444400D01*
X7852700Y-5419000D01*
X7824100Y-5402000D01*
X7786000Y-5393600D01*
X7763800Y-5376600D01*
X7754300Y-5347000D01*
X7760600Y-5317400D01*
X7776500Y-5296200D01*
X7798700Y-5283500D01*
X7821000D01*
X7843200Y-5292000D01*
X7862200Y-5313100D01*
G01X8132100Y-5304700D02*
X8113000Y-5292000D01*
X8090800Y-5283500D01*
X8065400D01*
X8036800Y-5296200D01*
X8014600Y-5317400D01*
X7998700Y-5342800D01*
X7986000Y-5385100D01*
X7982900Y-5423200D01*
X7989200Y-5461300D01*
X7998700Y-5486700D01*
X8017800Y-5512100D01*
X8040000Y-5529000D01*
X8062200Y-5537500D01*
X8084500D01*
X8106700Y-5529000D01*
X8125800Y-5516300D01*
X8141600Y-5499400D01*
G01X8233700Y-5537500D02*
Y-5283500D01*
X8316200Y-5495200D01*
X8398800Y-5283500D01*
Y-5537500D01*
G01X8751200D02*
Y-5283500D01*
X8897300Y-5537500D01*
Y-5283500D01*
G01X9078200Y-5537500D02*
X9052800Y-5533300D01*
X9030600Y-5516300D01*
X9011600Y-5490900D01*
X8998900Y-5461300D01*
X8992500Y-5427400D01*
Y-5393600D01*
X8998900Y-5359700D01*
X9011600Y-5330100D01*
X9030600Y-5304700D01*
X9052800Y-5287700D01*
X9078200Y-5283500D01*
X9103600Y-5287700D01*
X9125900Y-5304700D01*
X9144900Y-5330100D01*
X9157600Y-5359700D01*
X9164000Y-5393600D01*
Y-5427400D01*
X9157600Y-5461300D01*
X9144900Y-5490900D01*
X9125900Y-5516300D01*
X9103600Y-5533300D01*
X9078200Y-5537500D01*
G01X7738400Y-2870500D02*
Y-3052500D01*
X7751100Y-3090600D01*
X7776500Y-3116000D01*
X7808200Y-3124500D01*
X7840000Y-3116000D01*
X7865400Y-3090600D01*
X7878100Y-3052500D01*
Y-2870500D01*
G01X8008300Y-3124500D02*
Y-2955200D01*
G01Y-2997500D02*
X8021000Y-2976300D01*
X8040000Y-2959400D01*
X8065400Y-2955200D01*
X8087600Y-2959400D01*
X8106700Y-2976300D01*
X8116200Y-3006000D01*
Y-3124500D01*
G01X8316200Y-2955200D02*
Y-3124500D01*
G01Y-2887400D02*
X8309900Y-2883200D01*
Y-2874700D01*
X8316200Y-2870500D01*
X8322600Y-2874700D01*
Y-2883200D01*
X8316200Y-2887400D01*
G01X8513100Y-2955200D02*
X8570200Y-3124500D01*
X8627400Y-2955200D01*
G01X8776600Y-3010200D02*
X8878200D01*
X8868700Y-2980600D01*
X8852800Y-2963600D01*
X8830600Y-2955200D01*
X8808400Y-2959400D01*
X8789300Y-2972100D01*
X8776600Y-3001700D01*
X8770300Y-3027100D01*
Y-3052500D01*
X8776600Y-3077900D01*
X8792500Y-3103300D01*
X8811500Y-3120300D01*
X8833800Y-3124500D01*
X8856000Y-3116000D01*
X8878200Y-3090600D01*
G01X9033800Y-3124500D02*
Y-2955200D01*
G01Y-2989000D02*
X9049700Y-2972100D01*
X9065500Y-2959400D01*
X9087800Y-2955200D01*
X9103600Y-2959400D01*
X9122700Y-2972100D01*
G01X9284600Y-3094900D02*
X9300500Y-3111800D01*
X9322700Y-3124500D01*
X9341800D01*
X9360800Y-3116000D01*
X9373500Y-3103300D01*
X9379900Y-3086400D01*
X9376700Y-3061000D01*
X9364000Y-3048300D01*
X9306800Y-3022900D01*
X9294100Y-2993300D01*
X9300500Y-2972100D01*
X9313200Y-2959400D01*
X9332200Y-2955200D01*
X9351300Y-2959400D01*
X9370400Y-2972100D01*
G01X9586200Y-2955200D02*
Y-3124500D01*
G01Y-2887400D02*
X9579900Y-2883200D01*
Y-2874700D01*
X9586200Y-2870500D01*
X9592600Y-2874700D01*
Y-2883200D01*
X9586200Y-2887400D01*
G01X9840200Y-2870500D02*
Y-3124500D01*
G01X9795800Y-2955200D02*
X9884700D01*
G01X10027600Y-3200700D02*
X10046600Y-3209200D01*
X10072000Y-3200700D01*
X10087900Y-3183800D01*
X10100600Y-3162600D01*
X10119600Y-3094900D01*
X10160900Y-2955200D01*
G01X10059300D02*
X10119600Y-3094900D01*
G01X10602200Y-3124500D02*
X10583200Y-3120300D01*
X10564100Y-3103300D01*
X10551400Y-3073700D01*
X10545100Y-3039800D01*
X10551400Y-3006000D01*
X10564100Y-2976300D01*
X10583200Y-2959400D01*
X10602200Y-2955200D01*
X10621300Y-2959400D01*
X10640400Y-2976300D01*
X10653000Y-3006000D01*
X10656200Y-3039800D01*
X10653000Y-3073700D01*
X10640400Y-3103300D01*
X10621300Y-3120300D01*
X10602200Y-3124500D01*
G01X10837200D02*
Y-2908600D01*
X10843500Y-2887400D01*
X10856200Y-2874700D01*
X10875300Y-2870500D01*
X10894400Y-2879000D01*
X10903900Y-2900100D01*
G01X10865800Y-2972100D02*
X10802300D01*
G01X11389600Y-2989000D02*
X11402400Y-2976300D01*
X11411900Y-2955200D01*
X11418200Y-2925500D01*
X11411900Y-2900100D01*
X11399200Y-2883200D01*
X11377000Y-2870500D01*
X11291200D01*
Y-3124500D01*
X11396000D01*
X11418200Y-3107600D01*
X11430900Y-3082200D01*
X11437300Y-3052500D01*
X11430900Y-3022900D01*
X11411900Y-2997500D01*
X11389600Y-2989000D01*
X11291200D01*
G01X11573800Y-3124500D02*
Y-2955200D01*
G01Y-2989000D02*
X11589700Y-2972100D01*
X11605500Y-2959400D01*
X11627800Y-2955200D01*
X11643600Y-2959400D01*
X11662700Y-2972100D01*
G01X11872200Y-2955200D02*
Y-3124500D01*
G01Y-2887400D02*
X11865900Y-2883200D01*
Y-2874700D01*
X11872200Y-2870500D01*
X11878600Y-2874700D01*
Y-2883200D01*
X11872200Y-2887400D01*
G01X12078600Y-3094900D02*
X12094500Y-3111800D01*
X12116700Y-3124500D01*
X12135800D01*
X12154800Y-3116000D01*
X12167500Y-3103300D01*
X12173900Y-3086400D01*
X12170700Y-3061000D01*
X12158000Y-3048300D01*
X12100800Y-3022900D01*
X12088100Y-2993300D01*
X12094500Y-2972100D01*
X12107200Y-2959400D01*
X12126200Y-2955200D01*
X12145300Y-2959400D01*
X12164400Y-2972100D01*
G01X12380200Y-2870500D02*
Y-3124500D01*
G01X12335800Y-2955200D02*
X12424700D01*
G01X12634200Y-3124500D02*
X12615200Y-3120300D01*
X12596100Y-3103300D01*
X12583400Y-3073700D01*
X12577100Y-3039800D01*
X12583400Y-3006000D01*
X12596100Y-2976300D01*
X12615200Y-2959400D01*
X12634200Y-2955200D01*
X12653300Y-2959400D01*
X12672400Y-2976300D01*
X12685000Y-3006000D01*
X12688200Y-3039800D01*
X12685000Y-3073700D01*
X12672400Y-3103300D01*
X12653300Y-3120300D01*
X12634200Y-3124500D01*
G01X12888200D02*
Y-2870500D01*
G01X13329600Y-3124500D02*
Y-2870500D01*
G01X13462900D02*
Y-3124500D01*
G01Y-2997500D02*
X13329600D01*
G01X13713800Y-3124500D02*
X13586700D01*
Y-2870500D01*
X13713800D01*
G01X13663000Y-2993300D02*
X13586700D01*
G01X13840700Y-3124500D02*
Y-2870500D01*
X13917000D01*
X13942400Y-2883200D01*
X13961400Y-2912800D01*
X13967800Y-2946700D01*
X13961400Y-2980600D01*
X13945500Y-3006000D01*
X13917000Y-3018700D01*
X13840700D01*
G01X9332200Y19545000D02*
Y19799000D01*
X9411600D01*
X9437000Y19786300D01*
X9452900Y19769400D01*
X9459300Y19735500D01*
X9452900Y19701600D01*
X9433900Y19680500D01*
X9411600Y19667800D01*
X9332200D01*
G01X9411600D02*
X9459300Y19545000D01*
G01X9713300D02*
X9586200D01*
Y19799000D01*
X9713300D01*
G01X9662500Y19676200D02*
X9586200D01*
G01X9824400Y19799000D02*
X9903700Y19545000D01*
X9983100Y19799000D01*
G01X10119600D02*
X10195800D01*
G01X10157700D02*
Y19545000D01*
G01X10119600D02*
X10195800D01*
G01X10345100Y19578900D02*
X10370500Y19557700D01*
X10399000Y19545000D01*
X10424500D01*
X10449900Y19557700D01*
X10468900Y19578900D01*
X10478400Y19608500D01*
X10472100Y19638100D01*
X10456200Y19663500D01*
X10427600Y19680500D01*
X10389500Y19688900D01*
X10367300Y19705900D01*
X10357800Y19735500D01*
X10364100Y19765100D01*
X10380000Y19786300D01*
X10402200Y19799000D01*
X10424500D01*
X10446700Y19790500D01*
X10465700Y19769400D01*
G01X10627600Y19799000D02*
X10703800D01*
G01X10665700D02*
Y19545000D01*
G01X10627600D02*
X10703800D01*
G01X10919700D02*
X10894300Y19549200D01*
X10872100Y19566200D01*
X10853100Y19591600D01*
X10840400Y19621200D01*
X10834000Y19655100D01*
Y19688900D01*
X10840400Y19722800D01*
X10853100Y19752400D01*
X10872100Y19777800D01*
X10894300Y19794800D01*
X10919700Y19799000D01*
X10945100Y19794800D01*
X10967400Y19777800D01*
X10986400Y19752400D01*
X10999100Y19722800D01*
X11005500Y19688900D01*
Y19655100D01*
X10999100Y19621200D01*
X10986400Y19591600D01*
X10967400Y19566200D01*
X10945100Y19549200D01*
X10919700Y19545000D01*
G01X11100700D02*
Y19799000D01*
X11246800Y19545000D01*
Y19799000D01*
G01X11361100Y19578900D02*
X11386500Y19557700D01*
X11415000Y19545000D01*
X11440500D01*
X11465900Y19557700D01*
X11484900Y19578900D01*
X11494400Y19608500D01*
X11488100Y19638100D01*
X11472200Y19663500D01*
X11443600Y19680500D01*
X11405500Y19688900D01*
X11383300Y19705900D01*
X11373800Y19735500D01*
X11380100Y19765100D01*
X11396000Y19786300D01*
X11418200Y19799000D01*
X11440500D01*
X11462700Y19790500D01*
X11481700Y19769400D01*
G01X10532400Y-5537500D02*
Y-5283500D01*
X10595900D01*
X10621300Y-5296200D01*
X10640400Y-5313100D01*
X10656200Y-5338500D01*
X10668900Y-5368200D01*
X10672100Y-5410500D01*
X10668900Y-5452800D01*
X10656200Y-5482500D01*
X10640400Y-5507900D01*
X10621300Y-5524800D01*
X10595900Y-5537500D01*
X10532400D01*
G01X10761000Y-5283500D02*
X10805400Y-5537500D01*
X10856200Y-5283500D01*
X10907000Y-5537500D01*
X10951500Y-5283500D01*
G01X11129300Y-5410500D02*
X11192800D01*
Y-5486700D01*
X11173800Y-5512100D01*
X11151500Y-5529000D01*
X11119800Y-5537500D01*
X11088000Y-5529000D01*
X11065800Y-5512100D01*
X11046700Y-5486700D01*
X11034000Y-5457100D01*
X11027700Y-5423200D01*
Y-5393600D01*
X11034000Y-5368200D01*
X11046700Y-5338500D01*
X11065800Y-5313100D01*
X11084800Y-5296200D01*
X11110200Y-5283500D01*
X11132500D01*
X11157900Y-5292000D01*
X11176900Y-5308900D01*
G01X11545200Y-5537500D02*
Y-5283500D01*
X11691300Y-5537500D01*
Y-5283500D01*
G01X11872200Y-5537500D02*
X11846800Y-5533300D01*
X11824600Y-5516300D01*
X11805600Y-5490900D01*
X11792900Y-5461300D01*
X11786500Y-5427400D01*
Y-5393600D01*
X11792900Y-5359700D01*
X11805600Y-5330100D01*
X11824600Y-5304700D01*
X11846800Y-5287700D01*
X11872200Y-5283500D01*
X11897600Y-5287700D01*
X11919900Y-5304700D01*
X11938900Y-5330100D01*
X11951600Y-5359700D01*
X11958000Y-5393600D01*
Y-5427400D01*
X11951600Y-5461300D01*
X11938900Y-5490900D01*
X11919900Y-5516300D01*
X11897600Y-5533300D01*
X11872200Y-5537500D01*
G01X12567600Y-6519600D02*
X12593000Y-6540800D01*
X12621500Y-6553500D01*
X12647000D01*
X12672400Y-6540800D01*
X12691400Y-6519600D01*
X12700900Y-6490000D01*
X12694600Y-6460400D01*
X12678700Y-6435000D01*
X12650100Y-6418000D01*
X12612000Y-6409600D01*
X12589800Y-6392600D01*
X12580300Y-6363000D01*
X12586600Y-6333400D01*
X12602500Y-6312200D01*
X12624700Y-6299500D01*
X12647000D01*
X12669200Y-6308000D01*
X12688200Y-6329100D01*
G01X12821600Y-6553500D02*
Y-6299500D01*
G01X12954900D02*
Y-6553500D01*
G01Y-6426500D02*
X12821600D01*
G01X13205800Y-6553500D02*
X13078700D01*
Y-6299500D01*
X13205800D01*
G01X13155000Y-6422300D02*
X13078700D01*
G01X13459800Y-6553500D02*
X13332700D01*
Y-6299500D01*
X13459800D01*
G01X13409000Y-6422300D02*
X13332700D01*
G01X13650200Y-6299500D02*
Y-6553500D01*
G01X13577200Y-6299500D02*
X13723300D01*
G01X12373900Y18783000D02*
Y19037000D01*
X12437400D01*
X12462800Y19024300D01*
X12481900Y19007400D01*
X12497700Y18982000D01*
X12510400Y18952300D01*
X12513600Y18910000D01*
X12510400Y18867700D01*
X12497700Y18838000D01*
X12481900Y18812600D01*
X12462800Y18795700D01*
X12437400Y18783000D01*
X12373900D01*
G01X12618400D02*
X12697700Y19037000D01*
X12777100Y18783000D01*
G01X12748500Y18871900D02*
X12646900D01*
G01X12951700Y19037000D02*
Y18783000D01*
G01X12878700Y19037000D02*
X13024800D01*
G01X13269300Y18783000D02*
X13142200D01*
Y19037000D01*
X13269300D01*
G01X13218500Y18914200D02*
X13142200D01*
G01X14269400Y18783000D02*
X14348700Y19037000D01*
X14428100Y18783000D01*
G01X14399500Y18871900D02*
X14297900D01*
G01X14539200Y18783000D02*
Y19037000D01*
X14615500D01*
X14640900Y19024300D01*
X14659900Y18994700D01*
X14666300Y18960800D01*
X14659900Y18926900D01*
X14644000Y18901500D01*
X14615500Y18888800D01*
X14539200D01*
G01X14793200Y18783000D02*
Y19037000D01*
X14869500D01*
X14894900Y19024300D01*
X14913900Y18994700D01*
X14920300Y18960800D01*
X14913900Y18926900D01*
X14898000Y18901500D01*
X14869500Y18888800D01*
X14793200D01*
G01X15047200Y18783000D02*
Y19037000D01*
X15126600D01*
X15152000Y19024300D01*
X15167900Y19007400D01*
X15174300Y18973500D01*
X15167900Y18939600D01*
X15148900Y18918500D01*
X15126600Y18905800D01*
X15047200D01*
G01X15126600D02*
X15174300Y18783000D01*
G01X15364700D02*
X15339300Y18787200D01*
X15317100Y18804200D01*
X15298100Y18829600D01*
X15285400Y18859200D01*
X15279000Y18893100D01*
Y18926900D01*
X15285400Y18960800D01*
X15298100Y18990400D01*
X15317100Y19015800D01*
X15339300Y19032800D01*
X15364700Y19037000D01*
X15390100Y19032800D01*
X15412400Y19015800D01*
X15431400Y18990400D01*
X15444100Y18960800D01*
X15450500Y18926900D01*
Y18893100D01*
X15444100Y18859200D01*
X15431400Y18829600D01*
X15412400Y18804200D01*
X15390100Y18787200D01*
X15364700Y18783000D01*
G01X15539400Y19037000D02*
X15618700Y18783000D01*
X15698100Y19037000D01*
G01X15936300Y18783000D02*
X15809200D01*
Y19037000D01*
X15936300D01*
G01X15885500Y18914200D02*
X15809200D01*
G01X16056900Y18783000D02*
Y19037000D01*
X16120400D01*
X16145800Y19024300D01*
X16164900Y19007400D01*
X16180700Y18982000D01*
X16193400Y18952300D01*
X16196600Y18910000D01*
X16193400Y18867700D01*
X16180700Y18838000D01*
X16164900Y18812600D01*
X16145800Y18795700D01*
X16120400Y18783000D01*
X16056900D01*
M02*
