G04 ================== begin FILE IDENTIFICATION RECORD ==================*
G04 Layout Name:  pc065c_fibv2_toplevel_19.brd*
G04 Film Name:    art_pc065a_LSM2.ger*
G04 File Format:  Gerber RS274X*
G04 File Origin:  Cadence Allegro 17.4-S011*
G04 Origin Date:  Thu Apr  4 13:41:42 2024*
G04 *
G04 Layer:  PIN/SOLDERMASK_BOTTOM*
G04 Layer:  BOARD GEOMETRY/SOLDERMASK_BOTTOM*
G04 *
G04 Offset:    (0.000 0.000)*
G04 Mirror:    No*
G04 Mode:      Positive*
G04 Rotation:  0*
G04 FullContactRelief:  No*
G04 UndefLineWidth:     0.200*
G04 ================== end FILE IDENTIFICATION RECORD ====================*
%FSLAX35Y35*MOMM*%
%IR0*IPPOS*OFA0.00000B0.00000*MIA0B0*SFA1.00000B1.00000*%
%ADD30C,1.3*%
%ADD28C,1.7*%
%ADD23R,1.45X.45*%
%ADD14C,1.55*%
%ADD10C,6.5*%
%ADD13C,1.65*%
%ADD31C,1.651*%
%ADD16C,1.75*%
%ADD25R,2.25X2.25*%
%ADD17R,1.X1.05*%
%ADD12R,2.2X1.05*%
%ADD24R,1.45X1.2*%
%ADD29R,1.15X1.25*%
%ADD20R,.4X.5*%
%ADD26R,.3X.8*%
%ADD19R,1.25X1.15*%
%ADD27R,.8X.3*%
%ADD22R,1.45X1.65*%
%ADD15R,1.65X1.45*%
%ADD18R,.914X.61*%
%ADD21R,.6X.6*%
%ADD11R,.85X.85*%
%LPD*%
G75*
G54D10*
X300000Y1090000D03*
X550000Y6550000D03*
X7300000Y1090000D03*
X13205000Y6550000D03*
X13600000Y1090000D03*
G54D11*
X140000Y2675000D03*
Y2765000D03*
X530000Y2675000D03*
Y2765000D03*
X400000Y2675000D03*
Y2765000D03*
X270000Y2675000D03*
Y2765000D03*
X1140000Y3715000D03*
Y3805000D03*
X1645000Y370000D03*
Y550000D03*
Y240000D03*
X1425000D03*
X1515000D03*
X1645000Y680000D03*
X1425000D03*
X1515000D03*
X1700000Y3985000D03*
Y4075000D03*
X1400000Y3985000D03*
Y4075000D03*
X1360000Y4915000D03*
Y5005000D03*
X1580000D03*
Y4915000D03*
X1690000Y5005000D03*
Y4915000D03*
X1470000Y5005000D03*
Y4915000D03*
X1735000Y370000D03*
Y550000D03*
Y240000D03*
Y680000D03*
X2125000Y2520000D03*
X2035000D03*
Y2640000D03*
X2125000D03*
X2035000Y2750000D03*
X2125000D03*
X1910000Y4915000D03*
Y5005000D03*
X1800000D03*
Y4915000D03*
X2425000Y1400000D03*
X2335000D03*
X2425000Y1290000D03*
X2335000D03*
X2425000Y1180000D03*
X2335000D03*
X2615000Y2930000D03*
X2275000D03*
X2365000D03*
X2565000Y3715000D03*
Y3805000D03*
X3105000Y490000D03*
Y380000D03*
Y600000D03*
X2705000Y2930000D03*
X2955000Y2640000D03*
X2865000D03*
X2955000Y2750000D03*
X2865000D03*
X3125000Y3985000D03*
Y4075000D03*
X2825000Y3985000D03*
Y4075000D03*
X2785000Y4915000D03*
Y5005000D03*
X3005000D03*
Y4915000D03*
X3115000Y5005000D03*
Y4915000D03*
X2895000Y5005000D03*
Y4915000D03*
X3195000Y490000D03*
Y380000D03*
Y600000D03*
X3335000Y4915000D03*
Y5005000D03*
X3225000D03*
Y4915000D03*
X3915000Y2930000D03*
X4005000D03*
X3765000Y2520000D03*
X3675000D03*
Y2640000D03*
X3765000D03*
X3675000Y2750000D03*
X3765000D03*
X3990000Y3715000D03*
Y3805000D03*
X4410000Y245000D03*
Y155000D03*
X4515000Y220000D03*
X4345000Y2930000D03*
X4255000D03*
X4505000Y2640000D03*
Y2750000D03*
X4550000Y3985000D03*
Y4075000D03*
X4250000Y3985000D03*
Y4075000D03*
X4210000Y4915000D03*
Y5005000D03*
X4430000D03*
Y4915000D03*
X4540000Y5005000D03*
Y4915000D03*
X4320000Y5005000D03*
Y4915000D03*
X4965000Y420000D03*
X5055000D03*
X4605000Y220000D03*
X4595000Y2640000D03*
Y2750000D03*
X4760000Y4915000D03*
Y5005000D03*
X4650000D03*
Y4915000D03*
X5415000Y3715000D03*
Y3805000D03*
X5590000Y245000D03*
Y155000D03*
X5955000Y2520000D03*
Y2640000D03*
Y2750000D03*
X5975000Y3985000D03*
Y4075000D03*
X5675000Y3985000D03*
Y4075000D03*
X5635000Y4915000D03*
Y5005000D03*
X5855000D03*
Y4915000D03*
X5965000Y5005000D03*
Y4915000D03*
X5745000Y5005000D03*
Y4915000D03*
X6085000Y410000D03*
X6175000D03*
X6195000Y2930000D03*
X6285000D03*
X6045000Y2520000D03*
Y2640000D03*
Y2750000D03*
X6185000Y4915000D03*
Y5005000D03*
X6075000D03*
Y4915000D03*
X6910000Y535000D03*
Y445000D03*
Y245000D03*
Y335000D03*
X6790000Y535000D03*
Y445000D03*
Y245000D03*
Y335000D03*
X6585000Y640000D03*
X6675000D03*
X6625000Y2930000D03*
X6535000D03*
X6875000Y2640000D03*
X6785000D03*
X6875000Y2750000D03*
X6785000D03*
X7135000Y150000D03*
X7225000D03*
X7395000Y2520000D03*
X7305000D03*
Y2640000D03*
X7395000D03*
X7305000Y2750000D03*
X7395000D03*
X7310000Y3715000D03*
Y3805000D03*
X7950000Y1235000D03*
Y1325000D03*
X7885000Y2930000D03*
X7545000D03*
X7635000D03*
X7870000Y3985000D03*
Y4075000D03*
X7570000Y3985000D03*
Y4075000D03*
X7530000Y4915000D03*
Y5005000D03*
X7750000D03*
Y4915000D03*
X7860000Y5005000D03*
Y4915000D03*
X7640000Y5005000D03*
Y4915000D03*
X7975000Y2930000D03*
X8225000Y2640000D03*
X8135000D03*
X8225000Y2750000D03*
X8135000D03*
X8080000Y4915000D03*
Y5005000D03*
X7970000D03*
Y4915000D03*
X8915000Y2780000D03*
X8715000D03*
X8805000D03*
X8915000Y2930000D03*
X8715000D03*
X8805000D03*
X8735000Y3715000D03*
Y3805000D03*
X9005000Y2780000D03*
Y2930000D03*
X9110000Y3125000D03*
Y3035000D03*
X9295000Y3985000D03*
Y4075000D03*
X8995000Y3985000D03*
Y4075000D03*
X8955000Y4915000D03*
Y5005000D03*
X9175000D03*
Y4915000D03*
X9285000Y5005000D03*
Y4915000D03*
X9395000Y5005000D03*
Y4915000D03*
X9065000Y5005000D03*
Y4915000D03*
X9505000D03*
Y5005000D03*
X10335000Y2780000D03*
X10135000D03*
X10225000D03*
X10335000Y2930000D03*
X10135000D03*
X10225000D03*
X10160000Y3715000D03*
Y3805000D03*
X10425000Y2780000D03*
Y2930000D03*
X10530000Y3125000D03*
Y3035000D03*
X10720000Y3985000D03*
Y4075000D03*
X10420000Y3985000D03*
Y4075000D03*
X10380000Y4915000D03*
Y5005000D03*
X10600000D03*
Y4915000D03*
X10710000Y5005000D03*
Y4915000D03*
X10820000Y5005000D03*
Y4915000D03*
X10490000Y5005000D03*
Y4915000D03*
X10930000D03*
Y5005000D03*
X11735000Y730000D03*
X11775000Y2780000D03*
X11575000D03*
X11665000D03*
X11775000Y2930000D03*
X11575000D03*
X11665000D03*
X11585000Y3715000D03*
Y3805000D03*
X11805000Y4915000D03*
Y5005000D03*
X12125000Y420000D03*
X12035000D03*
X12245000Y620000D03*
X12155000D03*
X12235000Y880000D03*
X12145000D03*
X11825000Y730000D03*
X11865000Y2780000D03*
Y2930000D03*
X11970000Y3125000D03*
Y3035000D03*
X12145000Y3985000D03*
Y4075000D03*
X11845000Y3985000D03*
Y4075000D03*
X12025000Y5005000D03*
Y4915000D03*
X12135000Y5005000D03*
Y4915000D03*
X12245000Y5005000D03*
Y4915000D03*
X11915000Y5005000D03*
Y4915000D03*
X12355000D03*
Y5005000D03*
X13185000Y2790000D03*
X13095000D03*
X12895000D03*
X12985000D03*
X13185000Y2940000D03*
X13095000D03*
X12895000D03*
X12985000D03*
X13290000Y3125000D03*
Y3035000D03*
G54D20*
X1645000Y7535000D03*
X3070000D03*
X4495000D03*
X5920000D03*
X7810000D03*
X9235000D03*
X10660000D03*
X12085000D03*
G54D21*
X1575000Y7560000D03*
X1715000D03*
X3000000D03*
X3140000D03*
X4425000D03*
X4565000D03*
X5850000D03*
X5990000D03*
X7740000D03*
X7880000D03*
X9165000D03*
X9305000D03*
X10590000D03*
X10730000D03*
X12015000D03*
X12155000D03*
G54D12*
X1110000Y92500D03*
Y387500D03*
Y532500D03*
Y827500D03*
G54D30*
X7730000Y890000D03*
X13168000Y1195000D03*
G54D22*
X2590000Y410000D03*
X2410000D03*
X2420000Y1020000D03*
X2240000D03*
G54D31*
X13440000Y4866000D03*
G54D13*
X932500Y4010000D03*
Y4510000D03*
Y4980000D03*
X1645000Y3550000D03*
X2125000D03*
X2357500Y4980000D03*
X3070000Y3550000D03*
X3550000D03*
X3782500Y3760000D03*
Y4760000D03*
Y5760000D03*
Y6760000D03*
X4495000Y3550000D03*
X4975000D03*
X5207500Y4010000D03*
Y4510000D03*
Y4980000D03*
X5920000Y3550000D03*
X6400000D03*
X6632500Y4980000D03*
X7097500Y4010000D03*
Y4510000D03*
Y4980000D03*
X7810000Y3550000D03*
X8290000D03*
X8522500Y4980000D03*
X9235000Y3550000D03*
X9715000D03*
X9947500Y3760000D03*
Y4760000D03*
Y5760000D03*
Y6760000D03*
X10660000Y3550000D03*
X11140000D03*
X11372500Y4010000D03*
Y4510000D03*
Y4980000D03*
X12085000Y3550000D03*
X12565000D03*
X12797500Y4980000D03*
G54D14*
X1164000Y4170000D03*
X2124000D03*
X2589000D03*
X3549000D03*
X4014000D03*
X4974000D03*
X5439000D03*
X6399000D03*
X7334000D03*
X8294000D03*
X8759000D03*
X9719000D03*
X10184000D03*
X11144000D03*
X11609000D03*
X12569000D03*
G54D23*
X2270000Y2787500D03*
Y2722500D03*
Y2657500D03*
Y2592500D03*
X2710000D03*
Y2657500D03*
Y2722500D03*
Y2787500D03*
X3910000D03*
Y2722500D03*
Y2657500D03*
Y2592500D03*
X4350000D03*
Y2657500D03*
Y2722500D03*
Y2787500D03*
X6190000D03*
Y2722500D03*
Y2657500D03*
Y2592500D03*
X6630000D03*
Y2657500D03*
Y2722500D03*
Y2787500D03*
X7540000D03*
Y2722500D03*
Y2657500D03*
Y2592500D03*
X7980000D03*
Y2657500D03*
Y2722500D03*
Y2787500D03*
G54D15*
X1140000Y4830000D03*
Y5010000D03*
X1550000Y4020000D03*
Y4200000D03*
X2565000Y4830000D03*
Y5010000D03*
X2930000Y1270000D03*
Y1090000D03*
X2975000Y4020000D03*
Y4200000D03*
X3990000Y4830000D03*
Y5010000D03*
X4400000Y4020000D03*
Y4200000D03*
X5415000Y4830000D03*
Y5010000D03*
X5825000Y4020000D03*
Y4200000D03*
X7310000Y4830000D03*
Y5010000D03*
X7720000Y4020000D03*
Y4200000D03*
X8735000Y4830000D03*
Y5010000D03*
X9145000Y4020000D03*
Y4200000D03*
X10160000Y4830000D03*
Y5010000D03*
X10570000Y4020000D03*
Y4200000D03*
X11585000Y4830000D03*
Y5010000D03*
X11995000Y4020000D03*
Y4200000D03*
G54D24*
X2730000Y1085000D03*
Y1255000D03*
G54D25*
X4480000Y560000D03*
X5660000D03*
G54D16*
X932500Y5260000D03*
X1250000Y5760000D03*
X932500Y6260000D03*
Y7260000D03*
X1500000D03*
X1790000Y5760000D03*
X2357500Y3760000D03*
Y4760000D03*
Y5760000D03*
X2675000D03*
X2357500Y6760000D03*
X3215000Y5760000D03*
X2925000Y7260000D03*
X4100000Y5760000D03*
X4640000D03*
X4350000Y7260000D03*
X5207500Y5260000D03*
X5525000Y5760000D03*
X5207500Y6260000D03*
Y7260000D03*
X6065000Y5760000D03*
X5775000Y7260000D03*
X6632500Y3760000D03*
Y4760000D03*
Y5760000D03*
Y6760000D03*
X7097500Y5260000D03*
X7415000Y5760000D03*
X7097500Y6260000D03*
Y7260000D03*
X7955000Y5760000D03*
X7665000Y7260000D03*
X8522500Y3760000D03*
Y4760000D03*
Y5760000D03*
Y6760000D03*
X8840000Y5760000D03*
X9380000D03*
X9090000Y7260000D03*
X10265000Y5760000D03*
X10805000D03*
X10515000Y7260000D03*
X11372500Y5260000D03*
Y6260000D03*
Y7260000D03*
X11690000Y5760000D03*
X12230000D03*
X11940000Y7260000D03*
X12797500Y3760000D03*
Y4760000D03*
Y5760000D03*
Y6760000D03*
G54D26*
X4355000Y360000D03*
X4405000D03*
X4455000D03*
X4505000D03*
X4555000D03*
Y760000D03*
X4505000D03*
X4455000D03*
X4405000D03*
X4355000D03*
X4605000Y360000D03*
Y760000D03*
X5535000Y360000D03*
X5585000D03*
X5635000D03*
X5685000D03*
X5735000D03*
X5785000D03*
Y760000D03*
X5735000D03*
X5685000D03*
X5635000D03*
X5585000D03*
X5535000D03*
G54D17*
X1262500Y240000D03*
Y680000D03*
G54D18*
X1290000Y4053500D03*
Y3966500D03*
X1810000Y3976500D03*
Y4063500D03*
X2715000Y4053500D03*
Y3966500D03*
X3235000Y3976500D03*
Y4063500D03*
X4140000Y4053500D03*
Y3966500D03*
X4660000Y3976500D03*
Y4063500D03*
X5565000Y4053500D03*
Y3966500D03*
X6085000Y3976500D03*
Y4063500D03*
X7460000Y4053500D03*
Y3966500D03*
X7980000Y3976500D03*
Y4063500D03*
X8885000Y4053500D03*
Y3966500D03*
X9405000Y3976500D03*
Y4063500D03*
X10310000Y4053500D03*
Y3966500D03*
X10830000Y3976500D03*
Y4063500D03*
X11735000Y4053500D03*
Y3966500D03*
X12255000Y3976500D03*
Y4063500D03*
G54D27*
X4280000Y535000D03*
Y485000D03*
Y435000D03*
Y685000D03*
Y635000D03*
Y585000D03*
X4680000Y435000D03*
Y485000D03*
Y535000D03*
Y585000D03*
Y635000D03*
Y685000D03*
X5460000Y535000D03*
Y485000D03*
Y435000D03*
Y685000D03*
Y635000D03*
Y585000D03*
X5860000Y435000D03*
Y485000D03*
Y535000D03*
Y585000D03*
Y635000D03*
Y685000D03*
G54D19*
X1710000Y7265000D03*
Y7415000D03*
X3140000Y7265000D03*
Y7415000D03*
X4560000Y7265000D03*
Y7415000D03*
X5990000Y7265000D03*
Y7415000D03*
X7880000Y7265000D03*
Y7415000D03*
X9300000Y7265000D03*
Y7415000D03*
X10730000Y7265000D03*
Y7415000D03*
X12150000Y7265000D03*
Y7415000D03*
X13150000Y635000D03*
Y785000D03*
G54D28*
X6550000Y1310000D03*
X6296000D03*
X6804000D03*
X13730000Y3773000D03*
Y3519000D03*
Y4027000D03*
Y4281000D03*
G54D29*
X7835000Y510000D03*
X7685000D03*
X7995000D03*
X8145000D03*
X13665000Y400000D03*
X13515000D03*
M02*
