G04 ================== begin FILE IDENTIFICATION RECORD ==================*
G04 Layout Name:  pc065b_toplevel_06.brd*
G04 Film Name:    art_pc065a_L03P.ger*
G04 File Format:  Gerber RS274X*
G04 File Origin:  Cadence Allegro 17.2-S061*
G04 Origin Date:  Tue Jun  2 09:05:58 2020*
G04 *
G04 Layer:  ETCH/L3_SIG*
G04 Layer:  PIN/L3_SIG*
G04 Layer:  VIA CLASS/L3_SIG*
G04 *
G04 Offset:    (0.0000 0.0000)*
G04 Mirror:    No*
G04 Mode:      Positive*
G04 Rotation:  0*
G04 FullContactRelief:  No*
G04 UndefLineWidth:     0.2000*
G04 ================== end FILE IDENTIFICATION RECORD ====================*
%FSLAX35Y35*MOMM*%
%IR0*IPPOS*OFA0.00000B0.00000*MIA0B0*SFA1.00000B1.00000*%
%ADD12C,.56*%
%ADD10C,.65*%
%ADD17C,1.*%
%ADD13C,1.7*%
%ADD18C,1.0008*%
%ADD11C,3.6*%
%ADD15C,1.65*%
%ADD16C,1.75*%
%ADD14C,1.397*%
%ADD19C,.2*%
%ADD20C,.15*%
%ADD21C,.17*%
G75*
%LPD*%
G75*
G54D10*
X-200480Y-880000D03*
X115000Y-970000D03*
X80000Y-495480D03*
X-200480Y-700000D03*
X-202980Y-515000D03*
X-70000Y250000D03*
X-185480Y590000D03*
X-210480Y390000D03*
X180000Y590000D03*
X-210480Y900000D03*
X-60000Y740000D03*
X230000Y900000D03*
X570000Y-945000D03*
X450000Y-554520D03*
Y-80000D03*
X470000Y20000D03*
X370000Y70000D03*
Y310000D03*
X705670Y535500D03*
X540000Y530000D03*
Y720000D03*
X705670Y746140D03*
X441750Y1131580D03*
X350000Y920000D03*
X445000D03*
X516200Y1174570D03*
X441750Y1342220D03*
X470000Y1410000D03*
X516200Y1299230D03*
X420000Y1930000D03*
X510000Y1830000D03*
X427700Y1862300D03*
X330000Y1710000D03*
X420000Y2030000D03*
X960000Y-750000D03*
X1054520Y-340000D03*
Y-450000D03*
X950000Y-480000D03*
X882170Y-552670D03*
Y-677330D03*
X1064520Y30000D03*
X860000Y150000D03*
X952640Y149500D03*
X870000Y-250000D03*
X950000Y50000D03*
X860000Y240000D03*
X952860Y231500D03*
X780120Y703150D03*
Y578490D03*
X1000000Y790000D03*
X1140000Y930000D03*
X1080000Y730790D03*
Y850000D03*
X780000Y1840000D03*
X1035110Y1866860D03*
X1085000Y1815000D03*
X1040000Y1730000D03*
X1030000Y1990000D03*
X742540Y2080710D03*
X824180Y2072970D03*
X759520Y2625000D03*
X1100000Y3065480D03*
X759520Y2715000D03*
X928520Y2670000D03*
X990000Y3031760D03*
X964000Y3339520D03*
X1044000D03*
X840000Y3629520D03*
X1060000Y3744520D03*
X1170000Y3995480D03*
X1060000D03*
X1170000Y3744520D03*
X1465000Y-1015000D03*
X1650000Y-970000D03*
X1491150Y-750000D03*
X1590000Y-760000D03*
X1320000Y-260000D03*
X1300000Y-740000D03*
X1655000Y75000D03*
X1430000Y70000D03*
X1340000Y-165880D03*
Y-41220D03*
X1460000Y390000D03*
X1350000D03*
X1580000Y775480D03*
X1410000Y729520D03*
Y830000D03*
X1530000Y1250000D03*
X1380000D03*
X1517440Y1345810D03*
X1392780D03*
X1359520Y2090000D03*
X1484000Y2519520D03*
X1220000Y2510000D03*
X1356520Y2246000D03*
X1400000Y3065480D03*
X1510000Y3041760D03*
X1260000Y2820000D03*
X1400000D03*
X1250000Y3220480D03*
X1684000Y3339520D03*
X1524000Y3274000D03*
X1280000Y3744520D03*
X1610000Y3995480D03*
X1490000Y3990200D03*
X1410000D03*
X1270000D03*
X1390000Y3744520D03*
X1500000D03*
X1610000D03*
X2020000Y-280000D03*
X1840000D03*
X2120500Y-462430D03*
X2100000Y-660000D03*
X1845000Y-690000D03*
X1840000Y80000D03*
X2020000D03*
X1840000Y-100000D03*
X2020000D03*
X1700000Y230000D03*
X2100000Y450000D03*
X1895000Y460000D03*
X1695000Y475000D03*
X1900000Y560000D03*
X1800000Y775480D03*
X2050000D03*
X2124520Y840000D03*
X2140000Y1160000D03*
X1790000Y1180000D03*
X1690000Y775480D03*
X1892170Y1186970D03*
X2155550Y1265440D03*
X1790000Y1320000D03*
X1900000Y1410000D03*
X1892170Y1311630D03*
X1860480Y2090000D03*
X1850000Y1850000D03*
X1845000Y1915000D03*
X1740000Y1810000D03*
X1990000Y2100000D03*
X1862480Y2245000D03*
X2030000Y2270000D03*
X1724000Y2820480D03*
X2600000Y-790000D03*
X2510000Y-752000D03*
X2200000Y-280000D03*
X2580000Y-600000D03*
X2245000Y-465000D03*
X2186790Y-413500D03*
X2510000Y-670000D03*
X2620000Y-390000D03*
X2200000Y80000D03*
Y-100000D03*
X2560000Y130000D03*
X2610000Y-20000D03*
X2635000Y570000D03*
X2245000Y450000D03*
X2610000Y350000D03*
X2480000Y814800D03*
X2190000Y740000D03*
X2295000D03*
X2230000Y1097790D03*
X2600000Y1300000D03*
X2480000Y1290000D03*
X2470000Y1590000D03*
X2230000Y1222450D03*
X2220000Y1840000D03*
X2484300Y1814300D03*
X2455000Y1865000D03*
X2550000Y1930000D03*
X2178000Y2084800D03*
X2260000Y2090000D03*
X2640000Y2500000D03*
X2525000Y3065480D03*
X2265000Y2850000D03*
X2353520Y2670000D03*
X2415000Y3031760D03*
X2389000Y3339520D03*
X2469000D03*
X2265000Y3629520D03*
X2485000Y3995480D03*
X2595000D03*
X2485000Y3744520D03*
X2595000D03*
X2945480Y-830000D03*
X3100000Y-490000D03*
X2945480Y-630000D03*
X3120000Y-330000D03*
X2680000Y-630000D03*
X2880000Y-480000D03*
X3040070Y-354820D03*
X3037600Y-436790D03*
X3050000Y-660000D03*
X3100000Y-90000D03*
X3090000Y-250000D03*
X3140000Y120000D03*
X2740000Y-70000D03*
Y-230000D03*
X2996940Y-119980D03*
X3000080Y-201930D03*
X2850000Y-20000D03*
X3035480Y320000D03*
X2740000Y300000D03*
X2830000Y1090000D03*
X2950000D03*
Y740000D03*
X2680000D03*
X2830000D03*
X2747580Y1289210D03*
X2933030Y1350000D03*
X2808370D03*
X2784520Y2090000D03*
X2909000Y2519520D03*
X2781520Y2246000D03*
X2825000Y3065480D03*
X2935000Y3041760D03*
X2675000Y2825000D03*
X2825000D03*
X2675000Y3220480D03*
X3109000Y3339520D03*
X2949000Y3241000D03*
X2700000Y3990200D03*
X2830000D03*
X2920000D03*
X3050000D03*
X2705000Y3744520D03*
X2815000D03*
X2925000D03*
X3035000D03*
X3339930Y-925260D03*
X3429930Y-979920D03*
X3330000Y120000D03*
Y-40000D03*
X3255010Y75030D03*
X3254940Y-6970D03*
X3400000Y-200000D03*
X3600000Y-100000D03*
X3240000Y660000D03*
X3590000Y700000D03*
X3146100Y663990D03*
X3330000Y430000D03*
X3240000Y790000D03*
X3590000Y820000D03*
X3280000Y1160000D03*
X3146100Y780000D03*
X3365820Y1182790D03*
X3280000Y1320000D03*
X3320640Y1412600D03*
X3365820Y1307450D03*
X3285480Y2090000D03*
X3265000Y1915000D03*
X3410000Y1830000D03*
X3320000Y1820000D03*
X3360000Y2140000D03*
X3598140Y2084920D03*
X3287480Y2245000D03*
X3609520Y2625000D03*
X3149000Y2820480D03*
X3609520Y2715000D03*
X4010000Y-860000D03*
X3690000Y-890000D03*
X3640000Y-360000D03*
X3830000Y-390000D03*
X4101350Y-208650D03*
X3870000Y50000D03*
X3790000Y200000D03*
Y118000D03*
X3860000Y260000D03*
X3750000Y630000D03*
X3930000Y527500D03*
X4110000Y592500D03*
X3857500Y630000D03*
X3688140Y705840D03*
Y821850D03*
X3860000Y1590000D03*
X3640000Y1840000D03*
X3897600Y1767600D03*
X3865000Y1865000D03*
X3930000Y2100000D03*
X4020000Y1800000D03*
X4050000Y1960000D03*
X3970000Y1897500D03*
X3680140Y2084790D03*
X4070000Y2505000D03*
X4030000Y2240000D03*
X3950000Y3065480D03*
X3778520Y2670000D03*
X3840000Y3031760D03*
X4100000Y2820000D03*
Y3220480D03*
X3814000Y3339520D03*
X3894000D03*
X3690000Y3629520D03*
X3910000Y3995480D03*
X4020000D03*
X3910000Y3744520D03*
X4020000D03*
X4390000Y-870000D03*
X4205000Y-850000D03*
X4180000Y-530000D03*
X4290000Y-485000D03*
X4500000Y-390000D03*
X4510000Y-555000D03*
X4480000Y170000D03*
Y30000D03*
X4570000Y132000D03*
Y50000D03*
X4274500Y-170000D03*
X4360000Y-180000D03*
X4590000Y470000D03*
X4530000Y410000D03*
Y285340D03*
X4122500Y462500D03*
X4388380Y1323540D03*
X4239360D03*
X4359290Y1400210D03*
X4277290Y1399990D03*
X4580000Y1840000D03*
X4240000Y2090000D03*
X4334000Y2519520D03*
X4206520Y2246000D03*
X4120000Y2260000D03*
X4250000Y3065480D03*
X4574000Y2820480D03*
X4360000Y3041760D03*
X4250000Y2820000D03*
X4534000Y3339520D03*
X4374000Y3266000D03*
X4120000Y3990200D03*
X4260000D03*
X4350000Y3995480D03*
X4480000Y3990200D03*
X4130000Y3744520D03*
X4240000D03*
X4350000D03*
X4460000D03*
X4890000Y-880000D03*
X5030000Y-800000D03*
X4727730Y-550330D03*
X4910000Y-690000D03*
X5060000Y-555000D03*
X4840000Y-550000D03*
X4920000Y-390000D03*
X4600000Y-380000D03*
X4690000Y-390000D03*
X4828630Y-389820D03*
X5008000Y-210000D03*
X5017500Y657500D03*
X4607110Y257420D03*
X5017500Y462500D03*
X4723290Y755940D03*
X4670000Y944660D03*
Y820000D03*
X4740000Y1410000D03*
X4629460Y1630000D03*
X5030000Y1350000D03*
X4670000Y2090000D03*
X5050000Y1840000D03*
X4700000D03*
X4820000Y2080000D03*
X5011000Y2079000D03*
X4712480Y2245000D03*
X5034520Y2625000D03*
Y2715000D03*
X5375000Y-935000D03*
X5413880Y-862800D03*
X5180000Y-840000D03*
X5360000Y-530000D03*
X5460000Y-495000D03*
X5335000Y-210000D03*
X5510000Y-75480D03*
X5300000Y-80000D03*
X5410000D03*
X5210000Y-210000D03*
X5090000D03*
X5540000Y-200000D03*
X5236920Y212310D03*
Y87650D03*
X5559130Y596420D03*
X5324740Y411810D03*
Y310000D03*
X5220000Y1080000D03*
X5240000Y1630000D03*
X5230000Y1340000D03*
X5480000Y2060000D03*
X5320000Y1800000D03*
X5205000Y2075000D03*
X5550000Y1790000D03*
X5093000Y2080000D03*
X5494950Y2409120D03*
X5350000Y2260000D03*
X5490000Y2201000D03*
X5514080Y2522930D03*
X5560000Y2262500D03*
X5399880Y2389880D03*
X5416240Y2309520D03*
X5375000Y3065480D03*
X5203520Y2670000D03*
X5265000Y3031760D03*
X5525000Y2826820D03*
Y3220480D03*
X5230000Y3290000D03*
X5319000Y3339520D03*
X5140000Y3400000D03*
X5115000Y3629520D03*
X5445000Y3995480D03*
X5335000D03*
X5555000D03*
X5335000Y3744520D03*
X5555000D03*
X5445000D03*
X5339000Y3640000D03*
X5810000Y-790000D03*
X5630000Y-810000D03*
X6025480Y-660000D03*
X6050000Y-340000D03*
X5810000Y-410000D03*
X5980000Y-440000D03*
X5650000Y-550000D03*
X5950000Y-75480D03*
X5590000Y-80000D03*
X5726000Y-89450D03*
X5740000Y210000D03*
X5840000Y-75480D03*
X5680000Y-170000D03*
X6040000Y550000D03*
X5650000Y450000D03*
X5641050Y600050D03*
X5570000Y470000D03*
X5850000Y1020000D03*
X5570000Y805000D03*
X5710000Y1020000D03*
X5580000D03*
X5970000Y1360000D03*
X5870000D03*
X5578000Y1550000D03*
X5660000D03*
X5680000Y2080000D03*
X5580000Y2090000D03*
X5759000Y2519520D03*
X5660000Y2246000D03*
X5580000Y2172000D03*
X5675000Y3065480D03*
X5999000Y2820480D03*
X5785000Y3041760D03*
X5675000Y2825000D03*
X5959000Y3339520D03*
X5799000Y3281000D03*
X5680000Y3990200D03*
X5775000Y3995480D03*
X5889000Y3990200D03*
X5665000Y3744520D03*
X5775000D03*
X5885000D03*
X6180000Y-750000D03*
X6070000Y-870000D03*
X6330000Y-920000D03*
X6490000Y-925480D03*
X6172500Y-667500D03*
X6490000Y-474520D03*
X6193750Y-450000D03*
X6449800Y170000D03*
X6065000Y210000D03*
X6090000Y-90000D03*
X6290000Y-170000D03*
X6380000Y-180000D03*
X6480000Y250000D03*
X6285570Y1096030D03*
X6460000Y820000D03*
X6370000Y1050000D03*
X6339800Y820000D03*
X6470000Y1163000D03*
Y1081000D03*
X6270000Y1590000D03*
X6354170Y1229000D03*
X6470000Y1590000D03*
X6070000Y2080000D03*
X6150000Y1820000D03*
X6250000Y1960000D03*
X6332220Y1934500D03*
X6420000Y1968500D03*
X6137480Y2245000D03*
X6430000Y2270000D03*
X6470000Y3360000D03*
X6480000Y3520000D03*
X6480170Y3797680D03*
X6500000Y4533450D03*
X6490000Y5558000D03*
X6520000Y5920000D03*
X6530000Y5810000D03*
X7010000Y-930000D03*
X6770000D03*
X6610000Y-925480D03*
X6770000Y-470000D03*
X6895480Y-380000D03*
X6644520D03*
X6610000Y-474520D03*
X6940000Y-732500D03*
X7020000Y-700000D03*
X6560000Y190000D03*
X6630000Y140000D03*
X6719130Y179130D03*
X6660000Y360000D03*
Y470000D03*
Y670000D03*
X6719130Y261130D03*
X6720000Y1160000D03*
X6640000Y1190000D03*
X6720000Y1303000D03*
X6650000Y1640000D03*
X6640240Y1272000D03*
X6790000Y1450000D03*
X6600000Y2120000D03*
X6680000D03*
X6770000Y1940000D03*
X6920000Y1910000D03*
X7020000Y1844500D03*
X6890000Y2120000D03*
X6929520Y2625000D03*
X6815000Y2260000D03*
X6929520Y2715000D03*
X6650000Y3200000D03*
X6644560Y3464610D03*
X6650000Y3310000D03*
X7010000Y3629520D03*
X6645000Y3795000D03*
X6580000Y4100000D03*
X7120000Y-890000D03*
X7500000Y-450000D03*
X7260000Y150000D03*
X7260390Y-92310D03*
X7300640Y-20860D03*
X7300000Y70000D03*
X7195000Y705000D03*
X7170000Y460000D03*
Y320000D03*
X7290000Y610000D03*
X7130000Y1140000D03*
X7450000Y940000D03*
X7194840Y859320D03*
X7235000Y935000D03*
X7060000Y1190000D03*
X7440000Y1088000D03*
Y1170000D03*
X7130000Y1320000D03*
X7060000Y1600000D03*
Y1272000D03*
X7205830Y2112520D03*
X7400000Y1870000D03*
Y2000000D03*
X7205830Y1963520D03*
X7490000Y1989770D03*
X7127790Y1988720D03*
X7490000Y1865110D03*
X7130020Y2070690D03*
X7414000Y2534000D03*
X7270000Y3065480D03*
X7098520Y2670000D03*
X7160000Y3031760D03*
X7420000Y2826820D03*
Y3220480D03*
X7134000Y3339520D03*
X7214000D03*
X7230000Y3995480D03*
X7340000D03*
X7450000D03*
Y3744520D03*
X7340000D03*
X7230000D03*
X7929210Y-1000000D03*
X7810000D03*
X7590000Y-460000D03*
X7986000Y-450000D03*
X7741000Y59000D03*
X7870000Y180000D03*
X7710000Y670000D03*
X7630000D03*
X7950000Y680000D03*
X7530000Y710000D03*
X7810000Y680000D03*
X7680000Y1120000D03*
X7690000Y1360000D03*
X7917900Y1361000D03*
X7580000Y1410000D03*
X7810000D03*
X7529520Y2090000D03*
X7654000Y2519520D03*
X7526520Y2246000D03*
X7570000Y3065480D03*
X7894000Y2820480D03*
X7680000Y3041760D03*
X7570000Y2820000D03*
X7854000Y3339520D03*
X7667000Y3307000D03*
X7560000Y3995480D03*
X7670000D03*
X7780000D03*
X7560000Y3744520D03*
X7670000D03*
X7780000D03*
X8115500Y-455500D03*
X8250000Y-448000D03*
X8244970Y-596280D03*
X8117000Y-73000D03*
X8239140Y62270D03*
X8248050Y171780D03*
X8210000Y490000D03*
X8200000Y700000D03*
X8129150Y535400D03*
X8133640Y453520D03*
X8353970Y700000D03*
X8160000Y890000D03*
X8120000Y970000D03*
Y1052000D03*
X8390000Y1010000D03*
X8380000Y906550D03*
X8277500Y1102500D03*
X8377790Y1102600D03*
X8120250Y812000D03*
X8119990Y730000D03*
X8179300Y1635000D03*
X8000000Y1360000D03*
X8330000Y1550000D03*
X8030480Y2090000D03*
X8179300Y1990000D03*
X8297520Y2159000D03*
X8020000Y1840000D03*
X8334520D03*
X8340000Y1990000D03*
X8339800Y1720000D03*
X8300000Y2300000D03*
X8032480Y2245000D03*
X8193560Y2264080D03*
X8195510Y2182100D03*
X8435000Y2830000D03*
Y3629520D03*
X8750000Y-590000D03*
X8880000Y-320000D03*
X8625570Y-594290D03*
X8500000Y-590000D03*
X8627040Y-442500D03*
X8880000Y-580000D03*
X8620000Y-80000D03*
X8887910Y45090D03*
X8753000Y53000D03*
X8750000Y-70000D03*
X8490000Y670000D03*
X8688500Y458500D03*
X8790000Y654300D03*
X8640000Y644520D03*
X8491430Y301430D03*
X8759060Y500290D03*
X8667800Y1180000D03*
X8790000Y1095480D03*
X8940000Y1090000D03*
X8749800Y1180000D03*
X8500000Y1100000D03*
X8640000Y1095480D03*
X8800000Y1550000D03*
X8500000Y1420000D03*
X8639600Y1419600D03*
X8940000Y1902300D03*
X8954520Y2090000D03*
X8785480Y1840000D03*
X8790000Y1720000D03*
X8527500Y2112980D03*
X8657500D03*
X8839000Y2534000D03*
X8951520Y2246000D03*
X8520000Y2570000D03*
X8592500Y2180000D03*
X8730000Y2290000D03*
X8695000Y3065480D03*
X8523520Y2670000D03*
X8585000Y3031760D03*
X8845000Y2825000D03*
Y3220480D03*
X8559000Y3339520D03*
X8639000D03*
X8950000Y3330000D03*
X8655000Y3995480D03*
X8875000D03*
X8765000D03*
X8875000Y3744520D03*
X8765000D03*
X8655000D03*
X9259500Y-580500D03*
X9131000Y-579000D03*
X9000000Y-580000D03*
X9381500Y48500D03*
X9010000Y178840D03*
X9265500Y175500D03*
X9138500Y48500D03*
X9254000Y60000D03*
X9140000Y-70000D03*
X9450000Y370000D03*
X9390000Y430000D03*
X9387010Y317490D03*
X8995480Y1180000D03*
X9443360Y1170400D03*
X9440000Y1020000D03*
X9200000Y1060000D03*
X9050000D03*
X9062980Y902500D03*
X9120000Y837500D03*
X9160000Y1140000D03*
X9360000Y1149000D03*
X9078000Y1140000D03*
X9360000Y1067000D03*
X9062980Y772500D03*
X9372610Y1357400D03*
X9374190Y1275410D03*
X9215000Y1969000D03*
X9020000Y1974660D03*
X9027110Y1853080D03*
X9079000Y2519520D03*
X8995000Y3065480D03*
X9319000Y2820480D03*
X9105000Y3041760D03*
X8995000Y2825000D03*
X9279000Y3339520D03*
X9040000Y3330000D03*
X9121260Y3288950D03*
X8985000Y3995480D03*
X9095000D03*
X9205000D03*
X8985000Y3744520D03*
X9095000D03*
X9205000D03*
X9773500Y-586500D03*
X9640000Y-580000D03*
X9638000Y-330000D03*
X9520500Y-320500D03*
X9890000Y-459000D03*
X9649120Y59070D03*
X9520000Y50000D03*
X9900000Y-70000D03*
X9680000Y630000D03*
X9830000Y644520D03*
X9845480Y1180000D03*
X9929800D03*
X9680000Y1100000D03*
X9830000Y1095480D03*
X9550000Y892000D03*
Y810000D03*
X9475830Y1390000D03*
Y1241000D03*
X9750000Y1550000D03*
X9900000Y1390000D03*
X9455480Y2090000D03*
X9590000Y1980000D03*
X9670000Y1715480D03*
X9659460Y2151000D03*
X9540000Y1830000D03*
X9754520Y1840000D03*
X9760000Y1990000D03*
X9759800Y1720000D03*
X9660000Y2300000D03*
X9457480Y2245000D03*
X9779520Y2625000D03*
X9740000Y2262000D03*
Y2180000D03*
X9779520Y2715000D03*
X9860000Y3629520D03*
X10143000Y-460000D03*
X10280000Y-450000D03*
X10400000Y-710000D03*
X10270000D03*
X10016000Y-460000D03*
X10397000D03*
X10139210Y180000D03*
X10398110Y178100D03*
X10020000Y180000D03*
X10278900Y178100D03*
X9970000Y644520D03*
X10230000Y490000D03*
X10175480Y1180000D03*
X9970000Y1095480D03*
X10120000Y1090000D03*
X10242980Y902500D03*
X10330000Y837500D03*
X10242980Y772500D03*
X10130000Y1410000D03*
X10300000Y1570000D03*
X10010000Y1390000D03*
X10270000Y1370000D03*
X10379520Y2090000D03*
X10205480Y1840000D03*
X10210000Y1720000D03*
X10310000Y1690000D03*
X10360000Y1950000D03*
X10361760Y1848240D03*
X9947500Y2112980D03*
X10008250Y2168070D03*
X10077500Y2112980D03*
X10264000Y2534000D03*
X10376520Y2246000D03*
X10170000Y2280000D03*
X10280000Y2220000D03*
X10420000Y3065480D03*
X10120000D03*
X9948520Y2670000D03*
X10010000Y3031760D03*
X10270000Y2820000D03*
X10420000Y2810000D03*
X10270000Y3220480D03*
X9984000Y3339520D03*
X10064000D03*
X10080000Y3995480D03*
X10190000D03*
X10300000D03*
X10410000D03*
X10300000Y3744520D03*
X10190000D03*
X10410000D03*
X10080000D03*
X10786490Y-443020D03*
X10660000Y-570000D03*
X10783930Y-313070D03*
X10527000Y-457000D03*
X10790000Y-710000D03*
X10530000Y181000D03*
X10850000Y590000D03*
X10530000Y440000D03*
X10845000Y1105000D03*
X10710000Y920000D03*
X10711420Y810000D03*
X10880000Y1454660D03*
X10868770Y1315960D03*
X10880480Y2090000D03*
X10504000Y2519520D03*
X10882480Y2245000D03*
X10744000Y2820480D03*
X10530000Y3041760D03*
X10624000Y2874000D03*
X10704000Y3339520D03*
X10500000Y3304000D03*
X10520000Y3995480D03*
X10630000D03*
X10520000Y3744520D03*
X10630000D03*
X10911500Y-708500D03*
X11211000Y-281000D03*
X11298000Y-448000D03*
X11169500Y-449500D03*
X11170000Y-580000D03*
X11031940Y-588090D03*
X11298570Y-701430D03*
X10920000Y-580000D03*
X11150000Y644520D03*
X11000000D03*
X11345480Y1180000D03*
X11015480D03*
X11150000Y1095480D03*
X11290000Y1090000D03*
X11000000Y1095480D03*
X10920000Y1380000D03*
X11090000Y1230000D03*
X11190000Y1550000D03*
X11290000Y1390000D03*
X11110000Y2045480D03*
Y1715480D03*
X11095180Y2150000D03*
X11000000Y1950000D03*
X11190000Y1910000D03*
X11200000Y1990000D03*
X11194520Y1690000D03*
X10910000Y1949210D03*
Y1830000D03*
X11387500Y2112980D03*
X11095180Y2299000D03*
X11204520Y2625000D03*
X11207900Y2274100D03*
Y2192100D03*
X11204520Y2715000D03*
X11373520Y2670000D03*
X11285000Y3629520D03*
X11420000Y-840000D03*
X11550000Y-830000D03*
X11800000Y-710000D03*
X11549500Y-69500D03*
X11850000Y920000D03*
Y820000D03*
X11412980Y902500D03*
X11500000Y837500D03*
X11412980Y772500D03*
X11660000Y1550000D03*
X11550000Y1350000D03*
X11411000Y1390000D03*
X11550000Y1230790D03*
X11804520Y2090000D03*
X11645480Y1840000D03*
Y1690000D03*
X11520240Y2110240D03*
X11689000Y2534000D03*
X11801520Y2246000D03*
X11452500Y2190000D03*
X11845000Y3065480D03*
X11545000D03*
X11435000Y3031760D03*
X11695000Y2825000D03*
X11845000D03*
X11695000Y3220480D03*
X11409000Y3339520D03*
X11489000D03*
X11505000Y3995480D03*
X11615000D03*
X11725000D03*
X11835000D03*
X11725000Y3744520D03*
X11615000D03*
X11835000D03*
X11505000D03*
X12060000Y-705500D03*
X12312000Y-458000D03*
X12178000Y-330000D03*
X11930000D03*
X12190000Y-200000D03*
X12310000Y60000D03*
X12180000Y-80000D03*
X12020000Y630000D03*
X12320000Y644520D03*
X12170000D03*
X12185480Y1180000D03*
X12269800D03*
X12320000Y1095480D03*
X12020000Y1100000D03*
X12170000Y1095480D03*
X12089210Y1370000D03*
X11970000D03*
X12305480Y2090000D03*
X12340000Y1875000D03*
X11929000Y2519520D03*
X12307480Y2245000D03*
X12169000Y2820480D03*
X11955000Y3041760D03*
X12129000Y3339520D03*
X11969000Y3291000D03*
X11945000Y3995480D03*
X12055000D03*
X11945000Y3744520D03*
X12055000D03*
X12430000Y-459000D03*
X12570000Y-580000D03*
X12697500Y-462500D03*
X12431000Y-331000D03*
X12386000Y230000D03*
X12560000Y-80000D03*
X12710000Y200000D03*
X12515480Y1180000D03*
X12460000Y1090000D03*
X12582980Y902500D03*
X12670000Y837500D03*
X12582980Y772500D03*
X12510000Y1550000D03*
X12698460Y1410010D03*
X12780460Y1409980D03*
X12430000Y2045480D03*
Y1715480D03*
X12517500Y1927500D03*
X12520000Y1990000D03*
X12514520Y1700000D03*
X12707500Y2112980D03*
X12837500D03*
X12772500Y2200000D03*
X12670000Y3480000D03*
X12720000Y3560000D03*
X12820000Y3780000D03*
X12680000Y4430000D03*
X12730000Y4290000D03*
X12800000Y5140000D03*
X12938430Y-832670D03*
X12980030Y-762000D03*
X13050000Y-590000D03*
X12980000Y-680000D03*
X12860000Y-400000D03*
X12990000Y-480000D03*
X13190000Y550000D03*
X12880000Y460000D03*
X13030000Y480000D03*
X13202500Y951920D03*
X12890000Y1200000D03*
X12910000Y837500D03*
X13130000Y1260000D03*
X12900000Y1390000D03*
X13140000Y1600000D03*
X13145290Y1479500D03*
X12890000Y1305400D03*
X13160000Y2120000D03*
X13170000Y1770000D03*
X12955700Y1860000D03*
Y1700000D03*
X12960000Y1770000D03*
X13040000Y2320000D03*
X13072500Y2547500D03*
X13210000Y2330000D03*
X12919520Y2800000D03*
X13074520Y2950000D03*
X13050000Y3040000D03*
X12919520Y3160000D03*
X13074520Y3310000D03*
X13010000Y5010000D03*
X12891540Y5079500D03*
X13074350Y4920000D03*
X13490000Y560000D03*
X13340000Y684520D03*
X13410000Y950000D03*
X13510000Y1260000D03*
X13410000Y1640000D03*
X13500000Y1479500D03*
X13410000Y2130000D03*
G54D20*
G01X516200Y1299230D02*
X565430Y1250000D01*
X1130920D01*
X1360920Y1020000D01*
X1367160D01*
X1378660Y1008500D01*
X1421340D01*
X1432840Y1020000D01*
X2976260D01*
X2980470Y1024210D01*
X4504200D01*
X4669990Y1190000D01*
X6313970D01*
X6330970Y1173000D01*
X6370850D01*
X6403850Y1140000D01*
X6447000D01*
X6470000Y1163000D01*
G01X516200Y1174570D02*
X560630Y1219000D01*
X1118070D01*
X1348070Y989000D01*
X1354310D01*
X1365810Y977500D01*
X1434190D01*
X1445690Y989000D01*
X2989110D01*
X2993320Y993210D01*
X4517050D01*
X4682840Y1159000D01*
X6301120D01*
X6318120Y1142000D01*
X6358000D01*
X6391000Y1109000D01*
X6444800D01*
X6446800Y1107000D01*
X6453000D01*
X6470000Y1090000D01*
Y1081000D01*
G01X882170Y-552670D02*
X923500Y-594000D01*
X926500D01*
X931500Y-599000D01*
X1691360D01*
X1751360Y-539000D01*
X2337150D01*
X2367150Y-509000D01*
X2822850D01*
X2858250Y-544400D01*
X2895970D01*
X2900970Y-539400D01*
X2908820D01*
X2913220Y-535000D01*
X3017930D01*
X3055930Y-573000D01*
X3558880D01*
X3563760Y-568120D01*
X4138240D01*
X4176620Y-606500D01*
X4482300D01*
X4486800Y-611000D01*
X4533200D01*
X4537700Y-606500D01*
X4870450D01*
X4873950Y-603000D01*
X4946050D01*
X4952050Y-609000D01*
X4996160D01*
X5028660Y-641500D01*
X5049910D01*
X5056900Y-648490D01*
X5664130D01*
X5707210Y-605410D01*
X5710740D01*
X5751390Y-564760D01*
X5757360D01*
X5759860Y-562260D01*
X6082270D01*
X6089010Y-569000D01*
X6222850D01*
X6273850Y-620000D01*
X6913310D01*
X6925810Y-607500D01*
X6994190D01*
X6999690Y-613000D01*
X7407850D01*
X7441000Y-646150D01*
Y-656210D01*
X7462000Y-677210D01*
Y-720000D01*
G01X882170Y-677330D02*
X929500Y-630000D01*
X1704210D01*
X1764210Y-570000D01*
X2350000D01*
X2380000Y-540000D01*
X2810000D01*
X2845400Y-575400D01*
X2908820D01*
X2913820Y-570400D01*
X2921670D01*
X2926070Y-566000D01*
X3005080D01*
X3043080Y-604000D01*
X3571730D01*
X3576610Y-599120D01*
X4125390D01*
X4163770Y-637500D01*
X4469450D01*
X4473950Y-642000D01*
X4546050D01*
X4550550Y-637500D01*
X4883300D01*
X4886800Y-634000D01*
X4933200D01*
X4939200Y-640000D01*
X4983310D01*
X5015810Y-672500D01*
X5037060D01*
X5044050Y-679490D01*
X5676980D01*
X5720060Y-636410D01*
X5723590D01*
X5764240Y-595760D01*
X5770210D01*
X5772710Y-593260D01*
X6069420D01*
X6076160Y-600000D01*
X6210000D01*
X6261000Y-651000D01*
X6926160D01*
X6938660Y-638500D01*
X6981340D01*
X6986840Y-644000D01*
X7395000D01*
X7408600Y-657600D01*
X7389000Y-677210D01*
Y-720000D01*
G01X3790000Y200000D02*
X3781000Y191000D01*
X3747210D01*
X3726210Y170000D01*
X3723850D01*
X3328850Y565000D01*
X3128850D01*
X3033850Y660000D01*
X830570D01*
X823280Y659990D01*
X780120Y703150D01*
G01X3790000Y118000D02*
X3747210D01*
X3726210Y139000D01*
X3711000D01*
X3316000Y534000D01*
X3116000D01*
X3021000Y629000D01*
X831620D01*
X830880Y628990D01*
X830610D01*
X780120Y578490D01*
G01X8120000Y970000D02*
X8110000Y980000D01*
X8071800D01*
X8051800Y1000000D01*
X6970990D01*
X6950990Y1020000D01*
X6869010D01*
X6814010Y965000D01*
X6408050D01*
X6406050Y963000D01*
X6333950D01*
X6331950Y965000D01*
X5925200D01*
X5885220Y925020D01*
X5104980D01*
X5010000Y1020000D01*
X4683650D01*
X4664310Y1000660D01*
X4646800D01*
X4614000Y967860D01*
Y953200D01*
X4584800Y924000D01*
X1468390D01*
X1459890Y915500D01*
X1396410D01*
X1263810Y782900D01*
X1095000D01*
X1080000Y767900D01*
Y730790D01*
G01X8120000Y1052000D02*
X8070800D01*
X8049800Y1031000D01*
X6987370D01*
X6964870Y1053500D01*
X6955370D01*
X6952870Y1056000D01*
X6878760D01*
X6873760Y1051000D01*
X6856160D01*
X6801160Y996000D01*
X6395200D01*
X6393200Y994000D01*
X6346800D01*
X6344800Y996000D01*
X5912350D01*
X5872370Y956020D01*
X5117830D01*
X5022850Y1051000D01*
X4670800D01*
X4651460Y1031660D01*
X4633950D01*
X4583000Y980710D01*
Y966050D01*
X4571950Y955000D01*
X1455540D01*
X1447040Y946500D01*
X1383560D01*
X1250960Y813900D01*
X1095000D01*
X1080000Y828900D01*
Y850000D01*
G01X1517440Y1345810D02*
X1477810Y1385440D01*
Y1677800D01*
X1781250Y1981240D01*
X2438810D01*
X2443810Y1976240D01*
X2517040D01*
X2526800Y1986000D01*
X2573200D01*
X2582960Y1976240D01*
X2824040D01*
X2870300Y2022500D01*
X3213650D01*
X3227150Y2009000D01*
X3243430D01*
X3249430Y2003000D01*
X3321530D01*
X3327530Y2009000D01*
X3551010D01*
X3562090Y1997920D01*
X3643960D01*
X3644090Y1997790D01*
X3716190D01*
X3727400Y2009000D01*
X3782850D01*
X3796350Y2022500D01*
X3884450D01*
X3893950Y2013000D01*
X3966050D01*
X3975550Y2022500D01*
X4103650D01*
X4147150Y1979000D01*
X5040060D01*
X5050810Y1968250D01*
X5119190D01*
X5132940Y1982000D01*
X5428850D01*
X5437180Y1973670D01*
X5443280D01*
X5443950Y1973000D01*
X5516050D01*
X5520550Y1977500D01*
X5594190D01*
X5598690Y1982000D01*
X6165840D01*
X6206360Y2022520D01*
X6379680D01*
X6388660Y2031500D01*
X6431340D01*
X6440320Y2022520D01*
X7076210D01*
X7097210Y2001520D01*
X7114990D01*
X7127790Y1988720D01*
G01X1392780Y1345810D02*
X1441810Y1394840D01*
X1446810Y1496320D01*
Y1690650D01*
X1768400Y2012240D01*
X2451660D01*
X2456660Y2007240D01*
X2504190D01*
X2513950Y2017000D01*
X2586050D01*
X2595810Y2007240D01*
X2811190D01*
X2857450Y2053500D01*
X3226500D01*
X3240000Y2040000D01*
X3256280D01*
X3262280Y2034000D01*
X3308680D01*
X3314680Y2040000D01*
X3563860D01*
X3574940Y2028920D01*
X3621340D01*
X3632420Y2040000D01*
X3645730D01*
X3656940Y2028790D01*
X3703340D01*
X3714550Y2040000D01*
X3770000D01*
X3783500Y2053500D01*
X3897300D01*
X3906800Y2044000D01*
X3953200D01*
X3962700Y2053500D01*
X4116500D01*
X4160000Y2010000D01*
X5052910D01*
X5063660Y1999250D01*
X5106340D01*
X5120090Y2013000D01*
X5441700D01*
X5450030Y2004670D01*
X5456130D01*
X5456800Y2004000D01*
X5503200D01*
X5507700Y2008500D01*
X5581340D01*
X5585840Y2013000D01*
X6152990D01*
X6193510Y2053520D01*
X6366830D01*
X6375810Y2062500D01*
X6444190D01*
X6453170Y2053520D01*
X7076210D01*
X7097210Y2074520D01*
X7125480D01*
X7129310Y2070690D01*
X7130020D01*
G01X12089210Y1370000D02*
X12028810Y1430400D01*
Y1446850D01*
X11995660Y1480000D01*
X11010010D01*
X10950010Y1540000D01*
X10917710D01*
X10916050Y1541660D01*
X10843950D01*
X10842290Y1540000D01*
X10697070D01*
X10652470Y1495400D01*
X10187600D01*
X10163000Y1520000D01*
X9896390D01*
X9867390Y1491000D01*
X9629010D01*
X9481510Y1638500D01*
X8313180D01*
X8311680Y1640000D01*
X8290990D01*
X8266300Y1664690D01*
Y1671050D01*
X8215350Y1722000D01*
X8208000D01*
X8200000Y1730000D01*
X7979900D01*
X7978870Y1731030D01*
X7139720D01*
X7121750Y1749000D01*
X6998250D01*
X6979250Y1730000D01*
X5283050D01*
X5266050Y1747000D01*
X5193950D01*
X5176950Y1730000D01*
X4430000D01*
X4410000Y1710000D01*
X3909200D01*
X3903200Y1704000D01*
X3898750D01*
X3896370Y1701620D01*
X3849970D01*
X3841590Y1710000D01*
X2400000D01*
X1956900Y1266900D01*
X1936900D01*
X1892170Y1311630D01*
G01X11970000Y1370000D02*
X11997810Y1397810D01*
Y1434000D01*
X11982810Y1449000D01*
X10997160D01*
X10937160Y1509000D01*
X10904860D01*
X10903200Y1510660D01*
X10856800D01*
X10855140Y1509000D01*
X10709920D01*
X10665320Y1464400D01*
X10420040D01*
X10415040Y1459400D01*
X10159390D01*
X10144190Y1474600D01*
X10039100D01*
X10024700Y1489000D01*
X9909240D01*
X9880240Y1460000D01*
X9616160D01*
X9468660Y1607500D01*
X8300330D01*
X8298830Y1609000D01*
X8278140D01*
X8235300Y1651840D01*
Y1658200D01*
X8202500Y1691000D01*
X8195150D01*
X8187150Y1699000D01*
X7967050D01*
X7966020Y1700030D01*
X7126870D01*
X7108900Y1718000D01*
X7011100D01*
X6992100Y1699000D01*
X5270200D01*
X5253200Y1716000D01*
X5206800D01*
X5189800Y1699000D01*
X4442850D01*
X4422850Y1679000D01*
X3922050D01*
X3916050Y1673000D01*
X3911600D01*
X3909220Y1670620D01*
X3837120D01*
X3828740Y1679000D01*
X2412850D01*
X1969750Y1235900D01*
X1953280D01*
X1950770Y1233390D01*
X1938590D01*
X1892170Y1186970D01*
G01X12980000Y-680000D02*
X12961000Y-699000D01*
X12897150D01*
X12727150Y-869000D01*
X11590200D01*
X11563200Y-896000D01*
X11286800D01*
X11259800Y-869000D01*
X10715790D01*
X10710790Y-874000D01*
X8444010D01*
X8404410Y-834400D01*
X7268250D01*
X7241350Y-807500D01*
X7160550D01*
X7156050Y-803000D01*
X7083950D01*
X7079450Y-807500D01*
X6911330D01*
X6893830Y-790000D01*
X6296150D01*
X6277150Y-809000D01*
X6152840D01*
X6103840Y-760000D01*
X5950000D01*
X5887520Y-697520D01*
X5726330D01*
X5706350Y-717500D01*
X5070550D01*
X5066050Y-713000D01*
X4993950D01*
X4972450Y-734500D01*
X4944700D01*
X4933200Y-746000D01*
X4886800D01*
X4881300Y-740500D01*
X4869130D01*
X4863130Y-734500D01*
X4277860D01*
X4257860Y-714500D01*
X3438910D01*
X3430670Y-706260D01*
X3249190D01*
X3240950Y-714500D01*
X3074700D01*
X3073200Y-716000D01*
X3026800D01*
X3025300Y-714500D01*
X2999710D01*
X2995210Y-710000D01*
X2683050D01*
X2676050Y-703000D01*
X2583000D01*
X2550000Y-670000D01*
X2510000D01*
G01X12980030Y-762000D02*
X12948030Y-730000D01*
X12910000D01*
X12740000Y-900000D01*
X11603050D01*
X11576050Y-927000D01*
X11273950D01*
X11246950Y-900000D01*
X10728640D01*
X10723640Y-905000D01*
X8431160D01*
X8391560Y-865400D01*
X7255400D01*
X7228500Y-838500D01*
X7147700D01*
X7143200Y-834000D01*
X7096800D01*
X7092300Y-838500D01*
X6898480D01*
X6880980Y-821000D01*
X6309000D01*
X6290000Y-840000D01*
X6139990D01*
X6090990Y-791000D01*
X5937150D01*
X5874670Y-728520D01*
X5739180D01*
X5719200Y-748500D01*
X5057700D01*
X5053200Y-744000D01*
X5006800D01*
X4985300Y-765500D01*
X4957550D01*
X4946050Y-777000D01*
X4873950D01*
X4868450Y-771500D01*
X4856280D01*
X4852630Y-767860D01*
X4851180D01*
X4848820Y-765500D01*
X4265010D01*
X4245010Y-745500D01*
X3426060D01*
X3417820Y-737260D01*
X3262040D01*
X3253800Y-745500D01*
X3087550D01*
X3086050Y-747000D01*
X3013950D01*
X3012450Y-745500D01*
X2986860D01*
X2982360Y-741000D01*
X2670200D01*
X2663200Y-734000D01*
X2576800D01*
X2567800Y-743000D01*
X2539000D01*
X2530000Y-752000D01*
X2510000D01*
G01X10400000Y-710000D02*
X10232520Y-542520D01*
X10203440D01*
X10179920Y-519000D01*
X9832850D01*
X9813350Y-499500D01*
X9682550D01*
X9676050Y-493000D01*
X9168050D01*
X9167050Y-492000D01*
X8687200D01*
X8680200Y-499000D01*
X8530200D01*
X8526200Y-503000D01*
X8473800D01*
X8469800Y-499000D01*
X8278200D01*
X8273200Y-504000D01*
X8226800D01*
X8221800Y-499000D01*
X8151200D01*
X8138700Y-511500D01*
X8054680D01*
X8047330Y-518840D01*
X7770360D01*
X7763200Y-526000D01*
X7716800D01*
X7709800Y-519000D01*
X6800200D01*
X6793200Y-526000D01*
X6746800D01*
X6739800Y-519000D01*
X6644720D01*
X6633200Y-530520D01*
X6586800D01*
X6575280Y-519000D01*
X6524720D01*
X6513200Y-530520D01*
X6466800D01*
X6455280Y-519000D01*
X6369550D01*
X6350550Y-500000D01*
X6222950D01*
X6216950Y-506000D01*
X6170550D01*
X6164550Y-500000D01*
X5796830D01*
X5730810Y-433980D01*
X5657630D01*
X5637210Y-413560D01*
X5501610D01*
X5496050Y-408000D01*
X5423950D01*
X5418390Y-413560D01*
X5296430D01*
X5269990Y-440000D01*
X4949200D01*
X4943200Y-446000D01*
X4750350D01*
X4742370Y-453980D01*
X4476500D01*
X4474870Y-455610D01*
X4419450D01*
X4378520Y-414680D01*
Y-411150D01*
X4358900Y-391530D01*
X4351900D01*
X4349400Y-394030D01*
X4165970D01*
X4114000Y-446000D01*
X3596010D01*
X3544040Y-394030D01*
X3074400D01*
X3040070Y-359700D01*
Y-354820D01*
G01X10270000Y-710000D02*
Y-652930D01*
X10167070Y-550000D01*
X9820000D01*
X9800500Y-530500D01*
X9669700D01*
X9663200Y-524000D01*
X9155200D01*
X9154200Y-523000D01*
X8700050D01*
X8693050Y-530000D01*
X8543050D01*
X8539050Y-534000D01*
X8460950D01*
X8456950Y-530000D01*
X8291050D01*
X8286050Y-535000D01*
X8213950D01*
X8208950Y-530000D01*
X8164050D01*
X8151550Y-542500D01*
X8067510D01*
X8060170Y-549840D01*
X7783210D01*
X7776050Y-557000D01*
X7703950D01*
X7696950Y-550000D01*
X6813050D01*
X6806050Y-557000D01*
X6733950D01*
X6726950Y-550000D01*
X6657570D01*
X6646050Y-561520D01*
X6573950D01*
X6562430Y-550000D01*
X6537570D01*
X6526050Y-561520D01*
X6453950D01*
X6442430Y-550000D01*
X6356700D01*
X6337700Y-531000D01*
X6235800D01*
X6229800Y-537000D01*
X6157700D01*
X6151700Y-531000D01*
X5783980D01*
X5717960Y-464980D01*
X5644780D01*
X5624360Y-444560D01*
X5488760D01*
X5483200Y-439000D01*
X5436800D01*
X5431240Y-444560D01*
X5309280D01*
X5282840Y-471000D01*
X4962050D01*
X4956050Y-477000D01*
X4763200D01*
X4755220Y-484980D01*
X4489350D01*
X4487720Y-486610D01*
X4406600D01*
X4345020Y-425030D01*
X4178820D01*
X4126850Y-477000D01*
X3583160D01*
X3531190Y-425030D01*
X3053800D01*
X3042040Y-436790D01*
X3037600D01*
G01X9390000Y430000D02*
X9352730Y392730D01*
Y382730D01*
X9340000Y370000D01*
X9319990D01*
X9270990Y321000D01*
X9264310D01*
X9125500Y182190D01*
Y174300D01*
X9092700Y141500D01*
X9084810D01*
X8650460Y-292850D01*
X8159990D01*
X8151340Y-301500D01*
X8108660D01*
X8103380Y-296220D01*
X8088920D01*
X8085550Y-292850D01*
X6525150D01*
X6476750Y-244450D01*
X5655540D01*
X5635490Y-264500D01*
X5359700D01*
X5358200Y-266000D01*
X4984800D01*
X4983300Y-264500D01*
X4654230D01*
X4649730Y-260000D01*
X4550270D01*
X4545770Y-264500D01*
X4164700D01*
X4164550Y-264650D01*
X4078150D01*
X4078000Y-264500D01*
X3874230D01*
X3869730Y-260000D01*
X3770270D01*
X3765770Y-264500D01*
X3284500D01*
X3180000Y-160000D01*
X3090800D01*
X3070800Y-140000D01*
X3054500D01*
X3045990Y-131490D01*
X3042630D01*
X3031120Y-119980D01*
X2996940D01*
G01X9387010Y317490D02*
X9337490D01*
X9300000Y280000D01*
X9267160D01*
X9156500Y169340D01*
Y161450D01*
X9105550Y110500D01*
X9097660D01*
X8663310Y-323850D01*
X8172840D01*
X8164190Y-332500D01*
X8095810D01*
X8090530Y-327220D01*
X8076070D01*
X8072700Y-323850D01*
X6512300D01*
X6463900Y-275450D01*
X5668390D01*
X5648340Y-295500D01*
X5372550D01*
X5371050Y-297000D01*
X4971950D01*
X4970450Y-295500D01*
X4641380D01*
X4636880Y-291000D01*
X4563120D01*
X4558620Y-295500D01*
X4177550D01*
X4177400Y-295650D01*
X4065300D01*
X4065150Y-295500D01*
X3861380D01*
X3856880Y-291000D01*
X3783120D01*
X3778620Y-295500D01*
X3271650D01*
X3167150Y-191000D01*
X3077950D01*
X3057950Y-171000D01*
X3043500D01*
X3028000Y-186500D01*
X3015510D01*
X3000080Y-201930D01*
G01X2933030Y1350000D02*
X2893400Y1310370D01*
Y1282080D01*
X3087180Y1088300D01*
X3418300D01*
X3490000Y1160000D01*
X4470000D01*
X4598500Y1288500D01*
X5202300D01*
X5206800Y1284000D01*
X5253200D01*
X5259200Y1290000D01*
X6236160D01*
X6296160Y1350000D01*
X6470000D01*
X6510000Y1390000D01*
X6653310D01*
X6655810Y1392500D01*
X6922500D01*
X7038500Y1508500D01*
X7578500D01*
X7672500Y1602500D01*
X7689450D01*
X7692950Y1606000D01*
X7772550D01*
X7773370Y1606820D01*
X7855160D01*
X7855370Y1607030D01*
X7927470D01*
X7932000Y1602500D01*
X7957500D01*
X8210000Y1350000D01*
X8447160D01*
X8458660Y1338500D01*
X9031500D01*
X9072990Y1297010D01*
X9106850D01*
X9140000Y1263860D01*
Y1223790D01*
X9161000Y1202790D01*
Y1141000D01*
X9160000Y1140000D01*
G01X2808370Y1350000D02*
X2862400Y1295970D01*
Y1269230D01*
X3074330Y1057300D01*
X3431150D01*
X3502850Y1129000D01*
X4482850D01*
X4611350Y1257500D01*
X5189450D01*
X5193950Y1253000D01*
X5266050D01*
X5272050Y1259000D01*
X6249010D01*
X6309010Y1319000D01*
X6482850D01*
X6522850Y1359000D01*
X6666160D01*
X6668660Y1361500D01*
X6935350D01*
X7051350Y1477500D01*
X7591350D01*
X7685350Y1571500D01*
X7702300D01*
X7705800Y1575000D01*
X7785400D01*
X7786220Y1575820D01*
X7868010D01*
X7868220Y1576030D01*
X7914620D01*
X7919150Y1571500D01*
X7944650D01*
X8197150Y1319000D01*
X8434310D01*
X8445810Y1307500D01*
X9018650D01*
X9060140Y1266010D01*
X9094000D01*
X9109000Y1251010D01*
Y1223790D01*
X9088000Y1202790D01*
Y1150000D01*
X9078000Y1140000D01*
G01X3339930Y-925260D02*
X3345190Y-920000D01*
X3429450D01*
X3433370Y-923920D01*
X3453130D01*
X3520710Y-991500D01*
X7126200D01*
X7131200Y-986500D01*
X7519310D01*
X7600810Y-905000D01*
X7822850D01*
X7841070Y-923220D01*
X7853910D01*
X7929210Y-998520D01*
Y-1000000D01*
G01X3429930Y-979920D02*
Y-993320D01*
X3454110Y-1017500D01*
X3498870D01*
X3503870Y-1022500D01*
X7139050D01*
X7144050Y-1017500D01*
X7532160D01*
X7613660Y-936000D01*
X7795000D01*
X7810000Y-951000D01*
Y-1000000D01*
G01X8129150Y535400D02*
Y528230D01*
X8091920Y491000D01*
X7604280D01*
X7363280Y250000D01*
X6920010D01*
X6904510Y234500D01*
X6902840D01*
X6733740Y65400D01*
X5315390D01*
X5219990Y-30000D01*
X4526020D01*
X4525510Y-30510D01*
X4482830D01*
X4482320Y-30000D01*
X3653840D01*
X3565340Y58500D01*
X3271540D01*
X3255010Y75030D01*
G01X8133640Y453520D02*
X8111250D01*
X8104770Y460000D01*
X7617130D01*
X7376130Y219000D01*
X6932860D01*
X6917360Y203500D01*
X6915690D01*
X6746590Y34400D01*
X5328240D01*
X5232840Y-61000D01*
X4538870D01*
X4538360Y-61510D01*
X4469980D01*
X4469470Y-61000D01*
X3640990D01*
X3552490Y27500D01*
X3289410D01*
X3254940Y-6970D01*
G01X11550000Y1350000D02*
X11525400Y1325400D01*
X11504120D01*
X11495720Y1317000D01*
X11053950D01*
X11052950Y1316000D01*
X10996000D01*
X10920000Y1240000D01*
X10732930D01*
X10662930Y1310000D01*
X9680000D01*
X9500000Y1490000D01*
X8787160D01*
X8783160Y1494000D01*
X8688250D01*
X8675650Y1506600D01*
X8603550D01*
X8590950Y1494000D01*
X8549050D01*
X8536050Y1507000D01*
X8463950D01*
X8450950Y1494000D01*
X8306800D01*
X8288300Y1512500D01*
X8197500D01*
X8042000Y1668000D01*
X7954200D01*
X7953170Y1669030D01*
X7114020D01*
X7096050Y1687000D01*
X7023950D01*
X6973000Y1636050D01*
Y1629690D01*
X6883310Y1540000D01*
X6543310D01*
X6483320Y1480010D01*
X5109990D01*
X5077100Y1512900D01*
X5057530D01*
X4615180Y1517900D01*
X4157900D01*
X3908510Y1268510D01*
X3404760D01*
X3365820Y1307450D01*
G01X11550000Y1230790D02*
X11494790Y1286000D01*
X11066800D01*
X11065800Y1285000D01*
X11008850D01*
X10932850Y1209000D01*
X10720080D01*
X10650080Y1279000D01*
X9667150D01*
X9487150Y1459000D01*
X8774310D01*
X8770310Y1463000D01*
X8675400D01*
X8662800Y1475600D01*
X8616400D01*
X8603800Y1463000D01*
X8536200D01*
X8523200Y1476000D01*
X8476800D01*
X8463800Y1463000D01*
X8293950D01*
X8275450Y1481500D01*
X8184650D01*
X8029150Y1637000D01*
X7941350D01*
X7940320Y1638030D01*
X7101170D01*
X7083200Y1656000D01*
X7036800D01*
X7004000Y1623200D01*
Y1616840D01*
X6896160Y1509000D01*
X6556160D01*
X6496170Y1449010D01*
X6164890D01*
X6164570Y1448690D01*
X6163950D01*
X6163630Y1449010D01*
X5097140D01*
X5064330Y1481820D01*
X4615000Y1486900D01*
X4170750D01*
X3921360Y1237510D01*
X3420540D01*
X3365820Y1182790D01*
G01X7590000Y178000D02*
X7632790D01*
X7653790Y199000D01*
X7782850D01*
X7843850Y260000D01*
X7945310D01*
X7986310Y219000D01*
X8216070D01*
X8224850Y227780D01*
X8271250D01*
X8350030Y149000D01*
X8440500D01*
X8455500Y134000D01*
Y104500D01*
X8500000Y60000D01*
G01Y180000D02*
X8362880D01*
X8284100Y258780D01*
X8212000D01*
X8203220Y250000D01*
X7999160D01*
X7958160Y291000D01*
X7831000D01*
X7770000Y230000D01*
X7653790D01*
X7632790Y251000D01*
X7590000D01*
G01X7490000Y1989770D02*
X7546270Y1933500D01*
X8846140D01*
X8884000Y1895640D01*
Y1879100D01*
X8916800Y1846300D01*
X8933340D01*
X9028640Y1751000D01*
X9509000D01*
X9620880Y1639120D01*
X9729140D01*
X9730770Y1637490D01*
X10031180D01*
X10034670Y1635540D01*
X10285540D01*
X10310000Y1660000D01*
Y1690000D01*
G01X7490000Y1865110D02*
X7527390Y1902500D01*
X8833290D01*
X8853000Y1882790D01*
Y1866250D01*
X8903950Y1815300D01*
X8920490D01*
X9015790Y1720000D01*
X9496150D01*
X9608030Y1608120D01*
X9716290D01*
X9717920Y1606490D01*
X10023100D01*
X10026590Y1604540D01*
X10265460D01*
X10300000Y1570000D01*
G01X9020000Y1974660D02*
X9021110Y1955710D01*
X9062240Y1919120D01*
X9185680D01*
X9191800Y1913000D01*
X9248960D01*
X9255080Y1919120D01*
X9547680D01*
X9552560Y1924000D01*
X9613200D01*
X9623200Y1934000D01*
X9783200D01*
X9799200Y1950000D01*
X10360000D01*
G01X9027110Y1853080D02*
X9058290Y1888120D01*
X9172830D01*
X9178950Y1882000D01*
X9261810D01*
X9267930Y1888120D01*
X9560530D01*
X9565410Y1893000D01*
X9626050D01*
X9636050Y1903000D01*
X9796050D01*
X9812050Y1919000D01*
X10291000D01*
X10361760Y1848240D01*
G54D11*
X0Y0D03*
X250000Y5460000D03*
X7000000Y0D03*
X12905000Y5460000D03*
X13300000Y0D03*
G54D21*
G01X2850000Y-20000D02*
X2790000D01*
X2775210Y-5210D01*
X2714800D01*
X2620010Y-100000D01*
X2350000D01*
X2260000Y-190000D01*
X1520000D01*
X1430000Y-100000D01*
X590000D01*
X470000Y20000D01*
G01X3690000Y-890000D02*
X3655210Y-855210D01*
X3643530D01*
X3638320Y-850000D01*
X3391960D01*
X3377220Y-835260D01*
X3302640D01*
X3287900Y-850000D01*
X3166670D01*
X3092170Y-924500D01*
X1774510D01*
X1730010Y-880000D01*
X1390800D01*
X1300000Y-789200D01*
Y-740000D01*
G01X4890000Y-880000D02*
X4840800D01*
X4777800Y-943000D01*
X4054290D01*
X4047290Y-950000D01*
X3972710D01*
X3965710Y-943000D01*
X3717620D01*
X3713620Y-947000D01*
X3666380D01*
X3662380Y-943000D01*
X3573000D01*
X3520000Y-890000D01*
X3444710D01*
X3442710Y-888000D01*
X3383290D01*
X3363550Y-868260D01*
X3316310D01*
X3294570Y-890000D01*
X3260000D01*
X3140000Y-1010000D01*
X1690000D01*
X1650000Y-970000D01*
G01X4390000Y-870000D02*
X4340800D01*
X4300800Y-910000D01*
X4040620D01*
X4033620Y-917000D01*
X3986380D01*
X3979380Y-910000D01*
X3920010D01*
X3820510Y-810500D01*
X3399130D01*
X3390890Y-802260D01*
X3288970D01*
X3280730Y-810500D01*
X3159500D01*
X3078500Y-891500D01*
X1801500D01*
X1750000Y-840000D01*
X1581150D01*
X1491150Y-750000D01*
G01X1590000Y-760000D02*
X2290000D01*
X2377000Y-847000D01*
X2722990D01*
X2796990Y-773000D01*
X2969100D01*
X2973600Y-777500D01*
X2999190D01*
X3000690Y-779000D01*
X3099310D01*
X3100810Y-777500D01*
X3267060D01*
X3275300Y-769260D01*
X3404560D01*
X3412800Y-777500D01*
X4231750D01*
X4251750Y-797500D01*
X4835560D01*
X4841560Y-803500D01*
X4855190D01*
X4860690Y-809000D01*
X4959310D01*
X4968310Y-800000D01*
X5030000D01*
G01X1900000Y560000D02*
X1934790Y525210D01*
X2324790D01*
X2360000Y490000D01*
X2610000D01*
X2640000Y460000D01*
X3140000D01*
X3170000Y430000D01*
X3330000D01*
G01X4910000Y-690000D02*
X4856300D01*
X4855300Y-689000D01*
X4569000D01*
X4556970Y-676970D01*
X3446640D01*
X3443930Y-674260D01*
X3117960D01*
X3103700Y-660000D01*
X3050000D01*
G01X3400000Y-200000D02*
X3437980Y-162020D01*
X4067360D01*
X4077730Y-151650D01*
X4124970D01*
X4130820Y-157500D01*
X4161750D01*
X4174250Y-170000D01*
X4274500D01*
G01X3640000Y-360000D02*
X3759380D01*
X3796380Y-323000D01*
X3843620D01*
X3848120Y-327500D01*
X4051890D01*
X4052040Y-327650D01*
X4190660D01*
X4190810Y-327500D01*
X4571880D01*
X4576380Y-323000D01*
X4623620D01*
X4628120Y-327500D01*
X4957190D01*
X4958690Y-329000D01*
X4977500D01*
X4978500Y-330000D01*
X5990800D01*
X6000800Y-340000D01*
X6050000D01*
G01X5540000Y-200000D02*
X5486300D01*
X5436300Y-150000D01*
X5250010D01*
X5200010Y-100000D01*
X3600000D01*
G01X6660000Y670000D02*
X6622020Y707980D01*
X6617500D01*
X6610690Y714790D01*
X4762760D01*
X4746910Y698940D01*
X4699670D01*
X4688610Y710000D01*
X3885620D01*
X3881120Y714500D01*
X3833880D01*
X3800500Y681120D01*
Y680500D01*
X3750000Y630000D01*
G01X6150000Y1820000D02*
X6112020Y1857980D01*
X5586270D01*
X5584250Y1860000D01*
X5250000D01*
X5152020Y1762020D01*
X4057980D01*
X4020000Y1800000D01*
G01X6250000Y1960000D02*
X6196300D01*
X6186300Y1950000D01*
X5621950D01*
X5607450Y1935500D01*
X4128200D01*
X4103700Y1960000D01*
X4050000D01*
G01X6332220Y1934500D02*
Y1912220D01*
X6315210Y1895210D01*
X6294050D01*
X6291760Y1897500D01*
X3970000D01*
G01X6430000Y2270000D02*
X6370000Y2330000D01*
X5627500D01*
X5560000Y2262500D01*
G01X6480170Y3797680D02*
X6518150Y3759700D01*
X6530300D01*
X6660000Y3630000D01*
X6900000D01*
X6972000Y3558000D01*
X8268900D01*
X8270900Y3560000D01*
X8540000D01*
X8811000Y3289000D01*
X8910380D01*
X8926380Y3273000D01*
X8973620D01*
X8992640Y3292020D01*
X9002020D01*
X9040000Y3330000D01*
G01X10910000Y1949210D02*
X10691710Y2167500D01*
X10308120D01*
X10303620Y2163000D01*
X10256380D01*
X10206880Y2212500D01*
X10044440D01*
X10031870Y2225070D01*
X9984630D01*
X9982810Y2223250D01*
X9982630D01*
X9971880Y2212500D01*
X9853120D01*
X9763620Y2123000D01*
X9763000D01*
X9738500Y2098500D01*
X9687580D01*
X9683080Y2094000D01*
X9536010D01*
X9460010Y2170000D01*
X9001810D01*
X8991810Y2180000D01*
X8890010D01*
X8760010Y2050000D01*
X8459990D01*
X8411490Y2098500D01*
X8154440D01*
X8092940Y2160000D01*
X7810000D01*
X7790000Y2180000D01*
X7410000D01*
X7300000Y2070000D01*
Y1983440D01*
X7262830Y1946270D01*
Y1939900D01*
X7229450Y1906520D01*
X7182210D01*
X7177710Y1911020D01*
X7018980D01*
X6940000Y1990000D01*
X6820000D01*
X6770000Y1940000D01*
G01X6815000Y2260000D02*
X6852980Y2297980D01*
Y2302980D01*
X6902500Y2352500D01*
X8271880D01*
X8276380Y2357000D01*
X8323620D01*
X8328120Y2352500D01*
X8617500D01*
X8680000Y2290000D01*
X8730000D01*
G01X6645000Y3795000D02*
X6760000Y3680000D01*
X6979860D01*
X6986380Y3686520D01*
X7033620D01*
X7040140Y3680000D01*
X8074100D01*
X8176100Y3782000D01*
X8512000D01*
X8912020Y3381980D01*
Y3367980D01*
X8950000Y3330000D01*
G01X7020000Y1844500D02*
X7254500D01*
X7350000Y1940000D01*
Y1969380D01*
X7343000Y1976380D01*
Y2023620D01*
X7350000Y2030620D01*
Y2050000D01*
X7442500Y2142500D01*
X7501400D01*
X7505900Y2147000D01*
X7553140D01*
X7557640Y2142500D01*
X7727500D01*
X7832500Y2037500D01*
X8002360D01*
X8006860Y2033000D01*
X8054100D01*
X8081100Y2060000D01*
X8403320D01*
X8453320Y2010000D01*
X8974720D01*
X8996380Y2031660D01*
X9043620D01*
X9065280Y2010000D01*
X9119380D01*
X9156380Y2047000D01*
X9203620D01*
X9213120Y2037500D01*
X9427360D01*
X9431860Y2033000D01*
X9479100D01*
X9488600Y2042500D01*
X9731880D01*
X9736380Y2047000D01*
X9783620D01*
X9788120Y2042500D01*
X10346400D01*
X10355900Y2033000D01*
X10403140D01*
X10412640Y2042500D01*
X10697500D01*
X10910000Y1830000D01*
G01X8759060Y500290D02*
X8709350Y550000D01*
X8440000D01*
X8353970Y636030D01*
Y700000D01*
G01X8491430Y301430D02*
X8612860Y180000D01*
X8939780D01*
X8940940Y178840D01*
X9010000D01*
G54D12*
X-33500Y1177000D03*
X-160500D03*
X220500D03*
X100000Y1510000D03*
X-30000Y1507000D03*
X-160000D03*
X230000Y1500000D03*
X-160500Y1963000D03*
X220500D03*
X93500D03*
X-33500D03*
X360000Y1177000D03*
Y1423000D03*
X1013000Y2160000D03*
X1400000Y1060000D03*
X1800000Y1090000D03*
X2443000Y2160000D03*
X3863000D03*
X5350000D03*
X6960000Y-430000D03*
X7316750Y-709520D03*
X7120000Y-700000D03*
X7462000Y-720000D03*
X7389000D03*
X7210000Y-700000D03*
X7440000Y1290000D03*
X7558500Y-771500D03*
X7530000Y-670000D03*
X7991000Y-709000D03*
X7744000Y-700000D03*
X7740000Y-450000D03*
X7524170Y140000D03*
X7590000Y-240000D03*
X7743000Y-80000D03*
X7977910Y66090D03*
X7987000Y-70000D03*
X7865000Y-75000D03*
X7590000Y178000D03*
X7524170Y289000D03*
X7799500Y579500D03*
X7590000Y251000D03*
X8237070Y-714930D03*
X8110070D03*
X8364070Y-587930D03*
X8380000Y-445000D03*
X8360000Y65000D03*
X8122530Y-240660D03*
X8247370Y-76370D03*
X8372500Y-77500D03*
X8370000Y309000D03*
X8233170Y316700D03*
X8119500Y310500D03*
X8002000Y320000D03*
X8745070Y-714930D03*
X8618070D03*
X8495000Y-705000D03*
X8871000Y-700000D03*
X8650000Y70000D03*
X8615000Y-210000D03*
X8500000Y180000D03*
Y60000D03*
X8502500Y-77500D03*
X8644970Y313270D03*
X9253070Y-714930D03*
X9126070D03*
X9000000Y-702000D03*
X9257000Y-330000D03*
X9270000Y-210000D03*
X9123000Y-190000D03*
X9388000Y180000D03*
X9360000Y700000D03*
X9069500Y479500D03*
X9000000Y302000D03*
X9761070Y-714930D03*
X9634070D03*
X9507070Y-587930D03*
X9887000Y-700000D03*
X9761000Y-320000D03*
X9507070Y-79930D03*
X9761070Y47070D03*
X9888070Y174070D03*
X9780000Y-85000D03*
X9759000Y190000D03*
X9774930Y314930D03*
X10142070Y-714930D03*
X10014000Y-700000D03*
X10394000Y-590000D03*
X10155930Y60930D03*
X10028930Y-66070D03*
X10149500Y-199500D03*
X10409930Y-66070D03*
X10022000Y-200000D03*
X10413000Y-210000D03*
X10155930Y314930D03*
X10411000Y300000D03*
X10020000Y310000D03*
X10904070Y-320070D03*
X10650070Y-714930D03*
X10532000Y-710000D03*
X10536930Y-193070D03*
X10904070Y-66070D03*
X10536930Y314930D03*
X11158070Y-714930D03*
X11040000Y-710000D03*
X11298930Y60930D03*
X10917930D03*
Y-193070D03*
X11298930D03*
X11285070Y-66070D03*
X11020000Y320000D03*
X11793070Y-460930D03*
X11666070D03*
Y-714930D03*
X11690000Y170000D03*
X11800000Y-73000D03*
X11410000Y-200000D03*
X11670000Y-210000D03*
X11830000Y650000D03*
X11675000Y310000D03*
X11510000Y610000D03*
X12301070Y-714930D03*
X12174070D03*
Y-460930D03*
X12320000Y-569000D03*
X11930000Y-584000D03*
X12060930Y60930D03*
X12060000Y-79000D03*
X12320000Y-212000D03*
X11920000Y-80000D03*
X12050000Y177000D03*
X11920000Y47000D03*
X11918000Y172000D03*
X12060930Y314930D03*
X12682070Y-714930D03*
X12428070Y-587930D03*
X12550000Y-696000D03*
X12680000Y-572000D03*
X12713500Y-263500D03*
X12700000Y30000D03*
X12420000Y-60000D03*
X12440000Y-195000D03*
X12692000Y-70000D03*
X12562000Y-200000D03*
X12441930Y314930D03*
X12726210Y293790D03*
G54D13*
X680000Y-240000D03*
Y-494000D03*
Y14000D03*
X6910000Y650000D03*
Y396000D03*
Y904000D03*
X13430000Y2683000D03*
Y2429000D03*
Y2937000D03*
Y3191000D03*
Y3526000D03*
Y3780000D03*
Y4034000D03*
G54D14*
X650000Y920000D03*
X13140000Y4030000D03*
G54D15*
X632500Y2920000D03*
Y3420000D03*
Y3890000D03*
X1345000Y2460000D03*
X1825000D03*
X2057500Y3890000D03*
X2770000Y2460000D03*
X3250000D03*
X3482500Y2670000D03*
Y3670000D03*
Y4670000D03*
Y5670000D03*
X4195000Y2460000D03*
X4675000D03*
X4907500Y2920000D03*
Y3420000D03*
Y3890000D03*
X5620000Y2460000D03*
X6100000D03*
X6332500Y3890000D03*
X6797500Y2920000D03*
Y3420000D03*
Y3890000D03*
X7510000Y2460000D03*
X7990000D03*
X8222500Y3890000D03*
X8935000Y2460000D03*
X9415000D03*
X9647500Y2670000D03*
Y3670000D03*
Y4670000D03*
Y5670000D03*
X10360000Y2460000D03*
X10840000D03*
X11072500Y2920000D03*
Y3420000D03*
Y3890000D03*
X11785000Y2460000D03*
X12265000D03*
X12497500Y3890000D03*
G54D16*
X632500Y4170000D03*
Y5170000D03*
Y6170000D03*
X950000Y4670000D03*
X1200000Y6170000D03*
X1490000Y4670000D03*
X2057500Y2670000D03*
Y3670000D03*
Y4670000D03*
Y5670000D03*
X2375000Y4670000D03*
X2625000Y6170000D03*
X2915000Y4670000D03*
X3800000D03*
X4050000Y6170000D03*
X4340000Y4670000D03*
X4907500Y4170000D03*
Y5170000D03*
Y6170000D03*
X5225000Y4670000D03*
X5475000Y6170000D03*
X5765000Y4670000D03*
X6332500Y2670000D03*
Y3670000D03*
Y4670000D03*
Y5670000D03*
X6797500Y4170000D03*
Y5170000D03*
Y6170000D03*
X7115000Y4670000D03*
X7365000Y6170000D03*
X7655000Y4670000D03*
X8222500Y2670000D03*
Y3670000D03*
Y4670000D03*
X8540000D03*
X8222500Y5670000D03*
X8790000Y6170000D03*
X9080000Y4670000D03*
X9965000D03*
X10505000D03*
X10215000Y6170000D03*
X11072500Y4170000D03*
X11390000Y4670000D03*
X11072500Y5170000D03*
Y6170000D03*
X11930000Y4670000D03*
X11640000Y6170000D03*
X12497500Y2670000D03*
Y3670000D03*
Y4670000D03*
Y5670000D03*
G54D17*
X864000Y3080000D03*
X1824000D03*
X2289000D03*
X3249000D03*
X3714000D03*
X4674000D03*
X5139000D03*
X6099000D03*
X7034000D03*
X7994000D03*
X8459000D03*
X9419000D03*
X9884000D03*
X10844000D03*
X11309000D03*
X12269000D03*
G54D18*
X7430000Y-200000D03*
X12868000Y105000D03*
G54D19*
G01X248000Y4316000D02*
X266670Y4328000D01*
X277330Y4344000D01*
X280000Y4362000D01*
X277330Y4378000D01*
X264000Y4394000D01*
X248000Y4404000D01*
X232000Y4406000D01*
X213340Y4402000D01*
X200000Y4388000D01*
X194670Y4374000D01*
Y4356000D01*
G01Y4374000D02*
X186670Y4386000D01*
X173340Y4396000D01*
X157340Y4400000D01*
X141330Y4396000D01*
X128000Y4386000D01*
X120000Y4368000D01*
X122670Y4350000D01*
X133340Y4332000D01*
M02*
