G04 ================== begin FILE IDENTIFICATION RECORD ==================*
G04 Layout Name:  pc065c_fibv2_toplevel_19.brd*
G04 Film Name:    art_pc065a_L08P.ger*
G04 File Format:  Gerber RS274X*
G04 File Origin:  Cadence Allegro 17.4-S011*
G04 Origin Date:  Thu Apr  4 13:41:42 2024*
G04 *
G04 Layer:  VIA CLASS/BOTTOM*
G04 Layer:  PIN/BOTTOM*
G04 Layer:  ETCH/BOTTOM*
G04 *
G04 Offset:    (0.000 0.000)*
G04 Mirror:    No*
G04 Mode:      Positive*
G04 Rotation:  0*
G04 FullContactRelief:  No*
G04 UndefLineWidth:     0.200*
G04 ================== end FILE IDENTIFICATION RECORD ====================*
%FSLAX35Y35*MOMM*%
%IR0*IPPOS*OFA0.00000B0.00000*MIA0B0*SFA1.00000B1.00000*%
%ADD29R,.9X1.*%
%ADD15C,1.*%
%ADD30C,1.001*%
%ADD20R,1.X.9*%
%ADD28C,1.7*%
%ADD10C,4.5*%
%ADD23R,1.45X.45*%
%ADD14C,1.65*%
%ADD17C,1.75*%
%ADD25R,2.25X2.25*%
%ADD31C,1.397*%
%ADD18R,1.X1.05*%
%ADD22R,1.2X1.4*%
%ADD16R,1.4X1.2*%
%ADD13R,2.2X1.05*%
%ADD24R,1.45X1.2*%
%ADD21R,.4X.5*%
%ADD26R,.3X.8*%
%ADD27R,.8X.3*%
%ADD11C,.56*%
%ADD12R,.6X.6*%
%ADD19R,.66X.356*%
%ADD32C,.2*%
%ADD33C,.3*%
%ADD34C,.5*%
%ADD35C,.15*%
%ADD36C,.17*%
%ADD38C,1.71*%
%ADD37C,1.064*%
G75*
%LPD*%
G75*
G36*
G01X380000Y6270000D02*
Y6120000D01*
X200000D01*
Y6270000D01*
X380000D01*
G37*
G36*
G01X2315900Y1740000D02*
X2540000D01*
Y1170000D01*
X2560000Y1150000D01*
X2810000D01*
Y1020000D01*
X2680000Y840000D01*
Y290000D01*
X2710000Y260000D01*
X3110000D01*
X3126200Y276200D01*
X3127000Y276600D01*
G03X3158200Y325000I-21941J48400D01*
G03X3154500Y344600I-53219J103D01*
G03X3155200Y350000I-19516J5275D01*
G01Y410000D01*
G03X3151200Y422100I-20301J0D01*
G01X3150200Y423400D01*
Y446600D01*
X3151200Y447900D01*
G03X3155200Y460000I-16301J12100D01*
G01Y520000D01*
G03X3151200Y532100I-20301J0D01*
G01X3150200Y533400D01*
Y556600D01*
X3151200Y557900D01*
G03X3155200Y570000I-16301J12100D01*
G01Y630000D01*
G03X3135000Y650200I-20200J0D01*
G01X3070000D01*
Y770000D01*
X3370000D01*
Y130000D01*
X2550000D01*
X2510000Y170000D01*
Y760000D01*
X2360000Y940000D01*
Y1090000D01*
X2390000Y1140000D01*
Y1420000D01*
X2385200D01*
Y1430000D01*
G03X2365000Y1450200I-20200J0D01*
G01X2309200D01*
G03X2290000Y1473900I-49191J-20223D01*
G01Y1692300D01*
G03X2305700Y1729800I-37491J37733D01*
G02X2315900Y1740000I10197J3D01*
G37*
G36*
G01X3040000Y1410000D02*
Y1190000D01*
X2570000D01*
Y1410000D01*
X3040000D01*
G37*
G36*
G01X12906600Y690000D02*
X13060000D01*
Y490000D01*
X13570000D01*
Y50000D01*
X12300000D01*
Y337400D01*
G02X12316100Y345600I10179J-80D01*
G03X12347100Y335700I30917J43326D01*
G03Y442100I0J53200D01*
G03X12316100Y432200I-83J-53226D01*
G02X12300000Y440400I-5921J8280D01*
G01Y464400D01*
G02X12316100Y472600I10179J-80D01*
G03X12347100Y462700I30917J43326D01*
G03Y569100I0J53200D01*
G03X12316100Y559200I-83J-53226D01*
G02X12300000Y567400I-5921J8280D01*
G01Y591400D01*
G02X12316100Y599600I10179J-80D01*
G03X12347100Y589700I30917J43326D01*
G03X12400300Y642900I0J53200D01*
G03X12390400Y673900I-53226J83D01*
G02X12398600Y690000I8280J5921D01*
G01X12549600D01*
G02X12557800Y673900I-80J-10179D01*
G03X12547900Y642900I43326J-30917D01*
G03X12654300I53200J0D01*
G03X12644400Y673900I-53226J83D01*
G02X12652600Y690000I8280J5921D01*
G01X12803600D01*
G02X12811800Y673900I-80J-10179D01*
G03X12801900Y642900I43326J-30917D01*
G03X12908300I53200J0D01*
G03X12898400Y673900I-53226J83D01*
G02X12906600Y690000I8280J5921D01*
G37*
G36*
G01X13085200D02*
X13570000D01*
Y515200D01*
X13085200D01*
Y690000D01*
G37*
G36*
G01X13510000Y4750000D02*
X13850000D01*
Y4330400D01*
G02X13830500Y4326200I-10198J-20D01*
G03X13730000Y4391200I-100500J-45194D01*
G03Y4170800I0J-110200D01*
G03X13830500Y4235800I0J110194D01*
G02X13850000Y4231600I9302J-4180D01*
G01Y4076400D01*
G02X13830500Y4072200I-10198J-20D01*
G03X13730000Y4137200I-100500J-45194D01*
G03Y3916800I0J-110200D01*
G03X13830500Y3981800I0J110194D01*
G02X13850000Y3977600I9302J-4180D01*
G01Y3822400D01*
G02X13830500Y3818200I-10198J-20D01*
G03X13730000Y3883200I-100500J-45194D01*
G03Y3662800I0J-110200D01*
G03X13830500Y3727800I0J110194D01*
G02X13850000Y3723600I9302J-4180D01*
G01Y3568400D01*
G02X13830500Y3564200I-10198J-20D01*
G03X13730000Y3629200I-100500J-45194D01*
G03Y3408800I0J-110200D01*
G03X13830500Y3473800I0J110194D01*
G02X13850000Y3469600I9302J-4180D01*
G01Y3079200D01*
G02X13831800Y3072900I-10199J24D01*
G03X13790000Y3093200I-41800J-32885D01*
G03Y2986800I0J-53200D01*
G03X13831800Y3007100I0J53185D01*
G02X13850000Y3000800I8001J-6324D01*
G01Y2809200D01*
G02X13831800Y2802900I-10199J24D01*
G03X13790000Y2823200I-41800J-32885D01*
G03Y2716800I0J-53200D01*
G03X13831800Y2737100I0J53185D01*
G02X13850000Y2730800I8001J-6324D01*
G01Y2406000D01*
G02X13835000Y2397000I-10185J-25D01*
G03X13810000Y2403200I-24929J-47018D01*
G03Y2296800I0J-53200D01*
G03X13835000Y2303000I71J53218D01*
G02X13850000Y2294000I4815J-8975D01*
G01Y1876000D01*
G02X13835000Y1867000I-10185J-25D01*
G03X13810000Y1873200I-24929J-47018D01*
G03Y1766800I0J-53200D01*
G03X13835000Y1773000I71J53218D01*
G02X13850000Y1764000I4815J-8975D01*
G01Y1324500D01*
G02X13832500Y1317400I-10191J1D01*
G03X13600000Y1415200I-232500J-227461D01*
G03Y764800I0J-325200D01*
G03X13832500Y862600I0J325261D01*
G02X13850000Y855500I7309J-7101D01*
G01Y730000D01*
X13038100D01*
G02X13029100Y745000I1J10201D01*
G03X13035300Y769900I-46901J24900D01*
G03X12928900I-53200J0D01*
G03X12935100Y745000I53101J0D01*
G02X12926100Y730000I-9001J-4799D01*
G01X12784100D01*
G02X12775100Y745000I1J10201D01*
G03X12781300Y769900I-46901J24900D01*
G03X12743600Y820800I-53211J0D01*
G01X12740000Y821900D01*
Y1680000D01*
X13156100D01*
G03X13243900I43900J29935D01*
G01X13326100D01*
G03X13370000Y1656800I43900J29935D01*
G03X13423200Y1710000I0J53200D01*
G03X13410100Y1745000I-53306J0D01*
G03Y1815000I-40206J35000D01*
G03Y1885000I-40206J35000D01*
G03X13423200Y1920000I-40206J35000D01*
G03X13410000Y1955100I-53267J0D01*
G01Y2616600D01*
G02X13420200Y2626800I10197J3D01*
G03Y2733200I-200J53200D01*
G02X13410000Y2743400I-3J10197D01*
G01Y2996600D01*
G02X13420200Y3006800I10197J3D01*
G03Y3113200I-200J53200D01*
G02X13410000Y3123400I-3J10197D01*
G01Y3599800D01*
G03Y3675200I-37414J37700D01*
G01Y4000400D01*
G03Y4079600I-35448J39600D01*
G01Y4360400D01*
G03Y4439600I-35448J39600D01*
G01Y4650000D01*
G02X13510000Y4750000I100000J0D01*
G37*
G36*
G01X13610000Y690000D02*
X13850000D01*
Y50000D01*
X13610000D01*
Y690000D01*
G37*
%LPC*%
G75*
G36*
G01X13396900Y1460600D02*
G02X13310000Y1410000I-86900J49321D01*
G01X13287500D01*
G02X13285800Y1419900I36J5102D01*
G01X13396900Y1460600D01*
G37*
G36*
G01X13636200Y1673500D02*
G02X13590000Y1646800I-46200J26621D01*
G02Y1753200I0J53200D01*
G02X13636200Y1726500I0J-53321D01*
G03X13653800I8800J5030D01*
G02X13700000Y1753200I46200J-26621D01*
G02Y1646800I0J-53200D01*
G02X13653800Y1673500I0J53321D01*
G03X13636200I-8800J-5030D01*
G37*
G54D38*
X13168000Y1195000D03*
G54D37*
X12982100Y515900D03*
X12855100Y388900D03*
X12982100Y261900D03*
X12728100Y515900D03*
Y388900D03*
X12601100Y515900D03*
X12474100Y261900D03*
Y515900D03*
X12601100Y261900D03*
X13500000Y2350000D03*
X13510000Y3464300D03*
X13600000Y3060000D03*
X12982100Y1137100D03*
X12855100Y1010100D03*
X12982100Y1391100D03*
X12855100Y1518100D03*
X13575000Y2005000D03*
%LPD*%
G75*
G54D10*
X300000Y1090000D03*
X550000Y6550000D03*
X7300000Y1090000D03*
X13205000Y6550000D03*
X13600000Y1090000D03*
G54D11*
X140000Y1600000D03*
X130000Y2090000D03*
X139500Y2267000D03*
X140000Y2597000D03*
X139500Y3053000D03*
X270000Y1930000D03*
X480000Y1600000D03*
X590000Y1880000D03*
X266500Y2267000D03*
X595000Y2075000D03*
X660000Y2267000D03*
X400000Y2600000D03*
X270000Y2597000D03*
X660000Y2513000D03*
X530000Y2590000D03*
X520500Y3053000D03*
X393500D03*
X266500D03*
X698900Y6031600D03*
X1110000Y532500D03*
Y92500D03*
Y387500D03*
X973000Y993000D03*
X1110000Y827500D03*
X820000Y1780000D03*
X1000000Y1785000D03*
X775000Y2075000D03*
X1059500Y3805000D03*
Y3715000D03*
X1140000Y4719500D03*
X820500Y5849200D03*
X739500Y5970800D03*
X780000Y5910000D03*
X1582400Y1133500D03*
Y1206500D03*
X1591100Y1061000D03*
X1601900Y1276900D03*
X1350000Y1910000D03*
X1380000Y1610000D03*
X1530000Y1910000D03*
X1387500Y3427400D03*
X1460500D03*
X1520000Y3600000D03*
X1228500Y3760000D03*
X1560000Y3910000D03*
X1700000D03*
Y4155500D03*
X1550000Y4310500D03*
X1400000Y4155500D03*
X1290000Y4121800D03*
X1264000Y4429500D03*
X1344000D03*
X1360000Y4834500D03*
X1580000D03*
X1690000D03*
X1470000D03*
X1570000Y5080200D03*
X1470000Y5085500D03*
X1360000D03*
X1800000Y240000D03*
X1937700Y496500D03*
Y423500D03*
X1810000Y790000D03*
Y980000D03*
X1800000Y680000D03*
X2110000Y790000D03*
X1810000Y1470000D03*
X2035700Y1360000D03*
X2040000Y1470000D03*
X1846500Y2326900D03*
X1773500D03*
X1910000Y2500000D03*
X2060000Y3180000D03*
X2110000Y3335000D03*
X1710000Y3336000D03*
X1760000Y3180000D03*
X2024000Y3910500D03*
X1784000Y3609500D03*
X1810000Y4131800D03*
X1824000Y4364000D03*
X1984000Y4429500D03*
X1800000Y4834500D03*
X1910000D03*
Y5085500D03*
X1790000Y5080200D03*
X1710000D03*
X2330000Y550000D03*
X2400000D03*
X2410000Y330000D03*
X2330000Y620000D03*
Y690000D03*
X2400000Y620000D03*
Y690000D03*
X2260000Y1430000D03*
X2350000Y1480000D03*
X2635000Y1255000D03*
X2490000Y1690000D03*
X2420000D03*
X2350000D03*
Y1620000D03*
Y1550000D03*
X2252500Y1730000D03*
X2607500Y2592500D03*
X2550000Y2930000D03*
X2420000D03*
X2390000Y2740000D03*
Y2640000D03*
X2330000Y3360000D03*
X2275000Y2985000D03*
X2653500Y3760000D03*
X2565000Y3940000D03*
Y4719500D03*
X3105000Y325000D03*
X2773500Y489800D03*
X2846500D03*
X3040000Y1090000D03*
X2865000Y2805000D03*
Y2585000D03*
X3140000Y3336000D03*
X2705000Y2985000D03*
X2812500Y3427400D03*
X2885500D03*
X2940000Y3590000D03*
X2975000Y3915000D03*
X3125000D03*
Y4155500D03*
X2975000Y4310500D03*
X2825000Y4155500D03*
X2715000Y4121800D03*
X2689000Y4429500D03*
X2769000D03*
X2785000Y4834500D03*
X3005000D03*
X3115000D03*
X2895000D03*
X2785000Y5085500D03*
X2895000D03*
X3000000Y5080200D03*
X3130000D03*
X3290000Y530000D03*
X3450000Y480000D03*
X3510800Y520500D03*
X3590000Y560000D03*
X3290000Y740000D03*
Y670000D03*
Y600000D03*
X3220000Y740000D03*
X3150000D03*
X3290000Y1500000D03*
X3220000D03*
X3290000Y1640000D03*
X3220000D03*
Y1570000D03*
X3290000D03*
X3266500Y2400000D03*
X3193500D03*
X3490000Y3180000D03*
X3530000Y3335000D03*
X3190000Y3180000D03*
X3449000Y3910500D03*
X3209000Y3609500D03*
X3235000Y4131800D03*
X3249000Y4331000D03*
X3409000Y4429500D03*
X3225000Y4834500D03*
X3335000D03*
X3220000Y5080200D03*
X3350000D03*
X3660000Y610000D03*
X3730000Y660000D03*
X3800000Y710000D03*
X3875000Y755000D03*
X3675000Y2465000D03*
X4090000Y2930000D03*
X3890000Y2980000D03*
X3909500Y3805000D03*
X4078500Y3760000D03*
X3909500Y3715000D03*
X3990000Y4719500D03*
X4480000Y560000D03*
X4340000Y180000D03*
X4515000D03*
X4440000Y870000D03*
X4470000Y950000D03*
X4555000D03*
X4380000D03*
X4212500Y2592500D03*
X4220000Y2930000D03*
X4505000Y2815000D03*
Y2570000D03*
X4110000Y2740000D03*
Y2640000D03*
X4560000Y3336000D03*
X4345000Y3000000D03*
X4237500Y3427400D03*
X4310500D03*
X4340000Y3150000D03*
X4420000Y3350000D03*
X4362500Y3587500D03*
X4400000Y3910000D03*
X4550000D03*
Y4155500D03*
X4400000Y4310500D03*
X4250000Y4155500D03*
X4140000Y4121800D03*
X4114000Y4429500D03*
X4194000D03*
X4210000Y4834500D03*
X4430000D03*
X4540000D03*
X4320000D03*
X4420000Y5080200D03*
X4560000D03*
X4210000Y5085500D03*
X4320000D03*
X4605000Y180000D03*
X4870000Y210000D03*
X5050000Y500000D03*
X4790000Y535000D03*
X4880100Y529800D03*
X4620000Y870000D03*
X4820000Y800000D03*
X4910000D03*
X4860000Y600000D03*
X4686500Y2322400D03*
X4613500D03*
X4910000Y3180000D03*
X4960000Y3335000D03*
X4610000Y3180000D03*
X4874000Y3910500D03*
X4634000Y3609500D03*
X4660000Y4131800D03*
X4674000Y4356000D03*
X4834000Y4429500D03*
X4650000Y4834500D03*
X4760000D03*
X4780000Y5080200D03*
X4650000Y5085500D03*
X5190000Y180000D03*
X5295000Y255000D03*
X5190000Y380000D03*
X5360000Y535000D03*
X5310000Y590000D03*
X5510000Y880000D03*
X5420000Y840000D03*
X5338000D03*
X5250000Y650000D03*
X5334500Y3805000D03*
X5503500Y3760000D03*
X5334500Y3715000D03*
X5530000Y4380000D03*
X5415000Y4719500D03*
X5440000Y4490000D03*
X5660000Y560000D03*
X5675000Y155000D03*
X5713900Y227200D03*
X5950000Y540000D03*
X5635000Y880000D03*
X5980000Y920000D03*
X5840000Y890000D03*
X5694200Y1757900D03*
X5767200D03*
X5900000Y2520000D03*
X5980000Y3336000D03*
X5662500Y3427400D03*
X5735500D03*
X5814100Y3612900D03*
X5825000Y3916800D03*
X5975000Y3915000D03*
X5825000Y4310500D03*
X5675000Y4155500D03*
X5975000D03*
X5565000Y4121800D03*
X5619000Y4429500D03*
X5635000Y4834500D03*
X5855000D03*
X5965000D03*
X5745000D03*
X5639000Y4730000D03*
X5745000Y5075700D03*
X5635000D03*
X5855000D03*
X5980000Y5090000D03*
X6240000Y370000D03*
X6110000Y300000D03*
X6480000Y340000D03*
X6472500Y422500D03*
X6370000Y220000D03*
X6240000Y520000D03*
X6110000Y680000D03*
X6280000Y650000D03*
X6493800Y640000D03*
X6116500Y2322400D03*
X6043500D03*
X6472500Y2592500D03*
X6510000Y2750000D03*
Y2670000D03*
X6380000Y2760000D03*
X6410000Y2680000D03*
X6340000Y3180000D03*
X6285000Y3020000D03*
X6390000Y3335000D03*
X6040000Y3180000D03*
X6195000Y3020000D03*
X6299000Y3910500D03*
X6059000Y3609500D03*
X6085000Y4131800D03*
X6099000Y4371000D03*
X6490000Y4360000D03*
X6259000Y4429500D03*
X6075000Y4834500D03*
X6185000D03*
X6075000Y5075700D03*
X6255700Y5005000D03*
X6630000Y170000D03*
X6790000Y164500D03*
X6910000D03*
X6790000Y615500D03*
X6944500Y710000D03*
X6800000Y1025000D03*
X6540000D03*
X6910000Y615500D03*
X6590000Y880000D03*
X6690000D03*
X6535000Y3005000D03*
X6625000D03*
X6950000Y4290000D03*
Y4400000D03*
X6748000Y4440000D03*
X6880000Y5190000D03*
X6800000Y5623400D03*
X6790000Y6648000D03*
X6980000Y7080000D03*
Y7000000D03*
Y6920000D03*
Y7410000D03*
X7225000Y230000D03*
X7070000Y160000D03*
X7240000Y357500D03*
X7320000Y390000D03*
X7070000Y620000D03*
X7240000Y2520000D03*
X7229500Y3805000D03*
X7398500Y3760000D03*
X7229500Y3715000D03*
X7460000Y4121800D03*
X7434000Y4429500D03*
X7310000Y4719500D03*
X7915900Y261900D03*
X7600000Y510000D03*
X7915900Y388900D03*
Y769900D03*
Y642900D03*
Y1391100D03*
Y1137100D03*
X7943500Y2482400D03*
X7820000Y2930000D03*
X7680000D03*
X7840000Y2510000D03*
Y2740000D03*
Y2640000D03*
X7680000Y2740000D03*
Y2640000D03*
X7866300Y3336000D03*
X7930000Y3180000D03*
X7545000Y2985000D03*
X7714000Y3624000D03*
X7954000Y3609500D03*
X7720000Y3916800D03*
X7870000Y3910000D03*
Y4155500D03*
X7720000Y4310500D03*
X7570000Y4155500D03*
X7514000Y4429500D03*
X7750000Y4834500D03*
X7640000D03*
X7860000D03*
X7530000D03*
Y5075700D03*
X7640000D03*
X7750000D03*
X7860000D03*
X8042900Y388900D03*
X8169900D03*
X8296900Y261900D03*
X8423900D03*
X8042900Y642900D03*
X8169900D03*
X8296900Y769900D03*
X8423900D03*
X8042900Y1518100D03*
X8296900Y1137100D03*
Y1391100D03*
X8423900D03*
Y1518100D03*
X8296900D03*
X8169900Y1137100D03*
X8042900D03*
Y1264100D03*
X8016500Y2482400D03*
X8320000Y2930000D03*
X8230000Y3180000D03*
X8292700Y3335000D03*
X7975000Y2995000D03*
X8194000Y3910500D03*
X7980000Y4131800D03*
X7967000Y4397000D03*
X8154000Y4429500D03*
X7970000Y4834500D03*
X8080000D03*
X7970000Y5075700D03*
X8080000D03*
X8550900Y388900D03*
X8677900D03*
X8804900Y261900D03*
X8550900Y642900D03*
X8677900D03*
X8804900Y769900D03*
Y642900D03*
X8550900Y1264100D03*
Y1518100D03*
X8804900Y1264100D03*
X8677900D03*
Y1137100D03*
X8550900D03*
X8545000Y2780000D03*
X8634500Y2930000D03*
X8639800Y2810000D03*
X8630000Y2640000D03*
X8800000Y2510000D03*
X8479300Y3080000D03*
X8699300D03*
X8827500Y3203000D03*
X8892500Y3270000D03*
X8664300Y3805000D03*
X8823500Y3760000D03*
X8765000Y3685000D03*
X8885000Y4121800D03*
X8859000Y4429500D03*
X8735000Y4719500D03*
X8931900Y261900D03*
X9058900Y388900D03*
X9185900D03*
X9312900Y261900D03*
X9185900Y515900D03*
X9058900D03*
X9312900Y1010100D03*
X9185900Y769900D03*
X9045100Y896900D03*
X8931900Y642900D03*
X9312900D03*
X9185900D03*
X8931900Y1518100D03*
X9185900Y1137100D03*
X9312900Y1264100D03*
Y1518100D03*
X9185900Y1264100D03*
X9058900D03*
X9312900Y1137100D03*
X9058900D03*
X8931900D03*
X9363500Y2422400D03*
X9100000Y2640000D03*
X9085500Y2930000D03*
X9090000Y2810000D03*
X8939600Y2509600D03*
X9291300Y3336000D03*
X9344300Y3180000D03*
X9110000Y3035000D03*
X8957500Y3203000D03*
X9139000Y3624000D03*
X9379000Y3609500D03*
X9145000Y3915000D03*
X9295000D03*
X8982500Y3527400D03*
X9055500D03*
X8995000Y4155500D03*
X9145000Y4310500D03*
X9295000Y4155500D03*
X8939000Y4429500D03*
X9175000Y4834500D03*
X9065000D03*
X9285000D03*
X9395000D03*
X8955000D03*
Y5075700D03*
X9175000D03*
X9065000D03*
X9285000D03*
X9395000D03*
X9439900Y261900D03*
Y515900D03*
X9566900Y388900D03*
X9693900D03*
X9820900Y261900D03*
Y515900D03*
X9693900D03*
X9566900D03*
X9693900Y1010100D03*
X9439900Y642900D03*
X9566900Y769900D03*
X9820900Y642900D03*
X9693900D03*
X9566900D03*
Y1137100D03*
X9693900Y1264100D03*
Y1518100D03*
X9820900Y1137100D03*
X9566900Y1264100D03*
X9439900Y1137100D03*
X9820900Y1264100D03*
X9693900Y1137100D03*
X9439900Y1264100D03*
X9436500Y2422400D03*
X9840000Y2920000D03*
X9665700Y3180000D03*
X9717700Y3335000D03*
X9619000Y3910500D03*
X9405000Y4131800D03*
X9421300Y4379000D03*
X9579000Y4429500D03*
X9505000Y4834500D03*
Y5075700D03*
X9947900Y261900D03*
Y515900D03*
X10074900Y388900D03*
X10201900D03*
X10328900Y261900D03*
Y515900D03*
X10201900D03*
X10074900D03*
Y1010100D03*
X9947900Y769900D03*
X10201900Y642900D03*
X10328900Y769900D03*
X9947900Y1137100D03*
X10074900Y1518100D03*
X10328900Y1137100D03*
Y1391100D03*
X9947900Y1264100D03*
X10328900D03*
X10201900D03*
X10200000Y2480000D03*
X10310000D03*
X9965000Y2770000D03*
X10054500Y2930000D03*
X10059800Y2810000D03*
X10050000Y2640000D03*
X9890000Y3070000D03*
X10119300Y3080000D03*
X10247500Y3203000D03*
X10320000Y3270000D03*
X10079500Y3805000D03*
X10248500Y3760000D03*
X10079500Y3715000D03*
X10310000Y4121800D03*
X10284000Y4439300D03*
X10160000Y4719500D03*
X10569100Y261900D03*
Y515900D03*
X10696100Y388900D03*
X10823100D03*
Y515900D03*
X10696100D03*
X10569100Y1010100D03*
X10696100Y642900D03*
X10823100Y769900D03*
X10569100Y1264100D03*
Y1518100D03*
X10823100Y1137100D03*
Y1391100D03*
Y1264100D03*
X10696100D03*
X10803500Y2422400D03*
X10430000Y2500000D03*
X10505500Y2930000D03*
X10510000Y2810000D03*
X10716300Y3336000D03*
X10832500Y3066800D03*
X10530000Y3035000D03*
X10580000Y3310000D03*
X10377500Y3203000D03*
X10407500Y3427400D03*
X10480500D03*
X10564000Y3624000D03*
X10804000Y3609500D03*
X10570000Y3910000D03*
X10720000Y3900000D03*
Y4155500D03*
X10570000Y4310500D03*
X10420000Y4155500D03*
X10830000Y4131800D03*
X10800000Y4394000D03*
X10364000Y4439300D03*
X10600000Y4834500D03*
X10490000D03*
X10710000D03*
X10820000D03*
X10380000D03*
Y5075700D03*
X10490000D03*
X10600000D03*
X10710000D03*
X10820000D03*
X10950100Y261900D03*
Y515900D03*
X11077100Y261900D03*
Y515900D03*
X11204100D03*
X10950100Y1010100D03*
X11077100Y642900D03*
X11204100Y769900D03*
Y642900D03*
X10950100Y1518100D03*
X11204100Y1137100D03*
Y1264100D03*
X11077100D03*
X10876500Y2422400D03*
X11090700Y3180000D03*
X11142700Y3335000D03*
X11300000Y3040000D03*
X11044000Y3900700D03*
X10924000Y3964000D03*
X11004000Y4439300D03*
X10930000Y4834500D03*
Y5075700D03*
X11458100Y261900D03*
X11585100D03*
Y515900D03*
X11712100Y388900D03*
Y515900D03*
X11331100D03*
Y1010100D03*
X11712100D03*
X11585100Y769900D03*
X11712100Y642900D03*
X11331100Y1518100D03*
X11585100Y1137100D03*
X11712100Y1264100D03*
Y1518100D03*
X11585100Y1264100D03*
X11458100D03*
X11712100Y1137100D03*
X11405000Y2780000D03*
X11494500D03*
X11490000Y2640000D03*
X11679500Y2519900D03*
X11752500Y2521500D03*
X11410000Y3135500D03*
X11490000Y3000000D03*
X11559300Y3080000D03*
X11687500Y3203000D03*
X11752500Y3280000D03*
X11504500Y3805000D03*
X11749000Y3619300D03*
X11504500Y3715000D03*
X11735000Y4121800D03*
X11585000Y4719500D03*
X11709000Y4429500D03*
X11789000D03*
X11805000Y4834500D03*
Y5075700D03*
X11839100Y388900D03*
X11966100Y261900D03*
Y515900D03*
X12093100Y261900D03*
Y515900D03*
X12220100Y388900D03*
X11839100Y515900D03*
X12220100D03*
X11966100Y769900D03*
Y642900D03*
X11839100D03*
X12093100Y1518100D03*
Y1264100D03*
X11966100D03*
X12220100Y1137100D03*
X11839100Y1264100D03*
X12220100D03*
X12093100Y1137100D03*
X12223500Y2422400D03*
X11960000Y2640000D03*
X11945500Y2930000D03*
Y2780000D03*
X12141300Y3336000D03*
X12194300Y3180000D03*
X11970000Y3035000D03*
X11820200Y3200200D03*
X11832500Y3427400D03*
X11905500D03*
X11989000Y3624000D03*
X12229000Y3609500D03*
X11995000Y3915000D03*
X12145000D03*
X11995000Y4310500D03*
X12145000Y4155500D03*
X11845000D03*
X12255000Y4131800D03*
X12269000Y4381000D03*
X12025000Y4834500D03*
X11915000D03*
X12135000D03*
X12245000D03*
X11915000Y5075700D03*
X12025000D03*
X12135000D03*
X12245000D03*
X12347100Y388900D03*
X12474100Y261900D03*
Y515900D03*
X12601100Y261900D03*
X12728100Y388900D03*
Y515900D03*
X12347100D03*
X12601100D03*
X12728100Y769900D03*
X12347100D03*
X12601100Y642900D03*
X12347100D03*
X12474100D03*
X12728100D03*
X12347100Y1137100D03*
X12474100Y1264100D03*
Y1518100D03*
X12347100Y1264100D03*
X12601100Y1137100D03*
Y1264100D03*
X12474100Y1137100D03*
X12296500Y2422400D03*
X12644500Y2710000D03*
X12640000Y2965000D03*
X12730000Y3135500D03*
X12515700Y3180000D03*
X12567700Y3335000D03*
X12469000Y3900700D03*
X12429000Y4429500D03*
X12355000Y4834500D03*
Y5075700D03*
X12982100Y515900D03*
X12855100Y388900D03*
X12982100Y261900D03*
X13140000Y560000D03*
X13215000D03*
X12855100Y515900D03*
Y642900D03*
X12982100Y769900D03*
X12855100Y1010100D03*
X12982100D03*
X12855100Y769900D03*
X12982100Y642900D03*
Y1137100D03*
Y1391100D03*
X12855100Y1518100D03*
X12982100Y1264100D03*
X12855100Y1137100D03*
X13200000Y1920000D03*
Y1850000D03*
Y1780000D03*
Y1710000D03*
Y2480000D03*
X13070000Y2120000D03*
X12814500Y2790000D03*
X12830000Y2640000D03*
X12998500Y2500000D03*
X13080500D03*
X12817500Y3017500D03*
X12820000Y3080000D03*
X13007500Y3203000D03*
X13072500Y3290000D03*
X13137500Y3203000D03*
X13219500Y3890000D03*
Y4250000D03*
X13660000Y110000D03*
Y185000D03*
Y260000D03*
Y560000D03*
X13290000D03*
X13365000D03*
X13440000D03*
X13515000D03*
X13660000Y635000D03*
X13290000D03*
X13365000D03*
X13440000D03*
X13515000D03*
X13575000Y2005000D03*
X13590000Y1700000D03*
X13370000Y1920000D03*
Y1850000D03*
Y1780000D03*
Y1710000D03*
X13700000Y1700000D03*
X13500000Y2350000D03*
X13340000Y2010000D03*
X13420000Y2680000D03*
X13255700Y2950000D03*
X13260000Y2860000D03*
X13255700Y2790000D03*
X13420000Y3060000D03*
X13600000D03*
X13260000Y3035000D03*
X13330000Y3464300D03*
X13372500Y3637500D03*
X13510000Y3464300D03*
X13374500Y4040000D03*
Y4400000D03*
X13350000Y4130000D03*
X13735000Y110000D03*
X13810000D03*
X13735000Y185000D03*
X13810000D03*
X13735000Y260000D03*
X13810000D03*
Y335000D03*
Y410000D03*
Y485000D03*
X13735000Y560000D03*
X13810000D03*
X13735000Y635000D03*
X13810000D03*
Y1820000D03*
Y2350000D03*
X13790000Y2770000D03*
Y3040000D03*
G54D20*
X1710000Y7265000D03*
Y7415000D03*
X3140000Y7265000D03*
Y7415000D03*
X4560000Y7265000D03*
Y7415000D03*
X5990000Y7265000D03*
Y7415000D03*
X7880000Y7265000D03*
Y7415000D03*
X9300000Y7265000D03*
Y7415000D03*
X10730000Y7265000D03*
Y7415000D03*
X12150000Y7265000D03*
Y7415000D03*
X13150000Y635000D03*
Y785000D03*
G54D12*
X140000Y2675000D03*
Y2765000D03*
X530000Y2675000D03*
Y2765000D03*
X400000Y2675000D03*
Y2765000D03*
X270000Y2675000D03*
Y2765000D03*
X1140000Y3715000D03*
Y3805000D03*
X1645000Y370000D03*
Y550000D03*
Y240000D03*
X1425000D03*
X1515000D03*
X1645000Y680000D03*
X1425000D03*
X1515000D03*
X1700000Y3985000D03*
Y4075000D03*
X1400000Y3985000D03*
Y4075000D03*
X1360000Y4915000D03*
Y5005000D03*
X1580000D03*
Y4915000D03*
X1690000Y5005000D03*
Y4915000D03*
X1470000Y5005000D03*
Y4915000D03*
X1575000Y7560000D03*
X1735000Y370000D03*
Y550000D03*
Y240000D03*
Y680000D03*
X2125000Y2520000D03*
X2035000D03*
Y2640000D03*
X2125000D03*
X2035000Y2750000D03*
X2125000D03*
X1910000Y4915000D03*
Y5005000D03*
X1800000D03*
Y4915000D03*
X1715000Y7560000D03*
X2425000Y1400000D03*
X2335000D03*
X2425000Y1290000D03*
X2335000D03*
X2425000Y1180000D03*
X2335000D03*
X2615000Y2930000D03*
X2275000D03*
X2365000D03*
X2565000Y3715000D03*
Y3805000D03*
X3105000Y490000D03*
Y380000D03*
Y600000D03*
X2705000Y2930000D03*
X2955000Y2640000D03*
X2865000D03*
X2955000Y2750000D03*
X2865000D03*
X3125000Y3985000D03*
Y4075000D03*
X2825000Y3985000D03*
Y4075000D03*
X2785000Y4915000D03*
Y5005000D03*
X3005000D03*
Y4915000D03*
X3115000Y5005000D03*
Y4915000D03*
X2895000Y5005000D03*
Y4915000D03*
X3000000Y7560000D03*
X3195000Y490000D03*
Y380000D03*
Y600000D03*
X3335000Y4915000D03*
Y5005000D03*
X3225000D03*
Y4915000D03*
X3140000Y7560000D03*
X3915000Y2930000D03*
X4005000D03*
X3765000Y2520000D03*
X3675000D03*
Y2640000D03*
X3765000D03*
X3675000Y2750000D03*
X3765000D03*
X3990000Y3715000D03*
Y3805000D03*
X4410000Y245000D03*
Y155000D03*
X4515000Y220000D03*
X4345000Y2930000D03*
X4255000D03*
X4505000Y2640000D03*
Y2750000D03*
X4550000Y3985000D03*
Y4075000D03*
X4250000Y3985000D03*
Y4075000D03*
X4210000Y4915000D03*
Y5005000D03*
X4430000D03*
Y4915000D03*
X4540000Y5005000D03*
Y4915000D03*
X4320000Y5005000D03*
Y4915000D03*
X4425000Y7560000D03*
X4565000D03*
X4965000Y420000D03*
X5055000D03*
X4605000Y220000D03*
X4595000Y2640000D03*
Y2750000D03*
X4760000Y4915000D03*
Y5005000D03*
X4650000D03*
Y4915000D03*
X5415000Y3715000D03*
Y3805000D03*
X5590000Y245000D03*
Y155000D03*
X5955000Y2520000D03*
Y2640000D03*
Y2750000D03*
X5975000Y3985000D03*
Y4075000D03*
X5675000Y3985000D03*
Y4075000D03*
X5635000Y4915000D03*
Y5005000D03*
X5855000D03*
Y4915000D03*
X5965000Y5005000D03*
Y4915000D03*
X5745000Y5005000D03*
Y4915000D03*
X5850000Y7560000D03*
X5990000D03*
X6085000Y410000D03*
X6175000D03*
X6195000Y2930000D03*
X6285000D03*
X6045000Y2520000D03*
Y2640000D03*
Y2750000D03*
X6185000Y4915000D03*
Y5005000D03*
X6075000D03*
Y4915000D03*
X6910000Y535000D03*
Y445000D03*
Y245000D03*
Y335000D03*
X6790000Y535000D03*
Y445000D03*
Y245000D03*
Y335000D03*
X6585000Y640000D03*
X6675000D03*
X6625000Y2930000D03*
X6535000D03*
X6875000Y2640000D03*
X6785000D03*
X6875000Y2750000D03*
X6785000D03*
X7135000Y150000D03*
X7225000D03*
X7395000Y2520000D03*
X7305000D03*
Y2640000D03*
X7395000D03*
X7305000Y2750000D03*
X7395000D03*
X7310000Y3715000D03*
Y3805000D03*
X7950000Y1235000D03*
Y1325000D03*
X7885000Y2930000D03*
X7545000D03*
X7635000D03*
X7870000Y3985000D03*
Y4075000D03*
X7570000Y3985000D03*
Y4075000D03*
X7530000Y4915000D03*
Y5005000D03*
X7750000D03*
Y4915000D03*
X7860000Y5005000D03*
Y4915000D03*
X7640000Y5005000D03*
Y4915000D03*
X7740000Y7560000D03*
X7880000D03*
X7975000Y2930000D03*
X8225000Y2640000D03*
X8135000D03*
X8225000Y2750000D03*
X8135000D03*
X8080000Y4915000D03*
Y5005000D03*
X7970000D03*
Y4915000D03*
X8915000Y2780000D03*
X8715000D03*
X8805000D03*
X8915000Y2930000D03*
X8715000D03*
X8805000D03*
X8735000Y3715000D03*
Y3805000D03*
X9005000Y2780000D03*
Y2930000D03*
X9110000Y3125000D03*
Y3035000D03*
X9295000Y3985000D03*
Y4075000D03*
X8995000Y3985000D03*
Y4075000D03*
X8955000Y4915000D03*
Y5005000D03*
X9175000D03*
Y4915000D03*
X9285000Y5005000D03*
Y4915000D03*
X9395000Y5005000D03*
Y4915000D03*
X9065000Y5005000D03*
Y4915000D03*
X9165000Y7560000D03*
X9305000D03*
X9505000Y4915000D03*
Y5005000D03*
X10335000Y2780000D03*
X10135000D03*
X10225000D03*
X10335000Y2930000D03*
X10135000D03*
X10225000D03*
X10160000Y3715000D03*
Y3805000D03*
X10425000Y2780000D03*
Y2930000D03*
X10530000Y3125000D03*
Y3035000D03*
X10720000Y3985000D03*
Y4075000D03*
X10420000Y3985000D03*
Y4075000D03*
X10380000Y4915000D03*
Y5005000D03*
X10600000D03*
Y4915000D03*
X10710000Y5005000D03*
Y4915000D03*
X10820000Y5005000D03*
Y4915000D03*
X10490000Y5005000D03*
Y4915000D03*
X10590000Y7560000D03*
X10730000D03*
X10930000Y4915000D03*
Y5005000D03*
X11735000Y730000D03*
X11775000Y2780000D03*
X11575000D03*
X11665000D03*
X11775000Y2930000D03*
X11575000D03*
X11665000D03*
X11585000Y3715000D03*
Y3805000D03*
X11805000Y4915000D03*
Y5005000D03*
X12125000Y420000D03*
X12035000D03*
X12245000Y620000D03*
X12155000D03*
X12235000Y880000D03*
X12145000D03*
X11825000Y730000D03*
X11865000Y2780000D03*
Y2930000D03*
X11970000Y3125000D03*
Y3035000D03*
X12145000Y3985000D03*
Y4075000D03*
X11845000Y3985000D03*
Y4075000D03*
X12025000Y5005000D03*
Y4915000D03*
X12135000Y5005000D03*
Y4915000D03*
X12245000Y5005000D03*
Y4915000D03*
X11915000Y5005000D03*
Y4915000D03*
X12015000Y7560000D03*
X12155000D03*
X12355000Y4915000D03*
Y5005000D03*
X13185000Y2790000D03*
X13095000D03*
X12895000D03*
X12985000D03*
X13185000Y2940000D03*
X13095000D03*
X12895000D03*
X12985000D03*
X13290000Y3125000D03*
Y3035000D03*
G54D21*
X1645000Y7535000D03*
X3070000D03*
X4495000D03*
X5920000D03*
X7810000D03*
X9235000D03*
X10660000D03*
X12085000D03*
G54D30*
X7730000Y890000D03*
X13168000Y1195000D03*
G54D13*
X1110000Y92500D03*
Y387500D03*
Y532500D03*
Y827500D03*
G54D22*
X2590000Y410000D03*
X2410000D03*
X2420000Y1020000D03*
X2240000D03*
G54D31*
X13440000Y4866000D03*
G54D32*
G01X580000Y6200000D02*
X577300Y6186000D01*
X569300Y6170000D01*
X556000Y6160000D01*
X537300Y6156000D01*
X518700Y6160000D01*
X502700Y6172000D01*
X494700Y6190000D01*
Y6210000D01*
X489300Y6222000D01*
X476000Y6232000D01*
X457300Y6236000D01*
X438700Y6230000D01*
X425300Y6216000D01*
X420000Y6200000D01*
X425300Y6184000D01*
X438700Y6170000D01*
X457300Y6164000D01*
X476000Y6168000D01*
X489300Y6178000D01*
X494700Y6190000D01*
Y6210000D01*
X502700Y6228000D01*
X518700Y6240000D01*
X537300Y6244000D01*
X556000Y6240000D01*
X569300Y6230000D01*
X577300Y6214000D01*
X580000Y6200000D01*
G54D14*
X932500Y4010000D03*
Y4510000D03*
Y4980000D03*
X1645000Y3550000D03*
X2125000D03*
X2357500Y4980000D03*
X3070000Y3550000D03*
X3550000D03*
X3782500Y3760000D03*
Y4760000D03*
Y5760000D03*
Y6760000D03*
X4495000Y3550000D03*
X4975000D03*
X5207500Y4010000D03*
Y4510000D03*
Y4980000D03*
X5920000Y3550000D03*
X6400000D03*
X6632500Y4980000D03*
X7097500Y4010000D03*
Y4510000D03*
Y4980000D03*
X7810000Y3550000D03*
X8290000D03*
X8522500Y4980000D03*
X9235000Y3550000D03*
X9715000D03*
X9947500Y3760000D03*
Y4760000D03*
Y5760000D03*
Y6760000D03*
X10660000Y3550000D03*
X11140000D03*
X11372500Y4010000D03*
Y4510000D03*
Y4980000D03*
X12085000Y3550000D03*
X12565000D03*
X12797500Y4980000D03*
G54D23*
X2270000Y2787500D03*
Y2722500D03*
Y2657500D03*
Y2592500D03*
X2710000D03*
Y2657500D03*
Y2722500D03*
Y2787500D03*
X3910000D03*
Y2722500D03*
Y2657500D03*
Y2592500D03*
X4350000D03*
Y2657500D03*
Y2722500D03*
Y2787500D03*
X6190000D03*
Y2722500D03*
Y2657500D03*
Y2592500D03*
X6630000D03*
Y2657500D03*
Y2722500D03*
Y2787500D03*
X7540000D03*
Y2722500D03*
Y2657500D03*
Y2592500D03*
X7980000D03*
Y2657500D03*
Y2722500D03*
Y2787500D03*
G54D33*
G01X4515000Y220000D02*
X4505000Y230000D01*
Y360000D01*
G01X4440000Y870000D02*
X4455000Y855000D01*
Y760000D01*
G01X5713900Y227200D02*
X5710000Y231100D01*
Y234100D01*
X5685000Y259100D01*
Y360000D01*
G01X5635000Y760000D02*
Y880000D01*
G54D24*
X2730000Y1085000D03*
Y1255000D03*
G54D15*
X1164000Y4170000D03*
X2124000D03*
X2589000D03*
X3549000D03*
X4014000D03*
X4974000D03*
X5439000D03*
X6399000D03*
X7334000D03*
X8294000D03*
X8759000D03*
X9719000D03*
X10184000D03*
X11144000D03*
X11609000D03*
X12569000D03*
G54D34*
G01X140000Y2675000D02*
Y2597000D01*
G01X400000Y2675000D02*
Y2600000D01*
G01X270000Y2675000D02*
Y2597000D01*
G01X530000Y2675000D02*
Y2590000D01*
G01X1140000Y3805000D02*
X1059500D01*
G01X1140000Y3715000D02*
X1059500D01*
G01X1140000Y4830000D02*
Y4719500D01*
G01Y5010000D02*
X1287300D01*
X1292300Y5005000D01*
X1360000D01*
G01X1550000Y4200000D02*
Y4310500D01*
G01X1400000Y4075000D02*
Y4155500D01*
G01X1290000Y4053500D02*
Y4121800D01*
G01X1580000Y5005000D02*
Y5070000D01*
X1570000Y5080000D01*
Y5080200D01*
G01X1470000Y5005000D02*
Y5085500D01*
G01X1360000Y5005000D02*
Y5085500D01*
G01X1690000Y5005000D02*
Y5060000D01*
X1710000Y5080000D01*
Y5080200D01*
G01Y7265000D02*
X1505000D01*
X1500000Y7260000D01*
G01X1735000Y240000D02*
X1800000D01*
G01X1735000Y680000D02*
X1800000D01*
G01X2035000Y2750000D02*
Y2640000D01*
G01Y2750000D02*
Y2865000D01*
X2100000Y2930000D01*
X2275000D01*
G01X2035000Y2520000D02*
X1930000D01*
X1910000Y2500000D01*
G01X1700000Y4075000D02*
Y4155500D01*
G01X1810000Y4063500D02*
Y4131800D01*
G01X1910000Y5005000D02*
Y5085500D01*
G01X1800000Y5005000D02*
Y5060000D01*
X1790000Y5070000D01*
Y5080200D01*
G01X2410000Y410000D02*
Y330000D01*
G01X2240000Y1020000D02*
Y1085000D01*
X2335000Y1180000D01*
G01X2425000D02*
Y1025000D01*
X2420000Y1020000D01*
G01X2335000Y1400000D02*
Y1290000D01*
G01Y1180000D02*
Y1290000D01*
G01Y1400000D02*
X2290000D01*
X2260000Y1430000D01*
G01X2425000Y1290000D02*
Y1400000D01*
G01Y1180000D02*
Y1290000D01*
G01X2730000Y1255000D02*
X2635000D01*
G01X2710000Y2592500D02*
X2607500D01*
G01X2615000Y2930000D02*
X2550000D01*
G01X2365000D02*
X2420000D01*
G01X2270000Y2787500D02*
Y2856400D01*
X2275000Y2861400D01*
Y2930000D01*
G01D02*
Y2985000D01*
G01X2330000Y3360000D02*
Y3480000D01*
X2565000Y3715000D01*
G01Y3805000D02*
Y3940000D01*
G01Y4830000D02*
Y4719500D01*
G01Y5010000D02*
X2712300D01*
X2717300Y5005000D01*
X2785000D01*
G01X3105000Y490000D02*
Y380000D01*
G01Y600000D02*
Y490000D01*
G01Y380000D02*
Y325000D01*
G01X2930000Y1090000D02*
X3040000D01*
G01X2730000Y1255000D02*
X2915000D01*
X2930000Y1270000D01*
G01X2705000Y2930000D02*
Y2985000D01*
G01Y2930000D02*
X2890000D01*
X2955000Y2865000D01*
Y2750000D01*
G01X2710000Y2787500D02*
Y2856400D01*
X2705000Y2861400D01*
Y2930000D01*
G01X2955000Y2640000D02*
Y2750000D01*
G01X3125000Y4075000D02*
Y4155500D01*
G01X2975000Y4200000D02*
Y4310500D01*
G01X2825000Y4075000D02*
Y4155500D01*
G01X2715000Y4053500D02*
Y4121800D01*
G01X2785000Y5005000D02*
Y5085500D01*
G01X2895000Y5005000D02*
Y5085500D01*
G01X3005000Y5005000D02*
Y5065000D01*
X3000000Y5070000D01*
Y5080200D01*
G01X3115000Y5005000D02*
Y5055000D01*
X3130000Y5070000D01*
Y5080200D01*
G01X3140000Y7265000D02*
X2930000D01*
X2925000Y7260000D01*
G01X3195000Y380000D02*
Y490000D01*
G01D02*
Y600000D01*
G01Y685000D02*
X3190000Y690000D01*
G01X3235000Y4063500D02*
Y4131800D01*
G01X3225000Y5005000D02*
Y5075000D01*
X3220000Y5080000D01*
Y5080200D01*
G01X3335000Y5005000D02*
Y5065000D01*
X3350000Y5080000D01*
Y5080200D01*
G01X3675000Y2520000D02*
Y2465000D01*
G01X4005000Y2930000D02*
X4090000D01*
G01X3675000Y2640000D02*
Y2750000D01*
G01X3910000Y2787500D02*
Y2856400D01*
X3915000Y2861400D01*
Y2930000D01*
G01X3675000Y2750000D02*
Y2865000D01*
X3740000Y2930000D01*
X3915000D01*
G01D02*
Y2955000D01*
X3890000Y2980000D01*
G01X3990000Y3805000D02*
X3909500D01*
G01X3990000Y3715000D02*
X3909500D01*
G01X3990000Y4830000D02*
Y4719500D01*
G01Y5010000D02*
X4137300D01*
X4142300Y5005000D01*
X4210000D01*
G01X4340000Y180000D02*
X4365000Y155000D01*
X4410000D01*
G01X4515000Y220000D02*
Y180000D01*
G01X4350000Y2592500D02*
X4212500D01*
G01X4255000Y2930000D02*
X4220000D01*
G01X4345000D02*
Y3000000D01*
G01X4350000Y2787500D02*
Y2856400D01*
X4345000Y2861400D01*
Y2930000D01*
G01D02*
X4530000D01*
X4595000Y2865000D01*
Y2750000D01*
G01X4550000Y4075000D02*
Y4155500D01*
G01X4400000Y4200000D02*
Y4310500D01*
G01X4250000Y4075000D02*
Y4155500D01*
G01X4140000Y4053500D02*
Y4121800D01*
G01X4430000Y5005000D02*
Y5050000D01*
X4420000Y5060000D01*
Y5080200D01*
G01X4540000Y5005000D02*
Y5060000D01*
X4560000Y5080000D01*
Y5080200D01*
G01X4210000Y5005000D02*
Y5085500D01*
G01X4320000Y5005000D02*
Y5085500D01*
G01X4560000Y7265000D02*
X4355000D01*
X4350000Y7260000D01*
G01X4605000Y220000D02*
Y180000D01*
G01X5050000Y500000D02*
Y460000D01*
X5055000Y455000D01*
Y420000D01*
G01X4595000Y2640000D02*
Y2750000D01*
G01X4660000Y4063500D02*
Y4131800D01*
G01X4760000Y5005000D02*
Y5050000D01*
X4780000Y5070000D01*
Y5080200D01*
G01X4650000Y5005000D02*
Y5085500D01*
G01X5415000Y3805000D02*
X5334500D01*
G01X5415000Y3715000D02*
X5334500D01*
G01X5415000Y4830000D02*
Y4719500D01*
G01Y5010000D02*
X5562300D01*
X5567300Y5005000D01*
X5635000D01*
G01X5590000Y155000D02*
X5675000D01*
G01X5955000Y2750000D02*
Y2865000D01*
X6020000Y2930000D01*
X6195000D01*
G01X5955000Y2750000D02*
Y2640000D01*
G01Y2520000D02*
X5900000D01*
G01X5975000Y4075000D02*
Y4155500D01*
G01X5825000Y4200000D02*
Y4310500D01*
G01X5675000Y4075000D02*
Y4155500D01*
G01X5565000Y4053500D02*
Y4121800D01*
G01X5980000Y5090000D02*
Y5060000D01*
X5965000Y5045000D01*
Y5005000D01*
G01X5855000D02*
Y5075700D01*
G01X5745000Y5005000D02*
Y5075700D01*
G01X5635000Y5005000D02*
Y5075700D01*
G01X5990000Y7265000D02*
X5780000D01*
X5775000Y7260000D01*
G01X6175000Y410000D02*
X6200000D01*
X6240000Y370000D01*
G01X6630000Y2592500D02*
X6472500D01*
G01X6285000Y2930000D02*
Y3020000D01*
G01X6190000Y2787500D02*
Y2856400D01*
X6195000Y2861400D01*
Y2930000D01*
G01D02*
Y3020000D01*
G01X6085000Y4063500D02*
Y4131800D01*
G01X6075000Y5005000D02*
Y5075700D01*
G01X6185000Y5005000D02*
X6255700D01*
G01X6790000Y245000D02*
Y164500D01*
G01Y535000D02*
Y615500D01*
G01X6910000Y245000D02*
Y164500D01*
G01Y535000D02*
Y615500D01*
G01D02*
Y639900D01*
X6852600Y697300D01*
X6732300D01*
X6675000Y640000D01*
G01X6535000Y2930000D02*
Y3005000D01*
G01X6625000Y2930000D02*
Y3005000D01*
G01X6630000Y2787500D02*
Y2856400D01*
X6625000Y2861400D01*
Y2930000D01*
G01X6875000Y2640000D02*
Y2750000D01*
G01X6625000Y2930000D02*
X6810000D01*
X6875000Y2865000D01*
Y2750000D01*
G01X7225000Y150000D02*
Y230000D01*
G01X7135000Y150000D02*
X7080000D01*
X7070000Y160000D01*
G01X7305000Y2750000D02*
Y2865000D01*
X7370000Y2930000D01*
X7545000D01*
G01X7305000Y2750000D02*
Y2640000D01*
G01Y2520000D02*
X7240000D01*
G01X7310000Y3805000D02*
X7229500D01*
G01X7310000Y3715000D02*
X7229500D01*
G01X7460000Y4053500D02*
Y4121800D01*
G01X7310000Y4830000D02*
Y4719500D01*
G01Y5010000D02*
X7457300D01*
X7462300Y5005000D01*
X7530000D01*
G01X7685000Y510000D02*
X7600000D01*
G01X7950000Y1325000D02*
Y1357000D01*
X7915900Y1391100D01*
G01X7885000Y2930000D02*
X7820000D01*
G01X7635000D02*
X7680000D01*
G01X7840000Y2510000D02*
X7922500Y2592500D01*
X7980000D01*
G01X7540000Y2787500D02*
Y2856400D01*
X7545000Y2861400D01*
Y2930000D01*
G01D02*
Y2985000D01*
G01X7870000Y4075000D02*
Y4155500D01*
G01X7720000Y4200000D02*
Y4310500D01*
G01X7570000Y4075000D02*
Y4155500D01*
G01X7530000Y5005000D02*
Y5075700D01*
G01X7640000Y5005000D02*
Y5075700D01*
G01X7750000Y5005000D02*
Y5075700D01*
G01X7860000Y5005000D02*
Y5075700D01*
G01X7880000Y7265000D02*
X7670000D01*
X7665000Y7260000D01*
G01X8145000Y510000D02*
Y413800D01*
X8169900Y388900D01*
G01X7975000Y2930000D02*
Y2995000D01*
G01X7980000Y2787500D02*
Y2856400D01*
X7975000Y2861400D01*
Y2930000D01*
G01X8225000Y2640000D02*
Y2750000D01*
G01X7975000Y2930000D02*
X8160000D01*
X8225000Y2865000D01*
Y2750000D01*
G01X7980000Y4063500D02*
Y4131800D01*
G01X7970000Y5005000D02*
Y5075700D01*
G01X8080000Y5005000D02*
Y5075700D01*
G01X8715000Y2930000D02*
X8634500D01*
G01X8715000Y2780000D02*
X8670000D01*
X8640000Y2810000D01*
X8639800D01*
G01X8735000Y3805000D02*
X8664300D01*
G01X8735000Y3715000D02*
X8765000Y3685000D01*
G01X8885000Y4053500D02*
Y4121800D01*
G01X8735000Y4830000D02*
Y4719500D01*
G01Y5010000D02*
X8882300D01*
X8887300Y5005000D01*
X8955000D01*
G01X9005000Y2930000D02*
X9085500D01*
G01X9005000Y2780000D02*
X9060000D01*
X9090000Y2810000D01*
G01X9295000Y4075000D02*
Y4155500D01*
G01X9145000Y4200000D02*
Y4310500D01*
G01X8995000Y4075000D02*
Y4155500D01*
G01X8955000Y5005000D02*
Y5075700D01*
G01X9175000Y5005000D02*
Y5075700D01*
G01X9065000Y5005000D02*
Y5075700D01*
G01X9285000Y5005000D02*
Y5075700D01*
G01X9300000Y7265000D02*
X9095000D01*
X9090000Y7260000D01*
G01X9405000Y4063500D02*
Y4131800D01*
G01X9395000Y5005000D02*
Y5075700D01*
G01X9505000Y5005000D02*
Y5075700D01*
G01X10135000Y2930000D02*
X10054500D01*
G01X10135000Y2780000D02*
X10090000D01*
X10060000Y2810000D01*
X10059800D01*
G01X10160000Y3805000D02*
X10079500D01*
G01X10160000Y3715000D02*
X10079500D01*
G01X10310000Y4053500D02*
Y4121800D01*
G01X10160000Y4830000D02*
Y4719500D01*
G01Y5010000D02*
X10307300D01*
X10312300Y5005000D01*
X10380000D01*
G01X10425000Y2930000D02*
X10505500D01*
G01X10425000Y2780000D02*
X10480000D01*
X10510000Y2810000D01*
G01X10720000Y4075000D02*
Y4155500D01*
G01X10570000Y4200000D02*
Y4310500D01*
G01X10420000Y4075000D02*
Y4155500D01*
G01X10380000Y5005000D02*
Y5075700D01*
G01X10490000Y5005000D02*
Y5075700D01*
G01X10600000Y5005000D02*
Y5075700D01*
G01X10710000Y5005000D02*
Y5075700D01*
G01X10820000Y5005000D02*
Y5075700D01*
G01X10730000Y7265000D02*
X10520000D01*
X10515000Y7260000D01*
G01X10830000Y4063500D02*
Y4131800D01*
G01X10930000Y5005000D02*
Y5075700D01*
G01X11575000Y2930000D02*
X11560000D01*
X11490000Y3000000D01*
G01X11575000Y2780000D02*
X11494500D01*
G01X11585000Y3805000D02*
X11504500D01*
G01X11585000Y3715000D02*
X11504500D01*
G01X11735000Y4053500D02*
Y4121800D01*
G01X11585000Y4830000D02*
Y4719500D01*
G01Y5010000D02*
X11732300D01*
X11737300Y5005000D01*
X11805000D01*
G01X12155000Y620000D02*
Y577800D01*
X12093100Y515900D01*
G01X12035000Y420000D02*
Y447000D01*
X11966100Y515900D01*
G01Y642900D02*
X12032700D01*
X12087700Y697900D01*
Y822700D01*
X12145000Y880000D01*
G01X12474100Y642900D02*
Y835900D01*
X12430000Y880000D01*
X12235000D01*
G01X11865000Y2930000D02*
X11945500D01*
G01X11865000Y2780000D02*
X11945500D01*
G01X12145000Y4075000D02*
Y4155500D01*
G01X11995000Y4200000D02*
Y4310500D01*
G01X11845000Y4075000D02*
Y4155500D01*
G01X12255000Y4063500D02*
Y4131800D01*
G01X11805000Y5005000D02*
Y5075700D01*
G01X11915000Y5005000D02*
Y5075700D01*
G01X12025000Y5005000D02*
Y5075700D01*
G01X12135000Y5005000D02*
Y5075700D01*
G01X12245000Y5005000D02*
Y5075700D01*
G01X12150000Y7265000D02*
X11945000D01*
X11940000Y7260000D01*
G01X12355000Y5005000D02*
Y5075700D01*
G01X12895000Y2940000D02*
X12817500Y3017500D01*
G01X13185000Y2940000D02*
X13230000D01*
X13240000Y2950000D01*
X13255700D01*
G01X13185000Y2790000D02*
Y2810000D01*
X13190000Y2815000D01*
Y2817200D01*
X13228500Y2855700D01*
X13230700D01*
X13235000Y2860000D01*
X13260000D01*
G01X13185000Y2790000D02*
X13255700D01*
G01X12895000D02*
X12814500D01*
G01X13290000Y3035000D02*
X13260000D01*
G54D16*
X1140000Y4830000D03*
Y5010000D03*
X1550000Y4020000D03*
Y4200000D03*
X2565000Y4830000D03*
Y5010000D03*
X2930000Y1270000D03*
Y1090000D03*
X2975000Y4020000D03*
Y4200000D03*
X3990000Y4830000D03*
Y5010000D03*
X4400000Y4020000D03*
Y4200000D03*
X5415000Y4830000D03*
Y5010000D03*
X5825000Y4020000D03*
Y4200000D03*
X7310000Y4830000D03*
Y5010000D03*
X7720000Y4020000D03*
Y4200000D03*
X8735000Y4830000D03*
Y5010000D03*
X9145000Y4020000D03*
Y4200000D03*
X10160000Y4830000D03*
Y5010000D03*
X10570000Y4020000D03*
Y4200000D03*
X11585000Y4830000D03*
Y5010000D03*
X11995000Y4020000D03*
Y4200000D03*
G54D25*
X4480000Y560000D03*
X5660000D03*
G54D35*
G01X1582400Y1133500D02*
X1538800D01*
X1516800Y1155500D01*
X1433400D01*
X1371000Y1217900D01*
Y1491000D01*
X1750000Y1870000D01*
X5890000D01*
X6020000Y1740000D01*
X8311000D01*
X8374900Y1676100D01*
Y1567100D01*
X8423900Y1518100D01*
G01X1582400Y1206500D02*
X1538800D01*
X1516800Y1184500D01*
X1445500D01*
X1400000Y1230000D01*
Y1478900D01*
X1762100Y1841000D01*
X5877900D01*
X6007900Y1711000D01*
X8298900D01*
X8345900Y1664000D01*
Y1567100D01*
X8296900Y1518100D01*
G01X1387500Y3427400D02*
Y3383800D01*
X1409500Y3361800D01*
Y2729400D01*
X1727900Y2411000D01*
X2219100D01*
X2609100Y2021000D01*
X5967900D01*
X6097900Y1891000D01*
X8587900D01*
X8820000Y1658900D01*
Y1420000D01*
X8881000Y1359000D01*
Y1232100D01*
X8801000Y1152100D01*
Y1011900D01*
X8832900Y980000D01*
X8978000D01*
X9009900Y1011900D01*
Y1088100D01*
X9058900Y1137100D01*
G01X8931900D02*
X8980900Y1088100D01*
Y1024000D01*
X8965900Y1009000D01*
X8845000D01*
X8830000Y1024000D01*
Y1140000D01*
X8910000Y1220000D01*
Y1371100D01*
X8849000Y1432100D01*
Y1671000D01*
X8600000Y1920000D01*
X6110000D01*
X5980000Y2050000D01*
X2621200D01*
X2231200Y2440000D01*
X1740000D01*
X1438500Y2741500D01*
Y3361800D01*
X1460500Y3383800D01*
Y3427400D01*
G01X12601100Y1264100D02*
X12537000Y1200000D01*
X12183700D01*
X12160000Y1223700D01*
Y1306300D01*
X12136300Y1330000D01*
X11690100D01*
X11650000Y1289900D01*
Y210000D01*
X11490000Y50000D01*
X2210000D01*
X2110000Y150000D01*
Y790000D01*
G01X1937700Y496500D02*
X1894100D01*
X1872100Y474500D01*
X1750000D01*
X1735000Y489500D01*
Y550000D01*
G01X1937700Y423500D02*
X1894100D01*
X1872100Y445500D01*
X1750000D01*
X1735000Y430500D01*
Y370000D01*
G01X1846500Y2326900D02*
Y2283300D01*
X1824500Y2261300D01*
Y2005500D01*
X1860000Y1970000D01*
X5960000D01*
X6091000Y1839000D01*
X8491000D01*
X8755900Y1574100D01*
Y1313100D01*
X8804900Y1264100D01*
G01X1773500Y2326900D02*
Y2283300D01*
X1795500Y2261300D01*
Y1993400D01*
X1847900Y1941000D01*
X5947900D01*
X6078900Y1810000D01*
X8478900D01*
X8726900Y1562000D01*
Y1313100D01*
X8677900Y1264100D01*
G01X8169900Y1137100D02*
Y1150100D01*
X8129000Y1191000D01*
Y1331000D01*
X7950000Y1510000D01*
X4009900D01*
X3378900Y879000D01*
X2852400D01*
X2795500Y822100D01*
Y555400D01*
X2773500Y533400D01*
Y489800D01*
G01X8042900Y1137100D02*
X8100000Y1194200D01*
Y1318900D01*
X7937900Y1481000D01*
X4022000D01*
X3391000Y850000D01*
X2864500D01*
X2824500Y810000D01*
Y555400D01*
X2846500Y533400D01*
Y489800D01*
G01X2812500Y3427400D02*
Y3383800D01*
X2834500Y3361800D01*
Y3187900D01*
X2971400Y3051000D01*
X3882100D01*
X4159000Y3327900D01*
Y3607900D01*
X4312100Y3761000D01*
X5192100D01*
X5302100Y3871000D01*
X5557900D01*
X5627900Y3801000D01*
X6402100D01*
X6482100Y3881000D01*
X6877900D01*
X6937900Y3821000D01*
X7122100D01*
X7222100Y3921000D01*
X7337900D01*
X7467900Y3791000D01*
X8342100D01*
X8442100Y3891000D01*
X8642700D01*
X8643200Y3891500D01*
X8686000D01*
X8686500Y3891000D01*
X8797900D01*
X8867900Y3821000D01*
X9772100D01*
X9872100Y3921000D01*
X10177900D01*
X10327900Y3771000D01*
X11372100D01*
X11482100Y3881000D01*
X11657900D01*
X11747900Y3791000D01*
X12258000D01*
X12391000Y3658000D01*
Y2737900D01*
X12671000Y2457900D01*
Y1072200D01*
X12598800Y1000000D01*
X11980000D01*
X11917100Y1062900D01*
Y1215100D01*
X11966100Y1264100D01*
G01X2885500Y3427400D02*
Y3383800D01*
X2863500Y3361800D01*
Y3200000D01*
X2983500Y3080000D01*
X3870000D01*
X4130000Y3340000D01*
Y3620000D01*
X4300000Y3790000D01*
X5180000D01*
X5290000Y3900000D01*
X5570000D01*
X5640000Y3830000D01*
X6390000D01*
X6470000Y3910000D01*
X6890000D01*
X6950000Y3850000D01*
X7110000D01*
X7210000Y3950000D01*
X7350000D01*
X7480000Y3820000D01*
X8330000D01*
X8430000Y3920000D01*
X8630600D01*
X8631100Y3920500D01*
X8698100D01*
X8698600Y3920000D01*
X8810000D01*
X8880000Y3850000D01*
X9760000D01*
X9860000Y3950000D01*
X10190000D01*
X10340000Y3800000D01*
X11360000D01*
X11470000Y3910000D01*
X11670000D01*
X11760000Y3820000D01*
X12270100D01*
X12420000Y3670100D01*
Y2750000D01*
X12700000Y2470000D01*
Y1060100D01*
X12610900Y971000D01*
X11967900D01*
X11888100Y1050800D01*
Y1215100D01*
X11839100Y1264100D01*
G01X3266500Y2400000D02*
Y2356400D01*
X3244500Y2334400D01*
Y2235500D01*
X3340000Y2140000D01*
X5981200D01*
X6131200Y1990000D01*
X8731200D01*
X9136900Y1584300D01*
Y1313100D01*
X9185900Y1264100D01*
G01X3193500Y2400000D02*
Y2356400D01*
X3215500Y2334400D01*
Y2223400D01*
X3327900Y2111000D01*
X5969100D01*
X6119100Y1961000D01*
X8719100D01*
X9107900Y1572200D01*
Y1313100D01*
X9058900Y1264100D01*
G01X4237500Y3427400D02*
Y3471000D01*
X4259500Y3493000D01*
Y3619500D01*
X4350000Y3710000D01*
X5120000D01*
X5210000Y3620000D01*
X5650000D01*
X5760000Y3730000D01*
X6470000D01*
X6580000Y3620000D01*
X7480000D01*
X7580000Y3720000D01*
X8360000D01*
X8490000Y3590000D01*
X8858800D01*
X9047800Y3779000D01*
X9741000D01*
X9881000Y3639000D01*
X10329000D01*
X10409000Y3719000D01*
X11341000D01*
X11410000Y3650000D01*
X11640100D01*
X11720100Y3730000D01*
X12242100D01*
X12320000Y3652100D01*
Y2730000D01*
X12620000Y2430000D01*
Y1850000D01*
X12299000Y1529000D01*
Y1312200D01*
X12347100Y1264100D01*
G01X4310500Y3427400D02*
Y3471000D01*
X4288500Y3493000D01*
Y3607400D01*
X4362100Y3681000D01*
X5107900D01*
X5197900Y3591000D01*
X5662100D01*
X5772100Y3701000D01*
X6457900D01*
X6567900Y3591000D01*
X7492100D01*
X7592100Y3691000D01*
X8347900D01*
X8477900Y3561000D01*
X8870900D01*
X9059900Y3750000D01*
X9728900D01*
X9868900Y3610000D01*
X10341100D01*
X10421100Y3690000D01*
X11328900D01*
X11397900Y3621000D01*
X11652200D01*
X11732200Y3701000D01*
X12230000D01*
X12291000Y3640000D01*
Y2717900D01*
X12591000Y2417900D01*
Y1862100D01*
X12270000Y1541100D01*
Y1314000D01*
X12220100Y1264100D01*
G01X4686500Y2322400D02*
Y2278800D01*
X4664500Y2256800D01*
Y2228500D01*
X4679500Y2213500D01*
X5997700D01*
X6152200Y2059000D01*
X8782200D01*
X9242200Y1599000D01*
X9291000D01*
X9291400Y1598600D01*
X9422600D01*
X9517900Y1503300D01*
Y1313100D01*
X9566900Y1264100D01*
G01X4613500Y2322400D02*
Y2278800D01*
X4635500Y2256800D01*
Y2216400D01*
X4667400Y2184500D01*
X5985600D01*
X6140100Y2030000D01*
X8770100D01*
X9230100Y1570000D01*
X9278900D01*
X9279300Y1569600D01*
X9410500D01*
X9488900Y1491200D01*
Y1313100D01*
X9439900Y1264100D01*
G01X5694200Y1757900D02*
Y1714300D01*
X5716200Y1692300D01*
Y1649000D01*
X5716100Y1649100D01*
Y1612000D01*
X5748100Y1580000D01*
X8120000D01*
X8170000Y1530000D01*
Y1360000D01*
X8390000Y1140000D01*
Y1038800D01*
X8448800Y980000D01*
X8590000D01*
X8628900Y1018900D01*
Y1088100D01*
X8677900Y1137100D01*
G01X5767200Y1757900D02*
Y1714300D01*
X5745200Y1692300D01*
Y1649000D01*
X5745100Y1649100D01*
Y1624100D01*
X5760200Y1609000D01*
X8132100D01*
X8199000Y1542100D01*
Y1372100D01*
X8419000Y1152100D01*
Y1050900D01*
X8460900Y1009000D01*
X8577900D01*
X8599900Y1031000D01*
Y1088100D01*
X8550900Y1137100D01*
G01X5662500Y3427400D02*
Y3383800D01*
X5684500Y3361800D01*
Y2524300D01*
X5798800Y2410000D01*
X6120000D01*
X6350000Y2180000D01*
X8870000D01*
X9300000Y1750000D01*
X9800000D01*
X9961000Y1589000D01*
Y1378000D01*
X10021000Y1318000D01*
Y1091000D01*
X9880000Y950000D01*
X9490000D01*
X9390900Y1049100D01*
Y1088100D01*
X9439900Y1137100D01*
G01X5735500Y3427400D02*
Y3383800D01*
X5713500Y3361800D01*
Y2536400D01*
X5810900Y2439000D01*
X6132100D01*
X6362100Y2209000D01*
X8882100D01*
X9312100Y1779000D01*
X9812100D01*
X9990000Y1601100D01*
Y1390100D01*
X10050000Y1330100D01*
Y1078900D01*
X9892100Y921000D01*
X9477900D01*
X9361900Y1037000D01*
Y1088100D01*
X9312900Y1137100D01*
G01X6116500Y2322400D02*
Y2278800D01*
X6094500Y2256800D01*
Y2216600D01*
X6172100Y2139000D01*
X8832200D01*
X9271200Y1700000D01*
X9710000D01*
X9898900Y1511100D01*
Y1313100D01*
X9947900Y1264100D01*
G01X6043500Y2322400D02*
Y2278800D01*
X6065500Y2256800D01*
Y2204500D01*
X6160000Y2110000D01*
X8820100D01*
X9259100Y1671000D01*
X9697900D01*
X9869900Y1499000D01*
Y1313100D01*
X9820900Y1264100D01*
G01X8016500Y2482400D02*
X7994500Y2460400D01*
Y2316500D01*
X8032000Y2279000D01*
X8941000D01*
X9350000Y1870000D01*
X9960000D01*
X10200000Y1630000D01*
Y1426400D01*
X10279900Y1346500D01*
Y1313100D01*
X10328900Y1264100D01*
G01X7943500Y2482400D02*
Y2477500D01*
X7965500Y2455500D01*
Y2304400D01*
X8019900Y2250000D01*
X8928900D01*
X9337900Y1841000D01*
X9947900D01*
X10171000Y1617900D01*
Y1414300D01*
X10250900Y1334400D01*
Y1313100D01*
X10201900Y1264100D01*
G01X10407500Y3427400D02*
Y3383800D01*
X10429500Y3361800D01*
Y3306400D01*
X10524900Y3211000D01*
X10578000D01*
X10641000Y3148000D01*
Y2017900D01*
X10831000Y1827900D01*
Y1487900D01*
X10931000Y1387900D01*
Y1130900D01*
X10670100Y870000D01*
X9130100D01*
X9001000Y740900D01*
Y572000D01*
X8950700Y521700D01*
X8890500D01*
X8875500Y536700D01*
Y586500D01*
X8931900Y642900D01*
G01X10480500Y3427400D02*
Y3383800D01*
X10458500Y3361800D01*
Y3318500D01*
X10537000Y3240000D01*
X10590100D01*
X10670000Y3160100D01*
Y2030000D01*
X10860000Y1840000D01*
Y1500000D01*
X10960000Y1400000D01*
Y1118800D01*
X10682200Y841000D01*
X9142200D01*
X9030000Y728800D01*
Y559900D01*
X8962800Y492700D01*
X8878400D01*
X8846500Y524600D01*
Y601300D01*
X8804900Y642900D01*
G01X11832500Y3427400D02*
Y3383800D01*
X11854500Y3361800D01*
Y3305500D01*
X11920000Y3240000D01*
X11988900D01*
X12081000Y3147900D01*
Y2571000D01*
X11870000Y2360000D01*
X11690000D01*
X11390000Y2060000D01*
Y1451200D01*
X11361000Y1422200D01*
Y1178000D01*
X11490000Y1049000D01*
Y410000D01*
X11240000Y160000D01*
X9660000D01*
X9263900Y556100D01*
Y593900D01*
X9312900Y642900D01*
G01X11905500Y3427400D02*
Y3383800D01*
X11883500Y3361800D01*
Y3317600D01*
X11932100Y3269000D01*
X12001000D01*
X12110000Y3160000D01*
Y2558900D01*
X11882100Y2331000D01*
X11702100D01*
X11419000Y2047900D01*
Y1439100D01*
X11390000Y1410100D01*
Y1190100D01*
X11519000Y1061100D01*
Y397900D01*
X11252100Y131000D01*
X9647900D01*
X9234900Y544000D01*
Y593900D01*
X9185900Y642900D01*
G01X9363500Y2422400D02*
Y2378800D01*
X9385500Y2356800D01*
Y2093500D01*
X9558000Y1921000D01*
X10477900D01*
X10681000Y1717900D01*
Y1398500D01*
X10745100Y1334400D01*
Y1313100D01*
X10696100Y1264100D01*
G01X8982500Y3527400D02*
Y3571000D01*
X9004500Y3593000D01*
Y3635600D01*
X9078900Y3710000D01*
X9390100D01*
X9410100Y3690000D01*
X9412500D01*
X9663500Y3439000D01*
X9817900D01*
X9917900Y3539000D01*
X10512100D01*
X10621100Y3430000D01*
X10937100D01*
X11030000Y3337100D01*
Y2961100D01*
X11279600Y2711500D01*
Y1460300D01*
X11300000Y1439900D01*
Y1159900D01*
X11449000Y1010900D01*
Y819100D01*
X11290000Y660100D01*
Y557000D01*
X11331100Y515900D01*
G01X9055500Y3527400D02*
Y3571000D01*
X9033500Y3593000D01*
Y3623400D01*
X9091100Y3681000D01*
X9378000D01*
X9398000Y3661000D01*
X9400400D01*
X9651400Y3410000D01*
X9830000D01*
X9930000Y3510000D01*
X10500000D01*
X10609000Y3401000D01*
X10925000D01*
X11001000Y3325000D01*
Y2949000D01*
X11250600Y2699400D01*
Y1448200D01*
X11271000Y1427800D01*
Y1147800D01*
X11420000Y998800D01*
Y831200D01*
X11261000Y672200D01*
Y572800D01*
X11204100Y515900D01*
G01X9436500Y2422400D02*
Y2378800D01*
X9414500Y2356800D01*
Y2105600D01*
X9570100Y1950000D01*
X10490000D01*
X10710000Y1730000D01*
Y1410600D01*
X10774100Y1346500D01*
Y1313100D01*
X10823100Y1264100D01*
G01X10803500Y2422400D02*
Y2378800D01*
X10825500Y2356800D01*
Y2113400D01*
X11126100Y1812800D01*
Y1313100D01*
X11077100Y1264100D01*
G01X10876500Y2422400D02*
Y2378800D01*
X10854500Y2356800D01*
Y2125600D01*
X11155100Y1825000D01*
Y1313100D01*
X11204100Y1264100D01*
G01X12296500Y2422400D02*
Y2378800D01*
X12274500Y2356800D01*
Y2054400D01*
X12110100Y1890000D01*
X11750000D01*
X11536100Y1676100D01*
Y1313100D01*
X11585100Y1264100D01*
G01X12223500Y2422400D02*
Y2378800D01*
X12245500Y2356800D01*
Y2066600D01*
X12097900Y1919000D01*
X11737900D01*
X11507100Y1688200D01*
Y1313100D01*
X11458100Y1264100D01*
G54D26*
X4355000Y360000D03*
X4405000D03*
X4455000D03*
X4505000D03*
X4555000D03*
Y760000D03*
X4505000D03*
X4455000D03*
X4405000D03*
X4355000D03*
X4605000Y360000D03*
Y760000D03*
X5535000Y360000D03*
X5585000D03*
X5635000D03*
X5685000D03*
X5735000D03*
X5785000D03*
Y760000D03*
X5735000D03*
X5685000D03*
X5635000D03*
X5585000D03*
X5535000D03*
G54D17*
X932500Y5260000D03*
X1250000Y5760000D03*
X932500Y6260000D03*
Y7260000D03*
X1500000D03*
X1790000Y5760000D03*
X2357500Y3760000D03*
Y4760000D03*
Y5760000D03*
X2675000D03*
X2357500Y6760000D03*
X3215000Y5760000D03*
X2925000Y7260000D03*
X4100000Y5760000D03*
X4640000D03*
X4350000Y7260000D03*
X5207500Y5260000D03*
X5525000Y5760000D03*
X5207500Y6260000D03*
Y7260000D03*
X6065000Y5760000D03*
X5775000Y7260000D03*
X6632500Y3760000D03*
Y4760000D03*
Y5760000D03*
Y6760000D03*
X7097500Y5260000D03*
X7415000Y5760000D03*
X7097500Y6260000D03*
Y7260000D03*
X7955000Y5760000D03*
X7665000Y7260000D03*
X8522500Y3760000D03*
Y4760000D03*
Y5760000D03*
Y6760000D03*
X8840000Y5760000D03*
X9380000D03*
X9090000Y7260000D03*
X10265000Y5760000D03*
X10805000D03*
X10515000Y7260000D03*
X11372500Y5260000D03*
Y6260000D03*
Y7260000D03*
X11690000Y5760000D03*
X12230000D03*
X11940000Y7260000D03*
X12797500Y3760000D03*
Y4760000D03*
Y5760000D03*
Y6760000D03*
G54D36*
G01X140000Y2765000D02*
Y2836500D01*
X266500Y2963000D01*
Y3053000D01*
G01X530000Y2765000D02*
X400000D01*
G01D02*
Y2842500D01*
X520500Y2963000D01*
Y3053000D01*
G01X270000Y2765000D02*
Y2839500D01*
X393500Y2963000D01*
Y3053000D01*
G01X698900Y6031600D02*
X931600D01*
X1230000Y6330000D01*
Y7480000D01*
X1310000Y7560000D01*
X1575000D01*
G01X739500Y5970800D02*
X980800D01*
X2570000Y7560000D01*
X3000000D01*
G01X4425000D02*
X3700000D01*
X3270000Y7130000D01*
X2250000D01*
X1030000Y5910000D01*
X780000D01*
G01X5850000Y7560000D02*
X5110000D01*
X4630000Y7080000D01*
X2300000D01*
X1070000Y5850000D01*
X871300D01*
X870500Y5849200D01*
X820500D01*
G01X1645000Y370000D02*
Y240000D01*
G01D02*
X1515000D01*
G01X1425000D02*
X1262500D01*
G01X1645000Y680000D02*
Y550000D01*
G01X1515000Y680000D02*
X1645000D01*
G01X1425000D02*
X1262500D01*
G01X1400000Y3985000D02*
X1308500D01*
X1290000Y3966500D01*
G01X1550000Y4020000D02*
Y3920000D01*
X1560000Y3910000D01*
G01X1400000Y3985000D02*
X1515000D01*
X1550000Y4020000D01*
G01X1360000Y4915000D02*
Y4834500D01*
G01X1580000Y4915000D02*
Y4834500D01*
G01X1470000Y4915000D02*
Y4834500D01*
G01X2270000Y2722500D02*
X2152500D01*
X2125000Y2750000D01*
G01X2270000Y2657500D02*
X2142500D01*
X2125000Y2640000D01*
G01Y2520000D02*
X2250000D01*
X2270000Y2540000D01*
Y2592500D01*
G01X1700000Y3985000D02*
Y3910000D01*
G01X1810000Y3976500D02*
X1708500D01*
X1700000Y3985000D01*
G01X1690000Y4915000D02*
Y4834500D01*
G01X1800000Y4915000D02*
Y4834500D01*
G01X1910000Y4915000D02*
Y4834500D01*
G01X6790000Y6648000D02*
X6722000Y6580000D01*
X2920000D01*
X1970000Y5630000D01*
Y4894500D01*
X1910000Y4834500D01*
G01X1715000Y7560000D02*
Y7487000D01*
X1710000Y7482000D01*
Y7415000D01*
G01X2270000Y2722500D02*
X2373000D01*
X2390000Y2739500D01*
Y2740000D01*
G01X2270000Y2657500D02*
X2372500D01*
X2390000Y2640000D01*
G01X2710000Y2722500D02*
X2837500D01*
X2865000Y2750000D01*
G01D02*
Y2805000D01*
G01X2710000Y2657500D02*
X2847500D01*
X2865000Y2640000D01*
G01D02*
Y2585000D01*
G01X2975000Y4020000D02*
Y3915000D01*
G01Y4020000D02*
X2860000D01*
X2825000Y3985000D01*
G01D02*
X2733500D01*
X2715000Y3966500D01*
G01X2785000Y4915000D02*
Y4834500D01*
G01X3005000Y4915000D02*
Y4834500D01*
G01X2895000Y4915000D02*
Y4834500D01*
G01X4280000Y435000D02*
X3495000D01*
X3450000Y480000D01*
G01X4280000Y485000D02*
X3546300D01*
X3510800Y520500D01*
G01X4280000Y535000D02*
X3615000D01*
X3590000Y560000D01*
G01X3125000Y3985000D02*
Y3915000D01*
G01X3235000Y3976500D02*
X3133500D01*
X3125000Y3985000D01*
G01X3115000Y4915000D02*
Y4834500D01*
G01X3225000Y4915000D02*
Y4834500D01*
G01X3335000Y4915000D02*
Y4834500D01*
G01X3140000Y7560000D02*
Y7415000D01*
G01X4280000Y585000D02*
X3685000D01*
X3660000Y610000D01*
G01X4280000Y635000D02*
X3755000D01*
X3730000Y660000D01*
G01X4280000Y685000D02*
X3825000D01*
X3800000Y710000D01*
G01X3875000Y755000D02*
X3925000D01*
X3930000Y760000D01*
X4355000D01*
G01X3765000Y2750000D02*
X3792500Y2722500D01*
X3910000D01*
G01D02*
X4092500D01*
X4110000Y2740000D01*
G01X3765000Y2640000D02*
X3782500Y2657500D01*
X3910000D01*
G01D02*
X4092500D01*
X4110000Y2640000D01*
G01X3765000Y2520000D02*
X3890000D01*
X3910000Y2540000D01*
Y2592500D01*
G01X4870000Y210000D02*
X4800000Y280000D01*
X4572000D01*
X4555000Y297000D01*
Y360000D01*
G01X5535000D02*
Y335000D01*
X5480000Y280000D01*
Y190000D01*
X5380000Y90000D01*
X4287500D01*
X4250000Y127500D01*
Y320000D01*
X4290000Y360000D01*
X4355000D01*
G01X4405000D02*
Y291200D01*
X4400000Y286200D01*
X4410000Y245000D01*
G01X4470000Y950000D02*
X4505400Y914600D01*
Y885400D01*
X4505000Y885000D01*
Y760000D01*
G01X4555000Y950000D02*
Y760000D01*
G01X4380000Y950000D02*
Y850000D01*
X4405000Y825000D01*
Y760000D01*
G01X4350000Y2722500D02*
X4477500D01*
X4505000Y2750000D01*
G01D02*
Y2815000D01*
G01X4350000Y2657500D02*
X4487500D01*
X4505000Y2640000D01*
G01D02*
Y2570000D01*
G01X4140000Y3966500D02*
X4231500D01*
X4250000Y3985000D01*
G01X4400000Y4020000D02*
Y3910000D01*
G01X4250000Y3985000D02*
X4365000D01*
X4400000Y4020000D01*
G01X4550000Y3985000D02*
Y3910000D01*
G01X4660000Y3976500D02*
X4558500D01*
X4550000Y3985000D01*
G01X4210000Y4915000D02*
Y4834500D01*
G01X4430000Y4915000D02*
Y4834500D01*
G01X4540000Y4915000D02*
Y4834500D01*
G01X4320000Y4915000D02*
Y4834500D01*
G01X4565000Y7560000D02*
Y7487000D01*
X4560000Y7482000D01*
Y7415000D01*
G01X5190000Y180000D02*
X4980000D01*
X4800000Y360000D01*
X4605000D01*
G01X4880100Y529800D02*
X4823700Y473400D01*
X4758800D01*
X4747200Y485000D01*
X4680000D01*
G01X4965000Y420000D02*
X4756200D01*
X4741200Y435000D01*
X4680000D01*
G01X4620000Y870000D02*
X4605000Y855000D01*
Y760000D01*
G01X4820000Y800000D02*
Y720000D01*
X4785000Y685000D01*
X4680000D01*
G01X4910000Y800000D02*
Y739900D01*
X4805100Y635000D01*
X4680000D01*
G01X4860000Y600000D02*
X4780000D01*
X4765000Y585000D01*
X4680000D01*
G01Y535000D02*
X4790000D01*
G01X4650000Y4915000D02*
Y4834500D01*
G01X4760000Y4915000D02*
Y4834500D01*
G01X6800000Y5623400D02*
X5263400D01*
X4910000Y5270000D01*
Y4929900D01*
X4814600Y4834500D01*
X4760000D01*
G01X5295000Y255000D02*
X5364800Y324800D01*
Y364800D01*
X5435000Y435000D01*
X5460000D01*
G01X5190000Y380000D02*
Y433700D01*
X5234300Y478000D01*
X5383600D01*
X5386800Y481200D01*
X5392900D01*
X5396700Y485000D01*
X5460000D01*
G01X5360000Y535000D02*
X5460000D01*
G01X5310000Y590000D02*
X5379300D01*
X5384300Y585000D01*
X5460000D01*
G01X5585000Y760000D02*
Y835000D01*
X5540000Y880000D01*
X5510000D01*
G01X5420000Y840000D02*
Y780000D01*
X5440000Y760000D01*
X5535000D01*
G01X5338000Y840000D02*
Y714000D01*
X5367000Y685000D01*
X5460000D01*
G01X5250000Y650000D02*
X5350100D01*
X5365100Y635000D01*
X5460000D01*
G01X7530000Y4834500D02*
Y4785300D01*
X7404700Y4660000D01*
X7240000D01*
X7180000Y4720000D01*
X6800000D01*
X6630000Y4550000D01*
X5533700D01*
X5523700Y4540000D01*
X5490000D01*
X5440000Y4490000D01*
G01X5785000Y360000D02*
X5998300D01*
X6058300Y300000D01*
X6110000D01*
G01X6370000Y220000D02*
X5813800D01*
X5735000Y298800D01*
Y360000D01*
G01X5860000Y535000D02*
X5945000D01*
X5950000Y540000D01*
G01X6240000Y520000D02*
X6080000D01*
X6045000Y485000D01*
X5860000D01*
G01Y435000D02*
X6060000D01*
X6085000Y410000D01*
G01X5585000Y360000D02*
Y291200D01*
X5580000Y286200D01*
X5590000Y245000D01*
G01X5980000Y920000D02*
X5926300D01*
X5896300Y950000D01*
X5813800D01*
X5685000Y821200D01*
Y760000D01*
G01X5840000Y890000D02*
X5774500Y824500D01*
X5759800D01*
X5735000Y799600D01*
Y760000D01*
G01X6590000Y880000D02*
X6130000D01*
X6010000Y760000D01*
X5785000D01*
G01X6690000Y880000D02*
X6680000Y870000D01*
Y860000D01*
X6647500Y827500D01*
X6540800D01*
X6525800Y812500D01*
X6152500D01*
X6025000Y685000D01*
X5860000D01*
G01Y635000D02*
X5922000D01*
X5929000Y642000D01*
X6072000D01*
X6110000Y680000D01*
G01X6280000Y650000D02*
X6200000D01*
X6147000Y597000D01*
X5926400D01*
X5914400Y585000D01*
X5860000D01*
G01X5825000Y4020000D02*
Y3916800D01*
G01X5565000Y3966500D02*
X5656500D01*
X5675000Y3985000D01*
G01X5825000Y4020000D02*
X5790000Y3985000D01*
X5675000D01*
G01X5975000D02*
Y3915000D01*
G01X6085000Y3976500D02*
X5983500D01*
X5975000Y3985000D01*
G01X5635000Y4915000D02*
Y4834500D01*
G01X5855000Y4915000D02*
Y4834500D01*
G01X5965000Y4915000D02*
Y4834500D01*
G01X5745000Y4915000D02*
Y4834500D01*
G01X5639000Y4730000D02*
X6200000D01*
X6580000Y5110000D01*
X7170000D01*
X7260000Y5200000D01*
X10970000D01*
X11520000Y4650000D01*
X11620500D01*
X11805000Y4834500D01*
G01X5990000Y7560000D02*
Y7415000D01*
G01X6610000Y340000D02*
X6480000D01*
G01D02*
X6310000D01*
X6270000Y300000D01*
X6110000D01*
G01X6708700Y445000D02*
X6635100D01*
X6612600Y422500D01*
X6472500D01*
G01X6190000Y2722500D02*
X6072500D01*
X6045000Y2750000D01*
G01X6190000Y2722500D02*
X6342500D01*
X6380000Y2760000D01*
G01X6190000Y2657500D02*
X6062500D01*
X6045000Y2640000D01*
G01X6190000Y2657500D02*
X6387500D01*
X6410000Y2680000D01*
G01X6045000Y2520000D02*
X6170000D01*
X6190000Y2540000D01*
Y2592500D01*
G01X6075000Y4915000D02*
Y4834500D01*
G01X6185000Y4915000D02*
Y4834500D01*
G01Y4915000D02*
X6317200D01*
X6552200Y5150000D01*
X6840000D01*
X6880000Y5190000D01*
G01X6610000Y340000D02*
X6615000Y335000D01*
X6790000D01*
G01X6708700Y445000D02*
X6790000D01*
G01X6910000Y335000D02*
X7075000D01*
X7090000Y350000D01*
G01X7320000Y390000D02*
X7265000Y445000D01*
X6910000D01*
G01X6585000Y640000D02*
X6493800D01*
G01X6630000Y2722500D02*
X6757500D01*
X6785000Y2750000D01*
G01X6630000Y2722500D02*
X6537500D01*
X6510000Y2750000D01*
G01X6630000Y2657500D02*
X6767500D01*
X6785000Y2640000D01*
G01X6630000Y2657500D02*
X6522500D01*
X6510000Y2670000D01*
G01X12269000Y4381000D02*
X11986300D01*
X11965300Y4360000D01*
X11420000D01*
X11390000Y4330000D01*
X10670000D01*
X10630000Y4370000D01*
X9550100D01*
X9470100Y4290000D01*
X9290100D01*
X9210100Y4370000D01*
X9070000D01*
X9030000Y4330000D01*
X8303600D01*
X8233600Y4260000D01*
X7890000D01*
X7782500Y4367500D01*
X7687500D01*
X7610000Y4290000D01*
X6950000D01*
G01X6490000Y4360000D02*
X6810000D01*
X6914800Y4464800D01*
X6975200D01*
X7067500Y4372500D01*
X7552500D01*
X7630000Y4450000D01*
X7914000D01*
X7967000Y4397000D01*
G01X6950000Y4400000D02*
X7020000Y4330000D01*
X7590000D01*
X7670000Y4410000D01*
X7810000D01*
X7920000Y4300000D01*
X8120000D01*
X8190000Y4370000D01*
X8990000D01*
X9050000Y4430000D01*
X9280100D01*
X9331100Y4379000D01*
X9421300D01*
G01X6748000Y4440000D02*
Y4578000D01*
X6835000Y4665000D01*
X7165100D01*
X7210100Y4620000D01*
X7470000D01*
X7540000Y4690000D01*
X7935500D01*
X8080000Y4834500D01*
G01X7090000Y350000D02*
X7097500Y357500D01*
X7240000D01*
G01X7540000Y2722500D02*
X7422500D01*
X7395000Y2750000D01*
G01X7540000Y2657500D02*
X7412500D01*
X7395000Y2640000D01*
G01Y2520000D02*
X7520000D01*
X7540000Y2540000D01*
Y2592500D01*
G01X6980000Y7080000D02*
X8170000D01*
X8650000Y7560000D01*
X9165000D01*
G01X6980000Y7000000D02*
X9480000D01*
X10040000Y7560000D01*
X10590000D01*
G01X6980000Y6920000D02*
X10720000D01*
X11360000Y7560000D01*
X12015000D01*
G01X7740000D02*
X7510000D01*
X7360000Y7410000D01*
X6980000D01*
G01X7835000Y510000D02*
X7995000D01*
G01D02*
Y468000D01*
X7915900Y388900D01*
G01X7980000Y2722500D02*
X7857500D01*
X7840000Y2740000D01*
G01X7980000Y2657500D02*
X7857500D01*
X7840000Y2640000D01*
G01X7540000Y2722500D02*
X7662500D01*
X7680000Y2740000D01*
G01X7540000Y2657500D02*
X7662500D01*
X7680000Y2640000D01*
G01X7720000Y4020000D02*
Y3916800D01*
G01Y4020000D02*
X7605000D01*
X7570000Y3985000D01*
G01X7460000Y3966500D02*
X7551500D01*
X7570000Y3985000D01*
G01X7870000D02*
Y3910000D01*
G01D02*
X7978200D01*
X7980000Y3908200D01*
G01X7750000Y4915000D02*
Y4834500D01*
G01X7640000Y4915000D02*
Y4834500D01*
G01X7860000Y4915000D02*
Y4834500D01*
G01X7530000Y4915000D02*
Y4834500D01*
G01X7880000Y7560000D02*
Y7415000D01*
G01X7950000Y1235000D02*
X8013800D01*
X8042900Y1264100D01*
G01X7980000Y2722500D02*
X8107500D01*
X8135000Y2750000D01*
G01X7980000Y2657500D02*
X8117500D01*
X8135000Y2640000D01*
G01X7980000Y3976500D02*
Y3908200D01*
G01X7970000Y4915000D02*
Y4834500D01*
G01X8080000Y4915000D02*
Y4834500D01*
G01X8805000Y2591200D02*
Y2780000D01*
G01X8800000Y2510000D02*
Y2586200D01*
X8805000Y2591200D01*
G01X8827500Y3203000D02*
Y3003700D01*
X8805000Y2981200D01*
Y2930000D01*
G01X8995000Y3985000D02*
X8903500D01*
X8885000Y3966500D01*
G01X8915000Y2780000D02*
Y2545300D01*
G01X8929600Y2519600D02*
Y2530700D01*
X8915000Y2545300D01*
G01X8929600Y2519600D02*
X8939600Y2509600D01*
G01X8915000Y2545300D02*
Y2534200D01*
X8929600Y2519600D01*
G01X8892500Y3270000D02*
Y3003700D01*
X8915000Y2981200D01*
Y2930000D01*
G01X9110000Y3125000D02*
X9035500D01*
X8957500Y3203000D01*
G01X9145000Y4020000D02*
Y3915000D01*
G01Y4020000D02*
X9030000D01*
X8995000Y3985000D01*
G01X9295000D02*
Y3915000D01*
G01X9405000Y3976500D02*
X9303500D01*
X9295000Y3985000D01*
G01X9175000Y4915000D02*
Y4834500D01*
G01X9065000Y4915000D02*
Y4834500D01*
G01X9285000Y4915000D02*
Y4834500D01*
G01X8955000Y4915000D02*
Y4834500D01*
G01X9305000Y7560000D02*
Y7487000D01*
X9300000Y7482000D01*
Y7415000D01*
G01X9395000Y4915000D02*
Y4834500D01*
G01X9505000Y4915000D02*
Y4834500D01*
G01X10225000Y2748800D02*
Y2780000D01*
G01Y2748800D02*
X10200000Y2723800D01*
Y2480000D01*
G01X10310000D02*
Y2529200D01*
X10319300Y2538500D01*
Y2733100D01*
X10335000Y2748800D01*
G01X10247500Y3203000D02*
Y3003700D01*
X10225000Y2981200D01*
Y2930000D01*
G01X10320000Y3270000D02*
Y3207600D01*
X10312500Y3200100D01*
Y3003700D01*
X10335000Y2981200D01*
Y2930000D01*
G01X10420000Y3985000D02*
X10328500D01*
X10310000Y3966500D01*
G01X10335000Y2780000D02*
Y2748800D01*
G01X10530000Y3125000D02*
X10455500D01*
X10377500Y3203000D01*
G01X10720000Y3985000D02*
Y3900000D01*
G01X10570000Y4020000D02*
Y3910000D01*
G01Y4020000D02*
X10455000D01*
X10420000Y3985000D01*
G01X10830000Y3976500D02*
X10728500D01*
X10720000Y3985000D01*
G01X10600000Y4915000D02*
Y4834500D01*
G01X10490000Y4915000D02*
Y4834500D01*
G01X10710000Y4915000D02*
Y4834500D01*
G01X10380000Y4915000D02*
Y4834500D01*
G01X10730000Y7560000D02*
Y7415000D01*
G01X10820000Y4915000D02*
Y4834500D01*
G01X10930000Y4915000D02*
Y4834500D01*
G01X11735000Y730000D02*
Y665800D01*
X11712100Y642900D01*
G01X11665000Y2780000D02*
Y2584400D01*
X11679500Y2569900D01*
Y2519900D01*
G01X11752500Y2521500D02*
Y2705500D01*
X11775000Y2728000D01*
Y2780000D01*
G01X11687500Y3203000D02*
Y3003700D01*
X11665000Y2981200D01*
Y2930000D01*
G01X11752500Y3280000D02*
Y3003700D01*
X11775000Y2981200D01*
Y2930000D01*
G01X11845000Y3985000D02*
X11753500D01*
X11735000Y3966500D01*
G01X12125000Y420000D02*
X12184700Y479700D01*
Y480500D01*
X12220100Y515900D01*
G01X12245000Y620000D02*
X12267900Y642900D01*
X12347100D01*
G01X11825000Y730000D02*
Y657000D01*
X11839100Y642900D01*
G01X11820200Y3200200D02*
X11895500Y3125000D01*
X11970000D01*
G01X11995000Y4020000D02*
Y3915000D01*
G01Y4020000D02*
X11880000D01*
X11845000Y3985000D01*
G01X12145000D02*
Y3915000D01*
G01X12255000Y3976500D02*
X12153500D01*
X12145000Y3985000D01*
G01X12025000Y4915000D02*
Y4834500D01*
G01X11915000Y4915000D02*
Y4834500D01*
G01X12135000Y4915000D02*
Y4834500D01*
G01X13007500Y3203000D02*
Y4282500D01*
X12720000Y4570000D01*
X12399500D01*
X12135000Y4834500D01*
G01X12245000Y4915000D02*
Y4834500D01*
G01X13072500Y3290000D02*
Y4347500D01*
X12780000Y4640000D01*
Y4648000D01*
X12751100D01*
X12749100Y4650000D01*
X12429500D01*
X12245000Y4834500D01*
G01X11805000Y4915000D02*
Y4834500D01*
G01X12155000Y7560000D02*
Y7487000D01*
X12150000Y7482000D01*
Y7415000D01*
G01X12355000Y4915000D02*
Y4834500D01*
G01X12998500Y2500000D02*
Y2553700D01*
X13007500Y2562800D01*
Y2716300D01*
X12985000Y2738800D01*
Y2790000D01*
G01X13080500Y2500000D02*
Y2549200D01*
X13072500Y2557100D01*
Y2716300D01*
X13095000Y2738800D01*
Y2790000D01*
G01X13007500Y3203000D02*
Y3013700D01*
X12985000Y2991200D01*
Y2940000D01*
G01X13072500Y3290000D02*
Y3013700D01*
X13095000Y2991200D01*
Y2940000D01*
G01X13290000Y3125000D02*
X13212000Y3203000D01*
X13137500D01*
G54D27*
X4280000Y535000D03*
Y485000D03*
Y435000D03*
Y685000D03*
Y635000D03*
Y585000D03*
X4680000Y435000D03*
Y485000D03*
Y535000D03*
Y585000D03*
Y635000D03*
Y685000D03*
X5460000Y535000D03*
Y485000D03*
Y435000D03*
Y685000D03*
Y635000D03*
Y585000D03*
X5860000Y435000D03*
Y485000D03*
Y535000D03*
Y585000D03*
Y635000D03*
Y685000D03*
G54D18*
X1262500Y240000D03*
Y680000D03*
G54D19*
X1290000Y4053500D03*
Y3966500D03*
X1810000Y3976500D03*
Y4063500D03*
X2715000Y4053500D03*
Y3966500D03*
X3235000Y3976500D03*
Y4063500D03*
X4140000Y4053500D03*
Y3966500D03*
X4660000Y3976500D03*
Y4063500D03*
X5565000Y4053500D03*
Y3966500D03*
X6085000Y3976500D03*
Y4063500D03*
X7460000Y4053500D03*
Y3966500D03*
X7980000Y3976500D03*
Y4063500D03*
X8885000Y4053500D03*
Y3966500D03*
X9405000Y3976500D03*
Y4063500D03*
X10310000Y4053500D03*
Y3966500D03*
X10830000Y3976500D03*
Y4063500D03*
X11735000Y4053500D03*
Y3966500D03*
X12255000Y3976500D03*
Y4063500D03*
G54D28*
X6550000Y1310000D03*
X6296000D03*
X6804000D03*
X13730000Y3773000D03*
Y3519000D03*
Y4027000D03*
Y4281000D03*
G54D29*
X7835000Y510000D03*
X7685000D03*
X7995000D03*
X8145000D03*
X13665000Y400000D03*
X13515000D03*
M02*
