G04 ================== begin FILE IDENTIFICATION RECORD ==================*
G04 Layout Name:  pc065c_fibv2_toplevel_19.brd*
G04 Film Name:    art_pc065a_L07P.ger*
G04 File Format:  Gerber RS274X*
G04 File Origin:  Cadence Allegro 17.4-S011*
G04 Origin Date:  Thu Apr  4 13:41:42 2024*
G04 *
G04 Layer:  VIA CLASS/L7_GND*
G04 Layer:  PIN/L7_GND*
G04 Layer:  ETCH/L7_GND*
G04 *
G04 Offset:    (0.000 0.000)*
G04 Mirror:    No*
G04 Mode:      Positive*
G04 Rotation:  0*
G04 FullContactRelief:  No*
G04 UndefLineWidth:     0.200*
G04 ================== end FILE IDENTIFICATION RECORD ====================*
%FSLAX35Y35*MOMM*%
%IR0*IPPOS*OFA0.00000B0.00000*MIA0B0*SFA1.00000B1.00000*%
%ADD13C,1.*%
%ADD16C,1.001*%
%ADD15C,1.7*%
%ADD10C,4.5*%
%ADD12C,1.65*%
%ADD14C,1.75*%
%ADD17C,1.397*%
%ADD11C,.56*%
%ADD18C,.2*%
%ADD19C,.5*%
%ADD24C,2.204*%
%ADD28C,1.71*%
%ADD27C,5.004*%
%ADD21C,2.008*%
%ADD20C,1.064*%
%ADD26C,1.902*%
%ADD23C,1.96*%
%ADD22C,1.908*%
%ADD25C,1.958*%
G75*
%LPD*%
G75*
G36*
G01X13850000Y2809200D02*
G02X13831800Y2802900I-10199J24D01*
G03X13790000Y2823200I-41800J-32885D01*
G03Y2716800I0J-53200D01*
G03X13831800Y2737100I0J53185D01*
G02X13850000Y2730800I8001J-6324D01*
G01Y1191500D01*
G02X13830400Y1187500I-10203J-24D01*
G03X13600000Y1340200I-230400J-97468D01*
G03Y839800I0J-250200D01*
G03X13830400Y992500I0J250168D01*
G02X13850000Y988500I9397J-3976D01*
G01Y691000D01*
G02X13835000Y682000I-10185J-25D01*
G03X13810100Y688200I-24929J-47018D01*
G01X13810000D01*
G03X13772500Y672700I0J-53113D01*
G03X13697500I-37500J-37613D01*
G03X13660000Y688200I-37500J-37613D01*
G03X13606800Y635000I0J-53200D01*
G03X13622300Y597500I53113J0D01*
G03X13606800Y560000I37613J-37500D01*
G03X13660000Y506800I53200J0D01*
G03X13697500Y522300I0J53113D01*
G03X13735000Y506800I37500J37613D01*
G03X13745900Y507900I135J53214D01*
G02X13757900Y495900I2025J-9975D01*
G03X13756800Y485000I52114J-10765D01*
G03X13772300Y447500I53113J0D01*
G03Y372500I37613J-37500D01*
G03X13756800Y335000I37613J-37500D01*
G03X13757900Y324100I53214J-135D01*
G02X13745900Y312100I-9975J-2025D01*
G03X13735000Y313200I-10765J-52114D01*
G03X13697500Y297700I0J-53113D01*
G03X13660000Y313200I-37500J-37613D01*
G03X13606800Y260000I0J-53200D01*
G03X13622300Y222500I53113J0D01*
G03Y147500I37613J-37500D01*
G03X13606800Y110000I37613J-37500D01*
G03X13627100Y68200I53185J0D01*
G02X13620800Y50000I-6324J-8001D01*
G01X50000D01*
Y988500D01*
G02X69600Y992500I10203J24D01*
G03X300000Y839800I230400J97468D01*
G03Y1340200I0J250200D01*
G03X69600Y1187500I0J-250168D01*
G02X50000Y1191500I-9397J3976D01*
G01Y4890000D01*
X230000D01*
G03X380000Y5040000I0J150000D01*
G01Y5070000D01*
X610000D01*
Y5959800D01*
X610200D01*
Y6140200D01*
X610000D01*
Y6270000D01*
X380000D01*
Y6344400D01*
G02X396500Y6352500I10218J42D01*
G03X550000Y6299800I153592J197468D01*
G03Y6800200I0J250200D01*
G03X396500Y6747500I92J-250168D01*
G02X380000Y6755600I-6282J8058D01*
G01Y7600000D01*
X13380000D01*
Y6751600D01*
G02X13363300Y6743700I-10211J-16D01*
G03X13205000Y6800200I-158360J-193679D01*
G03Y6299800I0J-250200D01*
G03X13440200Y6464800I0J250133D01*
G02X13454900Y6470100I9572J-3512D01*
G03X13529800Y6450000I75013J129923D01*
G01X13590000D01*
Y5520000D01*
G03X13740000Y5370000I150000J0D01*
G01X13850000D01*
Y4330400D01*
G02X13830500Y4326200I-10198J-20D01*
G03X13730000Y4391200I-100500J-45194D01*
G03Y4170800I0J-110200D01*
G03X13830500Y4235800I0J110194D01*
G02X13850000Y4231600I9302J-4180D01*
G01Y4076400D01*
G02X13830500Y4072200I-10198J-20D01*
G03X13730000Y4137200I-100500J-45194D01*
G03Y3916800I0J-110200D01*
G03X13830500Y3981800I0J110194D01*
G02X13850000Y3977600I9302J-4180D01*
G01Y3822400D01*
G02X13830500Y3818200I-10198J-20D01*
G03X13730000Y3883200I-100500J-45194D01*
G03Y3662800I0J-110200D01*
G03X13830500Y3727800I0J110194D01*
G02X13850000Y3723600I9302J-4180D01*
G01Y2809200D01*
G37*
G36*
G01X200000Y6120000D02*
Y5970000D01*
X380000D01*
Y6120000D01*
X200000D01*
G37*
%LPC*%
G75*
G36*
G01X5730700Y1796600D02*
G02X5767200Y1811100I36500J-38690D01*
G02Y1704700I0J-53200D01*
G02X5730700Y1719200I0J53190D01*
G02X5694200Y1704700I-36500J38690D01*
G02Y1811100I0J53200D01*
G02X5730700Y1796600I0J-53190D01*
G37*
G36*
G01X2297900Y1679400D02*
G03X2282200Y1685800I-9985J-2037D01*
G02X2252500Y1676800I-29615J44226D01*
G02Y1783200I0J53200D01*
G02X2304600Y1740600I0J-53159D01*
G03X2320300Y1734200I9985J2037D01*
G02X2350000Y1743200I29615J-44226D01*
G02X2385000Y1730100I0J-53306D01*
G02X2455000I35000J-40206D01*
G02X2490000Y1743200I35000J-40206D01*
G02Y1636800I0J-53200D01*
G02X2455000Y1649900I0J53306D01*
G02X2420000Y1636800I-35000J40206D01*
G02X2414100Y1637100I-252J53213D01*
G03X2402900Y1625900I-1079J-10121D01*
G02X2403200Y1620000I-52913J-5648D01*
G02X2390100Y1585000I-53306J0D01*
G02Y1515000I-40206J-35000D01*
G02X2403200Y1480000I-40206J-35000D01*
G02X2296800I-53200J0D01*
G02X2309900Y1515000I53306J0D01*
G02Y1585000I40206J35000D01*
G02X2296800Y1620000I40206J35000D01*
G02X2309900Y1655000I53306J0D01*
G02X2297900Y1679400I40152J34898D01*
G37*
G36*
G01X7301100Y340300D02*
G03X7288200Y335000I-3617J-9546D01*
G02X7240000Y304300I-48200J22488D01*
G02Y410700I0J53200D01*
G02X7258900Y407200I-75J-53186D01*
G03X7271800Y412500I3617J9546D01*
G02X7320000Y443200I48200J-22488D01*
G02Y336800I0J-53200D01*
G02X7301100Y340300I75J53186D01*
G37*
G36*
G01X6439300Y374300D02*
G03X6438600Y381500I-3915J3253D01*
G02X6419300Y422500I33899J41000D01*
G02X6525700I53200J0D01*
G02X6513200Y388200I-53310J0D01*
G03X6513900Y381000I3915J-3253D01*
G02X6533200Y340000I-33899J-41000D01*
G02X6426800I-53200J0D01*
G02X6439300Y374300I53310J0D01*
G37*
G36*
G01X2810000Y528500D02*
G02X2846500Y543000I36500J-38690D01*
G02Y436600I0J-53200D01*
G02X2810000Y451100I0J53190D01*
G02X2773500Y436600I-36500J38690D01*
G02Y543000I0J53200D01*
G02X2810000Y528500I0J-53190D01*
G37*
G36*
G01X4795600Y587900D02*
G03X4806800Y598400I1016J10140D01*
G01Y600000D01*
G02X4913200I53200J0D01*
G02X4907200Y575600I-53167J136D01*
G02X4933300Y529800I-27135J-45800D01*
G02X4880100Y476600I-53200J0D01*
G02X4840100Y494700I0J53249D01*
G03X4825700Y495500I-7598J-6771D01*
G02X4790000Y481800I-35645J39521D01*
G02Y588200I0J53200D01*
G02X4795600Y587900I-42J-53198D01*
G37*
G36*
G01X13327500Y672700D02*
G02X13402500I37500J-37613D01*
G02X13477500I37500J-37613D01*
G02X13515000Y688200I37500J-37613D01*
G02X13568200Y635000I0J-53200D01*
G02X13552700Y597500I-53113J0D01*
G02X13568200Y560000I-37613J-37500D01*
G02X13515000Y506800I-53200J0D01*
G02X13477500Y522300I0J53113D01*
G02X13402500I-37500J37613D01*
G02X13327500I-37500J37613D01*
G02X13252500I-37500J37613D01*
G02X13177500I-37500J37613D01*
G02X13140000Y506800I-37500J37613D01*
G02Y613200I0J53200D01*
G02X13177500Y597700I0J-53113D01*
G02X13215000Y613200I37500J-37613D01*
G02X13225900Y612100I135J-53214D01*
G03X13237900Y624100I2025J9975D01*
G02X13236800Y635000I52114J10765D01*
G02X13290000Y688200I53200J0D01*
G02X13327500Y672700I0J-53113D01*
G37*
G36*
G01X5256900Y587200D02*
G03X5247200Y596900I-10202J-502D01*
G02X5196800Y650000I2772J53100D01*
G02X5250000Y703200I53200J0D01*
G02X5303100Y652800I0J-53172D01*
G03X5312800Y643100I10202J502D01*
G02X5363200Y590000I-2772J-53100D01*
G01Y588100D01*
G02X5413200Y535000I-3196J-53100D01*
G02X5306800I-53200J0D01*
G01Y536900D01*
G02X5256900Y587200I3217J53093D01*
G37*
G36*
G01X6894100Y666300D02*
G03X6899600Y681500I-3090J9713D01*
G02X6891300Y710000I44781J28500D01*
G02X6997700I53200J0D01*
G02X6960400Y659200I-53243J0D01*
G03X6954900Y644000I3090J-9713D01*
G02X6963200Y615500I-44781J-28500D01*
G02X6856800I-53200J0D01*
G02X6894100Y666300I53243J0D01*
G37*
G36*
G01X3736700Y712800D02*
G03X3747900Y720800I1235J10111D01*
G02X3800000Y763200I52100J-10810D01*
G02X3811700Y761900I0J-53300D01*
G03X3823700Y769100I2185J9958D01*
G02X3875000Y808200I51300J-14103D01*
G02Y701800I0J-53200D01*
G02X3863300Y703100I0J53300D01*
G03X3851300Y695900I-2185J-9958D01*
G02X3800000Y656800I-51300J14103D01*
G02X3793300Y657200I-185J53211D01*
G03X3782100Y649200I-1235J-10111D01*
G02X3730000Y606800I-52100J10810D01*
G02X3723300Y607200I-185J53211D01*
G03X3712100Y599200I-1235J-10111D01*
G02X3660000Y556800I-52100J10810D01*
G02X3653300Y557200I-185J53211D01*
G03X3642100Y549200I-1235J-10111D01*
G02X3590000Y506800I-52100J10810D01*
G02X3573800Y509300I-81J53213D01*
G03X3561000Y503000I-3180J-9693D01*
G02X3510800Y467300I-50200J17445D01*
G02X3501800Y468100I192J53183D01*
G02X3450000Y426800I-51800J11835D01*
G02Y533200I0J53200D01*
G02X3459000Y532400I-192J-53183D01*
G02X3510800Y573700I51800J-11835D01*
G02X3527000Y571200I81J-53213D01*
G03X3539800Y577500I3180J9693D01*
G02X3590000Y613200I50200J-17445D01*
G02X3596700Y612800I185J-53211D01*
G03X3607900Y620800I1235J10111D01*
G02X3660000Y663200I52100J-10810D01*
G02X3666700Y662800I185J-53211D01*
G03X3677900Y670800I1235J10111D01*
G02X3730000Y713200I52100J-10810D01*
G02X3736700Y712800I185J-53211D01*
G37*
G36*
G01X4872200Y762500D02*
G03X4857800I-7200J-7156D01*
G02X4820000Y746800I-37745J37523D01*
G02Y853200I0J53200D01*
G02X4857800Y837500I55J-53223D01*
G03X4872200I7200J7156D01*
G02X4910000Y853200I37745J-37523D01*
G02Y746800I0J-53200D01*
G02X4872200Y762500I-55J53223D01*
G37*
G36*
G01X5444200Y887400D02*
G03X5458600Y893800I4580J9095D01*
G02X5510000Y933200I51400J-13827D01*
G02Y826800I0J-53200D01*
G02X5485800Y832600I-42J53210D01*
G03X5471400Y826200I-4580J-9095D01*
G02X5420000Y786800I-51400J13827D01*
G02X5382600Y802200I0J53114D01*
G03X5375400I-3600J-3645D01*
G02X5338000Y786800I-37400J37714D01*
G02Y893200I0J53200D01*
G02X5375400Y877800I0J-53114D01*
G03X5382600I3600J3645D01*
G02X5420000Y893200I37400J-37714D01*
G02X5444200Y887400I42J-53210D01*
G37*
G36*
G01X6648000Y847300D02*
G03X6632000I-8000J-6276D01*
G02X6590000Y826800I-42000J32774D01*
G02Y933200I0J53200D01*
G02X6632000Y912700I0J-53274D01*
G03X6648000I8000J6276D01*
G02X6690000Y933200I42000J-32774D01*
G02Y826800I0J-53200D01*
G02X6648000Y847300I0J53274D01*
G37*
G36*
G01X4417800Y987500D02*
G03X4432200I7200J7156D01*
G02X4470000Y1003200I37745J-37523D01*
G02X4505700Y989500I55J-53221D01*
G03X4519300I6800J7542D01*
G02X4555000Y1003200I35645J-39521D01*
G02X4608200Y950000I0J-53200D01*
G02X4606300Y936000I-53188J89D01*
G03X4616800Y923100I9838J-2715D01*
G02X4620000Y923200I3261J-53098D01*
G02X4566800Y870000I0J-53200D01*
G02X4568700Y884000I53188J-89D01*
G03X4558200Y896900I-9838J2715D01*
G02X4555000Y896800I-3261J53098D01*
G02X4519300Y910500I-55J53221D01*
G03X4505700I-6800J-7542D01*
G02X4470000Y896800I-35645J39521D01*
G02X4432200Y912500I-55J53223D01*
G03X4417800I-7200J-7156D01*
G02X4380000Y896800I-37745J37523D01*
G02Y1003200I0J53200D01*
G02X4417800Y987500I55J-53223D01*
G37*
G36*
G01X1621100Y1170000D02*
G02X1635600Y1133500I-38690J-36500D01*
G02X1529200I-53200J0D01*
G02X1543700Y1170000I53190J0D01*
G02X1529200Y1206500I38690J36500D01*
G02X1635600I53200J0D01*
G02X1621100Y1170000I-53190J0D01*
G37*
G36*
G01X13159900Y1815000D02*
G02Y1885000I40206J35000D01*
G02X13146800Y1920000I40206J35000D01*
G02X13253200I53200J0D01*
G02X13240100Y1885000I-53306J0D01*
G02Y1815000I-40206J-35000D01*
G02Y1745000I-40206J-35000D01*
G02X13253200Y1710000I-40206J-35000D01*
G02X13146800I-53200J0D01*
G02X13159900Y1745000I53306J0D01*
G02Y1815000I40206J35000D01*
G37*
G36*
G01X4650000Y2361100D02*
G02X4686500Y2375600I36500J-38690D01*
G02Y2269200I0J-53200D01*
G02X4650000Y2283700I0J53190D01*
G02X4613500Y2269200I-36500J38690D01*
G02Y2375600I0J53200D01*
G02X4650000Y2361100I0J-53190D01*
G37*
G36*
G01X6080000D02*
G02X6116500Y2375600I36500J-38690D01*
G02Y2269200I0J-53200D01*
G02X6080000Y2283700I0J53190D01*
G02X6043500Y2269200I-36500J38690D01*
G02Y2375600I0J53200D01*
G02X6080000Y2361100I0J-53190D01*
G37*
G36*
G01X1810000Y2365600D02*
G02X1846500Y2380100I36500J-38690D01*
G02Y2273700I0J-53200D01*
G02X1810000Y2288200I0J53190D01*
G02X1773500Y2273700I-36500J38690D01*
G02Y2380100I0J53200D01*
G02X1810000Y2365600I0J-53190D01*
G37*
G36*
G01X3230000Y2438700D02*
G02X3266500Y2453200I36500J-38690D01*
G02Y2346800I0J-53200D01*
G02X3230000Y2361300I0J53190D01*
G02X3193500Y2346800I-36500J38690D01*
G02Y2453200I0J53200D01*
G02X3230000Y2438700I0J-53190D01*
G37*
G36*
G01X9400000Y2461100D02*
G02X9436500Y2475600I36500J-38690D01*
G02Y2369200I0J-53200D01*
G02X9400000Y2383700I0J53190D01*
G02X9363500Y2369200I-36500J38690D01*
G02Y2475600I0J53200D01*
G02X9400000Y2461100I0J-53190D01*
G37*
G36*
G01X10840000D02*
G02X10876500Y2475600I36500J-38690D01*
G02Y2369200I0J-53200D01*
G02X10840000Y2383700I0J53190D01*
G02X10803500Y2369200I-36500J38690D01*
G02Y2475600I0J53200D01*
G02X10840000Y2461100I0J-53190D01*
G37*
G36*
G01X12260000D02*
G02X12296500Y2475600I36500J-38690D01*
G02Y2369200I0J-53200D01*
G02X12260000Y2383700I0J53190D01*
G02X12223500Y2369200I-36500J38690D01*
G02Y2475600I0J53200D01*
G02X12260000Y2461100I0J-53190D01*
G37*
G36*
G01X7980000Y2521100D02*
G02X8016500Y2535600I36500J-38690D01*
G02Y2429200I0J-53200D01*
G02X7980000Y2443700I0J53190D01*
G02X7943500Y2429200I-36500J38690D01*
G02Y2535600I0J53200D01*
G02X7980000Y2521100I0J-53190D01*
G37*
G36*
G01X13043100Y2462200D02*
G03X13035900I-3600J-3645D01*
G02X12998500Y2446800I-37400J37714D01*
G02Y2553200I0J53200D01*
G02X13035900Y2537800I0J-53114D01*
G03X13043100I3600J3645D01*
G02X13080500Y2553200I37400J-37714D01*
G02Y2446800I0J-53200D01*
G02X13043100Y2462200I0J53114D01*
G37*
G36*
G01X11715200Y2559400D02*
G02X11752500Y2574700I37300J-37817D01*
G02Y2468300I0J-53200D01*
G02X11716800Y2482000I-55J53221D01*
G02X11679500Y2466700I-37300J37817D01*
G02Y2573100I0J53200D01*
G02X11715200Y2559400I55J-53221D01*
G37*
G36*
G01X2357300Y2682000D02*
G03Y2698000I-6276J8000D01*
G02X2336800Y2740000I32774J42000D01*
G02X2443200I53200J0D01*
G02X2422700Y2698000I-53274J0D01*
G03Y2682000I6276J-8000D01*
G02X2443200Y2640000I-32774J-42000D01*
G02X2336800I-53200J0D01*
G02X2357300Y2682000I53274J0D01*
G37*
G36*
G01X4077300D02*
G03Y2698000I-6276J8000D01*
G02X4056800Y2740000I32774J42000D01*
G02X4163200I53200J0D01*
G02X4142700Y2698000I-53274J0D01*
G03Y2682000I6276J-8000D01*
G02X4163200Y2640000I-32774J-42000D01*
G02X4056800I-53200J0D01*
G02X4077300Y2682000I53274J0D01*
G37*
G36*
G01X7647300D02*
G03Y2698000I-6276J8000D01*
G02X7626800Y2740000I32774J42000D01*
G02X7733200I53200J0D01*
G02X7712700Y2698000I-53274J0D01*
G03Y2682000I6276J-8000D01*
G02X7733200Y2640000I-32774J-42000D01*
G02X7626800I-53200J0D01*
G02X7647300Y2682000I53274J0D01*
G37*
G36*
G01X7807300D02*
G03Y2698000I-6276J8000D01*
G02X7786800Y2740000I32774J42000D01*
G02X7893200I53200J0D01*
G02X7872700Y2698000I-53274J0D01*
G03Y2682000I6276J-8000D01*
G02X7893200Y2640000I-32774J-42000D01*
G02X7786800I-53200J0D01*
G02X7807300Y2682000I53274J0D01*
G37*
G36*
G01X6360600Y2699800D02*
G03X6355800Y2712600I-9468J3750D01*
G02X6326800Y2760000I24237J47400D01*
G02X6433200I53200J0D01*
G02X6429400Y2740200I-53210J-53D01*
G03X6434200Y2727400I9468J-3750D01*
G02X6455200Y2708100I-24192J-47397D01*
G03X6471300Y2706500I8663J5366D01*
G03Y2713500I-3711J3500D01*
G02X6456800Y2750000I38690J36500D01*
G02X6563200I53200J0D01*
G02X6548700Y2713500I-53190J0D01*
G03Y2706500I3711J-3500D01*
G02X6563200Y2670000I-38690J-36500D01*
G02X6510000Y2616800I-53200J0D01*
G02X6464800Y2641900I0J53248D01*
G03X6448700Y2643500I-8663J-5366D01*
G02X6410000Y2626800I-38700J36491D01*
G02X6356800Y2680000I0J53200D01*
G02X6360600Y2699800I53210J53D01*
G37*
G36*
G01X13218100Y2987700D02*
G03X13218800Y3001300I-7198J7188D01*
G02X13206800Y3035000I41320J33700D01*
G02X13313200I53200J0D01*
G02X13297600Y2997300I-53223J-54D01*
G03X13296900Y2983700I7198J-7188D01*
G02X13308900Y2950000I-41320J-33700D01*
G02X13294900Y2914000I-53286J0D01*
G03X13295600Y2899500I7505J-6905D01*
G02X13313200Y2860000I-35525J-39500D01*
G02X13297800Y2822500I-53223J-55D01*
G02X13308900Y2790000I-42029J-32500D01*
G02X13202500I-53200J0D01*
G02X13217900Y2827500I53223J55D01*
G02X13206800Y2860000I42029J32500D01*
G02X13220800Y2896000I53286J0D01*
G03X13220100Y2910500I-7505J6905D01*
G02X13202500Y2950000I35525J39500D01*
G02X13218100Y2987700I53223J54D01*
G37*
G36*
G01X11496900Y3052700D02*
G03X11508100Y3065600I1365J10127D01*
G02X11506100Y3080000I51193J14449D01*
G02X11559300Y3026800I53200J0D01*
G02X11552400Y3027300I385J53172D01*
G03X11541200Y3014400I-1365J-10127D01*
G02X11543200Y3000000I-51193J-14449D01*
G02X11490000Y3053200I-53200J0D01*
G02X11496900Y3052700I-385J-53172D01*
G37*
G36*
G01X12861800Y3047000D02*
G02X12870700Y3017500I-44440J-29500D01*
G02X12764300I-53200J0D01*
G02X12775700Y3050500I53228J81D01*
G02X12766800Y3080000I44440J29500D01*
G02X12873200I53200J0D01*
G02X12861800Y3047000I-53228J-81D01*
G37*
G36*
G01X8828900Y3256200D02*
G03X8839400Y3267000I322J10191D01*
G02X8839300Y3270000I53091J3271D01*
G02X8945700I53200J0D01*
G02X8945600Y3267000I-53191J271D01*
G03X8956100Y3256200I10178J-609D01*
G01X8957500D01*
G02X8904300Y3203000I0J-53200D01*
G02X8904400Y3206000I53191J-271D01*
G03X8893900Y3216800I-10178J609D01*
G01X8892500D01*
X8891100D01*
G03X8880600Y3206000I-322J-10191D01*
G02X8880700Y3203000I-53091J-3271D01*
G02X8827500Y3256200I-53200J0D01*
G01X8828900D01*
G37*
G36*
G01X10255300Y3255600D02*
G03X10266900Y3266400I1426J10098D01*
G02X10266800Y3270000I53109J3277D01*
G02X10373200I53200J0D01*
G02X10373100Y3266800I-53198J61D01*
G03X10382300Y3256000I10172J-654D01*
G02X10430700Y3203000I-4819J-53000D01*
G02X10324300I-53200J0D01*
G02X10324400Y3206200I53198J-61D01*
G03X10315200Y3217000I-10172J654D01*
G02X10312200Y3217400I5527J52903D01*
G03X10300600Y3206600I-1426J-10098D01*
G02X10300700Y3203000I-53109J-3277D01*
G02X10247500Y3256200I-53200J0D01*
G02X10255300Y3255600I-168J-53187D01*
G37*
G36*
G01X11690100Y3256100D02*
G03X11700600Y3268500I515J10210D01*
G02X11699300Y3280000I51879J11688D01*
G02X11805700I53200J0D01*
G02X11803800Y3266000I-53188J89D01*
G03X11814700Y3253100I9834J-2746D01*
G02X11820200Y3253400I5643J-52892D01*
G02X11767000Y3200200I0J-53200D01*
G02X11768900Y3214200I53188J-89D01*
G03X11758000Y3227100I-9834J2746D01*
G02X11752500Y3226800I-5643J52892D01*
G02X11749900Y3226900I743J53171D01*
G03X11739400Y3214500I-515J-10210D01*
G02X11740700Y3203000I-51879J-11688D01*
G02X11687500Y3256200I-53200J0D01*
G02X11690100Y3256100I-743J-53171D01*
G37*
G36*
G01X1424000Y3466100D02*
G02X1460500Y3480600I36500J-38690D01*
G02Y3374200I0J-53200D01*
G02X1424000Y3388700I0J53190D01*
G02X1387500Y3374200I-36500J38690D01*
G02Y3480600I0J53200D01*
G02X1424000Y3466100I0J-53190D01*
G37*
G36*
G01X2849000D02*
G02X2885500Y3480600I36500J-38690D01*
G02Y3374200I0J-53200D01*
G02X2849000Y3388700I0J53190D01*
G02X2812500Y3374200I-36500J38690D01*
G02Y3480600I0J53200D01*
G02X2849000Y3466100I0J-53190D01*
G37*
G36*
G01X4274000D02*
G02X4310500Y3480600I36500J-38690D01*
G02Y3374200I0J-53200D01*
G02X4274000Y3388700I0J53190D01*
G02X4237500Y3374200I-36500J38690D01*
G02Y3480600I0J53200D01*
G02X4274000Y3466100I0J-53190D01*
G37*
G36*
G01X5699000D02*
G02X5735500Y3480600I36500J-38690D01*
G02Y3374200I0J-53200D01*
G02X5699000Y3388700I0J53190D01*
G02X5662500Y3374200I-36500J38690D01*
G02Y3480600I0J53200D01*
G02X5699000Y3466100I0J-53190D01*
G37*
G36*
G01X10444000D02*
G02X10480500Y3480600I36500J-38690D01*
G02Y3374200I0J-53200D01*
G02X10444000Y3388700I0J53190D01*
G02X10407500Y3374200I-36500J38690D01*
G02Y3480600I0J53200D01*
G02X10444000Y3466100I0J-53190D01*
G37*
G36*
G01X11869000D02*
G02X11905500Y3480600I36500J-38690D01*
G02Y3374200I0J-53200D01*
G02X11869000Y3388700I0J53190D01*
G02X11832500Y3374200I-36500J38690D01*
G02Y3480600I0J53200D01*
G02X11869000Y3466100I0J-53190D01*
G37*
G36*
G01X9019000Y3566100D02*
G02X9055500Y3580600I36500J-38690D01*
G02Y3474200I0J-53200D01*
G02X9019000Y3488700I0J53190D01*
G02X8982500Y3474200I-36500J38690D01*
G02Y3580600I0J53200D01*
G02X9019000Y3566100I0J-53190D01*
G37*
G36*
G01X3863600Y3688200D02*
G03X3847800Y3690400I-8777J-5198D01*
G02X3782500Y3664600I-65300J69737D01*
G02Y3855400I0J95400D01*
G02X3877000Y3772900I0J-95373D01*
G03X3890700Y3764800I10093J1435D01*
G02X3909500Y3768200I18717J-49815D01*
G02Y3661800I0J-53200D01*
G02X3863600Y3688200I0J53102D01*
G37*
G36*
G01X10032100Y3690800D02*
G03X10015700Y3693300I-9092J-4605D01*
G02X9947500Y3664600I-68200J66682D01*
G02Y3855400I0J95400D01*
G02X10042300Y3771100I0J-95454D01*
G03X10056700Y3763100I10098J1216D01*
G02X10079500Y3768200I22733J-48115D01*
G02Y3661800I0J-53200D01*
G02X10032100Y3690800I0J53237D01*
G37*
G36*
G01X1244500Y4094300D02*
G03X1229000Y4096600I-8707J-5301D01*
G02X1164000Y4072000I-64942J73422D01*
G02Y4268000I0J98000D01*
G02X1261400Y4181300I0J-98060D01*
G03X1274500Y4172700I10114J1129D01*
G02X1290000Y4175000I15474J-50904D01*
G02Y4068600I0J-53200D01*
G02X1244500Y4094300I0J53127D01*
G37*
G36*
G01X2669500D02*
G03X2654000Y4096600I-8707J-5301D01*
G02X2589000Y4072000I-64942J73422D01*
G02Y4268000I0J98000D01*
G02X2686400Y4181300I0J-98060D01*
G03X2699500Y4172700I10114J1129D01*
G02X2715000Y4175000I15474J-50904D01*
G02Y4068600I0J-53200D01*
G02X2669500Y4094300I0J53127D01*
G37*
G36*
G01X4094500D02*
G03X4079000Y4096600I-8707J-5301D01*
G02X4014000Y4072000I-64942J73422D01*
G02Y4268000I0J98000D01*
G02X4111400Y4181300I0J-98060D01*
G03X4124500Y4172700I10114J1129D01*
G02X4140000Y4175000I15474J-50904D01*
G02Y4068600I0J-53200D01*
G02X4094500Y4094300I0J53127D01*
G37*
G36*
G01X5519500D02*
G03X5504000Y4096600I-8707J-5301D01*
G02X5439000Y4072000I-64942J73422D01*
G02Y4268000I0J98000D01*
G02X5536400Y4181300I0J-98060D01*
G03X5549500Y4172700I10114J1129D01*
G02X5565000Y4175000I15474J-50904D01*
G02Y4068600I0J-53200D01*
G02X5519500Y4094300I0J53127D01*
G37*
G36*
G01X7414500D02*
G03X7399000Y4096600I-8707J-5301D01*
G02X7334000Y4072000I-64942J73422D01*
G02Y4268000I0J98000D01*
G02X7431400Y4181300I0J-98060D01*
G03X7444500Y4172700I10114J1129D01*
G02X7460000Y4175000I15474J-50904D01*
G02Y4068600I0J-53200D01*
G02X7414500Y4094300I0J53127D01*
G37*
G36*
G01X8839500D02*
G03X8824000Y4096600I-8707J-5301D01*
G02X8759000Y4072000I-64942J73422D01*
G02Y4268000I0J98000D01*
G02X8856400Y4181300I0J-98060D01*
G03X8869500Y4172700I10114J1129D01*
G02X8885000Y4175000I15474J-50904D01*
G02Y4068600I0J-53200D01*
G02X8839500Y4094300I0J53127D01*
G37*
G36*
G01X10264500D02*
G03X10249000Y4096600I-8707J-5301D01*
G02X10184000Y4072000I-64942J73422D01*
G02Y4268000I0J98000D01*
G02X10281400Y4181300I0J-98060D01*
G03X10294500Y4172700I10114J1129D01*
G02X10310000Y4175000I15474J-50904D01*
G02Y4068600I0J-53200D01*
G02X10264500Y4094300I0J53127D01*
G37*
G36*
G01X11689500D02*
G03X11674000Y4096600I-8707J-5301D01*
G02X11609000Y4072000I-64942J73422D01*
G02Y4268000I0J98000D01*
G02X11706400Y4181300I0J-98060D01*
G03X11719500Y4172700I10114J1129D01*
G02X11735000Y4175000I15474J-50904D01*
G02Y4068600I0J-53200D01*
G02X11689500Y4094300I0J53127D01*
G37*
G36*
G01X1753500Y5041500D02*
G03X1746500I-3500J-3711D01*
G02X1710000Y5027000I-36500J38690D01*
G02Y5133400I0J53200D01*
G02X1746500Y5118900I0J-53190D01*
G03X1753500I3500J3711D01*
G02X1790000Y5133400I36500J-38690D01*
G02Y5027000I0J-53200D01*
G02X1753500Y5041500I0J53190D01*
G37*
G36*
G01X3182200Y5042700D02*
G03X3167800I-7200J-7156D01*
G02X3130000Y5027000I-37745J37523D01*
G02Y5133400I0J53200D01*
G02X3167800Y5117700I55J-53223D01*
G03X3182200I7200J7156D01*
G02X3220000Y5133400I37745J-37523D01*
G02Y5027000I0J-53200D01*
G02X3182200Y5042700I-55J53223D01*
G37*
G36*
G01X4614400Y5045900D02*
G03X4600000Y5045100I-6802J-7567D01*
G02X4560000Y5027000I-40000J35149D01*
G02Y5133400I0J53200D01*
G02X4595600Y5119800I65J-53225D01*
G03X4610000Y5120600I6802J7567D01*
G02X4650000Y5138700I40000J-35149D01*
G02Y5032300I0J-53200D01*
G02X4614400Y5045900I-65J53225D01*
G37*
G36*
G01X6030000Y5047400D02*
G03X6014700Y5049700I-8642J-5450D01*
G02X5980000Y5036800I-34700J40220D01*
G02Y5143200I0J53200D01*
G02X6025000Y5118300I0J-53113D01*
G03X6040300Y5116000I8642J5450D01*
G02X6075000Y5128900I34700J-40220D01*
G02Y5022500I0J-53200D01*
G02X6030000Y5047400I0J53113D01*
G37*
G36*
G01X727600Y5919000D02*
G02X686300Y5970800I11835J51800D01*
G02X687100Y5979700I53174J-294D01*
G02X645700Y6031600I11832J51900D01*
G02X752100I53200J0D01*
G02X751300Y6022700I-53174J294D01*
G02X792700Y5970800I-11832J-51900D01*
G02X791900Y5961800I-53183J192D01*
G02X833200Y5910000I-11835J-51800D01*
G02X832400Y5901000I-53183J192D01*
G02X873700Y5849200I-11835J-51800D01*
G02X767300I-53200J0D01*
G02X768100Y5858200I53183J-192D01*
G02X726800Y5910000I11835J51800D01*
G02X727600Y5919000I53183J-192D01*
G37*
G36*
G01X6941300Y7036500D02*
G03Y7043500I-3711J3500D01*
G02X6926800Y7080000I38690J36500D01*
G02X7033200I53200J0D01*
G02X7018700Y7043500I-53190J0D01*
G03Y7036500I3711J-3500D01*
G02Y6963500I-38690J-36500D01*
G03Y6956500I3711J-3500D01*
G02X7033200Y6920000I-38690J-36500D01*
G02X6926800I-53200J0D01*
G02X6941300Y6956500I53190J0D01*
G03Y6963500I-3711J3500D01*
G02Y7036500I38690J36500D01*
G37*
G36*
G01X2011800Y1424900D02*
G02X1986800Y1470000I28180J45100D01*
G02X2093200I53200J0D01*
G02X2064600Y1422800I-53248J0D01*
G03X2063900Y1405100I4688J-9049D01*
G02X2088900Y1360000I-28180J-45100D01*
G02X1982500I-53200J0D01*
G02X2011100Y1407200I53248J0D01*
G03X2011800Y1424900I-4688J9049D01*
G37*
G36*
G01X10246200Y2453500D02*
G02X10200000Y2426800I-46200J26621D01*
G02Y2533200I0J53200D01*
G02X10246200Y2506500I0J-53321D01*
G03X10263800I8800J5030D01*
G02X10310000Y2533200I46200J-26621D01*
G02Y2426800I0J-53200D01*
G02X10263800Y2453500I0J53321D01*
G03X10246200I-8800J-5030D01*
G37*
G36*
G01X9072500Y2997300D02*
G02X9056800Y3035000I37414J37700D01*
G02X9163200I53200J0D01*
G02X9127000Y2984600I-53185J0D01*
G03X9123000Y2967700I3224J-9686D01*
G02X9138700Y2930000I-37414J-37700D01*
G02X9032300I-53200J0D01*
G02X9068500Y2980400I53185J0D01*
G03X9072500Y2997300I-3224J9686D01*
G37*
G36*
G01X10492500D02*
G02X10476800Y3035000I37414J37700D01*
G02X10583200I53200J0D01*
G02X10547000Y2984600I-53185J0D01*
G03X10543000Y2967700I3224J-9686D01*
G02X10558700Y2930000I-37414J-37700D01*
G02X10452300I-53200J0D01*
G02X10488500Y2980400I53185J0D01*
G03X10492500Y2997300I-3224J9686D01*
G37*
G36*
G01X11932500D02*
G02X11916800Y3035000I37414J37700D01*
G02X12023200I53200J0D01*
G02X11987000Y2984600I-53185J0D01*
G03X11983000Y2967700I3224J-9686D01*
G02X11998700Y2930000I-37414J-37700D01*
G02X11892300I-53200J0D01*
G02X11928500Y2980400I53185J0D01*
G03X11932500Y2997300I-3224J9686D01*
G37*
G36*
G01X13023200Y3269900D02*
G02X13019300Y3290000I49320J19998D01*
G02X13125700I53200J0D01*
G02X13121800Y3269900I-53220J-102D01*
G03X13132200Y3255900I9440J-3850D01*
G02X13137500Y3256200I5652J-52880D01*
G02X13084300Y3203000I0J-53200D01*
G02X13088200Y3223100I53220J102D01*
G03X13077800Y3237100I-9440J3850D01*
G02X13072500Y3236800I-5652J52880D01*
G02X13067200Y3237100I352J53180D01*
G03X13056800Y3223100I-960J-10150D01*
G02X13060700Y3203000I-49320J-19998D01*
G02X13007500Y3256200I-53200J0D01*
G02X13012800Y3255900I-352J-53180D01*
G03X13023200Y3269900I960J10150D01*
G37*
G36*
G01X6923500Y4353800D02*
G02X6896800Y4400000I26621J46200D01*
G02X7003200I53200J0D01*
G02X6976500Y4353800I-53321J0D01*
G03Y4336200I5030J-8800D01*
G02X7003200Y4290000I-26621J-46200D01*
G02X6896800I-53200J0D01*
G02X6923500Y4336200I53321J0D01*
G03Y4353800I-5030J8800D01*
G37*
G36*
G01X1753800Y4861000D02*
G02X1846200I46200J-26621D01*
G03X1863800I8800J5030D01*
G02X1910000Y4887700I46200J-26621D01*
G02Y4781300I0J-53200D01*
G02X1863800Y4808000I0J53321D01*
G03X1846200I-8800J-5030D01*
G02X1753800I-46200J26621D01*
G03X1736200I-8800J-5030D01*
G02X1643800I-46200J26621D01*
G03X1626200I-8800J-5030D01*
G02X1533800I-46200J26621D01*
G03X1516200I-8800J-5030D01*
G02X1423800I-46200J26621D01*
G03X1406200I-8800J-5030D01*
G02X1360000Y4781300I-46200J26621D01*
G02Y4887700I0J53200D01*
G02X1406200Y4861000I0J-53321D01*
G03X1423800I8800J5030D01*
G02X1516200I46200J-26621D01*
G03X1533800I8800J5030D01*
G02X1626200I46200J-26621D01*
G03X1643800I8800J5030D01*
G02X1736200I46200J-26621D01*
G03X1753800I8800J5030D01*
G37*
G36*
G01X3178800D02*
G02X3271200I46200J-26621D01*
G03X3288800I8800J5030D01*
G02X3335000Y4887700I46200J-26621D01*
G02Y4781300I0J-53200D01*
G02X3288800Y4808000I0J53321D01*
G03X3271200I-8800J-5030D01*
G02X3178800I-46200J26621D01*
G03X3161200I-8800J-5030D01*
G02X3068800I-46200J26621D01*
G03X3051200I-8800J-5030D01*
G02X2958800I-46200J26621D01*
G03X2941200I-8800J-5030D01*
G02X2848800I-46200J26621D01*
G03X2831200I-8800J-5030D01*
G02X2785000Y4781300I-46200J26621D01*
G02Y4887700I0J53200D01*
G02X2831200Y4861000I0J-53321D01*
G03X2848800I8800J5030D01*
G02X2941200I46200J-26621D01*
G03X2958800I8800J5030D01*
G02X3051200I46200J-26621D01*
G03X3068800I8800J5030D01*
G02X3161200I46200J-26621D01*
G03X3178800I8800J5030D01*
G37*
G36*
G01X4603800D02*
G02X4696200I46200J-26621D01*
G03X4713800I8800J5030D01*
G02X4760000Y4887700I46200J-26621D01*
G02Y4781300I0J-53200D01*
G02X4713800Y4808000I0J53321D01*
G03X4696200I-8800J-5030D01*
G02X4603800I-46200J26621D01*
G03X4586200I-8800J-5030D01*
G02X4493800I-46200J26621D01*
G03X4476200I-8800J-5030D01*
G02X4383800I-46200J26621D01*
G03X4366200I-8800J-5030D01*
G02X4273800I-46200J26621D01*
G03X4256200I-8800J-5030D01*
G02X4210000Y4781300I-46200J26621D01*
G02Y4887700I0J53200D01*
G02X4256200Y4861000I0J-53321D01*
G03X4273800I8800J5030D01*
G02X4366200I46200J-26621D01*
G03X4383800I8800J5030D01*
G02X4476200I46200J-26621D01*
G03X4493800I8800J5030D01*
G02X4586200I46200J-26621D01*
G03X4603800I8800J5030D01*
G37*
G36*
G01X6028800D02*
G02X6121200I46200J-26621D01*
G03X6138800I8800J5030D01*
G02X6185000Y4887700I46200J-26621D01*
G02Y4781300I0J-53200D01*
G02X6138800Y4808000I0J53321D01*
G03X6121200I-8800J-5030D01*
G02X6028800I-46200J26621D01*
G03X6011200I-8800J-5030D01*
G02X5918800I-46200J26621D01*
G03X5901200I-8800J-5030D01*
G02X5808800I-46200J26621D01*
G03X5791200I-8800J-5030D01*
G02X5698800I-46200J26621D01*
G03X5681200I-8800J-5030D01*
G02X5666700Y4791800I-46065J26641D01*
G03X5667400Y4775000I6119J-8160D01*
G02X5692200Y4730000I-28427J-45000D01*
G02X5585800I-53200J0D01*
G02X5607300Y4772700I53152J0D01*
G03X5606600Y4789500I-6119J8160D01*
G02X5581800Y4834500I28427J45000D01*
G02X5635000Y4887700I53200J0D01*
G02X5681200Y4861000I0J-53321D01*
G03X5698800I8800J5030D01*
G02X5791200I46200J-26621D01*
G03X5808800I8800J5030D01*
G02X5901200I46200J-26621D01*
G03X5918800I8800J5030D01*
G02X6011200I46200J-26621D01*
G03X6028800I8800J5030D01*
G37*
G36*
G01X7923800D02*
G02X8016200I46200J-26621D01*
G03X8033800I8800J5030D01*
G02X8080000Y4887700I46200J-26621D01*
G02Y4781300I0J-53200D01*
G02X8033800Y4808000I0J53321D01*
G03X8016200I-8800J-5030D01*
G02X7923800I-46200J26621D01*
G03X7906200I-8800J-5030D01*
G02X7813800I-46200J26621D01*
G03X7796200I-8800J-5030D01*
G02X7703800I-46200J26621D01*
G03X7686200I-8800J-5030D01*
G02X7593800I-46200J26621D01*
G03X7576200I-8800J-5030D01*
G02X7530000Y4781300I-46200J26621D01*
G02Y4887700I0J53200D01*
G02X7576200Y4861000I0J-53321D01*
G03X7593800I8800J5030D01*
G02X7686200I46200J-26621D01*
G03X7703800I8800J5030D01*
G02X7796200I46200J-26621D01*
G03X7813800I8800J5030D01*
G02X7906200I46200J-26621D01*
G03X7923800I8800J5030D01*
G37*
G36*
G01X9348800D02*
G02X9441200I46200J-26621D01*
G03X9458800I8800J5030D01*
G02X9505000Y4887700I46200J-26621D01*
G02Y4781300I0J-53200D01*
G02X9458800Y4808000I0J53321D01*
G03X9441200I-8800J-5030D01*
G02X9348800I-46200J26621D01*
G03X9331200I-8800J-5030D01*
G02X9238800I-46200J26621D01*
G03X9221200I-8800J-5030D01*
G02X9128800I-46200J26621D01*
G03X9111200I-8800J-5030D01*
G02X9018800I-46200J26621D01*
G03X9001200I-8800J-5030D01*
G02X8955000Y4781300I-46200J26621D01*
G02Y4887700I0J53200D01*
G02X9001200Y4861000I0J-53321D01*
G03X9018800I8800J5030D01*
G02X9111200I46200J-26621D01*
G03X9128800I8800J5030D01*
G02X9221200I46200J-26621D01*
G03X9238800I8800J5030D01*
G02X9331200I46200J-26621D01*
G03X9348800I8800J5030D01*
G37*
G36*
G01X10773800D02*
G02X10866200I46200J-26621D01*
G03X10883800I8800J5030D01*
G02X10930000Y4887700I46200J-26621D01*
G02Y4781300I0J-53200D01*
G02X10883800Y4808000I0J53321D01*
G03X10866200I-8800J-5030D01*
G02X10773800I-46200J26621D01*
G03X10756200I-8800J-5030D01*
G02X10663800I-46200J26621D01*
G03X10646200I-8800J-5030D01*
G02X10553800I-46200J26621D01*
G03X10536200I-8800J-5030D01*
G02X10443800I-46200J26621D01*
G03X10426200I-8800J-5030D01*
G02X10380000Y4781300I-46200J26621D01*
G02Y4887700I0J53200D01*
G02X10426200Y4861000I0J-53321D01*
G03X10443800I8800J5030D01*
G02X10536200I46200J-26621D01*
G03X10553800I8800J5030D01*
G02X10646200I46200J-26621D01*
G03X10663800I8800J5030D01*
G02X10756200I46200J-26621D01*
G03X10773800I8800J5030D01*
G37*
G36*
G01X12198800D02*
G02X12291200I46200J-26621D01*
G03X12308800I8800J5030D01*
G02X12355000Y4887700I46200J-26621D01*
G02Y4781300I0J-53200D01*
G02X12308800Y4808000I0J53321D01*
G03X12291200I-8800J-5030D01*
G02X12198800I-46200J26621D01*
G03X12181200I-8800J-5030D01*
G02X12088800I-46200J26621D01*
G03X12071200I-8800J-5030D01*
G02X11978800I-46200J26621D01*
G03X11961200I-8800J-5030D01*
G02X11868800I-46200J26621D01*
G03X11851200I-8800J-5030D01*
G02X11805000Y4781300I-46200J26621D01*
G02Y4887700I0J53200D01*
G02X11851200Y4861000I0J-53321D01*
G03X11868800I8800J5030D01*
G02X11961200I46200J-26621D01*
G03X11978800I8800J5030D01*
G02X12071200I46200J-26621D01*
G03X12088800I8800J5030D01*
G02X12181200I46200J-26621D01*
G03X12198800I8800J5030D01*
G37*
G36*
G01X5698800Y5102200D02*
G02X5791200I46200J-26621D01*
G03X5808800I8800J5030D01*
G02X5855000Y5128900I46200J-26621D01*
G02Y5022500I0J-53200D01*
G02X5808800Y5049200I0J53321D01*
G03X5791200I-8800J-5030D01*
G02X5698800I-46200J26621D01*
G03X5681200I-8800J-5030D01*
G02X5635000Y5022500I-46200J26621D01*
G02Y5128900I0J53200D01*
G02X5681200Y5102200I0J-53321D01*
G03X5698800I8800J5030D01*
G37*
G36*
G01X7923800D02*
G02X8016200I46200J-26621D01*
G03X8033800I8800J5030D01*
G02X8080000Y5128900I46200J-26621D01*
G02Y5022500I0J-53200D01*
G02X8033800Y5049200I0J53321D01*
G03X8016200I-8800J-5030D01*
G02X7923800I-46200J26621D01*
G03X7906200I-8800J-5030D01*
G02X7813800I-46200J26621D01*
G03X7796200I-8800J-5030D01*
G02X7703800I-46200J26621D01*
G03X7686200I-8800J-5030D01*
G02X7593800I-46200J26621D01*
G03X7576200I-8800J-5030D01*
G02X7530000Y5022500I-46200J26621D01*
G02Y5128900I0J53200D01*
G02X7576200Y5102200I0J-53321D01*
G03X7593800I8800J5030D01*
G02X7686200I46200J-26621D01*
G03X7703800I8800J5030D01*
G02X7796200I46200J-26621D01*
G03X7813800I8800J5030D01*
G02X7906200I46200J-26621D01*
G03X7923800I8800J5030D01*
G37*
G36*
G01X9348800D02*
G02X9441200I46200J-26621D01*
G03X9458800I8800J5030D01*
G02X9505000Y5128900I46200J-26621D01*
G02Y5022500I0J-53200D01*
G02X9458800Y5049200I0J53321D01*
G03X9441200I-8800J-5030D01*
G02X9348800I-46200J26621D01*
G03X9331200I-8800J-5030D01*
G02X9238800I-46200J26621D01*
G03X9221200I-8800J-5030D01*
G02X9128800I-46200J26621D01*
G03X9111200I-8800J-5030D01*
G02X9018800I-46200J26621D01*
G03X9001200I-8800J-5030D01*
G02X8955000Y5022500I-46200J26621D01*
G02Y5128900I0J53200D01*
G02X9001200Y5102200I0J-53321D01*
G03X9018800I8800J5030D01*
G02X9111200I46200J-26621D01*
G03X9128800I8800J5030D01*
G02X9221200I46200J-26621D01*
G03X9238800I8800J5030D01*
G02X9331200I46200J-26621D01*
G03X9348800I8800J5030D01*
G37*
G36*
G01X10773800D02*
G02X10866200I46200J-26621D01*
G03X10883800I8800J5030D01*
G02X10930000Y5128900I46200J-26621D01*
G02Y5022500I0J-53200D01*
G02X10883800Y5049200I0J53321D01*
G03X10866200I-8800J-5030D01*
G02X10773800I-46200J26621D01*
G03X10756200I-8800J-5030D01*
G02X10663800I-46200J26621D01*
G03X10646200I-8800J-5030D01*
G02X10553800I-46200J26621D01*
G03X10536200I-8800J-5030D01*
G02X10443800I-46200J26621D01*
G03X10426200I-8800J-5030D01*
G02X10380000Y5022500I-46200J26621D01*
G02Y5128900I0J53200D01*
G02X10426200Y5102200I0J-53321D01*
G03X10443800I8800J5030D01*
G02X10536200I46200J-26621D01*
G03X10553800I8800J5030D01*
G02X10646200I46200J-26621D01*
G03X10663800I8800J5030D01*
G02X10756200I46200J-26621D01*
G03X10773800I8800J5030D01*
G37*
G36*
G01X12198800D02*
G02X12291200I46200J-26621D01*
G03X12308800I8800J5030D01*
G02X12355000Y5128900I46200J-26621D01*
G02Y5022500I0J-53200D01*
G02X12308800Y5049200I0J53321D01*
G03X12291200I-8800J-5030D01*
G02X12198800I-46200J26621D01*
G03X12181200I-8800J-5030D01*
G02X12088800I-46200J26621D01*
G03X12071200I-8800J-5030D01*
G02X11978800I-46200J26621D01*
G03X11961200I-8800J-5030D01*
G02X11868800I-46200J26621D01*
G03X11851200I-8800J-5030D01*
G02X11805000Y5022500I-46200J26621D01*
G02Y5128900I0J53200D01*
G02X11851200Y5102200I0J-53321D01*
G03X11868800I8800J5030D01*
G02X11961200I46200J-26621D01*
G03X11978800I8800J5030D01*
G02X12071200I46200J-26621D01*
G03X12088800I8800J5030D01*
G02X12181200I46200J-26621D01*
G03X12198800I8800J5030D01*
G37*
G36*
G01X1406200Y5059000D02*
G02X1360000Y5032300I-46200J26621D01*
G02Y5138700I0J53200D01*
G02X1406200Y5112000I0J-53321D01*
G03X1423800I8800J5030D01*
G02X1470000Y5138700I46200J-26621D01*
G02X1513700Y5115900I0J-53279D01*
G03X1529800Y5115000I8398J5781D01*
G02X1570000Y5133400I40200J-34714D01*
G02Y5027000I0J-53200D01*
G02X1526300Y5049800I0J53279D01*
G03X1510200Y5050700I-8398J-5781D01*
G02X1470000Y5032300I-40200J34714D01*
G02X1423800Y5059000I0J53321D01*
G03X1406200I-8800J-5030D01*
G37*
G36*
G01X2831200D02*
G02X2785000Y5032300I-46200J26621D01*
G02Y5138700I0J53200D01*
G02X2831200Y5112000I0J-53321D01*
G03X2848800I8800J5030D01*
G02X2895000Y5138700I46200J-26621D01*
G02X2940600Y5113000I0J-53304D01*
G03X2957400Y5112100I8706J5263D01*
G02X3000000Y5133400I42600J-31950D01*
G02Y5027000I0J-53200D01*
G02X2954400Y5052700I0J53304D01*
G03X2937600Y5053600I-8706J-5263D01*
G02X2895000Y5032300I-42600J31950D01*
G02X2848800Y5059000I0J53321D01*
G03X2831200I-8800J-5030D01*
G37*
G36*
G01X4256200D02*
G02X4210000Y5032300I-46200J26621D01*
G02Y5138700I0J53200D01*
G02X4256200Y5112000I0J-53321D01*
G03X4273800I8800J5030D01*
G02X4320000Y5138700I46200J-26621D01*
G02X4363700Y5115900I0J-53279D01*
G03X4379800Y5115000I8398J5781D01*
G02X4420000Y5133400I40200J-34714D01*
G02Y5027000I0J-53200D01*
G02X4376300Y5049800I0J53279D01*
G03X4360200Y5050700I-8398J-5781D01*
G02X4320000Y5032300I-40200J34714D01*
G02X4273800Y5059000I0J53321D01*
G03X4256200I-8800J-5030D01*
G37*
G36*
G01X1976400Y460000D02*
G02X1990900Y423500I-38690J-36500D01*
G02X1884500I-53200J0D01*
G02X1899000Y460000I53190J0D01*
G02X1884500Y496500I38690J36500D01*
G02X1990900I53200J0D01*
G02X1976400Y460000I-53190J0D01*
G37*
G36*
G01X3185000Y699900D02*
G02X3150000Y686800I-35000J40206D01*
G02Y793200I0J53200D01*
G02X3185000Y780100I0J-53306D01*
G02X3255000I35000J-40206D01*
G02X3290000Y793200I35000J-40206D01*
G02X3343200Y740000I0J-53200D01*
G02X3330100Y705000I-53306J0D01*
G02Y635000I-40206J-35000D01*
G02Y565000I-40206J-35000D01*
G02X3343200Y530000I-40206J-35000D01*
G02X3236800I-53200J0D01*
G02X3249900Y565000I53306J0D01*
G02Y635000I40206J35000D01*
G02X3236800Y670000I40206J35000D01*
G02X3237100Y675900I53213J252D01*
G03X3225900Y687100I-10121J1079D01*
G02X3220000Y686800I-5648J52913D01*
G02X3185000Y699900I0J53306D01*
G37*
G36*
G01X13323900Y1946600D02*
G03X13319100Y1961100I-8813J5127D01*
G02X13286800Y2010000I20866J48900D01*
G02X13393200I53200J0D01*
G02X13386100Y1983400I-53212J-44D01*
G03X13390900Y1968900I8813J-5127D01*
G02X13423200Y1920000I-20866J-48900D01*
G02X13410100Y1885000I-53306J0D01*
G02Y1815000I-40206J-35000D01*
G02Y1745000I-40206J-35000D01*
G02X13423200Y1710000I-40206J-35000D01*
G02X13316800I-53200J0D01*
G02X13329900Y1745000I53306J0D01*
G02Y1815000I40206J35000D01*
G02Y1885000I40206J35000D01*
G02X13316800Y1920000I40206J35000D01*
G02X13323900Y1946600I53212J44D01*
G37*
G36*
G01X13636200Y1673500D02*
G02X13590000Y1646800I-46200J26621D01*
G02Y1753200I0J53200D01*
G02X13636200Y1726500I0J-53321D01*
G03X13653800I8800J5030D01*
G02X13700000Y1753200I46200J-26621D01*
G02Y1646800I0J-53200D01*
G02X13653800Y1673500I0J53321D01*
G03X13636200I-8800J-5030D01*
G37*
G54D24*
X6804000Y1310000D03*
X6550000D03*
G54D28*
X7730000Y890000D03*
X13168000Y1195000D03*
G54D27*
X7300000Y1090000D03*
G54D21*
X932500Y7260000D03*
X1500000D03*
X2925000D03*
X4350000D03*
X5207500D03*
X5775000D03*
X2357500Y6760000D03*
X6632500D03*
X932500Y6260000D03*
X5207500D03*
X1250000Y5760000D03*
X1790000D03*
X2357500D03*
X2675000D03*
X3215000D03*
X4100000D03*
X4640000D03*
X5525000D03*
X6065000D03*
X6632500D03*
X932500Y5260000D03*
X5207500D03*
X2357500Y4760000D03*
X6632500D03*
X2357500Y3760000D03*
X6632500D03*
X7097500Y7260000D03*
X7665000D03*
X9090000D03*
X10515000D03*
X11372500D03*
X11940000D03*
X8522500Y6760000D03*
X12797500D03*
X7097500Y6260000D03*
X11372500D03*
X7415000Y5760000D03*
X7955000D03*
X8522500D03*
X8840000D03*
X9380000D03*
X10265000D03*
X10805000D03*
X11690000D03*
X12230000D03*
X12797500D03*
X7097500Y5260000D03*
X11372500D03*
X8522500Y4760000D03*
X12797500D03*
X8522500Y3760000D03*
X12797500D03*
G54D20*
X11966100Y642900D03*
X11712100D03*
X11839100Y515900D03*
X11712100D03*
X11839100Y642900D03*
X2110000Y790000D03*
X12830000Y2640000D03*
X1560000Y3910000D03*
X7870000D03*
X5825000Y3916800D03*
X1700000Y3910000D03*
X5050000Y500000D03*
X1760000Y3180000D03*
X9145000Y3915000D03*
X4550000Y3910000D03*
X6085000Y4131800D03*
X5975000Y3915000D03*
X3190000Y3180000D03*
X4610000D03*
X6040000D03*
X7930000D03*
X9344300D03*
X10832500Y3066800D03*
X12194300Y3180000D03*
X12141300Y3336000D03*
X12567700Y3335000D03*
X11142700D03*
X10716300Y3336000D03*
X9717700Y3335000D03*
X9291300Y3336000D03*
X8292700Y3335000D03*
X7866300Y3336000D03*
X6390000Y3335000D03*
X5980000Y3336000D03*
X4960000Y3335000D03*
X4560000Y3336000D03*
X3530000Y3335000D03*
X3140000Y3336000D03*
X2110000Y3335000D03*
X1710000Y3336000D03*
X11995000Y3915000D03*
X6255700Y5005000D03*
X4780000Y5080200D03*
X3350000D03*
X1910000Y5085500D03*
X11504500Y3715000D03*
X2975000Y3915000D03*
X7720000Y3916800D03*
X9295000Y3915000D03*
X3125000D03*
X10830000Y4131800D03*
X12255000D03*
X10570000Y3910000D03*
X12145000Y3915000D03*
X10720000Y3900000D03*
X9405000Y4131800D03*
X7980000D03*
X4400000Y3910000D03*
X4660000Y4131800D03*
X3235000D03*
X1810000D03*
X8765000Y3685000D03*
X7229500Y3715000D03*
X5334500D03*
X2330000Y3360000D03*
X1059500Y3715000D03*
X6630000Y170000D03*
X6790000Y164500D03*
X7070000Y160000D03*
X6790000Y615500D03*
X6910000Y164500D03*
X6493800Y640000D03*
X6280000Y650000D03*
X4870000Y210000D03*
X6110000Y300000D03*
X5980000Y920000D03*
X5190000Y180000D03*
X6110000Y680000D03*
X5190000Y380000D03*
X5950000Y540000D03*
X6370000Y220000D03*
X5713900Y227200D03*
X5295000Y255000D03*
X5840000Y890000D03*
X8320000Y2930000D03*
X9840000Y2920000D03*
X10054500Y2930000D03*
X10059800Y2810000D03*
X10510000D03*
X10050000Y2640000D03*
X10119300Y3080000D03*
X8634500Y2930000D03*
X8639800Y2810000D03*
X8800000Y2510000D03*
X9090000Y2810000D03*
X8939600Y2509600D03*
X8630000Y2640000D03*
X8699300Y3080000D03*
X12814500Y2790000D03*
X11300000Y3040000D03*
X11494500Y2780000D03*
X11945500D03*
X11490000Y2640000D03*
X12640000Y2965000D03*
X12982100Y1264100D03*
X3249000Y4331000D03*
X13510000Y3464300D03*
X6790000Y6648000D03*
X8931900Y1137100D03*
X1824000Y4364000D03*
X13600000Y3060000D03*
X4674000Y4356000D03*
X6099000Y4371000D03*
X6880000Y5190000D03*
X9421300Y4379000D03*
X12269000Y4381000D03*
X6800000Y5623400D03*
X5440000Y4490000D03*
X4340000Y3150000D03*
X10800000Y4394000D03*
X7967000Y4397000D03*
X10924000Y3964000D03*
X8677900Y1137100D03*
X4420000Y3350000D03*
X6490000Y4360000D03*
X12855100Y769900D03*
X3890000Y2980000D03*
X9058900Y1264100D03*
X12982100Y642900D03*
X6748000Y4440000D03*
X8804900Y1264100D03*
X8550900Y1137100D03*
X10580000Y3310000D03*
X13350000Y4130000D03*
X8677900Y1264100D03*
X520500Y3053000D03*
X139500Y2267000D03*
X266500D03*
Y3053000D03*
X393500D03*
X530000Y2590000D03*
X660000Y2267000D03*
X12982100Y1010100D03*
X12347100Y1264100D03*
X8804900Y642900D03*
X8931900D03*
X9058900Y515900D03*
X9185900D03*
Y642900D03*
X9566900Y515900D03*
Y642900D03*
X9693900Y515900D03*
Y642900D03*
X10074900Y515900D03*
X10201900D03*
X10696100D03*
X10823100D03*
X10328900Y1264100D03*
X9185900D03*
X9058900Y1137100D03*
X9820900D03*
X12728100Y642900D03*
X10201900Y1264100D03*
X9312900Y1137100D03*
X9439900Y1264100D03*
X11712100Y1137100D03*
X12855100Y515900D03*
X9439900Y1137100D03*
X11458100Y1264100D03*
X11585100D03*
X9693900Y1137100D03*
X9947900Y1264100D03*
X9566900D03*
X9820900D03*
X10696100D03*
X11077100D03*
X11204100D03*
X12220100Y515900D03*
X10823100Y1264100D03*
X12601100Y515900D03*
X12474100Y642900D03*
X12347100Y515900D03*
X9312900Y642900D03*
X11839100Y1264100D03*
X11966100D03*
X12093100Y1137100D03*
X12220100D03*
Y1264100D03*
X12474100Y1137100D03*
X12601100D03*
Y1264100D03*
X7915900Y388900D03*
Y642900D03*
X8042900Y1264100D03*
X11204100Y515900D03*
Y642900D03*
X11331100Y515900D03*
X12347100Y642900D03*
X6800000Y1025000D03*
X6240000Y520000D03*
X6540000Y1025000D03*
X6980000Y7410000D03*
X6625000Y3005000D03*
X12855100Y1137100D03*
X8296900Y1518100D03*
X8423900D03*
X1530000Y1910000D03*
X3675000Y2465000D03*
X8042900Y1137100D03*
X4505000Y2815000D03*
X2635000Y1255000D03*
X2865000Y2585000D03*
X8169900Y1137100D03*
X7600000Y510000D03*
X7545000Y2985000D03*
X2275000D03*
X4345000Y3000000D03*
X4505000Y2570000D03*
X7975000Y2995000D03*
X2865000Y2805000D03*
X1910000Y2500000D03*
X4515000Y180000D03*
X6195000Y3020000D03*
X2705000Y2985000D03*
X7240000Y2520000D03*
X5900000D03*
X140000Y1600000D03*
X595000Y2075000D03*
X775000D03*
G54D26*
X13440000Y4866000D03*
G54D23*
X2124000Y4170000D03*
X3549000D03*
X4974000D03*
X6399000D03*
X9719000D03*
X8294000D03*
X11144000D03*
X12569000D03*
G54D22*
X3782500Y6760000D03*
Y5760000D03*
X932500Y4980000D03*
X2357500D03*
X5207500D03*
X6632500D03*
X932500Y4510000D03*
X3782500Y4760000D03*
X5207500Y4510000D03*
X932500Y4010000D03*
X5207500D03*
X1645000Y3550000D03*
X2125000D03*
X3070000D03*
X3550000D03*
X4495000D03*
X4975000D03*
X5920000D03*
X6400000D03*
X9947500Y6760000D03*
Y5760000D03*
X7097500Y4980000D03*
X8522500D03*
X11372500D03*
X12797500D03*
X7097500Y4510000D03*
X9947500Y4760000D03*
X11372500Y4510000D03*
X7097500Y4010000D03*
X11372500D03*
X7810000Y3550000D03*
X8290000D03*
X9235000D03*
X9715000D03*
X10660000D03*
X11140000D03*
X12085000D03*
X12565000D03*
G54D25*
X6296000Y1310000D03*
X13730000Y3519000D03*
%LPD*%
G75*
G54D10*
X300000Y1090000D03*
X550000Y6550000D03*
X7300000Y1090000D03*
X13205000Y6550000D03*
X13600000Y1090000D03*
G54D11*
X140000Y1600000D03*
X130000Y2090000D03*
X139500Y2267000D03*
X140000Y2597000D03*
X139500Y3053000D03*
X270000Y1930000D03*
X480000Y1600000D03*
X590000Y1880000D03*
X266500Y2267000D03*
X595000Y2075000D03*
X660000Y2267000D03*
X400000Y2600000D03*
X270000Y2597000D03*
X660000Y2513000D03*
X530000Y2590000D03*
X520500Y3053000D03*
X393500D03*
X266500D03*
X698900Y6031600D03*
X1110000Y532500D03*
Y92500D03*
Y387500D03*
X973000Y993000D03*
X1110000Y827500D03*
X820000Y1780000D03*
X1000000Y1785000D03*
X775000Y2075000D03*
X1059500Y3805000D03*
Y3715000D03*
X1140000Y4719500D03*
X820500Y5849200D03*
X739500Y5970800D03*
X780000Y5910000D03*
X1582400Y1133500D03*
Y1206500D03*
X1591100Y1061000D03*
X1601900Y1276900D03*
X1350000Y1910000D03*
X1380000Y1610000D03*
X1530000Y1910000D03*
X1387500Y3427400D03*
X1460500D03*
X1520000Y3600000D03*
X1228500Y3760000D03*
X1560000Y3910000D03*
X1700000D03*
Y4155500D03*
X1550000Y4310500D03*
X1400000Y4155500D03*
X1290000Y4121800D03*
X1264000Y4429500D03*
X1344000D03*
X1360000Y4834500D03*
X1580000D03*
X1690000D03*
X1470000D03*
X1570000Y5080200D03*
X1470000Y5085500D03*
X1360000D03*
X1800000Y240000D03*
X1937700Y496500D03*
Y423500D03*
X1810000Y790000D03*
Y980000D03*
X1800000Y680000D03*
X2110000Y790000D03*
X1810000Y1470000D03*
X2035700Y1360000D03*
X2040000Y1470000D03*
X1846500Y2326900D03*
X1773500D03*
X1910000Y2500000D03*
X2060000Y3180000D03*
X2110000Y3335000D03*
X1710000Y3336000D03*
X1760000Y3180000D03*
X2024000Y3910500D03*
X1784000Y3609500D03*
X1810000Y4131800D03*
X1824000Y4364000D03*
X1984000Y4429500D03*
X1800000Y4834500D03*
X1910000D03*
Y5085500D03*
X1790000Y5080200D03*
X1710000D03*
X2330000Y550000D03*
X2400000D03*
X2410000Y330000D03*
X2330000Y620000D03*
Y690000D03*
X2400000Y620000D03*
Y690000D03*
X2260000Y1430000D03*
X2350000Y1480000D03*
X2635000Y1255000D03*
X2490000Y1690000D03*
X2420000D03*
X2350000D03*
Y1620000D03*
Y1550000D03*
X2252500Y1730000D03*
X2607500Y2592500D03*
X2550000Y2930000D03*
X2420000D03*
X2390000Y2740000D03*
Y2640000D03*
X2330000Y3360000D03*
X2275000Y2985000D03*
X2653500Y3760000D03*
X2565000Y3940000D03*
Y4719500D03*
X3105000Y325000D03*
X2773500Y489800D03*
X2846500D03*
X3040000Y1090000D03*
X2865000Y2805000D03*
Y2585000D03*
X3140000Y3336000D03*
X2705000Y2985000D03*
X2812500Y3427400D03*
X2885500D03*
X2940000Y3590000D03*
X2975000Y3915000D03*
X3125000D03*
Y4155500D03*
X2975000Y4310500D03*
X2825000Y4155500D03*
X2715000Y4121800D03*
X2689000Y4429500D03*
X2769000D03*
X2785000Y4834500D03*
X3005000D03*
X3115000D03*
X2895000D03*
X2785000Y5085500D03*
X2895000D03*
X3000000Y5080200D03*
X3130000D03*
X3290000Y530000D03*
X3450000Y480000D03*
X3510800Y520500D03*
X3590000Y560000D03*
X3290000Y740000D03*
Y670000D03*
Y600000D03*
X3220000Y740000D03*
X3150000D03*
X3290000Y1500000D03*
X3220000D03*
X3290000Y1640000D03*
X3220000D03*
Y1570000D03*
X3290000D03*
X3266500Y2400000D03*
X3193500D03*
X3490000Y3180000D03*
X3530000Y3335000D03*
X3190000Y3180000D03*
X3449000Y3910500D03*
X3209000Y3609500D03*
X3235000Y4131800D03*
X3249000Y4331000D03*
X3409000Y4429500D03*
X3225000Y4834500D03*
X3335000D03*
X3220000Y5080200D03*
X3350000D03*
X3660000Y610000D03*
X3730000Y660000D03*
X3800000Y710000D03*
X3875000Y755000D03*
X3675000Y2465000D03*
X4090000Y2930000D03*
X3890000Y2980000D03*
X3909500Y3805000D03*
X4078500Y3760000D03*
X3909500Y3715000D03*
X3990000Y4719500D03*
X4480000Y560000D03*
X4340000Y180000D03*
X4515000D03*
X4440000Y870000D03*
X4470000Y950000D03*
X4555000D03*
X4380000D03*
X4212500Y2592500D03*
X4220000Y2930000D03*
X4505000Y2815000D03*
Y2570000D03*
X4110000Y2740000D03*
Y2640000D03*
X4560000Y3336000D03*
X4345000Y3000000D03*
X4237500Y3427400D03*
X4310500D03*
X4340000Y3150000D03*
X4420000Y3350000D03*
X4362500Y3587500D03*
X4400000Y3910000D03*
X4550000D03*
Y4155500D03*
X4400000Y4310500D03*
X4250000Y4155500D03*
X4140000Y4121800D03*
X4114000Y4429500D03*
X4194000D03*
X4210000Y4834500D03*
X4430000D03*
X4540000D03*
X4320000D03*
X4420000Y5080200D03*
X4560000D03*
X4210000Y5085500D03*
X4320000D03*
X4605000Y180000D03*
X4870000Y210000D03*
X5050000Y500000D03*
X4790000Y535000D03*
X4880100Y529800D03*
X4620000Y870000D03*
X4820000Y800000D03*
X4910000D03*
X4860000Y600000D03*
X4686500Y2322400D03*
X4613500D03*
X4910000Y3180000D03*
X4960000Y3335000D03*
X4610000Y3180000D03*
X4874000Y3910500D03*
X4634000Y3609500D03*
X4660000Y4131800D03*
X4674000Y4356000D03*
X4834000Y4429500D03*
X4650000Y4834500D03*
X4760000D03*
X4780000Y5080200D03*
X4650000Y5085500D03*
X5190000Y180000D03*
X5295000Y255000D03*
X5190000Y380000D03*
X5360000Y535000D03*
X5310000Y590000D03*
X5510000Y880000D03*
X5420000Y840000D03*
X5338000D03*
X5250000Y650000D03*
X5334500Y3805000D03*
X5503500Y3760000D03*
X5334500Y3715000D03*
X5530000Y4380000D03*
X5415000Y4719500D03*
X5440000Y4490000D03*
X5660000Y560000D03*
X5675000Y155000D03*
X5713900Y227200D03*
X5950000Y540000D03*
X5635000Y880000D03*
X5980000Y920000D03*
X5840000Y890000D03*
X5694200Y1757900D03*
X5767200D03*
X5900000Y2520000D03*
X5980000Y3336000D03*
X5662500Y3427400D03*
X5735500D03*
X5814100Y3612900D03*
X5825000Y3916800D03*
X5975000Y3915000D03*
X5825000Y4310500D03*
X5675000Y4155500D03*
X5975000D03*
X5565000Y4121800D03*
X5619000Y4429500D03*
X5635000Y4834500D03*
X5855000D03*
X5965000D03*
X5745000D03*
X5639000Y4730000D03*
X5745000Y5075700D03*
X5635000D03*
X5855000D03*
X5980000Y5090000D03*
X6240000Y370000D03*
X6110000Y300000D03*
X6480000Y340000D03*
X6472500Y422500D03*
X6370000Y220000D03*
X6240000Y520000D03*
X6110000Y680000D03*
X6280000Y650000D03*
X6493800Y640000D03*
X6116500Y2322400D03*
X6043500D03*
X6472500Y2592500D03*
X6510000Y2750000D03*
Y2670000D03*
X6380000Y2760000D03*
X6410000Y2680000D03*
X6340000Y3180000D03*
X6285000Y3020000D03*
X6390000Y3335000D03*
X6040000Y3180000D03*
X6195000Y3020000D03*
X6299000Y3910500D03*
X6059000Y3609500D03*
X6085000Y4131800D03*
X6099000Y4371000D03*
X6490000Y4360000D03*
X6259000Y4429500D03*
X6075000Y4834500D03*
X6185000D03*
X6075000Y5075700D03*
X6255700Y5005000D03*
X6630000Y170000D03*
X6790000Y164500D03*
X6910000D03*
X6790000Y615500D03*
X6944500Y710000D03*
X6800000Y1025000D03*
X6540000D03*
X6910000Y615500D03*
X6590000Y880000D03*
X6690000D03*
X6535000Y3005000D03*
X6625000D03*
X6950000Y4290000D03*
Y4400000D03*
X6748000Y4440000D03*
X6880000Y5190000D03*
X6800000Y5623400D03*
X6790000Y6648000D03*
X6980000Y7080000D03*
Y7000000D03*
Y6920000D03*
Y7410000D03*
X7225000Y230000D03*
X7070000Y160000D03*
X7240000Y357500D03*
X7320000Y390000D03*
X7070000Y620000D03*
X7240000Y2520000D03*
X7229500Y3805000D03*
X7398500Y3760000D03*
X7229500Y3715000D03*
X7460000Y4121800D03*
X7434000Y4429500D03*
X7310000Y4719500D03*
X7915900Y261900D03*
X7600000Y510000D03*
X7915900Y388900D03*
Y769900D03*
Y642900D03*
Y1391100D03*
Y1137100D03*
X7943500Y2482400D03*
X7820000Y2930000D03*
X7680000D03*
X7840000Y2510000D03*
Y2740000D03*
Y2640000D03*
X7680000Y2740000D03*
Y2640000D03*
X7866300Y3336000D03*
X7930000Y3180000D03*
X7545000Y2985000D03*
X7714000Y3624000D03*
X7954000Y3609500D03*
X7720000Y3916800D03*
X7870000Y3910000D03*
Y4155500D03*
X7720000Y4310500D03*
X7570000Y4155500D03*
X7514000Y4429500D03*
X7750000Y4834500D03*
X7640000D03*
X7860000D03*
X7530000D03*
Y5075700D03*
X7640000D03*
X7750000D03*
X7860000D03*
X8042900Y388900D03*
X8169900D03*
X8296900Y261900D03*
X8423900D03*
X8042900Y642900D03*
X8169900D03*
X8296900Y769900D03*
X8423900D03*
X8042900Y1518100D03*
X8296900Y1137100D03*
Y1391100D03*
X8423900D03*
Y1518100D03*
X8296900D03*
X8169900Y1137100D03*
X8042900D03*
Y1264100D03*
X8016500Y2482400D03*
X8320000Y2930000D03*
X8230000Y3180000D03*
X8292700Y3335000D03*
X7975000Y2995000D03*
X8194000Y3910500D03*
X7980000Y4131800D03*
X7967000Y4397000D03*
X8154000Y4429500D03*
X7970000Y4834500D03*
X8080000D03*
X7970000Y5075700D03*
X8080000D03*
X8550900Y388900D03*
X8677900D03*
X8804900Y261900D03*
X8550900Y642900D03*
X8677900D03*
X8804900Y769900D03*
Y642900D03*
X8550900Y1264100D03*
Y1518100D03*
X8804900Y1264100D03*
X8677900D03*
Y1137100D03*
X8550900D03*
X8545000Y2780000D03*
X8634500Y2930000D03*
X8639800Y2810000D03*
X8630000Y2640000D03*
X8800000Y2510000D03*
X8479300Y3080000D03*
X8699300D03*
X8827500Y3203000D03*
X8892500Y3270000D03*
X8664300Y3805000D03*
X8823500Y3760000D03*
X8765000Y3685000D03*
X8885000Y4121800D03*
X8859000Y4429500D03*
X8735000Y4719500D03*
X8931900Y261900D03*
X9058900Y388900D03*
X9185900D03*
X9312900Y261900D03*
X9185900Y515900D03*
X9058900D03*
X9312900Y1010100D03*
X9185900Y769900D03*
X9045100Y896900D03*
X8931900Y642900D03*
X9312900D03*
X9185900D03*
X8931900Y1518100D03*
X9185900Y1137100D03*
X9312900Y1264100D03*
Y1518100D03*
X9185900Y1264100D03*
X9058900D03*
X9312900Y1137100D03*
X9058900D03*
X8931900D03*
X9363500Y2422400D03*
X9100000Y2640000D03*
X9085500Y2930000D03*
X9090000Y2810000D03*
X8939600Y2509600D03*
X9291300Y3336000D03*
X9344300Y3180000D03*
X9110000Y3035000D03*
X8957500Y3203000D03*
X9139000Y3624000D03*
X9379000Y3609500D03*
X9145000Y3915000D03*
X9295000D03*
X8982500Y3527400D03*
X9055500D03*
X8995000Y4155500D03*
X9145000Y4310500D03*
X9295000Y4155500D03*
X8939000Y4429500D03*
X9175000Y4834500D03*
X9065000D03*
X9285000D03*
X9395000D03*
X8955000D03*
Y5075700D03*
X9175000D03*
X9065000D03*
X9285000D03*
X9395000D03*
X9439900Y261900D03*
Y515900D03*
X9566900Y388900D03*
X9693900D03*
X9820900Y261900D03*
Y515900D03*
X9693900D03*
X9566900D03*
X9693900Y1010100D03*
X9439900Y642900D03*
X9566900Y769900D03*
X9820900Y642900D03*
X9693900D03*
X9566900D03*
Y1137100D03*
X9693900Y1264100D03*
Y1518100D03*
X9820900Y1137100D03*
X9566900Y1264100D03*
X9439900Y1137100D03*
X9820900Y1264100D03*
X9693900Y1137100D03*
X9439900Y1264100D03*
X9436500Y2422400D03*
X9840000Y2920000D03*
X9665700Y3180000D03*
X9717700Y3335000D03*
X9619000Y3910500D03*
X9405000Y4131800D03*
X9421300Y4379000D03*
X9579000Y4429500D03*
X9505000Y4834500D03*
Y5075700D03*
X9947900Y261900D03*
Y515900D03*
X10074900Y388900D03*
X10201900D03*
X10328900Y261900D03*
Y515900D03*
X10201900D03*
X10074900D03*
Y1010100D03*
X9947900Y769900D03*
X10201900Y642900D03*
X10328900Y769900D03*
X9947900Y1137100D03*
X10074900Y1518100D03*
X10328900Y1137100D03*
Y1391100D03*
X9947900Y1264100D03*
X10328900D03*
X10201900D03*
X10200000Y2480000D03*
X10310000D03*
X9965000Y2770000D03*
X10054500Y2930000D03*
X10059800Y2810000D03*
X10050000Y2640000D03*
X9890000Y3070000D03*
X10119300Y3080000D03*
X10247500Y3203000D03*
X10320000Y3270000D03*
X10079500Y3805000D03*
X10248500Y3760000D03*
X10079500Y3715000D03*
X10310000Y4121800D03*
X10284000Y4439300D03*
X10160000Y4719500D03*
X10569100Y261900D03*
Y515900D03*
X10696100Y388900D03*
X10823100D03*
Y515900D03*
X10696100D03*
X10569100Y1010100D03*
X10696100Y642900D03*
X10823100Y769900D03*
X10569100Y1264100D03*
Y1518100D03*
X10823100Y1137100D03*
Y1391100D03*
Y1264100D03*
X10696100D03*
X10803500Y2422400D03*
X10430000Y2500000D03*
X10505500Y2930000D03*
X10510000Y2810000D03*
X10716300Y3336000D03*
X10832500Y3066800D03*
X10530000Y3035000D03*
X10580000Y3310000D03*
X10377500Y3203000D03*
X10407500Y3427400D03*
X10480500D03*
X10564000Y3624000D03*
X10804000Y3609500D03*
X10570000Y3910000D03*
X10720000Y3900000D03*
Y4155500D03*
X10570000Y4310500D03*
X10420000Y4155500D03*
X10830000Y4131800D03*
X10800000Y4394000D03*
X10364000Y4439300D03*
X10600000Y4834500D03*
X10490000D03*
X10710000D03*
X10820000D03*
X10380000D03*
Y5075700D03*
X10490000D03*
X10600000D03*
X10710000D03*
X10820000D03*
X10950100Y261900D03*
Y515900D03*
X11077100Y261900D03*
Y515900D03*
X11204100D03*
X10950100Y1010100D03*
X11077100Y642900D03*
X11204100Y769900D03*
Y642900D03*
X10950100Y1518100D03*
X11204100Y1137100D03*
Y1264100D03*
X11077100D03*
X10876500Y2422400D03*
X11090700Y3180000D03*
X11142700Y3335000D03*
X11300000Y3040000D03*
X11044000Y3900700D03*
X10924000Y3964000D03*
X11004000Y4439300D03*
X10930000Y4834500D03*
Y5075700D03*
X11458100Y261900D03*
X11585100D03*
Y515900D03*
X11712100Y388900D03*
Y515900D03*
X11331100D03*
Y1010100D03*
X11712100D03*
X11585100Y769900D03*
X11712100Y642900D03*
X11331100Y1518100D03*
X11585100Y1137100D03*
X11712100Y1264100D03*
Y1518100D03*
X11585100Y1264100D03*
X11458100D03*
X11712100Y1137100D03*
X11405000Y2780000D03*
X11494500D03*
X11490000Y2640000D03*
X11679500Y2519900D03*
X11752500Y2521500D03*
X11410000Y3135500D03*
X11490000Y3000000D03*
X11559300Y3080000D03*
X11687500Y3203000D03*
X11752500Y3280000D03*
X11504500Y3805000D03*
X11749000Y3619300D03*
X11504500Y3715000D03*
X11735000Y4121800D03*
X11585000Y4719500D03*
X11709000Y4429500D03*
X11789000D03*
X11805000Y4834500D03*
Y5075700D03*
X11839100Y388900D03*
X11966100Y261900D03*
Y515900D03*
X12093100Y261900D03*
Y515900D03*
X12220100Y388900D03*
X11839100Y515900D03*
X12220100D03*
X11966100Y769900D03*
Y642900D03*
X11839100D03*
X12093100Y1518100D03*
Y1264100D03*
X11966100D03*
X12220100Y1137100D03*
X11839100Y1264100D03*
X12220100D03*
X12093100Y1137100D03*
X12223500Y2422400D03*
X11960000Y2640000D03*
X11945500Y2930000D03*
Y2780000D03*
X12141300Y3336000D03*
X12194300Y3180000D03*
X11970000Y3035000D03*
X11820200Y3200200D03*
X11832500Y3427400D03*
X11905500D03*
X11989000Y3624000D03*
X12229000Y3609500D03*
X11995000Y3915000D03*
X12145000D03*
X11995000Y4310500D03*
X12145000Y4155500D03*
X11845000D03*
X12255000Y4131800D03*
X12269000Y4381000D03*
X12025000Y4834500D03*
X11915000D03*
X12135000D03*
X12245000D03*
X11915000Y5075700D03*
X12025000D03*
X12135000D03*
X12245000D03*
X12347100Y388900D03*
X12474100Y261900D03*
Y515900D03*
X12601100Y261900D03*
X12728100Y388900D03*
Y515900D03*
X12347100D03*
X12601100D03*
X12728100Y769900D03*
X12347100D03*
X12601100Y642900D03*
X12347100D03*
X12474100D03*
X12728100D03*
X12347100Y1137100D03*
X12474100Y1264100D03*
Y1518100D03*
X12347100Y1264100D03*
X12601100Y1137100D03*
Y1264100D03*
X12474100Y1137100D03*
X12296500Y2422400D03*
X12644500Y2710000D03*
X12640000Y2965000D03*
X12730000Y3135500D03*
X12515700Y3180000D03*
X12567700Y3335000D03*
X12469000Y3900700D03*
X12429000Y4429500D03*
X12355000Y4834500D03*
Y5075700D03*
X12982100Y515900D03*
X12855100Y388900D03*
X12982100Y261900D03*
X13140000Y560000D03*
X13215000D03*
X12855100Y515900D03*
Y642900D03*
X12982100Y769900D03*
X12855100Y1010100D03*
X12982100D03*
X12855100Y769900D03*
X12982100Y642900D03*
Y1137100D03*
Y1391100D03*
X12855100Y1518100D03*
X12982100Y1264100D03*
X12855100Y1137100D03*
X13200000Y1920000D03*
Y1850000D03*
Y1780000D03*
Y1710000D03*
Y2480000D03*
X13070000Y2120000D03*
X12814500Y2790000D03*
X12830000Y2640000D03*
X12998500Y2500000D03*
X13080500D03*
X12817500Y3017500D03*
X12820000Y3080000D03*
X13007500Y3203000D03*
X13072500Y3290000D03*
X13137500Y3203000D03*
X13219500Y3890000D03*
Y4250000D03*
X13660000Y110000D03*
Y185000D03*
Y260000D03*
Y560000D03*
X13290000D03*
X13365000D03*
X13440000D03*
X13515000D03*
X13660000Y635000D03*
X13290000D03*
X13365000D03*
X13440000D03*
X13515000D03*
X13575000Y2005000D03*
X13590000Y1700000D03*
X13370000Y1920000D03*
Y1850000D03*
Y1780000D03*
Y1710000D03*
X13700000Y1700000D03*
X13500000Y2350000D03*
X13340000Y2010000D03*
X13420000Y2680000D03*
X13255700Y2950000D03*
X13260000Y2860000D03*
X13255700Y2790000D03*
X13420000Y3060000D03*
X13600000D03*
X13260000Y3035000D03*
X13330000Y3464300D03*
X13372500Y3637500D03*
X13510000Y3464300D03*
X13374500Y4040000D03*
Y4400000D03*
X13350000Y4130000D03*
X13735000Y110000D03*
X13810000D03*
X13735000Y185000D03*
X13810000D03*
X13735000Y260000D03*
X13810000D03*
Y335000D03*
Y410000D03*
Y485000D03*
X13735000Y560000D03*
X13810000D03*
X13735000Y635000D03*
X13810000D03*
Y1820000D03*
Y2350000D03*
X13790000Y2770000D03*
Y3040000D03*
G54D12*
X932500Y4010000D03*
Y4510000D03*
Y4980000D03*
X1645000Y3550000D03*
X2125000D03*
X2357500Y4980000D03*
X3070000Y3550000D03*
X3550000D03*
X3782500Y3760000D03*
Y4760000D03*
Y5760000D03*
Y6760000D03*
X4495000Y3550000D03*
X4975000D03*
X5207500Y4010000D03*
Y4510000D03*
Y4980000D03*
X5920000Y3550000D03*
X6400000D03*
X6632500Y4980000D03*
X7097500Y4010000D03*
Y4510000D03*
Y4980000D03*
X7810000Y3550000D03*
X8290000D03*
X8522500Y4980000D03*
X9235000Y3550000D03*
X9715000D03*
X9947500Y3760000D03*
Y4760000D03*
Y5760000D03*
Y6760000D03*
X10660000Y3550000D03*
X11140000D03*
X11372500Y4010000D03*
Y4510000D03*
Y4980000D03*
X12085000Y3550000D03*
X12565000D03*
X12797500Y4980000D03*
G54D13*
X1164000Y4170000D03*
X2124000D03*
X2589000D03*
X3549000D03*
X4014000D03*
X4974000D03*
X5439000D03*
X6399000D03*
X7334000D03*
X8294000D03*
X8759000D03*
X9719000D03*
X10184000D03*
X11144000D03*
X11609000D03*
X12569000D03*
G54D14*
X932500Y5260000D03*
X1250000Y5760000D03*
X932500Y6260000D03*
Y7260000D03*
X1500000D03*
X1790000Y5760000D03*
X2357500Y3760000D03*
Y4760000D03*
Y5760000D03*
X2675000D03*
X2357500Y6760000D03*
X3215000Y5760000D03*
X2925000Y7260000D03*
X4100000Y5760000D03*
X4640000D03*
X4350000Y7260000D03*
X5207500Y5260000D03*
X5525000Y5760000D03*
X5207500Y6260000D03*
Y7260000D03*
X6065000Y5760000D03*
X5775000Y7260000D03*
X6632500Y3760000D03*
Y4760000D03*
Y5760000D03*
Y6760000D03*
X7097500Y5260000D03*
X7415000Y5760000D03*
X7097500Y6260000D03*
Y7260000D03*
X7955000Y5760000D03*
X7665000Y7260000D03*
X8522500Y3760000D03*
Y4760000D03*
Y5760000D03*
Y6760000D03*
X8840000Y5760000D03*
X9380000D03*
X9090000Y7260000D03*
X10265000Y5760000D03*
X10805000D03*
X10515000Y7260000D03*
X11372500Y5260000D03*
Y6260000D03*
Y7260000D03*
X11690000Y5760000D03*
X12230000D03*
X11940000Y7260000D03*
X12797500Y3760000D03*
Y4760000D03*
Y5760000D03*
Y6760000D03*
G54D15*
X6550000Y1310000D03*
X6296000D03*
X6804000D03*
X13730000Y3773000D03*
Y3519000D03*
Y4027000D03*
Y4281000D03*
G54D16*
X7730000Y890000D03*
X13168000Y1195000D03*
G54D17*
X13440000Y4866000D03*
G54D18*
G01X580000Y6054000D02*
X545300Y6050000D01*
X516000Y6044000D01*
X489300Y6036000D01*
X460000Y6026000D01*
X420000Y6010000D01*
Y6090000D01*
G54D19*
G01X932500Y3909500D02*
Y4010000D01*
G01D02*
Y4110500D01*
G01X832000Y4010000D02*
X932500D01*
G01D02*
X1033000D01*
G01X856300Y3933800D02*
X932500Y4010000D01*
G01D02*
X1008700Y4086200D01*
G01X856300D02*
X932500Y4010000D01*
G01D02*
X1008700Y3933800D01*
G01X932500Y4879500D02*
Y4980000D01*
G01Y4409500D02*
Y4510000D01*
G01D02*
Y4610500D01*
G01X832000Y4510000D02*
X932500D01*
G01D02*
X1033000D01*
G01X856300Y4433800D02*
X932500Y4510000D01*
G01D02*
X1008700Y4586200D01*
G01X856300D02*
X932500Y4510000D01*
G01D02*
X1008700Y4433800D01*
G01X932500Y4980000D02*
Y5080500D01*
G01X832000Y4980000D02*
X932500D01*
G01D02*
X1033000D01*
G01X856300Y4903800D02*
X932500Y4980000D01*
G01D02*
X1008700Y5056200D01*
G01X856300D02*
X932500Y4980000D01*
G01D02*
X1008700Y4903800D01*
G01X932500Y5154500D02*
Y5260000D01*
G01D02*
Y5365500D01*
G01X827000Y5260000D02*
X932500D01*
G01D02*
X1038000D01*
G01X852800Y5180300D02*
X932500Y5260000D01*
G01D02*
X1012200Y5339700D01*
G01X852800D02*
X932500Y5260000D01*
G01D02*
X1012200Y5180300D01*
G01X1144500Y5760000D02*
X1250000D01*
G01X1170300Y5680300D02*
X1250000Y5760000D01*
G01X1170300Y5839700D02*
X1250000Y5760000D01*
G01X932500Y6154500D02*
Y6260000D01*
G01D02*
Y6365500D01*
G01X827000Y6260000D02*
X932500D01*
G01D02*
X1038000D01*
G01X852800Y6180300D02*
X932500Y6260000D01*
G01D02*
X1012200Y6339700D01*
G01X852800D02*
X932500Y6260000D01*
G01D02*
X1012200Y6180300D01*
G01X932500Y7154500D02*
Y7260000D01*
G01D02*
Y7365500D01*
G01X827000Y7260000D02*
X932500D01*
G01D02*
X1038000D01*
G01X852800Y7180300D02*
X932500Y7260000D01*
G01D02*
X1012200Y7339700D01*
G01X852800D02*
X932500Y7260000D01*
G01D02*
X1012200Y7180300D01*
G01X1645000Y3449500D02*
Y3550000D01*
G01D02*
Y3650500D01*
G01X1544500Y3550000D02*
X1645000D01*
G01D02*
X1745500D01*
G01X1568800Y3473800D02*
X1645000Y3550000D01*
G01D02*
X1721200Y3626200D01*
G01X1568800D02*
X1645000Y3550000D01*
G01D02*
X1721200Y3473800D01*
G01X1684500Y5760000D02*
X1790000D01*
G01X1250000Y5654500D02*
Y5760000D01*
G01D02*
Y5865500D01*
G01Y5760000D02*
X1355500D01*
G01X1250000D02*
X1329700Y5839700D01*
G01X1250000Y5760000D02*
X1329700Y5680300D01*
G01X1500000Y7154500D02*
Y7260000D01*
G01D02*
Y7365500D01*
G01X1394500Y7260000D02*
X1500000D01*
G01D02*
X1605500D01*
G01X1420300Y7180300D02*
X1500000Y7260000D01*
G01D02*
X1579700Y7339700D01*
G01X1420300D02*
X1500000Y7260000D01*
G01D02*
X1579700Y7180300D01*
G01X2125000Y3449500D02*
Y3550000D01*
G01D02*
Y3650500D01*
G01X2024500Y3550000D02*
X2125000D01*
G01D02*
X2225500D01*
G01X2048800Y3473800D02*
X2125000Y3550000D01*
G01D02*
X2201200Y3626200D01*
G01X2048800D02*
X2125000Y3550000D01*
G01D02*
X2201200Y3473800D01*
G01X1790000Y5654500D02*
Y5760000D01*
G01D02*
Y5865500D01*
G01Y5760000D02*
X1895500D01*
G01X1710300Y5680300D02*
X1790000Y5760000D01*
G01D02*
X1869700Y5839700D01*
G01X1710300D02*
X1790000Y5760000D01*
G01D02*
X1869700Y5680300D01*
G01X2357500Y3654500D02*
Y3760000D01*
G01D02*
Y3865500D01*
G01X2252000Y3760000D02*
X2357500D01*
G01D02*
X2463000D01*
G01X2277800Y3680300D02*
X2357500Y3760000D01*
G01D02*
X2437200Y3839700D01*
G01X2277800D02*
X2357500Y3760000D01*
G01D02*
X2437200Y3680300D01*
G01X2357500Y4654500D02*
Y4760000D01*
G01D02*
Y4865500D01*
G01X2252000Y4760000D02*
X2357500D01*
G01D02*
X2463000D01*
G01X2277800Y4680300D02*
X2357500Y4760000D01*
G01D02*
X2437200Y4839700D01*
G01X2277800D02*
X2357500Y4760000D01*
G01D02*
X2437200Y4680300D01*
G01X2357500Y4879500D02*
Y4980000D01*
G01D02*
Y5080500D01*
G01X2257000Y4980000D02*
X2357500D01*
G01D02*
X2458000D01*
G01X2281300Y4903800D02*
X2357500Y4980000D01*
G01D02*
X2433700Y5056200D01*
G01X2281300D02*
X2357500Y4980000D01*
G01D02*
X2433700Y4903800D01*
G01X2569500Y5760000D02*
X2675000D01*
G01X2595300Y5680300D02*
X2675000Y5760000D01*
G01X2595300Y5839700D02*
X2675000Y5760000D01*
G01X2357500Y5654500D02*
Y5760000D01*
G01D02*
Y5865500D01*
G01X2252000Y5760000D02*
X2357500D01*
G01D02*
X2463000D01*
G01X2277800Y5680300D02*
X2357500Y5760000D01*
G01D02*
X2437200Y5839700D01*
G01X2277800D02*
X2357500Y5760000D01*
G01D02*
X2437200Y5680300D01*
G01X2357500Y6654500D02*
Y6760000D01*
G01D02*
Y6865500D01*
G01X2252000Y6760000D02*
X2357500D01*
G01D02*
X2463000D01*
G01X2277800Y6680300D02*
X2357500Y6760000D01*
G01D02*
X2437200Y6839700D01*
G01X2277800D02*
X2357500Y6760000D01*
G01D02*
X2437200Y6680300D01*
G01X3070000Y3449500D02*
Y3550000D01*
G01D02*
Y3650500D01*
G01X2969500Y3550000D02*
X3070000D01*
G01D02*
X3170500D01*
G01X2993800Y3473800D02*
X3070000Y3550000D01*
G01D02*
X3146200Y3626200D01*
G01X2993800D02*
X3070000Y3550000D01*
G01D02*
X3146200Y3473800D01*
G01X2675000Y5654500D02*
Y5760000D01*
G01D02*
Y5865500D01*
G01Y5760000D02*
X2780500D01*
G01X2675000D02*
X2754700Y5839700D01*
G01X2675000Y5760000D02*
X2754700Y5680300D01*
G01X3109500Y5760000D02*
X3215000D01*
G01X3135300Y5680300D02*
X3215000Y5760000D01*
G01X3135300Y5839700D02*
X3215000Y5760000D01*
G01X2925000Y7154500D02*
Y7260000D01*
G01D02*
Y7365500D01*
G01X2819500Y7260000D02*
X2925000D01*
G01D02*
X3030500D01*
G01X2845300Y7180300D02*
X2925000Y7260000D01*
G01D02*
X3004700Y7339700D01*
G01X2845300D02*
X2925000Y7260000D01*
G01D02*
X3004700Y7180300D01*
G01X3550000Y3449500D02*
Y3550000D01*
G01D02*
Y3650500D01*
G01X3449500Y3550000D02*
X3550000D01*
G01D02*
X3650500D01*
G01X3473800Y3473800D02*
X3550000Y3550000D01*
G01D02*
X3626200Y3626200D01*
G01X3473800D02*
X3550000Y3550000D01*
G01D02*
X3626200Y3473800D01*
G01X3215000Y5654500D02*
Y5760000D01*
G01D02*
Y5865500D01*
G01Y5760000D02*
X3320500D01*
G01X3215000D02*
X3294700Y5839700D01*
G01X3215000Y5760000D02*
X3294700Y5680300D01*
G01X3782500Y3659500D02*
Y3760000D01*
G01D02*
Y3860500D01*
G01X3682000Y3760000D02*
X3782500D01*
G01X3706300Y3683800D02*
X3782500Y3760000D01*
G01D02*
X3858700Y3836200D01*
G01X3706300D02*
X3782500Y3760000D01*
G01Y4659500D02*
Y4760000D01*
G01D02*
Y4860500D01*
G01X3682000Y4760000D02*
X3782500D01*
G01D02*
X3883000D01*
G01X3706300Y4683800D02*
X3782500Y4760000D01*
G01D02*
X3858700Y4836200D01*
G01X3706300D02*
X3782500Y4760000D01*
G01D02*
X3858700Y4683800D01*
G01X3994500Y5760000D02*
X4100000D01*
G01X4020300Y5680300D02*
X4100000Y5760000D01*
G01D02*
X4179700Y5839700D01*
G01X4020300D02*
X4100000Y5760000D01*
G01D02*
X4179700Y5680300D01*
G01X3782500Y5659500D02*
Y5760000D01*
G01D02*
Y5860500D01*
G01X3682000Y5760000D02*
X3782500D01*
G01D02*
X3883000D01*
G01X3706300Y5683800D02*
X3782500Y5760000D01*
G01D02*
X3858700Y5836200D01*
G01X3706300D02*
X3782500Y5760000D01*
G01D02*
X3858700Y5683800D01*
G01X3782500Y6659500D02*
Y6760000D01*
G01D02*
Y6860500D01*
G01X3682000Y6760000D02*
X3782500D01*
G01D02*
X3883000D01*
G01X3706300Y6683800D02*
X3782500Y6760000D01*
G01D02*
X3858700Y6836200D01*
G01X3706300D02*
X3782500Y6760000D01*
G01D02*
X3858700Y6683800D01*
G01X4495000Y3449500D02*
Y3550000D01*
G01D02*
Y3650500D01*
G01X4394500Y3550000D02*
X4495000D01*
G01D02*
X4595500D01*
G01X4418800Y3473800D02*
X4495000Y3550000D01*
G01D02*
X4571200Y3626200D01*
G01X4418800D02*
X4495000Y3550000D01*
G01D02*
X4571200Y3473800D01*
G01X4534500Y5760000D02*
X4640000D01*
G01X4560300Y5680300D02*
X4640000Y5760000D01*
G01X4560300Y5839700D02*
X4640000Y5760000D01*
G01X4100000Y5654500D02*
Y5760000D01*
G01D02*
Y5865500D01*
G01Y5760000D02*
X4205500D01*
G01X4350000Y7154500D02*
Y7260000D01*
G01D02*
Y7365500D01*
G01X4244500Y7260000D02*
X4350000D01*
G01D02*
X4455500D01*
G01X4270300Y7180300D02*
X4350000Y7260000D01*
G01D02*
X4429700Y7339700D01*
G01X4270300D02*
X4350000Y7260000D01*
G01D02*
X4429700Y7180300D01*
G01X4975000Y3449500D02*
Y3550000D01*
G01D02*
Y3650500D01*
G01X4874500Y3550000D02*
X4975000D01*
G01D02*
X5075500D01*
G01X4898800Y3473800D02*
X4975000Y3550000D01*
G01D02*
X5051200Y3626200D01*
G01X4898800D02*
X4975000Y3550000D01*
G01D02*
X5051200Y3473800D01*
G01X4640000Y5654500D02*
Y5760000D01*
G01D02*
Y5865500D01*
G01Y5760000D02*
X4745500D01*
G01X4640000D02*
X4719700Y5839700D01*
G01X4640000Y5760000D02*
X4719700Y5680300D01*
G01X5207500Y3909500D02*
Y4010000D01*
G01D02*
Y4110500D01*
G01X5107000Y4010000D02*
X5207500D01*
G01D02*
X5308000D01*
G01X5131300Y3933800D02*
X5207500Y4010000D01*
G01D02*
X5283700Y4086200D01*
G01X5131300D02*
X5207500Y4010000D01*
G01D02*
X5283700Y3933800D01*
G01X5207500Y4409500D02*
Y4510000D01*
G01D02*
Y4610500D01*
G01X5107000Y4510000D02*
X5207500D01*
G01D02*
X5308000D01*
G01X5131300Y4433800D02*
X5207500Y4510000D01*
G01D02*
X5283700Y4586200D01*
G01X5131300D02*
X5207500Y4510000D01*
G01D02*
X5283700Y4433800D01*
G01X5207500Y4879500D02*
Y4980000D01*
G01Y5154500D02*
Y5260000D01*
G01D02*
Y5365500D01*
G01X5102000Y5260000D02*
X5207500D01*
G01D02*
X5313000D01*
G01X5127800Y5180300D02*
X5207500Y5260000D01*
G01D02*
X5287200Y5339700D01*
G01X5127800D02*
X5207500Y5260000D01*
G01D02*
X5287200Y5180300D01*
G01X5207500Y4980000D02*
Y5080500D01*
G01X5107000Y4980000D02*
X5207500D01*
G01D02*
X5308000D01*
G01X5131300Y4903800D02*
X5207500Y4980000D01*
G01D02*
X5283700Y5056200D01*
G01X5131300D02*
X5207500Y4980000D01*
G01D02*
X5283700Y4903800D01*
G01X5525000Y5654500D02*
Y5760000D01*
G01D02*
Y5865500D01*
G01X5419500Y5760000D02*
X5525000D01*
G01D02*
X5630500D01*
G01X5445300Y5680300D02*
X5525000Y5760000D01*
G01D02*
X5604700Y5839700D01*
G01X5445300D02*
X5525000Y5760000D01*
G01D02*
X5604700Y5680300D01*
G01X5207500Y6154500D02*
Y6260000D01*
G01D02*
Y6365500D01*
G01X5102000Y6260000D02*
X5207500D01*
G01D02*
X5313000D01*
G01X5127800Y6180300D02*
X5207500Y6260000D01*
G01D02*
X5287200Y6339700D01*
G01X5127800D02*
X5207500Y6260000D01*
G01D02*
X5287200Y6180300D01*
G01X5207500Y7154500D02*
Y7260000D01*
G01D02*
Y7365500D01*
G01X5102000Y7260000D02*
X5207500D01*
G01D02*
X5313000D01*
G01X5127800Y7180300D02*
X5207500Y7260000D01*
G01D02*
X5287200Y7339700D01*
G01X5127800D02*
X5207500Y7260000D01*
G01D02*
X5287200Y7180300D01*
G01X5920000Y3449500D02*
Y3550000D01*
G01D02*
Y3650500D01*
G01X5819500Y3550000D02*
X5920000D01*
G01D02*
X6020500D01*
G01X5843800Y3473800D02*
X5920000Y3550000D01*
G01D02*
X5996200Y3626200D01*
G01X5843800D02*
X5920000Y3550000D01*
G01D02*
X5996200Y3473800D01*
G01X5959500Y5760000D02*
X6065000D01*
G01X5985300Y5680300D02*
X6065000Y5760000D01*
G01X5985300Y5839700D02*
X6065000Y5760000D01*
G01X5775000Y7154500D02*
Y7260000D01*
G01D02*
Y7365500D01*
G01X5669500Y7260000D02*
X5775000D01*
G01D02*
X5880500D01*
G01X5695300Y7180300D02*
X5775000Y7260000D01*
G01D02*
X5854700Y7339700D01*
G01X5695300D02*
X5775000Y7260000D01*
G01D02*
X5854700Y7180300D01*
G01X6296000Y1207000D02*
Y1310000D01*
G01D02*
Y1413000D01*
G01X6193000Y1310000D02*
X6296000D01*
G01D02*
X6399000D01*
G01X6218100Y1232100D02*
X6296000Y1310000D01*
G01D02*
X6373900Y1387900D01*
G01X6218100D02*
X6296000Y1310000D01*
G01D02*
X6373900Y1232100D01*
G01X6400000Y3449500D02*
Y3550000D01*
G01D02*
Y3650500D01*
G01X6299500Y3550000D02*
X6400000D01*
G01D02*
X6500500D01*
G01X6323800Y3473800D02*
X6400000Y3550000D01*
G01D02*
X6476200Y3626200D01*
G01X6323800D02*
X6400000Y3550000D01*
G01D02*
X6476200Y3473800D01*
G01X6065000Y5654500D02*
Y5760000D01*
G01D02*
Y5865500D01*
G01Y5760000D02*
X6170500D01*
G01X6065000D02*
X6144700Y5839700D01*
G01X6065000Y5760000D02*
X6144700Y5680300D01*
G01X6632500Y3654500D02*
Y3760000D01*
G01D02*
Y3865500D01*
G01X6527000Y3760000D02*
X6632500D01*
G01D02*
X6738000D01*
G01X6552800Y3680300D02*
X6632500Y3760000D01*
G01D02*
X6712200Y3839700D01*
G01X6552800D02*
X6632500Y3760000D01*
G01D02*
X6712200Y3680300D01*
G01X6632500Y4879500D02*
Y4980000D01*
G01Y4654500D02*
Y4760000D01*
G01D02*
Y4865500D01*
G01X6527000Y4760000D02*
X6632500D01*
G01D02*
X6738000D01*
G01X6552800Y4680300D02*
X6632500Y4760000D01*
G01D02*
X6712200Y4839700D01*
G01X6552800D02*
X6632500Y4760000D01*
G01D02*
X6712200Y4680300D01*
G01X6632500Y4980000D02*
Y5080500D01*
G01X6532000Y4980000D02*
X6632500D01*
G01D02*
X6733000D01*
G01X6556300Y4903800D02*
X6632500Y4980000D01*
G01D02*
X6708700Y5056200D01*
G01X6556300D02*
X6632500Y4980000D01*
G01D02*
X6708700Y4903800D01*
G01X6632500Y5654500D02*
Y5760000D01*
G01D02*
Y5865500D01*
G01X6527000Y5760000D02*
X6632500D01*
G01D02*
X6738000D01*
G01X6552800Y5680300D02*
X6632500Y5760000D01*
G01D02*
X6712200Y5839700D01*
G01X6552800D02*
X6632500Y5760000D01*
G01D02*
X6712200Y5680300D01*
G01X6632500Y6654500D02*
Y6760000D01*
G01D02*
Y6865500D01*
G01X6527000Y6760000D02*
X6632500D01*
G01D02*
X6738000D01*
G01X6552800Y6680300D02*
X6632500Y6760000D01*
G01D02*
X6712200Y6839700D01*
G01X6552800D02*
X6632500Y6760000D01*
G01D02*
X6712200Y6680300D01*
G01X7097500Y3909500D02*
Y4010000D01*
G01D02*
Y4110500D01*
G01X6997000Y4010000D02*
X7097500D01*
G01D02*
X7198000D01*
G01X7021300Y3933800D02*
X7097500Y4010000D01*
G01D02*
X7173700Y4086200D01*
G01X7021300D02*
X7097500Y4010000D01*
G01D02*
X7173700Y3933800D01*
G01X7097500Y4409500D02*
Y4510000D01*
G01D02*
Y4610500D01*
G01X6997000Y4510000D02*
X7097500D01*
G01D02*
X7198000D01*
G01X7021300Y4433800D02*
X7097500Y4510000D01*
G01D02*
X7173700Y4586200D01*
G01X7021300D02*
X7097500Y4510000D01*
G01D02*
X7173700Y4433800D01*
G01X7097500Y4879500D02*
Y4980000D01*
G01Y5154500D02*
Y5260000D01*
G01D02*
Y5365500D01*
G01X6992000Y5260000D02*
X7097500D01*
G01D02*
X7203000D01*
G01X7017800Y5180300D02*
X7097500Y5260000D01*
G01D02*
X7177200Y5339700D01*
G01X7017800D02*
X7097500Y5260000D01*
G01D02*
X7177200Y5180300D01*
G01X7097500Y4980000D02*
Y5080500D01*
G01X6997000Y4980000D02*
X7097500D01*
G01D02*
X7198000D01*
G01X7021300Y4903800D02*
X7097500Y4980000D01*
G01D02*
X7173700Y5056200D01*
G01X7021300D02*
X7097500Y4980000D01*
G01D02*
X7173700Y4903800D01*
G01X7415000Y5654500D02*
Y5760000D01*
G01D02*
Y5865500D01*
G01X7309500Y5760000D02*
X7415000D01*
G01D02*
X7520500D01*
G01X7335300Y5680300D02*
X7415000Y5760000D01*
G01D02*
X7494700Y5839700D01*
G01X7335300D02*
X7415000Y5760000D01*
G01D02*
X7494700Y5680300D01*
G01X7097500Y6154500D02*
Y6260000D01*
G01D02*
Y6365500D01*
G01X6992000Y6260000D02*
X7097500D01*
G01D02*
X7203000D01*
G01X7017800Y6180300D02*
X7097500Y6260000D01*
G01D02*
X7177200Y6339700D01*
G01X7017800D02*
X7097500Y6260000D01*
G01D02*
X7177200Y6180300D01*
G01X7097500Y7154500D02*
Y7260000D01*
G01D02*
Y7365500D01*
G01X6992000Y7260000D02*
X7097500D01*
G01D02*
X7203000D01*
G01X7017800Y7180300D02*
X7097500Y7260000D01*
G01D02*
X7177200Y7339700D01*
G01X7017800D02*
X7097500Y7260000D01*
G01D02*
X7177200Y7180300D01*
G01X7810000Y3449500D02*
Y3550000D01*
G01D02*
Y3650500D01*
G01X7709500Y3550000D02*
X7810000D01*
G01D02*
X7910500D01*
G01X7733800Y3473800D02*
X7810000Y3550000D01*
G01D02*
X7886200Y3626200D01*
G01X7733800D02*
X7810000Y3550000D01*
G01D02*
X7886200Y3473800D01*
G01X7849500Y5760000D02*
X7955000D01*
G01X7875300Y5680300D02*
X7955000Y5760000D01*
G01X7875300Y5839700D02*
X7955000Y5760000D01*
G01X7665000Y7154500D02*
Y7260000D01*
G01D02*
Y7365500D01*
G01X7559500Y7260000D02*
X7665000D01*
G01D02*
X7770500D01*
G01X7585300Y7180300D02*
X7665000Y7260000D01*
G01D02*
X7744700Y7339700D01*
G01X7585300D02*
X7665000Y7260000D01*
G01D02*
X7744700Y7180300D01*
G01X8417000Y3760000D02*
X8522500D01*
G01X8290000Y3449500D02*
Y3550000D01*
G01D02*
Y3650500D01*
G01X8189500Y3550000D02*
X8290000D01*
G01D02*
X8390500D01*
G01X8213800Y3473800D02*
X8290000Y3550000D01*
G01D02*
X8366200Y3626200D01*
G01X8213800D02*
X8290000Y3550000D01*
G01D02*
X8366200Y3473800D01*
G01X8417000Y4760000D02*
X8522500D01*
G01X8422000Y4980000D02*
X8522500D01*
G01X8417000Y5760000D02*
X8522500D01*
G01X7955000Y5654500D02*
Y5760000D01*
G01D02*
Y5865500D01*
G01Y5760000D02*
X8060500D01*
G01X7955000D02*
X8034700Y5839700D01*
G01X7955000Y5760000D02*
X8034700Y5680300D01*
G01X8417000Y6760000D02*
X8522500D01*
G01Y3654500D02*
Y3760000D01*
G01D02*
Y3865500D01*
G01Y3760000D02*
X8628000D01*
G01X8442800Y3680300D02*
X8522500Y3760000D01*
G01D02*
X8602200Y3839700D01*
G01X8442800D02*
X8522500Y3760000D01*
G01D02*
X8602200Y3680300D01*
G01X8522500Y4879500D02*
Y4980000D01*
G01Y4654500D02*
Y4760000D01*
G01D02*
Y4865500D01*
G01Y4760000D02*
X8628000D01*
G01X8442800Y4680300D02*
X8522500Y4760000D01*
G01D02*
X8602200Y4839700D01*
G01X8442800D02*
X8522500Y4760000D01*
G01D02*
X8602200Y4680300D01*
G01X8522500Y4980000D02*
Y5080500D01*
G01Y4980000D02*
X8623000D01*
G01X8446300Y4903800D02*
X8522500Y4980000D01*
G01D02*
X8598700Y5056200D01*
G01X8446300D02*
X8522500Y4980000D01*
G01D02*
X8598700Y4903800D01*
G01X8840000Y5654500D02*
Y5760000D01*
G01D02*
Y5865500D01*
G01X8734500Y5760000D02*
X8840000D01*
G01D02*
X8945500D01*
G01X8760300Y5680300D02*
X8840000Y5760000D01*
G01D02*
X8919700Y5839700D01*
G01X8760300D02*
X8840000Y5760000D01*
G01D02*
X8919700Y5680300D01*
G01X8522500Y5654500D02*
Y5760000D01*
G01D02*
Y5865500D01*
G01Y5760000D02*
X8628000D01*
G01X8442800Y5680300D02*
X8522500Y5760000D01*
G01D02*
X8602200Y5839700D01*
G01X8442800D02*
X8522500Y5760000D01*
G01D02*
X8602200Y5680300D01*
G01X8522500Y6654500D02*
Y6760000D01*
G01D02*
Y6865500D01*
G01Y6760000D02*
X8628000D01*
G01X8442800Y6680300D02*
X8522500Y6760000D01*
G01D02*
X8602200Y6839700D01*
G01X8442800D02*
X8522500Y6760000D01*
G01D02*
X8602200Y6680300D01*
G01X9235000Y3449500D02*
Y3550000D01*
G01D02*
Y3650500D01*
G01X9134500Y3550000D02*
X9235000D01*
G01D02*
X9335500D01*
G01X9158800Y3473800D02*
X9235000Y3550000D01*
G01D02*
X9311200Y3626200D01*
G01X9158800D02*
X9235000Y3550000D01*
G01D02*
X9311200Y3473800D01*
G01X9380000Y5654500D02*
Y5760000D01*
G01D02*
Y5865500D01*
G01X9274500Y5760000D02*
X9380000D01*
G01D02*
X9485500D01*
G01X9300300Y5680300D02*
X9380000Y5760000D01*
G01D02*
X9459700Y5839700D01*
G01X9300300D02*
X9380000Y5760000D01*
G01D02*
X9459700Y5680300D01*
G01X9090000Y7154500D02*
Y7260000D01*
G01D02*
Y7365500D01*
G01X8984500Y7260000D02*
X9090000D01*
G01D02*
X9195500D01*
G01X9010300Y7180300D02*
X9090000Y7260000D01*
G01D02*
X9169700Y7339700D01*
G01X9010300D02*
X9090000Y7260000D01*
G01D02*
X9169700Y7180300D01*
G01X9715000Y3449500D02*
Y3550000D01*
G01D02*
Y3650500D01*
G01X9614500Y3550000D02*
X9715000D01*
G01D02*
X9815500D01*
G01X9638800Y3473800D02*
X9715000Y3550000D01*
G01D02*
X9791200Y3626200D01*
G01X9638800D02*
X9715000Y3550000D01*
G01D02*
X9791200Y3473800D01*
G01X9847000Y3760000D02*
X9947500D01*
G01X9871300Y3683800D02*
X9947500Y3760000D01*
G01X9871300Y3836200D02*
X9947500Y3760000D01*
G01X9847000Y4760000D02*
X9947500D01*
G01X9871300Y4683800D02*
X9947500Y4760000D01*
G01X9871300Y4836200D02*
X9947500Y4760000D01*
G01X9847000Y5760000D02*
X9947500D01*
G01X9871300Y5683800D02*
X9947500Y5760000D01*
G01X9871300Y5836200D02*
X9947500Y5760000D01*
G01X9847000Y6760000D02*
X9947500D01*
G01X9871300Y6683800D02*
X9947500Y6760000D01*
G01X9871300Y6836200D02*
X9947500Y6760000D01*
G01Y3659500D02*
Y3760000D01*
G01D02*
Y3860500D01*
G01Y3760000D02*
X10023700Y3836200D01*
G01X9947500Y4659500D02*
Y4760000D01*
G01D02*
Y4860500D01*
G01Y4760000D02*
X10048000D01*
G01X9947500D02*
X10023700Y4836200D01*
G01X9947500Y4760000D02*
X10023700Y4683800D01*
G01X10265000Y5654500D02*
Y5760000D01*
G01D02*
Y5865500D01*
G01X10159500Y5760000D02*
X10265000D01*
G01D02*
X10370500D01*
G01X10185300Y5680300D02*
X10265000Y5760000D01*
G01D02*
X10344700Y5839700D01*
G01X10185300D02*
X10265000Y5760000D01*
G01D02*
X10344700Y5680300D01*
G01X9947500Y5659500D02*
Y5760000D01*
G01D02*
Y5860500D01*
G01Y5760000D02*
X10048000D01*
G01X9947500D02*
X10023700Y5836200D01*
G01X9947500Y5760000D02*
X10023700Y5683800D01*
G01X9947500Y6659500D02*
Y6760000D01*
G01D02*
Y6860500D01*
G01Y6760000D02*
X10048000D01*
G01X9947500D02*
X10023700Y6836200D01*
G01X9947500Y6760000D02*
X10023700Y6683800D01*
G01X10660000Y3449500D02*
Y3550000D01*
G01D02*
Y3650500D01*
G01X10559500Y3550000D02*
X10660000D01*
G01D02*
X10760500D01*
G01X10583800Y3473800D02*
X10660000Y3550000D01*
G01D02*
X10736200Y3626200D01*
G01X10583800D02*
X10660000Y3550000D01*
G01D02*
X10736200Y3473800D01*
G01X10805000Y5654500D02*
Y5760000D01*
G01D02*
Y5865500D01*
G01X10699500Y5760000D02*
X10805000D01*
G01D02*
X10910500D01*
G01X10725300Y5680300D02*
X10805000Y5760000D01*
G01D02*
X10884700Y5839700D01*
G01X10725300D02*
X10805000Y5760000D01*
G01D02*
X10884700Y5680300D01*
G01X10515000Y7154500D02*
Y7260000D01*
G01D02*
Y7365500D01*
G01X10409500Y7260000D02*
X10515000D01*
G01D02*
X10620500D01*
G01X10435300Y7180300D02*
X10515000Y7260000D01*
G01D02*
X10594700Y7339700D01*
G01X10435300D02*
X10515000Y7260000D01*
G01D02*
X10594700Y7180300D01*
G01X11140000Y3449500D02*
Y3550000D01*
G01D02*
Y3650500D01*
G01X11039500Y3550000D02*
X11140000D01*
G01D02*
X11240500D01*
G01X11063800Y3473800D02*
X11140000Y3550000D01*
G01D02*
X11216200Y3626200D01*
G01X11063800D02*
X11140000Y3550000D01*
G01D02*
X11216200Y3473800D01*
G01X11272000Y4010000D02*
X11372500D01*
G01X11296300Y3933800D02*
X11372500Y4010000D01*
G01X11296300Y4086200D02*
X11372500Y4010000D01*
G01X11272000Y4510000D02*
X11372500D01*
G01X11296300Y4433800D02*
X11372500Y4510000D01*
G01X11296300Y4586200D02*
X11372500Y4510000D01*
G01X11267000Y5260000D02*
X11372500D01*
G01X11292800Y5180300D02*
X11372500Y5260000D01*
G01X11292800Y5339700D02*
X11372500Y5260000D01*
G01X11272000Y4980000D02*
X11372500D01*
G01X11296300Y4903800D02*
X11372500Y4980000D01*
G01X11296300Y5056200D02*
X11372500Y4980000D01*
G01X11267000Y6260000D02*
X11372500D01*
G01X11292800Y6180300D02*
X11372500Y6260000D01*
G01X11292800Y6339700D02*
X11372500Y6260000D01*
G01X11267000Y7260000D02*
X11372500D01*
G01X11292800Y7180300D02*
X11372500Y7260000D01*
G01X11292800Y7339700D02*
X11372500Y7260000D01*
G01Y3909500D02*
Y4010000D01*
G01D02*
Y4110500D01*
G01Y4010000D02*
X11473000D01*
G01X11372500D02*
X11448700Y4086200D01*
G01X11372500Y4010000D02*
X11448700Y3933800D01*
G01X11372500Y4879500D02*
Y4980000D01*
G01Y4409500D02*
Y4510000D01*
G01D02*
Y4610500D01*
G01Y4510000D02*
X11473000D01*
G01X11372500D02*
X11448700Y4586200D01*
G01X11372500Y4510000D02*
X11448700Y4433800D01*
G01X11372500Y5154500D02*
Y5260000D01*
G01D02*
Y5365500D01*
G01Y5260000D02*
X11478000D01*
G01X11372500D02*
X11452200Y5339700D01*
G01X11372500Y5260000D02*
X11452200Y5180300D01*
G01X11372500Y4980000D02*
Y5080500D01*
G01Y4980000D02*
X11473000D01*
G01X11372500D02*
X11448700Y5056200D01*
G01X11372500Y4980000D02*
X11448700Y4903800D01*
G01X11690000Y5654500D02*
Y5760000D01*
G01D02*
Y5865500D01*
G01X11584500Y5760000D02*
X11690000D01*
G01D02*
X11795500D01*
G01X11610300Y5680300D02*
X11690000Y5760000D01*
G01D02*
X11769700Y5839700D01*
G01X11610300D02*
X11690000Y5760000D01*
G01D02*
X11769700Y5680300D01*
G01X11372500Y6154500D02*
Y6260000D01*
G01D02*
Y6365500D01*
G01Y6260000D02*
X11478000D01*
G01X11372500D02*
X11452200Y6339700D01*
G01X11372500Y6260000D02*
X11452200Y6180300D01*
G01X11372500Y7154500D02*
Y7260000D01*
G01D02*
Y7365500D01*
G01Y7260000D02*
X11478000D01*
G01X11372500D02*
X11452200Y7339700D01*
G01X11372500Y7260000D02*
X11452200Y7180300D01*
G01X12085000Y3449500D02*
Y3550000D01*
G01D02*
Y3650500D01*
G01X11984500Y3550000D02*
X12085000D01*
G01D02*
X12185500D01*
G01X12008800Y3473800D02*
X12085000Y3550000D01*
G01D02*
X12161200Y3626200D01*
G01X12008800D02*
X12085000Y3550000D01*
G01D02*
X12161200Y3473800D01*
G01X12230000Y5654500D02*
Y5760000D01*
G01D02*
Y5865500D01*
G01X12124500Y5760000D02*
X12230000D01*
G01D02*
X12335500D01*
G01X12150300Y5680300D02*
X12230000Y5760000D01*
G01D02*
X12309700Y5839700D01*
G01X12150300D02*
X12230000Y5760000D01*
G01D02*
X12309700Y5680300D01*
G01X11940000Y7154500D02*
Y7260000D01*
G01D02*
Y7365500D01*
G01X11834500Y7260000D02*
X11940000D01*
G01D02*
X12045500D01*
G01X11860300Y7180300D02*
X11940000Y7260000D01*
G01D02*
X12019700Y7339700D01*
G01X11860300D02*
X11940000Y7260000D01*
G01D02*
X12019700Y7180300D01*
G01X12692000Y3760000D02*
X12797500D01*
G01X12717800Y3680300D02*
X12797500Y3760000D01*
G01X12717800Y3839700D02*
X12797500Y3760000D01*
G01X12565000Y3449500D02*
Y3550000D01*
G01D02*
Y3650500D01*
G01X12464500Y3550000D02*
X12565000D01*
G01D02*
X12665500D01*
G01X12488800Y3473800D02*
X12565000Y3550000D01*
G01D02*
X12641200Y3626200D01*
G01X12488800D02*
X12565000Y3550000D01*
G01D02*
X12641200Y3473800D01*
G01X12692000Y4760000D02*
X12797500D01*
G01X12717800Y4680300D02*
X12797500Y4760000D01*
G01X12717800Y4839700D02*
X12797500Y4760000D01*
G01X12697000Y4980000D02*
X12797500D01*
G01X12721300Y4903800D02*
X12797500Y4980000D01*
G01X12721300Y5056200D02*
X12797500Y4980000D01*
G01X12692000Y5760000D02*
X12797500D01*
G01X12717800Y5680300D02*
X12797500Y5760000D01*
G01X12717800Y5839700D02*
X12797500Y5760000D01*
G01X12692000Y6760000D02*
X12797500D01*
G01X12717800Y6680300D02*
X12797500Y6760000D01*
G01X12717800Y6839700D02*
X12797500Y6760000D01*
G01Y3654500D02*
Y3760000D01*
G01D02*
Y3865500D01*
G01Y3760000D02*
X12903000D01*
G01X12797500D02*
X12877200Y3839700D01*
G01X12797500Y3760000D02*
X12877200Y3680300D01*
G01X12797500Y4879500D02*
Y4980000D01*
G01Y4654500D02*
Y4760000D01*
G01D02*
Y4865500D01*
G01Y4760000D02*
X12903000D01*
G01X12797500D02*
X12877200Y4839700D01*
G01X12797500Y4760000D02*
X12877200Y4680300D01*
G01X12797500Y4980000D02*
Y5080500D01*
G01Y4980000D02*
X12898000D01*
G01X12797500D02*
X12873700Y5056200D01*
G01X12797500Y4980000D02*
X12873700Y4903800D01*
G01X12797500Y5654500D02*
Y5760000D01*
G01D02*
Y5865500D01*
G01Y5760000D02*
X12903000D01*
G01X12797500D02*
X12877200Y5839700D01*
G01X12797500Y5760000D02*
X12877200Y5680300D01*
G01X12797500Y6654500D02*
Y6760000D01*
G01D02*
Y6865500D01*
G01Y6760000D02*
X12903000D01*
G01X12797500D02*
X12877200Y6839700D01*
G01X12797500Y6760000D02*
X12877200Y6680300D01*
G01X13652100Y3441100D02*
X13730000Y3519000D01*
G01X13627000D02*
X13730000D01*
G01X13652100Y3596900D02*
X13730000Y3519000D01*
G01Y3416000D02*
Y3519000D01*
G01D02*
X13807900Y3441100D01*
G01X13730000Y3519000D02*
Y3622000D01*
G01Y3519000D02*
X13807900Y3596900D01*
M02*
