G04 ================== begin FILE IDENTIFICATION RECORD ==================*
G04 Layout Name:  pc065b_toplevel_05.brd*
G04 Film Name:    art_pc065a_SMD1.ger*
G04 File Format:  Gerber RS274X*
G04 File Origin:  Cadence Allegro 17.2-S063*
G04 Origin Date:  Thu May 21 15:30:50 2020*
G04 *
G04 Layer:  PIN/PASTEMASK_TOP*
G04 Layer:  PACKAGE GEOMETRY/PASTEMASK_TOP*
G04 *
G04 Offset:    (0.0000 0.0000)*
G04 Mirror:    No*
G04 Mode:      Positive*
G04 Rotation:  0*
G04 FullContactRelief:  No*
G04 UndefLineWidth:     0.2000*
G04 ================== end FILE IDENTIFICATION RECORD ====================*
%FSLAX25Y25*MOIN*%
%IR0*IPPOS*OFA0.00000B0.00000*MIA0B0*SFA1.00000B1.00000*%
%ADD23R,.019685X.07874*%
%ADD12R,.03937X.019685*%
%ADD11R,.03937X.031496*%
%ADD17R,.023622X.062992*%
%ADD24R,.017717X.057087*%
%ADD28R,.057087X.017717*%
%ADD13R,.023622X.023622*%
%ADD29C,.035039*%
%ADD15R,.047244X.055118*%
%ADD10R,.055118X.047244*%
%ADD18R,.066929X.047244*%
%ADD19R,.011811X.019685*%
%ADD16R,.047244X.057087*%
%ADD14R,.057087X.047244*%
%ADD31R,.088583X.06378*%
%ADD26R,.009843X.031496*%
%ADD27R,.031496X.009843*%
%ADD22R,.009843X.033465*%
%ADD20R,.033465X.009843*%
%ADD21R,.062992X.062992*%
%ADD25R,.127953X.127953*%
%ADD30R,.012X.026*%
%LPD*%
G75*
G54D10*
X-3150Y-34646D03*
Y-27559D03*
X18504Y67323D03*
Y60236D03*
X74803Y67323D03*
Y60236D03*
X92126Y-7480D03*
Y-394D03*
X97638Y43307D03*
Y36220D03*
X130709Y67323D03*
Y60236D03*
X186614Y67323D03*
Y60236D03*
G54D20*
X25394Y69488D03*
Y71457D03*
Y73425D03*
Y75394D03*
X36811D03*
Y73425D03*
Y71457D03*
Y69488D03*
X81693D03*
Y71457D03*
Y73425D03*
Y75394D03*
X93110D03*
Y73425D03*
Y71457D03*
Y69488D03*
X137598D03*
Y71457D03*
Y73425D03*
Y75394D03*
X149016D03*
Y73425D03*
Y71457D03*
Y69488D03*
X193504D03*
Y71457D03*
Y73425D03*
Y75394D03*
X204921D03*
Y73425D03*
Y71457D03*
Y69488D03*
X308071Y45079D03*
Y43110D03*
Y41142D03*
X296654D03*
Y43110D03*
Y45079D03*
X308071Y47047D03*
X296654D03*
G54D11*
X4528Y-34055D03*
Y-25787D03*
X12008Y-34055D03*
Y-25787D03*
G54D30*
X522343Y40965D03*
X519783D03*
Y58248D03*
X522343D03*
X527461Y40965D03*
X524902D03*
Y58248D03*
X527461D03*
G54D21*
X31102Y72441D03*
X87402D03*
X143307D03*
X199213D03*
X302362Y44094D03*
G54D12*
X4528Y-29921D03*
X12008D03*
G54D22*
X34055Y66732D03*
X32087D03*
X30118D03*
X28150D03*
Y78150D03*
X30118D03*
X32087D03*
X34055D03*
X90354Y66732D03*
X88386D03*
X86417D03*
X84449D03*
Y78150D03*
X86417D03*
X88386D03*
X90354D03*
X140354Y66732D03*
Y78150D03*
X146260Y66732D03*
X144291D03*
X142323D03*
Y78150D03*
X144291D03*
X146260D03*
X198228Y66732D03*
X196260D03*
Y78150D03*
X198228D03*
X202165Y66732D03*
X200197D03*
Y78150D03*
X202165D03*
X305315Y38386D03*
X303346D03*
X301378D03*
X299409D03*
Y49803D03*
X301378D03*
X303346D03*
X305315D03*
G54D31*
X523622Y49606D03*
G54D13*
X3150Y-12795D03*
Y-16339D03*
X7480D03*
Y-12795D03*
X4528Y29134D03*
X984D03*
X17717Y-33661D03*
Y-37205D03*
Y-28543D03*
Y-25000D03*
X16732Y7874D03*
X13189D03*
X25000Y59055D03*
X14173Y52953D03*
Y49409D03*
X20079Y78937D03*
Y75394D03*
X36417Y-6693D03*
X39961D03*
X36417Y-2756D03*
X39961D03*
X44685Y-9055D03*
X37205Y59055D03*
X33661D03*
X28543D03*
X48228Y-9055D03*
X61220Y59055D03*
X57677D03*
X65551D03*
X57756Y88425D03*
X61299D03*
X65433Y88386D03*
X75000Y-15748D03*
X78543D03*
X79331Y9055D03*
X75787D03*
X84843Y59055D03*
X81299D03*
X69094D03*
X76378Y78937D03*
Y75394D03*
X68976Y88386D03*
X92520Y-12795D03*
Y-16339D03*
X100197Y18898D03*
X103740D03*
X93504Y59055D03*
X89961D03*
X109252Y-32677D03*
X112795D03*
X117126Y59055D03*
X113583D03*
X121457D03*
X113858Y88425D03*
X117402D03*
X121535Y88386D03*
X140748Y59055D03*
X137205D03*
X125000D03*
X132283Y78937D03*
Y75394D03*
X125079Y88386D03*
X149409Y59055D03*
X145866D03*
X172047Y-22638D03*
Y-19094D03*
X173031Y59055D03*
X169488D03*
X180906D03*
X177362D03*
X169961Y88425D03*
X173504D03*
X177638Y88386D03*
X196654Y59055D03*
X193110D03*
X188189Y78937D03*
Y75394D03*
X181181Y88386D03*
X218110Y-23031D03*
Y-19488D03*
X216929Y3740D03*
Y197D03*
X205315Y59055D03*
X201772D03*
X229921Y3740D03*
Y197D03*
X234252Y3740D03*
Y197D03*
X221260Y3740D03*
Y197D03*
X225591Y3740D03*
Y197D03*
X222835Y28150D03*
Y31693D03*
X235630Y39764D03*
X229331Y59055D03*
X225787D03*
X237205D03*
X233661D03*
X226063Y88425D03*
X229606D03*
X237283Y88386D03*
X233740D03*
X240157Y3740D03*
Y197D03*
X248031D03*
Y3740D03*
X254921Y18504D03*
Y14173D03*
Y26772D03*
X243701Y43110D03*
Y39567D03*
X239173Y39764D03*
X249409Y66142D03*
X245866D03*
X249409Y70472D03*
X245866D03*
X264764Y-14961D03*
X268307D03*
X258465Y18504D03*
Y14173D03*
Y26772D03*
X272244Y66142D03*
X268701D03*
X272244Y70472D03*
X268701D03*
X279528Y27756D03*
Y24213D03*
Y34055D03*
Y37598D03*
X299409Y33071D03*
X295866D03*
X304134Y59055D03*
X300591D03*
X312008D03*
X308465D03*
X300669Y88425D03*
X304213D03*
X311890Y88386D03*
X308346D03*
X315748Y46654D03*
Y41535D03*
Y37992D03*
Y50197D03*
X324803Y60827D03*
Y64370D03*
Y73819D03*
Y77362D03*
X334449Y46457D03*
X337992D03*
X347441D03*
X350984D03*
X360039Y59055D03*
X356496D03*
X367913D03*
X364370D03*
X356772Y88425D03*
X360315D03*
X367992Y88386D03*
X364449D03*
X380906Y46457D03*
X384449D03*
X380709Y60827D03*
Y64370D03*
Y73819D03*
Y77362D03*
X393898Y46457D03*
X397441D03*
X426969D03*
X416732Y59055D03*
X413189D03*
X424606D03*
X421063D03*
X412874Y88425D03*
X416417D03*
X424094Y88386D03*
X420551D03*
X430512Y46457D03*
X439961D03*
X443504D03*
X437402Y60827D03*
Y64370D03*
Y73819D03*
Y77362D03*
X473031Y46457D03*
X476575D03*
X486024D03*
X472638Y59055D03*
X469094D03*
X480512D03*
X476969D03*
X468976Y88425D03*
X472520D03*
X480197Y88386D03*
X476654D03*
X489567Y46457D03*
X489370Y60827D03*
Y64370D03*
Y73819D03*
Y77362D03*
X519291Y33661D03*
Y30118D03*
X521457Y103543D03*
X517913D03*
X521457Y116142D03*
X517913D03*
X521457Y130315D03*
X517913D03*
X531102Y33661D03*
Y30118D03*
X525197Y33661D03*
Y30118D03*
G54D14*
X-3150Y-13583D03*
Y-20276D03*
X105512Y36024D03*
Y42717D03*
G54D23*
X45827Y105118D03*
X42677D03*
X39528D03*
X37953Y137402D03*
X41102D03*
X44252D03*
X64724Y105118D03*
X61575D03*
X58425D03*
X55276D03*
X52126D03*
X48976D03*
X47402Y137402D03*
X50551D03*
X53701D03*
X56850D03*
X60000D03*
X63150D03*
X67874Y105118D03*
X66299Y137402D03*
X101929Y105118D03*
X98780D03*
X95630D03*
X94055Y137402D03*
X97205D03*
X100354D03*
X103504D03*
X120827Y105118D03*
X117677D03*
X114528D03*
X111378D03*
X108228D03*
X105079D03*
X106654Y137402D03*
X109803D03*
X112953D03*
X116102D03*
X119252D03*
X122402D03*
X123976Y105118D03*
X158031D03*
X154882D03*
X161181D03*
X151732D03*
X150157Y137402D03*
X153307D03*
X156457D03*
X159606D03*
X176929Y105118D03*
X173780D03*
X180079D03*
X170630D03*
X167480D03*
X164331D03*
X162756Y137402D03*
X165906D03*
X169055D03*
X172205D03*
X175354D03*
X178504D03*
X214134Y105118D03*
X210984D03*
X217283D03*
X207835D03*
X206260Y137402D03*
X209409D03*
X212559D03*
X215709D03*
X233031Y105118D03*
X229882D03*
X236181D03*
X226732D03*
X223583D03*
X220433D03*
X218858Y137402D03*
X222008D03*
X225157D03*
X228307D03*
X231457D03*
X234606D03*
X288740Y105118D03*
X295039D03*
X285591D03*
X291890D03*
X282441D03*
X280866Y137402D03*
X284016D03*
X287165D03*
X290315D03*
X293465D03*
X307638Y105118D03*
X304488D03*
X310787D03*
X301339D03*
X298189D03*
X296614Y137402D03*
X299764D03*
X302913D03*
X306063D03*
X309213D03*
X344843Y105118D03*
X351142D03*
X341693D03*
X347992D03*
X338543D03*
X336969Y137402D03*
X340118D03*
X343268D03*
X346417D03*
X349567D03*
X363740Y105118D03*
X360591D03*
X366890D03*
X357441D03*
X354291D03*
X352717Y137402D03*
X355866D03*
X359016D03*
X362165D03*
X365315D03*
X400945Y105118D03*
X407244D03*
X397795D03*
X404094D03*
X394646D03*
X393071Y137402D03*
X396220D03*
X399370D03*
X402520D03*
X405669D03*
X408819D03*
X419843Y105118D03*
X416693D03*
X422992D03*
X413543D03*
X410394D03*
X411969Y137402D03*
X415118D03*
X418268D03*
X421417D03*
X457047Y105118D03*
X466496D03*
X463346D03*
X453898D03*
X460197D03*
X450748D03*
X449173Y137402D03*
X452323D03*
X455472D03*
X458622D03*
X461772D03*
X464921D03*
X475945Y105118D03*
X472795D03*
X479094D03*
X469646D03*
X468071Y137402D03*
X471220D03*
X474370D03*
X477520D03*
G54D15*
X-3937Y15354D03*
X3150D03*
Y35433D03*
X-3937D03*
X62205Y-15748D03*
X69291D03*
X110630Y-38583D03*
X117717D03*
X107874Y6299D03*
X114961D03*
X307480Y31496D03*
X314567D03*
X520866Y69685D03*
Y77559D03*
X520079Y97835D03*
X512992D03*
X520079Y124409D03*
X512992D03*
X520079Y110236D03*
X512992D03*
X527953Y69685D03*
Y77559D03*
G54D24*
X64665Y64961D03*
X62106D03*
X59547D03*
Y82283D03*
X62106D03*
X64665D03*
X67224Y64961D03*
Y82283D03*
X120768Y64961D03*
X118209D03*
X115650D03*
Y82283D03*
X118209D03*
X120768D03*
X123327Y64961D03*
Y82283D03*
X179429Y64961D03*
X176870D03*
X174311D03*
X171752D03*
Y82283D03*
X174311D03*
X176870D03*
X179429D03*
X235531Y64961D03*
X232972D03*
X230413D03*
X227854D03*
Y82283D03*
X230413D03*
X232972D03*
X235531D03*
X310138Y64961D03*
X307579D03*
X305020D03*
X302461D03*
Y82283D03*
X305020D03*
X307579D03*
X310138D03*
X340846Y61024D03*
X338287D03*
X335728D03*
X333169D03*
Y78346D03*
X335728D03*
X338287D03*
X340846D03*
X366240Y64961D03*
X363681D03*
X361122D03*
X358563D03*
Y82283D03*
X361122D03*
X363681D03*
X366240D03*
X389075Y61024D03*
Y78346D03*
X396752Y61024D03*
X394193D03*
X391634D03*
Y78346D03*
X394193D03*
X396752D03*
X422343Y64961D03*
X419783D03*
X417224D03*
X414665D03*
Y82283D03*
X417224D03*
X419783D03*
X422343D03*
X445768Y61024D03*
Y78346D03*
X453445Y61024D03*
X450886D03*
X448327D03*
Y78346D03*
X450886D03*
X453445D03*
X478445Y64961D03*
X475886D03*
X473327D03*
X470768D03*
Y82283D03*
X473327D03*
X475886D03*
X478445D03*
X502854Y61024D03*
X500295D03*
X497736D03*
Y78346D03*
X500295D03*
X502854D03*
X505413Y61024D03*
Y78346D03*
G54D25*
X237795Y21654D03*
G54D16*
X3740Y23228D03*
X-2953D03*
G54D26*
X236811Y12008D03*
X234843D03*
X232874D03*
X230906D03*
Y31299D03*
X232874D03*
X234843D03*
X236811D03*
X244685Y12008D03*
X242717D03*
X240748D03*
X238780D03*
Y31299D03*
X240748D03*
X242717D03*
X244685D03*
G54D17*
X8681Y51378D03*
X3681D03*
X-1319D03*
X-6319D03*
Y72244D03*
X-1319D03*
X3681D03*
X8681D03*
G54D27*
X228150Y14764D03*
Y16732D03*
Y18701D03*
Y20669D03*
Y22638D03*
Y24606D03*
Y26575D03*
Y28543D03*
X247441Y26575D03*
Y24606D03*
Y22638D03*
Y20669D03*
Y18701D03*
Y16732D03*
Y14764D03*
Y28543D03*
G54D18*
X13780Y24803D03*
G54D19*
X17520Y19291D03*
X13780D03*
X10039D03*
Y30315D03*
X13780D03*
X17520D03*
G54D28*
X249213Y-31398D03*
Y-28839D03*
Y-26280D03*
Y-23720D03*
X266535Y-31398D03*
Y-23720D03*
Y-26280D03*
Y-28839D03*
X334646Y30413D03*
Y32972D03*
Y35531D03*
Y38091D03*
X351969D03*
Y35531D03*
Y32972D03*
Y30413D03*
X381102D03*
Y32972D03*
Y35531D03*
Y38091D03*
X398425D03*
Y35531D03*
Y32972D03*
Y30413D03*
X427165D03*
Y32972D03*
Y35531D03*
Y38091D03*
X444488D03*
Y35531D03*
Y32972D03*
Y30413D03*
X473228D03*
Y32972D03*
Y35531D03*
Y38091D03*
X490551D03*
Y35531D03*
Y32972D03*
Y30413D03*
G54D29*
X312067Y-30374D03*
X307067D03*
X302067D03*
X312067Y-10374D03*
X307067D03*
X302067D03*
X312067Y-15374D03*
X307067D03*
X302067D03*
X312067Y-20374D03*
X307067D03*
X302067D03*
X312067Y-25374D03*
X307067D03*
X302067D03*
X312067Y4626D03*
X307067D03*
X302067D03*
X312067Y-374D03*
X307067D03*
X302067D03*
X312067Y-5374D03*
X307067D03*
X302067D03*
X312067Y14626D03*
X307067D03*
X302067D03*
X312067Y9626D03*
X307067D03*
X302067D03*
X332067Y-30374D03*
X327067D03*
X322067D03*
X317067D03*
X332067Y-10374D03*
X327067D03*
X322067D03*
X317067D03*
X332067Y-15374D03*
X327067D03*
X322067D03*
X317067D03*
X332067Y-20374D03*
X327067D03*
X322067D03*
X317067D03*
X332067Y-25374D03*
X327067D03*
X322067D03*
X317067D03*
X332067Y4626D03*
X327067D03*
X322067D03*
X317067D03*
X332067Y-374D03*
X327067D03*
X322067D03*
X317067D03*
X332067Y-5374D03*
X327067D03*
X322067D03*
X317067D03*
X332067Y14626D03*
X327067D03*
X322067D03*
X317067D03*
X332067Y9626D03*
X327067D03*
X322067D03*
X317067D03*
X352067Y-30374D03*
X347067D03*
X342067D03*
X337067D03*
X352067Y-10374D03*
X347067D03*
X342067D03*
X337067D03*
X352067Y-15374D03*
X347067D03*
X342067D03*
X337067D03*
X352067Y-20374D03*
X347067D03*
X342067D03*
X337067D03*
X352067Y-25374D03*
X347067D03*
X342067D03*
X337067D03*
X352067Y4626D03*
X347067D03*
X342067D03*
X337067D03*
X352067Y-374D03*
X347067D03*
X342067D03*
X337067D03*
X352067Y-5374D03*
X347067D03*
X342067D03*
X337067D03*
X352067Y14626D03*
X347067D03*
X342067D03*
X337067D03*
X352067Y9626D03*
X347067D03*
X342067D03*
X337067D03*
X372067Y-30374D03*
X367067D03*
X362067D03*
X357067D03*
X372067Y-10374D03*
X367067D03*
X362067D03*
X357067D03*
X372067Y-15374D03*
X367067D03*
X362067D03*
X357067D03*
X372067Y-20374D03*
X367067D03*
X362067D03*
X357067D03*
X372067Y-25374D03*
X367067D03*
X362067D03*
X357067D03*
X372067Y4626D03*
X367067D03*
X362067D03*
X357067D03*
X372067Y-374D03*
X367067D03*
X362067D03*
X357067D03*
X372067Y-5374D03*
X367067D03*
X362067D03*
X357067D03*
X372067Y14626D03*
X367067D03*
X362067D03*
X357067D03*
X372067Y9626D03*
X367067D03*
X362067D03*
X357067D03*
X387067Y-30374D03*
X382067D03*
X377067D03*
X387067Y-10374D03*
X382067D03*
X377067D03*
X387067Y-15374D03*
X382067D03*
X377067D03*
X387067Y-20374D03*
X382067D03*
X377067D03*
X387067Y-25374D03*
X382067D03*
X377067D03*
X387067Y4626D03*
X382067D03*
X377067D03*
X387067Y-374D03*
X382067D03*
X377067D03*
X387067Y-5374D03*
X382067D03*
X377067D03*
X387067Y14626D03*
X382067D03*
X377067D03*
X387067Y9626D03*
X382067D03*
X377067D03*
X407067Y-30374D03*
X402067D03*
X397067D03*
X392067D03*
X407067Y-10374D03*
X402067D03*
X397067D03*
X392067D03*
X407067Y-15374D03*
X402067D03*
X397067D03*
X392067D03*
X407067Y-20374D03*
X402067D03*
X397067D03*
X392067D03*
X407067Y-25374D03*
X402067D03*
X397067D03*
X392067D03*
X407067Y4626D03*
X402067D03*
X397067D03*
X392067D03*
X407067Y-374D03*
X402067D03*
X397067D03*
X392067D03*
X407067Y-5374D03*
X402067D03*
X397067D03*
X392067D03*
X407067Y14626D03*
X402067D03*
X397067D03*
X392067D03*
X407067Y9626D03*
X402067D03*
X397067D03*
X392067D03*
X427067Y-30374D03*
X422067D03*
X417067D03*
X412067D03*
X427067Y-10374D03*
X422067D03*
X417067D03*
X412067D03*
X427067Y-15374D03*
X422067D03*
X417067D03*
X412067D03*
X427067Y-20374D03*
X422067D03*
X417067D03*
X412067D03*
X427067Y-25374D03*
X422067D03*
X417067D03*
X412067D03*
X427067Y4626D03*
X422067D03*
X417067D03*
X412067D03*
X427067Y-374D03*
X422067D03*
X417067D03*
X412067D03*
X427067Y-5374D03*
X422067D03*
X417067D03*
X412067D03*
X427067Y14626D03*
X422067D03*
X417067D03*
X412067D03*
X427067Y9626D03*
X422067D03*
X417067D03*
X412067D03*
X447067Y-30374D03*
X442067D03*
X437067D03*
X432067D03*
X447067Y-10374D03*
X442067D03*
X437067D03*
X432067D03*
X447067Y-15374D03*
X442067D03*
X437067D03*
X432067D03*
X447067Y-20374D03*
X442067D03*
X437067D03*
X432067D03*
X447067Y-25374D03*
X442067D03*
X437067D03*
X432067D03*
X447067Y4626D03*
X442067D03*
X437067D03*
X432067D03*
X447067Y-374D03*
X442067D03*
X437067D03*
X432067D03*
X447067Y-5374D03*
X442067D03*
X437067D03*
X432067D03*
X447067Y14626D03*
X442067D03*
X437067D03*
X432067D03*
X447067Y9626D03*
X442067D03*
X437067D03*
X432067D03*
X467067Y-30374D03*
X462067D03*
X457067D03*
X452067D03*
X467067Y-10374D03*
X462067D03*
X457067D03*
X452067D03*
X467067Y-15374D03*
X462067D03*
X457067D03*
X452067D03*
X467067Y-20374D03*
X462067D03*
X457067D03*
X452067D03*
X467067Y-25374D03*
X462067D03*
X457067D03*
X452067D03*
X467067Y4626D03*
X462067D03*
X457067D03*
X452067D03*
X467067Y-374D03*
X462067D03*
X457067D03*
X452067D03*
X467067Y-5374D03*
X462067D03*
X457067D03*
X452067D03*
X467067Y14626D03*
X462067D03*
X457067D03*
X452067D03*
X467067Y9626D03*
X462067D03*
X457067D03*
X452067D03*
X482067Y-30374D03*
X477067D03*
X472067D03*
X482067Y-10374D03*
X477067D03*
X472067D03*
X482067Y-15374D03*
X477067D03*
X472067D03*
X482067Y-20374D03*
X477067D03*
X472067D03*
X482067Y-25374D03*
X477067D03*
X472067D03*
X482067Y4626D03*
X477067D03*
X472067D03*
X482067Y-374D03*
X477067D03*
X472067D03*
X482067Y-5374D03*
X477067D03*
X472067D03*
X482067Y14626D03*
X477067D03*
X472067D03*
X482067Y9626D03*
X477067D03*
X472067D03*
X497067Y-30374D03*
X492067D03*
X487067D03*
X497067Y-10374D03*
X492067D03*
X487067D03*
X497067Y-15374D03*
X492067D03*
X487067D03*
X497067Y-20374D03*
X492067D03*
X487067D03*
X497067Y-25374D03*
X492067D03*
X487067D03*
X497067Y4626D03*
X492067D03*
X487067D03*
X497067Y-374D03*
X492067D03*
X487067D03*
X497067Y-5374D03*
X492067D03*
X487067D03*
X497067Y14626D03*
X492067D03*
X487067D03*
X497067Y9626D03*
X492067D03*
X487067D03*
M02*
