G04 ================== begin FILE IDENTIFICATION RECORD ==================*
G04 Layout Name:  pc065b_toplevel_05.brd*
G04 Film Name:    art_pc065a_L03P.ger*
G04 File Format:  Gerber RS274X*
G04 File Origin:  Cadence Allegro 17.2-S063*
G04 Origin Date:  Thu May 21 15:30:50 2020*
G04 *
G04 Layer:  ETCH/L3_SIG*
G04 Layer:  PIN/L3_SIG*
G04 Layer:  VIA CLASS/L3_SIG*
G04 *
G04 Offset:    (0.0000 0.0000)*
G04 Mirror:    No*
G04 Mode:      Positive*
G04 Rotation:  0*
G04 FullContactRelief:  No*
G04 UndefLineWidth:     0.2000*
G04 ================== end FILE IDENTIFICATION RECORD ====================*
%FSLAX25Y25*MOIN*%
%IR0*IPPOS*OFA0.00000B0.00000*MIA0B0*SFA1.00000B1.00000*%
%ADD12C,.022047*%
%ADD10C,.025591*%
%ADD17C,.03937*%
%ADD13C,.066929*%
%ADD18C,.039402*%
%ADD11C,.141732*%
%ADD15C,.064961*%
%ADD16C,.068898*%
%ADD14C,.055*%
%ADD19C,.007874*%
%ADD20C,.005906*%
%ADD21C,.006693*%
G75*
%LPD*%
G75*
G54D10*
X-7893Y-34646D03*
X4528Y-38189D03*
X3150Y-19507D03*
X-7893Y-27559D03*
X-7991Y-20276D03*
X-2756Y9843D03*
X-7302Y23228D03*
X-8287Y15354D03*
X7087Y23228D03*
X-8287Y35433D03*
X-2362Y29134D03*
X9055Y35433D03*
X22441Y-37205D03*
X17717Y-21831D03*
Y-3150D03*
X18504Y787D03*
X14567Y2756D03*
Y12205D03*
X27782Y21083D03*
X21260Y20866D03*
Y28346D03*
X27782Y29376D03*
X17392Y44550D03*
X13780Y36220D03*
X17520D03*
X20323Y46243D03*
X17392Y52843D03*
X18504Y55512D03*
X20323Y51151D03*
X16535Y75984D03*
X20079Y72047D03*
X16839Y73319D03*
X12992Y67323D03*
X16535Y79921D03*
X37795Y-29528D03*
X41517Y-13386D03*
Y-17717D03*
X37402Y-18898D03*
X34731Y-21759D03*
Y-26667D03*
X41910Y1181D03*
X33858Y5906D03*
X37506Y5886D03*
X34252Y-9843D03*
X37402Y1969D03*
X33858Y9449D03*
X37514Y9114D03*
X30713Y27683D03*
Y22775D03*
X39370Y31102D03*
X44882Y36614D03*
X42520Y28771D03*
Y33465D03*
X30709Y72441D03*
X40752Y73498D03*
X42717Y71457D03*
X40945Y68110D03*
X40551Y78346D03*
X29234Y81918D03*
X32448Y81613D03*
X29902Y103346D03*
X43307Y120688D03*
X29902Y106890D03*
X36556Y105118D03*
X38976Y119361D03*
X37953Y131477D03*
X41102D03*
X33071Y142894D03*
X41732Y147422D03*
X46063Y157302D03*
X41732D03*
X46063Y147422D03*
X57677Y-39961D03*
X64961Y-38189D03*
X58707Y-29528D03*
X62598Y-29921D03*
X51969Y-10236D03*
X51181Y-29134D03*
X65157Y2953D03*
X56299Y2756D03*
X52756Y-6531D03*
Y-1623D03*
X57480Y15354D03*
X53150D03*
X62205Y30531D03*
X55512Y28721D03*
Y32677D03*
X60236Y49213D03*
X54331D03*
X59742Y52985D03*
X54834D03*
X53524Y82283D03*
X58425Y99194D03*
X48031Y98819D03*
X53406Y88425D03*
X55118Y120688D03*
X59449Y119754D03*
X49606Y111024D03*
X55118D03*
X49213Y126791D03*
X66299Y131477D03*
X60000Y128898D03*
X50394Y147422D03*
X63386Y157302D03*
X58661Y157094D03*
X55512D03*
X50000D03*
X54724Y147422D03*
X59055D03*
X63386D03*
X79528Y-11024D03*
X72441D03*
X83484Y-18206D03*
X82677Y-25984D03*
X72638Y-27165D03*
X72441Y3150D03*
X79528D03*
X72441Y-3937D03*
X79528D03*
X66929Y9055D03*
X82677Y17717D03*
X74606Y18110D03*
X66732Y18701D03*
X74803Y22047D03*
X70866Y30531D03*
X80709D03*
X83643Y33071D03*
X84252Y45669D03*
X70472Y46457D03*
X66535Y30531D03*
X74495Y46731D03*
X84864Y49820D03*
X70472Y51969D03*
X74803Y55512D03*
X74495Y51639D03*
X73247Y82283D03*
X72835Y72835D03*
X72638Y75394D03*
X68504Y71260D03*
X78346Y82677D03*
X73326Y88386D03*
X79921Y89370D03*
X67874Y111043D03*
X102362Y-31102D03*
X98819Y-29606D03*
X86614Y-11024D03*
X101575Y-23622D03*
X88386Y-18307D03*
X86094Y-16280D03*
X98819Y-26378D03*
X103150Y-15354D03*
X86614Y3150D03*
Y-3937D03*
X100787Y5118D03*
X102756Y-787D03*
X103740Y22441D03*
X88386Y17717D03*
X102756Y13780D03*
X97638Y32079D03*
X86220Y29134D03*
X90354D03*
X87795Y43220D03*
X102362Y51181D03*
X97638Y50787D03*
X97244Y62598D03*
X87795Y48128D03*
X87402Y72441D03*
X97807Y71429D03*
X96654Y73425D03*
X100394Y75984D03*
X85748Y82079D03*
X88976Y82283D03*
X103937Y98425D03*
X99409Y120688D03*
X89173Y112205D03*
X92658Y105118D03*
X95079Y119361D03*
X94055Y131477D03*
X97205D03*
X89173Y142894D03*
X97835Y157302D03*
X102165D03*
X97835Y147422D03*
X102165D03*
X115964Y-32677D03*
X122047Y-19291D03*
X115964Y-24803D03*
X122835Y-12992D03*
X105512Y-24803D03*
X113386Y-18898D03*
X119688Y-13969D03*
X119591Y-17196D03*
X120079Y-25984D03*
X122047Y-3543D03*
X121654Y-9843D03*
X123622Y4724D03*
X107874Y-2756D03*
Y-9055D03*
X117990Y-4724D03*
X118113Y-7950D03*
X112205Y-787D03*
X119507Y12598D03*
X107874Y11811D03*
X111417Y42913D03*
X116142D03*
Y29134D03*
X105512D03*
X111417D03*
X108172Y50756D03*
X115474Y53150D03*
X110566D03*
X109627Y82283D03*
X114528Y99194D03*
X109509Y88425D03*
X111220Y120688D03*
X115551Y119754D03*
X105315Y111220D03*
X111220D03*
X105315Y126791D03*
X122402Y131477D03*
X116102Y127598D03*
X106299Y157094D03*
X111417D03*
X114961D03*
X120079D03*
X106496Y147422D03*
X110827D03*
X115157D03*
X119488D03*
X131493Y-36428D03*
X135037Y-38580D03*
X131102Y4724D03*
Y-1575D03*
X128150Y2954D03*
X128147Y-274D03*
X133858Y-7874D03*
X141732Y-3937D03*
X127559Y25984D03*
X141339Y27559D03*
X123862Y26141D03*
X131102Y16929D03*
X127559Y31102D03*
X141339Y32283D03*
X129134Y45669D03*
X123862Y30709D03*
X132513Y46567D03*
X129134Y51969D03*
X130734Y55614D03*
X132513Y51474D03*
X129350Y82283D03*
X128543Y75394D03*
X134252Y72047D03*
X130709Y71654D03*
X132283Y84252D03*
X141659Y82083D03*
X129428Y88386D03*
X142107Y103346D03*
X123976Y111043D03*
X142107Y106890D03*
X157874Y-33858D03*
X145276Y-35039D03*
X143307Y-14173D03*
X150787Y-15354D03*
X161470Y-8215D03*
X152362Y1969D03*
X149213Y7874D03*
Y4646D03*
X151969Y10236D03*
X147638Y24803D03*
X154724Y20768D03*
X161811Y23327D03*
X151870Y24803D03*
X145202Y27789D03*
Y32356D03*
X151969Y62598D03*
X143307Y72441D03*
X153449Y69591D03*
X152165Y73425D03*
X154724Y82677D03*
X158268Y70866D03*
X159449Y77165D03*
X156299Y74705D03*
X144887Y82078D03*
X160236Y98622D03*
X158661Y88189D03*
X155512Y120688D03*
X148761Y105118D03*
X151181Y119361D03*
X161417Y111024D03*
Y126791D03*
X150157Y131477D03*
X153307D03*
X145276Y142894D03*
X153937Y157302D03*
X158268D03*
X153937Y147422D03*
X158268D03*
X172835Y-34252D03*
X165551Y-33465D03*
X164567Y-20866D03*
X168898Y-19094D03*
X177165Y-15354D03*
X177559Y-21850D03*
X176378Y6693D03*
Y1181D03*
X179921Y5197D03*
Y1969D03*
X168287Y-6693D03*
X171654Y-7087D03*
X180709Y18504D03*
X178346Y16142D03*
Y11234D03*
X162303Y18209D03*
X172771Y52108D03*
X166904D03*
X171626Y55126D03*
X168397Y55118D03*
X180315Y72441D03*
X166929Y82283D03*
X170630Y99194D03*
X165611Y88425D03*
X162205Y88976D03*
X167323Y120688D03*
X180079Y111043D03*
X171654Y119754D03*
X167323Y111024D03*
X178504Y131477D03*
X172205Y128583D03*
X162205Y157094D03*
X167717D03*
X171260Y157302D03*
X176378Y157094D03*
X162598Y147422D03*
X166929D03*
X171260D03*
X175591D03*
X192520Y-34646D03*
X198031Y-31496D03*
X186131Y-21667D03*
X193307Y-27165D03*
X199213Y-21850D03*
X190551Y-21654D03*
X193701Y-15354D03*
X181102Y-14961D03*
X184646Y-15354D03*
X190104Y-15347D03*
X197165Y-8268D03*
X197539Y25886D03*
X181382Y10135D03*
X197539Y18209D03*
X185956Y29761D03*
X183858Y37191D03*
Y32283D03*
X186614Y55512D03*
X182262Y64173D03*
X198031Y53150D03*
X183858Y82283D03*
X198819Y72441D03*
X185039D03*
X189764Y81890D03*
X197283Y81850D03*
X185531Y88386D03*
X198209Y103346D03*
Y106890D03*
X211614Y-36811D03*
X213145Y-33969D03*
X203937Y-33071D03*
X211024Y-20866D03*
X214961Y-19488D03*
X210039Y-8268D03*
X216929Y-2972D03*
X208661Y-3150D03*
X212992D03*
X205118Y-8268D03*
X200394D03*
X218110Y-7874D03*
X206178Y8359D03*
Y3451D03*
X218863Y23481D03*
X209635Y16213D03*
Y12205D03*
X205512Y42520D03*
X206299Y64173D03*
X205906Y52756D03*
X215748Y81102D03*
X209449Y70866D03*
X204921Y81693D03*
X218504Y70472D03*
X200512Y81890D03*
X216337Y94847D03*
X210630Y88976D03*
X216142Y86654D03*
X217090Y99328D03*
X218898Y89075D03*
X212594Y94090D03*
X213238Y90926D03*
X211614Y120688D03*
X204863Y105118D03*
X207283Y119361D03*
X217520Y111292D03*
Y126791D03*
X205906Y129528D03*
X209409Y131477D03*
X202362Y133858D03*
X201378Y142894D03*
X214370Y157302D03*
X210039D03*
X218701D03*
X210039Y147422D03*
X218701D03*
X214370D03*
X210197Y143307D03*
X228740Y-31102D03*
X221654Y-31890D03*
X237224Y-25984D03*
X238189Y-13386D03*
X228740Y-16142D03*
X235433Y-17323D03*
X222441Y-21654D03*
X234252Y-2972D03*
X220079Y-3150D03*
X225433Y-3522D03*
X225984Y8268D03*
X229921Y-2972D03*
X223622Y-6693D03*
X237795Y21654D03*
X222441Y17717D03*
X222089Y23624D03*
X219291Y18504D03*
X230315Y40157D03*
X219291Y31693D03*
X224803Y40157D03*
X219685D03*
X235039Y53543D03*
X231102D03*
X219606Y61024D03*
X222835D03*
X223622Y81890D03*
X219685Y82283D03*
X226732Y99194D03*
X222835Y88425D03*
X219685Y85512D03*
X223425Y120688D03*
X236181Y111043D03*
X227756Y119754D03*
X223425Y111220D03*
X234606Y131477D03*
X228307Y129173D03*
X223622Y157094D03*
X227362Y157302D03*
X231850Y157094D03*
X223031Y147422D03*
X227362D03*
X231693D03*
X243307Y-29528D03*
X238976Y-34252D03*
X249213Y-36220D03*
X255512Y-36436D03*
X243012Y-26280D03*
X255512Y-18682D03*
X243848Y-17717D03*
X253929Y6693D03*
X238780Y8268D03*
X239764Y-3543D03*
X247638Y-6693D03*
X251181Y-7087D03*
X255118Y9843D03*
X247463Y43151D03*
X254331Y32283D03*
X250787Y41339D03*
X249598Y32283D03*
X254724Y45787D03*
Y42559D03*
X246850Y62598D03*
X250164Y48386D03*
X254724Y62598D03*
X238976Y81890D03*
X242126Y71654D03*
X246063Y77165D03*
X249300Y76161D03*
X252756Y77500D03*
X241633Y88386D03*
X253150Y89370D03*
X254724Y132283D03*
X255118Y138583D03*
X255125Y149515D03*
X255906Y178482D03*
X255512Y218819D03*
X256693Y233071D03*
X257087Y228740D03*
X275984Y-36614D03*
X266535D03*
X260236Y-36436D03*
X266535Y-18504D03*
X271476Y-14961D03*
X261595D03*
X260236Y-18682D03*
X273228Y-28839D03*
X276378Y-27559D03*
X258268Y7480D03*
X261024Y5512D03*
X264533Y7052D03*
X262205Y14173D03*
Y18504D03*
Y26378D03*
X264533Y10281D03*
X264567Y45669D03*
X261417Y46850D03*
X264567Y51299D03*
X261811Y64567D03*
X261427Y50079D03*
X267323Y57087D03*
X259843Y83465D03*
X262992D03*
X266535Y76378D03*
X272441Y75197D03*
X276378Y72618D03*
X271260Y83465D03*
X272816Y103346D03*
X268307Y88976D03*
X272816Y106890D03*
X261811Y125984D03*
X261597Y136402D03*
X261811Y130315D03*
X275984Y142894D03*
X261614Y149409D03*
X259055Y161417D03*
X280315Y-35039D03*
X295276Y-17717D03*
X285827Y5906D03*
X285842Y-3634D03*
X287427Y-821D03*
X287402Y2756D03*
X283268Y27756D03*
X282283Y18110D03*
Y12598D03*
X287008Y24016D03*
X280709Y44882D03*
X293307Y37008D03*
X283261Y33831D03*
X284843Y36811D03*
X277953Y46850D03*
X292913Y42835D03*
Y46063D03*
X280709Y51969D03*
X277953Y62992D03*
Y50079D03*
X283694Y83170D03*
X291339Y73622D03*
Y78740D03*
X283694Y77304D03*
X294882Y78337D03*
X280622Y78296D03*
X294882Y73430D03*
X280709Y81523D03*
X291890Y99764D03*
X286220Y120688D03*
X279469Y105118D03*
X281890Y119361D03*
X292126Y111292D03*
Y126791D03*
X280866Y131477D03*
X284016D03*
X284646Y157302D03*
X288976D03*
X293307D03*
Y147422D03*
X288976D03*
X284646D03*
X312174Y-39370D03*
X307480D03*
X298819Y-18110D03*
X314409Y-17717D03*
X304764Y2323D03*
X309843Y7087D03*
X303543Y26378D03*
X300394D03*
X312992Y26772D03*
X296457Y27953D03*
X307480Y26772D03*
X302362Y44094D03*
X302756Y53543D03*
X311728Y53583D03*
X298425Y55512D03*
X307480D03*
X296438Y82283D03*
X301339Y99194D03*
X296320Y88425D03*
X298031Y120688D03*
X310787Y111043D03*
X302362Y119754D03*
X298031Y111024D03*
X309213Y131477D03*
X301850Y130197D03*
X297638Y157302D03*
X301969D03*
X306299D03*
X297638Y147422D03*
X301969D03*
X306299D03*
X319508Y-17933D03*
X324803Y-17638D03*
X324605Y-23476D03*
X319567Y-2874D03*
X324376Y2452D03*
X324726Y6763D03*
X323228Y19291D03*
X322835Y27559D03*
X320045Y21079D03*
X320222Y17855D03*
X328896Y27559D03*
X321260Y35039D03*
X319685Y38189D03*
Y41417D03*
X330315Y39764D03*
X329921Y35691D03*
X325886Y43406D03*
X329834Y43409D03*
X319695Y31969D03*
X319685Y28740D03*
X322020Y64370D03*
X314961Y53543D03*
X327953Y61024D03*
X316161Y82283D03*
X322020Y78346D03*
X326674Y85000D03*
X315748Y72441D03*
X328131D03*
X328346Y78346D03*
X328339Y67717D03*
X326772Y90551D03*
X316239Y88386D03*
X322581Y89137D03*
X322658Y85909D03*
X332087Y111417D03*
Y142894D03*
X344488Y-23228D03*
X349606Y-12598D03*
X339589Y-23397D03*
X334646Y-23228D03*
X339647Y-17421D03*
X349606Y-22835D03*
X339370Y-3150D03*
X349918Y1775D03*
X344606Y2087D03*
X344488Y-2756D03*
X334252Y26378D03*
X342067Y18051D03*
X346063Y25760D03*
X340157Y25375D03*
X334308Y11867D03*
X344845Y19696D03*
X341252Y46457D03*
X346063Y43129D03*
X351969Y42913D03*
X344480Y46457D03*
X334646Y43307D03*
X340157Y43129D03*
X346457Y61024D03*
X334646Y55906D03*
X340142Y55890D03*
X351969Y74894D03*
X352540Y82283D03*
X345885Y72441D03*
X346063Y67717D03*
X335728Y83188D03*
X340846D03*
X347992Y99764D03*
X352422Y88425D03*
X335433Y101181D03*
X338287Y85827D03*
X343701Y90157D03*
X342323Y120688D03*
X335572Y105118D03*
X337992Y119361D03*
X348228Y111220D03*
Y126791D03*
X336969Y131477D03*
X340118D03*
X352362Y131102D03*
X340748Y157302D03*
X349409D03*
X345079D03*
X349409Y147422D03*
X345079D03*
X340748D03*
X364547Y-22854D03*
X359488Y-22795D03*
X354331Y-22835D03*
X369350Y1909D03*
X354724Y7041D03*
X364783Y6909D03*
X359783Y1909D03*
X364331Y2362D03*
X359843Y-2756D03*
X372047Y14567D03*
X369685Y16929D03*
X369567Y12500D03*
X354153Y46457D03*
X371786Y46079D03*
X371654Y40157D03*
X362205Y41732D03*
X356299D03*
X356810Y35531D03*
X359055Y32972D03*
X360630Y44882D03*
X368504Y45236D03*
X357402Y44882D03*
X368504Y42008D03*
X356810Y30413D03*
X369000Y53441D03*
X369063Y50213D03*
X362795Y77520D03*
X355118Y77743D03*
X355398Y72956D03*
X357441Y99194D03*
X354134Y120688D03*
X366890Y111043D03*
X358465Y119754D03*
X354134Y111220D03*
X365315Y131477D03*
X355906Y131102D03*
X359105Y129486D03*
X353740Y157302D03*
X358071D03*
X362402D03*
X353740Y147422D03*
X358071D03*
X362402D03*
X384783Y-23091D03*
X379528Y-22835D03*
X379449Y-12992D03*
X374823Y-12618D03*
X389370Y-18071D03*
X379887Y2326D03*
X374803Y1969D03*
X389764Y-2756D03*
X381102Y24803D03*
X387008Y25375D03*
X387617Y46457D03*
X390937D03*
X381102Y43307D03*
X387008Y43129D03*
X375984Y35118D03*
Y31890D03*
X373064Y54724D03*
Y48858D03*
X383858Y61024D03*
X389764Y54724D03*
X372263Y82283D03*
X377559Y77953D03*
X380709Y67539D03*
X380294Y84685D03*
X375591Y72047D03*
X384036Y72441D03*
X384252Y78346D03*
X384244Y67717D03*
X380315Y90551D03*
X372342Y88386D03*
X385020Y103346D03*
X383465Y89055D03*
Y85827D03*
X385020Y106890D03*
X388189Y142894D03*
X399331Y-18110D03*
X404724Y-17717D03*
X409449Y-27953D03*
X404331D03*
X394331Y-18110D03*
X409331D03*
X399181Y7087D03*
X409374Y7012D03*
X394488Y7087D03*
X404681Y7012D03*
X392520Y25375D03*
X402756Y19291D03*
X400609Y46457D03*
X392520Y43129D03*
X398425Y42913D03*
X403267Y35531D03*
X406693Y32972D03*
X403267Y30413D03*
X398819Y55512D03*
X405512Y61811D03*
X394094Y54724D03*
X404331Y53937D03*
X408643Y82283D03*
X401791Y72441D03*
X401969Y67717D03*
X405906Y66535D03*
X407874Y76772D03*
X407943Y72765D03*
X391634Y83188D03*
X394026Y85357D03*
X396752Y83188D03*
X404094Y99764D03*
X408524Y88425D03*
X400394Y89764D03*
X404724Y87402D03*
X410236Y120688D03*
X398425D03*
X391674Y105118D03*
X394094Y119361D03*
X404331Y111024D03*
X410236Y110630D03*
X404331Y126791D03*
X393071Y131477D03*
X396220D03*
X396850Y157302D03*
X401181D03*
X405512D03*
X409843D03*
X405512Y147422D03*
X401181D03*
X409843D03*
X396850D03*
X424665Y-17442D03*
X419685Y-22441D03*
X424564Y-12326D03*
X414449Y-17992D03*
X424803Y-27953D03*
X414567Y7126D03*
X427165Y23228D03*
X414567Y17323D03*
X426969Y43504D03*
X421654Y36220D03*
X421709Y31890D03*
X428346Y57270D03*
X427904Y51809D03*
X428365Y82283D03*
X413543Y99194D03*
X428444Y88386D03*
X422992Y111043D03*
X414567Y119754D03*
X418268Y113150D03*
X421417Y131477D03*
X413386Y130079D03*
X414173Y157302D03*
X418504D03*
X414173Y147422D03*
X418504D03*
X429587Y-27894D03*
X441378Y-11063D03*
X444803Y-17638D03*
X439744Y-17697D03*
X439764Y-22835D03*
X434328Y-23153D03*
X444826Y-27615D03*
X429921Y-22835D03*
X438976Y25375D03*
X433071D03*
X446672Y46457D03*
X433680D03*
X438976Y43129D03*
X444488Y42913D03*
X433071Y43129D03*
X429921Y54331D03*
X436614Y48425D03*
X440551Y61024D03*
X444488Y54724D03*
X437402Y80531D03*
Y67539D03*
X436818Y84646D03*
X433071Y76772D03*
X440551Y75197D03*
X440945Y78346D03*
X440729Y66535D03*
X429528Y76741D03*
Y72047D03*
X448327Y83188D03*
X436818Y90512D03*
X441123Y103346D03*
X441256Y89531D03*
Y86303D03*
X441123Y106890D03*
X447776Y105118D03*
X444291Y142894D03*
X449606Y-33071D03*
X454724Y-32677D03*
X464567Y-27953D03*
X454705Y-2736D03*
X466535Y36220D03*
Y32283D03*
X449330Y35531D03*
X452756Y32972D03*
X449330Y30413D03*
X459055Y61024D03*
X454724Y53150D03*
X449252Y54724D03*
X454724Y48456D03*
X464745Y82283D03*
X458483Y72441D03*
Y66535D03*
X453553Y83080D03*
X460197Y99764D03*
X464627Y88425D03*
X450886Y86220D03*
X466339Y120688D03*
X454528D03*
X450197Y119361D03*
X460433Y111220D03*
X466339D03*
X460433Y126791D03*
X449173Y131477D03*
X452323D03*
X452953Y157302D03*
X457283D03*
X461614D03*
X465945D03*
X461614Y147422D03*
X457283D03*
X465945D03*
X452953D03*
X474803Y-27776D03*
X484724Y-18031D03*
X479449Y-12992D03*
X469685D03*
X479921Y-7874D03*
X484646Y2362D03*
X479528Y-3150D03*
X473228Y24803D03*
X485039Y25375D03*
X479134D03*
X479743Y46457D03*
X483063D03*
X485039Y43129D03*
X473228Y43307D03*
X479134Y43129D03*
X475953Y53937D03*
X471260D03*
X484468Y82283D03*
X485827Y73819D03*
X469646Y99194D03*
X484546Y88386D03*
X479094Y111043D03*
X470669Y119754D03*
X477520Y131477D03*
X471220Y129567D03*
X470276Y157302D03*
X474606D03*
X470276Y147422D03*
X474606D03*
X489370Y-18071D03*
X494882Y-22835D03*
X499902Y-18209D03*
X489409Y-13031D03*
X487638Y9055D03*
X494488Y-3150D03*
X500394Y7874D03*
X492735Y46457D03*
X490551Y42913D03*
X495393Y35531D03*
X498819Y32972D03*
X495393Y30413D03*
X492520Y61024D03*
X499939Y55512D03*
X503168Y55511D03*
X489370Y80531D03*
Y67539D03*
X492815Y75886D03*
X492913Y78346D03*
X492698Y66929D03*
X500295Y83188D03*
X505413D03*
X502854Y86614D03*
X498819Y137008D03*
X500787Y140157D03*
X504724Y148819D03*
X499213Y174409D03*
X501181Y168898D03*
X503937Y202362D03*
X509387Y-32782D03*
X511025Y-30000D03*
X513780Y-23228D03*
X511024Y-26772D03*
X506299Y-15748D03*
X511417Y-18898D03*
X519291Y21654D03*
X507087Y18110D03*
X512992Y18898D03*
X519783Y37477D03*
X507480Y47244D03*
X508268Y32972D03*
X516929Y49606D03*
X507874Y54724D03*
X517323Y62992D03*
X517531Y58248D03*
X507480Y51394D03*
X518110Y83465D03*
X518504Y69685D03*
X510067Y73228D03*
Y66929D03*
X510236Y69685D03*
X513386Y91339D03*
X514665Y100295D03*
X520079Y91732D03*
X508643Y110236D03*
X514745Y116142D03*
X513780Y119685D03*
X508643Y124409D03*
X514745Y130315D03*
X512205Y197244D03*
X507541Y199980D03*
X514738Y193701D03*
X531102Y22047D03*
X525197Y26950D03*
X527953Y37402D03*
X531890Y49606D03*
X527953Y64567D03*
X531496Y58248D03*
X527953Y83858D03*
G54D20*
G01X20323Y51151D02*
X22261Y49213D01*
X44524D01*
X53580Y40157D01*
X53825D01*
X54278Y39705D01*
X55958D01*
X56411Y40157D01*
X117176D01*
X117341Y40323D01*
X177331D01*
X183858Y46850D01*
X248581D01*
X249251Y46181D01*
X250821D01*
X252120Y44882D01*
X253819D01*
X254724Y45787D01*
G01X20323Y46243D02*
X22072Y47992D01*
X44019D01*
X53074Y38937D01*
X53319D01*
X53772Y38484D01*
X56464D01*
X56917Y38937D01*
X117681D01*
X117847Y39103D01*
X177837D01*
X184364Y45630D01*
X248076D01*
X248745Y44961D01*
X250315D01*
X251614Y43661D01*
X253732D01*
X253811Y43583D01*
X254055D01*
X254724Y42913D01*
Y42559D01*
G01X34731Y-21759D02*
X36358Y-23386D01*
X36476D01*
X36673Y-23583D01*
X66589D01*
X68951Y-21220D01*
X92014D01*
X93195Y-20039D01*
X111136D01*
X112530Y-21433D01*
X114015D01*
X114211Y-21236D01*
X114520D01*
X114694Y-21063D01*
X118816D01*
X120312Y-22559D01*
X140113D01*
X140306Y-22367D01*
X162923D01*
X164434Y-23878D01*
X176469D01*
X176646Y-24055D01*
X178472D01*
X178650Y-23878D01*
X191750D01*
X191888Y-23740D01*
X194726D01*
X194963Y-23976D01*
X196699D01*
X197979Y-25256D01*
X198815D01*
X199091Y-25531D01*
X222997D01*
X224693Y-23835D01*
X224832D01*
X226433Y-22235D01*
X226668D01*
X226766Y-22136D01*
X239459D01*
X239725Y-22402D01*
X244994D01*
X247002Y-24409D01*
X272178D01*
X272670Y-23917D01*
X275362D01*
X275578Y-24134D01*
X291648D01*
X292953Y-25439D01*
Y-25835D01*
X293780Y-26662D01*
Y-28346D01*
G01X34731Y-26667D02*
X36594Y-24803D01*
X67095D01*
X69457Y-22441D01*
X92520D01*
X93701Y-21260D01*
X110630D01*
X112024Y-22654D01*
X114520D01*
X114717Y-22457D01*
X115026D01*
X115200Y-22283D01*
X118310D01*
X119806Y-23780D01*
X140619D01*
X140811Y-23587D01*
X162417D01*
X163928Y-25098D01*
X175963D01*
X176140Y-25276D01*
X178978D01*
X179156Y-25098D01*
X192256D01*
X192394Y-24961D01*
X194220D01*
X194457Y-25197D01*
X196193D01*
X197473Y-26476D01*
X198309D01*
X198585Y-26752D01*
X223503D01*
X225199Y-25056D01*
X225338D01*
X226939Y-23455D01*
X227174D01*
X227272Y-23357D01*
X238954D01*
X239219Y-23622D01*
X244488D01*
X246496Y-25630D01*
X272683D01*
X273176Y-25138D01*
X274856D01*
X275072Y-25354D01*
X291142D01*
X291677Y-25890D01*
X290906Y-26662D01*
Y-28346D01*
G01X149213Y7874D02*
X148858Y7520D01*
X147528D01*
X146701Y6693D01*
X146608D01*
X131057Y22244D01*
X123183D01*
X119443Y25984D01*
X32700D01*
X32413Y25984D01*
X30713Y27683D01*
G01X149213Y4646D02*
X147528D01*
X146701Y5472D01*
X146102D01*
X130551Y21024D01*
X122677D01*
X118937Y24764D01*
X32741D01*
X32712Y24763D01*
X32701D01*
X30713Y22775D01*
G01X319685Y38189D02*
X319291Y38583D01*
X317787D01*
X317000Y39370D01*
X274448D01*
X273661Y40157D01*
X270433D01*
X268268Y37992D01*
X252285D01*
X252207Y37913D01*
X249368D01*
X249289Y37992D01*
X233276D01*
X231702Y36418D01*
X200983D01*
X197244Y40157D01*
X184396D01*
X183634Y39396D01*
X182945D01*
X181654Y38105D01*
Y37528D01*
X180504Y36378D01*
X57811D01*
X57476Y36043D01*
X54977D01*
X49756Y30823D01*
X43110D01*
X42520Y30232D01*
Y28771D01*
G01X319685Y41417D02*
X317748D01*
X316921Y40591D01*
X275093D01*
X274207Y41476D01*
X273833D01*
X273735Y41575D01*
X270817D01*
X270620Y41378D01*
X269928D01*
X267762Y39213D01*
X251780D01*
X251701Y39134D01*
X249874D01*
X249795Y39213D01*
X232770D01*
X231196Y37639D01*
X201489D01*
X197750Y41378D01*
X183890D01*
X183128Y40617D01*
X182439D01*
X180433Y38611D01*
Y38033D01*
X179998Y37598D01*
X57305D01*
X56970Y37264D01*
X54471D01*
X49250Y32043D01*
X43110D01*
X42520Y32634D01*
Y33465D01*
G01X59742Y52985D02*
X58181Y54545D01*
Y66055D01*
X70128Y78002D01*
X96016D01*
X96213Y77805D01*
X99096D01*
X99480Y78189D01*
X101307D01*
X101691Y77805D01*
X111183D01*
X113004Y79626D01*
X126522D01*
X127053Y79094D01*
X127694D01*
X127930Y78858D01*
X130769D01*
X131005Y79094D01*
X139804D01*
X140240Y78658D01*
X143463D01*
X143468Y78653D01*
X146307D01*
X146748Y79094D01*
X148931D01*
X149463Y79626D01*
X152931D01*
X153305Y79252D01*
X156144D01*
X156518Y79626D01*
X161561D01*
X163274Y77913D01*
X198428D01*
X198851Y77490D01*
X201543D01*
X202084Y78031D01*
X213734D01*
X214062Y77704D01*
X214302D01*
X214329Y77677D01*
X217167D01*
X217344Y77854D01*
X220244D01*
X220421Y78031D01*
X242750D01*
X244345Y79627D01*
X251169D01*
X251522Y79980D01*
X253202D01*
X253556Y79627D01*
X278591D01*
X279418Y78800D01*
X280118D01*
X280622Y78296D01*
G01X54834Y52985D02*
X56764Y54915D01*
X56961Y58910D01*
Y66561D01*
X69622Y79222D01*
X96522D01*
X96719Y79025D01*
X98590D01*
X98974Y79409D01*
X101813D01*
X102197Y79025D01*
X110677D01*
X112498Y80846D01*
X127028D01*
X127559Y80315D01*
X128200D01*
X128436Y80079D01*
X130263D01*
X130499Y80315D01*
X140309D01*
X140746Y79879D01*
X142572D01*
X143009Y80315D01*
X143533D01*
X143974Y79874D01*
X145801D01*
X146242Y80315D01*
X148425D01*
X148957Y80846D01*
X153437D01*
X153811Y80472D01*
X155638D01*
X156012Y80846D01*
X162067D01*
X163780Y79134D01*
X198933D01*
X199357Y78711D01*
X201037D01*
X201578Y79252D01*
X214240D01*
X214568Y78924D01*
X214808D01*
X214835Y78898D01*
X216661D01*
X216839Y79075D01*
X219738D01*
X219915Y79252D01*
X242244D01*
X243839Y80847D01*
X250663D01*
X251016Y81201D01*
X253708D01*
X254062Y80847D01*
X278591D01*
X279418Y81674D01*
X280531D01*
X280681Y81523D01*
X280709D01*
G01X475953Y53937D02*
X473575Y56315D01*
Y56963D01*
X472270Y58268D01*
X433465D01*
X431103Y60630D01*
X429831D01*
X429766Y60695D01*
X426927D01*
X426862Y60630D01*
X421144D01*
X419389Y58874D01*
X401087D01*
X400118Y59843D01*
X389622D01*
X388480Y58701D01*
X379095D01*
X373288Y64508D01*
X327291D01*
X327231Y64567D01*
X326417D01*
X325445Y65539D01*
Y65789D01*
X323439Y67795D01*
X323150D01*
X322835Y68110D01*
X314169D01*
X314129Y68151D01*
X281091D01*
X280384Y68858D01*
X275522D01*
X274774Y68110D01*
X207994D01*
X207325Y68780D01*
X204486D01*
X203817Y68110D01*
X174409D01*
X173622Y67323D01*
X153906D01*
X153669Y67087D01*
X153494D01*
X153400Y66993D01*
X151574D01*
X151244Y67323D01*
X94488D01*
X77043Y49878D01*
X76256D01*
X74495Y51639D01*
G01X471260Y53937D02*
X472355Y55032D01*
Y56457D01*
X471764Y57047D01*
X432959D01*
X430597Y59409D01*
X429325D01*
X429260Y59475D01*
X427433D01*
X427368Y59409D01*
X421650D01*
X419894Y57654D01*
X410238D01*
X410041Y57457D01*
X399976D01*
X399378Y58055D01*
X395240D01*
X394673Y58622D01*
X390128D01*
X388986Y57480D01*
X378589D01*
X372782Y63287D01*
X326785D01*
X326726Y63346D01*
X325911D01*
X324224Y65033D01*
Y65283D01*
X322933Y66575D01*
X322644D01*
X322329Y66890D01*
X313663D01*
X313623Y66930D01*
X280585D01*
X279878Y67638D01*
X276028D01*
X275280Y66890D01*
X207488D01*
X206819Y67559D01*
X204992D01*
X204323Y66890D01*
X174915D01*
X174128Y66102D01*
X154411D01*
X154175Y65866D01*
X154000D01*
X153906Y65772D01*
X151068D01*
X150738Y66102D01*
X94994D01*
X77549Y48657D01*
X76901D01*
X76802Y48559D01*
X76322D01*
X74495Y46731D01*
G01X511024Y-26772D02*
X510276Y-27520D01*
X507762D01*
X501069Y-34213D01*
X456307D01*
X455244Y-35276D01*
X444362D01*
X443299Y-34213D01*
X421881D01*
X421685Y-34409D01*
X332441D01*
X330882Y-32850D01*
X286152D01*
X285093Y-31791D01*
X281911D01*
X281734Y-31614D01*
X278896D01*
X278719Y-31791D01*
X272100D01*
X271411Y-31102D01*
X247880D01*
X247132Y-31850D01*
X242238D01*
X240309Y-29921D01*
X234252D01*
X231792Y-27461D01*
X225446D01*
X224659Y-28248D01*
X199628D01*
X199451Y-28071D01*
X196612D01*
X195766Y-28917D01*
X194673D01*
X194220Y-29370D01*
X192394D01*
X192177Y-29154D01*
X191698D01*
X191462Y-28917D01*
X168420D01*
X167632Y-28130D01*
X135390D01*
X135066Y-27806D01*
X127921D01*
X127596Y-28130D01*
X121051D01*
X120992Y-28189D01*
X119165D01*
X119106Y-28130D01*
X118099D01*
X117922Y-27953D01*
X105632D01*
X105356Y-27677D01*
X101693D01*
X100394Y-26378D01*
X98819D01*
G01X511025Y-30000D02*
X509765Y-28740D01*
X508268D01*
X501575Y-35433D01*
X456813D01*
X455750Y-36496D01*
X443856D01*
X442793Y-35433D01*
X422387D01*
X422191Y-35630D01*
X331935D01*
X330376Y-34071D01*
X285646D01*
X284587Y-33012D01*
X281406D01*
X281228Y-32835D01*
X279402D01*
X279224Y-33012D01*
X271594D01*
X270905Y-32323D01*
X248386D01*
X247638Y-33071D01*
X241732D01*
X239803Y-31142D01*
X233746D01*
X231286Y-28682D01*
X225952D01*
X225165Y-29469D01*
X199122D01*
X198945Y-29291D01*
X197118D01*
X196272Y-30138D01*
X195179D01*
X194726Y-30591D01*
X191888D01*
X191671Y-30374D01*
X191192D01*
X191048Y-30231D01*
X190991D01*
X190898Y-30138D01*
X167914D01*
X167126Y-29350D01*
X134884D01*
X134560Y-29026D01*
X128427D01*
X128102Y-29350D01*
X121557D01*
X121498Y-29409D01*
X118659D01*
X118600Y-29350D01*
X117593D01*
X117416Y-29173D01*
X105126D01*
X104850Y-28898D01*
X101449D01*
X101094Y-29252D01*
X99961D01*
X99606Y-29606D01*
X98819D01*
G01X409449Y-27953D02*
X402855Y-21359D01*
X401710D01*
X400784Y-20433D01*
X387120D01*
X386352Y-19665D01*
X381203D01*
X380947Y-19409D01*
X360947D01*
X360907Y-19370D01*
X342016D01*
X341740Y-19646D01*
X335835D01*
X335677Y-19803D01*
X333614D01*
X333457Y-19646D01*
X325913D01*
X325717Y-19843D01*
X323890D01*
X323693Y-19646D01*
X320913D01*
X320421Y-20138D01*
X317113D01*
X316824Y-20427D01*
X305920D01*
X305638Y-20709D01*
X303811D01*
X303535Y-20433D01*
X267724D01*
X267449Y-20709D01*
X265622D01*
X265346Y-20433D01*
X261603D01*
X261150Y-20887D01*
X259323D01*
X258869Y-20433D01*
X256879D01*
X256425Y-20887D01*
X254598D01*
X254145Y-20433D01*
X250770D01*
X250022Y-19685D01*
X244998D01*
X244762Y-19921D01*
X242935D01*
X242699Y-19685D01*
X228222D01*
X225622Y-17086D01*
X222741D01*
X221937Y-16282D01*
X216599D01*
X216380Y-16063D01*
X213541D01*
X213322Y-16282D01*
X208521D01*
X207480Y-17323D01*
X194850D01*
X194614Y-17559D01*
X187022D01*
X186707Y-17873D01*
X176240D01*
X176176Y-17937D01*
X173994D01*
X172383Y-16326D01*
Y-16187D01*
X171610Y-15415D01*
X171335D01*
X171236Y-15513D01*
X164015D01*
X161969Y-17559D01*
X141575D01*
X139529Y-15513D01*
X121039D01*
X119688Y-14161D01*
Y-13969D01*
G01X404331Y-27953D02*
Y-25706D01*
X400278Y-21654D01*
X386614D01*
X385846Y-20886D01*
X380697D01*
X380441Y-20630D01*
X360441D01*
X360402Y-20591D01*
X342522D01*
X342246Y-20866D01*
X336341D01*
X336183Y-21024D01*
X333108D01*
X332951Y-20866D01*
X326419D01*
X326222Y-21063D01*
X323384D01*
X323187Y-20866D01*
X321419D01*
X320927Y-21358D01*
X317619D01*
X317330Y-21647D01*
X306426D01*
X306144Y-21929D01*
X303305D01*
X303030Y-21654D01*
X268230D01*
X267955Y-21929D01*
X265116D01*
X264841Y-21654D01*
X262109D01*
X261656Y-22107D01*
X258817D01*
X258363Y-21654D01*
X257385D01*
X256931Y-22107D01*
X254093D01*
X253639Y-21654D01*
X250264D01*
X249516Y-20906D01*
X245504D01*
X245268Y-21142D01*
X242429D01*
X242193Y-20906D01*
X227716D01*
X225117Y-18306D01*
X222235D01*
X221431Y-17502D01*
X216093D01*
X215874Y-17283D01*
X214047D01*
X213828Y-17502D01*
X209027D01*
X207986Y-18543D01*
X195356D01*
X195120Y-18780D01*
X187528D01*
X187213Y-19094D01*
X176746D01*
X176682Y-19158D01*
X173488D01*
X171064Y-16733D01*
X164520D01*
X162474Y-18780D01*
X141069D01*
X139023Y-16733D01*
X120228D01*
X119765Y-17196D01*
X119591D01*
G01X369685Y16929D02*
X368218Y15462D01*
Y15068D01*
X367717Y14567D01*
X366929D01*
X365000Y12638D01*
X364737D01*
X359272Y7173D01*
Y6862D01*
X357980Y5571D01*
X357670D01*
X340569Y-11530D01*
X321259D01*
X320919Y-11870D01*
X319239D01*
X319031Y-11662D01*
X318461D01*
X318329Y-11530D01*
X256896D01*
X254990Y-9624D01*
X222659D01*
X221870Y-10413D01*
X211012D01*
X210953Y-10472D01*
X196252D01*
X196193Y-10413D01*
X183237D01*
X183060Y-10236D01*
X179144D01*
X178967Y-10413D01*
X163965D01*
X163959Y-10419D01*
X160557D01*
X160551Y-10413D01*
X152529D01*
X152352Y-10236D01*
X148436D01*
X148259Y-10413D01*
X129311D01*
X125197Y-6299D01*
X121685D01*
X120898Y-5512D01*
X120256D01*
X119921Y-5177D01*
X119789D01*
X119335Y-4724D01*
X117990D01*
G01X369567Y12500D02*
X367618D01*
X366142Y11024D01*
X364849D01*
X360492Y6667D01*
Y6356D01*
X358486Y4350D01*
X358176D01*
X341075Y-12750D01*
X321765D01*
X321425Y-13091D01*
X318733D01*
X318525Y-12883D01*
X317956D01*
X317823Y-12750D01*
X256390D01*
X254484Y-10844D01*
X223165D01*
X222376Y-11634D01*
X211518D01*
X211459Y-11693D01*
X195746D01*
X195687Y-11634D01*
X182731D01*
X182554Y-11457D01*
X179650D01*
X179473Y-11634D01*
X164470D01*
X164465Y-11640D01*
X160051D01*
X160045Y-11634D01*
X152023D01*
X151846Y-11457D01*
X148942D01*
X148765Y-11634D01*
X128805D01*
X124691Y-7520D01*
X121179D01*
X120392Y-6732D01*
X119823D01*
X119213Y-7343D01*
X118721D01*
X118113Y-7950D01*
G01X115474Y53150D02*
X113913Y51589D01*
Y50476D01*
X121543Y42846D01*
X134579D01*
X137402Y45669D01*
X175984D01*
X181043Y50728D01*
X204815D01*
X204992Y50551D01*
X206819D01*
X207055Y50787D01*
X245518D01*
X247880Y53150D01*
X254724D01*
X256299Y54724D01*
X261941D01*
X262040Y54823D01*
X272539D01*
X277106Y59390D01*
X298366D01*
X302067Y63091D01*
X302734D01*
X302872Y63228D01*
X306006D01*
X306038Y63261D01*
X309258D01*
X309267Y63269D01*
X312105D01*
X312283Y63091D01*
X313287D01*
X323228Y53150D01*
X332565D01*
X333018Y52697D01*
X355571D01*
X357204Y51063D01*
X358537D01*
X359843Y49758D01*
Y48181D01*
X360669Y47354D01*
Y44921D01*
X360630Y44882D01*
G01X110566Y53150D02*
X112693Y51022D01*
Y49970D01*
X121037Y41626D01*
X135085D01*
X137907Y44449D01*
X176490D01*
X181549Y49508D01*
X204309D01*
X204486Y49331D01*
X207325D01*
X207561Y49567D01*
X246024D01*
X248386Y51929D01*
X255230D01*
X256805Y53504D01*
X262447D01*
X262546Y53602D01*
X273045D01*
X277612Y58169D01*
X298872D01*
X302573Y61870D01*
X303240D01*
X303378Y62008D01*
X306512D01*
X306544Y62040D01*
X309764D01*
X309772Y62048D01*
X311599D01*
X311778Y61870D01*
X312781D01*
X322722Y51929D01*
X332059D01*
X332512Y51476D01*
X355065D01*
X356698Y49843D01*
X358031D01*
X358622Y49252D01*
Y48181D01*
X357795Y47354D01*
Y45276D01*
X357402Y44882D01*
G01X131493Y-36428D02*
X131700Y-36220D01*
X135018D01*
X135172Y-36375D01*
X135950D01*
X138611Y-39035D01*
X280559D01*
X280756Y-38839D01*
X296036D01*
X299244Y-35630D01*
X307986D01*
X308704Y-36347D01*
X309209D01*
X312174Y-39312D01*
Y-39370D01*
G01X135037Y-38580D02*
Y-39107D01*
X135989Y-40059D01*
X137751D01*
X137948Y-40256D01*
X281065D01*
X281262Y-40059D01*
X296542D01*
X299750Y-36850D01*
X306890D01*
X307480Y-37441D01*
Y-39370D01*
G01X320045Y21079D02*
Y20796D01*
X318580Y19331D01*
X299381D01*
X289893Y9843D01*
X272441D01*
X271831Y9232D01*
X271765D01*
X265108Y2575D01*
X209267D01*
X205511Y-1181D01*
X178190D01*
X178170Y-1201D01*
X176489D01*
X176469Y-1181D01*
X143852D01*
X140368Y2303D01*
X128801D01*
X128150Y2954D01*
G01X320222Y17855D02*
X319341D01*
X319085Y18110D01*
X299887D01*
X290399Y8622D01*
X272947D01*
X272337Y8012D01*
X272271D01*
X265614Y1354D01*
X209773D01*
X206017Y-2402D01*
X178696D01*
X178676Y-2422D01*
X175983D01*
X175963Y-2402D01*
X143346D01*
X139862Y1083D01*
X129504D01*
X128147Y-274D01*
G01X454724Y53150D02*
X453756Y52181D01*
X452918D01*
X452587Y51850D01*
X435195D01*
X435156Y51811D01*
X432913D01*
X429921Y48819D01*
X422556D01*
X419800Y51575D01*
X381102D01*
X374016Y58661D01*
X345951D01*
X345794Y58819D01*
X342057D01*
X341561Y59315D01*
X338722D01*
X338226Y58819D01*
X336577D01*
X336065Y59331D01*
X333226D01*
X332715Y58819D01*
X327039D01*
X326311Y59547D01*
X322736D01*
X316614Y65669D01*
X313157D01*
X313117Y65710D01*
X280080D01*
X279372Y66417D01*
X276533D01*
X274528Y64411D01*
Y64161D01*
X270996Y60630D01*
X257611D01*
X255249Y58268D01*
X201181D01*
X199886Y59563D01*
X199115D01*
X181700Y59760D01*
X163697D01*
X153878Y49941D01*
X134046D01*
X132513Y51474D01*
G01X454724Y48456D02*
X452551Y50630D01*
X435701D01*
X435661Y50591D01*
X433419D01*
X430427Y47598D01*
X422050D01*
X419294Y50354D01*
X380596D01*
X373510Y57441D01*
X345445D01*
X345288Y57598D01*
X341551D01*
X341055Y58094D01*
X339228D01*
X338732Y57598D01*
X336071D01*
X335559Y58110D01*
X333732D01*
X333220Y57598D01*
X326533D01*
X325805Y58327D01*
X322230D01*
X316108Y64449D01*
X312652D01*
X312611Y64489D01*
X279574D01*
X278866Y65197D01*
X277039D01*
X275748Y63906D01*
Y63655D01*
X271502Y59409D01*
X258117D01*
X255755Y57048D01*
X242712D01*
X242700Y57035D01*
X242675D01*
X242663Y57048D01*
X200675D01*
X199383Y58339D01*
X181693Y58539D01*
X164203D01*
X154384Y48721D01*
X134667D01*
X132513Y46567D01*
G01X298819Y7008D02*
X300504D01*
X301330Y7835D01*
X306411D01*
X308813Y10236D01*
X312807D01*
X314422Y8622D01*
X323467D01*
X323813Y8968D01*
X325640D01*
X328741Y5866D01*
X332303D01*
X332894Y5276D01*
Y4114D01*
X334646Y2362D01*
G01Y7087D02*
X329247D01*
X326146Y10188D01*
X323307D01*
X322961Y9843D01*
X314928D01*
X313313Y11457D01*
X308307D01*
X305906Y9055D01*
X301330D01*
X300504Y9882D01*
X298819D01*
G01X294882Y78337D02*
X297097Y76122D01*
X348273D01*
X349764Y74631D01*
Y73980D01*
X351055Y72689D01*
X351706D01*
X355458Y68937D01*
X374370D01*
X378775Y64532D01*
X383037D01*
X383101Y64468D01*
X394928D01*
X395066Y64391D01*
X404943D01*
X405906Y65354D01*
Y66535D01*
G01X294882Y73430D02*
X296354Y74902D01*
X347767D01*
X348543Y74126D01*
Y73474D01*
X350549Y71469D01*
X351200D01*
X354952Y67717D01*
X373864D01*
X378269Y63312D01*
X382531D01*
X382595Y63248D01*
X394610D01*
X394748Y63171D01*
X404152D01*
X405512Y61811D01*
G01X355118Y77743D02*
X355162Y76996D01*
X356781Y75556D01*
X361641D01*
X361882Y75315D01*
X364132D01*
X364373Y75556D01*
X375893D01*
X376085Y75748D01*
X378472D01*
X378866Y76142D01*
X385165D01*
X385795Y76772D01*
X407874D01*
G01X355398Y72956D02*
X356626Y74335D01*
X361135D01*
X361376Y74094D01*
X364638D01*
X364879Y74335D01*
X376399D01*
X376591Y74528D01*
X378978D01*
X379372Y74921D01*
X385671D01*
X386301Y75551D01*
X405157D01*
X407943Y72765D01*
G54D11*
X0Y0D03*
X9843Y214961D03*
X275591Y0D03*
X508071Y214961D03*
X523622Y0D03*
G54D21*
G01X112205Y-787D02*
X109843D01*
X109260Y-205D01*
X106882D01*
X103150Y-3937D01*
X92520D01*
X88976Y-7480D01*
X59843D01*
X56299Y-3937D01*
X23228D01*
X18504Y787D01*
G01X145276Y-35039D02*
X143906Y-33670D01*
X143446D01*
X143241Y-33465D01*
X133542D01*
X132961Y-32884D01*
X130025D01*
X129445Y-33465D01*
X124672D01*
X121739Y-36398D01*
X69863D01*
X68111Y-34646D01*
X54756D01*
X51181Y-31071D01*
Y-29134D01*
G01X192520Y-34646D02*
X190583D01*
X188102Y-37126D01*
X159618D01*
X159342Y-37402D01*
X156406D01*
X156130Y-37126D01*
X146363D01*
X146206Y-37283D01*
X144346D01*
X144188Y-37126D01*
X140669D01*
X138583Y-35039D01*
X135619D01*
X135540Y-34961D01*
X133200D01*
X132423Y-34183D01*
X130563D01*
X129707Y-35039D01*
X128346D01*
X123622Y-39764D01*
X66535D01*
X64961Y-38189D01*
G01X172835Y-34252D02*
X170898D01*
X169323Y-35827D01*
X159080D01*
X158804Y-36102D01*
X156944D01*
X156669Y-35827D01*
X154331D01*
X150414Y-31909D01*
X133824D01*
X133500Y-31585D01*
X129487D01*
X129163Y-31909D01*
X124390D01*
X121201Y-35098D01*
X70925D01*
X68898Y-33071D01*
X62250D01*
X58707Y-29528D01*
G01X62598Y-29921D02*
X90157D01*
X93583Y-33346D01*
X107204D01*
X110118Y-30433D01*
X116894D01*
X117071Y-30610D01*
X118078D01*
X118137Y-30669D01*
X122020D01*
X122079Y-30610D01*
X128624D01*
X128949Y-30286D01*
X134038D01*
X134362Y-30610D01*
X166604D01*
X167392Y-31398D01*
X190376D01*
X190613Y-31634D01*
X191149D01*
X191366Y-31850D01*
X195248D01*
X195603Y-31496D01*
X198031D01*
G01X74803Y22047D02*
X76173Y20678D01*
X91527D01*
X92913Y19291D01*
X102756D01*
X103937Y18110D01*
X123622D01*
X124803Y16929D01*
X131102D01*
G01X193307Y-27165D02*
X191193D01*
X191154Y-27126D01*
X179882D01*
X179408Y-26652D01*
X135694D01*
X135588Y-26546D01*
X122754D01*
X122193Y-25984D01*
X120079D01*
G01X133858Y-7874D02*
X135354Y-6379D01*
X160132D01*
X160541Y-5970D01*
X162400D01*
X162631Y-6201D01*
X163848D01*
X164341Y-6693D01*
X168287D01*
G01X143307Y-14173D02*
X148007D01*
X149464Y-12717D01*
X151324D01*
X151501Y-12894D01*
X159523D01*
X159529Y-12900D01*
X164987D01*
X164993Y-12894D01*
X179995D01*
X180172Y-12717D01*
X182032D01*
X182209Y-12894D01*
X195165D01*
X195224Y-12953D01*
X195965D01*
X196004Y-12992D01*
X235858D01*
X236252Y-13386D01*
X238189D01*
G01X218110Y-7874D02*
X215996D01*
X214028Y-5906D01*
X206693D01*
X204725Y-3937D01*
X141732D01*
G01X262205Y26378D02*
X260709Y27873D01*
X260531D01*
X260263Y28141D01*
X187510D01*
X186886Y27517D01*
X185026D01*
X184591Y27953D01*
X152977D01*
X152800Y28130D01*
X150940D01*
X149626Y26816D01*
Y26791D01*
X147638Y24803D01*
G01X242126Y71654D02*
X240631Y73149D01*
X219932D01*
X219852Y73228D01*
X206693D01*
X202835Y69371D01*
X159763D01*
X158268Y70866D01*
G01X246063Y77165D02*
X243949D01*
X243555Y76772D01*
X221337D01*
X220766Y76201D01*
X162528D01*
X161563Y77165D01*
X159449D01*
G01X249300Y76161D02*
Y75284D01*
X248630Y74615D01*
X247797D01*
X247707Y74705D01*
X156299D01*
G01X253150Y89370D02*
X250787Y91732D01*
X221555D01*
X218898Y89075D01*
G01X255125Y149515D02*
X256620Y148020D01*
X257098D01*
X262205Y142913D01*
X271654D01*
X274488Y140079D01*
X325547D01*
X325626Y140157D01*
X336220D01*
X346890Y129488D01*
X350802D01*
X351432Y128858D01*
X353292D01*
X354041Y129607D01*
X354410D01*
X355906Y131102D01*
G01X429528Y76741D02*
X420933Y85335D01*
X405831D01*
X405654Y85157D01*
X403794D01*
X401846Y87106D01*
X395450D01*
X394956Y87601D01*
X393096D01*
X393024Y87530D01*
X393017D01*
X392594Y87106D01*
X387918D01*
X384394Y83583D01*
X384370D01*
X383406Y82618D01*
X381401D01*
X381224Y82441D01*
X375433D01*
X372441Y85433D01*
X354402D01*
X354008Y85827D01*
X350000D01*
X344882Y80709D01*
X333070D01*
X331161Y82618D01*
X321041D01*
X318620Y85039D01*
X307480D01*
X306693Y85827D01*
X291732D01*
X287402Y81496D01*
Y78088D01*
X285938Y76625D01*
Y76374D01*
X284624Y75060D01*
X282764D01*
X282587Y75237D01*
X276338D01*
X273228Y78346D01*
X268504D01*
X266535Y76378D01*
G01X268307Y88976D02*
X269802Y90472D01*
Y90669D01*
X271752Y92618D01*
X325665D01*
X325842Y92795D01*
X327702D01*
X327879Y92618D01*
X339272D01*
X341732Y90157D01*
X343701D01*
G01X261614Y149409D02*
X266142Y144882D01*
X274798D01*
X275054Y145139D01*
X276914D01*
X277171Y144882D01*
X317878D01*
X321894Y148898D01*
X335118D01*
X350867Y133149D01*
Y132598D01*
X352362Y131102D01*
G01X276378Y72618D02*
X285610D01*
X289370Y76378D01*
Y77535D01*
X289094Y77810D01*
Y79670D01*
X289370Y79946D01*
Y80709D01*
X293012Y84350D01*
X295331D01*
X295508Y84528D01*
X297368D01*
X297545Y84350D01*
X304232D01*
X308366Y80217D01*
X315054D01*
X315231Y80039D01*
X317091D01*
X318154Y81102D01*
X330839D01*
X332808Y79134D01*
X353335D01*
X354188Y79987D01*
X356048D01*
X356901Y79134D01*
X359031D01*
X360487Y80591D01*
X362347D01*
X362721Y80217D01*
X371156D01*
X371333Y80039D01*
X373193D01*
X373567Y80413D01*
X383145D01*
X383322Y80591D01*
X385182D01*
X385359Y80413D01*
X407339D01*
X407713Y80039D01*
X409572D01*
X409946Y80413D01*
X421161D01*
X429528Y72047D01*
G01X344845Y19696D02*
X342888Y21654D01*
X332283D01*
X328896Y25041D01*
Y27559D01*
G01X334308Y11867D02*
X339089Y7087D01*
X351960D01*
X352006Y7041D01*
X354724D01*
G54D12*
X-1319Y46339D03*
X-6319D03*
X8681D03*
X3937Y59449D03*
X-1181Y59331D03*
X-6299D03*
X9055Y59055D03*
X-6319Y77283D03*
X8681D03*
X3681D03*
X-1319D03*
X14173Y46339D03*
Y56024D03*
X39882Y85039D03*
X55118Y41732D03*
X70866Y42913D03*
X96181Y85039D03*
X152087D03*
X210630D03*
X274016Y-16929D03*
X288061Y-27934D03*
X280315Y-27559D03*
X293780Y-28346D03*
X290906D03*
X283858Y-27559D03*
X292913Y50787D03*
X297579Y-30374D03*
X296457Y-26378D03*
X314606Y-27913D03*
X304882Y-27559D03*
X304724Y-17717D03*
X296227Y5512D03*
X298819Y-9449D03*
X304843Y-3150D03*
X314091Y2602D03*
X314449Y-2756D03*
X309646Y-2953D03*
X298819Y7008D03*
X296227Y11378D03*
X307067Y22815D03*
X298819Y9882D03*
X324294Y-28147D03*
X319294D03*
X329294Y-23147D03*
X329921Y-17520D03*
X329134Y2559D03*
X319785Y-9475D03*
X324700Y-3007D03*
X329626Y-3051D03*
X329528Y12165D03*
X324141Y12469D03*
X319665Y12224D03*
X315039Y12598D03*
X344294Y-28147D03*
X339294D03*
X334449Y-27756D03*
X349252Y-27559D03*
X340551Y2756D03*
X339173Y-8268D03*
X334646Y7087D03*
Y2362D03*
X334744Y-3051D03*
X340353Y12333D03*
X364294Y-28147D03*
X359294D03*
X354331Y-27638D03*
X364449Y-12992D03*
X364961Y-8268D03*
X359173Y-7480D03*
X369606Y7087D03*
X368504Y27559D03*
X357067Y18878D03*
X354331Y11890D03*
X384294Y-28147D03*
X379294D03*
X374294Y-23147D03*
X389252Y-27559D03*
X384291Y-12598D03*
X374294Y-3147D03*
X384294Y1853D03*
X389294Y6853D03*
X385039Y-3346D03*
X384213Y7480D03*
X384840Y12399D03*
X399294Y-28147D03*
X394252Y-27559D03*
X409213Y-23228D03*
X399840Y2399D03*
X394840Y-2601D03*
X399587Y-7854D03*
X409840Y-2601D03*
X394567Y-7874D03*
X409961Y-8268D03*
X399840Y12399D03*
X409882Y11811D03*
X394488Y12205D03*
X429294Y-12601D03*
X419294Y-28147D03*
X414646Y-27953D03*
X414840Y-7601D03*
X429294Y-2601D03*
X414840Y12399D03*
X439294Y-28147D03*
X434646Y-27953D03*
X444840Y2399D03*
X429840D03*
Y-7601D03*
X444840D03*
X444294Y-2601D03*
X433858Y12598D03*
X464294Y-18147D03*
X459294D03*
Y-28147D03*
X460236Y6693D03*
X464567Y-2874D03*
X449213Y-7874D03*
X459449Y-8268D03*
X465748Y25591D03*
X459646Y12205D03*
X453150Y24016D03*
X484294Y-28147D03*
X479294D03*
Y-18147D03*
X485039Y-22402D03*
X469685Y-22992D03*
X474840Y2399D03*
X474803Y-3110D03*
X485039Y-8346D03*
X469291Y-3150D03*
X474409Y6969D03*
X469291Y1850D03*
X469213Y6772D03*
X474840Y12399D03*
X499294Y-28147D03*
X489294Y-23147D03*
X494094Y-27402D03*
X499213Y-22520D03*
X500531Y-10374D03*
X500000Y1181D03*
X488976Y-2362D03*
X489764Y-7677D03*
X499685Y-2756D03*
X494567Y-7874D03*
X489840Y12399D03*
X501032Y11567D03*
G54D13*
X26772Y-9449D03*
Y-19449D03*
Y551D03*
X272047Y25591D03*
Y15591D03*
Y35591D03*
X528740Y105630D03*
Y95630D03*
Y115630D03*
Y125630D03*
Y138819D03*
Y148819D03*
Y158819D03*
G54D14*
X25591Y36220D03*
X517323Y158661D03*
G54D15*
X24902Y114961D03*
Y134646D03*
Y153150D03*
X52953Y96850D03*
X71850D03*
X81004Y153150D03*
X109055Y96850D03*
X127953D03*
X137106Y105118D03*
Y144488D03*
Y183858D03*
Y223228D03*
X165157Y96850D03*
X184055D03*
X193209Y114961D03*
Y134646D03*
Y153150D03*
X221260Y96850D03*
X240157D03*
X249311Y153150D03*
X267618Y114961D03*
Y134646D03*
Y153150D03*
X295669Y96850D03*
X314567D03*
X323720Y153150D03*
X351772Y96850D03*
X370669D03*
X379823Y105118D03*
Y144488D03*
Y183858D03*
Y223228D03*
X407874Y96850D03*
X426772D03*
X435925Y114961D03*
Y134646D03*
Y153150D03*
X463976Y96850D03*
X482874D03*
X492028Y153150D03*
G54D16*
X24902Y164173D03*
Y203543D03*
Y242913D03*
X37402Y183858D03*
X47244Y242913D03*
X58661Y183858D03*
X81004Y105118D03*
Y144488D03*
Y183858D03*
Y223228D03*
X93504Y183858D03*
X103346Y242913D03*
X114764Y183858D03*
X149606D03*
X159449Y242913D03*
X170866Y183858D03*
X193209Y164173D03*
Y203543D03*
Y242913D03*
X205709Y183858D03*
X215551Y242913D03*
X226969Y183858D03*
X249311Y105118D03*
Y144488D03*
Y183858D03*
Y223228D03*
X267618Y164173D03*
Y203543D03*
Y242913D03*
X280118Y183858D03*
X289961Y242913D03*
X301378Y183858D03*
X323720Y105118D03*
Y144488D03*
Y183858D03*
X336220D03*
X323720Y223228D03*
X346063Y242913D03*
X357480Y183858D03*
X392323D03*
X413583D03*
X402165Y242913D03*
X435925Y164173D03*
X448425Y183858D03*
X435925Y203543D03*
Y242913D03*
X469685Y183858D03*
X458268Y242913D03*
X492028Y105118D03*
Y144488D03*
Y183858D03*
Y223228D03*
G54D17*
X34016Y121260D03*
X71811D03*
X90118D03*
X127913D03*
X146220D03*
X184016D03*
X202323D03*
X240118D03*
X276929D03*
X314724D03*
X333031D03*
X370827D03*
X389134D03*
X426929D03*
X445236D03*
X483031D03*
G54D18*
X292520Y-7874D03*
X506614Y4134D03*
G54D19*
G01X9764Y169921D02*
X10499Y170394D01*
X10919Y171024D01*
X11024Y171732D01*
X10919Y172362D01*
X10394Y172992D01*
X9764Y173386D01*
X9134Y173465D01*
X8399Y173307D01*
X7874Y172756D01*
X7664Y172205D01*
Y171496D01*
G01Y172205D02*
X7349Y172677D01*
X6824Y173071D01*
X6194Y173228D01*
X5564Y173071D01*
X5039Y172677D01*
X4724Y171969D01*
X4830Y171260D01*
X5250Y170551D01*
M02*
