G04 ================== begin FILE IDENTIFICATION RECORD ==================*
G04 Layout Name:  pc065b_toplevel_05.brd*
G04 Film Name:    art_pc065a_L07P.ger*
G04 File Format:  Gerber RS274X*
G04 File Origin:  Cadence Allegro 17.2-S063*
G04 Origin Date:  Thu May 21 15:30:58 2020*
G04 *
G04 Layer:  VIA CLASS/L7_PWR*
G04 Layer:  PIN/L7_PWR*
G04 Layer:  ETCH/L7_PWR*
G04 *
G04 Offset:    (0.0000 0.0000)*
G04 Mirror:    No*
G04 Mode:      Positive*
G04 Rotation:  0*
G04 FullContactRelief:  No*
G04 UndefLineWidth:     0.2000*
G04 ================== end FILE IDENTIFICATION RECORD ====================*
%FSLAX25Y25*MOIN*%
%IR0*IPPOS*OFA0.00000B0.00000*MIA0B0*SFA1.00000B1.00000*%
%ADD12C,.022047*%
%ADD10C,.025591*%
%ADD17C,.03937*%
%ADD13C,.066929*%
%ADD18C,.039402*%
%ADD11C,.141732*%
%ADD15C,.064961*%
%ADD16C,.068898*%
%ADD14C,.055*%
%ADD19C,.007874*%
%ADD20C,.019685*%
%ADD28C,.08663*%
%ADD24C,.161433*%
%ADD22C,.045291*%
%ADD21C,.041748*%
%ADD30C,.084661*%
%ADD29C,.088598*%
%ADD23C,.06722*%
%ADD26C,.076945*%
%ADD27C,.074701*%
%ADD25C,.077039*%
G75*
%LPD*%
G75*
G36*
G01X514961Y256299D02*
Y220406D01*
G02X514254Y220149I-400J0D01*
G03X508071Y223032I-6183J-5188D01*
G03Y206889I0J-8072D01*
G03X515839Y212770I0J8072D01*
G02X516519Y212932I385J-108D01*
G03X520866Y211024I4347J3998D01*
G01X523228D01*
Y174409D01*
G03X529134Y168504I5906J0D01*
G01X533465D01*
Y160738D01*
G02X532699Y160576I-400J0D01*
G03X528740Y163150I-3959J-1757D01*
G03Y154487I0J-4331D01*
G03X532699Y157061I0J4331D01*
G02X533465Y156900I366J-162D01*
G01Y150738D01*
G02X532699Y150576I-400J0D01*
G03X528740Y153150I-3959J-1757D01*
G03Y144487I0J-4331D01*
G03X532699Y147061I0J4331D01*
G02X533465Y146900I366J-162D01*
G01Y140738D01*
G02X532699Y140576I-400J0D01*
G03X528740Y143150I-3959J-1757D01*
G03Y134487I0J-4331D01*
G03X532699Y137061I0J4331D01*
G02X533465Y136900I366J-162D01*
G01Y117549D01*
G02X532699Y117387I-400J0D01*
G03X528740Y119961I-3959J-1757D01*
G03Y111298I0J-4331D01*
G03X532699Y113872I0J4331D01*
G02X533465Y113711I366J-162D01*
G01Y107549D01*
G02X532699Y107387I-400J0D01*
G03X528740Y109961I-3959J-1757D01*
G03Y101298I0J-4331D01*
G03X532699Y103872I0J4331D01*
G02X533465Y103711I366J-162D01*
G01Y97549D01*
G02X532699Y97387I-400J0D01*
G03X528740Y99961I-3959J-1757D01*
G03Y91298I0J-4331D01*
G03X532699Y93872I0J4331D01*
G02X533465Y93711I366J-162D01*
G01Y51998D01*
G02X532888Y51639I-400J0D01*
G03X531890Y51871I-998J-2033D01*
G03X531890Y47342I0J-2265D01*
G03X532888Y47574I0J2265D01*
G02X533465Y47215I176J-359D01*
G01Y23850D01*
G02X532770Y23579I-400J0D01*
G03X531102Y24312I-1668J-1532D01*
G03Y19783I0J-2265D01*
G03X532770Y20515I0J2264D01*
G02X533465Y20245I294J-271D01*
G01Y-40945D01*
X314565D01*
G02X314206Y-40369I0J400D01*
G03X314438Y-39370I-2033J998D01*
G03X312174Y-37106I-2265J0D01*
G03X310179Y-38297I0J-2265D01*
G02X309475I-352J189D01*
G03X307480Y-37106I-1994J-1073D01*
G03X305216Y-39370I0J-2265D01*
G03X305448Y-40369I2265J0D01*
G02X305089Y-40945I-359J-176D01*
G01X136836D01*
G02X136566Y-40250I0J400D01*
G03X137301Y-38580I-1529J1670D01*
G03X135037Y-36315I-2265J0D01*
G03X134270Y-36449I0J-2265D01*
G02X133738Y-36126I-135J376D01*
G03X131493Y-34163I-2244J-302D01*
G03Y-38692I0J-2265D01*
G03X132260Y-38558I0J2265D01*
G02X132792Y-38881I135J-376D01*
G03X133507Y-40250I2244J302D01*
G02X133237Y-40945I-270J-295D01*
G01X60277D01*
G02X59887Y-40457I0J400D01*
G03X59942Y-39961I-2209J497D01*
G03X55413I-2265J0D01*
G03X55468Y-40457I2265J0D01*
G02X55078Y-40945I-390J-88D01*
G01X-9843D01*
Y-36813D01*
G02X-9210Y-36488I400J0D01*
G03X-7893Y-36910I1317J1842D01*
G03Y-32381I0J2265D01*
G03X-9210Y-32804I0J-2265D01*
G02X-9843Y-32478I-233J325D01*
G01Y33032D01*
G02X-9269Y33393I400J0D01*
G03X-8287Y33169I982J2041D01*
G03X-8287Y37698I0J2265D01*
G03X-9269Y37474I0J-2265D01*
G02X-9843Y37834I-174J360D01*
G01Y149606D01*
X-2756D01*
G03X3150Y155512I0J5906D01*
G01Y156692D01*
X12206D01*
Y198032D01*
X3150D01*
Y209289D01*
G02X3847Y209557I400J0D01*
G03X9843Y206889I5996J5404D01*
G03Y223032I0J8072D01*
G03X3847Y220365I0J-8071D01*
G02X3150Y220632I-297J268D01*
G01Y256299D01*
X514961D01*
G37*
%LPC*%
G75*
G36*
G01X342575Y1085D02*
G03X341949Y1206I-359J-177D01*
G02X340551Y669I-1398J1550D01*
G02Y4843I0J2087D01*
G02X342373Y3775I0J-2087D01*
G03X343005Y3688I349J195D01*
G02X344606Y4351I1602J-1602D01*
G02X346871Y2087I0J-2265D01*
G02X345500Y6I-2264J0D01*
G03X345482Y-721I158J-368D01*
G02X346753Y-2756I-994J-2035D01*
G02X342224I-2265J0D01*
G02X343594Y-675I2264J0D01*
G03X343612Y52I-158J368D01*
G02X342575Y1085I994J2035D01*
G37*
G36*
G01X333519Y-25193D02*
G02X332381Y-23228I1126J1964D01*
G02X336910I2265J0D01*
G02X335598Y-25283I-2265J0D01*
G03X335554Y-25985I168J-363D01*
G02X336536Y-27756I-1106J-1771D01*
G02X332361I-2087J0D01*
G02X333501Y-25896I2087J0D01*
G03X333519Y-25193I-181J357D01*
G37*
G36*
G01X339589Y-21133D02*
G02X341641Y-22437I0J-2265D01*
G03X342376Y-22412I362J169D01*
G02X344488Y-20964I2112J-816D01*
G02Y-25493I0J-2265D01*
G02X342437Y-24188I0J2265D01*
G03X341702Y-24213I-362J-169D01*
G02X339589Y-25662I-2112J816D01*
G02Y-21133I0J2265D01*
G37*
G36*
G01X384294Y-234D02*
G02X382413Y948I0J2087D01*
G03X381728Y1007I-361J-173D01*
G02X379887Y61I-1841J1318D01*
G02Y4590I0J2265D01*
G02X381965Y3224I0J-2265D01*
G03X382648Y3137I367J159D01*
G02X384294Y3941I1646J-1283D01*
G02Y-234I0J-2087D01*
G37*
G36*
G01X493674Y-5987D02*
G03X493651Y-5254I-171J361D01*
G02X492224Y-3150I837J2104D01*
G02X496753I2265J0D01*
G02X495395Y-5225I-2265J0D01*
G03X495396Y-5958I160J-366D01*
G02X496654Y-7874I-829J-1916D01*
G02X492480I-2087J0D01*
G02X493674Y-5987I2087J0D01*
G37*
G36*
G01X362283Y3329D02*
G02X363364Y4410I2048J-967D01*
G03X363432Y5093I-171J362D01*
G02X362519Y6909I1351J1817D01*
G02X367048I2265J0D01*
G02X365750Y4862I-2264J0D01*
G03X365682Y4179I171J-362D01*
G02X366595Y2362I-1351J-1817D01*
G02X364331Y98I-2265J0D01*
G02X362514Y1011I0J2264D01*
G03X361831Y943I-321J-239D01*
G02X360903Y-59I-2048J967D01*
G03X360911Y-759I198J-348D01*
G02X362107Y-2756I-1069J-1996D01*
G02X357578I-2265J0D01*
G02X358723Y-787I2264J0D01*
G03X358715Y-87I-198J348D01*
G02X357519Y1909I1069J1996D01*
G02X359783Y4174I2265J0D01*
G02X361600Y3261I0J-2264D01*
G03X362283Y3329I321J239D01*
G37*
G36*
G01X409374Y4747D02*
G02X407380Y5939I0J2265D01*
G03X406676I-352J-189D01*
G02X404681Y4747I-1994J1073D01*
G02Y9276I0J2265D01*
G02X406676Y8085I0J-2265D01*
G03X407380I352J189D01*
G02X409374Y9276I1994J-1073D01*
G02Y4747I0J-2265D01*
G37*
G36*
G01X499204Y9801D02*
G03X499321Y10370I-210J340D01*
G02X498944Y11567I1711J1196D01*
G02X503119I2087J0D01*
G02X502242Y9865I-2088J0D01*
G03X502161Y9289I232J-326D01*
G02X502658Y7874I-1768J-1415D01*
G02X498129I-2265J0D01*
G02X499204Y9801I2265J0D01*
G37*
G36*
G01X498552Y-1003D02*
G03X498603Y-370I-217J336D01*
G02X497913Y1181I1397J1551D01*
G02X502087I2087J0D01*
G02X501133Y-572I-2087J0D01*
G03X501082Y-1205I217J-336D01*
G02X501772Y-2756I-1397J-1551D01*
G02X497598I-2087J0D01*
G02X498552Y-1003I2087J0D01*
G37*
G36*
G01X477431Y-4005D02*
G03X476697Y-3987I-370J-151D01*
G02X474803Y-5198I-1894J877D01*
G02Y-1023I0J2087D01*
G02X476712Y-2265I0J-2088D01*
G03X477445Y-2260I366J162D01*
G02X479528Y-885I2082J-890D01*
G02X481792Y-3150I0J-2265D01*
G02X480726Y-5071I-2264J0D01*
G03X480785Y-5781I212J-340D01*
G02X482186Y-7874I-863J-2093D01*
G02X477657I-2265J0D01*
G02X478723Y-5952I2264J0D01*
G03X478664Y-5243I-212J340D01*
G02X477431Y-4005I863J2093D01*
G37*
G36*
G01X297620Y26010D02*
G02X296457Y25688I-1163J1943D01*
G02Y30217I0J2265D01*
G02X298639Y28557I0J-2264D01*
G03X299230Y28321I386J107D01*
G02X300394Y28643I1163J-1943D01*
G02X301969Y28005I0J-2264D01*
G02X303543Y28643I1575J-1627D01*
G02X305068Y28052I0J-2264D01*
G03X305656Y28114I266J298D01*
G02X307480Y29036I1824J-1342D01*
G02X309745Y26772I0J-2265D01*
G02X308677Y24849I-2265J0D01*
G03X308595Y24237I211J-339D01*
G02X309154Y22815I-1528J-1422D01*
G02X304980I-2087J0D01*
G02X306067Y24647I2087J0D01*
G03X306094Y24981I-96J176D01*
G02X305956Y25097I1389J1788D01*
G03X305370Y25039I-266J-298D01*
G02X303543Y24113I-1826J1339D01*
G02X301969Y24751I0J2264D01*
G02X300394Y24113I-1575J1627D01*
G02X298211Y25774I0J2264D01*
G03X297620Y26010I-386J-107D01*
G37*
G36*
G01X297127Y-19616D02*
G03X296595Y-19557I-299J-266D01*
G02X295276Y-19981I-1320J1840D01*
G02Y-15452I0J2265D01*
G02X296967Y-16211I0J-2265D01*
G03X297499Y-16270I299J266D01*
G02X298819Y-15846I1320J-1840D01*
G02Y-20375I0J-2265D01*
G02X297127Y-19616I0J2265D01*
G37*
G36*
G01X351614Y-21787D02*
G03X352323I355J185D01*
G02X354331Y-20570I2007J-1047D01*
G02Y-25099I0J-2265D01*
G02X352323Y-23882I0J2264D01*
G03X351614I-355J-185D01*
G02X349606Y-25099I-2007J1047D01*
G03X349575Y-25497I-1J-200D01*
G02X351339Y-27559I-323J-2062D01*
G02X347165I-2087J0D01*
G02X348548Y-25594I2088J0D01*
G03X348593Y-24859I-135J377D01*
G02X347342Y-22835I1014J2025D01*
G02X349606Y-20570I2265J0D01*
G02X351614Y-21787I0J-2264D01*
G37*
G36*
G01X406586Y-19006D02*
G02X404724Y-19981I-1861J1290D01*
G02Y-15452I0J2265D01*
G02X406778Y-16761I0J-2264D01*
G03X407469Y-16820I363J169D01*
G02X409331Y-15846I1861J-1290D01*
G02Y-20375I0J-2265D01*
G02X407278Y-19065I0J2264D01*
G03X406586Y-19006I-363J-169D01*
G37*
G36*
G01X477408Y-29041D02*
G03X476710Y-28997I-361J-172D01*
G02X474803Y-30040I-1907J1221D01*
G02Y-25511I0J2265D01*
G02X476885Y-26884I0J-2264D01*
G03X477581Y-26955I368J158D01*
G02X479294Y-26059I1713J-1192D01*
G02Y-30234I0J-2087D01*
G02X477408Y-29041I0J2087D01*
G37*
G36*
G01X323556Y-25483D02*
G02X322341Y-23476I1049J2007D01*
G02X324605Y-21211I2265J0D01*
G02X326617Y-22437I0J-2265D01*
G03X327346Y-22397I355J183D01*
G02X329294Y-21059I1948J-750D01*
G02Y-25234I0J-2087D01*
G02X327470Y-24161I0J2088D01*
G03X326743Y-24224I-350J-194D01*
G02X325379Y-25604I-2137J748D01*
G03X325319Y-26328I137J-376D01*
G02X326381Y-28147I-1025J-1819D01*
G02X322207I-2087J0D01*
G02X323519Y-26209I2087J0D01*
G03X323556Y-25483I-148J371D01*
G37*
G36*
G01X427341Y-13337D02*
G03X426606Y-13305I-374J-141D01*
G02X424564Y-14590I-2042J979D01*
G02Y-10061I0J2265D01*
G02X426706Y-11590I0J-2265D01*
G03X427439Y-11643I378J130D01*
G02X429294Y-10514I1855J-958D01*
G02Y-14689I0J-2087D01*
G02X427341Y-13337I0J2087D01*
G37*
G36*
G01X247570Y149291D02*
G02X245078Y153150I1741J3859D01*
G02X253544I4233J0D01*
G02X253358Y151909I-4233J0D01*
G03X253948Y151450I382J-117D01*
G02X255125Y151780I1176J-1935D01*
G02X252860Y149515I0J-2265D01*
G02X252870Y149725I2265J-1D01*
G03X252199Y150055I-398J37D01*
G02X251052Y149291I-2889J3094D01*
G03X251059Y148559I164J-364D01*
G02X253741Y144488I-1748J-4071D01*
G02X244881I-4430J0D01*
G02X247563Y148559I4430J0D01*
G03X247570Y149291I-158J367D01*
G37*
G36*
G01X438449Y88941D02*
G02X436818Y88247I-1631J1571D01*
G02Y92776I0J2265D01*
G02X438959Y91250I0J-2265D01*
G03X439625Y91103I378J130D01*
G02X441256Y91796I1631J-1571D01*
G02X443520Y89531I0J-2265D01*
G02X442844Y87917I-2264J0D01*
G02X443520Y86303I-1588J-1614D01*
G02X441256Y84039I-2265J0D01*
G02X439733Y84627I0J2264D01*
G03X439067Y84378I-269J-296D01*
G02X438469Y83096I-2249J268D01*
G03X438557Y82478I292J-274D01*
G02X439666Y80531I-1156J-1948D01*
G02X435137I-2265J0D01*
G02X435750Y82080I2264J0D01*
G03X435663Y82698I-292J274D01*
G02X434554Y84646I1156J1948D01*
G02X436818Y86910I2265J0D01*
G02X438341Y86322I0J-2264D01*
G03X439007Y86570I269J296D01*
G02X439668Y87917I2249J-268D01*
G02X439115Y88793I1588J1614D01*
G03X438449Y88941I-378J-130D01*
G37*
G36*
G01X292654Y76897D02*
G02X291339Y76476I-1316J1843D01*
G02Y81005I0J2265D01*
G02X293034Y80241I0J-2264D01*
G03X293566Y80181I299J265D01*
G02X294882Y80602I1316J-1843D01*
G02X297146Y78337I0J-2265D01*
G02X295764Y76252I-2264J0D01*
G03Y75515I156J-369D01*
G02X297146Y73430I-882J-2085D01*
G02X294882Y71165I-2265J0D01*
G02X293285Y71824I0J2264D01*
G03X292753Y71853I-282J-284D01*
G02X291339Y71357I-1414J1769D01*
G02Y75887I0J2265D01*
G02X292936Y75227I0J-2264D01*
G03X293468Y75198I282J284D01*
G02X294000Y75515I1413J-1769D01*
G03Y76252I-156J369D01*
G02X293186Y76837I882J2086D01*
G03X292654Y76897I-299J-265D01*
G37*
G36*
G01X39701Y76248D02*
G02X38287Y78346I850J2099D01*
G02X42816I2265J0D01*
G02X41572Y76325I-2264J0D01*
G03X41602Y75597I180J-357D01*
G02X43008Y73702I-850J-2099D01*
G02X44981Y71457I-291J-2246D01*
G02X43372Y69289I-2265J0D01*
G03X43106Y68787I116J-383D01*
G02X43209Y68110I-2161J-677D01*
G02X38680I-2265J0D01*
G02X40289Y70278I2265J0D01*
G03X40556Y70780I-116J383D01*
G02X40461Y71253I2161J678D01*
G02X38488Y73498I291J2246D01*
G02X39731Y75520I2264J0D01*
G03X39701Y76248I-180J357D01*
G37*
G36*
G01X352862Y77546D02*
G02X352854Y77743I2256J198D01*
G02X357383I2265J0D01*
G02X356224Y75766I-2265J0D01*
G03X356266Y75048I195J-349D01*
G02X357663Y72956I-868J-2092D01*
G02X355398Y70691I-2265J0D01*
G02X353191Y72452I0J2264D01*
G03X352676Y72743I-390J-89D01*
G02X351969Y72629I-708J2151D01*
G02Y77158I0J2265D01*
G02X352389Y77119I0J-2265D01*
G03X352862Y77546I74J393D01*
G37*
G36*
G01X428455Y74746D02*
G02X427263Y76741I1073J1994D01*
G02X431792I2265J0D01*
G02X430600Y74746I-2265J0D01*
G03Y74042I189J-352D01*
G02X431792Y72047I-1073J-1994D01*
G02X427263I-2265J0D01*
G02X428455Y74042I2265J0D01*
G03Y74746I-189J352D01*
G37*
G36*
G01X98131Y75880D02*
G02X98129Y75984I2262J103D01*
G02X100394Y73720I2265J0D01*
G02X99477Y73913I0J2265D01*
G03X98916Y73529I-162J-366D01*
G02X98918Y73425I-2262J-103D01*
G01Y73402D01*
G02X100072Y71429I-1111J-1973D01*
G02X95543I-2265J0D01*
G01Y71452D01*
G02X94389Y73425I1111J1973D01*
G02X96654Y75690I2265J0D01*
G02X97570Y75496I0J-2265D01*
G03X98131Y75880I162J366D01*
G37*
G36*
G01X70876Y73971D02*
G02X70373Y75394I1762J1423D01*
G02X74902I2265J0D01*
G02X74596Y74257I-2265J0D01*
G02X75099Y72835I-1762J-1423D01*
G02X72835Y70570I-2265J0D01*
G02X71383Y71096I0J2265D01*
G03X70733Y70860I-256J-307D01*
G02X68504Y68995I-2229J400D01*
G02Y73524I0J2265D01*
G02X69956Y72998I0J-2265D01*
G03X70606Y73234I256J307D01*
G02X70876Y73971I2229J-400D01*
G37*
G36*
G01X273532Y73212D02*
G02X272441Y72932I-1091J1985D01*
G02X274706Y75197I0J2265D01*
G02X274696Y74990I-2265J0D01*
G03X275287Y74603I398J-37D01*
G02X276378Y74883I1091J-1985D01*
G02X274113Y72618I0J-2265D01*
G02X274123Y72825I2265J0D01*
G03X273532Y73212I-398J37D01*
G37*
G36*
G01X182322Y71393D02*
G02X180315Y70176I-2007J1047D01*
G02Y74706I0J2265D01*
G02X182322Y73489I0J-2264D01*
G03X183032I355J185D01*
G02X185039Y74706I2007J-1047D01*
G02Y70176I0J-2265D01*
G02X183032Y71393I0J2264D01*
G03X182322I-355J-185D01*
G37*
G36*
G01X403227Y65834D02*
G02X401969Y65452I-1259J1882D01*
G02Y69981I0J2265D01*
G02X404056Y68595I0J-2264D01*
G03X404647Y68418I369J155D01*
G02X405906Y68800I1259J-1882D01*
G02X408170Y66535I0J-2265D01*
G02X406769Y64442I-2264J0D01*
G03X406710Y63733I152J-370D01*
G02X407776Y61811I-1198J-1922D01*
G02X403247I-2265J0D01*
G02X404648Y63904I2264J0D01*
G03X404707Y64614I-152J370D01*
G02X403819Y65657I1198J1922D01*
G03X403227Y65834I-369J-155D01*
G37*
G36*
G01X516385Y60931D02*
G02X515058Y62992I938J2061D01*
G02X519587I2265J0D01*
G02X518438Y61021I-2265J0D01*
G03X518469Y60309I197J-348D01*
G02X519796Y58248I-938J-2061D01*
G02X515267I-2265J0D01*
G02X516416Y60219I2265J0D01*
G03X516385Y60931I-197J348D01*
G37*
G36*
G01X14737Y54014D02*
G02X14173Y53936I-564J2010D01*
G02Y58111I0J2087D01*
G02X16038Y56961I0J-2088D01*
G03X16712Y56896I357J180D01*
G02X18504Y57776I1792J-1384D01*
G02X20769Y55512I0J-2265D01*
G02X20243Y54062I-2264J0D01*
G03X20517Y53407I307J-256D01*
G02X22587Y51151I-194J-2256D01*
G02X21205Y49065I-2264J0D01*
G03Y48328I156J-369D01*
G02X22587Y46243I-882J-2085D01*
G02X20323Y43978I-2265J0D01*
G02X19800Y44040I1J2264D01*
G03X19561Y43902I-46J-195D01*
G02X17392Y42286I-2170J648D01*
G02Y46815I0J2265D01*
G02X17915Y46754I-1J-2264D01*
G03X18153Y46891I46J195D01*
G02X19441Y48328I2170J-648D01*
G03Y49065I-156J369D01*
G02X18153Y50503I882J2085D01*
G03X17915Y50640I-192J-57D01*
G02X17392Y50579I-524J2203D01*
G02X15127Y52843I0J2265D01*
G02X15228Y53511I2265J0D01*
G03X14737Y54014I-382J118D01*
G37*
G36*
G01X128676Y54670D02*
G02X128469Y55614I2058J944D01*
G02X132998I2265J0D01*
G02X132601Y54332I-2265J0D01*
G03X132868Y53711I330J-226D01*
G02X134777Y51474I-355J-2237D01*
G02X133395Y49389I-2264J0D01*
G03Y48652I156J-369D01*
G02X134777Y46567I-882J-2085D01*
G02X132513Y44302I-2265J0D01*
G02X131370Y44611I0J2265D01*
G03X131096Y44539I-101J-173D01*
G02X129134Y43405I-1962J1131D01*
G02Y47934I0J2265D01*
G02X130276Y47624I0J-2265D01*
G03X130550Y47697I101J173D01*
G02X131630Y48652I1962J-1131D01*
G03Y49389I-156J369D01*
G02X130724Y50085I882J2086D01*
G03X130450Y50126I-158J-123D01*
G02X129134Y49704I-1316J1843D01*
G02X126869Y51969I0J2265D01*
G02X128435Y54123I2265J0D01*
G03X128676Y54670I-123J380D01*
G37*
G36*
G01X501553Y53923D02*
G02X499939Y53248I-1614J1589D01*
G02Y57777I0J2265D01*
G02X501554Y57100I0J-2264D01*
G02X503168Y57776I1614J-1589D01*
G02X505334Y56171I0J-2265D01*
G03X506040Y56053I383J117D01*
G02X507874Y56989I1834J-1329D01*
G02X510139Y54724I0J-2265D01*
G02X509341Y52999I-2265J0D01*
G03X509309Y52729I129J-152D01*
G02X509745Y51394I-1829J-1336D01*
G02X508901Y49630I-2265J0D01*
G03Y49007I251J-311D01*
G02X509745Y47244I-1421J-1763D01*
G02X505216I-2265J0D01*
G02X506059Y49007I2265J0D01*
G03Y49630I-251J311D01*
G02X505216Y51394I1421J1763D01*
G02X506013Y53119I2265J0D01*
G03X506045Y53389I-129J152D01*
G02X505708Y54064I1829J1336D01*
G03X505002Y54182I-383J-117D01*
G02X503168Y53246I-1834J1329D01*
G02X501553Y53923I0J2264D01*
G37*
G36*
G01X392254Y56044D02*
G02X394094Y56989I1840J-1319D01*
G02X395939Y56039I0J-2265D01*
G03X396648Y56157I326J232D01*
G02X398819Y57776I2171J-645D01*
G02Y53247I0J-2265D01*
G02X396974Y54198I0J2265D01*
G03X396265Y54080I-326J-232D01*
G02X394094Y52460I-2171J645D01*
G02X392254Y53405I0J2264D01*
G03X391604I-325J-233D01*
G02X389764Y52460I-1840J1319D01*
G02Y56989I0J2265D01*
G02X391604Y56044I0J-2264D01*
G03X392254I325J233D01*
G37*
G36*
G01X308833Y53696D02*
G02X307480Y53247I-1353J1816D01*
G02Y57776I0J2265D01*
G02X309738Y55689I0J-2264D01*
G03X310376Y55399I399J31D01*
G02X311728Y55847I1353J-1816D01*
G02X313234Y55274I0J-2265D01*
G03X313496Y55271I133J149D01*
G02X314961Y55808I1464J-1728D01*
G02Y51279I0J-2265D01*
G02X313455Y51852I0J2265D01*
G03X313193Y51855I-133J-149D01*
G02X311728Y51318I-1464J1728D01*
G02X309471Y53406I0J2264D01*
G03X308833Y53696I-399J-31D01*
G37*
G36*
G01X299843Y53746D02*
G02X298425Y53247I-1418J1766D01*
G02Y57776I0J2265D01*
G02X300688Y55604I0J-2264D01*
G03X301338Y55309I400J17D01*
G02X302756Y55808I1418J-1766D01*
G02Y51279I0J-2265D01*
G02X300493Y53451I0J2264D01*
G03X299843Y53746I-400J-17D01*
G37*
G36*
G01X73127Y53989D02*
G02X72539Y55512I1676J1523D01*
G02X77068I2265J0D01*
G02X76217Y53743I-2265J0D01*
G03X76171Y53162I250J-312D01*
G02X76759Y51639I-1676J-1523D01*
G02X75377Y49554I-2264J0D01*
G03Y48817I156J-369D01*
G02X76759Y46731I-882J-2085D01*
G02X74495Y44467I-2265J0D01*
G02X72886Y45137I0J2265D01*
G03X72283Y45096I-284J-282D01*
G02X72220Y45017I-1808J1364D01*
G03X72262Y44465I309J-254D01*
G02X72954Y42913I-1395J-1552D01*
G02X68779I-2087J0D01*
G02X69164Y44121I2087J0D01*
G03X69083Y44669I-326J231D01*
G02X68208Y46457I1389J1788D01*
G02X70472Y48721I2265J0D01*
G02X72081Y48051I0J-2265D01*
G03X72685Y48092I284J282D01*
G02X73613Y48817I1810J-1361D01*
G03Y49554I-156J369D01*
G02X72665Y50305I882J2086D01*
G03X72061Y50355I-323J-236D01*
G02X70472Y49704I-1589J1613D01*
G02Y54233I0J2265D01*
G02X72302Y53302I0J-2264D01*
G03X72906Y53253I323J236D01*
G02X73081Y53408I1590J-1612D01*
G03X73127Y53989I-250J312D01*
G37*
G36*
G01X446513Y53709D02*
G02X444488Y52460I-2024J1015D01*
G02Y56989I0J2265D01*
G02X446513Y55739I0J-2265D01*
G03X447228I357J179D01*
G02X449252Y56989I2024J-1015D01*
G02Y52460I0J-2265D01*
G02X447228Y53709I0J2265D01*
G03X446513I-357J-179D01*
G37*
G36*
G01X473254Y52864D02*
G02X471260Y51672I-1994J1073D01*
G02Y56202I0J2265D01*
G02X473254Y55010I0J-2265D01*
G03X473959I352J189D01*
G02X475953Y56202I1994J-1073D01*
G02Y51672I0J-2265D01*
G02X473959Y52864I0J2265D01*
G03X473254I-352J-189D01*
G37*
G36*
G01X453652Y51155D02*
G02X452460Y53150I1073J1994D01*
G02X456989I2265J0D01*
G02X455797Y51155I-2265J0D01*
G03Y50451I189J-352D01*
G02X456989Y48456I-1073J-1994D01*
G02X452460I-2265J0D01*
G02X453652Y50451I2265J0D01*
G03Y51155I-189J352D01*
G37*
G36*
G01X108302Y53214D02*
G02X110566Y55414I2264J-65D01*
G02X112651Y54032I0J-2264D01*
G03X113388I369J156D01*
G02X115474Y55414I2085J-882D01*
G02Y50885I0J-2265D01*
G02X113388Y52267I0J2264D01*
G03X112651I-369J-156D01*
G02X110630Y50886I-2086J882D01*
G03X110436Y50692I6J-200D01*
G02X108172Y48492I-2264J65D01*
G02X105908Y50756I0J2265D01*
G02X108108Y53020I2265J0D01*
G03X108302Y53214I-6J200D01*
G37*
G36*
G01X53049Y51591D02*
G02X52569Y52985I1785J1393D01*
G02X54834Y55249I2265J0D01*
G02X56919Y53867I0J-2264D01*
G03X57656I369J156D01*
G02X59742Y55249I2085J-882D01*
G02X62006Y52985I0J-2265D01*
G02X61524Y51588I-2265J0D01*
G03X61598Y51022I315J-247D01*
G02X62501Y49213I-1362J-1809D01*
G02X57972I-2265J0D01*
G02X58454Y50609I2265J0D01*
G03X58380Y51176I-315J247D01*
G02X57656Y52102I1362J1809D01*
G03X56919I-369J-156D01*
G02X56191Y51172I-2086J882D01*
G03X56116Y50606I240J-320D01*
G02X56595Y49213I-1785J-1393D01*
G02X52066I-2265J0D01*
G02X52973Y51025I2265J0D01*
G03X53049Y51591I-240J320D01*
G37*
G36*
G01X292052Y48886D02*
G02X290826Y50787I861J1901D01*
G02X295001I2087J0D01*
G02X293775Y48886I-2087J0D01*
G03X293786Y48153I165J-364D01*
G02X295178Y46063I-872J-2090D01*
G02X294502Y44449I-2264J0D01*
G02X295178Y42835I-1588J-1614D01*
G02X290649I-2265J0D01*
G02X291325Y44449I2264J0D01*
G02X290649Y46063I1588J1614D01*
G02X292041Y48153I2265J0D01*
G03X292052Y48886I-154J369D01*
G37*
G36*
G01X83223Y48260D02*
G02X82600Y49820I1641J1560D01*
G02X84864Y52085I2265J0D01*
G02X87034Y50469I0J-2264D01*
G03X87272Y50331I192J57D01*
G02X87795Y50393I524J-2203D01*
G02X90060Y48128I0J-2265D01*
G02X88678Y46043I-2264J0D01*
G03Y45306I156J-369D01*
G02X90060Y43220I-882J-2085D01*
G02X87795Y40956I-2265J0D01*
G02X85531Y43164I0J2264D01*
G03X85000Y43531I-400J-10D01*
G02X84252Y43405I-747J2138D01*
G02X81987Y45669I0J2265D01*
G02X83131Y47637I2265J0D01*
G03X83223Y48260I-198J348D01*
G37*
G36*
G01X327562Y44928D02*
G03X328155Y44929I296J269D01*
G02X329834Y45674I1680J-1520D01*
G02X331900Y44339I0J-2265D01*
G03X332622Y44323I365J164D01*
G02X334646Y45572I2024J-1016D01*
G02Y41043I0J-2265D01*
G02X332580Y42378I0J2265D01*
G03X331858Y42394I-365J-164D01*
G02X331663Y42074I-2024J1016D01*
G03X331736Y41527I323J-236D01*
G02X332580Y39764I-1421J-1763D01*
G02X331592Y37893I-2265J0D01*
G03X331533Y37282I226J-330D01*
G02X332186Y35691I-1611J-1591D01*
G02X327657I-2265J0D01*
G02X328644Y37561I2265J0D01*
G03X328704Y38173I-226J330D01*
G02X328050Y39764I1611J1591D01*
G02X328486Y41099I2264J0D01*
G03X328413Y41646I-323J236D01*
G02X328158Y41887I1421J1763D01*
G03X327565Y41886I-296J-269D01*
G02X325886Y41141I-1680J1520D01*
G02Y45670I0J2265D01*
G02X327562Y44928I0J-2264D01*
G37*
G36*
G01X113425Y41866D02*
G02X111417Y40649I-2007J1047D01*
G02Y45178I0J2265D01*
G02X113425Y43961I0J-2264D01*
G03X114134I355J185D01*
G02X116142Y45178I2007J-1047D01*
G02Y40649I0J-2265D01*
G02X114134Y41866I0J2264D01*
G03X113425I-355J-185D01*
G37*
G36*
G01X182976Y35106D02*
G02X181594Y37191I882J2085D01*
G02X186123I2265J0D01*
G02X184741Y35106I-2264J0D01*
G03Y34369I156J-369D01*
G02X186123Y32283I-882J-2085D01*
G02X186122Y32206I-2265J-5D01*
G03X186292Y32001I200J-7D01*
G02X188221Y29761I-336J-2240D01*
G02X183692I-2265J0D01*
G02X183693Y29839I2265J5D01*
G03X183523Y30044I-200J7D01*
G02X181594Y32283I336J2240D01*
G02X182976Y34369I2264J0D01*
G03Y35106I-156J369D01*
G37*
G36*
G01X15369Y37833D02*
G03X15930I281J285D01*
G02X17520Y38485I1589J-1613D01*
G02Y33956I0J-2265D01*
G02X15930Y34607I0J2264D01*
G03X15369I-281J-285D01*
G02X13780Y33956I-1589J1613D01*
G02X13283Y34011I1J2265D01*
G03X12796Y33620I-87J-390D01*
G01Y25197D01*
G03X15748Y22245I2952J0D01*
G01X19463D01*
G02X23056I1796J-1379D01*
G01X25839D01*
G02X27782Y23347I1944J-1162D01*
G02X28306Y23286I-1J-2264D01*
G03X28544Y23423I46J195D01*
G02X29831Y24861I2170J-648D01*
G03Y25598I-156J369D01*
G02X28544Y27035I882J2085D01*
G03X28306Y27172I-192J-57D01*
G02X27782Y27111I-524J2203D01*
G02Y31640I0J2265D01*
G02X29952Y30024I0J-2264D01*
G03X30190Y29886I192J57D01*
G02X30713Y29948I524J-2203D01*
G02X32978Y27683I0J-2265D01*
G02X31596Y25598I-2264J0D01*
G03Y24861I156J-369D01*
G02X32978Y22775I-882J-2085D01*
G02X32975Y22665I-2265J1D01*
G03X33375Y22245I400J-20D01*
G01X45669D01*
G03X48621Y25197I0J2952D01*
G01Y29134D01*
G02X53543Y34056I4922J0D01*
G01X53713D01*
X53773Y34128D01*
G02X55512Y34942I1739J-1451D01*
G02X57308Y34056I0J-2265D01*
G01X64961D01*
G02X68769Y32253I0J-4922D01*
G03X69346Y32209I310J253D01*
G02X70866Y32795I1520J-1678D01*
G02Y28266I0J-2265D01*
G02X70370Y28321I1J2265D01*
G03X69883Y27931I-87J-390D01*
G01Y3937D01*
G02X69882Y3867I-4922J-8D01*
G03X70274Y3806I200J-3D01*
G02X72441Y5414I2167J-656D01*
G02Y885I0J-2265D01*
G02X70343Y2297I0J2265D01*
G03X69596Y2281I-371J-151D01*
G02X64961Y-985I-4635J1656D01*
G01X55410D01*
G03X55011Y-1421I0J-400D01*
G02X55020Y-1623I-2255J-202D01*
G02X53638Y-3708I-2264J0D01*
G03Y-4445I156J-369D01*
G02X55020Y-6531I-882J-2085D01*
G02X53979Y-8436I-2264J0D01*
G03X53861Y-8993I216J-337D01*
G02X54233Y-10236I-1893J-1244D01*
G02X49704I-2265J0D01*
G02X50745Y-8331I2264J0D01*
G03X50863Y-7774I-216J337D01*
G02X50491Y-6531I1893J1244D01*
G02X51874Y-4445I2264J0D01*
G03Y-3708I-156J369D01*
G02X50491Y-1623I882J2085D01*
G02X50500Y-1421I2265J0D01*
G03X50102Y-985I-398J36D01*
G01X42571D01*
X42544Y-993D01*
G02X41910Y-1083I-634J2174D01*
G02X41277Y-993I0J2264D01*
G01X41249Y-985D01*
X30822D01*
G02X22722I-4050J1536D01*
G01X19913D01*
G02X19630Y-1178I-1409J1773D01*
G03X19511Y-1769I199J-347D01*
G02X19981Y-3150I-1795J-1381D01*
G02X15452I-2265J0D01*
G02X16089Y-1575I2264J0D01*
G03X15848Y-900I-288J278D01*
G02X8423Y2617I1475J12711D01*
G03X7761Y2219I-278J-287D01*
G02X8072Y0I-7761J-2219D01*
G02X-8072I-8072J0D01*
G02X-3794Y7124I8071J0D01*
G03X-3798Y7832I-188J353D01*
G02X-5020Y9843I1042J2010D01*
G02X-491I2265J0D01*
G02X-821Y8666I-2265J0D01*
G03X-457Y8059I342J-208D01*
G02X0Y8072I458J-8059D01*
G02X4901Y6414I0J-8072D01*
G03X5513Y6885I243J318D01*
G02X4527Y11811I11810J4925D01*
G01Y35039D01*
G02X7480Y37993I2954J0D01*
G01X9843D01*
G02X11454Y37515I0J-2954D01*
G03X11988Y37606I218J335D01*
G02X13780Y38485I1792J-1385D01*
G02X15369Y37833I0J-2264D01*
G37*
G36*
G01X81380Y33165D02*
G02X83643Y35335I2263J-94D01*
G02X85907Y33071I0J-2265D01*
G02X85627Y31980I-2265J0D01*
G03X86014Y31389I350J-193D01*
G02X86220Y31398I207J-2255D01*
G02X87977Y30563I0J-2265D01*
G03X88598I310J252D01*
G02X90354Y31398I1757J-1429D01*
G02Y26869I0J-2265D01*
G02X88598Y27705I0J2265D01*
G03X87977I-310J-252D01*
G02X86220Y26869I-1757J1429D01*
G02X83956Y29134I0J2265D01*
G02X84236Y30225I2265J0D01*
G03X83849Y30816I-350J193D01*
G02X83643Y30806I-207J2255D01*
G02X83412Y30818I0J2265D01*
G03X82971Y30437I-41J-398D01*
G02X80709Y28266I-2263J94D01*
G02Y32795I0J2265D01*
G02X80939Y32783I0J-2265D01*
G03X81380Y33165I41J398D01*
G37*
G36*
G01X142951Y33874D02*
G03X143531Y33884I285J281D01*
G02X145202Y34621I1671J-1528D01*
G02X147467Y32356I0J-2265D01*
G02X146369Y30415I-2265J0D01*
G03Y29730I206J-343D01*
G02X147467Y27789I-1167J-1941D01*
G02X147450Y27509I-2265J0D01*
G03X147815Y27061I397J-50D01*
G02X149436Y26179I-177J-2258D01*
G03X150072I318J243D01*
G02X151870Y27068I1798J-1376D01*
G02Y22539I0J-2265D01*
G02X150072Y23427I0J2264D01*
G03X149436I-318J-243D01*
G02X147638Y22539I-1798J1376D01*
G02X145373Y24803I0J2265D01*
G02X145391Y25083I2265J0D01*
G03X145025Y25531I-397J50D01*
G02X143653Y26137I177J2258D01*
G03X143073Y26103I-274J-292D01*
G02X141339Y25294I-1734J1456D01*
G02X139074Y27559I0J2265D01*
G02X140291Y29567I2264J0D01*
G03Y30276I-185J355D01*
G02X139074Y32283I1047J2007D01*
G02X141339Y34548I2265J0D01*
G02X142951Y33874I0J-2265D01*
G37*
G36*
G01X125261Y32489D02*
G03X125816Y32548I247J314D01*
G02X127559Y33367I1743J-1446D01*
G02Y28838I0J-2265D01*
G02X126160Y29322I0J2265D01*
G03X125605Y29263I-247J-314D01*
G02X125029Y28768I-1743J1446D01*
G03Y28082I206J-343D01*
G02X125502Y27703I-1167J-1941D01*
G03X126057Y27679I290J276D01*
G02X127559Y28249I1502J-1695D01*
G02Y23720I0J-2265D01*
G02X125919Y24423I0J2264D01*
G03X125364Y24446I-290J-276D01*
G02X123862Y23877I-1502J1695D01*
G02X121598Y26141I0J2265D01*
G02X122695Y28082I2265J0D01*
G03Y28768I-206J343D01*
G02X121598Y30709I1167J1941D01*
G02X123862Y32973I2265J0D01*
G02X125261Y32489I0J-2265D01*
G37*
G36*
G01X113425Y28086D02*
G02X111417Y26869I-2007J1047D01*
G02Y31398I0J2265D01*
G02X113425Y30181I0J-2264D01*
G03X114134I355J185D01*
G02X116142Y31398I2007J-1047D01*
G02Y26869I0J-2265D01*
G02X114134Y28086I0J2264D01*
G03X113425I-355J-185D01*
G37*
G36*
G01X177464Y14056D02*
G02X176082Y16142I882J2085D01*
G02X178254Y18404I2264J0D01*
G03X178446Y18596I-8J200D01*
G02X180709Y20769I2263J-92D01*
G02X182973Y18504I0J-2265D01*
G02X180801Y16241I-2264J0D01*
G03X180609Y16050I8J-200D01*
G02X179229Y14056I-2263J92D01*
G03Y13319I156J-369D01*
G02X180405Y12178I-882J-2086D01*
G02X181382Y12399I977J-2043D01*
G02Y7870I0J-2265D01*
G02X179324Y9191I0J2265D01*
G02X178346Y8969I-977J2043D01*
G02X176082Y11234I0J2265D01*
G02X177464Y13319I2264J0D01*
G03Y14056I-156J369D01*
G37*
G36*
G01X262174Y11909D02*
G02X259940Y14173I31J2264D01*
G02X264469I2265J0D01*
G02X264214Y13130I-2264J0D01*
G03X264564Y12545I355J-185D01*
G02X266797Y10281I-31J-2264D01*
G02X266121Y8667I-2264J0D01*
G02X266797Y7052I-1588J-1614D01*
G02X264533Y4788I-2265J0D01*
G02X263674Y4957I0J2265D01*
G03X263147Y4726I-152J-370D01*
G02X261024Y3247I-2124J786D01*
G02X258801Y5077I0J2265D01*
G03X258578Y5237I-196J-38D01*
G02X258268Y5216I-310J2243D01*
G02X256651Y5894I0J2264D01*
G03X256000Y5776I-285J-280D01*
G02X253929Y4428I-2071J917D01*
G02Y8957I0J2265D01*
G02X255546Y8279I0J-2264D01*
G03X256197Y8397I285J280D01*
G02X258268Y9745I2071J-917D01*
G02X260490Y7915I0J-2265D01*
G03X260714Y7755I196J38D01*
G02X261024Y7776I310J-2243D01*
G02X261882Y7607I0J-2265D01*
G03X262409Y7839I152J370D01*
G02X262944Y8667I2124J-786D01*
G02X262268Y10281I1588J1614D01*
G02X262523Y11324I2264J0D01*
G03X262174Y11909I-355J185D01*
G37*
G36*
G01X205296Y6273D02*
G02X203913Y8359I882J2085D01*
G02X208443I2265J0D01*
G02X207060Y6273I-2264J0D01*
G03Y5536I156J-369D01*
G02X208443Y3451I-882J-2085D01*
G02X203913I-2265J0D01*
G02X205296Y5536I2264J0D01*
G03Y6273I-156J369D01*
G37*
G36*
G01X126564Y4570D02*
G02X128150Y5219I1586J-1616D01*
G02X128673Y5157I1J-2265D01*
G03X128913Y5301I46J195D01*
G02X131102Y6989I2190J-577D01*
G02Y2460I0J-2265D01*
G02X130580Y2521I-1J2265D01*
G03X130340Y2377I-46J-195D01*
G02X129737Y1339I-2190J577D01*
G02X130265Y529I-1590J-1613D01*
G02X131102Y690I838J-2104D01*
G02Y-3839I0J-2265D01*
G02X128985Y-2378I0J2265D01*
G02X128147Y-2539I-838J2104D01*
G02X125883Y-274I0J2265D01*
G02X126560Y1341I2264J0D01*
G02X125888Y2843I1590J1613D01*
G03X125208Y3108I-400J-20D01*
G02X123622Y2460I-1586J1616D01*
G02Y6989I0J2265D01*
G02X125884Y4836I0J-2265D01*
G03X126564Y4570I400J20D01*
G37*
G36*
G01X109942Y-695D02*
G02X112205Y1477I2263J-92D01*
G02Y-3052I0J-2265D01*
G02X110787Y-2553I0J2265D01*
G03X110137Y-2848I-250J-312D01*
G02X107874Y-5020I-2263J92D01*
G02Y-491I0J2265D01*
G02X109292Y-990I0J-2265D01*
G03X109942Y-695I250J312D01*
G37*
G36*
G01X203111Y-7220D02*
G02X205118Y-6003I2007J-1047D01*
G02X207209Y-7399I0J-2265D01*
G03X207948I369J153D01*
G02X210039Y-6003I2091J-869D01*
G02Y-10532I0J-2265D01*
G02X207948Y-9137I0J2265D01*
G03X207209I-369J-153D01*
G02X205118Y-10532I-2091J869D01*
G02X203111Y-9315I0J2264D01*
G03X202401I-355J-185D01*
G02X200394Y-10532I-2007J1047D01*
G02X198780Y-9856I0J2264D01*
G02X197165Y-10532I-1614J1588D01*
G02Y-6003I0J2265D01*
G02X198780Y-6680I0J-2264D01*
G02X200394Y-6003I1614J-1588D01*
G02X202401Y-7220I0J-2264D01*
G03X203111I355J185D01*
G37*
G36*
G01X236216Y-14498D02*
G02X235924Y-13386I1973J1112D01*
G02X238189Y-15650I2265J0D01*
G02X237820Y-15620I0J2264D01*
G03X237406Y-16211I-65J-395D01*
G02X237698Y-17323I-1973J-1112D01*
G02X235433Y-15058I-2265J0D01*
G02X235802Y-15089I0J-2264D01*
G03X236216Y-14498I65J395D01*
G37*
G36*
G01X40197Y-15226D02*
G02X39252Y-13386I1319J1840D01*
G02X43781I2265J0D01*
G02X42836Y-15226I-2264J0D01*
G03Y-15876I233J-325D01*
G02X43781Y-17717I-1319J-1840D01*
G02X41517Y-19981I-2265J0D01*
G02X40140Y-19515I0J2264D01*
G03X39522Y-19692I-243J-318D01*
G02X37402Y-21162I-2121J795D01*
G01X37391D01*
G03X36989Y-21592I-2J-400D01*
G02X36996Y-21759I-2258J-169D01*
G02X35613Y-23844I-2264J0D01*
G03Y-24581I156J-369D01*
G02X36996Y-26667I-882J-2085D01*
G02X36987Y-26860I-2265J0D01*
G03X37447Y-27290I398J-34D01*
G02X37795Y-27263I347J-2238D01*
G02X35531Y-29528I0J-2265D01*
G02X35539Y-29334I2265J0D01*
G03X35079Y-28904I-398J34D01*
G02X34731Y-28931I-347J2238D01*
G02X32467Y-26667I0J2265D01*
G02X33849Y-24581I2264J0D01*
G03Y-23844I-156J369D01*
G02X32467Y-21759I882J2085D01*
G02X34731Y-19494I2265J0D01*
G01X34742D01*
G03X35143Y-19065I2J400D01*
G02X35137Y-18898I2258J169D01*
G02X37402Y-16633I2265J0D01*
G02X38778Y-17100I0J-2264D01*
G03X39396Y-16922I243J318D01*
G02X40197Y-15876I2121J-795D01*
G03Y-15226I-233J325D01*
G37*
G36*
G01X166647Y-18844D02*
G02X168898Y-16830I2251J-251D01*
G02Y-21359I0J-2265D01*
G02X167468Y-20850I0J2264D01*
G03X166818Y-21117I-252J-310D01*
G02X164567Y-23131I-2251J251D01*
G02Y-18602I0J2265D01*
G02X165997Y-19110I0J-2264D01*
G03X166647Y-18844I252J310D01*
G37*
G36*
G01X278213Y-37014D02*
G02X275984Y-38879I-2229J400D01*
G02Y-34350I0J2265D01*
G02X277436Y-34876I0J-2265D01*
G03X278086Y-34640I256J307D01*
G02X280315Y-32775I2229J-400D01*
G02Y-37304I0J-2265D01*
G02X278863Y-36778I0J2265D01*
G03X278213Y-37014I-256J-307D01*
G37*
G36*
G01X255616Y230462D02*
G03X255557Y231112I-260J304D01*
G02X254428Y233071I1136J1959D01*
G02X258957I2265J0D01*
G02X258164Y231349I-2264J0D01*
G03X258223Y230699I260J-304D01*
G02X259351Y228740I-1136J-1959D01*
G02X254822I-2265J0D01*
G02X255616Y230462I2264J0D01*
G37*
G36*
G01X505278Y199886D02*
G03X504737Y200244I-400J-17D01*
G02X503937Y200098I-800J2119D01*
G02Y204627I0J2265D01*
G02X506200Y202456I0J-2265D01*
G03X506741Y202099I400J17D01*
G02X507541Y202245I800J-2119D01*
G02Y197716I0J-2265D01*
G02X505278Y199886I0J2265D01*
G37*
G36*
G01X512600Y194448D02*
G03X512220Y194980I-378J132D01*
G01X512205D01*
G02X514469Y197244I0J2265D01*
G02X514343Y196497I-2265J0D01*
G03X514723Y195965I378J-132D01*
G01X514738D01*
G02X512474Y193701I0J-2265D01*
G02X512600Y194448I2265J0D01*
G37*
G36*
G01X490280Y148559D02*
G03X490287Y149291I-158J367D01*
G02X487794Y153150I1741J3859D01*
G02X496261I4233J0D01*
G02X493769Y149291I-4233J0D01*
G03X493775Y148559I164J-364D01*
G02X496457Y144488I-1748J-4071D01*
G02X487598I-4430J0D01*
G02X490280Y148559I4430J0D01*
G37*
G36*
G01X321973D02*
G03X321980Y149291I-158J367D01*
G02X319487Y153150I1741J3859D01*
G02X327954I4233J0D01*
G02X325461Y149291I-4233J0D01*
G03X325468Y148559I164J-364D01*
G02X328150Y144488I-1748J-4071D01*
G02X319291I-4430J0D01*
G02X321973Y148559I4430J0D01*
G37*
G36*
G01X79256D02*
G03X79263Y149291I-158J367D01*
G02X76771Y153150I1741J3859D01*
G02X85237I4233J0D01*
G02X82745Y149291I-4233J0D01*
G03X82752Y148559I164J-364D01*
G02X85434Y144488I-1748J-4071D01*
G02X76574I-4430J0D01*
G02X79256Y148559I4430J0D01*
G37*
G36*
G01X467785Y148742D02*
G03X468435I325J233D01*
G02X472116I1840J-1319D01*
G03X472766I325J233D01*
G02X474606Y149687I1840J-1319D01*
G02Y145157I0J-2265D01*
G02X472766Y146102I0J2264D01*
G03X472116I-325J-233D01*
G02X468435I-1840J1319D01*
G03X467785I-325J-233D01*
G02X464105I-1840J1319D01*
G03X463454I-325J-233D01*
G02X459774I-1840J1319D01*
G03X459124I-325J-233D01*
G02X455443I-1840J1319D01*
G03X454793I-325J-233D01*
G02X452953Y145157I-1840J1319D01*
G02Y149687I0J2265D01*
G02X454793Y148742I0J-2264D01*
G03X455443I325J233D01*
G02X459124I1840J-1319D01*
G03X459774I325J233D01*
G02X463454I1840J-1319D01*
G03X464105I325J233D01*
G02X467785I1840J-1319D01*
G37*
G36*
G01X411683D02*
G03X412333I325J233D01*
G02X414173Y149687I1840J-1319D01*
G02X416013Y148742I0J-2264D01*
G03X416664I325J233D01*
G02X418504Y149687I1840J-1319D01*
G02Y145157I0J-2265D01*
G02X416664Y146102I0J2264D01*
G03X416013I-325J-233D01*
G02X414173Y145157I-1840J1319D01*
G02X412333Y146102I0J2264D01*
G03X411683I-325J-233D01*
G02X408002I-1840J1319D01*
G03X407352I-325J-233D01*
G02X403672I-1840J1319D01*
G03X403021I-325J-233D01*
G02X399341I-1840J1319D01*
G03X398691I-325J-233D01*
G02X396850Y145157I-1840J1319D01*
G02Y149687I0J2265D01*
G02X398691Y148742I0J-2264D01*
G03X399341I325J233D01*
G02X403021I1840J-1319D01*
G03X403672I325J233D01*
G02X407352I1840J-1319D01*
G03X408002I325J233D01*
G02X411683I1840J-1319D01*
G37*
G36*
G01X355580D02*
G03X356231I325J233D01*
G02X359911I1840J-1319D01*
G03X360561I325J233D01*
G02X362402Y149687I1840J-1319D01*
G02Y145157I0J-2265D01*
G02X360561Y146102I0J2264D01*
G03X359911I-325J-233D01*
G02X356231I-1840J1319D01*
G03X355580I-325J-233D01*
G02X351900I-1840J1319D01*
G03X351250I-325J-233D01*
G02X347569I-1840J1319D01*
G03X346919I-325J-233D01*
G02X343239I-1840J1319D01*
G03X342588I-325J-233D01*
G02X340748Y145157I-1840J1319D01*
G02Y149687I0J2265D01*
G02X342588Y148742I0J-2264D01*
G03X343239I325J233D01*
G02X346919I1840J-1319D01*
G03X347569I325J233D01*
G02X351250I1840J-1319D01*
G03X351900I325J233D01*
G02X355580I1840J-1319D01*
G37*
G36*
G01X299478D02*
G03X300128I325J233D01*
G02X303809I1840J-1319D01*
G03X304459I325J233D01*
G02X306299Y149687I1840J-1319D01*
G02Y145157I0J-2265D01*
G02X304459Y146102I0J2264D01*
G03X303809I-325J-233D01*
G02X300128I-1840J1319D01*
G03X299478I-325J-233D01*
G02X295798I-1840J1319D01*
G03X295147I-325J-233D01*
G02X291467I-1840J1319D01*
G03X290817I-325J-233D01*
G02X287136I-1840J1319D01*
G03X286486I-325J-233D01*
G02X284646Y145157I-1840J1319D01*
G02Y149687I0J2265D01*
G02X286486Y148742I0J-2264D01*
G03X287136I325J233D01*
G02X290817I1840J-1319D01*
G03X291467I325J233D01*
G02X295147I1840J-1319D01*
G03X295798I325J233D01*
G02X299478I1840J-1319D01*
G37*
G36*
G01X224872D02*
G03X225522I325J233D01*
G02X229202I1840J-1319D01*
G03X229853I325J233D01*
G02X231693Y149687I1840J-1319D01*
G02Y145157I0J-2265D01*
G02X229853Y146102I0J2264D01*
G03X229202I-325J-233D01*
G02X225522I-1840J1319D01*
G03X224872I-325J-233D01*
G02X221191I-1840J1319D01*
G03X220541I-325J-233D01*
G02X216861I-1840J1319D01*
G03X216210I-325J-233D01*
G02X212530I-1840J1319D01*
G03X211880I-325J-233D01*
G02X211543Y145728I-1840J1319D01*
G03X211566Y145111I266J-299D01*
G02X212461Y143307I-1369J-1804D01*
G02X207932I-2265J0D01*
G02X208694Y145001I2264J0D01*
G03X208670Y145619I-266J299D01*
G02X207775Y147422I1369J1804D01*
G02X210039Y149687I2265J0D01*
G02X211880Y148742I0J-2264D01*
G03X212530I325J233D01*
G02X216210I1840J-1319D01*
G03X216861I325J233D01*
G02X220541I1840J-1319D01*
G03X221191I325J233D01*
G02X224872I1840J-1319D01*
G37*
G36*
G01X168769D02*
G03X169420I325J233D01*
G02X173100I1840J-1319D01*
G03X173750I325J233D01*
G02X175591Y149687I1840J-1319D01*
G02Y145157I0J-2265D01*
G02X173750Y146102I0J2264D01*
G03X173100I-325J-233D01*
G02X169420I-1840J1319D01*
G03X168769I-325J-233D01*
G02X165089I-1840J1319D01*
G03X164439I-325J-233D01*
G02X160758I-1840J1319D01*
G03X160108I-325J-233D01*
G02X156428I-1840J1319D01*
G03X155777I-325J-233D01*
G02X153937Y145157I-1840J1319D01*
G02Y149687I0J2265D01*
G02X155777Y148742I0J-2264D01*
G03X156428I325J233D01*
G02X160108I1840J-1319D01*
G03X160758I325J233D01*
G02X164439I1840J-1319D01*
G03X165089I325J233D01*
G02X168769I1840J-1319D01*
G37*
G36*
G01X112667D02*
G03X113317I325J233D01*
G02X116998I1840J-1319D01*
G03X117648I325J233D01*
G02X119488Y149687I1840J-1319D01*
G02Y145157I0J-2265D01*
G02X117648Y146102I0J2264D01*
G03X116998I-325J-233D01*
G02X113317I-1840J1319D01*
G03X112667I-325J-233D01*
G02X108987I-1840J1319D01*
G03X108336I-325J-233D01*
G02X104656I-1840J1319D01*
G03X104006I-325J-233D01*
G02X102165Y145157I-1840J1319D01*
G02X100325Y146102I0J2264D01*
G03X99675I-325J-233D01*
G02X97835Y145157I-1840J1319D01*
G02Y149687I0J2265D01*
G02X99675Y148742I0J-2264D01*
G03X100325I325J233D01*
G02X102165Y149687I1840J-1319D01*
G02X104006Y148742I0J-2264D01*
G03X104656I325J233D01*
G02X108336I1840J-1319D01*
G03X108987I325J233D01*
G02X112667I1840J-1319D01*
G37*
G36*
G01X56565D02*
G03X57215I325J233D01*
G02X60895I1840J-1319D01*
G03X61546I325J233D01*
G02X63386Y149687I1840J-1319D01*
G02Y145157I0J-2265D01*
G02X61546Y146102I0J2264D01*
G03X60895I-325J-233D01*
G02X57215I-1840J1319D01*
G03X56565I-325J-233D01*
G02X52884I-1840J1319D01*
G03X52234I-325J-233D01*
G02X48554I-1840J1319D01*
G03X47903I-325J-233D01*
G02X44223I-1840J1319D01*
G03X43572I-325J-233D01*
G02X41732Y145157I-1840J1319D01*
G02Y149687I0J2265D01*
G02X43572Y148742I0J-2264D01*
G03X44223I325J233D01*
G02X47903I1840J-1319D01*
G03X48554I325J233D01*
G02X52234I1840J-1319D01*
G03X52884I325J233D01*
G02X56565I1840J-1319D01*
G37*
G36*
G01X498278Y139207D02*
G03X498574Y139680I-96J388D01*
G02X498523Y140157I2214J477D01*
G02X503052I2265J0D01*
G02X501328Y137958I-2265J0D01*
G03X501033Y137485I96J-388D01*
G02X501083Y137008I-2214J-477D01*
G02X496554I-2265J0D01*
G02X498278Y139207I2265J0D01*
G37*
G36*
G01X263410Y134188D02*
G03X262800Y134483I-398J-43D01*
G02X261597Y134137I-1203J1918D01*
G02Y138667I0J2265D01*
G02X263643Y137373I0J-2264D01*
G03X264316Y137294I361J172D01*
G02X267618Y138879I3302J-2648D01*
G02Y130413I0J-4233D01*
G02X263410Y134188I0J4233D01*
G37*
G36*
G01X450748Y133104D02*
G02X452323Y133742I1575J-1627D01*
G02Y129213I0J-2265D01*
G02X450748Y129850I0J2264D01*
G02X449173Y129213I-1575J1627D01*
G02Y133742I0J2265D01*
G02X450748Y133104I0J-2264D01*
G37*
G36*
G01X394646D02*
G02X396220Y133742I1575J-1627D01*
G02Y129213I0J-2265D01*
G02X394646Y129850I0J2264D01*
G02X393071Y129213I-1575J1627D01*
G02Y133742I0J2265D01*
G02X394646Y133104I0J-2264D01*
G37*
G36*
G01X338543D02*
G02X340118Y133742I1575J-1627D01*
G02Y129213I0J-2265D01*
G02X338543Y129850I0J2264D01*
G02X336969Y129213I-1575J1627D01*
G02Y133742I0J2265D01*
G02X338543Y133104I0J-2264D01*
G37*
G36*
G01X282441D02*
G02X284016Y133742I1575J-1627D01*
G02Y129213I0J-2265D01*
G02X282441Y129850I0J2264D01*
G02X280866Y129213I-1575J1627D01*
G02Y133742I0J2265D01*
G02X282441Y133104I0J-2264D01*
G37*
G36*
G01X206669Y131659D02*
G03X207195Y131952I135J377D01*
G02X209409Y133742I2214J-475D01*
G02Y129213I0J-2265D01*
G02X208646Y129345I0J2265D01*
G03X208120Y129053I-135J-377D01*
G02X205906Y127263I-2214J475D01*
G02Y131792I0J2265D01*
G02X206669Y131659I0J-2265D01*
G37*
G36*
G01X151732Y133104D02*
G02X153307Y133742I1575J-1627D01*
G02Y129213I0J-2265D01*
G02X151732Y129850I0J2264D01*
G02X150157Y129213I-1575J1627D01*
G02Y133742I0J2265D01*
G02X151732Y133104I0J-2264D01*
G37*
G36*
G01X95630D02*
G02X97205Y133742I1575J-1627D01*
G02Y129213I0J-2265D01*
G02X95630Y129850I0J2264D01*
G02X94055Y129213I-1575J1627D01*
G02Y133742I0J2265D01*
G02X95630Y133104I0J-2264D01*
G37*
G36*
G01X39528D02*
G02X41102Y133742I1575J-1627D01*
G02Y129213I0J-2265D01*
G02X39528Y129850I0J2264D01*
G02X37953Y129213I-1575J1627D01*
G02Y133742I0J2265D01*
G02X39528Y133104I0J-2264D01*
G37*
G36*
G01X354400Y129411D02*
G03X353868I-266J-299D01*
G02X352362Y128838I-1506J1691D01*
G02Y133367I0J2265D01*
G02X353868Y132794I0J-2264D01*
G03X354400I266J299D01*
G02X355906Y133367I1506J-1691D01*
G02X358020Y131911I0J-2264D01*
G03X358501Y131669I374J143D01*
G02X359105Y131751I603J-2183D01*
G02Y127222I0J-2265D01*
G02X356990Y128677I0J2264D01*
G03X356509Y128920I-374J-143D01*
G02X355906Y128838I-603J2183D01*
G02X354400Y129411I0J2264D01*
G37*
G36*
G01X260491Y127824D02*
G03Y128475I-233J325D01*
G02X259546Y130315I1319J1840D01*
G02X264076I2265J0D01*
G02X263131Y128475I-2264J0D01*
G03Y127824I233J-325D01*
G02X264076Y125984I-1319J-1840D01*
G02X259546I-2265J0D01*
G02X260491Y127824I2264J0D01*
G37*
G36*
G01X512752Y117216D02*
G03X512606Y117748I-352J190D01*
G02X511515Y119685I1173J1937D01*
G02X516044I2265J0D01*
G02X515773Y118611I-2264J0D01*
G03X515918Y118079I352J-190D01*
G02X517009Y116142I-1173J-1937D01*
G02X512480I-2265J0D01*
G02X512752Y117216I2264J0D01*
G37*
G36*
G01X384479Y104691D02*
G03X383990Y104373I-96J-388D01*
G02X379823Y100885I-4167J745D01*
G02Y109351I0J4233D01*
G02X382667Y108253I0J-4233D01*
G03X383249Y108300I269J296D01*
G02X385020Y109154I1772J-1411D01*
G02Y104625I0J-2265D01*
G02X384479Y104691I0J2265D01*
G37*
G36*
G01X141727Y104657D02*
G03X141267Y104337I-67J-394D01*
G02X137106Y100885I-4160J781D01*
G02Y109351I0J4233D01*
G02X139847Y108344I0J-4233D01*
G03X140406Y108385I259J305D01*
G02X142107Y109154I1701J-1495D01*
G02Y104625I0J-2265D01*
G02X141727Y104657I1J2265D01*
G37*
G36*
G01X468208Y96749D02*
G02X463976Y92617I-4232J101D01*
G02X459743Y96850I0J4233D01*
G02X459799Y97534I4233J1D01*
G02X457932Y99764I398J2230D01*
G02X460197Y102028I2265J0D01*
G02X462252Y100716I0J-2265D01*
G02X463976Y101083I1725J-3866D01*
G02X466902Y99910I0J-4233D01*
G03X467548Y100048I277J289D01*
G02X469646Y101458I2097J-854D01*
G02Y96929I0J-2265D01*
G02X468764Y97108I0J2265D01*
G03X468208Y96749I-156J-368D01*
G37*
G36*
G01X412106D02*
G02X407874Y92617I-4232J101D01*
G02X403641Y96850I0J4233D01*
G02X403696Y97534I4233J1D01*
G02X401830Y99764I398J2230D01*
G02X404094Y102028I2265J0D01*
G02X406149Y100716I0J-2265D01*
G02X407874Y101083I1725J-3866D01*
G02X410799Y99910I0J-4233D01*
G03X411446Y100048I277J289D01*
G02X413543Y101458I2097J-854D01*
G02Y96929I0J-2265D01*
G02X412661Y97108I0J2265D01*
G03X412106Y96749I-156J-368D01*
G37*
G36*
G01X356004D02*
G02X351772Y92617I-4232J101D01*
G02X347539Y96850I0J4233D01*
G02X347594Y97534I4233J1D01*
G02X345728Y99764I398J2230D01*
G02X347992Y102028I2265J0D01*
G02X350047Y100716I0J-2265D01*
G02X351772Y101083I1725J-3866D01*
G02X354697Y99910I0J-4233D01*
G03X355344Y100048I277J289D01*
G02X357441Y101458I2097J-854D01*
G02Y96929I0J-2265D01*
G02X356559Y97108I0J2265D01*
G03X356004Y96749I-156J-368D01*
G37*
G36*
G01X299901D02*
G02X295669Y92617I-4232J101D01*
G02X291436Y96850I0J4233D01*
G02X291492Y97534I4233J1D01*
G02X289625Y99764I398J2230D01*
G02X291890Y102028I2265J0D01*
G02X293944Y100716I0J-2265D01*
G02X295669Y101083I1725J-3866D01*
G02X298594Y99910I0J-4233D01*
G03X299241Y100048I277J289D01*
G02X301339Y101458I2097J-854D01*
G02Y96929I0J-2265D01*
G02X300457Y97108I0J2265D01*
G03X299901Y96749I-156J-368D01*
G37*
G36*
G01X215490Y96948D02*
G03X215603Y97620I-150J371D01*
G02X214825Y99328I1487J1708D01*
G02X217090Y101593I2265J0D01*
G02X218952Y100617I0J-2264D01*
G03X219213Y100556I165J114D01*
G02X221260Y101083I2047J-3705D01*
G02X224057Y100028I0J-4233D01*
G03X224683Y100158I264J300D01*
G02X226732Y101458I2049J-964D01*
G02Y96929I0J-2265D01*
G02X226016Y97045I-1J2265D01*
G03X225489Y96682I-127J-379D01*
G02X221260Y92617I-4230J168D01*
G02X218667Y93504I0J4233D01*
G03X218109Y93437I-245J-316D01*
G02X216337Y92583I-1772J1410D01*
G02X214901Y93096I0J2265D01*
G03X214597Y93034I-127J-155D01*
G02X214472Y92825I-2004J1055D01*
G02X215502Y90926I-1235J-1899D01*
G02X213238Y88661I-2265J0D01*
G02X213057Y88669I-1J2265D01*
G03X212846Y88510I-16J-199D01*
G02X212041Y87205I-2216J466D01*
G03X212023Y86594I249J-313D01*
G02X212717Y85039I-1393J-1555D01*
G02X208543I-2087J0D01*
G02X209237Y86594I2087J0D01*
G03X209219Y87205I-267J298D01*
G02X208365Y88976I1411J1772D01*
G02X210630Y91241I2265J0D01*
G02X210810Y91234I1J-2265D01*
G03X211022Y91392I16J199D01*
G02X211359Y92191I2216J-466D01*
G02X210329Y94090I1235J1899D01*
G02X212594Y96354I2265J0D01*
G02X213871Y95960I0J-2265D01*
G03X214433Y96074I226J330D01*
G02X215490Y96948I1904J-1226D01*
G37*
G36*
G01X161908Y100150D02*
G03X162458Y100111I295J270D01*
G02X165157Y101083I2699J-3261D01*
G02X167955Y100028I0J-4233D01*
G03X168581Y100158I264J300D01*
G02X170630Y101458I2049J-964D01*
G02Y96929I0J-2265D01*
G02X169913Y97045I-1J2265D01*
G03X169387Y96682I-127J-379D01*
G02X165157Y92617I-4230J168D01*
G02X160999Y96058I0J4233D01*
G03X160551Y96380I-393J-75D01*
G02X160236Y96357I-315J2242D01*
G02Y100887I0J2265D01*
G02X161908Y100150I0J-2264D01*
G37*
G36*
G01X105598Y99964D02*
G03X106165Y99943I293J272D01*
G02X109055Y101083I2890J-3093D01*
G02X111852Y100028I0J-4233D01*
G03X112478Y100158I264J300D01*
G02X114528Y101458I2049J-964D01*
G02Y96929I0J-2265D01*
G02X113811Y97045I-1J2265D01*
G03X113285Y96682I-127J-379D01*
G02X109055Y92617I-4230J168D01*
G02X104926Y95917I0J4233D01*
G03X104446Y96219I-390J-88D01*
G02X103937Y96161I-509J2207D01*
G02Y100690I0J2265D01*
G02X105598Y99964I0J-2264D01*
G37*
G36*
G01X49789Y100248D02*
G03X50345Y100185I310J252D01*
G02X52953Y101083I2607J-3335D01*
G02X55750Y100028I0J-4233D01*
G03X56376Y100158I264J300D01*
G02X58425Y101458I2049J-964D01*
G02Y96929I0J-2265D01*
G02X57709Y97045I-1J2265D01*
G03X57182Y96682I-127J-379D01*
G02X52953Y92617I-4230J168D01*
G02X48765Y96234I0J4233D01*
G03X48319Y96572I-396J-58D01*
G02X48031Y96554I-286J2247D01*
G02Y101083I0J2265D01*
G02X49789Y100248I0J-2265D01*
G37*
G36*
G01X381331Y88296D02*
G03X381075Y88418I-188J-67D01*
G02X380315Y88287I-760J2133D01*
G02Y92816I0J2265D01*
G02X382449Y91310I0J-2265D01*
G03X382704Y91188I188J67D01*
G02X383465Y91320I760J-2133D01*
G02X385729Y89055I0J-2265D01*
G02X385053Y87441I-2264J0D01*
G02X385729Y85827I-1588J-1614D01*
G02X383465Y83562I-2265J0D01*
G02X382568Y83747I0J2265D01*
G03X382310Y83655I-79J-184D01*
G02X380294Y82420I-2017J1030D01*
G02Y86950I0J2265D01*
G02X381191Y86765I0J-2265D01*
G03X381448Y86857I79J184D01*
G02X381876Y87441I2017J-1030D01*
G02X381331Y88296I1588J1615D01*
G37*
G36*
G01X323958Y90935D02*
G03X324587Y91147I243J318D01*
G02X326772Y92816I2185J-596D01*
G02Y88287I0J-2265D01*
G02X325395Y88753I0J2265D01*
G03X324766Y88541I-243J-318D01*
G02X324207Y87561I-2185J596D01*
G02X324682Y86925I-1549J-1652D01*
G03X325285Y86789I357J180D01*
G02X326674Y87265I1389J-1789D01*
G02Y82735I0J-2265D01*
G02X324650Y83985I0J2264D01*
G03X324047Y84121I-357J-180D01*
G02X322658Y83645I-1389J1789D01*
G02X320393Y85909I0J2265D01*
G02X321032Y87485I2264J0D01*
G02X320317Y89137I1549J1652D01*
G02X322581Y91402I2265J0D01*
G02X323958Y90935I0J-2265D01*
G37*
G36*
G01X216229Y88917D02*
G03X216643Y89280I15J400D01*
G02X218898Y91339I2255J-205D01*
G02X220815Y90280I0J-2265D01*
G03X221406Y90182I339J213D01*
G02X222835Y90690I1429J-1757D01*
G02Y86161I0J-2265D01*
G02X222408Y86201I0J2265D01*
G03X221935Y85764I-75J-393D01*
G02X221950Y85512I-2250J-253D01*
G02X221273Y83898I-2264J0D01*
G02X221950Y82283I-1588J-1614D01*
G02X219685Y80019I-2265J0D01*
G02X218426Y80401I0J2264D01*
G03X217835Y80224I-222J-333D01*
G02X215748Y78838I-2087J879D01*
G02Y83367I0J2265D01*
G02X217007Y82985I0J-2264D01*
G03X217598Y83162I222J333D01*
G02X218097Y83898I2087J-879D01*
G02X217682Y84455I1588J1615D01*
G03X217150Y84626I-354J-187D01*
G02X216142Y84389I-1009J2028D01*
G02Y88918I0J2265D01*
G02X216229Y88917I3J-2265D01*
G37*
G36*
G01X161059Y87023D02*
G03X160527Y86905I-202J-345D01*
G02X158661Y85924I-1865J1284D01*
G02Y90454I0J2265D01*
G02X159807Y90142I0J-2265D01*
G03X160339Y90260I202J345D01*
G02X162205Y91241I1865J-1284D01*
G02X164028Y90320I0J-2265D01*
G03X164304Y90275I161J118D01*
G02X165611Y90690I1307J-1850D01*
G02Y86161I0J-2265D01*
G02X163788Y87082I0J2265D01*
G03X163511Y87127I-161J-118D01*
G02X162205Y86712I-1307J1850D01*
G02X161059Y87023I0J2265D01*
G37*
G36*
G01X407307Y86516D02*
G03X406736Y86362I-215J-337D01*
G02X404724Y85137I-2012J1039D01*
G02Y89666I0J2265D01*
G02X405942Y89311I0J-2265D01*
G03X406513Y89465I215J337D01*
G02X408524Y90690I2012J-1039D01*
G02Y86161I0J-2265D01*
G02X407307Y86516I0J2265D01*
G37*
G36*
G01X500300Y85453D02*
G03X500684Y85967I1J400D01*
G02X500590Y86614I2170J647D01*
G02X505119I2265J0D01*
G02X505024Y85967I-2264J0D01*
G03X505409Y85453I383J-114D01*
G01X505413D01*
G02X503149Y83188I0J-2265D01*
G02X503243Y83835I2264J0D01*
G03X502859Y84350I-383J114D01*
G01X502854D01*
X502850D01*
G03X502465Y83835I-1J-400D01*
G02X502560Y83188I-2170J-647D01*
G02X500295Y85453I-2265J0D01*
G01X500300D01*
G37*
G36*
G01X448259Y85452D02*
G03X448643Y85907I-12J400D01*
G02X448621Y86220I2243J312D01*
G02X453150I2265J0D01*
G02X453114Y85816I-2264J1D01*
G03X453514Y85344I394J-71D01*
G02X453553Y85345I42J-2264D01*
G02X451288Y83080I0J-2265D01*
G02X451325Y83485I2264J-1D01*
G03X450924Y83956I-394J71D01*
G02X450886Y83956I-42J2264D01*
G02X450737Y83961I-3J2265D01*
G03X450529Y83715I-13J-200D01*
G02X450591Y83188I-2202J-527D01*
G02X446062I-2265J0D01*
G02X448259Y85452I2264J0D01*
G37*
G36*
G01X335639Y85451D02*
G03X336023Y85847I-16J400D01*
G02X340552I2265J-21D01*
G03X340936Y85451I400J3D01*
G02X343111Y83188I-90J-2263D01*
G02X340846Y80924I-2265J0D01*
G02X338582Y83168I0J2265D01*
G03X338198Y83564I-400J-3D01*
G01X338195D01*
G03X337987Y83350I-8J-200D01*
G02X337993Y83188I-2259J-163D01*
G02X333464I-2265J0D01*
G02X335639Y85451I2264J0D01*
G37*
G36*
G01X394281Y83107D02*
G02X394026Y83093I-256J2250D01*
G02X393896Y83096I-2J2265D01*
G02X391634Y80924I-2263J92D01*
G02Y85453I0J2265D01*
G02X391763Y85449I2J-2265D01*
G02X394026Y87622I2263J-92D01*
G02X396276Y85614I0J-2265D01*
G03X396497Y85438I199J23D01*
G02X396752Y85453I256J-2250D01*
G02Y80924I0J-2265D01*
G02X394502Y82931I0J2265D01*
G03X394281Y83107I-199J-23D01*
G37*
G36*
G01X152462Y82571D02*
G03X152067Y82952I-399J-19D01*
G02X149999Y85039I20J2087D01*
G02X152087Y87127I2087J0D01*
G02X154159Y85289I0J-2087D01*
G03X154581Y84937I397J48D01*
G02X154724Y84942I140J-2260D01*
G02Y80413I0J-2265D01*
G02X152462Y82571I0J2265D01*
G37*
G36*
G01X131981Y82007D02*
G03X131541Y81712I-54J-396D01*
G02X129350Y80019I-2191J571D01*
G02Y84548I0J2265D01*
G02X129652Y84528I1J-2265D01*
G03X130092Y84823I54J396D01*
G02X132283Y86517I2191J-571D01*
G02Y81987I0J-2265D01*
G02X131981Y82007I-1J2265D01*
G37*
G36*
G01X261417Y85092D02*
G02X262992Y85729I1575J-1627D01*
G02Y81200I0J-2265D01*
G02X261417Y81837I0J2264D01*
G02X259843Y81200I-1575J1627D01*
G02Y85729I0J2265D01*
G02X261417Y85092I0J-2264D01*
G37*
G36*
G01X281670Y76289D02*
G02X280622Y76031I-1048J2008D01*
G02X278357Y78296I0J2265D01*
G02X279078Y79953I2264J0D01*
G02X278445Y81523I1631J1570D01*
G02X280709Y83788I2265J0D01*
G02X281291Y83712I-1J-2264D01*
G03X281533Y83846I51J193D01*
G02X283694Y85435I2161J-676D01*
G02Y80906I0J-2265D01*
G02X283113Y80981I1J2264D01*
G03X282871Y80848I-51J-193D01*
G02X282253Y79867I-2161J676D01*
G02X282646Y79311I-1631J-1571D01*
G02X283694Y79569I1048J-2008D01*
G02Y75039I0J-2265D01*
G02X281670Y76289I0J2265D01*
G37*
G36*
G01X87601Y80484D02*
G03X87339Y80468I-121J-159D01*
G02X85748Y79814I-1591J1611D01*
G02Y84343I0J2265D01*
G02X87123Y83878I0J-2265D01*
G03X87385Y83894I121J159D01*
G02X88976Y84548I1591J-1611D01*
G02Y80019I0J-2265D01*
G02X87601Y80484I0J2265D01*
G37*
G36*
G01X143276Y83669D02*
G02X144887Y84343I1612J-1591D01*
G02Y79814I0J-2265D01*
G02X143271Y80493I0J2264D01*
G02X141659Y79819I-1612J1591D01*
G02Y84348I0J2265D01*
G02X143276Y83669I0J-2264D01*
G37*
G36*
G01X30991Y83346D02*
G02X32448Y83878I1457J-1733D01*
G02Y79348I0J-2265D01*
G02X30691Y80184I0J2265D01*
G02X29234Y79653I-1457J1733D01*
G02Y84182I0J2265D01*
G02X30991Y83346I0J-2265D01*
G37*
G36*
G01X202329Y80539D02*
G02X200512Y79625I-1817J1351D01*
G02X198917Y80282I0J2265D01*
G02X197283Y79586I-1633J1569D01*
G02Y84115I0J2265D01*
G02X198878Y83458I0J-2265D01*
G02X200512Y84154I1633J-1569D01*
G02X202442Y83074I0J-2264D01*
G03X203104Y83044I341J209D01*
G02X204921Y83957I1817J-1351D01*
G02Y79428I0J-2265D01*
G02X202991Y80509I0J2264D01*
G03X202329Y80539I-341J-209D01*
G37*
G36*
G01X15009Y77657D02*
G03Y78248I-269J296D01*
G02X14271Y79921I1526J1673D01*
G02X18800I2265J0D01*
G02X18062Y78248I-2265J0D01*
G03Y77657I269J-296D01*
G02X18800Y75984I-1526J-1673D01*
G02X18500Y74858I-2265J0D01*
G02X18913Y74227I-1662J-1539D01*
G03X19176Y74124I183J80D01*
G02X20079Y74312I903J-2077D01*
G02Y69783I0J-2265D01*
G02X18004Y71139I0J2265D01*
G03X17741Y71242I-183J-80D01*
G02X16839Y71054I-903J2077D01*
G02X14574Y73319I0J2265D01*
G02X14874Y74445I2265J0D01*
G02X14271Y75984I1662J1539D01*
G02X15009Y77657I2265J0D01*
G37*
G36*
G01X248037Y78275D02*
G03X248300Y78193I174J98D01*
G02X249300Y78426I1000J-2032D01*
G02X250181Y78248I0J-2265D01*
G03X250700Y78448I156J368D01*
G02X252756Y79765I2056J-948D01*
G02Y75235I0J-2265D01*
G02X251875Y75414I0J2265D01*
G03X251356Y75213I-156J-368D01*
G02X249300Y73897I-2056J948D01*
G02X247326Y75052I0J2265D01*
G03X247063Y75133I-174J-98D01*
G02X246063Y74901I-1000J2032D01*
G02Y79430I0J2265D01*
G02X248037Y78275I0J-2265D01*
G37*
G36*
G01X156715Y76931D02*
G03X157188Y77300I74J393D01*
G02X159449Y79430I2261J-135D01*
G02Y74901I0J-2265D01*
G02X159033Y74939I0J2265D01*
G03X158560Y74570I-74J-393D01*
G02X158319Y73680I-2261J135D01*
G03X158614Y73104I357J-181D01*
G02X160532Y70866I-346J-2238D01*
G02X156003I-2265J0D01*
G02X156248Y71891I2265J0D01*
G03X155953Y72467I-357J181D01*
G02X154933Y72898I346J2238D01*
G03X154313Y72706I-241J-319D01*
G02X154109Y72264I-2147J720D01*
G03X154302Y71688I343J-205D01*
G02X155713Y69591I-853J-2098D01*
G02X151184I-2265J0D01*
G02X151505Y70752I2265J0D01*
G03X151312Y71328I-343J205D01*
G02X149901Y73425I853J2098D01*
G02X152165Y75690I2265J0D01*
G02X153531Y75231I0J-2264D01*
G03X154152Y75424I241J319D01*
G02X156299Y76969I2148J-719D01*
G02X156715Y76931I0J-2265D01*
G37*
G36*
G01X406421Y74442D02*
G03X406411Y75043I-269J296D01*
G02X405609Y76772I1464J1728D01*
G02X410139I2265J0D01*
G02X409396Y75095I-2265J0D01*
G03X409407Y74494I269J-296D01*
G02X410208Y72765I-1464J-1728D01*
G02X405679I-2265J0D01*
G02X406421Y74442I2265J0D01*
G37*
G36*
G01X128642Y72579D02*
G03X128317Y73141I-365J163D01*
G02X126279Y75394I226J2253D01*
G02X130808I2265J0D01*
G02X130610Y74468I-2265J0D01*
G03X130935Y73907I365J-163D01*
G02X132028Y73494I-226J-2253D01*
G03X132560Y73553I233J325D01*
G02X134252Y74312I1692J-1506D01*
G02Y69783I0J-2265D01*
G02X132932Y70207I0J2265D01*
G03X132400Y70148I-233J-325D01*
G02X130709Y69389I-1692J1506D01*
G02X128444Y71654I0J2265D01*
G02X128642Y72579I2265J0D01*
G37*
G36*
G01X511943Y68197D02*
G02X512331Y66929I-1876J-1268D01*
G02X507802I-2265J0D01*
G02X508360Y68417I2265J0D01*
G02X507972Y69685I1876J1268D01*
G02X512501I2265J0D01*
G02X511943Y68197I-2265J0D01*
G37*
G36*
G01X382827Y65950D02*
G03X382296Y65924I-250J-312D01*
G02X380709Y65274I-1587J1615D01*
G02Y69803I0J2265D01*
G02X382126Y69305I0J-2264D01*
G03X382657Y69331I250J312D01*
G02X384244Y69981I1587J-1615D01*
G02Y65452I0J-2265D01*
G02X382827Y65950I0J2264D01*
G37*
G36*
G01X490872Y65589D02*
G03X490602Y65639I-161J-118D01*
G02X489370Y65274I-1232J1900D01*
G02Y69803I0J2265D01*
G02X491196Y68879I0J-2265D01*
G03X491466Y68829I161J118D01*
G02X492698Y69194I1232J-1900D01*
G02Y64665I0J-2265D01*
G02X490872Y65589I0J2265D01*
G37*
G36*
G01X438737Y65459D02*
G03X438467Y65540I-176J-95D01*
G02X437402Y65274I-1065J1998D01*
G02Y69803I0J2265D01*
G02X439394Y68615I0J-2264D01*
G03X439664Y68534I176J95D01*
G02X440729Y68800I1065J-1998D01*
G02Y64271I0J-2265D01*
G02X438737Y65459I0J2264D01*
G37*
G36*
G01X221220Y62612D02*
G02X222835Y63288I1614J-1588D01*
G02Y58759I0J-2265D01*
G02X221220Y59435I0J2264D01*
G02X219606Y58759I-1614J1588D01*
G02Y63288I0J2265D01*
G02X221220Y62612I0J-2264D01*
G37*
G36*
G01X427728Y54894D02*
G03X427600Y55132I-194J49D01*
G02X426082Y57270I747J2138D01*
G02X430611I2265J0D01*
G02X430540Y56707I-2264J1D01*
G03X430668Y56469I194J-49D01*
G02X432186Y54331I-747J-2138D01*
G02X430153Y52078I-2265J0D01*
G02X430169Y51809I-2248J-270D01*
G02X425640I-2265J0D01*
G02X427673Y54062I2265J0D01*
G02X427657Y54331I2248J270D01*
G02X427728Y54894I2264J-1D01*
G37*
G36*
G01X166106Y54227D02*
G03X166227Y54471I-70J187D01*
G02X166133Y55118I2171J646D01*
G02X168397Y57382I2265J0D01*
G02X170007Y56710I0J-2264D01*
G02X171626Y57391I1619J-1584D01*
G02X173890Y55126I0J-2265D01*
G02X173683Y54181I-2264J0D01*
G02X175035Y52108I-912J-2073D01*
G02X170506I-2265J0D01*
G02X170713Y53054I2264J0D01*
G02X170016Y53534I913J2072D01*
G02X169196Y52998I-1619J1584D01*
G03X169074Y52754I70J-187D01*
G02X169169Y52108I-2171J-646D01*
G02X164639I-2265J0D01*
G02X166106Y54227I2265J0D01*
G37*
G36*
G01X370527Y48485D02*
G02X369063Y47948I-1464J1728D01*
G02X366798Y50213I0J2265D01*
G02X367444Y51796I2265J0D01*
G02X366736Y53441I1556J1644D01*
G02X369000Y55706I2265J0D01*
G02X370318Y55283I0J-2265D01*
G03X370928Y55476I233J325D01*
G02X373064Y56989I2136J-751D01*
G02Y52460I0J-2265D01*
G02X371747Y52882I0J2265D01*
G03X371137Y52690I-233J-325D01*
G02X370619Y51857I-2136J751D01*
G02X371206Y50945I-1557J-1645D01*
G03X371806Y50741I379J129D01*
G02X373064Y51123I1258J-1883D01*
G02X375329Y48858I0J-2265D01*
G02X373942Y46771I-2264J0D01*
G02X374050Y46079I-2156J-692D01*
G02X371786Y43814I-2265J0D01*
G02X370687Y44099I0J2264D01*
G03X370421Y44030I-97J-175D01*
G02X370092Y43622I-1916J1207D01*
G02X370678Y42643I-1588J-1614D01*
G03X371150Y42365I384J112D01*
G02X371654Y42422I504J-2208D01*
G02Y37893I0J-2265D01*
G02X369480Y39522I0J2265D01*
G03X369007Y39800I-384J-112D01*
G02X368504Y39743I-504J2208D01*
G02X366239Y42008I0J2265D01*
G02X366916Y43622I2264J0D01*
G02X366239Y45236I1588J1614D01*
G02X368504Y47501I2265J0D01*
G02X369603Y47216I0J-2264D01*
G03X369869Y47285I97J175D01*
G02X370908Y48166I1917J-1206D01*
G02X370852Y48376I2156J692D01*
G03X370527Y48485I-195J-43D01*
G37*
G36*
G01X233367Y52017D02*
G03X232775I-296J-269D01*
G02X231102Y51279I-1673J1526D01*
G02Y55808I0J2265D01*
G02X232775Y55070I0J-2265D01*
G03X233367I296J269D01*
G02X235039Y55808I1673J-1526D01*
G02Y51279I0J-2265D01*
G02X233367Y52017I0J2265D01*
G37*
G36*
G01X278263Y44607D02*
G02X277953Y44586I-310J2243D01*
G02X275688Y46850I0J2265D01*
G02X276365Y48465I2264J0D01*
G02X275688Y50079I1588J1614D01*
G02X277953Y52343I2265J0D01*
G02X278278Y52320I1J-2265D01*
G03X278501Y52473I29J198D01*
G02X280709Y54233I2207J-505D01*
G02Y49704I0J-2265D01*
G02X280384Y49727I-1J2265D01*
G03X280160Y49574I-29J-198D01*
G02X279541Y48465I-2208J505D01*
G02X280175Y47285I-1588J-1614D01*
G03X280399Y47125I196J38D01*
G02X280709Y47146I310J-2243D01*
G02Y42617I0J-2265D01*
G02X278486Y44447I0J2265D01*
G03X278263Y44607I-196J-38D01*
G37*
G36*
G01X262283Y44758D02*
G02X261417Y44586I-866J2092D01*
G02X259153Y46850I0J2265D01*
G02X259834Y48469I2265J0D01*
G02X259162Y50079I1592J1609D01*
G02X261427Y52343I2265J0D01*
G02X262270Y52180I0J-2265D01*
G03X262526Y52279I75J186D01*
G02X264567Y53564I2041J-980D01*
G02Y49035I0J-2265D01*
G02X263723Y49198I0J2265D01*
G03X263468Y49099I-75J-186D01*
G02X263010Y48460I-2042J979D01*
G02X263446Y47857I-1593J-1610D01*
G03X263701Y47762I179J89D01*
G02X264567Y47934I866J-2092D01*
G02Y43405I0J-2265D01*
G02X262539Y44662I0J2265D01*
G03X262283Y44758I-179J-89D01*
G37*
G36*
G01X477794Y44955D02*
G03X477843Y45225I-118J161D01*
G02X477479Y46457I1900J1232D01*
G02X482008I2265J0D01*
G02X481083Y44631I-2265J0D01*
G03X481034Y44361I118J-161D01*
G02X481398Y43129I-1900J-1232D01*
G02X476869I-2265J0D01*
G02X477794Y44955I2265J0D01*
G37*
G36*
G01X431731D02*
G03X431780Y45225I-118J161D01*
G02X431416Y46457I1900J1232D01*
G02X435945I2265J0D01*
G02X435020Y44631I-2265J0D01*
G03X434971Y44361I118J-161D01*
G02X435335Y43129I-1900J-1232D01*
G02X430806I-2265J0D01*
G02X431731Y44955I2265J0D01*
G37*
G36*
G01X385668D02*
G03X385717Y45225I-118J161D01*
G02X385353Y46457I1900J1232D01*
G02X389882I2265J0D01*
G02X388957Y44631I-2265J0D01*
G03X388908Y44361I118J-161D01*
G02X389272Y43129I-1900J-1232D01*
G02X384743I-2265J0D01*
G02X385668Y44955I2265J0D01*
G37*
G36*
G01X355294Y44052D02*
G03X354807Y44289I-372J-147D01*
G02X354153Y44192I-654J2168D01*
G02Y48721I0J2265D01*
G02X356260Y47286I0J-2264D01*
G03X356748Y47050I372J147D01*
G02X357402Y47146I654J-2168D01*
G02X359016Y46470I0J-2264D01*
G02X360630Y47146I1614J-1588D01*
G02X362894Y44882I0J-2265D01*
G02X362819Y44304I-2265J0D01*
G03X363056Y43831I387J-102D01*
G02X364469Y41732I-851J-2098D01*
G02X359940I-2265J0D01*
G02X360015Y42311I2265J0D01*
G03X359779Y42783I-387J102D01*
G02X359016Y43294I851J2098D01*
G02X358468Y42884I-1614J1588D01*
G03X358379Y42629I94J-176D01*
G02X358564Y41732I-2079J-896D01*
G02X354035I-2265J0D01*
G02X355233Y43730I2264J0D01*
G03X355322Y43985I-94J176D01*
G02X355294Y44052I2080J896D01*
G37*
G36*
G01X339147Y45156D02*
G03X339236Y45426I-89J179D01*
G02X338987Y46457I2016J1031D01*
G02X343517I2265J0D01*
G02X342263Y44430I-2264J0D01*
G03X342174Y44160I89J-179D01*
G02X342422Y43129I-2016J-1031D01*
G02X337893I-2265J0D01*
G02X339147Y45156I2264J0D01*
G37*
G36*
G01X252626Y43411D02*
G02X253136Y44173I2098J-853D01*
G02X252460Y45787I1588J1614D01*
G02X256989I2265J0D01*
G02X256313Y44173I-2264J0D01*
G02X256989Y42559I-1588J-1614D01*
G02X254724Y40294I-2265J0D01*
G02X253476Y40669I0J2265D01*
G03X252885Y40486I-220J-334D01*
G02X250787Y39074I-2098J852D01*
G02X248612Y40709I0J2265D01*
G03X248113Y40981I-384J-111D01*
G02X247463Y40886I-650J2169D01*
G02Y45415I0J2265D01*
G02X249639Y43780I0J-2265D01*
G03X250138Y43508I384J111D01*
G02X250787Y43603I650J-2169D01*
G02X252035Y43228I0J-2265D01*
G03X252626Y43411I220J334D01*
G37*
G36*
G01X318834Y36091D02*
G02X317420Y38189I851J2098D01*
G02X318097Y39803I2264J0D01*
G02X317420Y41417I1588J1614D01*
G02X321950I2265J0D01*
G02X321273Y39803I-2264J0D01*
G02X321950Y38189I-1588J-1614D01*
G02X321874Y37611I-2265J0D01*
G03X322111Y37138I387J-102D01*
G02X323524Y35039I-851J-2098D01*
G02X321983Y32893I-2265J0D01*
G03X321856Y32644I64J-189D01*
G02X321959Y31969I-2161J-676D01*
G02X321278Y30349I-2265J0D01*
G02X321713Y29747I-1593J-1609D01*
G03X321969Y29652I179J89D01*
G02X322835Y29824I866J-2093D01*
G02Y25294I0J-2265D01*
G02X320806Y26552I0J2265D01*
G03X320551Y26648I-179J-89D01*
G02X319685Y26476I-866J2093D01*
G02X317420Y28740I0J2265D01*
G02X318102Y30359I2265J0D01*
G02X317430Y31969I1593J1609D01*
G02X318972Y34115I2265J0D01*
G03X319098Y34364I-64J189D01*
G02X318995Y35039I2161J676D01*
G02X319070Y35618I2265J0D01*
G03X318834Y36091I-387J102D01*
G37*
G36*
G01X42302Y35719D02*
G03X42657Y36191I-38J398D01*
G02X42617Y36614I2225J423D01*
G02X47146I2265J0D01*
G02X45099Y34360I-2264J0D01*
G03X44744Y33887I38J-398D01*
G02X44784Y33465I-2225J-423D01*
G02X43593Y31470I-2265J0D01*
G03Y30766I189J-352D01*
G02X44784Y28771I-1073J-1994D01*
G02X42520Y26507I-2265J0D01*
G02X40268Y28528I0J2265D01*
G03X39795Y28878I-398J-43D01*
G02X39370Y28838I-425J2224D01*
G02Y33367I0J2265D01*
G02X39793Y33327I0J-2265D01*
G03X40266Y33682I75J393D01*
G02X42302Y35719I2254J-217D01*
G37*
G36*
G01X465009Y33956D02*
G03Y34548I-269J296D01*
G02X464271Y36220I1526J1673D01*
G02X468800I2265J0D01*
G02X468062Y34548I-2265J0D01*
G03Y33956I269J-296D01*
G02X468800Y32283I-1526J-1673D01*
G02X464271I-2265J0D01*
G02X465009Y33956I2265J0D01*
G37*
G36*
G01X420367Y33713D02*
G03X420358Y34363I-237J322D01*
G02X419389Y36220I1296J1857D01*
G02X423918I2265J0D01*
G02X422996Y34397I-2264J0D01*
G03X423005Y33747I237J-322D01*
G02X423974Y31890I-1296J-1857D01*
G02X419445I-2265J0D01*
G02X420367Y33713I2264J0D01*
G37*
G36*
G01X496554Y32977D02*
G03X496040Y33361I-400J1D01*
G02X495393Y33267I-647J2170D01*
G02X497657Y35531I0J2265D01*
G01Y35527D01*
G03X498172Y35143I400J-1D01*
G02X498819Y35237I647J-2170D01*
G02Y30708I0J-2265D01*
G02X498172Y30802I0J2264D01*
G03X497657Y30418I-114J-383D01*
G01Y30413D01*
G02X495393Y32678I-2265J0D01*
G02X496040Y32583I0J-2264D01*
G03X496554Y32968I114J383D01*
G01Y32972D01*
Y32977D01*
G37*
G36*
G01X450491D02*
G03X449977Y33361I-400J1D01*
G02X449330Y33267I-647J2170D01*
G02X451594Y35531I0J2265D01*
G01Y35527D01*
G03X452109Y35143I400J-1D01*
G02X452756Y35237I647J-2170D01*
G02Y30708I0J-2265D01*
G02X452109Y30802I0J2264D01*
G03X451594Y30418I-114J-383D01*
G01Y30413D01*
G02X449330Y32678I-2265J0D01*
G02X449977Y32583I0J-2264D01*
G03X450491Y32968I114J383D01*
G01Y32972D01*
Y32977D01*
G37*
G36*
G01X404428D02*
G03X403914Y33361I-400J1D01*
G02X403267Y33267I-647J2170D01*
G02X405531Y35531I0J2265D01*
G01Y35527D01*
G03X406046Y35143I400J-1D01*
G02X406693Y35237I647J-2170D01*
G02Y30708I0J-2265D01*
G02X406046Y30802I0J2264D01*
G03X405531Y30418I-114J-383D01*
G01Y30413D01*
G02X403267Y32678I-2265J0D01*
G02X403914Y32583I0J-2264D01*
G03X404428Y32968I114J383D01*
G01Y32972D01*
Y32977D01*
G37*
G36*
G01X356793Y33068D02*
G03X356610Y33276I-200J8D01*
G02X354546Y35531I200J2256D01*
G02X359075I2265J0D01*
G02X359073Y35436I-2265J-1D01*
G03X359255Y35228I200J-8D01*
G02Y30717I-200J-2256D01*
G03X359073Y30509I17J-199D01*
G02X359075Y30413I-2263J-94D01*
G02X354546I-2265J0D01*
G02X356610Y32669I2265J0D01*
G03X356793Y32877I-17J199D01*
G02X356791Y32972I2263J94D01*
G02X356793Y33068I2265J1D01*
G37*
G36*
G01X377572Y33504D02*
G02X378249Y31890I-1588J-1614D01*
G02X373720I-2265J0D01*
G02X374396Y33504I2264J0D01*
G02X373720Y35118I1588J1614D01*
G02X378249I2265J0D01*
G02X377572Y33504I-2264J0D01*
G37*
G36*
G01X220406Y25139D02*
G02X222089Y25889I1683J-1516D01*
G02Y21359I0J-2265D01*
G02X220546Y21966I0J2264D01*
G02X218863Y21217I-1683J1516D01*
G02Y25746I0J2265D01*
G02X220406Y25139I0J-2264D01*
G37*
G36*
G01X72324Y20670D02*
G03X72696Y21217I0J400D01*
G02X72539Y22047I2107J831D01*
G02X77068I2265J0D01*
G02X76910Y21217I-2264J0D01*
G03X77282Y20670I372J-147D01*
G01X77363D01*
Y13780D01*
G03X78346Y12796I983J0D01*
G01X79528D01*
G03X80511Y13780I0J983D01*
G01Y17056D01*
X80503Y17083D01*
G02X80413Y17717I2174J634D01*
G02X80503Y18350I2264J0D01*
G01X80511Y18378D01*
Y20670D01*
X84843D01*
Y18378D01*
X84851Y18350D01*
G02X84942Y17717I-2174J-634D01*
G02X84851Y17083I-2264J0D01*
G01X84843Y17056D01*
Y12992D01*
G03X85039Y12796I196J0D01*
G01X86220D01*
G03X86417Y12992I0J196D01*
G01Y16598D01*
G02Y18835I1969J1118D01*
G01Y20670D01*
X90749D01*
Y15550D01*
X90355D01*
Y12794D01*
X90522Y12765D01*
G02X92324Y10630I-364J-2135D01*
G01Y-17717D01*
G02X89370Y-20670I-2954J0D01*
G01X83858D01*
G02X80905Y-17717I0J2954D01*
G01Y-15748D01*
G02X83858Y-12794I2954J0D01*
G01X84646D01*
G03X84719Y-12794I5J2952D01*
G03X84869Y-12466I-5J200D01*
G02X84350Y-11024I1746J1443D01*
G02X86614Y-8759I2265J0D01*
G02X87110Y-8814I-1J-2265D01*
G03X87598Y-8424I87J390D01*
G01Y-6537D01*
G03X87110Y-6146I-400J0D01*
G02X86614Y-6202I-497J2209D01*
G02Y-1672I0J2265D01*
G02X87110Y-1728I-1J-2265D01*
G03X87598Y-1337I87J390D01*
G01Y550D01*
G03X87110Y940I-400J0D01*
G02X86614Y885I-497J2209D01*
G02X84350Y3150I0J2265D01*
G02X85651Y5199I2265J0D01*
G03X85612Y5939I-170J362D01*
G03X84646Y6102I-966J-2789D01*
G01X77165D01*
G02X72243Y11024I0J4922D01*
G01Y20670D01*
X72324D01*
G37*
G36*
G01X322322Y17009D02*
G02X320222Y15591I-2100J846D01*
G02X317957Y17855I0J2265D01*
G02X318548Y19380I2265J0D01*
G02X317781Y21079I1498J1699D01*
G02X320045Y23343I2265J0D01*
G02X322206Y21758I0J-2264D01*
G03X322683Y21489I382J120D01*
G02X323228Y21556I545J-2198D01*
G02Y17027I0J-2265D01*
G02X322567Y17126I0J2265D01*
G03X322322Y17009I-59J-191D01*
G37*
G36*
G01X342646Y20240D02*
G02X344845Y21961I2198J-544D01*
G02Y17432I0J-2265D01*
G02X344265Y17507I1J2264D01*
G02X342067Y15787I-2198J544D01*
G02Y20316I0J2265D01*
G02X342646Y20240I-1J-2264D01*
G37*
G36*
G01X220581Y16425D02*
G03X220325Y16489I-164J-114D01*
G02X219291Y16239I-1034J2015D01*
G02Y20769I0J2265D01*
G02X221152Y19795I0J-2264D01*
G03X221407Y19731I164J114D01*
G02X222441Y19981I1034J-2015D01*
G02Y15452I0J-2265D01*
G02X220581Y16425I0J2264D01*
G37*
G36*
G01X368360Y14415D02*
G03X368378Y15080I-213J338D01*
G02X367420Y16929I1307J1849D01*
G02X369685Y19194I2265J0D01*
G02X371948Y17021I0J-2264D01*
G03X372139Y16830I200J8D01*
G02X374312Y14567I-92J-2263D01*
G02X372047Y12302I-2265J0D01*
G02X371824Y12313I0J2265D01*
G02X369567Y10235I-2257J186D01*
G02X367303Y12500I0J2265D01*
G02X368360Y14415I2264J0D01*
G37*
G36*
G01X208143Y13908D02*
G03Y14510I-263J301D01*
G02X207371Y16213I1493J1703D01*
G02X211900I2265J0D01*
G02X211128Y14510I-2265J0D01*
G03Y13908I263J-301D01*
G02X211900Y12205I-1493J-1703D01*
G02X207371I-2265J0D01*
G02X208143Y13908I2265J0D01*
G37*
G36*
G01X296847Y9197D02*
G03X296620Y9328I-189J-66D01*
G02X296227Y9291I-393J2050D01*
G02Y13465I0J2087D01*
G02X298199Y12063I0J-2088D01*
G03X298426Y11932I189J66D01*
G02X298819Y11969I393J-2050D01*
G02X300906Y9882I0J-2087D01*
G02X300333Y8445I-2088J0D01*
G02X300906Y7008I-1515J-1437D01*
G02X298819Y4920I-2087J0D01*
G02X298426Y4958I0J2087D01*
G03X298199Y4827I-38J-196D01*
G02X296227Y3424I-1972J685D01*
G02Y7599I0J2087D01*
G02X296620Y7562I0J-2087D01*
G03X296847Y7693I38J196D01*
G02X297305Y8445I1972J-685D01*
G02X296847Y9197I1514J1437D01*
G37*
G36*
G01X149305Y10137D02*
G03X149719Y10491I16J400D01*
G02X151969Y12501I2250J-255D01*
G02Y7972I0J-2265D01*
G02X151876Y7974I2J2265D01*
G03X151463Y7619I-16J-400D01*
G02X150801Y6260I-2250J255D01*
G02X151477Y4646I-1588J-1614D01*
G02X151477Y4597I-2265J-6D01*
G03X151950Y4195I400J-8D01*
G02X152362Y4233I412J-2227D01*
G02X150098Y1969I0J-2265D01*
G02X150098Y2017I2265J6D01*
G03X149625Y2419I-400J8D01*
G02X149213Y2381I-412J2227D01*
G02X146948Y4646I0J2265D01*
G02X147624Y6260I2264J0D01*
G02X146948Y7874I1588J1614D01*
G02X149213Y10139I2265J0D01*
G02X149305Y10137I-2J-2265D01*
G37*
G36*
G01X177806Y4389D02*
G03X177274Y4613I-374J-143D01*
G02X176378Y4428I-896J2080D01*
G02Y8957I0J2265D01*
G02X178493Y7501I0J-2264D01*
G03X179025Y7277I374J143D01*
G02X179921Y7461I896J-2080D01*
G02X182186Y5197I0J-2265D01*
G02X181509Y3583I-2264J0D01*
G02X182186Y1969I-1588J-1614D01*
G02X179921Y-296I-2265J0D01*
G02X178775Y15I0J2265D01*
G03X178243Y-103I-202J-345D01*
G02X176378Y-1083I-1865J1284D01*
G02Y3446I0J2265D01*
G02X177524Y3134I0J-2265D01*
G03X178056Y3252I202J345D01*
G02X178333Y3583I1865J-1284D01*
G02X177806Y4389I1588J1614D01*
G37*
G36*
G01X210502Y-1830D02*
G03X211152I325J233D01*
G02X212992Y-885I1840J-1319D01*
G02X214596Y-1551I0J-2265D01*
G03X215187Y-1524I283J282D01*
G02X216929Y-707I1742J-1447D01*
G02X218596Y-1438I0J-2265D01*
G02X220079Y-885I1483J-1712D01*
G02Y-5414I0J-2265D01*
G02X218412Y-4683I0J2265D01*
G02X216929Y-5236I-1483J1712D01*
G02X215325Y-4570I0J2265D01*
G03X214734Y-4597I-283J-282D01*
G02X212992Y-5414I-1742J1447D01*
G02X211152Y-4469I0J2264D01*
G03X210502I-325J-233D01*
G02X208661Y-5414I-1840J1319D01*
G02Y-885I0J2265D01*
G02X210502Y-1830I0J-2264D01*
G37*
G36*
G01X222959Y-4528D02*
G03X223231Y-4052I-117J383D01*
G02X223169Y-3522I2202J530D01*
G02X227698I2265J0D01*
G02X226096Y-5687I-2264J0D01*
G03X225824Y-6163I117J-383D01*
G02X225887Y-6693I-2202J-530D01*
G02X221357I-2265J0D01*
G02X222959Y-4528I2264J0D01*
G37*
G36*
G01X118916Y-10068D02*
G02X118113Y-10215I-802J2118D01*
G02X115849Y-7950I0J2265D01*
G02X116465Y-6398I2265J0D01*
G02X115725Y-4724I1525J1674D01*
G02X117990Y-2459I2265J0D01*
G02X119329Y-2897I0J-2265D01*
G03X119938Y-2720I236J323D01*
G02X122047Y-1279I2109J-823D01*
G02Y-5808I0J-2265D01*
G02X120708Y-5370I0J2265D01*
G03X120099Y-5547I-236J-323D01*
G02X119639Y-6276I-2110J823D01*
G02X120320Y-7441I-1525J-1674D01*
G03X120851Y-7725I390J90D01*
G02X121654Y-7578I802J-2118D01*
G02X123918Y-9843I0J-2265D01*
G02X123746Y-10708I-2264J0D01*
G03X123842Y-10964I185J-76D01*
G02X125099Y-12992I-1007J-2028D01*
G02X122835Y-15257I-2265J0D01*
G02X121888Y-15050I0J2265D01*
G03X121633Y-15129I-83J-182D01*
G02X121227Y-15631I-1945J1159D01*
G02X121849Y-17035I-1636J-1565D01*
G02X122047Y-17027I198J-2256D01*
G02Y-21556I0J-2265D01*
G02X119789Y-19452I0J2264D01*
G02X119591Y-19461I-198J2256D01*
G02X117326Y-17196I0J2265D01*
G02X118052Y-15535I2265J0D01*
G02X117423Y-13969I1637J1566D01*
G02X119472Y-11715I2265J0D01*
G03X119767Y-11096I-38J398D01*
G02X119447Y-10352I1886J1254D01*
G03X118916Y-10068I-390J-90D01*
G37*
G36*
G01X249489Y-8592D02*
G03X248957Y-8533I-299J-266D01*
G02X247638Y-8957I-1320J1840D01*
G02Y-4428I0J2265D01*
G02X249330Y-5187I0J-2265D01*
G03X249861Y-5246I299J266D01*
G02X251181Y-4822I1320J-1840D01*
G02Y-9351I0J-2265D01*
G02X249489Y-8592I0J2265D01*
G37*
G36*
G01X169916Y-8539D02*
G03X169643Y-8507I-153J-128D01*
G02X168287Y-8957I-1356J1815D01*
G02Y-4428I0J2265D01*
G02X170025Y-5241I0J-2264D01*
G03X170298Y-5272I153J128D01*
G02X171654Y-4822I1356J-1815D01*
G02Y-9351I0J-2265D01*
G02X169916Y-8539I0J2264D01*
G37*
G36*
G01X179580Y-16637D02*
G03X178989Y-16696I-269J-296D01*
G02X177165Y-17619I-1824J1342D01*
G02Y-13090I0J2265D01*
G02X178687Y-13678I0J-2265D01*
G03X179278Y-13619I269J296D01*
G02X181102Y-12696I1824J-1342D01*
G02X182794Y-13455I0J-2265D01*
G03X183326Y-13514I299J266D01*
G02X184646Y-13090I1320J-1840D01*
G02Y-17619I0J-2265D01*
G02X182954Y-16860I0J2265D01*
G03X182422Y-16801I-299J-266D01*
G02X181102Y-17225I-1320J1840D01*
G02X179580Y-16637I0J2265D01*
G37*
G36*
G01X192169Y-17022D02*
G03X191629Y-17021I-271J-295D01*
G02X190104Y-17612I-1525J1674D01*
G02Y-13083I0J2265D01*
G02X191635Y-13680I0J-2264D01*
G03X192176Y-13681I271J295D01*
G02X193701Y-13090I1525J-1674D01*
G02Y-17619I0J-2265D01*
G02X192169Y-17022I0J2264D01*
G37*
G36*
G01X213753Y-21404D02*
G03X213162Y-21611I-213J-338D01*
G02X211024Y-23131I-2139J745D01*
G02Y-18602I0J2265D01*
G02X212231Y-18950I0J-2264D01*
G03X212822Y-18743I213J338D01*
G02X214961Y-17224I2139J-745D01*
G02Y-21753I0J-2265D01*
G02X213753Y-21404I0J2264D01*
G37*
G36*
G01X511231Y-24517D02*
G03X511645Y-23985I36J398D01*
G02X511515Y-23228I2135J756D01*
G02X513780Y-25493I2265J0D01*
G02X513572Y-25483I-1J2265D01*
G03X513158Y-26015I-36J-398D01*
G02X513288Y-26772I-2135J-756D01*
G02X512613Y-28385I-2265J0D01*
G02X513289Y-30000I-1588J-1615D01*
G02X511574Y-32197I-2265J0D01*
G02X511652Y-32782I-2187J-586D01*
G02X507122I-2265J0D01*
G02X508837Y-30585I2265J0D01*
G02X508760Y-30000I2187J586D01*
G02X509436Y-28386I2265J0D01*
G02X508759Y-26772I1588J1615D01*
G02X511024Y-24507I2265J0D01*
G02X511231Y-24517I1J-2265D01*
G37*
G36*
G01X98898Y-24115D02*
G03X99312Y-23701I14J400D01*
G02X99310Y-23622I2263J85D01*
G02X101575Y-21357I2265J0D01*
G02X103662Y-22743I0J-2264D01*
G03X104253Y-22921I369J155D01*
G02X105512Y-22539I1259J-1882D01*
G02Y-27068I0J-2265D01*
G02X103425Y-25682I0J2264D01*
G03X102833Y-25504I-369J-155D01*
G02X101575Y-25887I-1259J1882D01*
G02X101496Y-25885I5J2264D01*
G03X101082Y-26299I-14J-400D01*
G02X101083Y-26378I-2263J-85D01*
G02X100407Y-27992I-2264J0D01*
G02X100934Y-28798I-1588J-1614D01*
G03X101466Y-29022I374J143D01*
G02X102362Y-28838I896J-2080D01*
G02Y-33367I0J-2265D01*
G02X100247Y-31911I0J2264D01*
G03X99715Y-31686I-374J-143D01*
G02X98819Y-31871I-896J2080D01*
G02X96554Y-29606I0J2265D01*
G02X97231Y-27992I2264J0D01*
G02X96554Y-26378I1588J1614D01*
G02X98819Y-24113I2265J0D01*
G02X98898Y-24115I-5J-2264D01*
G37*
G36*
G01X117958Y-26779D02*
G03X117340Y-26601I-375J-140D01*
G02X115964Y-27068I-1377J1798D01*
G02Y-22539I0J2265D01*
G02X118085Y-24009I0J-2265D01*
G03X118702Y-24186I375J140D01*
G02X120079Y-23720I1377J-1798D01*
G02Y-28249I0J-2265D01*
G02X117958Y-26779I0J2265D01*
G37*
G36*
G01X241480Y-28189D02*
G03X241456Y-27926I-161J118D01*
G02X240747Y-26280I1556J1646D01*
G02X245276I2265J0D01*
G02X244839Y-27618I-2265J0D01*
G03X244863Y-27881I161J-118D01*
G02X245572Y-29528I-1556J-1646D01*
G02X241043I-2265J0D01*
G02X241480Y-28189I2265J0D01*
G37*
G36*
G01X60790Y-31284D02*
G03X60206Y-31225I-319J-241D01*
G02X58707Y-31792I-1499J1698D01*
G02Y-27263I0J2265D01*
G02X60515Y-28165I0J-2265D01*
G03X61100Y-28224I319J241D01*
G02X62598Y-27657I1499J-1698D01*
G02Y-32186I0J-2265D01*
G02X60790Y-31284I0J2265D01*
G37*
G36*
G01X487477Y11314D02*
G03X487833Y11823I-28J399D01*
G02X487752Y12399I2006J576D01*
G02X491927I2087J0D01*
G02X490104Y10328I-2087J0D01*
G03X489776Y9800I51J-397D01*
G02X489902Y9055I-2139J-745D01*
G02X485373I-2265J0D01*
G02X487477Y11314I2265J0D01*
G37*
G36*
G01X483717Y-20059D02*
G02X482460Y-18031I1007J2028D01*
G02X484724Y-15767I2265J0D01*
G02X486708Y-16939I0J-2264D01*
G03X487406Y-16945I350J193D01*
G02X489370Y-15806I1965J-1126D01*
G02Y-20335I0J-2265D01*
G02X487387Y-19163I0J2264D01*
G03X486689Y-19157I-350J-193D01*
G02X486012Y-19894I-1964J1126D01*
G03X486047Y-20573I228J-329D01*
G02X487003Y-21694I-1008J-1828D01*
G03X487687Y-21814I376J136D01*
G02X489294Y-21059I1607J-1333D01*
G02Y-25234I0J-2087D01*
G02X487330Y-23854I0J2087D01*
G03X486646Y-23734I-376J-136D01*
G02X485039Y-24489I-1607J1333D01*
G02X482952Y-22402I0J2087D01*
G02X483780Y-20737I2087J0D01*
G03X483717Y-20059I-241J319D01*
G37*
G36*
G01X427566Y-28917D02*
G03X426848Y-28926I-357J-181D01*
G02X424803Y-30217I-2045J973D01*
G02Y-25688I0J2265D01*
G02X426824Y-26930I0J-2265D01*
G03X427542Y-26921I357J181D01*
G02X429587Y-25629I2045J-973D01*
G02Y-30158I0J-2265D01*
G02X427566Y-28917I0J2265D01*
G37*
G36*
G01X434328Y-20889D02*
G02Y-25418I0J-2265D01*
G02X432364Y-24280I0J2265D01*
G03X431703Y-24233I-347J-199D01*
G02X429921Y-25099I-1781J1398D01*
G02Y-20570I0J2265D01*
G02X431885Y-21707I0J-2265D01*
G03X432547Y-21755I347J199D01*
G02X434328Y-20889I1781J-1398D01*
G37*
G36*
G01X408453Y-25172D02*
G02X407125Y-23228I760J1944D01*
G02X411300I2087J0D01*
G02X410163Y-25087I-2087J0D01*
G03X410210Y-25820I182J-356D01*
G02X411713Y-27953I-761J-2133D01*
G02X407184I-2265J0D01*
G02X408479Y-25907I2264J0D01*
G03X408453Y-25172I-171J362D01*
G37*
G36*
G01X293983Y-26269D02*
G03X294413Y-25952I39J398D01*
G02X296457Y-24291I2044J-426D01*
G02X298544Y-26378I0J-2087D01*
G02X298035Y-27744I-2088J0D01*
G03X298216Y-28386I302J-262D01*
G02X299666Y-30374I-637J-1988D01*
G02X297579Y-32461I-2087J0D01*
G02X295493Y-30445I0J2087D01*
G03X294881Y-30119I-400J-14D01*
G02X293780Y-30434I-1102J1773D01*
G02X292343Y-29861I0J2088D01*
G02X290906Y-30434I-1437J1515D01*
G02X289266Y-29638I0J2087D01*
G02X288061Y-30021I-1205J1704D01*
G02X286199Y-28878I0J2088D01*
G03X285524Y-28818I-357J-181D01*
G02X283858Y-29646I-1665J1259D01*
G02X282372Y-29024I0J2087D01*
G03X281802I-285J-281D01*
G02X280315Y-29646I-1487J1465D01*
G02X278760Y-28952I0J2087D01*
G03X278150Y-28970I-298J-267D01*
G02X276378Y-29824I-1772J1411D01*
G02X275548Y-29666I0J2265D01*
G03X275293Y-29770I-73J-186D01*
G02X273228Y-31103I-2064J932D01*
G02Y-26574I0J2265D01*
G01X273229D01*
G02X274058Y-26731I0J-2265D01*
G03X274314Y-26628I73J186D01*
G02X276378Y-25294I2064J-932D01*
G02X278150Y-26148I0J-2265D01*
G03X278760Y-26166I313J249D01*
G02X280315Y-25472I1555J-1393D01*
G02X281802Y-26094I0J-2087D01*
G03X282372I285J281D01*
G02X283858Y-25472I1487J-1465D01*
G02X285720Y-26615I0J-2088D01*
G03X286396Y-26675I357J181D01*
G02X288061Y-25846I1665J-1259D01*
G02X289700Y-26642I0J-2087D01*
G02X290906Y-26259I1205J-1704D01*
G02X292343Y-26832I0J-2088D01*
G02X293780Y-26259I1437J-1515D01*
G01X293781D01*
G02X293983Y-26269I-1J-2087D01*
G37*
G36*
G01X285212Y3334D02*
G03X284976Y3807I-387J102D01*
G02X283562Y5906I851J2098D01*
G02X288091I2265J0D01*
G02X288016Y5327I-2265J0D01*
G03X288253Y4854I387J-102D01*
G02X289666Y2756I-851J-2098D01*
G02X289091Y1248I-2265J0D01*
G03X289094Y711I298J-267D01*
G02X289691Y-821I-1667J-1532D01*
G02X288018Y-3007I-2264J0D01*
G02X288107Y-3634I-2176J-627D01*
G02X283578I-2265J0D01*
G02X285251Y-1448I2264J0D01*
G02X285162Y-821I2176J627D01*
G02X285737Y687I2265J0D01*
G03X285734Y1224I-298J267D01*
G02X285137Y2756I1667J1532D01*
G02X285212Y3334I2265J0D01*
G37*
G36*
G01X323206Y4391D02*
G03X323259Y5038I-206J343D01*
G02X322462Y6763I1467J1725D01*
G02X326991I2265J0D01*
G02X325896Y4824I-2265J0D01*
G03X325843Y4176I206J-343D01*
G02X326640Y2452I-1467J-1725D01*
G02X322111I-2265J0D01*
G02X323206Y4391I2265J0D01*
G37*
G36*
G01X321593Y11422D02*
G02X319665Y10137I-1927J802D01*
G02Y14312I0J2087D01*
G02X321494Y13231I0J-2087D01*
G03X322213Y13270I350J193D01*
G02X324141Y14556I1927J-802D01*
G02Y10381I0J-2087D01*
G02X322312Y11461I0J2087D01*
G03X321593Y11422I-350J-193D01*
G37*
G36*
G01X446613Y-8702D02*
G02X444840Y-9689I-1773J1101D01*
G02Y-5514I0J2087D01*
G02X446736Y-6729I0J-2088D01*
G03X447439Y-6773I363J167D01*
G02X449213Y-5787I1773J-1101D01*
G02Y-9961I0J-2087D01*
G02X447316Y-8746I0J2088D01*
G03X446613Y-8702I-363J-167D01*
G37*
G36*
G01X396483Y6014D02*
G02X394488Y4822I-1994J1073D01*
G02Y9351I0J2265D01*
G02X396483Y8159I0J-2265D01*
G03X397187I352J189D01*
G02X399181Y9351I1994J-1073D01*
G02X401446Y7087I0J-2265D01*
G02X400328Y5133I-2265J0D01*
G03X400419Y4404I202J-345D01*
G02X401927Y2399I-579J-2006D01*
G02X397752I-2087J0D01*
G02X399363Y4431I2087J0D01*
G01X399431Y4447D01*
X399599Y4658D01*
X399383Y4830D01*
X399307Y4826D01*
G02X399181Y4822I-127J2261D01*
G02X397187Y6014I0J2265D01*
G03X396483I-352J-189D01*
G37*
G36*
G01X336582Y-4041D02*
G02X334744Y-5139I-1838J990D01*
G02Y-964I0J2087D01*
G02X336622Y-2141I0J-2087D01*
G03X337341Y-2144I360J174D01*
G02X339370Y-885I2029J-1006D01*
G02Y-5414I0J-2265D01*
G02X337300Y-4068I0J2265D01*
G03X336582Y-4041I-366J-162D01*
G37*
G36*
G01X377393Y-13943D02*
G03X376699Y-13886I-363J-168D01*
G02X374823Y-14883I-1876J1268D01*
G02Y-10354I0J2265D01*
G02X376878Y-11668I0J-2265D01*
G03X377573Y-11724I363J168D01*
G02X379449Y-10728I1876J-1268D01*
G02Y-15257I0J-2265D01*
G02X377393Y-13943I0J2265D01*
G37*
G54D28*
X272047Y15591D03*
Y25591D03*
Y35591D03*
X26772Y-19449D03*
Y-9449D03*
G54D24*
X275591Y0D03*
X523622D03*
G54D22*
X319567Y-2874D03*
X369350Y1909D03*
X374803Y1969D03*
X414567Y7126D03*
X389764Y-2756D03*
X334308Y11867D03*
X309843Y7087D03*
X419685Y-22441D03*
X414449Y-17992D03*
X464567Y-27953D03*
X384783Y-23091D03*
X389370Y-18071D03*
X394331Y-18110D03*
X399331D03*
X364547Y-22854D03*
X379528Y-22835D03*
X454724Y-32677D03*
X414567Y17323D03*
X454705Y-2736D03*
X349918Y1775D03*
X362795Y77520D03*
X312992Y26772D03*
X209449Y70866D03*
X189764Y81890D03*
X219291Y31693D03*
X304764Y2323D03*
X78346Y82677D03*
X282283Y18110D03*
X97244Y62598D03*
X314409Y-17717D03*
X225984Y8268D03*
X261811Y64567D03*
X261614Y149409D03*
X267323Y57087D03*
X512992Y18898D03*
X400394Y89764D03*
X404331Y53937D03*
X255118Y138583D03*
X268307Y88976D03*
X349606Y-12598D03*
X151969Y62598D03*
X507087Y18110D03*
X293307Y37008D03*
X504724Y148819D03*
X198031Y53150D03*
X254724Y132283D03*
X511417Y-18898D03*
X218504Y70472D03*
X182262Y64173D03*
X506299Y-15748D03*
X12992Y67323D03*
X253150Y89370D03*
X418268Y113150D03*
X282283Y12598D03*
X287008Y24016D03*
X284843Y36811D03*
X205512Y42520D03*
X402756Y19291D03*
X206299Y64173D03*
X238780Y8268D03*
X133858Y-7874D03*
X131102Y16929D03*
X250164Y48386D03*
X301850Y130197D03*
X413386Y130079D03*
X469685Y-12992D03*
X202362Y133858D03*
X508268Y32972D03*
X255906Y178482D03*
X343701Y90157D03*
X471220Y129567D03*
X527953Y37402D03*
X339647Y-17421D03*
X246850Y62598D03*
X100787Y5118D03*
X34252Y-9843D03*
X102756Y-787D03*
X-2362Y29134D03*
X64961Y-38189D03*
X259055Y161417D03*
X501181Y168898D03*
X228307Y129173D03*
X172205Y128583D03*
X499213Y174409D03*
X242126Y71654D03*
X518504Y69685D03*
X186614Y55512D03*
X518110Y83465D03*
X60000Y128898D03*
X141732Y-3937D03*
X266535Y76378D03*
X205906Y52756D03*
X255512Y218819D03*
X520079Y91732D03*
X449606Y-33071D03*
X271260Y83465D03*
X87402Y72441D03*
X143307D03*
X30709D03*
X97638Y32079D03*
X105512Y29134D03*
X302362Y44094D03*
X107874Y-9055D03*
X115964Y-32677D03*
X116102Y127598D03*
X51181Y-29134D03*
X21260Y28346D03*
X211614Y-36811D03*
X514745Y130315D03*
X508643Y124409D03*
X237224Y-25984D03*
X514665Y100295D03*
X230315Y40157D03*
X254331Y32283D03*
X161811Y23327D03*
X203937Y-33071D03*
X197539Y25886D03*
X154724Y20768D03*
X459055Y61024D03*
X440551D03*
X458483Y66535D03*
X492520Y61024D03*
X489370Y80531D03*
X346457Y61024D03*
X322020Y64370D03*
X327953Y61024D03*
X340142Y55890D03*
X346063Y67717D03*
X334646Y55906D03*
X328339Y67717D03*
X322020Y78346D03*
X383858Y61024D03*
X377559Y77953D03*
X513386Y91339D03*
X473228Y24803D03*
Y43307D03*
X479134Y25375D03*
X492735Y46457D03*
X157874Y-33858D03*
X381102Y24803D03*
Y43307D03*
X387008Y25375D03*
X427165Y23228D03*
X426969Y43504D03*
X433071Y25375D03*
X446672Y46457D03*
X527953Y64567D03*
X218110Y-7874D03*
X340157Y25375D03*
X328896Y27559D03*
X262205Y26378D03*
X177559Y-21850D03*
X198031Y-31496D03*
X161470Y-8215D03*
X238976Y-34252D03*
X508643Y110236D03*
X143307Y-14173D03*
X150787Y-15354D03*
X199213Y-21850D03*
X190551Y-21654D03*
X222441D03*
X193307Y-27165D03*
X228740Y-16142D03*
X192520Y-34646D03*
X228740Y-31102D03*
X172835Y-34252D03*
X145276Y-35039D03*
X119507Y12598D03*
X103740Y22441D03*
X243848Y-17717D03*
X260236Y-36436D03*
X271476Y-14961D03*
X260236Y-18682D03*
X266535Y-36614D03*
X527953Y83858D03*
X516929Y49606D03*
X519291Y21654D03*
X266535Y-18504D03*
X237795Y21654D03*
X4528Y-38189D03*
X22441Y-37205D03*
X17717Y-21831D03*
X113386Y-18898D03*
X107874Y11811D03*
X102756Y13780D03*
X82677Y-25984D03*
X79528Y-3937D03*
X72441Y-11024D03*
X72638Y-27165D03*
X36556Y105118D03*
X29902Y106890D03*
X92658Y105118D03*
X388189Y142894D03*
X89173Y112205D03*
X148761Y105118D03*
X332087Y142894D03*
X204863Y105118D03*
X275984Y142894D03*
X198209Y106890D03*
X279469Y105118D03*
X201378Y142894D03*
X272816Y106890D03*
X335572Y105118D03*
X145276Y142894D03*
X332087Y111417D03*
X391674Y105118D03*
X89173Y142894D03*
X33071D03*
X479094Y111043D03*
X477520Y131477D03*
X422992Y111043D03*
X421417Y131477D03*
X366890Y111043D03*
X365315Y131477D03*
X310787Y111043D03*
X309213Y131477D03*
X236181Y111043D03*
X234606Y131477D03*
X180079Y111043D03*
X178504Y131477D03*
X123976Y111043D03*
X67874D03*
X122402Y131477D03*
X66299D03*
X43307Y120688D03*
X49213Y126791D03*
X55118Y120688D03*
X99409D03*
X105315Y126791D03*
X111220Y120688D03*
X155512D03*
X161417Y126791D03*
X167323Y120688D03*
X3150Y-19507D03*
X161417Y111024D03*
X223425Y120688D03*
X447776Y105118D03*
X211614Y120688D03*
X286220D03*
X292126Y126791D03*
X354134Y120688D03*
X441123Y106890D03*
X410236Y110630D03*
X466339Y111220D03*
X404331Y111024D03*
X454528Y120688D03*
X111220Y111220D03*
X398425Y120688D03*
X354134Y111220D03*
X198819Y72441D03*
X444291Y142894D03*
X292126Y111292D03*
X105315Y111220D03*
X298031Y120688D03*
X460433Y111220D03*
X53406Y88425D03*
X73326Y88386D03*
X109509Y88425D03*
X129428Y88386D03*
X185531D03*
X241633D03*
X296320Y88425D03*
X316239Y88386D03*
X352422Y88425D03*
X372342Y88386D03*
X428444D03*
X484546D03*
X464627Y88425D03*
X72441Y-3937D03*
X223425Y111220D03*
X404331Y126791D03*
X79528Y3150D03*
X183858Y82283D03*
X167323Y111024D03*
X484468Y82283D03*
X348228Y111220D03*
Y126791D03*
X342323Y120688D03*
X234252Y-2972D03*
X334252Y26378D03*
X372263Y82283D03*
X466339Y120688D03*
X410236D03*
X238976Y81890D03*
X316161Y82283D03*
X460433Y126791D03*
X217520D03*
X400609Y46457D03*
X103150Y-15354D03*
X55118Y111024D03*
X79528Y-11024D03*
X217520Y111292D03*
X298031Y111024D03*
X428365Y82283D03*
X73247D03*
X49606Y111024D03*
X424665Y-17442D03*
X441378Y-11063D03*
X319508Y-17933D03*
X404331Y-27953D03*
X359488Y-22795D03*
X484646Y2362D03*
X354724Y7041D03*
X439764Y-22835D03*
X444826Y-27615D03*
X439744Y-17697D03*
X444803Y-17638D03*
X324803D03*
G54D21*
X329626Y-3051D03*
X324700Y-3007D03*
X339173Y-8268D03*
X339294Y-28147D03*
X384840Y12399D03*
X389294Y6853D03*
X384213Y7480D03*
X334646Y7087D03*
X485039Y-8346D03*
X489764Y-7677D03*
X369606Y7087D03*
X357067Y18878D03*
X414840Y12399D03*
X409882Y11811D03*
X453150Y24016D03*
X460236Y6693D03*
X465748Y25591D03*
X394567Y-7874D03*
X399587Y-7854D03*
X359173Y-7480D03*
X329528Y12165D03*
X314091Y2602D03*
X298819Y-9449D03*
X304882Y-27559D03*
X319294Y-28147D03*
X314606Y-27913D03*
X344294Y-28147D03*
X354331Y-27638D03*
X419294Y-28147D03*
X414646Y-27953D03*
X469685Y-22992D03*
X494094Y-27402D03*
X499213Y-22520D03*
X394252Y-27559D03*
X384294Y-28147D03*
X389252Y-27559D03*
X374294Y-3147D03*
X364294Y-28147D03*
X379294D03*
X374294Y-23147D03*
X459294Y-28147D03*
X484294D03*
X444294Y-2601D03*
X429294D03*
X429840Y-7601D03*
Y2399D03*
X474840Y12399D03*
X39882Y85039D03*
X96181D03*
X-1181Y59331D03*
X55118Y41732D03*
X3937Y59449D03*
X3681Y77283D03*
X-1319D03*
X-6319D03*
X-6299Y59331D03*
X-1319Y46339D03*
X-6319D03*
X8681Y77283D03*
X334646Y2362D03*
X315039Y12598D03*
X474840Y2399D03*
X399840Y12399D03*
X394840Y-2601D03*
X409840D03*
X499294Y-28147D03*
X479294Y-18147D03*
X459294D03*
X464294D03*
X399294Y-28147D03*
X439294D03*
X359294D03*
X304724Y-17717D03*
X304843Y-3150D03*
X309646Y-2953D03*
X314449Y-2756D03*
X329134Y2559D03*
X319785Y-9475D03*
X364961Y-8268D03*
X364449Y-12992D03*
X385039Y-3346D03*
X409961Y-8268D03*
X414840Y-7601D03*
X500531Y-10374D03*
X488976Y-2362D03*
X469213Y6772D03*
X474409Y6969D03*
X459646Y12205D03*
X444840Y2399D03*
X433858Y12598D03*
X368504Y27559D03*
X354331Y11890D03*
X434646Y-27953D03*
X464567Y-2874D03*
X469291Y1850D03*
X459449Y-8268D03*
X340353Y12333D03*
X394488Y12205D03*
X329921Y-17520D03*
X384291Y-12598D03*
G54D30*
X482874Y96850D03*
X426772D03*
X370669D03*
X314567D03*
X435925Y114961D03*
X267618D03*
X435925Y134646D03*
X379823Y144488D03*
X435925Y153150D03*
X267618D03*
X379823Y183858D03*
Y223228D03*
X240157Y96850D03*
X184055D03*
X127953D03*
X71850D03*
X193209Y114961D03*
X24902D03*
X193209Y134646D03*
X137106Y144488D03*
X24902Y134646D03*
X193209Y153150D03*
X24902D03*
X137106Y183858D03*
Y223228D03*
G54D29*
X492028Y105118D03*
X323720D03*
X435925Y164173D03*
X267618D03*
X492028Y183858D03*
X469685D03*
X448425D03*
X413583D03*
X392323D03*
X357480D03*
X336220D03*
X323720D03*
X301378D03*
X280118D03*
X435925Y203543D03*
X267618D03*
X492028Y223228D03*
X323720D03*
X458268Y242913D03*
X435925D03*
X402165D03*
X346063D03*
X289961D03*
X267618D03*
X249311Y105118D03*
X81004D03*
X193209Y164173D03*
X24902D03*
X249311Y183858D03*
X226969D03*
X205709D03*
X170866D03*
X149606D03*
X114764D03*
X93504D03*
X81004D03*
X58661D03*
X37402D03*
X193209Y203543D03*
X24902D03*
X249311Y223228D03*
X81004D03*
X215551Y242913D03*
X193209D03*
X159449D03*
X103346D03*
X47244D03*
X24902D03*
G54D23*
X292520Y-7874D03*
X506614Y4134D03*
G54D26*
X528740Y125630D03*
G54D27*
X517323Y158661D03*
X25591Y36220D03*
G54D25*
X483031Y121260D03*
X445236D03*
X426929D03*
X389134D03*
X314724D03*
X276929D03*
X370827D03*
X333031D03*
X240118D03*
X202323D03*
X184016D03*
X146220D03*
X127913D03*
X90118D03*
X71811D03*
X34016D03*
%LPD*%
G75*
G36*
G01X7480Y37008D02*
X9843D01*
G02X11520Y36069I0J-1968D01*
G03X11810Y35103I2260J151D01*
G02X11811Y35039I-1967J-68D01*
G01Y25197D01*
G03X15748Y21260I3937J0D01*
G01X18595D01*
G02X18995Y20861I0J-400D01*
G03X23524I2265J6D01*
G02X23924Y21260I400J-1D01*
G01X25516D01*
X25518Y21062D01*
G03X27782Y18818I2265J21D01*
G03X29952Y20435I0J2264D01*
G02X30190Y20572I192J-57D01*
G03X30713Y20511I524J2203D01*
G03X32396Y21260I0J2264D01*
G01X45669D01*
G03X49606Y25197I0J3937D01*
G01Y29134D01*
G02X52770Y32994I3937J0D01*
G02X53248Y32613I79J-392D01*
G03X53994Y30996I2264J64D01*
G02Y30402I-268J-297D01*
G03X53247Y28721I1517J-1681D01*
G03X57776I2265J0D01*
G03X57029Y30402I-2265J0D01*
G02Y30996I268J297D01*
G03X57776Y32672I-1517J1681D01*
G02X58176Y33071I400J-1D01*
G01X60617D01*
G02X60856Y32350I0J-400D01*
G03X59940Y30531I1349J-1819D01*
G03X64469I2265J0D01*
G03X63554Y32350I-2265J0D01*
G02X63792Y33071I238J321D01*
G01X64961D01*
G02X68604Y30627I0J-3937D01*
G03X68602Y30531I2263J-94D01*
G03X68886Y29431I2265J0D01*
G02X68898Y29134I-3925J-300D01*
G01Y20696D01*
G02X68233Y20397I-400J0D01*
G03X66732Y20965I-1500J-1696D01*
G03Y16436I0J-2265D01*
G03X68233Y17005I0J2264D01*
G02X68898Y16705I265J-300D01*
G01Y3937D01*
G02X64961Y0I-3937J0D01*
G01X54335D01*
G03X51176I-1580J-1623D01*
G01X44458D01*
G02X44075Y517I0J400D01*
G03X44175Y1181I-2165J664D01*
G03X39646I-2265J0D01*
G03X39745Y517I2264J0D01*
G02X39363Y0I-382J-117D01*
G01X31501D01*
G02X31101Y413I0J400D01*
G03X31103Y551I-4329J143D01*
G03X22440I-4331J0D01*
G03X22443Y413I4331J5D01*
G02X22043Y0I-400J-13D01*
G01X21140D01*
G02X20744Y458I0J400D01*
G03X20769Y787I-2241J329D01*
G03X16239I-2265J0D01*
G03X16253Y539I2265J1D01*
G02X15804Y98I-398J-44D01*
G02X5512Y11811I1519J11713D01*
G01Y35039D01*
G02X7480Y37008I1969J0D01*
G37*
G36*
G01X87402Y19685D02*
X89764D01*
Y16535D01*
X89370D01*
Y12598D01*
G03X90157Y11811I787J0D01*
G02X91339Y10630I0J-1181D01*
G01Y-17717D01*
G02X89370Y-19685I-1969J0D01*
G01X83858D01*
G02X81890Y-17717I0J1969D01*
G01Y-15748D01*
G02X83858Y-13780I1969J0D01*
G01X84646D01*
G03X86552Y-13287I0J3937D01*
G03X86614Y-13288I60J2264D01*
G03X88879Y-11024I0J2265D01*
G03X88582Y-9903I-2265J0D01*
G03X88583Y-9843I-3937J56D01*
G01Y-5057D01*
G03X88879Y-3937I-1969J1120D01*
G03X88583Y-2817I-2265J0D01*
G01Y2030D01*
G03X88879Y3150I-1969J1120D01*
G03X88264Y4700I-2264J0D01*
G03X84646Y7087I-3619J-1550D01*
G01X77165D01*
G02X73228Y11024I0J3937D01*
G01Y19685D01*
X76378D01*
Y13780D01*
G03X78346Y11811I1969J0D01*
G01X79528D01*
G03X81496Y13780I0J1969D01*
G01Y19685D01*
X83858D01*
Y12992D01*
G03X85039Y11811I1181J0D01*
G01X86220D01*
G03X87402Y12992I0J1181D01*
G01Y19685D01*
G37*
%LPC*%
G75*
G36*
G01X32167Y7411D02*
G03Y7943I-299J266D01*
G02X31594Y9449I1691J1506D01*
G02X33858Y11713I2265J0D01*
G02X35561Y10941I0J-2265D01*
G03X36110Y10891I301J264D01*
G02X37514Y11379I1404J-1776D01*
G02X39779Y9114I0J-2265D01*
G02X39098Y7496I-2264J0D01*
G02X39770Y5886I-1592J-1610D01*
G02X37506Y3621I-2265J0D01*
G02X35947Y4243I0J2264D01*
G03X35399Y4246I-275J-290D01*
G02X33858Y3641I-1541J1659D01*
G02X31594Y5906I0J2265D01*
G02X32167Y7411I2264J0D01*
G37*
G54D22*
X57480Y15354D03*
X14567Y12205D03*
X65157Y2953D03*
%LPD*%
G75*
G54D10*
X-7893Y-34646D03*
X4528Y-38189D03*
X3150Y-19507D03*
X-7893Y-27559D03*
X-7991Y-20276D03*
X-2756Y9843D03*
X-7302Y23228D03*
X-8287Y15354D03*
X7087Y23228D03*
X-8287Y35433D03*
X-2362Y29134D03*
X9055Y35433D03*
X22441Y-37205D03*
X17717Y-21831D03*
Y-3150D03*
X18504Y787D03*
X14567Y2756D03*
Y12205D03*
X27782Y21083D03*
X21260Y20866D03*
Y28346D03*
X27782Y29376D03*
X17392Y44550D03*
X13780Y36220D03*
X17520D03*
X20323Y46243D03*
X17392Y52843D03*
X18504Y55512D03*
X20323Y51151D03*
X16535Y75984D03*
X20079Y72047D03*
X16839Y73319D03*
X12992Y67323D03*
X16535Y79921D03*
X37795Y-29528D03*
X41517Y-13386D03*
Y-17717D03*
X37402Y-18898D03*
X34731Y-21759D03*
Y-26667D03*
X41910Y1181D03*
X33858Y5906D03*
X37506Y5886D03*
X34252Y-9843D03*
X37402Y1969D03*
X33858Y9449D03*
X37514Y9114D03*
X30713Y27683D03*
Y22775D03*
X39370Y31102D03*
X44882Y36614D03*
X42520Y28771D03*
Y33465D03*
X30709Y72441D03*
X40752Y73498D03*
X42717Y71457D03*
X40945Y68110D03*
X40551Y78346D03*
X29234Y81918D03*
X32448Y81613D03*
X29902Y103346D03*
X43307Y120688D03*
X29902Y106890D03*
X36556Y105118D03*
X38976Y119361D03*
X37953Y131477D03*
X41102D03*
X33071Y142894D03*
X41732Y147422D03*
X46063Y157302D03*
X41732D03*
X46063Y147422D03*
X57677Y-39961D03*
X64961Y-38189D03*
X58707Y-29528D03*
X62598Y-29921D03*
X51969Y-10236D03*
X51181Y-29134D03*
X65157Y2953D03*
X56299Y2756D03*
X52756Y-6531D03*
Y-1623D03*
X57480Y15354D03*
X53150D03*
X62205Y30531D03*
X55512Y28721D03*
Y32677D03*
X60236Y49213D03*
X54331D03*
X59742Y52985D03*
X54834D03*
X53524Y82283D03*
X58425Y99194D03*
X48031Y98819D03*
X53406Y88425D03*
X55118Y120688D03*
X59449Y119754D03*
X49606Y111024D03*
X55118D03*
X49213Y126791D03*
X66299Y131477D03*
X60000Y128898D03*
X50394Y147422D03*
X63386Y157302D03*
X58661Y157094D03*
X55512D03*
X50000D03*
X54724Y147422D03*
X59055D03*
X63386D03*
X79528Y-11024D03*
X72441D03*
X83484Y-18206D03*
X82677Y-25984D03*
X72638Y-27165D03*
X72441Y3150D03*
X79528D03*
X72441Y-3937D03*
X79528D03*
X66929Y9055D03*
X82677Y17717D03*
X74606Y18110D03*
X66732Y18701D03*
X74803Y22047D03*
X70866Y30531D03*
X80709D03*
X83643Y33071D03*
X84252Y45669D03*
X70472Y46457D03*
X66535Y30531D03*
X74495Y46731D03*
X84864Y49820D03*
X70472Y51969D03*
X74803Y55512D03*
X74495Y51639D03*
X73247Y82283D03*
X72835Y72835D03*
X72638Y75394D03*
X68504Y71260D03*
X78346Y82677D03*
X73326Y88386D03*
X79921Y89370D03*
X67874Y111043D03*
X102362Y-31102D03*
X98819Y-29606D03*
X86614Y-11024D03*
X101575Y-23622D03*
X88386Y-18307D03*
X86094Y-16280D03*
X98819Y-26378D03*
X103150Y-15354D03*
X86614Y3150D03*
Y-3937D03*
X100787Y5118D03*
X102756Y-787D03*
X103740Y22441D03*
X88386Y17717D03*
X102756Y13780D03*
X97638Y32079D03*
X86220Y29134D03*
X90354D03*
X87795Y43220D03*
X102362Y51181D03*
X97638Y50787D03*
X97244Y62598D03*
X87795Y48128D03*
X87402Y72441D03*
X97807Y71429D03*
X96654Y73425D03*
X100394Y75984D03*
X85748Y82079D03*
X88976Y82283D03*
X103937Y98425D03*
X99409Y120688D03*
X89173Y112205D03*
X92658Y105118D03*
X95079Y119361D03*
X94055Y131477D03*
X97205D03*
X89173Y142894D03*
X97835Y157302D03*
X102165D03*
X97835Y147422D03*
X102165D03*
X115964Y-32677D03*
X122047Y-19291D03*
X115964Y-24803D03*
X122835Y-12992D03*
X105512Y-24803D03*
X113386Y-18898D03*
X119688Y-13969D03*
X119591Y-17196D03*
X120079Y-25984D03*
X122047Y-3543D03*
X121654Y-9843D03*
X123622Y4724D03*
X107874Y-2756D03*
Y-9055D03*
X117990Y-4724D03*
X118113Y-7950D03*
X112205Y-787D03*
X119507Y12598D03*
X107874Y11811D03*
X111417Y42913D03*
X116142D03*
Y29134D03*
X105512D03*
X111417D03*
X108172Y50756D03*
X115474Y53150D03*
X110566D03*
X109627Y82283D03*
X114528Y99194D03*
X109509Y88425D03*
X111220Y120688D03*
X115551Y119754D03*
X105315Y111220D03*
X111220D03*
X105315Y126791D03*
X122402Y131477D03*
X116102Y127598D03*
X106299Y157094D03*
X111417D03*
X114961D03*
X120079D03*
X106496Y147422D03*
X110827D03*
X115157D03*
X119488D03*
X131493Y-36428D03*
X135037Y-38580D03*
X131102Y4724D03*
Y-1575D03*
X128150Y2954D03*
X128147Y-274D03*
X133858Y-7874D03*
X141732Y-3937D03*
X127559Y25984D03*
X141339Y27559D03*
X123862Y26141D03*
X131102Y16929D03*
X127559Y31102D03*
X141339Y32283D03*
X129134Y45669D03*
X123862Y30709D03*
X132513Y46567D03*
X129134Y51969D03*
X130734Y55614D03*
X132513Y51474D03*
X129350Y82283D03*
X128543Y75394D03*
X134252Y72047D03*
X130709Y71654D03*
X132283Y84252D03*
X141659Y82083D03*
X129428Y88386D03*
X142107Y103346D03*
X123976Y111043D03*
X142107Y106890D03*
X157874Y-33858D03*
X145276Y-35039D03*
X143307Y-14173D03*
X150787Y-15354D03*
X161470Y-8215D03*
X152362Y1969D03*
X149213Y7874D03*
Y4646D03*
X151969Y10236D03*
X147638Y24803D03*
X154724Y20768D03*
X161811Y23327D03*
X151870Y24803D03*
X145202Y27789D03*
Y32356D03*
X151969Y62598D03*
X143307Y72441D03*
X153449Y69591D03*
X152165Y73425D03*
X154724Y82677D03*
X158268Y70866D03*
X159449Y77165D03*
X156299Y74705D03*
X144887Y82078D03*
X160236Y98622D03*
X158661Y88189D03*
X155512Y120688D03*
X148761Y105118D03*
X151181Y119361D03*
X161417Y111024D03*
Y126791D03*
X150157Y131477D03*
X153307D03*
X145276Y142894D03*
X153937Y157302D03*
X158268D03*
X153937Y147422D03*
X158268D03*
X172835Y-34252D03*
X165551Y-33465D03*
X164567Y-20866D03*
X168898Y-19094D03*
X177165Y-15354D03*
X177559Y-21850D03*
X176378Y6693D03*
Y1181D03*
X179921Y5197D03*
Y1969D03*
X168287Y-6693D03*
X171654Y-7087D03*
X180709Y18504D03*
X178346Y16142D03*
Y11234D03*
X162303Y18209D03*
X172771Y52108D03*
X166904D03*
X171626Y55126D03*
X168397Y55118D03*
X180315Y72441D03*
X166929Y82283D03*
X170630Y99194D03*
X165611Y88425D03*
X162205Y88976D03*
X167323Y120688D03*
X180079Y111043D03*
X171654Y119754D03*
X167323Y111024D03*
X178504Y131477D03*
X172205Y128583D03*
X162205Y157094D03*
X167717D03*
X171260Y157302D03*
X176378Y157094D03*
X162598Y147422D03*
X166929D03*
X171260D03*
X175591D03*
X192520Y-34646D03*
X198031Y-31496D03*
X186131Y-21667D03*
X193307Y-27165D03*
X199213Y-21850D03*
X190551Y-21654D03*
X193701Y-15354D03*
X181102Y-14961D03*
X184646Y-15354D03*
X190104Y-15347D03*
X197165Y-8268D03*
X197539Y25886D03*
X181382Y10135D03*
X197539Y18209D03*
X185956Y29761D03*
X183858Y37191D03*
Y32283D03*
X186614Y55512D03*
X182262Y64173D03*
X198031Y53150D03*
X183858Y82283D03*
X198819Y72441D03*
X185039D03*
X189764Y81890D03*
X197283Y81850D03*
X185531Y88386D03*
X198209Y103346D03*
Y106890D03*
X211614Y-36811D03*
X213145Y-33969D03*
X203937Y-33071D03*
X211024Y-20866D03*
X214961Y-19488D03*
X210039Y-8268D03*
X216929Y-2972D03*
X208661Y-3150D03*
X212992D03*
X205118Y-8268D03*
X200394D03*
X218110Y-7874D03*
X206178Y8359D03*
Y3451D03*
X218863Y23481D03*
X209635Y16213D03*
Y12205D03*
X205512Y42520D03*
X206299Y64173D03*
X205906Y52756D03*
X215748Y81102D03*
X209449Y70866D03*
X204921Y81693D03*
X218504Y70472D03*
X200512Y81890D03*
X216337Y94847D03*
X210630Y88976D03*
X216142Y86654D03*
X217090Y99328D03*
X218898Y89075D03*
X212594Y94090D03*
X213238Y90926D03*
X211614Y120688D03*
X204863Y105118D03*
X207283Y119361D03*
X217520Y111292D03*
Y126791D03*
X205906Y129528D03*
X209409Y131477D03*
X202362Y133858D03*
X201378Y142894D03*
X214370Y157302D03*
X210039D03*
X218701D03*
X210039Y147422D03*
X218701D03*
X214370D03*
X210197Y143307D03*
X228740Y-31102D03*
X221654Y-31890D03*
X237224Y-25984D03*
X238189Y-13386D03*
X228740Y-16142D03*
X235433Y-17323D03*
X222441Y-21654D03*
X234252Y-2972D03*
X220079Y-3150D03*
X225433Y-3522D03*
X225984Y8268D03*
X229921Y-2972D03*
X223622Y-6693D03*
X237795Y21654D03*
X222441Y17717D03*
X222089Y23624D03*
X219291Y18504D03*
X230315Y40157D03*
X219291Y31693D03*
X224803Y40157D03*
X219685D03*
X235039Y53543D03*
X231102D03*
X219606Y61024D03*
X222835D03*
X223622Y81890D03*
X219685Y82283D03*
X226732Y99194D03*
X222835Y88425D03*
X219685Y85512D03*
X223425Y120688D03*
X236181Y111043D03*
X227756Y119754D03*
X223425Y111220D03*
X234606Y131477D03*
X228307Y129173D03*
X223622Y157094D03*
X227362Y157302D03*
X231850Y157094D03*
X223031Y147422D03*
X227362D03*
X231693D03*
X243307Y-29528D03*
X238976Y-34252D03*
X249213Y-36220D03*
X255512Y-36436D03*
X243012Y-26280D03*
X255512Y-18682D03*
X243848Y-17717D03*
X253929Y6693D03*
X238780Y8268D03*
X239764Y-3543D03*
X247638Y-6693D03*
X251181Y-7087D03*
X255118Y9843D03*
X247463Y43151D03*
X254331Y32283D03*
X250787Y41339D03*
X249598Y32283D03*
X254724Y45787D03*
Y42559D03*
X246850Y62598D03*
X250164Y48386D03*
X254724Y62598D03*
X238976Y81890D03*
X242126Y71654D03*
X246063Y77165D03*
X249300Y76161D03*
X252756Y77500D03*
X241633Y88386D03*
X253150Y89370D03*
X254724Y132283D03*
X255118Y138583D03*
X255125Y149515D03*
X255906Y178482D03*
X255512Y218819D03*
X256693Y233071D03*
X257087Y228740D03*
X275984Y-36614D03*
X266535D03*
X260236Y-36436D03*
X266535Y-18504D03*
X271476Y-14961D03*
X261595D03*
X260236Y-18682D03*
X273228Y-28839D03*
X276378Y-27559D03*
X258268Y7480D03*
X261024Y5512D03*
X264533Y7052D03*
X262205Y14173D03*
Y18504D03*
Y26378D03*
X264533Y10281D03*
X264567Y45669D03*
X261417Y46850D03*
X264567Y51299D03*
X261811Y64567D03*
X261427Y50079D03*
X267323Y57087D03*
X259843Y83465D03*
X262992D03*
X266535Y76378D03*
X272441Y75197D03*
X276378Y72618D03*
X271260Y83465D03*
X272816Y103346D03*
X268307Y88976D03*
X272816Y106890D03*
X261811Y125984D03*
X261597Y136402D03*
X261811Y130315D03*
X275984Y142894D03*
X261614Y149409D03*
X259055Y161417D03*
X280315Y-35039D03*
X295276Y-17717D03*
X285827Y5906D03*
X285842Y-3634D03*
X287427Y-821D03*
X287402Y2756D03*
X283268Y27756D03*
X282283Y18110D03*
Y12598D03*
X287008Y24016D03*
X280709Y44882D03*
X293307Y37008D03*
X283261Y33831D03*
X284843Y36811D03*
X277953Y46850D03*
X292913Y42835D03*
Y46063D03*
X280709Y51969D03*
X277953Y62992D03*
Y50079D03*
X283694Y83170D03*
X291339Y73622D03*
Y78740D03*
X283694Y77304D03*
X294882Y78337D03*
X280622Y78296D03*
X294882Y73430D03*
X280709Y81523D03*
X291890Y99764D03*
X286220Y120688D03*
X279469Y105118D03*
X281890Y119361D03*
X292126Y111292D03*
Y126791D03*
X280866Y131477D03*
X284016D03*
X284646Y157302D03*
X288976D03*
X293307D03*
Y147422D03*
X288976D03*
X284646D03*
X312174Y-39370D03*
X307480D03*
X298819Y-18110D03*
X314409Y-17717D03*
X304764Y2323D03*
X309843Y7087D03*
X303543Y26378D03*
X300394D03*
X312992Y26772D03*
X296457Y27953D03*
X307480Y26772D03*
X302362Y44094D03*
X302756Y53543D03*
X311728Y53583D03*
X298425Y55512D03*
X307480D03*
X296438Y82283D03*
X301339Y99194D03*
X296320Y88425D03*
X298031Y120688D03*
X310787Y111043D03*
X302362Y119754D03*
X298031Y111024D03*
X309213Y131477D03*
X301850Y130197D03*
X297638Y157302D03*
X301969D03*
X306299D03*
X297638Y147422D03*
X301969D03*
X306299D03*
X319508Y-17933D03*
X324803Y-17638D03*
X324605Y-23476D03*
X319567Y-2874D03*
X324376Y2452D03*
X324726Y6763D03*
X323228Y19291D03*
X322835Y27559D03*
X320045Y21079D03*
X320222Y17855D03*
X328896Y27559D03*
X321260Y35039D03*
X319685Y38189D03*
Y41417D03*
X330315Y39764D03*
X329921Y35691D03*
X325886Y43406D03*
X329834Y43409D03*
X319695Y31969D03*
X319685Y28740D03*
X322020Y64370D03*
X314961Y53543D03*
X327953Y61024D03*
X316161Y82283D03*
X322020Y78346D03*
X326674Y85000D03*
X315748Y72441D03*
X328131D03*
X328346Y78346D03*
X328339Y67717D03*
X326772Y90551D03*
X316239Y88386D03*
X322581Y89137D03*
X322658Y85909D03*
X332087Y111417D03*
Y142894D03*
X344488Y-23228D03*
X349606Y-12598D03*
X339589Y-23397D03*
X334646Y-23228D03*
X339647Y-17421D03*
X349606Y-22835D03*
X339370Y-3150D03*
X349918Y1775D03*
X344606Y2087D03*
X344488Y-2756D03*
X334252Y26378D03*
X342067Y18051D03*
X346063Y25760D03*
X340157Y25375D03*
X334308Y11867D03*
X344845Y19696D03*
X341252Y46457D03*
X346063Y43129D03*
X351969Y42913D03*
X344480Y46457D03*
X334646Y43307D03*
X340157Y43129D03*
X346457Y61024D03*
X334646Y55906D03*
X340142Y55890D03*
X351969Y74894D03*
X352540Y82283D03*
X345885Y72441D03*
X346063Y67717D03*
X335728Y83188D03*
X340846D03*
X347992Y99764D03*
X352422Y88425D03*
X335433Y101181D03*
X338287Y85827D03*
X343701Y90157D03*
X342323Y120688D03*
X335572Y105118D03*
X337992Y119361D03*
X348228Y111220D03*
Y126791D03*
X336969Y131477D03*
X340118D03*
X352362Y131102D03*
X340748Y157302D03*
X349409D03*
X345079D03*
X349409Y147422D03*
X345079D03*
X340748D03*
X364547Y-22854D03*
X359488Y-22795D03*
X354331Y-22835D03*
X369350Y1909D03*
X354724Y7041D03*
X364783Y6909D03*
X359783Y1909D03*
X364331Y2362D03*
X359843Y-2756D03*
X372047Y14567D03*
X369685Y16929D03*
X369567Y12500D03*
X354153Y46457D03*
X371786Y46079D03*
X371654Y40157D03*
X362205Y41732D03*
X356299D03*
X356810Y35531D03*
X359055Y32972D03*
X360630Y44882D03*
X368504Y45236D03*
X357402Y44882D03*
X368504Y42008D03*
X356810Y30413D03*
X369000Y53441D03*
X369063Y50213D03*
X362795Y77520D03*
X355118Y77743D03*
X355398Y72956D03*
X357441Y99194D03*
X354134Y120688D03*
X366890Y111043D03*
X358465Y119754D03*
X354134Y111220D03*
X365315Y131477D03*
X355906Y131102D03*
X359105Y129486D03*
X353740Y157302D03*
X358071D03*
X362402D03*
X353740Y147422D03*
X358071D03*
X362402D03*
X384783Y-23091D03*
X379528Y-22835D03*
X379449Y-12992D03*
X374823Y-12618D03*
X389370Y-18071D03*
X379887Y2326D03*
X374803Y1969D03*
X389764Y-2756D03*
X381102Y24803D03*
X387008Y25375D03*
X387617Y46457D03*
X390937D03*
X381102Y43307D03*
X387008Y43129D03*
X375984Y35118D03*
Y31890D03*
X373064Y54724D03*
Y48858D03*
X383858Y61024D03*
X389764Y54724D03*
X372263Y82283D03*
X377559Y77953D03*
X380709Y67539D03*
X380294Y84685D03*
X375591Y72047D03*
X384036Y72441D03*
X384252Y78346D03*
X384244Y67717D03*
X380315Y90551D03*
X372342Y88386D03*
X385020Y103346D03*
X383465Y89055D03*
Y85827D03*
X385020Y106890D03*
X388189Y142894D03*
X399331Y-18110D03*
X404724Y-17717D03*
X409449Y-27953D03*
X404331D03*
X394331Y-18110D03*
X409331D03*
X399181Y7087D03*
X409374Y7012D03*
X394488Y7087D03*
X404681Y7012D03*
X392520Y25375D03*
X402756Y19291D03*
X400609Y46457D03*
X392520Y43129D03*
X398425Y42913D03*
X403267Y35531D03*
X406693Y32972D03*
X403267Y30413D03*
X398819Y55512D03*
X405512Y61811D03*
X394094Y54724D03*
X404331Y53937D03*
X408643Y82283D03*
X401791Y72441D03*
X401969Y67717D03*
X405906Y66535D03*
X407874Y76772D03*
X407943Y72765D03*
X391634Y83188D03*
X394026Y85357D03*
X396752Y83188D03*
X404094Y99764D03*
X408524Y88425D03*
X400394Y89764D03*
X404724Y87402D03*
X410236Y120688D03*
X398425D03*
X391674Y105118D03*
X394094Y119361D03*
X404331Y111024D03*
X410236Y110630D03*
X404331Y126791D03*
X393071Y131477D03*
X396220D03*
X396850Y157302D03*
X401181D03*
X405512D03*
X409843D03*
X405512Y147422D03*
X401181D03*
X409843D03*
X396850D03*
X424665Y-17442D03*
X419685Y-22441D03*
X424564Y-12326D03*
X414449Y-17992D03*
X424803Y-27953D03*
X414567Y7126D03*
X427165Y23228D03*
X414567Y17323D03*
X426969Y43504D03*
X421654Y36220D03*
X421709Y31890D03*
X428346Y57270D03*
X427904Y51809D03*
X428365Y82283D03*
X413543Y99194D03*
X428444Y88386D03*
X422992Y111043D03*
X414567Y119754D03*
X418268Y113150D03*
X421417Y131477D03*
X413386Y130079D03*
X414173Y157302D03*
X418504D03*
X414173Y147422D03*
X418504D03*
X429587Y-27894D03*
X441378Y-11063D03*
X444803Y-17638D03*
X439744Y-17697D03*
X439764Y-22835D03*
X434328Y-23153D03*
X444826Y-27615D03*
X429921Y-22835D03*
X438976Y25375D03*
X433071D03*
X446672Y46457D03*
X433680D03*
X438976Y43129D03*
X444488Y42913D03*
X433071Y43129D03*
X429921Y54331D03*
X436614Y48425D03*
X440551Y61024D03*
X444488Y54724D03*
X437402Y80531D03*
Y67539D03*
X436818Y84646D03*
X433071Y76772D03*
X440551Y75197D03*
X440945Y78346D03*
X440729Y66535D03*
X429528Y76741D03*
Y72047D03*
X448327Y83188D03*
X436818Y90512D03*
X441123Y103346D03*
X441256Y89531D03*
Y86303D03*
X441123Y106890D03*
X447776Y105118D03*
X444291Y142894D03*
X449606Y-33071D03*
X454724Y-32677D03*
X464567Y-27953D03*
X454705Y-2736D03*
X466535Y36220D03*
Y32283D03*
X449330Y35531D03*
X452756Y32972D03*
X449330Y30413D03*
X459055Y61024D03*
X454724Y53150D03*
X449252Y54724D03*
X454724Y48456D03*
X464745Y82283D03*
X458483Y72441D03*
Y66535D03*
X453553Y83080D03*
X460197Y99764D03*
X464627Y88425D03*
X450886Y86220D03*
X466339Y120688D03*
X454528D03*
X450197Y119361D03*
X460433Y111220D03*
X466339D03*
X460433Y126791D03*
X449173Y131477D03*
X452323D03*
X452953Y157302D03*
X457283D03*
X461614D03*
X465945D03*
X461614Y147422D03*
X457283D03*
X465945D03*
X452953D03*
X474803Y-27776D03*
X484724Y-18031D03*
X479449Y-12992D03*
X469685D03*
X479921Y-7874D03*
X484646Y2362D03*
X479528Y-3150D03*
X473228Y24803D03*
X485039Y25375D03*
X479134D03*
X479743Y46457D03*
X483063D03*
X485039Y43129D03*
X473228Y43307D03*
X479134Y43129D03*
X475953Y53937D03*
X471260D03*
X484468Y82283D03*
X485827Y73819D03*
X469646Y99194D03*
X484546Y88386D03*
X479094Y111043D03*
X470669Y119754D03*
X477520Y131477D03*
X471220Y129567D03*
X470276Y157302D03*
X474606D03*
X470276Y147422D03*
X474606D03*
X489370Y-18071D03*
X494882Y-22835D03*
X499902Y-18209D03*
X489409Y-13031D03*
X487638Y9055D03*
X494488Y-3150D03*
X500394Y7874D03*
X492735Y46457D03*
X490551Y42913D03*
X495393Y35531D03*
X498819Y32972D03*
X495393Y30413D03*
X492520Y61024D03*
X499939Y55512D03*
X503168Y55511D03*
X489370Y80531D03*
Y67539D03*
X492815Y75886D03*
X492913Y78346D03*
X492698Y66929D03*
X500295Y83188D03*
X505413D03*
X502854Y86614D03*
X498819Y137008D03*
X500787Y140157D03*
X504724Y148819D03*
X499213Y174409D03*
X501181Y168898D03*
X503937Y202362D03*
X509387Y-32782D03*
X511025Y-30000D03*
X513780Y-23228D03*
X511024Y-26772D03*
X506299Y-15748D03*
X511417Y-18898D03*
X519291Y21654D03*
X507087Y18110D03*
X512992Y18898D03*
X519783Y37477D03*
X507480Y47244D03*
X508268Y32972D03*
X516929Y49606D03*
X507874Y54724D03*
X517323Y62992D03*
X517531Y58248D03*
X507480Y51394D03*
X518110Y83465D03*
X518504Y69685D03*
X510067Y73228D03*
Y66929D03*
X510236Y69685D03*
X513386Y91339D03*
X514665Y100295D03*
X520079Y91732D03*
X508643Y110236D03*
X514745Y116142D03*
X513780Y119685D03*
X508643Y124409D03*
X514745Y130315D03*
X512205Y197244D03*
X507541Y199980D03*
X514738Y193701D03*
X531102Y22047D03*
X525197Y26950D03*
X527953Y37402D03*
X531890Y49606D03*
X527953Y64567D03*
X531496Y58248D03*
X527953Y83858D03*
G54D20*
G01X528740Y121583D02*
Y125630D01*
G01X525678Y122568D02*
X528740Y125630D01*
G01D02*
X531802Y122568D01*
G01X528740Y125630D02*
Y129677D01*
G01X524693Y125630D02*
X528740D01*
G01D02*
X531802Y128692D01*
G01X525678D02*
X528740Y125630D01*
G54D11*
X0Y0D03*
X9843Y214961D03*
X275591Y0D03*
X508071Y214961D03*
X523622Y0D03*
G54D12*
X-1319Y46339D03*
X-6319D03*
X8681D03*
X3937Y59449D03*
X-1181Y59331D03*
X-6299D03*
X9055Y59055D03*
X-6319Y77283D03*
X8681D03*
X3681D03*
X-1319D03*
X14173Y46339D03*
Y56024D03*
X39882Y85039D03*
X55118Y41732D03*
X70866Y42913D03*
X96181Y85039D03*
X152087D03*
X210630D03*
X274016Y-16929D03*
X288061Y-27934D03*
X280315Y-27559D03*
X293780Y-28346D03*
X290906D03*
X283858Y-27559D03*
X292913Y50787D03*
X297579Y-30374D03*
X296457Y-26378D03*
X314606Y-27913D03*
X304882Y-27559D03*
X304724Y-17717D03*
X296227Y5512D03*
X298819Y-9449D03*
X304843Y-3150D03*
X314091Y2602D03*
X314449Y-2756D03*
X309646Y-2953D03*
X298819Y7008D03*
X296227Y11378D03*
X307067Y22815D03*
X298819Y9882D03*
X324294Y-28147D03*
X319294D03*
X329294Y-23147D03*
X329921Y-17520D03*
X329134Y2559D03*
X319785Y-9475D03*
X324700Y-3007D03*
X329626Y-3051D03*
X329528Y12165D03*
X324141Y12469D03*
X319665Y12224D03*
X315039Y12598D03*
X344294Y-28147D03*
X339294D03*
X334449Y-27756D03*
X349252Y-27559D03*
X340551Y2756D03*
X339173Y-8268D03*
X334646Y7087D03*
Y2362D03*
X334744Y-3051D03*
X340353Y12333D03*
X364294Y-28147D03*
X359294D03*
X354331Y-27638D03*
X364449Y-12992D03*
X364961Y-8268D03*
X359173Y-7480D03*
X369606Y7087D03*
X368504Y27559D03*
X357067Y18878D03*
X354331Y11890D03*
X384294Y-28147D03*
X379294D03*
X374294Y-23147D03*
X389252Y-27559D03*
X384291Y-12598D03*
X374294Y-3147D03*
X384294Y1853D03*
X389294Y6853D03*
X385039Y-3346D03*
X384213Y7480D03*
X384840Y12399D03*
X399294Y-28147D03*
X394252Y-27559D03*
X409213Y-23228D03*
X399840Y2399D03*
X394840Y-2601D03*
X399587Y-7854D03*
X409840Y-2601D03*
X394567Y-7874D03*
X409961Y-8268D03*
X399840Y12399D03*
X409882Y11811D03*
X394488Y12205D03*
X429294Y-12601D03*
X419294Y-28147D03*
X414646Y-27953D03*
X414840Y-7601D03*
X429294Y-2601D03*
X414840Y12399D03*
X439294Y-28147D03*
X434646Y-27953D03*
X444840Y2399D03*
X429840D03*
Y-7601D03*
X444840D03*
X444294Y-2601D03*
X433858Y12598D03*
X464294Y-18147D03*
X459294D03*
Y-28147D03*
X460236Y6693D03*
X464567Y-2874D03*
X449213Y-7874D03*
X459449Y-8268D03*
X465748Y25591D03*
X459646Y12205D03*
X453150Y24016D03*
X484294Y-28147D03*
X479294D03*
Y-18147D03*
X485039Y-22402D03*
X469685Y-22992D03*
X474840Y2399D03*
X474803Y-3110D03*
X485039Y-8346D03*
X469291Y-3150D03*
X474409Y6969D03*
X469291Y1850D03*
X469213Y6772D03*
X474840Y12399D03*
X499294Y-28147D03*
X489294Y-23147D03*
X494094Y-27402D03*
X499213Y-22520D03*
X500531Y-10374D03*
X500000Y1181D03*
X488976Y-2362D03*
X489764Y-7677D03*
X499685Y-2756D03*
X494567Y-7874D03*
X489840Y12399D03*
X501032Y11567D03*
G54D13*
X26772Y-9449D03*
Y-19449D03*
Y551D03*
X272047Y25591D03*
Y15591D03*
Y35591D03*
X528740Y105630D03*
Y95630D03*
Y115630D03*
Y125630D03*
Y138819D03*
Y148819D03*
Y158819D03*
G54D14*
X25591Y36220D03*
X517323Y158661D03*
G54D15*
X24902Y114961D03*
Y134646D03*
Y153150D03*
X52953Y96850D03*
X71850D03*
X81004Y153150D03*
X109055Y96850D03*
X127953D03*
X137106Y105118D03*
Y144488D03*
Y183858D03*
Y223228D03*
X165157Y96850D03*
X184055D03*
X193209Y114961D03*
Y134646D03*
Y153150D03*
X221260Y96850D03*
X240157D03*
X249311Y153150D03*
X267618Y114961D03*
Y134646D03*
Y153150D03*
X295669Y96850D03*
X314567D03*
X323720Y153150D03*
X351772Y96850D03*
X370669D03*
X379823Y105118D03*
Y144488D03*
Y183858D03*
Y223228D03*
X407874Y96850D03*
X426772D03*
X435925Y114961D03*
Y134646D03*
Y153150D03*
X463976Y96850D03*
X482874D03*
X492028Y153150D03*
G54D16*
X24902Y164173D03*
Y203543D03*
Y242913D03*
X37402Y183858D03*
X47244Y242913D03*
X58661Y183858D03*
X81004Y105118D03*
Y144488D03*
Y183858D03*
Y223228D03*
X93504Y183858D03*
X103346Y242913D03*
X114764Y183858D03*
X149606D03*
X159449Y242913D03*
X170866Y183858D03*
X193209Y164173D03*
Y203543D03*
Y242913D03*
X205709Y183858D03*
X215551Y242913D03*
X226969Y183858D03*
X249311Y105118D03*
Y144488D03*
Y183858D03*
Y223228D03*
X267618Y164173D03*
Y203543D03*
Y242913D03*
X280118Y183858D03*
X289961Y242913D03*
X301378Y183858D03*
X323720Y105118D03*
Y144488D03*
Y183858D03*
X336220D03*
X323720Y223228D03*
X346063Y242913D03*
X357480Y183858D03*
X392323D03*
X413583D03*
X402165Y242913D03*
X435925Y164173D03*
X448425Y183858D03*
X435925Y203543D03*
Y242913D03*
X469685Y183858D03*
X458268Y242913D03*
X492028Y105118D03*
Y144488D03*
Y183858D03*
Y223228D03*
G54D17*
X34016Y121260D03*
X71811D03*
X90118D03*
X127913D03*
X146220D03*
X184016D03*
X202323D03*
X240118D03*
X276929D03*
X314724D03*
X333031D03*
X370827D03*
X389134D03*
X426929D03*
X445236D03*
X483031D03*
G54D18*
X292520Y-7874D03*
X506614Y4134D03*
G54D19*
G01X11024Y194331D02*
X9659Y194488D01*
X8504Y194724D01*
X7454Y195039D01*
X6299Y195433D01*
X4724Y196063D01*
Y192913D01*
M02*
