G04 ================== begin FILE IDENTIFICATION RECORD ==================*
G04 Layout Name:  pc065b_toplevel_05.brd*
G04 Film Name:    art_pc065a_L06P.ger*
G04 File Format:  Gerber RS274X*
G04 File Origin:  Cadence Allegro 17.2-S063*
G04 Origin Date:  Thu May 21 15:30:50 2020*
G04 *
G04 Layer:  VIA CLASS/L6_SIG*
G04 Layer:  PIN/L6_SIG*
G04 Layer:  ETCH/L6_SIG*
G04 *
G04 Offset:    (0.0000 0.0000)*
G04 Mirror:    No*
G04 Mode:      Positive*
G04 Rotation:  0*
G04 FullContactRelief:  No*
G04 UndefLineWidth:     0.2000*
G04 ================== end FILE IDENTIFICATION RECORD ====================*
%FSLAX25Y25*MOIN*%
%IR0*IPPOS*OFA0.00000B0.00000*MIA0B0*SFA1.00000B1.00000*%
%ADD12C,.022047*%
%ADD10C,.025591*%
%ADD17C,.03937*%
%ADD13C,.066929*%
%ADD18C,.039402*%
%ADD11C,.141732*%
%ADD15C,.064961*%
%ADD16C,.068898*%
%ADD14C,.055*%
%ADD19C,.007874*%
%ADD20C,.005906*%
%ADD21C,.006693*%
G75*
%LPD*%
G75*
G54D10*
X-7893Y-34646D03*
X4528Y-38189D03*
X3150Y-19507D03*
X-7893Y-27559D03*
X-7991Y-20276D03*
X-2756Y9843D03*
X-7302Y23228D03*
X-8287Y15354D03*
X7087Y23228D03*
X-8287Y35433D03*
X-2362Y29134D03*
X9055Y35433D03*
X22441Y-37205D03*
X17717Y-21831D03*
Y-3150D03*
X18504Y787D03*
X14567Y2756D03*
Y12205D03*
X27782Y21083D03*
X21260Y20866D03*
Y28346D03*
X27782Y29376D03*
X17392Y44550D03*
X13780Y36220D03*
X17520D03*
X20323Y46243D03*
X17392Y52843D03*
X18504Y55512D03*
X20323Y51151D03*
X16535Y75984D03*
X20079Y72047D03*
X16839Y73319D03*
X12992Y67323D03*
X16535Y79921D03*
X37795Y-29528D03*
X41517Y-13386D03*
Y-17717D03*
X37402Y-18898D03*
X34731Y-21759D03*
Y-26667D03*
X41910Y1181D03*
X33858Y5906D03*
X37506Y5886D03*
X34252Y-9843D03*
X37402Y1969D03*
X33858Y9449D03*
X37514Y9114D03*
X30713Y27683D03*
Y22775D03*
X39370Y31102D03*
X44882Y36614D03*
X42520Y28771D03*
Y33465D03*
X30709Y72441D03*
X40752Y73498D03*
X42717Y71457D03*
X40945Y68110D03*
X40551Y78346D03*
X29234Y81918D03*
X32448Y81613D03*
X29902Y103346D03*
X43307Y120688D03*
X29902Y106890D03*
X36556Y105118D03*
X38976Y119361D03*
X37953Y131477D03*
X41102D03*
X33071Y142894D03*
X41732Y147422D03*
X46063Y157302D03*
X41732D03*
X46063Y147422D03*
X57677Y-39961D03*
X64961Y-38189D03*
X58707Y-29528D03*
X62598Y-29921D03*
X51969Y-10236D03*
X51181Y-29134D03*
X65157Y2953D03*
X56299Y2756D03*
X52756Y-6531D03*
Y-1623D03*
X57480Y15354D03*
X53150D03*
X62205Y30531D03*
X55512Y28721D03*
Y32677D03*
X60236Y49213D03*
X54331D03*
X59742Y52985D03*
X54834D03*
X53524Y82283D03*
X58425Y99194D03*
X48031Y98819D03*
X53406Y88425D03*
X55118Y120688D03*
X59449Y119754D03*
X49606Y111024D03*
X55118D03*
X49213Y126791D03*
X66299Y131477D03*
X60000Y128898D03*
X50394Y147422D03*
X63386Y157302D03*
X58661Y157094D03*
X55512D03*
X50000D03*
X54724Y147422D03*
X59055D03*
X63386D03*
X79528Y-11024D03*
X72441D03*
X83484Y-18206D03*
X82677Y-25984D03*
X72638Y-27165D03*
X72441Y3150D03*
X79528D03*
X72441Y-3937D03*
X79528D03*
X66929Y9055D03*
X82677Y17717D03*
X74606Y18110D03*
X66732Y18701D03*
X74803Y22047D03*
X70866Y30531D03*
X80709D03*
X83643Y33071D03*
X84252Y45669D03*
X70472Y46457D03*
X66535Y30531D03*
X74495Y46731D03*
X84864Y49820D03*
X70472Y51969D03*
X74803Y55512D03*
X74495Y51639D03*
X73247Y82283D03*
X72835Y72835D03*
X72638Y75394D03*
X68504Y71260D03*
X78346Y82677D03*
X73326Y88386D03*
X79921Y89370D03*
X67874Y111043D03*
X102362Y-31102D03*
X98819Y-29606D03*
X86614Y-11024D03*
X101575Y-23622D03*
X88386Y-18307D03*
X86094Y-16280D03*
X98819Y-26378D03*
X103150Y-15354D03*
X86614Y3150D03*
Y-3937D03*
X100787Y5118D03*
X102756Y-787D03*
X103740Y22441D03*
X88386Y17717D03*
X102756Y13780D03*
X97638Y32079D03*
X86220Y29134D03*
X90354D03*
X87795Y43220D03*
X102362Y51181D03*
X97638Y50787D03*
X97244Y62598D03*
X87795Y48128D03*
X87402Y72441D03*
X97807Y71429D03*
X96654Y73425D03*
X100394Y75984D03*
X85748Y82079D03*
X88976Y82283D03*
X103937Y98425D03*
X99409Y120688D03*
X89173Y112205D03*
X92658Y105118D03*
X95079Y119361D03*
X94055Y131477D03*
X97205D03*
X89173Y142894D03*
X97835Y157302D03*
X102165D03*
X97835Y147422D03*
X102165D03*
X115964Y-32677D03*
X122047Y-19291D03*
X115964Y-24803D03*
X122835Y-12992D03*
X105512Y-24803D03*
X113386Y-18898D03*
X119688Y-13969D03*
X119591Y-17196D03*
X120079Y-25984D03*
X122047Y-3543D03*
X121654Y-9843D03*
X123622Y4724D03*
X107874Y-2756D03*
Y-9055D03*
X117990Y-4724D03*
X118113Y-7950D03*
X112205Y-787D03*
X119507Y12598D03*
X107874Y11811D03*
X111417Y42913D03*
X116142D03*
Y29134D03*
X105512D03*
X111417D03*
X108172Y50756D03*
X115474Y53150D03*
X110566D03*
X109627Y82283D03*
X114528Y99194D03*
X109509Y88425D03*
X111220Y120688D03*
X115551Y119754D03*
X105315Y111220D03*
X111220D03*
X105315Y126791D03*
X122402Y131477D03*
X116102Y127598D03*
X106299Y157094D03*
X111417D03*
X114961D03*
X120079D03*
X106496Y147422D03*
X110827D03*
X115157D03*
X119488D03*
X131493Y-36428D03*
X135037Y-38580D03*
X131102Y4724D03*
Y-1575D03*
X128150Y2954D03*
X128147Y-274D03*
X133858Y-7874D03*
X141732Y-3937D03*
X127559Y25984D03*
X141339Y27559D03*
X123862Y26141D03*
X131102Y16929D03*
X127559Y31102D03*
X141339Y32283D03*
X129134Y45669D03*
X123862Y30709D03*
X132513Y46567D03*
X129134Y51969D03*
X130734Y55614D03*
X132513Y51474D03*
X129350Y82283D03*
X128543Y75394D03*
X134252Y72047D03*
X130709Y71654D03*
X132283Y84252D03*
X141659Y82083D03*
X129428Y88386D03*
X142107Y103346D03*
X123976Y111043D03*
X142107Y106890D03*
X157874Y-33858D03*
X145276Y-35039D03*
X143307Y-14173D03*
X150787Y-15354D03*
X161470Y-8215D03*
X152362Y1969D03*
X149213Y7874D03*
Y4646D03*
X151969Y10236D03*
X147638Y24803D03*
X154724Y20768D03*
X161811Y23327D03*
X151870Y24803D03*
X145202Y27789D03*
Y32356D03*
X151969Y62598D03*
X143307Y72441D03*
X153449Y69591D03*
X152165Y73425D03*
X154724Y82677D03*
X158268Y70866D03*
X159449Y77165D03*
X156299Y74705D03*
X144887Y82078D03*
X160236Y98622D03*
X158661Y88189D03*
X155512Y120688D03*
X148761Y105118D03*
X151181Y119361D03*
X161417Y111024D03*
Y126791D03*
X150157Y131477D03*
X153307D03*
X145276Y142894D03*
X153937Y157302D03*
X158268D03*
X153937Y147422D03*
X158268D03*
X172835Y-34252D03*
X165551Y-33465D03*
X164567Y-20866D03*
X168898Y-19094D03*
X177165Y-15354D03*
X177559Y-21850D03*
X176378Y6693D03*
Y1181D03*
X179921Y5197D03*
Y1969D03*
X168287Y-6693D03*
X171654Y-7087D03*
X180709Y18504D03*
X178346Y16142D03*
Y11234D03*
X162303Y18209D03*
X172771Y52108D03*
X166904D03*
X171626Y55126D03*
X168397Y55118D03*
X180315Y72441D03*
X166929Y82283D03*
X170630Y99194D03*
X165611Y88425D03*
X162205Y88976D03*
X167323Y120688D03*
X180079Y111043D03*
X171654Y119754D03*
X167323Y111024D03*
X178504Y131477D03*
X172205Y128583D03*
X162205Y157094D03*
X167717D03*
X171260Y157302D03*
X176378Y157094D03*
X162598Y147422D03*
X166929D03*
X171260D03*
X175591D03*
X192520Y-34646D03*
X198031Y-31496D03*
X186131Y-21667D03*
X193307Y-27165D03*
X199213Y-21850D03*
X190551Y-21654D03*
X193701Y-15354D03*
X181102Y-14961D03*
X184646Y-15354D03*
X190104Y-15347D03*
X197165Y-8268D03*
X197539Y25886D03*
X181382Y10135D03*
X197539Y18209D03*
X185956Y29761D03*
X183858Y37191D03*
Y32283D03*
X186614Y55512D03*
X182262Y64173D03*
X198031Y53150D03*
X183858Y82283D03*
X198819Y72441D03*
X185039D03*
X189764Y81890D03*
X197283Y81850D03*
X185531Y88386D03*
X198209Y103346D03*
Y106890D03*
X211614Y-36811D03*
X213145Y-33969D03*
X203937Y-33071D03*
X211024Y-20866D03*
X214961Y-19488D03*
X210039Y-8268D03*
X216929Y-2972D03*
X208661Y-3150D03*
X212992D03*
X205118Y-8268D03*
X200394D03*
X218110Y-7874D03*
X206178Y8359D03*
Y3451D03*
X218863Y23481D03*
X209635Y16213D03*
Y12205D03*
X205512Y42520D03*
X206299Y64173D03*
X205906Y52756D03*
X215748Y81102D03*
X209449Y70866D03*
X204921Y81693D03*
X218504Y70472D03*
X200512Y81890D03*
X216337Y94847D03*
X210630Y88976D03*
X216142Y86654D03*
X217090Y99328D03*
X218898Y89075D03*
X212594Y94090D03*
X213238Y90926D03*
X211614Y120688D03*
X204863Y105118D03*
X207283Y119361D03*
X217520Y111292D03*
Y126791D03*
X205906Y129528D03*
X209409Y131477D03*
X202362Y133858D03*
X201378Y142894D03*
X214370Y157302D03*
X210039D03*
X218701D03*
X210039Y147422D03*
X218701D03*
X214370D03*
X210197Y143307D03*
X228740Y-31102D03*
X221654Y-31890D03*
X237224Y-25984D03*
X238189Y-13386D03*
X228740Y-16142D03*
X235433Y-17323D03*
X222441Y-21654D03*
X234252Y-2972D03*
X220079Y-3150D03*
X225433Y-3522D03*
X225984Y8268D03*
X229921Y-2972D03*
X223622Y-6693D03*
X237795Y21654D03*
X222441Y17717D03*
X222089Y23624D03*
X219291Y18504D03*
X230315Y40157D03*
X219291Y31693D03*
X224803Y40157D03*
X219685D03*
X235039Y53543D03*
X231102D03*
X219606Y61024D03*
X222835D03*
X223622Y81890D03*
X219685Y82283D03*
X226732Y99194D03*
X222835Y88425D03*
X219685Y85512D03*
X223425Y120688D03*
X236181Y111043D03*
X227756Y119754D03*
X223425Y111220D03*
X234606Y131477D03*
X228307Y129173D03*
X223622Y157094D03*
X227362Y157302D03*
X231850Y157094D03*
X223031Y147422D03*
X227362D03*
X231693D03*
X243307Y-29528D03*
X238976Y-34252D03*
X249213Y-36220D03*
X255512Y-36436D03*
X243012Y-26280D03*
X255512Y-18682D03*
X243848Y-17717D03*
X253929Y6693D03*
X238780Y8268D03*
X239764Y-3543D03*
X247638Y-6693D03*
X251181Y-7087D03*
X255118Y9843D03*
X247463Y43151D03*
X254331Y32283D03*
X250787Y41339D03*
X249598Y32283D03*
X254724Y45787D03*
Y42559D03*
X246850Y62598D03*
X250164Y48386D03*
X254724Y62598D03*
X238976Y81890D03*
X242126Y71654D03*
X246063Y77165D03*
X249300Y76161D03*
X252756Y77500D03*
X241633Y88386D03*
X253150Y89370D03*
X254724Y132283D03*
X255118Y138583D03*
X255125Y149515D03*
X255906Y178482D03*
X255512Y218819D03*
X256693Y233071D03*
X257087Y228740D03*
X275984Y-36614D03*
X266535D03*
X260236Y-36436D03*
X266535Y-18504D03*
X271476Y-14961D03*
X261595D03*
X260236Y-18682D03*
X273228Y-28839D03*
X276378Y-27559D03*
X258268Y7480D03*
X261024Y5512D03*
X264533Y7052D03*
X262205Y14173D03*
Y18504D03*
Y26378D03*
X264533Y10281D03*
X264567Y45669D03*
X261417Y46850D03*
X264567Y51299D03*
X261811Y64567D03*
X261427Y50079D03*
X267323Y57087D03*
X259843Y83465D03*
X262992D03*
X266535Y76378D03*
X272441Y75197D03*
X276378Y72618D03*
X271260Y83465D03*
X272816Y103346D03*
X268307Y88976D03*
X272816Y106890D03*
X261811Y125984D03*
X261597Y136402D03*
X261811Y130315D03*
X275984Y142894D03*
X261614Y149409D03*
X259055Y161417D03*
X280315Y-35039D03*
X295276Y-17717D03*
X285827Y5906D03*
X285842Y-3634D03*
X287427Y-821D03*
X287402Y2756D03*
X283268Y27756D03*
X282283Y18110D03*
Y12598D03*
X287008Y24016D03*
X280709Y44882D03*
X293307Y37008D03*
X283261Y33831D03*
X284843Y36811D03*
X277953Y46850D03*
X292913Y42835D03*
Y46063D03*
X280709Y51969D03*
X277953Y62992D03*
Y50079D03*
X283694Y83170D03*
X291339Y73622D03*
Y78740D03*
X283694Y77304D03*
X294882Y78337D03*
X280622Y78296D03*
X294882Y73430D03*
X280709Y81523D03*
X291890Y99764D03*
X286220Y120688D03*
X279469Y105118D03*
X281890Y119361D03*
X292126Y111292D03*
Y126791D03*
X280866Y131477D03*
X284016D03*
X284646Y157302D03*
X288976D03*
X293307D03*
Y147422D03*
X288976D03*
X284646D03*
X312174Y-39370D03*
X307480D03*
X298819Y-18110D03*
X314409Y-17717D03*
X304764Y2323D03*
X309843Y7087D03*
X303543Y26378D03*
X300394D03*
X312992Y26772D03*
X296457Y27953D03*
X307480Y26772D03*
X302362Y44094D03*
X302756Y53543D03*
X311728Y53583D03*
X298425Y55512D03*
X307480D03*
X296438Y82283D03*
X301339Y99194D03*
X296320Y88425D03*
X298031Y120688D03*
X310787Y111043D03*
X302362Y119754D03*
X298031Y111024D03*
X309213Y131477D03*
X301850Y130197D03*
X297638Y157302D03*
X301969D03*
X306299D03*
X297638Y147422D03*
X301969D03*
X306299D03*
X319508Y-17933D03*
X324803Y-17638D03*
X324605Y-23476D03*
X319567Y-2874D03*
X324376Y2452D03*
X324726Y6763D03*
X323228Y19291D03*
X322835Y27559D03*
X320045Y21079D03*
X320222Y17855D03*
X328896Y27559D03*
X321260Y35039D03*
X319685Y38189D03*
Y41417D03*
X330315Y39764D03*
X329921Y35691D03*
X325886Y43406D03*
X329834Y43409D03*
X319695Y31969D03*
X319685Y28740D03*
X322020Y64370D03*
X314961Y53543D03*
X327953Y61024D03*
X316161Y82283D03*
X322020Y78346D03*
X326674Y85000D03*
X315748Y72441D03*
X328131D03*
X328346Y78346D03*
X328339Y67717D03*
X326772Y90551D03*
X316239Y88386D03*
X322581Y89137D03*
X322658Y85909D03*
X332087Y111417D03*
Y142894D03*
X344488Y-23228D03*
X349606Y-12598D03*
X339589Y-23397D03*
X334646Y-23228D03*
X339647Y-17421D03*
X349606Y-22835D03*
X339370Y-3150D03*
X349918Y1775D03*
X344606Y2087D03*
X344488Y-2756D03*
X334252Y26378D03*
X342067Y18051D03*
X346063Y25760D03*
X340157Y25375D03*
X334308Y11867D03*
X344845Y19696D03*
X341252Y46457D03*
X346063Y43129D03*
X351969Y42913D03*
X344480Y46457D03*
X334646Y43307D03*
X340157Y43129D03*
X346457Y61024D03*
X334646Y55906D03*
X340142Y55890D03*
X351969Y74894D03*
X352540Y82283D03*
X345885Y72441D03*
X346063Y67717D03*
X335728Y83188D03*
X340846D03*
X347992Y99764D03*
X352422Y88425D03*
X335433Y101181D03*
X338287Y85827D03*
X343701Y90157D03*
X342323Y120688D03*
X335572Y105118D03*
X337992Y119361D03*
X348228Y111220D03*
Y126791D03*
X336969Y131477D03*
X340118D03*
X352362Y131102D03*
X340748Y157302D03*
X349409D03*
X345079D03*
X349409Y147422D03*
X345079D03*
X340748D03*
X364547Y-22854D03*
X359488Y-22795D03*
X354331Y-22835D03*
X369350Y1909D03*
X354724Y7041D03*
X364783Y6909D03*
X359783Y1909D03*
X364331Y2362D03*
X359843Y-2756D03*
X372047Y14567D03*
X369685Y16929D03*
X369567Y12500D03*
X354153Y46457D03*
X371786Y46079D03*
X371654Y40157D03*
X362205Y41732D03*
X356299D03*
X356810Y35531D03*
X359055Y32972D03*
X360630Y44882D03*
X368504Y45236D03*
X357402Y44882D03*
X368504Y42008D03*
X356810Y30413D03*
X369000Y53441D03*
X369063Y50213D03*
X362795Y77520D03*
X355118Y77743D03*
X355398Y72956D03*
X357441Y99194D03*
X354134Y120688D03*
X366890Y111043D03*
X358465Y119754D03*
X354134Y111220D03*
X365315Y131477D03*
X355906Y131102D03*
X359105Y129486D03*
X353740Y157302D03*
X358071D03*
X362402D03*
X353740Y147422D03*
X358071D03*
X362402D03*
X384783Y-23091D03*
X379528Y-22835D03*
X379449Y-12992D03*
X374823Y-12618D03*
X389370Y-18071D03*
X379887Y2326D03*
X374803Y1969D03*
X389764Y-2756D03*
X381102Y24803D03*
X387008Y25375D03*
X387617Y46457D03*
X390937D03*
X381102Y43307D03*
X387008Y43129D03*
X375984Y35118D03*
Y31890D03*
X373064Y54724D03*
Y48858D03*
X383858Y61024D03*
X389764Y54724D03*
X372263Y82283D03*
X377559Y77953D03*
X380709Y67539D03*
X380294Y84685D03*
X375591Y72047D03*
X384036Y72441D03*
X384252Y78346D03*
X384244Y67717D03*
X380315Y90551D03*
X372342Y88386D03*
X385020Y103346D03*
X383465Y89055D03*
Y85827D03*
X385020Y106890D03*
X388189Y142894D03*
X399331Y-18110D03*
X404724Y-17717D03*
X409449Y-27953D03*
X404331D03*
X394331Y-18110D03*
X409331D03*
X399181Y7087D03*
X409374Y7012D03*
X394488Y7087D03*
X404681Y7012D03*
X392520Y25375D03*
X402756Y19291D03*
X400609Y46457D03*
X392520Y43129D03*
X398425Y42913D03*
X403267Y35531D03*
X406693Y32972D03*
X403267Y30413D03*
X398819Y55512D03*
X405512Y61811D03*
X394094Y54724D03*
X404331Y53937D03*
X408643Y82283D03*
X401791Y72441D03*
X401969Y67717D03*
X405906Y66535D03*
X407874Y76772D03*
X407943Y72765D03*
X391634Y83188D03*
X394026Y85357D03*
X396752Y83188D03*
X404094Y99764D03*
X408524Y88425D03*
X400394Y89764D03*
X404724Y87402D03*
X410236Y120688D03*
X398425D03*
X391674Y105118D03*
X394094Y119361D03*
X404331Y111024D03*
X410236Y110630D03*
X404331Y126791D03*
X393071Y131477D03*
X396220D03*
X396850Y157302D03*
X401181D03*
X405512D03*
X409843D03*
X405512Y147422D03*
X401181D03*
X409843D03*
X396850D03*
X424665Y-17442D03*
X419685Y-22441D03*
X424564Y-12326D03*
X414449Y-17992D03*
X424803Y-27953D03*
X414567Y7126D03*
X427165Y23228D03*
X414567Y17323D03*
X426969Y43504D03*
X421654Y36220D03*
X421709Y31890D03*
X428346Y57270D03*
X427904Y51809D03*
X428365Y82283D03*
X413543Y99194D03*
X428444Y88386D03*
X422992Y111043D03*
X414567Y119754D03*
X418268Y113150D03*
X421417Y131477D03*
X413386Y130079D03*
X414173Y157302D03*
X418504D03*
X414173Y147422D03*
X418504D03*
X429587Y-27894D03*
X441378Y-11063D03*
X444803Y-17638D03*
X439744Y-17697D03*
X439764Y-22835D03*
X434328Y-23153D03*
X444826Y-27615D03*
X429921Y-22835D03*
X438976Y25375D03*
X433071D03*
X446672Y46457D03*
X433680D03*
X438976Y43129D03*
X444488Y42913D03*
X433071Y43129D03*
X429921Y54331D03*
X436614Y48425D03*
X440551Y61024D03*
X444488Y54724D03*
X437402Y80531D03*
Y67539D03*
X436818Y84646D03*
X433071Y76772D03*
X440551Y75197D03*
X440945Y78346D03*
X440729Y66535D03*
X429528Y76741D03*
Y72047D03*
X448327Y83188D03*
X436818Y90512D03*
X441123Y103346D03*
X441256Y89531D03*
Y86303D03*
X441123Y106890D03*
X447776Y105118D03*
X444291Y142894D03*
X449606Y-33071D03*
X454724Y-32677D03*
X464567Y-27953D03*
X454705Y-2736D03*
X466535Y36220D03*
Y32283D03*
X449330Y35531D03*
X452756Y32972D03*
X449330Y30413D03*
X459055Y61024D03*
X454724Y53150D03*
X449252Y54724D03*
X454724Y48456D03*
X464745Y82283D03*
X458483Y72441D03*
Y66535D03*
X453553Y83080D03*
X460197Y99764D03*
X464627Y88425D03*
X450886Y86220D03*
X466339Y120688D03*
X454528D03*
X450197Y119361D03*
X460433Y111220D03*
X466339D03*
X460433Y126791D03*
X449173Y131477D03*
X452323D03*
X452953Y157302D03*
X457283D03*
X461614D03*
X465945D03*
X461614Y147422D03*
X457283D03*
X465945D03*
X452953D03*
X474803Y-27776D03*
X484724Y-18031D03*
X479449Y-12992D03*
X469685D03*
X479921Y-7874D03*
X484646Y2362D03*
X479528Y-3150D03*
X473228Y24803D03*
X485039Y25375D03*
X479134D03*
X479743Y46457D03*
X483063D03*
X485039Y43129D03*
X473228Y43307D03*
X479134Y43129D03*
X475953Y53937D03*
X471260D03*
X484468Y82283D03*
X485827Y73819D03*
X469646Y99194D03*
X484546Y88386D03*
X479094Y111043D03*
X470669Y119754D03*
X477520Y131477D03*
X471220Y129567D03*
X470276Y157302D03*
X474606D03*
X470276Y147422D03*
X474606D03*
X489370Y-18071D03*
X494882Y-22835D03*
X499902Y-18209D03*
X489409Y-13031D03*
X487638Y9055D03*
X494488Y-3150D03*
X500394Y7874D03*
X492735Y46457D03*
X490551Y42913D03*
X495393Y35531D03*
X498819Y32972D03*
X495393Y30413D03*
X492520Y61024D03*
X499939Y55512D03*
X503168Y55511D03*
X489370Y80531D03*
Y67539D03*
X492815Y75886D03*
X492913Y78346D03*
X492698Y66929D03*
X500295Y83188D03*
X505413D03*
X502854Y86614D03*
X498819Y137008D03*
X500787Y140157D03*
X504724Y148819D03*
X499213Y174409D03*
X501181Y168898D03*
X503937Y202362D03*
X509387Y-32782D03*
X511025Y-30000D03*
X513780Y-23228D03*
X511024Y-26772D03*
X506299Y-15748D03*
X511417Y-18898D03*
X519291Y21654D03*
X507087Y18110D03*
X512992Y18898D03*
X519783Y37477D03*
X507480Y47244D03*
X508268Y32972D03*
X516929Y49606D03*
X507874Y54724D03*
X517323Y62992D03*
X517531Y58248D03*
X507480Y51394D03*
X518110Y83465D03*
X518504Y69685D03*
X510067Y73228D03*
Y66929D03*
X510236Y69685D03*
X513386Y91339D03*
X514665Y100295D03*
X520079Y91732D03*
X508643Y110236D03*
X514745Y116142D03*
X513780Y119685D03*
X508643Y124409D03*
X514745Y130315D03*
X512205Y197244D03*
X507541Y199980D03*
X514738Y193701D03*
X531102Y22047D03*
X525197Y26950D03*
X527953Y37402D03*
X531890Y49606D03*
X527953Y64567D03*
X531496Y58248D03*
X527953Y83858D03*
G54D20*
G01X235039Y53543D02*
X234220D01*
X231535Y56228D01*
Y56654D01*
X229528Y58661D01*
X217958D01*
X211890Y52593D01*
Y7243D01*
X210630Y5983D01*
Y-1181D01*
X208661Y-3150D01*
G01X231102Y53543D02*
Y53544D01*
X231380Y53822D01*
Y54657D01*
X230315Y55722D01*
Y56148D01*
X229022Y57441D01*
X218464D01*
X213110Y52087D01*
Y6737D01*
X211850Y5477D01*
Y-2008D01*
X212992Y-3150D01*
G01X254724Y45787D02*
X255709Y44803D01*
X258105D01*
X259428Y43480D01*
Y25858D01*
X259488Y25798D01*
Y11104D01*
X261653Y8939D01*
X263191D01*
X264533Y10281D01*
G01X254724Y42559D02*
X255748Y43583D01*
X257599D01*
X258208Y42974D01*
Y25352D01*
X258268Y25293D01*
Y10598D01*
X261147Y7719D01*
X263697D01*
X263704Y7725D01*
X263828Y7757D01*
X264533Y7052D01*
G01X287427Y-821D02*
X285352D01*
X284938Y-407D01*
X284858D01*
X284267Y183D01*
Y369D01*
X284264Y372D01*
Y2624D01*
X282402Y4486D01*
Y5787D01*
X278701Y9488D01*
Y26928D01*
X277126Y28503D01*
Y42802D01*
X271815Y48113D01*
X266343D01*
X266104Y47874D01*
X263654D01*
X263535Y47756D01*
X262969D01*
X262733Y47520D01*
X262480D01*
X261811Y46850D01*
X261417D01*
G01X287402Y2756D02*
X287008D01*
X286063Y3701D01*
X284913D01*
X283622Y4992D01*
Y6293D01*
X279921Y9994D01*
Y27434D01*
X278346Y29009D01*
Y43307D01*
X272321Y49333D01*
X265837D01*
X265598Y49094D01*
X263148D01*
X263030Y48976D01*
X262694D01*
X262337Y49333D01*
X262211D01*
X261819Y49724D01*
X261781D01*
X261427Y50079D01*
G01X293780Y-28346D02*
Y-23119D01*
X287795Y-17134D01*
Y-6693D01*
X293386Y-1102D01*
X306183D01*
X306852Y-433D01*
X307723D01*
X313018Y4862D01*
X315647D01*
X317759Y6974D01*
Y10604D01*
X317823Y10658D01*
X319665Y12224D01*
G01X315039Y12598D02*
X316539Y10835D01*
Y7480D01*
X315141Y6083D01*
X312512D01*
X307217Y787D01*
X306346D01*
X305677Y118D01*
X292880D01*
X286575Y-6187D01*
Y-17640D01*
X291480Y-22545D01*
X290906Y-23119D01*
Y-28346D01*
G01X280622Y78296D02*
X280118Y78800D01*
X279418D01*
X278591Y79627D01*
X277435D01*
X276844Y79036D01*
Y77487D01*
X289763Y64567D01*
Y39612D01*
X288854Y38702D01*
Y27619D01*
X293307Y23165D01*
Y11024D01*
X294980Y9350D01*
X297185D01*
X297717Y9882D01*
X298819D01*
G01X280709Y81523D02*
X280681D01*
X280531Y81674D01*
X279418D01*
X278591Y80847D01*
X276929D01*
X275624Y79542D01*
Y76981D01*
X288543Y64061D01*
Y40118D01*
X287633Y39208D01*
Y27113D01*
X292087Y22659D01*
Y10518D01*
X295065Y7539D01*
X297185D01*
X297717Y7008D01*
X298819D01*
G01X312174Y-39370D02*
X310866Y-38063D01*
Y-4600D01*
X311673Y-3793D01*
Y-3681D01*
X312067Y-3287D01*
Y-3240D01*
X312551Y-2756D01*
X314449D01*
G01X307480Y-39370D02*
X309646Y-37205D01*
Y-2953D01*
G01X320222Y17855D02*
X320217D01*
X319685Y17323D01*
X318110D01*
X315709Y19724D01*
Y25833D01*
X315807Y25931D01*
Y27612D01*
X315709Y27710D01*
Y45951D01*
X311728Y49931D01*
Y53583D01*
G01X324376Y2452D02*
X324031Y2107D01*
X321973D01*
X321030Y3050D01*
Y5281D01*
X322205Y6457D01*
Y8472D01*
X324173Y10441D01*
X324981D01*
X326168Y11628D01*
Y13309D01*
X326043Y13433D01*
Y13439D01*
X325471Y14011D01*
Y28978D01*
X325485Y28993D01*
Y31119D01*
X325911Y31545D01*
Y31926D01*
X326496Y32511D01*
Y37110D01*
X326673Y37287D01*
Y41831D01*
X325886Y42618D01*
Y43406D01*
G01X324726Y6763D02*
Y8460D01*
X327389Y11122D01*
Y13815D01*
X327264Y13939D01*
Y13944D01*
X326692Y14517D01*
Y28472D01*
X326706Y28487D01*
Y30613D01*
X327131Y31039D01*
Y31420D01*
X327717Y32005D01*
Y36604D01*
X327894Y36781D01*
Y42165D01*
X329139Y43409D01*
X329834D01*
G01X320045Y21079D02*
X317970D01*
X316929Y22120D01*
Y25327D01*
X317028Y25426D01*
Y28118D01*
X316929Y28216D01*
Y46457D01*
X314961Y48426D01*
Y53543D01*
G01X322581Y89137D02*
Y88951D01*
X320760Y87130D01*
X319954D01*
X318649Y85825D01*
Y79820D01*
X318594Y79766D01*
Y62951D01*
X318649Y62896D01*
Y49067D01*
X322047Y45669D01*
Y42520D01*
X322060Y42507D01*
Y42281D01*
X323470Y40872D01*
Y32950D01*
X322567Y32047D01*
X322514D01*
X322439Y31972D01*
X319698D01*
X319695Y31969D01*
G01X322658Y85909D02*
X320460D01*
X319870Y85319D01*
Y79315D01*
X319815Y79260D01*
Y63457D01*
X319870Y63402D01*
Y49573D01*
X323268Y46175D01*
Y43026D01*
X323281Y43013D01*
Y42787D01*
X324691Y41378D01*
Y32444D01*
X323073Y30827D01*
X323020D01*
X322944Y30752D01*
X322706D01*
X321876Y29921D01*
X321193D01*
X320030Y28758D01*
X319702D01*
X319685Y28740D01*
G01X368504Y45236D02*
X368858Y44882D01*
X369291D01*
X370079Y44094D01*
X370652D01*
X370872Y43874D01*
X372781D01*
X375079Y41577D01*
Y38738D01*
X373593Y37252D01*
Y27530D01*
X362933Y16870D01*
Y13327D01*
X361528Y11922D01*
Y6082D01*
X362119Y5492D01*
X363052D01*
X364783Y6909D01*
G01X368504Y42008D02*
X368583Y42087D01*
X369080D01*
X369789Y42795D01*
X369921D01*
X370000Y42874D01*
X370146D01*
X370367Y42654D01*
X372276D01*
X373858Y41071D01*
Y39244D01*
X372372Y37758D01*
Y28035D01*
X361713Y17376D01*
Y13833D01*
X360308Y12428D01*
Y5576D01*
X361613Y4271D01*
X362768D01*
X362831Y4194D01*
X364331Y2362D01*
G01X404331Y-27953D02*
X406535Y-30157D01*
X410362D01*
X411654Y-28866D01*
Y-28795D01*
X412618Y-27830D01*
Y-27113D01*
X413806Y-25925D01*
X414523D01*
X415486Y-24962D01*
Y-24323D01*
X417480Y-22329D01*
Y-21528D01*
X418937Y-20071D01*
Y47983D01*
X424098Y53144D01*
X425211D01*
X425993Y52362D01*
X427352D01*
X427904Y51809D01*
G01X405906Y66535D02*
X407087Y65354D01*
Y64915D01*
X410276Y61726D01*
Y49101D01*
X400630Y39455D01*
Y21460D01*
X397283Y18113D01*
Y14004D01*
X397736Y13551D01*
Y10859D01*
X397283Y10406D01*
Y8985D01*
X399181Y7087D01*
G01X409374Y7012D02*
X407480Y8906D01*
Y26226D01*
X412913Y31659D01*
Y73941D01*
X411016Y75838D01*
Y75839D01*
X410083Y76772D01*
X407874D01*
G01X394488Y7087D02*
X396063Y8661D01*
Y10912D01*
X396516Y11365D01*
Y13045D01*
X396063Y13498D01*
Y18619D01*
X399409Y21966D01*
Y39961D01*
X409055Y49607D01*
Y61220D01*
X407406Y62870D01*
X406570D01*
X405512Y61811D01*
G01X407943Y72765D02*
X409666Y74488D01*
X410640D01*
X411693Y73435D01*
Y32165D01*
X406260Y26732D01*
Y9500D01*
X404681Y7922D01*
Y7012D01*
G01X409449Y-27953D02*
X413584Y-23817D01*
X414266D01*
X416260Y-21823D01*
Y-21022D01*
X417717Y-19565D01*
Y48489D01*
X423592Y54365D01*
X424644D01*
X427550Y57270D01*
X428346D01*
G01X469213Y6772D02*
Y6893D01*
X469333Y7013D01*
X470866D01*
X471220Y7368D01*
Y14455D01*
X469803Y15872D01*
Y26222D01*
X471220Y27640D01*
Y39984D01*
X460811Y50394D01*
X457158D01*
X457060Y50296D01*
X456564D01*
X454724Y48456D01*
G01X474409Y6969D02*
X473346D01*
X472441Y7874D01*
Y14961D01*
X471024Y16378D01*
Y25717D01*
X472441Y27134D01*
Y40490D01*
X461317Y51614D01*
X456663D01*
X456564Y51713D01*
X456161D01*
X454724Y53150D01*
G54D11*
X0Y0D03*
X9843Y214961D03*
X275591Y0D03*
X508071Y214961D03*
X523622Y0D03*
G54D21*
G01X41732Y147422D02*
X26162D01*
X12795Y134055D01*
Y70049D01*
X12313Y69567D01*
X12062D01*
X10748Y68253D01*
Y66393D01*
X11417Y65724D01*
Y10630D01*
X18504Y3543D01*
Y787D01*
G01X57677Y-39961D02*
X65157Y-32480D01*
Y2953D01*
G01X62598Y-29921D02*
X59843Y-27165D01*
Y40945D01*
X64202Y45304D01*
Y60995D01*
X62992Y62205D01*
Y125906D01*
X60000Y128898D01*
G01X57480Y15354D02*
Y27516D01*
X57756Y27791D01*
Y39094D01*
X55118Y41732D01*
G01X70866Y42913D02*
X73110Y40669D01*
Y25079D01*
X66732Y18701D01*
G01X97835Y147422D02*
X90335D01*
X76378Y133465D01*
Y83883D01*
X76102Y83607D01*
Y81747D01*
X76378Y81472D01*
Y57874D01*
X76870Y57382D01*
Y56619D01*
X77047Y56442D01*
Y54582D01*
X76870Y54405D01*
Y24114D01*
X74803Y22047D01*
G01X116102Y127598D02*
X117717Y125984D01*
Y120763D01*
X117795Y120684D01*
Y44434D01*
X118386Y43843D01*
Y41983D01*
X118209Y41806D01*
Y30241D01*
X118386Y30064D01*
Y28204D01*
X118209Y28027D01*
Y27263D01*
X114961Y24015D01*
Y-12567D01*
X115650Y-13256D01*
Y-18799D01*
X120079Y-23228D01*
Y-25984D01*
G01X141732Y-3937D02*
Y-2000D01*
X141339Y-1606D01*
Y2756D01*
X120079Y24016D01*
Y43988D01*
X119488Y44578D01*
Y147422D01*
G01X153937D02*
X158661Y142698D01*
Y111418D01*
X157087Y109843D01*
Y89764D01*
X158661Y88189D01*
G01X210039Y147422D02*
X200000Y137383D01*
Y135446D01*
X188268Y123713D01*
Y95105D01*
X188202Y95039D01*
Y86257D01*
X187913Y85969D01*
Y85719D01*
X187708Y85513D01*
Y84566D01*
X187913Y84360D01*
Y83213D01*
X187520Y82820D01*
Y80960D01*
X188202Y80278D01*
Y59830D01*
X188858Y59173D01*
Y56191D01*
X189064Y55985D01*
Y55038D01*
X188858Y54833D01*
Y51850D01*
X188202Y51194D01*
Y25604D01*
X184646Y22048D01*
Y1969D01*
X177165Y-5512D01*
Y-15354D01*
G01X162205Y88976D02*
X163700Y90472D01*
X164483D01*
X164681Y90669D01*
X164813D01*
X166781Y92638D01*
X166997D01*
X171309Y96950D01*
X171560D01*
X172874Y98264D01*
Y98515D01*
X174803Y100444D01*
Y125984D01*
X172205Y128583D01*
G01X228307Y129173D02*
X206926Y107792D01*
Y106230D01*
X207107Y106048D01*
Y104188D01*
X206930Y104011D01*
Y89497D01*
X207382Y89045D01*
Y87333D01*
X206988Y86939D01*
Y82800D01*
X207165Y82623D01*
Y80763D01*
X206693Y80291D01*
Y67490D01*
X207972Y66211D01*
Y65674D01*
X208543Y65103D01*
Y63243D01*
X207972Y62672D01*
Y53863D01*
X208150Y53686D01*
Y51826D01*
X207972Y51649D01*
Y41043D01*
X203937Y37007D01*
Y12074D01*
X196457Y4593D01*
Y-5802D01*
X194921Y-7338D01*
Y-9198D01*
X196457Y-10733D01*
Y-17862D01*
X192665Y-21654D01*
X190551D01*
G01X193701Y-15354D02*
Y-13240D01*
X193307Y-12846D01*
Y-1969D01*
X194213Y-1063D01*
Y49331D01*
X198031Y53150D01*
G01X202362Y133858D02*
X200867Y132363D01*
X200080D01*
X196838Y129121D01*
Y118987D01*
X197913Y117912D01*
Y113707D01*
X192402Y108196D01*
Y85719D01*
X192913Y85207D01*
Y82116D01*
X192008Y81211D01*
Y80960D01*
X191614Y80566D01*
Y932D01*
X181496Y-9186D01*
Y-12453D01*
X181102Y-12846D01*
Y-14961D01*
G01X190104Y-15347D02*
Y-13233D01*
X190433Y-12904D01*
Y-2087D01*
X192913Y394D01*
Y80028D01*
X193307Y80422D01*
Y80672D01*
X194213Y81578D01*
Y85745D01*
X193701Y86257D01*
Y105906D01*
X199213Y111417D01*
Y118450D01*
X198137Y119526D01*
Y125303D01*
X204016Y131181D01*
Y131575D01*
X206162Y133721D01*
X206556D01*
X210197Y137363D01*
Y143307D01*
G01X203937Y-33071D02*
X205307Y-31701D01*
X215376D01*
X217254Y-29823D01*
X218603D01*
X231791Y-16634D01*
Y-14892D01*
X234252Y-12431D01*
Y-7481D01*
X237402Y-4331D01*
Y6472D01*
X236535Y7338D01*
Y9394D01*
X237402Y10261D01*
Y18504D01*
X235728Y20177D01*
Y20546D01*
X235551Y20724D01*
Y22583D01*
X235728Y22761D01*
Y46752D01*
X249902Y60925D01*
Y61486D01*
X254251Y65836D01*
Y76005D01*
X252756Y77500D01*
G01X200394Y-8268D02*
Y6693D01*
X205906Y12205D01*
Y36614D01*
X209843Y40551D01*
Y67322D01*
X211713Y69193D01*
Y83122D01*
X213078Y84487D01*
Y84564D01*
X213091Y84577D01*
Y86681D01*
X213898Y87488D01*
Y87583D01*
X215212Y88898D01*
X215272D01*
X215450Y89075D01*
X218898D01*
G01X255118Y138583D02*
X252362Y135827D01*
Y124409D01*
X253937Y122834D01*
Y97244D01*
X245787Y89094D01*
Y82532D01*
X244999Y81744D01*
Y79419D01*
X243209Y77628D01*
Y75915D01*
X243976Y75148D01*
Y72977D01*
X244370Y72583D01*
Y70724D01*
X243976Y70330D01*
Y56837D01*
X234429Y47290D01*
Y43878D01*
X232559Y42008D01*
Y39228D01*
X232382Y39050D01*
Y15453D01*
X227854Y10925D01*
Y9572D01*
X228228Y9198D01*
Y7338D01*
X227854Y6964D01*
Y-1865D01*
X227677Y-2042D01*
Y-7205D01*
X228346Y-7874D01*
Y-13634D01*
X228740Y-14028D01*
Y-16142D01*
G01X255512Y218819D02*
Y215669D01*
X244882Y205039D01*
Y95276D01*
X244488Y94882D01*
Y83070D01*
X241043Y79626D01*
Y76476D01*
X239764Y75196D01*
Y54462D01*
X233130Y47828D01*
Y45502D01*
X230030Y42402D01*
X229385D01*
X228071Y41087D01*
Y38701D01*
X224409Y35039D01*
Y18922D01*
X224685Y18646D01*
Y16787D01*
X224409Y16511D01*
Y9867D01*
X223740Y9198D01*
Y7338D01*
X224409Y6669D01*
Y787D01*
X224016Y394D01*
Y-1372D01*
X222441Y-2947D01*
Y-5512D01*
X223622Y-6693D01*
G01X243307Y-29528D02*
X252756D01*
X264291Y-17993D01*
Y-17574D01*
X265606Y-16260D01*
X266024D01*
X267539Y-14744D01*
Y3336D01*
X276358Y12155D01*
Y21280D01*
X272047Y25591D01*
G01X243012Y-26280D02*
X250837D01*
X256191Y-20926D01*
X256442D01*
X257756Y-19612D01*
Y-19361D01*
X257992Y-19125D01*
Y-17752D01*
X259351Y-16393D01*
Y-14031D01*
X259449Y-13933D01*
Y-2917D01*
X267717Y5350D01*
Y31260D01*
X272047Y35591D01*
G01X255906Y178482D02*
Y176545D01*
X256299Y176152D01*
Y155906D01*
X257480Y154725D01*
Y150561D01*
X257579Y150463D01*
Y148750D01*
X257480Y148652D01*
Y86114D01*
X256299Y84933D01*
Y81996D01*
X257480Y80815D01*
Y60463D01*
X252648Y55630D01*
X251430D01*
X244074Y48274D01*
Y44773D01*
X243920Y44619D01*
Y41683D01*
X244075Y41528D01*
Y30466D01*
X250563Y23978D01*
Y8338D01*
X250386Y8161D01*
Y5225D01*
X250563Y5048D01*
Y-3768D01*
X247638Y-6693D01*
G01X259055Y161417D02*
Y159303D01*
X259353Y159006D01*
Y91804D01*
X258780Y91230D01*
Y85576D01*
X257598Y84394D01*
Y82535D01*
X258780Y81354D01*
Y59924D01*
X253186Y54331D01*
X251969D01*
X245374Y47736D01*
Y44235D01*
X245219Y44081D01*
Y42221D01*
X245374Y42066D01*
Y31004D01*
X251862Y24516D01*
Y7800D01*
X251685Y7623D01*
Y5763D01*
X252676Y4772D01*
Y-5591D01*
X251181Y-7087D01*
G01X267323Y57087D02*
Y66535D01*
X261811Y72047D01*
Y79360D01*
X263671Y81220D01*
X263922D01*
X265236Y82535D01*
Y82785D01*
X268307Y85856D01*
Y88976D01*
G01X287008Y24016D02*
Y25956D01*
X286373Y26591D01*
Y28588D01*
X283374Y31587D01*
X282331D01*
X281017Y32902D01*
Y34761D01*
X281201Y34945D01*
Y42536D01*
X281303Y42638D01*
X281639D01*
X282953Y43952D01*
Y44288D01*
X283517Y44852D01*
Y53884D01*
X264469Y72933D01*
Y75271D01*
X264291Y75448D01*
Y77308D01*
X264469Y77485D01*
Y79036D01*
X268504Y83071D01*
X268752D01*
X269146Y83465D01*
X271260D01*
G01X284843Y36811D02*
Y38925D01*
X285433Y39516D01*
Y59843D01*
X272441Y72835D01*
Y75197D01*
G01X297638Y147422D02*
X305118Y139942D01*
Y121654D01*
X312854Y113918D01*
Y112150D01*
X313031Y111972D01*
Y110113D01*
X312854Y109935D01*
Y106062D01*
X326121Y92795D01*
X327702D01*
X329016Y91481D01*
Y89901D01*
X335728Y83188D01*
G01X338287Y85827D02*
X335039D01*
X330315Y90551D01*
Y92019D01*
X328240Y94094D01*
X326772D01*
X314173Y106693D01*
Y109417D01*
X314331Y109574D01*
Y112511D01*
X314154Y112688D01*
Y114456D01*
X306693Y121917D01*
Y142698D01*
X301969Y147422D01*
G01X334308Y11867D02*
Y16873D01*
X331141Y20041D01*
Y29388D01*
X331403Y29650D01*
Y31363D01*
X331102Y31664D01*
Y31890D01*
X329921Y33071D01*
Y35691D01*
G01X334646Y-23228D02*
Y-15602D01*
X336614Y-13634D01*
Y-4355D01*
X336890Y-4080D01*
Y-2220D01*
X336713Y-2043D01*
Y3219D01*
X336614Y3317D01*
Y6132D01*
X336713Y6230D01*
Y7943D01*
X336614Y8041D01*
Y10476D01*
X336552Y10537D01*
Y40086D01*
X335576Y41063D01*
X333716D01*
X332402Y42377D01*
Y44237D01*
X333716Y45551D01*
X335576D01*
X336713Y46688D01*
Y53839D01*
X334646Y55906D01*
G01X339647Y-17421D02*
Y-15307D01*
X339764Y-15191D01*
Y-10600D01*
X341240Y-9124D01*
Y-4454D01*
X341614Y-4080D01*
Y-2220D01*
X341240Y-1846D01*
Y-856D01*
X338189Y2195D01*
Y13671D01*
X338484Y13967D01*
Y22441D01*
X338091Y22835D01*
Y24268D01*
X337913Y24445D01*
Y26305D01*
X338091Y26482D01*
Y42022D01*
X337913Y42199D01*
Y44059D01*
X338189Y44335D01*
Y46408D01*
X339008Y47227D01*
Y47387D01*
X339952Y48331D01*
Y53586D01*
X340142Y53776D01*
Y55890D01*
G01X349606Y-22835D02*
X345513Y-18741D01*
Y-5442D01*
X346850Y-4104D01*
Y7728D01*
X344845Y9734D01*
Y19696D01*
G01X343701Y90157D02*
X340256Y93602D01*
Y106004D01*
X342185Y107933D01*
Y117376D01*
X344567Y119758D01*
Y128343D01*
X342362Y130547D01*
Y132407D01*
X342185Y132584D01*
Y145985D01*
X340748Y147422D01*
G01X352362Y131102D02*
Y128988D01*
X351575Y128201D01*
Y116954D01*
X360654Y107874D01*
X362992D01*
X364567Y106299D01*
Y87796D01*
X365039Y87323D01*
Y68976D01*
X364567Y68504D01*
Y40157D01*
X359941Y35531D01*
X356810D01*
G01X354331Y-22835D02*
Y-20687D01*
X354724Y-20294D01*
Y7041D01*
G01X359055Y32972D02*
X361713D01*
X366535Y37795D01*
Y40738D01*
X366043Y41230D01*
Y56988D01*
X366535Y57480D01*
Y95026D01*
X366457Y95105D01*
Y108302D01*
X364646Y110113D01*
Y114094D01*
X360709Y118031D01*
Y120684D01*
X360118Y121275D01*
Y121509D01*
X360000Y121627D01*
Y124252D01*
X355906Y128346D01*
Y131102D01*
G01X391634Y83188D02*
Y85512D01*
X381476Y95669D01*
X379639D01*
X370354Y104954D01*
Y112716D01*
X362008Y121063D01*
Y121222D01*
X361417Y121813D01*
Y139745D01*
X353740Y147422D01*
G01X394026Y85357D02*
X392530Y86852D01*
X392131D01*
X379377Y99606D01*
X377539D01*
X371654Y105492D01*
Y113648D01*
X362717Y122585D01*
Y140283D01*
X358071Y144929D01*
Y147422D01*
G01X404724Y87402D02*
X402787D01*
X402394Y87008D01*
X395701D01*
X381803Y100906D01*
X378078D01*
X375610Y103373D01*
Y106863D01*
X376772Y108025D01*
Y137402D01*
X366751Y147422D01*
X362402D01*
G01X389764Y54724D02*
X382677Y47638D01*
Y44906D01*
X383346Y44237D01*
Y42377D01*
X382677Y41708D01*
Y26402D01*
X383346Y25733D01*
Y23873D01*
X382283Y22810D01*
Y8474D01*
X382146Y8337D01*
Y6624D01*
X382283Y6486D01*
Y2766D01*
X382227Y2709D01*
Y-6749D01*
X377728Y-11248D01*
X376193D01*
X374823Y-12618D01*
G01X375984Y35118D02*
X378391Y32711D01*
Y3821D01*
X379887Y2326D01*
G01X375984Y31890D02*
Y5264D01*
X374803Y4083D01*
Y1969D01*
G01X389764Y-2756D02*
X387227Y-219D01*
Y7709D01*
X388583Y9065D01*
Y23776D01*
X389252Y24445D01*
Y26305D01*
X388583Y26974D01*
Y33465D01*
X394882Y39764D01*
Y52000D01*
X394094Y52787D01*
Y54724D01*
G01X400394Y89764D02*
Y93307D01*
X400787Y93701D01*
Y143485D01*
X396850Y147422D01*
G01X424564Y-12326D02*
Y-10211D01*
X424746Y-10029D01*
Y33128D01*
X421654Y36220D01*
G01X424803Y-27953D02*
X421929Y-25079D01*
Y-21511D01*
X421709Y-21291D01*
Y31890D01*
G01X414567Y17323D02*
Y19437D01*
X414173Y19831D01*
Y47244D01*
X418268Y51339D01*
Y113150D01*
G01X448327Y83188D02*
Y89600D01*
X417323Y120604D01*
Y131496D01*
X416142Y132677D01*
Y141123D01*
X409843Y147422D01*
G01X450886Y86220D02*
Y88878D01*
X418622Y121142D01*
Y142973D01*
X414173Y147422D01*
G01X439764Y-22835D02*
X444527D01*
X454606Y-12755D01*
Y-6009D01*
X457874Y-2741D01*
Y4294D01*
X455787Y6381D01*
Y36732D01*
X449213Y43307D01*
Y50000D01*
X444488Y54724D01*
G01X444826Y-27615D02*
Y-24466D01*
X455906Y-13386D01*
Y-6547D01*
X459173Y-3279D01*
Y4833D01*
X457087Y6919D01*
Y37270D01*
X456122Y38235D01*
Y41909D01*
X451969Y46063D01*
Y52008D01*
X449252Y54724D01*
G01X466535Y36220D02*
X463681Y33366D01*
Y4823D01*
X466654Y1850D01*
X469291D01*
G01X499939Y55512D02*
Y53398D01*
X500295Y53042D01*
Y34670D01*
X501063Y33902D01*
Y32043D01*
X500886Y31865D01*
Y18602D01*
X484646Y2362D01*
G01X479528Y-3150D02*
X483071D01*
X503168Y16947D01*
Y55511D01*
G01X499213Y174409D02*
X496457Y171654D01*
Y122835D01*
X497638Y121654D01*
Y37776D01*
X495393Y35531D01*
G01X507087Y18110D02*
Y22803D01*
X505020Y24870D01*
Y52264D01*
X505512Y52756D01*
Y56341D01*
X505118Y56735D01*
Y72441D01*
X505787Y73110D01*
Y75341D01*
X507874Y77428D01*
Y85039D01*
X504724Y88189D01*
Y143700D01*
X501969Y146456D01*
Y159056D01*
X503937Y161024D01*
Y167549D01*
X504035Y167648D01*
Y169360D01*
X503937Y169459D01*
Y202362D01*
G01X527953Y37402D02*
Y35287D01*
X528535Y34705D01*
Y26566D01*
X511417Y9448D01*
Y-11644D01*
X511319Y-11742D01*
Y-13455D01*
X511417Y-13553D01*
Y-18898D01*
G01X512205Y197244D02*
Y174409D01*
X506576Y168780D01*
Y150285D01*
X507185Y149675D01*
Y147963D01*
X506299Y147077D01*
Y101796D01*
X509331Y98765D01*
Y96905D01*
X506299Y93873D01*
Y89239D01*
X509449Y86089D01*
Y77165D01*
X507087Y74803D01*
Y64961D01*
X510236Y61811D01*
Y52213D01*
X509417Y51394D01*
X507480D01*
G01X514738Y193701D02*
Y172612D01*
X511417Y169291D01*
Y92544D01*
X511142Y92269D01*
Y90409D01*
X511417Y90133D01*
Y75196D01*
X513386Y73228D01*
Y64173D01*
X511535Y62322D01*
Y51674D01*
X511417Y51556D01*
Y48701D01*
X509961Y47244D01*
X507480D01*
G54D12*
X-1319Y46339D03*
X-6319D03*
X8681D03*
X3937Y59449D03*
X-1181Y59331D03*
X-6299D03*
X9055Y59055D03*
X-6319Y77283D03*
X8681D03*
X3681D03*
X-1319D03*
X14173Y46339D03*
Y56024D03*
X39882Y85039D03*
X55118Y41732D03*
X70866Y42913D03*
X96181Y85039D03*
X152087D03*
X210630D03*
X274016Y-16929D03*
X288061Y-27934D03*
X280315Y-27559D03*
X293780Y-28346D03*
X290906D03*
X283858Y-27559D03*
X292913Y50787D03*
X297579Y-30374D03*
X296457Y-26378D03*
X314606Y-27913D03*
X304882Y-27559D03*
X304724Y-17717D03*
X296227Y5512D03*
X298819Y-9449D03*
X304843Y-3150D03*
X314091Y2602D03*
X314449Y-2756D03*
X309646Y-2953D03*
X298819Y7008D03*
X296227Y11378D03*
X307067Y22815D03*
X298819Y9882D03*
X324294Y-28147D03*
X319294D03*
X329294Y-23147D03*
X329921Y-17520D03*
X329134Y2559D03*
X319785Y-9475D03*
X324700Y-3007D03*
X329626Y-3051D03*
X329528Y12165D03*
X324141Y12469D03*
X319665Y12224D03*
X315039Y12598D03*
X344294Y-28147D03*
X339294D03*
X334449Y-27756D03*
X349252Y-27559D03*
X340551Y2756D03*
X339173Y-8268D03*
X334646Y7087D03*
Y2362D03*
X334744Y-3051D03*
X340353Y12333D03*
X364294Y-28147D03*
X359294D03*
X354331Y-27638D03*
X364449Y-12992D03*
X364961Y-8268D03*
X359173Y-7480D03*
X369606Y7087D03*
X368504Y27559D03*
X357067Y18878D03*
X354331Y11890D03*
X384294Y-28147D03*
X379294D03*
X374294Y-23147D03*
X389252Y-27559D03*
X384291Y-12598D03*
X374294Y-3147D03*
X384294Y1853D03*
X389294Y6853D03*
X385039Y-3346D03*
X384213Y7480D03*
X384840Y12399D03*
X399294Y-28147D03*
X394252Y-27559D03*
X409213Y-23228D03*
X399840Y2399D03*
X394840Y-2601D03*
X399587Y-7854D03*
X409840Y-2601D03*
X394567Y-7874D03*
X409961Y-8268D03*
X399840Y12399D03*
X409882Y11811D03*
X394488Y12205D03*
X429294Y-12601D03*
X419294Y-28147D03*
X414646Y-27953D03*
X414840Y-7601D03*
X429294Y-2601D03*
X414840Y12399D03*
X439294Y-28147D03*
X434646Y-27953D03*
X444840Y2399D03*
X429840D03*
Y-7601D03*
X444840D03*
X444294Y-2601D03*
X433858Y12598D03*
X464294Y-18147D03*
X459294D03*
Y-28147D03*
X460236Y6693D03*
X464567Y-2874D03*
X449213Y-7874D03*
X459449Y-8268D03*
X465748Y25591D03*
X459646Y12205D03*
X453150Y24016D03*
X484294Y-28147D03*
X479294D03*
Y-18147D03*
X485039Y-22402D03*
X469685Y-22992D03*
X474840Y2399D03*
X474803Y-3110D03*
X485039Y-8346D03*
X469291Y-3150D03*
X474409Y6969D03*
X469291Y1850D03*
X469213Y6772D03*
X474840Y12399D03*
X499294Y-28147D03*
X489294Y-23147D03*
X494094Y-27402D03*
X499213Y-22520D03*
X500531Y-10374D03*
X500000Y1181D03*
X488976Y-2362D03*
X489764Y-7677D03*
X499685Y-2756D03*
X494567Y-7874D03*
X489840Y12399D03*
X501032Y11567D03*
G54D13*
X26772Y-9449D03*
Y-19449D03*
Y551D03*
X272047Y25591D03*
Y15591D03*
Y35591D03*
X528740Y105630D03*
Y95630D03*
Y115630D03*
Y125630D03*
Y138819D03*
Y148819D03*
Y158819D03*
G54D14*
X25591Y36220D03*
X517323Y158661D03*
G54D15*
X24902Y114961D03*
Y134646D03*
Y153150D03*
X52953Y96850D03*
X71850D03*
X81004Y153150D03*
X109055Y96850D03*
X127953D03*
X137106Y105118D03*
Y144488D03*
Y183858D03*
Y223228D03*
X165157Y96850D03*
X184055D03*
X193209Y114961D03*
Y134646D03*
Y153150D03*
X221260Y96850D03*
X240157D03*
X249311Y153150D03*
X267618Y114961D03*
Y134646D03*
Y153150D03*
X295669Y96850D03*
X314567D03*
X323720Y153150D03*
X351772Y96850D03*
X370669D03*
X379823Y105118D03*
Y144488D03*
Y183858D03*
Y223228D03*
X407874Y96850D03*
X426772D03*
X435925Y114961D03*
Y134646D03*
Y153150D03*
X463976Y96850D03*
X482874D03*
X492028Y153150D03*
G54D16*
X24902Y164173D03*
Y203543D03*
Y242913D03*
X37402Y183858D03*
X47244Y242913D03*
X58661Y183858D03*
X81004Y105118D03*
Y144488D03*
Y183858D03*
Y223228D03*
X93504Y183858D03*
X103346Y242913D03*
X114764Y183858D03*
X149606D03*
X159449Y242913D03*
X170866Y183858D03*
X193209Y164173D03*
Y203543D03*
Y242913D03*
X205709Y183858D03*
X215551Y242913D03*
X226969Y183858D03*
X249311Y105118D03*
Y144488D03*
Y183858D03*
Y223228D03*
X267618Y164173D03*
Y203543D03*
Y242913D03*
X280118Y183858D03*
X289961Y242913D03*
X301378Y183858D03*
X323720Y105118D03*
Y144488D03*
Y183858D03*
X336220D03*
X323720Y223228D03*
X346063Y242913D03*
X357480Y183858D03*
X392323D03*
X413583D03*
X402165Y242913D03*
X435925Y164173D03*
X448425Y183858D03*
X435925Y203543D03*
Y242913D03*
X469685Y183858D03*
X458268Y242913D03*
X492028Y105118D03*
Y144488D03*
Y183858D03*
Y223228D03*
G54D17*
X34016Y121260D03*
X71811D03*
X90118D03*
X127913D03*
X146220D03*
X184016D03*
X202323D03*
X240118D03*
X276929D03*
X314724D03*
X333031D03*
X370827D03*
X389134D03*
X426929D03*
X445236D03*
X483031D03*
G54D18*
X292520Y-7874D03*
X506614Y4134D03*
G54D19*
G01X8399Y187480D02*
X7664Y188031D01*
X7244Y188504D01*
X7034Y189134D01*
X7244Y189685D01*
X7664Y190079D01*
X8294Y190394D01*
X9029Y190472D01*
X9659Y190394D01*
X10289Y190079D01*
X10814Y189606D01*
X11024Y189055D01*
X10814Y188425D01*
X10184Y187874D01*
X9239Y187559D01*
X8189Y187480D01*
X6824Y187638D01*
X6089Y187874D01*
X5354Y188268D01*
X4830Y188819D01*
X4724Y189370D01*
X4934Y189921D01*
X5459Y190315D01*
G01X429528Y76741D02*
X431065Y75204D01*
X431381D01*
X432117Y74469D01*
X432367D01*
X435827Y71009D01*
Y69221D01*
X435098Y68493D01*
Y66584D01*
X435660Y66023D01*
Y52637D01*
X438917Y49380D01*
Y46398D01*
X435827Y43307D01*
Y24873D01*
X434025Y23072D01*
Y20078D01*
X437894Y16209D01*
Y-16290D01*
X437441Y-16743D01*
Y-16890D01*
X434646Y-19685D01*
Y-20663D01*
X434328Y-20980D01*
Y-23153D01*
G01X429528Y72047D02*
X432145Y69430D01*
Y55365D01*
X432224Y55285D01*
Y53376D01*
X432145Y53297D01*
Y53016D01*
X430650Y51520D01*
Y51408D01*
X430207Y50966D01*
Y50855D01*
X429669Y50317D01*
Y50017D01*
X429291Y49639D01*
Y24360D01*
X429469Y24183D01*
Y22106D01*
X435039Y16535D01*
Y14424D01*
X435984Y13479D01*
Y11718D01*
X435039Y10773D01*
Y-15748D01*
X430709Y-20079D01*
X430504D01*
X429921Y-20661D01*
Y-22835D01*
M02*
