G04 ================== begin FILE IDENTIFICATION RECORD ==================*
G04 Layout Name:  pc065b_toplevel_06.brd*
G04 Film Name:    art_pc065a_LSM1.ger*
G04 File Format:  Gerber RS274X*
G04 File Origin:  Cadence Allegro 17.2-S061*
G04 Origin Date:  Tue Jun  2 09:05:58 2020*
G04 *
G04 Layer:  PIN/SOLDERMASK_TOP*
G04 Layer:  PACKAGE GEOMETRY/SOLDERMASK_TOP*
G04 Layer:  BOARD GEOMETRY/SOLDERMASK_TOP*
G04 *
G04 Offset:    (0.0000 0.0000)*
G04 Mirror:    No*
G04 Mode:      Positive*
G04 Rotation:  0*
G04 FullContactRelief:  No*
G04 UndefLineWidth:     0.2000*
G04 ================== end FILE IDENTIFICATION RECORD ====================*
%FSLAX35Y35*MOMM*%
%IR0*IPPOS*OFA0.00000B0.00000*MIA0B0*SFA1.00000B1.00000*%
%ADD28R,.5X2.*%
%ADD12R,1.X.5*%
%ADD11R,1.X.8*%
%ADD30R,.45X1.45*%
%ADD34R,1.45X.45*%
%ADD40C,.64*%
%ADD18R,.85X1.85*%
%ADD13R,.85X.85*%
%AMMACRO37*
4,1,40,-.05,-.35,
.05,-.35,
.067365,-.348481,
.084202,-.343969,
.1,-.336603,
.114279,-.326604,
.126604,-.314279,
.136603,-.3,
.143969,-.284202,
.148481,-.267365,
.15,-.25,
.15,.25,
.148481,.267365,
.143969,.284202,
.136603,.3,
.126604,.314279,
.114279,.326604,
.1,.336603,
.084202,.343969,
.067365,.348481,
.05,.35,
-.05,.35,
-.067365,.348481,
-.084202,.343969,
-.1,.336603,
-.114279,.326604,
-.126604,.314279,
-.136603,.3,
-.143969,.284202,
-.148481,.267365,
-.15,.25,
-.15,-.25,
-.148481,-.267365,
-.143969,-.284202,
-.136603,-.3,
-.126604,-.314279,
-.114279,-.326604,
-.1,-.336603,
-.084202,-.343969,
-.067365,-.348481,
-.05,-.35,
0.0*
%
%ADD37MACRO37*%
%AMMACRO36*
4,1,40,.35,-.05,
.35,.05,
.348481,.067365,
.343969,.084202,
.336603,.1,
.326604,.114279,
.314279,.126604,
.3,.136603,
.284202,.143969,
.267365,.148481,
.25,.15,
-.25,.15,
-.267365,.148481,
-.284202,.143969,
-.3,.136603,
-.314279,.126604,
-.326604,.114279,
-.336603,.1,
-.343969,.084202,
-.348481,.067365,
-.35,.05,
-.35,-.05,
-.348481,-.067365,
-.343969,-.084202,
-.336603,-.1,
-.326604,-.114279,
-.314279,-.126604,
-.3,-.136603,
-.284202,-.143969,
-.267365,-.148481,
-.25,-.15,
.25,-.15,
.267365,-.148481,
.284202,-.143969,
.3,-.136603,
.314279,-.126604,
.326604,-.114279,
.336603,-.1,
.343969,-.084202,
.348481,-.067365,
.35,-.05,
0.0*
%
%ADD36MACRO36*%
%AMMACRO38*
4,1,40,-.05,-.4,
.05,-.4,
.067365,-.398481,
.084202,-.393969,
.1,-.386603,
.114279,-.376604,
.126604,-.364279,
.136603,-.35,
.143969,-.334202,
.148481,-.317365,
.15,-.3,
.15,.3,
.148481,.317365,
.143969,.334202,
.136603,.35,
.126604,.364279,
.114279,.376604,
.1,.386603,
.084202,.393969,
.067365,.398481,
.05,.4,
-.05,.4,
-.067365,.398481,
-.084202,.393969,
-.1,.386603,
-.114279,.376604,
-.126604,.364279,
-.136603,.35,
-.143969,.334202,
-.148481,.317365,
-.15,.3,
-.15,-.3,
-.148481,-.317365,
-.143969,-.334202,
-.136603,-.35,
-.126604,-.364279,
-.114279,-.376604,
-.1,-.386603,
-.084202,-.393969,
-.067365,-.398481,
-.05,-.4,
0.0*
%
%ADD38MACRO38*%
%ADD17R,1.2X1.45*%
%ADD14R,1.45X1.2*%
%ADD20R,2.4X1.9*%
%ADD32R,.25X.8*%
%ADD33R,.8X.25*%
%ADD19C,1.7*%
%ADD16R,1.45X1.65*%
%ADD39C,1.3005*%
%ADD21R,.55X.8*%
%ADD15C,3.6*%
%ADD10R,1.65X1.45*%
%ADD29C,1.55*%
%ADD27R,.25X.85*%
%ADD24C,1.65*%
%ADD23R,.85X.25*%
%ADD25C,1.75*%
%ADD22C,1.651*%
%ADD42R,2.65X1.95*%
%ADD26R,1.6X1.6*%
%ADD31R,3.25X3.25*%
%ADD41R,.4826X.9144*%
%AMMACRO35*
4,1,40,-.35,.05,
-.35,-.05,
-.348481,-.067365,
-.343969,-.084202,
-.336603,-.1,
-.326604,-.114279,
-.314279,-.126604,
-.3,-.136603,
-.284202,-.143969,
-.267365,-.148481,
-.25,-.15,
.25,-.15,
.267365,-.148481,
.284202,-.143969,
.3,-.136603,
.314279,-.126604,
.326604,-.114279,
.336603,-.1,
.343969,-.084202,
.348481,-.067365,
.35,-.05,
.35,.05,
.348481,.067365,
.343969,.084202,
.336603,.1,
.326604,.114279,
.314279,.126604,
.3,.136603,
.284202,.143969,
.267365,.148481,
.25,.15,
-.25,.15,
-.267365,.148481,
-.284202,.143969,
-.3,.136603,
-.314279,.126604,
-.326604,.114279,
-.336603,.1,
-.343969,.084202,
-.348481,.067365,
-.35,.05,
0.0*
%
%ADD35MACRO35*%
%LPD*%
G75*
G54D10*
X-80000Y-880000D03*
Y-700000D03*
X470000Y1710000D03*
Y1530000D03*
X1900000Y1710000D03*
Y1530000D03*
X2340000Y-190000D03*
Y-10000D03*
X2480000Y1100000D03*
Y920000D03*
X3320000Y1710000D03*
Y1530000D03*
X4740000Y1710000D03*
Y1530000D03*
G54D20*
X350000Y630000D03*
G54D11*
X115000Y-865000D03*
Y-655000D03*
X305000Y-865000D03*
Y-655000D03*
G54D21*
X445000Y490000D03*
X350000D03*
X255000D03*
Y770000D03*
X350000D03*
X445000D03*
G54D30*
X1642500Y1650000D03*
X1577500D03*
X1512500D03*
Y2090000D03*
X1577500D03*
X1642500D03*
X1707500Y1650000D03*
Y2090000D03*
X3067500Y1650000D03*
X3002500D03*
X2937500D03*
Y2090000D03*
X3002500D03*
X3067500D03*
X3132500Y1650000D03*
Y2090000D03*
X4557500Y1650000D03*
X4492500D03*
X4427500D03*
X4362500D03*
Y2090000D03*
X4427500D03*
X4492500D03*
X4557500D03*
X5982500Y1650000D03*
X5917500D03*
X5852500D03*
X5787500D03*
Y2090000D03*
X5852500D03*
X5917500D03*
X5982500D03*
X7877500Y1650000D03*
X7812500D03*
X7747500D03*
X7682500D03*
Y2090000D03*
X7747500D03*
X7812500D03*
X7877500D03*
X8657500Y1550000D03*
X8592500D03*
X8527500D03*
X8462500D03*
Y1990000D03*
X8527500D03*
X8592500D03*
X8657500D03*
X9302500Y1650000D03*
X9237500D03*
X9172500D03*
X9107500D03*
Y2090000D03*
X9172500D03*
X9237500D03*
X9302500D03*
X9882500Y1550000D03*
Y1990000D03*
X10077500Y1550000D03*
X10012500D03*
X9947500D03*
Y1990000D03*
X10012500D03*
X10077500D03*
X10727500Y1650000D03*
X10662500D03*
X10597500D03*
X10532500D03*
Y2090000D03*
X10597500D03*
X10662500D03*
X10727500D03*
X11322500Y1550000D03*
Y1990000D03*
X11517500Y1550000D03*
X11452500D03*
X11387500D03*
Y1990000D03*
X11452500D03*
X11517500D03*
X12152500Y1650000D03*
X12087500D03*
X12022500D03*
X11957500D03*
Y2090000D03*
X12022500D03*
X12087500D03*
X12152500D03*
X12772500Y1550000D03*
X12707500D03*
X12642500D03*
Y1990000D03*
X12707500D03*
X12772500D03*
X12837500Y1550000D03*
Y1990000D03*
G54D12*
X115000Y-760000D03*
X305000D03*
G54D31*
X6040000Y550000D03*
G54D22*
X650000Y920000D03*
X13140000Y4030000D03*
G54D13*
X80000Y-325000D03*
Y-415000D03*
X190000D03*
Y-325000D03*
X115000Y740000D03*
X25000D03*
X450000Y-855000D03*
Y-945000D03*
Y-725000D03*
Y-635000D03*
X425000Y200000D03*
X335000D03*
X635000Y1500000D03*
X360000Y1345000D03*
Y1255000D03*
X510000Y2005000D03*
Y1915000D03*
X925000Y-170000D03*
X1015000D03*
X925000Y-70000D03*
X1015000D03*
X1135000Y-230000D03*
X945000Y1500000D03*
X855000D03*
X725000D03*
X1225000Y-230000D03*
X1555000Y1500000D03*
X1465000D03*
X1665000D03*
X1467000Y2246000D03*
X1557000D03*
X1662000Y2245000D03*
X1905000Y-400000D03*
X1995000D03*
X2015000Y230000D03*
X1925000D03*
X2155000Y1500000D03*
X2065000D03*
X1755000D03*
X1940000Y2005000D03*
Y1915000D03*
X1752000Y2245000D03*
X2350000Y-325000D03*
Y-415000D03*
X2545000Y480000D03*
X2635000D03*
X2375000Y1500000D03*
X2285000D03*
X2775000Y-830000D03*
X2865000D03*
X2975000Y1500000D03*
X2885000D03*
X3085000D03*
X2892000Y2246000D03*
X2982000D03*
X3087000Y2245000D03*
X3575000Y1500000D03*
X3485000D03*
X3175000D03*
X3360000Y2005000D03*
Y1915000D03*
X3177000Y2245000D03*
X3795000Y1500000D03*
X3705000D03*
X4370000Y-575000D03*
Y-485000D03*
X4395000Y1500000D03*
X4305000D03*
X4595000D03*
X4505000D03*
X4317000Y2246000D03*
X4407000D03*
X4512000Y2245000D03*
X4995000Y1500000D03*
X4905000D03*
X4780000Y2005000D03*
Y1915000D03*
X4602000Y2245000D03*
X5540000Y-585000D03*
Y-495000D03*
X5510000Y95000D03*
Y5000D03*
X5215000Y1500000D03*
X5125000D03*
X5840000Y95000D03*
Y5000D03*
X5950000Y95000D03*
Y5000D03*
X5620000Y95000D03*
Y5000D03*
X5730000Y95000D03*
Y5000D03*
X5660000Y715000D03*
Y805000D03*
X5985000Y1010000D03*
X5825000Y1500000D03*
X5735000D03*
X6025000D03*
X5935000D03*
X5742000Y2246000D03*
X5832000D03*
X6027000Y2245000D03*
X5937000D03*
X6100000Y95000D03*
Y5000D03*
X6300000D03*
Y95000D03*
X6475000Y470000D03*
Y360000D03*
Y680000D03*
X6190000Y1095000D03*
Y1005000D03*
X6075000Y1010000D03*
X6335000Y1680000D03*
X6245000D03*
X6335000Y1790000D03*
X6245000D03*
X6725000Y-380000D03*
X6815000D03*
X6565000Y470000D03*
Y360000D03*
Y680000D03*
X6915000Y1680000D03*
X6825000D03*
X6915000Y1790000D03*
X6825000D03*
X7100000Y705000D03*
Y615000D03*
Y865000D03*
Y955000D03*
X7605000Y840000D03*
X7515000D03*
X7725000Y1500000D03*
X7635000D03*
X7925000D03*
X7835000D03*
X7637000Y2246000D03*
X7727000D03*
X7922000Y2245000D03*
X7832000D03*
X8020000Y1185000D03*
Y1055000D03*
Y965000D03*
Y1275000D03*
X8250000Y1545000D03*
Y1635000D03*
Y1875000D03*
Y1965000D03*
X8495000Y1180000D03*
X8585000D03*
X8825000D03*
X8915000D03*
X9145000Y1500000D03*
X9055000D03*
X9345000D03*
X9255000D03*
X9062000Y2246000D03*
X9152000D03*
X9347000Y2245000D03*
X9257000D03*
X9675000Y1180000D03*
X9765000D03*
X9670000Y1545000D03*
Y1635000D03*
Y1875000D03*
Y1965000D03*
X10005000Y1180000D03*
X10095000D03*
X10845000D03*
X10585000Y1500000D03*
X10495000D03*
X10785000D03*
X10695000D03*
X10487000Y2246000D03*
X10577000D03*
X10772000Y2245000D03*
X10682000D03*
X10935000Y1180000D03*
X11175000D03*
X11265000D03*
X11110000Y1545000D03*
Y1635000D03*
Y1875000D03*
Y1965000D03*
X12015000Y1180000D03*
X12105000D03*
X12345000D03*
X12005000Y1500000D03*
X11915000D03*
X12205000D03*
X12115000D03*
X11912000Y2246000D03*
X12002000D03*
X12197000Y2245000D03*
X12107000D03*
X12435000Y1180000D03*
X12430000Y1545000D03*
Y1635000D03*
Y1875000D03*
Y1965000D03*
X13190000Y855000D03*
Y765000D03*
X13245000Y2630000D03*
X13155000D03*
X13245000Y2950000D03*
X13155000D03*
X13245000Y3310000D03*
X13155000D03*
X13490000Y855000D03*
Y765000D03*
X13340000Y855000D03*
Y765000D03*
G54D40*
X7926500Y-771500D03*
X7799500D03*
X7672500D03*
X7926500Y-263500D03*
X7799500D03*
X7672500D03*
X7926500Y-390500D03*
X7799500D03*
X7672500D03*
X7926500Y-517500D03*
X7799500D03*
X7672500D03*
X7926500Y-644500D03*
X7799500D03*
X7672500D03*
X7926500Y117500D03*
X7799500D03*
X7672500D03*
X7926500Y-9500D03*
X7799500D03*
X7672500D03*
X7926500Y-136500D03*
X7799500D03*
X7672500D03*
X7926500Y371500D03*
X7799500D03*
X7672500D03*
X7926500Y244500D03*
X7799500D03*
X7672500D03*
X8434500Y-771500D03*
X8307500D03*
X8180500D03*
X8053500D03*
X8434500Y-263500D03*
X8307500D03*
X8180500D03*
X8053500D03*
X8434500Y-390500D03*
X8307500D03*
X8180500D03*
X8053500D03*
X8434500Y-517500D03*
X8307500D03*
X8180500D03*
X8053500D03*
X8434500Y-644500D03*
X8307500D03*
X8180500D03*
X8053500D03*
X8434500Y117500D03*
X8307500D03*
X8180500D03*
X8053500D03*
X8434500Y-9500D03*
X8307500D03*
X8180500D03*
X8053500D03*
X8434500Y-136500D03*
X8307500D03*
X8180500D03*
X8053500D03*
X8434500Y371500D03*
X8307500D03*
X8180500D03*
X8053500D03*
X8434500Y244500D03*
X8307500D03*
X8180500D03*
X8053500D03*
X8942500Y-771500D03*
X8815500D03*
X8688500D03*
X8561500D03*
X8942500Y-263500D03*
X8815500D03*
X8688500D03*
X8561500D03*
X8942500Y-390500D03*
X8815500D03*
X8688500D03*
X8561500D03*
X8942500Y-517500D03*
X8815500D03*
X8688500D03*
X8561500D03*
X8942500Y-644500D03*
X8815500D03*
X8688500D03*
X8561500D03*
X8942500Y117500D03*
X8815500D03*
X8688500D03*
X8561500D03*
X8942500Y-9500D03*
X8815500D03*
X8688500D03*
X8561500D03*
X8942500Y-136500D03*
X8815500D03*
X8688500D03*
X8561500D03*
X8942500Y371500D03*
X8815500D03*
X8688500D03*
X8561500D03*
X8942500Y244500D03*
X8815500D03*
X8688500D03*
X8561500D03*
X9450500Y-771500D03*
X9323500D03*
X9196500D03*
X9069500D03*
X9450500Y-263500D03*
X9323500D03*
X9196500D03*
X9069500D03*
X9450500Y-390500D03*
X9323500D03*
X9196500D03*
X9069500D03*
X9450500Y-517500D03*
X9323500D03*
X9196500D03*
X9069500D03*
X9450500Y-644500D03*
X9323500D03*
X9196500D03*
X9069500D03*
X9450500Y117500D03*
X9323500D03*
X9196500D03*
X9069500D03*
X9450500Y-9500D03*
X9323500D03*
X9196500D03*
X9069500D03*
X9450500Y-136500D03*
X9323500D03*
X9196500D03*
X9069500D03*
X9450500Y371500D03*
X9323500D03*
X9196500D03*
X9069500D03*
X9450500Y244500D03*
X9323500D03*
X9196500D03*
X9069500D03*
X9831500Y-771500D03*
X9704500D03*
X9577500D03*
X9831500Y-263500D03*
X9704500D03*
X9577500D03*
X9831500Y-390500D03*
X9704500D03*
X9577500D03*
X9831500Y-517500D03*
X9704500D03*
X9577500D03*
X9831500Y-644500D03*
X9704500D03*
X9577500D03*
X9831500Y117500D03*
X9704500D03*
X9577500D03*
X9831500Y-9500D03*
X9704500D03*
X9577500D03*
X9831500Y-136500D03*
X9704500D03*
X9577500D03*
X9831500Y371500D03*
X9704500D03*
X9577500D03*
X9831500Y244500D03*
X9704500D03*
X9577500D03*
X10339500Y-771500D03*
X10212500D03*
X10085500D03*
X9958500D03*
X10339500Y-263500D03*
X10212500D03*
X10085500D03*
X9958500D03*
X10339500Y-390500D03*
X10212500D03*
X10085500D03*
X9958500D03*
X10339500Y-517500D03*
X10212500D03*
X10085500D03*
X9958500D03*
X10339500Y-644500D03*
X10212500D03*
X10085500D03*
X9958500D03*
X10339500Y117500D03*
X10212500D03*
X10085500D03*
X9958500D03*
X10339500Y-9500D03*
X10212500D03*
X10085500D03*
X9958500D03*
X10339500Y-136500D03*
X10212500D03*
X10085500D03*
X9958500D03*
X10339500Y371500D03*
X10212500D03*
X10085500D03*
X9958500D03*
X10339500Y244500D03*
X10212500D03*
X10085500D03*
X9958500D03*
X10847500Y-771500D03*
X10720500D03*
X10593500D03*
X10466500D03*
X10847500Y-263500D03*
X10720500D03*
X10593500D03*
X10466500D03*
X10847500Y-390500D03*
X10720500D03*
X10593500D03*
X10466500D03*
X10847500Y-517500D03*
X10720500D03*
X10593500D03*
X10466500D03*
X10847500Y-644500D03*
X10720500D03*
X10593500D03*
X10466500D03*
X10847500Y117500D03*
X10720500D03*
X10593500D03*
X10466500D03*
X10847500Y-9500D03*
X10720500D03*
X10593500D03*
X10466500D03*
X10847500Y-136500D03*
X10720500D03*
X10593500D03*
X10466500D03*
X10847500Y371500D03*
X10720500D03*
X10593500D03*
X10466500D03*
X10847500Y244500D03*
X10720500D03*
X10593500D03*
X10466500D03*
X11355500Y-771500D03*
X11228500D03*
X11101500D03*
X10974500D03*
X11355500Y-263500D03*
X11228500D03*
X11101500D03*
X10974500D03*
X11355500Y-390500D03*
X11228500D03*
X11101500D03*
X10974500D03*
X11355500Y-517500D03*
X11228500D03*
X11101500D03*
X10974500D03*
X11355500Y-644500D03*
X11228500D03*
X11101500D03*
X10974500D03*
X11355500Y117500D03*
X11228500D03*
X11101500D03*
X10974500D03*
X11355500Y-9500D03*
X11228500D03*
X11101500D03*
X10974500D03*
X11355500Y-136500D03*
X11228500D03*
X11101500D03*
X10974500D03*
X11355500Y371500D03*
X11228500D03*
X11101500D03*
X10974500D03*
X11355500Y244500D03*
X11228500D03*
X11101500D03*
X10974500D03*
X11863500Y-771500D03*
X11736500D03*
X11609500D03*
X11482500D03*
X11863500Y-263500D03*
X11736500D03*
X11609500D03*
X11482500D03*
X11863500Y-390500D03*
X11736500D03*
X11609500D03*
X11482500D03*
X11863500Y-517500D03*
X11736500D03*
X11609500D03*
X11482500D03*
X11863500Y-644500D03*
X11736500D03*
X11609500D03*
X11482500D03*
X11863500Y117500D03*
X11736500D03*
X11609500D03*
X11482500D03*
X11863500Y-9500D03*
X11736500D03*
X11609500D03*
X11482500D03*
X11863500Y-136500D03*
X11736500D03*
X11609500D03*
X11482500D03*
X11863500Y371500D03*
X11736500D03*
X11609500D03*
X11482500D03*
X11863500Y244500D03*
X11736500D03*
X11609500D03*
X11482500D03*
X12244500Y-771500D03*
X12117500D03*
X11990500D03*
X12244500Y-263500D03*
X12117500D03*
X11990500D03*
X12244500Y-390500D03*
X12117500D03*
X11990500D03*
X12244500Y-517500D03*
X12117500D03*
X11990500D03*
X12244500Y-644500D03*
X12117500D03*
X11990500D03*
X12244500Y117500D03*
X12117500D03*
X11990500D03*
X12244500Y-9500D03*
X12117500D03*
X11990500D03*
X12244500Y-136500D03*
X12117500D03*
X11990500D03*
X12244500Y371500D03*
X12117500D03*
X11990500D03*
X12244500Y244500D03*
X12117500D03*
X11990500D03*
X12625500Y-771500D03*
X12498500D03*
X12371500D03*
X12625500Y-263500D03*
X12498500D03*
X12371500D03*
X12625500Y-390500D03*
X12498500D03*
X12371500D03*
X12625500Y-517500D03*
X12498500D03*
X12371500D03*
X12625500Y-644500D03*
X12498500D03*
X12371500D03*
X12625500Y117500D03*
X12498500D03*
X12371500D03*
X12625500Y-9500D03*
X12498500D03*
X12371500D03*
X12625500Y-136500D03*
X12498500D03*
X12371500D03*
X12625500Y371500D03*
X12498500D03*
X12371500D03*
X12625500Y244500D03*
X12498500D03*
X12371500D03*
G54D41*
X13267500Y1040500D03*
X13202500D03*
Y1479500D03*
X13267500D03*
X13397500Y1040500D03*
X13332500D03*
Y1479500D03*
X13397500D03*
G54D23*
X645000Y1765000D03*
Y1815000D03*
Y1865000D03*
Y1915000D03*
X935000D03*
Y1865000D03*
Y1815000D03*
Y1765000D03*
X2075000D03*
Y1815000D03*
Y1865000D03*
Y1915000D03*
X2365000D03*
Y1865000D03*
Y1815000D03*
Y1765000D03*
X3495000D03*
Y1815000D03*
Y1865000D03*
Y1915000D03*
X3785000D03*
Y1865000D03*
Y1815000D03*
Y1765000D03*
X4915000D03*
Y1815000D03*
Y1865000D03*
Y1915000D03*
X5205000D03*
Y1865000D03*
Y1815000D03*
Y1765000D03*
X7825000Y1145000D03*
Y1095000D03*
Y1045000D03*
X7535000D03*
Y1095000D03*
Y1145000D03*
X7825000Y1195000D03*
X7535000D03*
G54D32*
X6015000Y305000D03*
X5965000D03*
X5915000D03*
X5865000D03*
Y795000D03*
X5915000D03*
X5965000D03*
X6015000D03*
X6215000Y305000D03*
X6165000D03*
X6115000D03*
X6065000D03*
Y795000D03*
X6115000D03*
X6165000D03*
X6215000D03*
G54D14*
X-80000Y-345000D03*
Y-515000D03*
X2680000Y915000D03*
Y1085000D03*
G54D42*
X13300000Y1260000D03*
G54D24*
X632500Y2920000D03*
Y3420000D03*
Y3890000D03*
X1345000Y2460000D03*
X1825000D03*
X2057500Y3890000D03*
X2770000Y2460000D03*
X3250000D03*
X3482500Y2670000D03*
Y3670000D03*
Y4670000D03*
Y5670000D03*
X4195000Y2460000D03*
X4675000D03*
X4907500Y2920000D03*
Y3420000D03*
Y3890000D03*
X5620000Y2460000D03*
X6100000D03*
X6332500Y3890000D03*
X6797500Y2920000D03*
Y3420000D03*
Y3890000D03*
X7510000Y2460000D03*
X7990000D03*
X8222500Y3890000D03*
X8935000Y2460000D03*
X9415000D03*
X9647500Y2670000D03*
Y3670000D03*
Y4670000D03*
Y5670000D03*
X10360000Y2460000D03*
X10840000D03*
X11072500Y2920000D03*
Y3420000D03*
Y3890000D03*
X11785000Y2460000D03*
X12265000D03*
X12497500Y3890000D03*
G54D15*
X0Y0D03*
X250000Y5460000D03*
X7000000Y0D03*
X12905000Y5460000D03*
X13300000Y0D03*
G54D33*
X5795000Y375000D03*
Y425000D03*
Y475000D03*
Y525000D03*
Y575000D03*
Y625000D03*
Y675000D03*
Y725000D03*
X6285000Y675000D03*
Y625000D03*
Y575000D03*
Y525000D03*
Y475000D03*
Y425000D03*
Y375000D03*
Y725000D03*
G54D25*
X632500Y4170000D03*
Y5170000D03*
Y6170000D03*
X950000Y4670000D03*
X1200000Y6170000D03*
X1490000Y4670000D03*
X2057500Y2670000D03*
Y3670000D03*
Y4670000D03*
Y5670000D03*
X2375000Y4670000D03*
X2625000Y6170000D03*
X2915000Y4670000D03*
X3800000D03*
X4050000Y6170000D03*
X4340000Y4670000D03*
X4907500Y4170000D03*
Y5170000D03*
Y6170000D03*
X5225000Y4670000D03*
X5475000Y6170000D03*
X5765000Y4670000D03*
X6332500Y2670000D03*
Y3670000D03*
Y4670000D03*
Y5670000D03*
X6797500Y4170000D03*
Y5170000D03*
Y6170000D03*
X7115000Y4670000D03*
X7365000Y6170000D03*
X7655000Y4670000D03*
X8222500Y2670000D03*
Y3670000D03*
Y4670000D03*
X8540000D03*
X8222500Y5670000D03*
X8790000Y6170000D03*
X9080000Y4670000D03*
X9965000D03*
X10505000D03*
X10215000Y6170000D03*
X11072500Y4170000D03*
X11390000Y4670000D03*
X11072500Y5170000D03*
Y6170000D03*
X11930000Y4670000D03*
X11640000Y6170000D03*
X12497500Y2670000D03*
Y3670000D03*
Y4670000D03*
Y5670000D03*
G54D16*
X-100000Y390000D03*
X80000D03*
Y900000D03*
X-100000D03*
X1580000Y-400000D03*
X1760000D03*
X2810000Y-980000D03*
X2990000D03*
X2740000Y160000D03*
X2920000D03*
X7810000Y800000D03*
X7990000D03*
X13230000Y1770000D03*
Y1970000D03*
X13210000Y2485000D03*
X13030000D03*
X13210000Y3160000D03*
X13030000D03*
X13210000Y2800000D03*
X13030000D03*
X13410000Y1770000D03*
Y1970000D03*
G54D34*
X6330000Y-797500D03*
Y-732500D03*
Y-667500D03*
Y-602500D03*
X6770000Y-797500D03*
Y-602500D03*
Y-667500D03*
Y-732500D03*
X8500000Y772500D03*
Y837500D03*
Y902500D03*
Y967500D03*
X8940000D03*
Y902500D03*
Y837500D03*
Y772500D03*
X9680000D03*
Y837500D03*
Y902500D03*
Y967500D03*
X10120000D03*
Y902500D03*
Y837500D03*
Y772500D03*
X10850000D03*
Y837500D03*
Y902500D03*
Y967500D03*
X11290000D03*
Y902500D03*
Y837500D03*
Y772500D03*
X12020000D03*
Y837500D03*
Y902500D03*
Y967500D03*
X12460000D03*
Y902500D03*
Y837500D03*
Y772500D03*
G54D35*
X6450000Y1790000D03*
Y1830000D03*
Y1870000D03*
X6690000Y1910000D03*
Y1870000D03*
Y1830000D03*
Y1790000D03*
G54D26*
X790000Y1840000D03*
X2220000D03*
X3640000D03*
X5060000D03*
X7680000Y1120000D03*
G54D17*
X95000Y590000D03*
X-75000D03*
G54D27*
X865000Y1695000D03*
X815000D03*
X765000D03*
X715000D03*
Y1985000D03*
X765000D03*
X815000D03*
X865000D03*
X2295000Y1695000D03*
X2245000D03*
X2195000D03*
X2145000D03*
Y1985000D03*
X2195000D03*
X2245000D03*
X2295000D03*
X3565000Y1695000D03*
Y1985000D03*
X3715000Y1695000D03*
X3665000D03*
X3615000D03*
Y1985000D03*
X3665000D03*
X3715000D03*
X5035000Y1695000D03*
X4985000D03*
Y1985000D03*
X5035000D03*
X5135000Y1695000D03*
X5085000D03*
Y1985000D03*
X5135000D03*
X7755000Y975000D03*
X7705000D03*
X7655000D03*
X7605000D03*
Y1265000D03*
X7655000D03*
X7705000D03*
X7755000D03*
G54D36*
X6450000Y1910000D03*
G54D18*
X220500Y1305000D03*
X93500D03*
X-33500D03*
X-160500D03*
Y1835000D03*
X-33500D03*
X93500D03*
X220500D03*
G54D19*
X680000Y-240000D03*
Y-494000D03*
Y14000D03*
X6910000Y650000D03*
Y396000D03*
Y904000D03*
X13430000Y2683000D03*
Y2429000D03*
Y2937000D03*
Y3191000D03*
Y3526000D03*
Y3780000D03*
Y4034000D03*
G54D37*
X6510000Y1930000D03*
X6550000D03*
X6590000D03*
X6630000D03*
Y1770000D03*
X6590000D03*
X6550000D03*
G54D28*
X1164000Y2670000D03*
X1084000D03*
X1004000D03*
X964000Y3490000D03*
X1044000D03*
X1124000D03*
X1644000Y2670000D03*
X1564000D03*
X1484000D03*
X1404000D03*
X1324000D03*
X1244000D03*
X1204000Y3490000D03*
X1284000D03*
X1364000D03*
X1444000D03*
X1524000D03*
X1604000D03*
X1724000Y2670000D03*
X1684000Y3490000D03*
X2589000Y2670000D03*
X2509000D03*
X2429000D03*
X2389000Y3490000D03*
X2469000D03*
X2549000D03*
X2629000D03*
X3069000Y2670000D03*
X2989000D03*
X2909000D03*
X2829000D03*
X2749000D03*
X2669000D03*
X2709000Y3490000D03*
X2789000D03*
X2869000D03*
X2949000D03*
X3029000D03*
X3109000D03*
X3149000Y2670000D03*
X4014000D03*
X3934000D03*
X4094000D03*
X3854000D03*
X3814000Y3490000D03*
X3894000D03*
X3974000D03*
X4054000D03*
X4494000Y2670000D03*
X4414000D03*
X4574000D03*
X4334000D03*
X4254000D03*
X4174000D03*
X4134000Y3490000D03*
X4214000D03*
X4294000D03*
X4374000D03*
X4454000D03*
X4534000D03*
X5439000Y2670000D03*
X5359000D03*
X5519000D03*
X5279000D03*
X5239000Y3490000D03*
X5319000D03*
X5399000D03*
X5479000D03*
X5919000Y2670000D03*
X5839000D03*
X5999000D03*
X5759000D03*
X5679000D03*
X5599000D03*
X5559000Y3490000D03*
X5639000D03*
X5719000D03*
X5799000D03*
X5879000D03*
X5959000D03*
X7334000Y2670000D03*
X7494000D03*
X7254000D03*
X7414000D03*
X7174000D03*
X7134000Y3490000D03*
X7214000D03*
X7294000D03*
X7374000D03*
X7454000D03*
X7814000Y2670000D03*
X7734000D03*
X7894000D03*
X7654000D03*
X7574000D03*
X7534000Y3490000D03*
X7614000D03*
X7694000D03*
X7774000D03*
X7854000D03*
X8759000Y2670000D03*
X8919000D03*
X8679000D03*
X8839000D03*
X8599000D03*
X8559000Y3490000D03*
X8639000D03*
X8719000D03*
X8799000D03*
X8879000D03*
X9239000Y2670000D03*
X9159000D03*
X9319000D03*
X9079000D03*
X8999000D03*
X8959000Y3490000D03*
X9039000D03*
X9119000D03*
X9199000D03*
X9279000D03*
X10184000Y2670000D03*
X10344000D03*
X10104000D03*
X10264000D03*
X10024000D03*
X9984000Y3490000D03*
X10064000D03*
X10144000D03*
X10224000D03*
X10304000D03*
X10384000D03*
X10664000Y2670000D03*
X10584000D03*
X10744000D03*
X10504000D03*
X10424000D03*
X10464000Y3490000D03*
X10544000D03*
X10624000D03*
X10704000D03*
X11609000Y2670000D03*
X11849000D03*
X11769000D03*
X11529000D03*
X11689000D03*
X11449000D03*
X11409000Y3490000D03*
X11489000D03*
X11569000D03*
X11649000D03*
X11729000D03*
X11809000D03*
X12089000Y2670000D03*
X12009000D03*
X12169000D03*
X11929000D03*
X11889000Y3490000D03*
X11969000D03*
X12049000D03*
X12129000D03*
G54D29*
X864000Y3080000D03*
X1824000D03*
X2289000D03*
X3249000D03*
X3714000D03*
X4674000D03*
X5139000D03*
X6099000D03*
X7034000D03*
X7994000D03*
X8459000D03*
X9419000D03*
X9884000D03*
X10844000D03*
X11309000D03*
X12269000D03*
G54D38*
X6510000Y1770000D03*
G54D39*
X7430000Y-200000D03*
X12868000Y105000D03*
M02*
