G04 ================== begin FILE IDENTIFICATION RECORD ==================*
G04 Layout Name:  pc065b_toplevel_06.brd*
G04 Film Name:    art_pc065a_LSM2.ger*
G04 File Format:  Gerber RS274X*
G04 File Origin:  Cadence Allegro 17.2-S061*
G04 Origin Date:  Tue Jun  2 09:05:58 2020*
G04 *
G04 Layer:  PIN/SOLDERMASK_BOTTOM*
G04 Layer:  BOARD GEOMETRY/SOLDERMASK_BOTTOM*
G04 *
G04 Offset:    (0.0000 0.0000)*
G04 Mirror:    No*
G04 Mode:      Positive*
G04 Rotation:  0*
G04 FullContactRelief:  No*
G04 UndefLineWidth:     0.2000*
G04 ================== end FILE IDENTIFICATION RECORD ====================*
%FSLAX35Y35*MOMM*%
%IR0*IPPOS*OFA0.00000B0.00000*MIA0B0*SFA1.00000B1.00000*%
%ADD25R,1.75X.7*%
%ADD12R,.85X.85*%
%ADD13R,1.X1.05*%
%ADD10R,2.2X1.05*%
%ADD26R,1.15X1.25*%
%ADD21R,.3X.8*%
%ADD22R,.8X.3*%
%ADD14C,1.7*%
%ADD27C,1.3005*%
%ADD20R,1.65X1.45*%
%ADD11C,3.6*%
%ADD18C,1.55*%
%ADD16C,1.65*%
%ADD17C,1.75*%
%ADD15C,1.651*%
%ADD23R,5.3X5.3*%
%ADD24R,2.25X2.25*%
%ADD19R,.9144X.6096*%
%LPD*%
G75*
G54D10*
X290000Y-957500D03*
Y-662500D03*
Y-507500D03*
Y-212500D03*
G54D11*
X0Y0D03*
X250000Y5460000D03*
X7000000Y0D03*
X12905000Y5460000D03*
X13300000Y0D03*
G54D20*
X840000Y3920000D03*
Y3740000D03*
X1250000Y2930000D03*
Y3110000D03*
X2675000Y2930000D03*
Y3110000D03*
X2265000Y3920000D03*
Y3740000D03*
X4100000Y2930000D03*
Y3110000D03*
X3690000Y3920000D03*
Y3740000D03*
X5115000Y3920000D03*
Y3740000D03*
X5525000Y2930000D03*
Y3110000D03*
X7010000Y3920000D03*
Y3740000D03*
X7420000Y2930000D03*
Y3110000D03*
X8435000Y3920000D03*
Y3740000D03*
X8845000Y2930000D03*
Y3110000D03*
X9860000Y3920000D03*
Y3740000D03*
X10270000Y2930000D03*
Y3110000D03*
X11285000Y3920000D03*
Y3740000D03*
X11695000Y2930000D03*
Y3110000D03*
G54D21*
X1645000Y-550000D03*
Y350000D03*
X1695000Y-550000D03*
X1745000D03*
X1795000D03*
X1845000D03*
X1895000D03*
X1945000D03*
X1995000D03*
X2045000D03*
X2095000D03*
X2145000D03*
Y350000D03*
X2095000D03*
X2045000D03*
X1995000D03*
X1945000D03*
X1895000D03*
X1845000D03*
X1795000D03*
X1745000D03*
X1695000D03*
X2195000Y-550000D03*
X2245000D03*
X2295000D03*
X2345000D03*
X2395000D03*
Y350000D03*
X2345000D03*
X2295000D03*
X2245000D03*
X2195000D03*
X4055000Y-730000D03*
Y-330000D03*
X4105000Y-730000D03*
X4155000D03*
X4205000D03*
X4255000D03*
X4305000D03*
Y-330000D03*
X4255000D03*
X4205000D03*
X4155000D03*
X4105000D03*
X5235000Y-730000D03*
X5285000D03*
X5335000D03*
X5385000D03*
X5435000D03*
X5485000D03*
Y-330000D03*
X5435000D03*
X5385000D03*
X5335000D03*
X5285000D03*
X5235000D03*
G54D12*
X230000Y1585000D03*
Y1675000D03*
X100000Y1585000D03*
Y1675000D03*
X-160000Y1585000D03*
Y1675000D03*
X-30000Y1585000D03*
Y1675000D03*
X645000Y2160000D03*
X1135000Y-670000D03*
Y-560000D03*
Y-450000D03*
Y-340000D03*
X1145000Y140000D03*
Y30000D03*
Y250000D03*
X735000Y2160000D03*
X935000D03*
X845000D03*
X840000Y2625000D03*
Y2715000D03*
X1100000Y2895000D03*
Y2985000D03*
X1060000Y3825000D03*
Y3915000D03*
X1170000D03*
Y3825000D03*
X1315000Y-930000D03*
X1405000D03*
X1315000Y-830000D03*
X1405000D03*
X1510000Y-835000D03*
Y-925000D03*
X1225000Y-670000D03*
Y-560000D03*
X1370000Y-575000D03*
Y-665000D03*
X1225000Y-450000D03*
Y-340000D03*
X1235000Y140000D03*
Y30000D03*
X1380000Y155000D03*
X1450000Y-55000D03*
Y-145000D03*
X1235000Y250000D03*
X1455000Y510000D03*
X1365000D03*
X1580000Y605000D03*
Y695000D03*
X1380000Y245000D03*
X1400000Y2895000D03*
Y2985000D03*
X1610000Y3825000D03*
Y3915000D03*
X1280000D03*
Y3825000D03*
X1390000Y3915000D03*
Y3825000D03*
X1500000Y3915000D03*
Y3825000D03*
X2055000Y-830000D03*
X1965000D03*
X2055000Y-930000D03*
X1965000D03*
X1860000Y-925000D03*
Y-835000D03*
X1690000Y605000D03*
Y695000D03*
X1800000Y605000D03*
Y695000D03*
X2050000Y605000D03*
Y695000D03*
X2165000Y2160000D03*
X2075000D03*
X2295000Y840000D03*
X2205000D03*
X2365000Y2160000D03*
X2275000D03*
X2265000Y2625000D03*
Y2715000D03*
X2525000Y2895000D03*
Y2985000D03*
X2485000Y3825000D03*
Y3915000D03*
X2595000D03*
Y3825000D03*
X2775000Y-630000D03*
X2865000D03*
Y320000D03*
X2955000D03*
X2830000Y895000D03*
Y985000D03*
X2950000Y895000D03*
Y985000D03*
X2825000Y2895000D03*
Y2985000D03*
X3035000Y3825000D03*
Y3915000D03*
X2705000D03*
Y3825000D03*
X2815000Y3915000D03*
Y3825000D03*
X2925000Y3915000D03*
Y3825000D03*
X3585000Y2160000D03*
X3495000D03*
X4110000Y-845000D03*
Y-935000D03*
X4000000Y205000D03*
Y115000D03*
Y395000D03*
Y305000D03*
Y715000D03*
Y805000D03*
Y995000D03*
Y905000D03*
X3785000Y2160000D03*
X3695000D03*
X3690000Y2625000D03*
Y2715000D03*
X3950000Y2895000D03*
Y2985000D03*
X3910000Y3825000D03*
Y3915000D03*
X4020000D03*
Y3825000D03*
X4250000Y2895000D03*
Y2985000D03*
X4460000Y3825000D03*
Y3915000D03*
X4130000D03*
Y3825000D03*
X4240000Y3915000D03*
Y3825000D03*
X4350000Y3915000D03*
Y3825000D03*
X4665000Y-670000D03*
X4755000D03*
X5005000Y2160000D03*
X4915000D03*
X5290000Y-845000D03*
Y-935000D03*
X5120000Y205000D03*
Y115000D03*
X5325000Y500000D03*
X5235000D03*
X5325000Y600000D03*
X5235000D03*
X5120000Y715000D03*
Y395000D03*
Y305000D03*
Y995000D03*
Y905000D03*
Y805000D03*
X5205000Y2160000D03*
X5115000D03*
Y2625000D03*
Y2715000D03*
X5375000Y2895000D03*
Y2985000D03*
X5335000Y3825000D03*
Y3915000D03*
X5555000D03*
Y3825000D03*
X5445000Y3915000D03*
Y3825000D03*
X5855000Y-660000D03*
X5945000D03*
X5675000Y2895000D03*
Y2985000D03*
X5885000Y3825000D03*
Y3915000D03*
X5665000D03*
Y3825000D03*
X5775000Y3915000D03*
Y3825000D03*
X6490000Y-845000D03*
Y-755000D03*
X6285000Y-450000D03*
X6375000D03*
X6490000Y-555000D03*
Y-645000D03*
X6835000Y-940000D03*
X6925000D03*
X6610000Y-845000D03*
Y-755000D03*
Y-555000D03*
Y-645000D03*
X7010000Y2625000D03*
Y2715000D03*
X7360000Y1065000D03*
Y975000D03*
Y1175000D03*
Y1265000D03*
X7270000Y2895000D03*
Y2985000D03*
X7230000Y3825000D03*
Y3915000D03*
X7450000D03*
Y3825000D03*
X7340000Y3915000D03*
Y3825000D03*
X7815000Y270000D03*
X7905000D03*
X7570000Y2895000D03*
Y2985000D03*
X7780000Y3825000D03*
Y3915000D03*
X7560000D03*
Y3825000D03*
X7670000Y3915000D03*
Y3825000D03*
X8415000Y1690000D03*
Y1840000D03*
X8435000Y2625000D03*
Y2715000D03*
X8895000Y620000D03*
X8640000Y725000D03*
Y815000D03*
Y1015000D03*
Y925000D03*
X8790000Y725000D03*
Y815000D03*
Y1015000D03*
Y925000D03*
X8705000Y1690000D03*
X8615000D03*
X8505000D03*
X8810000Y2035000D03*
Y1945000D03*
X8705000Y1840000D03*
X8615000D03*
X8505000D03*
X8695000Y2895000D03*
Y2985000D03*
X8655000Y3825000D03*
Y3915000D03*
X8875000D03*
Y3825000D03*
X8765000Y3915000D03*
Y3825000D03*
X8985000Y620000D03*
X8995000Y2895000D03*
Y2985000D03*
X9205000Y3825000D03*
Y3915000D03*
X8985000D03*
Y3825000D03*
X9095000Y3915000D03*
Y3825000D03*
X9830000Y725000D03*
Y815000D03*
Y1015000D03*
Y925000D03*
X9835000Y1690000D03*
X9925000D03*
X9835000Y1840000D03*
X9925000D03*
X9860000Y2625000D03*
Y2715000D03*
X10165000Y620000D03*
X10075000D03*
X9970000Y725000D03*
Y815000D03*
Y1015000D03*
Y925000D03*
X10125000Y1690000D03*
X10035000D03*
X10230000Y2035000D03*
Y1945000D03*
X10125000Y1840000D03*
X10035000D03*
X10420000Y2895000D03*
Y2985000D03*
X10120000Y2895000D03*
Y2985000D03*
X10080000Y3825000D03*
Y3915000D03*
X10300000D03*
Y3825000D03*
X10410000Y3915000D03*
Y3825000D03*
X10190000Y3915000D03*
Y3825000D03*
X10630000D03*
Y3915000D03*
X10520000D03*
Y3825000D03*
X11335000Y620000D03*
X11245000D03*
X11000000Y725000D03*
Y815000D03*
Y1015000D03*
Y925000D03*
X11150000Y725000D03*
Y815000D03*
Y1015000D03*
Y925000D03*
X11275000Y1690000D03*
X11365000D03*
X11275000Y1840000D03*
X11365000D03*
X11285000Y2625000D03*
Y2715000D03*
X11835000Y-240000D03*
X11745000D03*
X11565000Y1690000D03*
X11475000D03*
X11670000Y2035000D03*
Y1945000D03*
X11565000Y1840000D03*
X11475000D03*
X11845000Y2895000D03*
Y2985000D03*
X11545000Y2895000D03*
Y2985000D03*
X11505000Y3825000D03*
Y3915000D03*
X11725000D03*
Y3825000D03*
X11835000Y3915000D03*
Y3825000D03*
X11615000Y3915000D03*
Y3825000D03*
X11885000Y-700000D03*
X11975000D03*
X12005000Y-240000D03*
X12095000D03*
X12170000Y725000D03*
Y815000D03*
Y1015000D03*
Y925000D03*
X12320000Y725000D03*
Y815000D03*
Y1015000D03*
Y925000D03*
X12055000Y3825000D03*
Y3915000D03*
X11945000D03*
Y3825000D03*
X12505000Y620000D03*
X12415000D03*
X12795000Y1700000D03*
X12595000D03*
X12685000D03*
X12795000Y1850000D03*
X12595000D03*
X12685000D03*
X12885000Y1700000D03*
X12990000Y2035000D03*
Y1945000D03*
X12885000Y1850000D03*
G54D22*
X1570000Y-325000D03*
Y-375000D03*
Y-425000D03*
Y-475000D03*
Y175000D03*
Y125000D03*
Y75000D03*
Y25000D03*
Y-25000D03*
Y-75000D03*
Y-125000D03*
Y-175000D03*
Y-225000D03*
Y-275000D03*
Y275000D03*
Y225000D03*
X2470000Y-475000D03*
Y-425000D03*
Y-375000D03*
Y-325000D03*
Y-275000D03*
Y-225000D03*
Y-175000D03*
Y-125000D03*
Y-75000D03*
Y-25000D03*
Y25000D03*
Y75000D03*
Y125000D03*
Y175000D03*
Y225000D03*
Y275000D03*
X3980000Y-405000D03*
Y-455000D03*
Y-505000D03*
Y-555000D03*
Y-605000D03*
Y-655000D03*
X4380000D03*
Y-605000D03*
Y-555000D03*
Y-505000D03*
Y-455000D03*
Y-405000D03*
X5560000Y-655000D03*
Y-605000D03*
Y-555000D03*
Y-505000D03*
Y-455000D03*
Y-405000D03*
X5160000D03*
Y-455000D03*
Y-505000D03*
Y-555000D03*
Y-605000D03*
Y-655000D03*
G54D13*
X442500Y-810000D03*
Y-360000D03*
G54D23*
X2020000Y-100000D03*
G54D14*
X680000Y-240000D03*
Y-494000D03*
Y14000D03*
X6910000Y650000D03*
Y396000D03*
Y904000D03*
X13430000Y2683000D03*
Y2429000D03*
Y2937000D03*
Y3191000D03*
Y3526000D03*
Y3780000D03*
Y4034000D03*
G54D24*
X4180000Y-530000D03*
X5360000D03*
G54D15*
X650000Y920000D03*
X13140000Y4030000D03*
G54D16*
X632500Y2920000D03*
Y3420000D03*
Y3890000D03*
X1345000Y2460000D03*
X1825000D03*
X2057500Y3890000D03*
X2770000Y2460000D03*
X3250000D03*
X3482500Y2670000D03*
Y3670000D03*
Y4670000D03*
Y5670000D03*
X4195000Y2460000D03*
X4675000D03*
X4907500Y2920000D03*
Y3420000D03*
Y3890000D03*
X5620000Y2460000D03*
X6100000D03*
X6332500Y3890000D03*
X6797500Y2920000D03*
Y3420000D03*
Y3890000D03*
X7510000Y2460000D03*
X7990000D03*
X8222500Y3890000D03*
X8935000Y2460000D03*
X9415000D03*
X9647500Y2670000D03*
Y3670000D03*
Y4670000D03*
Y5670000D03*
X10360000Y2460000D03*
X10840000D03*
X11072500Y2920000D03*
Y3420000D03*
Y3890000D03*
X11785000Y2460000D03*
X12265000D03*
X12497500Y3890000D03*
G54D25*
X4290000Y202500D03*
Y657500D03*
Y592500D03*
Y527500D03*
Y462500D03*
Y397500D03*
Y332500D03*
Y267500D03*
Y917500D03*
Y852500D03*
Y787500D03*
Y722500D03*
X4870000Y202500D03*
Y267500D03*
Y332500D03*
Y397500D03*
Y462500D03*
Y527500D03*
Y592500D03*
Y657500D03*
Y722500D03*
Y787500D03*
Y852500D03*
Y917500D03*
G54D17*
X632500Y4170000D03*
Y5170000D03*
Y6170000D03*
X950000Y4670000D03*
X1200000Y6170000D03*
X1490000Y4670000D03*
X2057500Y2670000D03*
Y3670000D03*
Y4670000D03*
Y5670000D03*
X2375000Y4670000D03*
X2625000Y6170000D03*
X2915000Y4670000D03*
X3800000D03*
X4050000Y6170000D03*
X4340000Y4670000D03*
X4907500Y4170000D03*
Y5170000D03*
Y6170000D03*
X5225000Y4670000D03*
X5475000Y6170000D03*
X5765000Y4670000D03*
X6332500Y2670000D03*
Y3670000D03*
Y4670000D03*
Y5670000D03*
X6797500Y4170000D03*
Y5170000D03*
Y6170000D03*
X7115000Y4670000D03*
X7365000Y6170000D03*
X7655000Y4670000D03*
X8222500Y2670000D03*
Y3670000D03*
Y4670000D03*
X8540000D03*
X8222500Y5670000D03*
X8790000Y6170000D03*
X9080000Y4670000D03*
X9965000D03*
X10505000D03*
X10215000Y6170000D03*
X11072500Y4170000D03*
X11390000Y4670000D03*
X11072500Y5170000D03*
Y6170000D03*
X11930000Y4670000D03*
X11640000Y6170000D03*
X12497500Y2670000D03*
Y3670000D03*
Y4670000D03*
Y5670000D03*
G54D26*
X7215000Y-390000D03*
X7065000D03*
X7215000Y-580000D03*
X7065000D03*
G54D18*
X864000Y3080000D03*
X1824000D03*
X2289000D03*
X3249000D03*
X3714000D03*
X4674000D03*
X5139000D03*
X6099000D03*
X7034000D03*
X7994000D03*
X8459000D03*
X9419000D03*
X9884000D03*
X10844000D03*
X11309000D03*
X12269000D03*
G54D27*
X7430000Y-200000D03*
X12868000Y105000D03*
G54D19*
X990000Y2963500D03*
Y2876500D03*
X1510000Y2886500D03*
Y2973500D03*
X2415000Y2963500D03*
Y2876500D03*
X2935000Y2886500D03*
Y2973500D03*
X3840000Y2963500D03*
Y2876500D03*
X4360000Y2886500D03*
Y2973500D03*
X5265000Y2963500D03*
Y2876500D03*
X5785000Y2886500D03*
Y2973500D03*
X7160000Y2963500D03*
Y2876500D03*
X7680000Y2886500D03*
Y2973500D03*
X8585000Y2963500D03*
Y2876500D03*
X9105000Y2886500D03*
Y2973500D03*
X10010000Y2963500D03*
Y2876500D03*
X10530000Y2886500D03*
Y2973500D03*
X11435000Y2963500D03*
Y2876500D03*
X11955000Y2886500D03*
Y2973500D03*
M02*
