G04 ================== begin FILE IDENTIFICATION RECORD ==================*
G04 Layout Name:  pc065b_toplevel_06.brd*
G04 Film Name:    art_pc065a_BOHR.ger*
G04 File Format:  Gerber RS274X*
G04 File Origin:  Cadence Allegro 17.2-S061*
G04 Origin Date:  Tue Jun  2 09:05:58 2020*
G04 *
G04 Layer:  MANUFACTURING/NCDRILL_LEGEND*
G04 Layer:  MANUFACTURING/NCDRILL_FIGURE*
G04 Layer:  MANUFACTURING/NCLEGEND-1-6*
G04 Layer:  DRAWING FORMAT/OUTLINE*
G04 Layer:  DRAWING FORMAT/TITLE_BLOCK*
G04 Layer:  DRAWING FORMAT/TITLE_DATA*
G04 Layer:  DRAWING FORMAT/REVISION_BLOCK*
G04 Layer:  DRAWING FORMAT/REVISION_DATA*
G04 Layer:  BOARD GEOMETRY/DESIGN_OUTLINE*
G04 *
G04 Offset:    (0.0000 0.0000)*
G04 Mirror:    No*
G04 Mode:      Positive*
G04 Rotation:  0*
G04 FullContactRelief:  No*
G04 UndefLineWidth:     0.5000*
G04 ================== end FILE IDENTIFICATION RECORD ====================*
%FSLAX35Y35*MOMM*%
%IR0*IPPOS*OFA0.00000B0.00000*MIA0B0*SFA1.00000B1.00000*%
%AMMACRO12*
1,1,.5,.7,0.0*
20,1,.5,.7,0.0,-.7,0.0,0.0*
1,1,.5,-.7,0.0*
1,1,.5,0.0,.7*
20,1,.5,0.0,.7,0.0,-.7,0.0*
1,1,.5,0.0,-.7*
%
%ADD12MACRO12*%
%AMMACRO15*
1,1,.5,.289949,-.7*
20,1,.5,.289949,-.7,-.289949,-.7,0.0*
1,1,.5,-.289949,-.7*
20,1,.5,-.289949,-.7,-.7,-.289949,0.0*
1,1,.5,-.7,-.289949*
20,1,.5,-.7,-.289949,-.7,.289949,0.0*
1,1,.5,-.7,.289949*
20,1,.5,-.7,.289949,-.289949,.7,0.0*
1,1,.5,-.289949,.7*
20,1,.5,-.289949,.7,.289949,.7,0.0*
1,1,.5,.289949,.7*
20,1,.5,.289949,.7,.7,.289949,0.0*
1,1,.5,.7,.289949*
20,1,.5,.7,.289949,.7,-.289949,0.0*
1,1,.5,.7,-.289949*
20,1,.5,.7,-.289949,.289949,-.7,0.0*
1,1,.5,.289949,-.7*
1,1,.5,-.4958,-.2975*
20,1,.5,-.4958,-.2975,-.4958,.2975,0.0*
1,1,.5,-.4958,.2975*
20,1,.5,-.4958,.2975,-.2578,.2975,0.0*
1,1,.5,-.2578,.2975*
20,1,.5,-.2578,.2975,-.1785,.2677,0.0*
1,1,.5,-.1785,.2677*
20,1,.5,-.1785,.2677,-.119,.1983,0.0*
1,1,.5,-.119,.1983*
20,1,.5,-.119,.1983,-.0992,.119,0.0*
1,1,.5,-.0992,.119*
20,1,.5,-.0992,.119,-.119,.0397,0.0*
1,1,.5,-.119,.0397*
20,1,.5,-.119,.0397,-.1686,-.0198,0.0*
1,1,.5,-.1686,-.0198*
20,1,.5,-.1686,-.0198,-.2578,-.0496,0.0*
1,1,.5,-.2578,-.0496*
20,1,.5,-.2578,-.0496,-.4958,-.0496,0.0*
1,1,.5,-.4958,-.0496*
1,1,.5,.1092,-.2975*
20,1,.5,.1092,-.2975,.1092,.2975,0.0*
1,1,.5,.1092,.2975*
20,1,.5,.1092,.2975,.486,.2975,0.0*
1,1,.5,.486,.2975*
1,1,.5,.3472,.0099*
20,1,.5,.3472,.0099,.1092,.0099,0.0*
1,1,.5,.1092,.0099*
%
%ADD15MACRO15*%
%AMMACRO11*
1,1,.5,-.5588,-.762*
20,1,.5,-.5588,-.762,-.5588,.762,0.0*
1,1,.5,-.5588,.762*
20,1,.5,-.5588,.762,-.0508,.762,0.0*
1,1,.5,-.0508,.762*
20,1,.5,-.0508,.762,.1524,.6858,0.0*
1,1,.5,.1524,.6858*
20,1,.5,.1524,.6858,.3048,.5842,0.0*
1,1,.5,.3048,.5842*
20,1,.5,.3048,.5842,.4318,.4318,0.0*
1,1,.5,.4318,.4318*
20,1,.5,.4318,.4318,.5334,.254,0.0*
1,1,.5,.5334,.254*
20,1,.5,.5334,.254,.5588,0.0,0.0*
1,1,.5,.5588,0.0*
20,1,.5,.5588,0.0,.5334,-.254,0.0*
1,1,.5,.5334,-.254*
20,1,.5,.5334,-.254,.4318,-.4318,0.0*
1,1,.5,.4318,-.4318*
20,1,.5,.4318,-.4318,.3048,-.5842,0.0*
1,1,.5,.3048,-.5842*
20,1,.5,.3048,-.5842,.1524,-.6858,0.0*
1,1,.5,.1524,-.6858*
20,1,.5,.1524,-.6858,-.0508,-.762,0.0*
1,1,.5,-.0508,-.762*
20,1,.5,-.0508,-.762,-.5588,-.762,0.0*
1,1,.5,-.5588,-.762*
%
%ADD11MACRO11*%
%AMMACRO16*
1,1,.5,0.0,.65*
20,1,.5,0.0,.65,.65,-.65,0.0*
1,1,.5,.65,-.65*
20,1,.5,.65,-.65,-.65,-.65,0.0*
1,1,.5,-.65,-.65*
20,1,.5,-.65,-.65,0.0,.65,0.0*
1,1,.5,0.0,.65*
%
%ADD16MACRO16*%
%AMMACRO10*
1,1,.5,.25,0.0*
20,1,.5,.25,0.0,.125,.216506,0.0*
1,1,.5,.125,.216506*
20,1,.5,.125,.216506,-.125,.216506,0.0*
1,1,.5,-.125,.216506*
20,1,.5,-.125,.216506,-.25,0.0,0.0*
1,1,.5,-.25,0.0*
20,1,.5,-.25,0.0,-.125,-.216506,0.0*
1,1,.5,-.125,-.216506*
20,1,.5,-.125,-.216506,.125,-.216506,0.0*
1,1,.5,.125,-.216506*
20,1,.5,.125,-.216506,.25,0.0,0.0*
1,1,.5,.25,0.0*
%
%ADD10MACRO10*%
%AMMACRO14*
1,1,.5,0.0,.7*
20,1,.5,0.0,.7,.7,-.7,0.0*
1,1,.5,.7,-.7*
20,1,.5,.7,-.7,-.7,-.7,0.0*
1,1,.5,-.7,-.7*
20,1,.5,-.7,-.7,0.0,.7,0.0*
1,1,.5,0.0,.7*
1,1,.5,-.2625,-.1575*
20,1,.5,-.2625,-.1575,-.2625,.1575,0.0*
1,1,.5,-.2625,.1575*
20,1,.5,-.2625,.1575,-.1365,.1575,0.0*
1,1,.5,-.1365,.1575*
20,1,.5,-.1365,.1575,-.0945,.1417,0.0*
1,1,.5,-.0945,.1417*
20,1,.5,-.0945,.1417,-.063,.105,0.0*
1,1,.5,-.063,.105*
20,1,.5,-.063,.105,-.0525,.063,0.0*
1,1,.5,-.0525,.063*
20,1,.5,-.0525,.063,-.063,.021,0.0*
1,1,.5,-.063,.021*
20,1,.5,-.063,.021,-.0893,-.0105,0.0*
1,1,.5,-.0893,-.0105*
20,1,.5,-.0893,-.0105,-.1365,-.0263,0.0*
1,1,.5,-.1365,-.0263*
20,1,.5,-.1365,-.0263,-.2625,-.0263,0.0*
1,1,.5,-.2625,-.0263*
1,1,.5,.0578,-.1575*
20,1,.5,.0578,-.1575,.0578,.1575,0.0*
1,1,.5,.0578,.1575*
20,1,.5,.0578,.1575,.2574,.1575,0.0*
1,1,.5,.2574,.1575*
1,1,.5,.1838,.0053*
20,1,.5,.1838,.0053,.0578,.0053,0.0*
1,1,.5,.0578,.0053*
%
%ADD14MACRO14*%
%AMMACRO13*
1,1,.5,.6985,0.0*
20,1,.5,.6985,0.0,.34925,.604919,0.0*
1,1,.5,.34925,.604919*
20,1,.5,.34925,.604919,-.34925,.604919,0.0*
1,1,.5,-.34925,.604919*
20,1,.5,-.34925,.604919,-.6985,0.0,0.0*
1,1,.5,-.6985,0.0*
20,1,.5,-.6985,0.0,-.34925,-.604919,0.0*
1,1,.5,-.34925,-.604919*
20,1,.5,-.34925,-.604919,.34925,-.604919,0.0*
1,1,.5,.34925,-.604919*
20,1,.5,.34925,-.604919,.6985,0.0,0.0*
1,1,.5,.6985,0.0*
%
%ADD13MACRO13*%
%ADD17C,.2*%
%ADD18C,.15*%
%ADD19C,.25*%
%ADD20C,.5*%
G75*
%LPD*%
G75*
G54D10*
X-200480Y-880000D03*
X115000Y-970000D03*
X80000Y-495480D03*
X-200480Y-700000D03*
X-202980Y-515000D03*
X-70000Y250000D03*
X-185480Y590000D03*
X-210480Y390000D03*
X180000Y590000D03*
X-210480Y900000D03*
X-60000Y740000D03*
X-33500Y1177000D03*
X-160500D03*
X220500D03*
X230000Y900000D03*
X100000Y1510000D03*
X-30000Y1507000D03*
X-160000D03*
X230000Y1500000D03*
X-160500Y1963000D03*
X220500D03*
X93500D03*
X-33500D03*
X570000Y-945000D03*
X450000Y-554520D03*
Y-80000D03*
X470000Y20000D03*
X370000Y70000D03*
Y310000D03*
X705670Y535500D03*
X540000Y530000D03*
Y720000D03*
X705670Y746140D03*
X441750Y1131580D03*
X350000Y920000D03*
X445000D03*
X360000Y1177000D03*
X516200Y1174570D03*
X441750Y1342220D03*
X470000Y1410000D03*
X360000Y1423000D03*
X516200Y1299230D03*
X420000Y1930000D03*
X510000Y1830000D03*
X427700Y1862300D03*
X330000Y1710000D03*
X420000Y2030000D03*
X960000Y-750000D03*
X1054520Y-340000D03*
Y-450000D03*
X950000Y-480000D03*
X882170Y-552670D03*
Y-677330D03*
X1064520Y30000D03*
X860000Y150000D03*
X952640Y149500D03*
X870000Y-250000D03*
X950000Y50000D03*
X860000Y240000D03*
X952860Y231500D03*
X780120Y703150D03*
Y578490D03*
X1000000Y790000D03*
X1140000Y930000D03*
X1080000Y730790D03*
Y850000D03*
X780000Y1840000D03*
X1035110Y1866860D03*
X1085000Y1815000D03*
X1040000Y1730000D03*
X1030000Y1990000D03*
X1013000Y2160000D03*
X742540Y2080710D03*
X824180Y2072970D03*
X759520Y2625000D03*
X1100000Y3065480D03*
X759520Y2715000D03*
X928520Y2670000D03*
X990000Y3031760D03*
X964000Y3339520D03*
X1044000D03*
X840000Y3629520D03*
X1060000Y3744520D03*
X1170000Y3995480D03*
X1060000D03*
X1170000Y3744520D03*
X1465000Y-1015000D03*
X1650000Y-970000D03*
X1491150Y-750000D03*
X1590000Y-760000D03*
X1320000Y-260000D03*
X1300000Y-740000D03*
X1655000Y75000D03*
X1430000Y70000D03*
X1340000Y-165880D03*
Y-41220D03*
X1460000Y390000D03*
X1350000D03*
X1580000Y775480D03*
X1410000Y729520D03*
Y830000D03*
X1400000Y1060000D03*
X1530000Y1250000D03*
X1380000D03*
X1517440Y1345810D03*
X1392780D03*
X1359520Y2090000D03*
X1484000Y2519520D03*
X1220000Y2510000D03*
X1356520Y2246000D03*
X1400000Y3065480D03*
X1510000Y3041760D03*
X1260000Y2820000D03*
X1400000D03*
X1250000Y3220480D03*
X1684000Y3339520D03*
X1524000Y3274000D03*
X1280000Y3744520D03*
X1610000Y3995480D03*
X1490000Y3990200D03*
X1410000D03*
X1270000D03*
X1390000Y3744520D03*
X1500000D03*
X1610000D03*
X2020000Y-280000D03*
X1840000D03*
X2120500Y-462430D03*
X2100000Y-660000D03*
X1845000Y-690000D03*
X1840000Y80000D03*
X2020000D03*
X1840000Y-100000D03*
X2020000D03*
X1700000Y230000D03*
X2100000Y450000D03*
X1895000Y460000D03*
X1695000Y475000D03*
X1900000Y560000D03*
X1800000Y775480D03*
X2050000D03*
X2124520Y840000D03*
X2140000Y1160000D03*
X1790000Y1180000D03*
X1800000Y1090000D03*
X1690000Y775480D03*
X1892170Y1186970D03*
X2155550Y1265440D03*
X1790000Y1320000D03*
X1900000Y1410000D03*
X1892170Y1311630D03*
X1860480Y2090000D03*
X1850000Y1850000D03*
X1845000Y1915000D03*
X1740000Y1810000D03*
X1990000Y2100000D03*
X1862480Y2245000D03*
X2030000Y2270000D03*
X1724000Y2820480D03*
X2600000Y-790000D03*
X2510000Y-752000D03*
X2200000Y-280000D03*
X2580000Y-600000D03*
X2245000Y-465000D03*
X2186790Y-413500D03*
X2510000Y-670000D03*
X2620000Y-390000D03*
X2200000Y80000D03*
Y-100000D03*
X2560000Y130000D03*
X2610000Y-20000D03*
X2635000Y570000D03*
X2245000Y450000D03*
X2610000Y350000D03*
X2480000Y814800D03*
X2190000Y740000D03*
X2295000D03*
X2230000Y1097790D03*
X2600000Y1300000D03*
X2480000Y1290000D03*
X2470000Y1590000D03*
X2230000Y1222450D03*
X2220000Y1840000D03*
X2484300Y1814300D03*
X2455000Y1865000D03*
X2550000Y1930000D03*
X2443000Y2160000D03*
X2178000Y2084800D03*
X2260000Y2090000D03*
X2640000Y2500000D03*
X2525000Y3065480D03*
X2265000Y2850000D03*
X2353520Y2670000D03*
X2415000Y3031760D03*
X2389000Y3339520D03*
X2469000D03*
X2265000Y3629520D03*
X2485000Y3995480D03*
X2595000D03*
X2485000Y3744520D03*
X2595000D03*
X2945480Y-830000D03*
X3100000Y-490000D03*
X2945480Y-630000D03*
X3120000Y-330000D03*
X2680000Y-630000D03*
X2880000Y-480000D03*
X3040070Y-354820D03*
X3037600Y-436790D03*
X3050000Y-660000D03*
X3100000Y-90000D03*
X3090000Y-250000D03*
X3140000Y120000D03*
X2740000Y-70000D03*
Y-230000D03*
X2996940Y-119980D03*
X3000080Y-201930D03*
X2850000Y-20000D03*
X3035480Y320000D03*
X2740000Y300000D03*
X2830000Y1090000D03*
X2950000D03*
Y740000D03*
X2680000D03*
X2830000D03*
X2747580Y1289210D03*
X2933030Y1350000D03*
X2808370D03*
X2784520Y2090000D03*
X2909000Y2519520D03*
X2781520Y2246000D03*
X2825000Y3065480D03*
X2935000Y3041760D03*
X2675000Y2825000D03*
X2825000D03*
X2675000Y3220480D03*
X3109000Y3339520D03*
X2949000Y3241000D03*
X2700000Y3990200D03*
X2830000D03*
X2920000D03*
X3050000D03*
X2705000Y3744520D03*
X2815000D03*
X2925000D03*
X3035000D03*
X3339930Y-925260D03*
X3429930Y-979920D03*
X3330000Y120000D03*
Y-40000D03*
X3255010Y75030D03*
X3254940Y-6970D03*
X3400000Y-200000D03*
X3600000Y-100000D03*
X3240000Y660000D03*
X3590000Y700000D03*
X3146100Y663990D03*
X3330000Y430000D03*
X3240000Y790000D03*
X3590000Y820000D03*
X3280000Y1160000D03*
X3146100Y780000D03*
X3365820Y1182790D03*
X3280000Y1320000D03*
X3320640Y1412600D03*
X3365820Y1307450D03*
X3285480Y2090000D03*
X3265000Y1915000D03*
X3410000Y1830000D03*
X3320000Y1820000D03*
X3360000Y2140000D03*
X3598140Y2084920D03*
X3287480Y2245000D03*
X3609520Y2625000D03*
X3149000Y2820480D03*
X3609520Y2715000D03*
X4010000Y-860000D03*
X3690000Y-890000D03*
X3640000Y-360000D03*
X3830000Y-390000D03*
X4101350Y-208650D03*
X3870000Y50000D03*
X3790000Y200000D03*
Y118000D03*
X3860000Y260000D03*
X3750000Y630000D03*
X3930000Y527500D03*
X4110000Y592500D03*
X3857500Y630000D03*
X3688140Y705840D03*
Y821850D03*
X3860000Y1590000D03*
X3640000Y1840000D03*
X3897600Y1767600D03*
X3865000Y1865000D03*
X3930000Y2100000D03*
X3863000Y2160000D03*
X4020000Y1800000D03*
X4050000Y1960000D03*
X3970000Y1897500D03*
X3680140Y2084790D03*
X4070000Y2505000D03*
X4030000Y2240000D03*
X3950000Y3065480D03*
X3778520Y2670000D03*
X3840000Y3031760D03*
X4100000Y2820000D03*
Y3220480D03*
X3814000Y3339520D03*
X3894000D03*
X3690000Y3629520D03*
X3910000Y3995480D03*
X4020000D03*
X3910000Y3744520D03*
X4020000D03*
X4390000Y-870000D03*
X4205000Y-850000D03*
X4180000Y-530000D03*
X4290000Y-485000D03*
X4500000Y-390000D03*
X4510000Y-555000D03*
X4480000Y170000D03*
Y30000D03*
X4570000Y132000D03*
Y50000D03*
X4274500Y-170000D03*
X4360000Y-180000D03*
X4590000Y470000D03*
X4530000Y410000D03*
Y285340D03*
X4122500Y462500D03*
X4388380Y1323540D03*
X4239360D03*
X4359290Y1400210D03*
X4277290Y1399990D03*
X4580000Y1840000D03*
X4240000Y2090000D03*
X4334000Y2519520D03*
X4206520Y2246000D03*
X4120000Y2260000D03*
X4250000Y3065480D03*
X4574000Y2820480D03*
X4360000Y3041760D03*
X4250000Y2820000D03*
X4534000Y3339520D03*
X4374000Y3266000D03*
X4120000Y3990200D03*
X4260000D03*
X4350000Y3995480D03*
X4480000Y3990200D03*
X4130000Y3744520D03*
X4240000D03*
X4350000D03*
X4460000D03*
X4890000Y-880000D03*
X5030000Y-800000D03*
X4727730Y-550330D03*
X4910000Y-690000D03*
X5060000Y-555000D03*
X4840000Y-550000D03*
X4920000Y-390000D03*
X4600000Y-380000D03*
X4690000Y-390000D03*
X4828630Y-389820D03*
X5008000Y-210000D03*
X5017500Y657500D03*
X4607110Y257420D03*
X5017500Y462500D03*
X4723290Y755940D03*
X4670000Y944660D03*
Y820000D03*
X4740000Y1410000D03*
X4629460Y1630000D03*
X5030000Y1350000D03*
X4670000Y2090000D03*
X5050000Y1840000D03*
X4700000D03*
X4820000Y2080000D03*
X5011000Y2079000D03*
X4712480Y2245000D03*
X5034520Y2625000D03*
Y2715000D03*
X5375000Y-935000D03*
X5413880Y-862800D03*
X5180000Y-840000D03*
X5360000Y-530000D03*
X5460000Y-495000D03*
X5335000Y-210000D03*
X5510000Y-75480D03*
X5300000Y-80000D03*
X5410000D03*
X5210000Y-210000D03*
X5090000D03*
X5540000Y-200000D03*
X5236920Y212310D03*
Y87650D03*
X5559130Y596420D03*
X5324740Y411810D03*
Y310000D03*
X5220000Y1080000D03*
X5240000Y1630000D03*
X5230000Y1340000D03*
X5480000Y2060000D03*
X5320000Y1800000D03*
X5350000Y2160000D03*
X5205000Y2075000D03*
X5550000Y1790000D03*
X5093000Y2080000D03*
X5494950Y2409120D03*
X5350000Y2260000D03*
X5490000Y2201000D03*
X5514080Y2522930D03*
X5560000Y2262500D03*
X5399880Y2389880D03*
X5416240Y2309520D03*
X5375000Y3065480D03*
X5203520Y2670000D03*
X5265000Y3031760D03*
X5525000Y2826820D03*
Y3220480D03*
X5230000Y3290000D03*
X5319000Y3339520D03*
X5140000Y3400000D03*
X5115000Y3629520D03*
X5445000Y3995480D03*
X5335000D03*
X5555000D03*
X5335000Y3744520D03*
X5555000D03*
X5445000D03*
X5339000Y3640000D03*
X5810000Y-790000D03*
X5630000Y-810000D03*
X6025480Y-660000D03*
X6050000Y-340000D03*
X5810000Y-410000D03*
X5980000Y-440000D03*
X5650000Y-550000D03*
X5950000Y-75480D03*
X5590000Y-80000D03*
X5726000Y-89450D03*
X5740000Y210000D03*
X5840000Y-75480D03*
X5680000Y-170000D03*
X6040000Y550000D03*
X5650000Y450000D03*
X5641050Y600050D03*
X5570000Y470000D03*
X5850000Y1020000D03*
X5570000Y805000D03*
X5710000Y1020000D03*
X5580000D03*
X5970000Y1360000D03*
X5870000D03*
X5578000Y1550000D03*
X5660000D03*
X5680000Y2080000D03*
X5580000Y2090000D03*
X5759000Y2519520D03*
X5660000Y2246000D03*
X5580000Y2172000D03*
X5675000Y3065480D03*
X5999000Y2820480D03*
X5785000Y3041760D03*
X5675000Y2825000D03*
X5959000Y3339520D03*
X5799000Y3281000D03*
X5680000Y3990200D03*
X5775000Y3995480D03*
X5889000Y3990200D03*
X5665000Y3744520D03*
X5775000D03*
X5885000D03*
X6180000Y-750000D03*
X6070000Y-870000D03*
X6330000Y-920000D03*
X6490000Y-925480D03*
X6172500Y-667500D03*
X6490000Y-474520D03*
X6193750Y-450000D03*
X6449800Y170000D03*
X6065000Y210000D03*
X6090000Y-90000D03*
X6290000Y-170000D03*
X6380000Y-180000D03*
X6480000Y250000D03*
X6285570Y1096030D03*
X6460000Y820000D03*
X6370000Y1050000D03*
X6339800Y820000D03*
X6470000Y1163000D03*
Y1081000D03*
X6270000Y1590000D03*
X6354170Y1229000D03*
X6470000Y1590000D03*
X6070000Y2080000D03*
X6150000Y1820000D03*
X6250000Y1960000D03*
X6332220Y1934500D03*
X6420000Y1968500D03*
X6137480Y2245000D03*
X6430000Y2270000D03*
X6470000Y3360000D03*
X6480000Y3520000D03*
X6480170Y3797680D03*
X6500000Y4533450D03*
X6490000Y5558000D03*
X6520000Y5920000D03*
X6530000Y5810000D03*
X7010000Y-930000D03*
X6770000D03*
X6610000Y-925480D03*
X6770000Y-470000D03*
X6895480Y-380000D03*
X6644520D03*
X6960000Y-430000D03*
X6610000Y-474520D03*
X6940000Y-732500D03*
X7020000Y-700000D03*
X6560000Y190000D03*
X6630000Y140000D03*
X6719130Y179130D03*
X6660000Y360000D03*
Y470000D03*
Y670000D03*
X6719130Y261130D03*
X6720000Y1160000D03*
X6640000Y1190000D03*
X6720000Y1303000D03*
X6650000Y1640000D03*
X6640240Y1272000D03*
X6790000Y1450000D03*
X6600000Y2120000D03*
X6680000D03*
X6770000Y1940000D03*
X6920000Y1910000D03*
X7020000Y1844500D03*
X6890000Y2120000D03*
X6929520Y2625000D03*
X6815000Y2260000D03*
X6929520Y2715000D03*
X6650000Y3200000D03*
X6644560Y3464610D03*
X6650000Y3310000D03*
X7010000Y3629520D03*
X6645000Y3795000D03*
X6580000Y4100000D03*
X7120000Y-890000D03*
X7316750Y-709520D03*
X7120000Y-700000D03*
X7462000Y-720000D03*
X7389000D03*
X7210000Y-700000D03*
X7500000Y-450000D03*
X7260000Y150000D03*
X7260390Y-92310D03*
X7300640Y-20860D03*
X7300000Y70000D03*
X7195000Y705000D03*
X7170000Y460000D03*
Y320000D03*
X7290000Y610000D03*
X7130000Y1140000D03*
X7450000Y940000D03*
X7194840Y859320D03*
X7235000Y935000D03*
X7060000Y1190000D03*
X7440000Y1088000D03*
Y1170000D03*
X7130000Y1320000D03*
X7060000Y1600000D03*
X7440000Y1290000D03*
X7060000Y1272000D03*
X7205830Y2112520D03*
X7400000Y1870000D03*
Y2000000D03*
X7205830Y1963520D03*
X7490000Y1989770D03*
X7127790Y1988720D03*
X7490000Y1865110D03*
X7130020Y2070690D03*
X7414000Y2534000D03*
X7270000Y3065480D03*
X7098520Y2670000D03*
X7160000Y3031760D03*
X7420000Y2826820D03*
Y3220480D03*
X7134000Y3339520D03*
X7214000D03*
X7230000Y3995480D03*
X7340000D03*
X7450000D03*
Y3744520D03*
X7340000D03*
X7230000D03*
X7558500Y-771500D03*
X7929210Y-1000000D03*
X7810000D03*
X7590000Y-460000D03*
X7986000Y-450000D03*
X7530000Y-670000D03*
X7991000Y-709000D03*
X7744000Y-700000D03*
X7740000Y-450000D03*
X7741000Y59000D03*
X7524170Y140000D03*
X7590000Y-240000D03*
X7743000Y-80000D03*
X7977910Y66090D03*
X7987000Y-70000D03*
X7865000Y-75000D03*
X7590000Y178000D03*
X7870000Y180000D03*
X7710000Y670000D03*
X7630000D03*
X7950000Y680000D03*
X7524170Y289000D03*
X7799500Y579500D03*
X7530000Y710000D03*
X7810000Y680000D03*
X7590000Y251000D03*
X7680000Y1120000D03*
X7690000Y1360000D03*
X7917900Y1361000D03*
X7580000Y1410000D03*
X7810000D03*
X7529520Y2090000D03*
X7654000Y2519520D03*
X7526520Y2246000D03*
X7570000Y3065480D03*
X7894000Y2820480D03*
X7680000Y3041760D03*
X7570000Y2820000D03*
X7854000Y3339520D03*
X7667000Y3307000D03*
X7560000Y3995480D03*
X7670000D03*
X7780000D03*
X7560000Y3744520D03*
X7670000D03*
X7780000D03*
X8115500Y-455500D03*
X8250000Y-448000D03*
X8244970Y-596280D03*
X8237070Y-714930D03*
X8110070D03*
X8364070Y-587930D03*
X8380000Y-445000D03*
X8117000Y-73000D03*
X8360000Y65000D03*
X8122530Y-240660D03*
X8247370Y-76370D03*
X8239140Y62270D03*
X8248050Y171780D03*
X8372500Y-77500D03*
X8210000Y490000D03*
X8200000Y700000D03*
X8370000Y309000D03*
X8233170Y316700D03*
X8119500Y310500D03*
X8002000Y320000D03*
X8129150Y535400D03*
X8133640Y453520D03*
X8353970Y700000D03*
X8160000Y890000D03*
X8120000Y970000D03*
Y1052000D03*
X8390000Y1010000D03*
X8380000Y906550D03*
X8277500Y1102500D03*
X8377790Y1102600D03*
X8120250Y812000D03*
X8119990Y730000D03*
X8179300Y1635000D03*
X8000000Y1360000D03*
X8330000Y1550000D03*
X8030480Y2090000D03*
X8179300Y1990000D03*
X8297520Y2159000D03*
X8020000Y1840000D03*
X8334520D03*
X8340000Y1990000D03*
X8339800Y1720000D03*
X8300000Y2300000D03*
X8032480Y2245000D03*
X8193560Y2264080D03*
X8195510Y2182100D03*
X8435000Y2830000D03*
Y3629520D03*
X8750000Y-590000D03*
X8880000Y-320000D03*
X8625570Y-594290D03*
X8745070Y-714930D03*
X8618070D03*
X8495000Y-705000D03*
X8871000Y-700000D03*
X8500000Y-590000D03*
X8627040Y-442500D03*
X8880000Y-580000D03*
X8620000Y-80000D03*
X8887910Y45090D03*
X8650000Y70000D03*
X8615000Y-210000D03*
X8500000Y180000D03*
Y60000D03*
X8502500Y-77500D03*
X8753000Y53000D03*
X8750000Y-70000D03*
X8490000Y670000D03*
X8688500Y458500D03*
X8644970Y313270D03*
X8790000Y654300D03*
X8640000Y644520D03*
X8491430Y301430D03*
X8759060Y500290D03*
X8667800Y1180000D03*
X8790000Y1095480D03*
X8940000Y1090000D03*
X8749800Y1180000D03*
X8500000Y1100000D03*
X8640000Y1095480D03*
X8800000Y1550000D03*
X8500000Y1420000D03*
X8639600Y1419600D03*
X8940000Y1902300D03*
X8954520Y2090000D03*
X8785480Y1840000D03*
X8790000Y1720000D03*
X8527500Y2112980D03*
X8657500D03*
X8839000Y2534000D03*
X8951520Y2246000D03*
X8520000Y2570000D03*
X8592500Y2180000D03*
X8730000Y2290000D03*
X8695000Y3065480D03*
X8523520Y2670000D03*
X8585000Y3031760D03*
X8845000Y2825000D03*
Y3220480D03*
X8559000Y3339520D03*
X8639000D03*
X8950000Y3330000D03*
X8655000Y3995480D03*
X8875000D03*
X8765000D03*
X8875000Y3744520D03*
X8765000D03*
X8655000D03*
X9259500Y-580500D03*
X9131000Y-579000D03*
X9253070Y-714930D03*
X9126070D03*
X9000000Y-702000D03*
X9257000Y-330000D03*
X9000000Y-580000D03*
X9381500Y48500D03*
X9270000Y-210000D03*
X9123000Y-190000D03*
X9388000Y180000D03*
X9010000Y178840D03*
X9265500Y175500D03*
X9138500Y48500D03*
X9254000Y60000D03*
X9140000Y-70000D03*
X9450000Y370000D03*
X9360000Y700000D03*
X9069500Y479500D03*
X9000000Y302000D03*
X9390000Y430000D03*
X9387010Y317490D03*
X8995480Y1180000D03*
X9443360Y1170400D03*
X9440000Y1020000D03*
X9200000Y1060000D03*
X9050000D03*
X9062980Y902500D03*
X9120000Y837500D03*
X9160000Y1140000D03*
X9360000Y1149000D03*
X9078000Y1140000D03*
X9360000Y1067000D03*
X9062980Y772500D03*
X9372610Y1357400D03*
X9374190Y1275410D03*
X9215000Y1969000D03*
X9020000Y1974660D03*
X9027110Y1853080D03*
X9079000Y2519520D03*
X8995000Y3065480D03*
X9319000Y2820480D03*
X9105000Y3041760D03*
X8995000Y2825000D03*
X9279000Y3339520D03*
X9040000Y3330000D03*
X9121260Y3288950D03*
X8985000Y3995480D03*
X9095000D03*
X9205000D03*
X8985000Y3744520D03*
X9095000D03*
X9205000D03*
X9773500Y-586500D03*
X9640000Y-580000D03*
X9638000Y-330000D03*
X9761070Y-714930D03*
X9634070D03*
X9507070Y-587930D03*
X9887000Y-700000D03*
X9761000Y-320000D03*
X9520500Y-320500D03*
X9890000Y-459000D03*
X9507070Y-79930D03*
X9761070Y47070D03*
X9888070Y174070D03*
X9780000Y-85000D03*
X9759000Y190000D03*
X9649120Y59070D03*
X9520000Y50000D03*
X9900000Y-70000D03*
X9680000Y630000D03*
X9774930Y314930D03*
X9830000Y644520D03*
X9845480Y1180000D03*
X9929800D03*
X9680000Y1100000D03*
X9830000Y1095480D03*
X9550000Y892000D03*
Y810000D03*
X9475830Y1390000D03*
Y1241000D03*
X9750000Y1550000D03*
X9900000Y1390000D03*
X9455480Y2090000D03*
X9590000Y1980000D03*
X9670000Y1715480D03*
X9659460Y2151000D03*
X9540000Y1830000D03*
X9754520Y1840000D03*
X9760000Y1990000D03*
X9759800Y1720000D03*
X9660000Y2300000D03*
X9457480Y2245000D03*
X9779520Y2625000D03*
X9740000Y2262000D03*
Y2180000D03*
X9779520Y2715000D03*
X9860000Y3629520D03*
X10143000Y-460000D03*
X10280000Y-450000D03*
X10142070Y-714930D03*
X10014000Y-700000D03*
X10394000Y-590000D03*
X10400000Y-710000D03*
X10270000D03*
X10016000Y-460000D03*
X10397000D03*
X10155930Y60930D03*
X10028930Y-66070D03*
X10149500Y-199500D03*
X10409930Y-66070D03*
X10022000Y-200000D03*
X10413000Y-210000D03*
X10139210Y180000D03*
X10398110Y178100D03*
X10020000Y180000D03*
X10278900Y178100D03*
X10155930Y314930D03*
X10411000Y300000D03*
X10020000Y310000D03*
X9970000Y644520D03*
X10230000Y490000D03*
X10175480Y1180000D03*
X9970000Y1095480D03*
X10120000Y1090000D03*
X10242980Y902500D03*
X10330000Y837500D03*
X10242980Y772500D03*
X10130000Y1410000D03*
X10300000Y1570000D03*
X10010000Y1390000D03*
X10270000Y1370000D03*
X10379520Y2090000D03*
X10205480Y1840000D03*
X10210000Y1720000D03*
X10310000Y1690000D03*
X10360000Y1950000D03*
X10361760Y1848240D03*
X9947500Y2112980D03*
X10008250Y2168070D03*
X10077500Y2112980D03*
X10264000Y2534000D03*
X10376520Y2246000D03*
X10170000Y2280000D03*
X10280000Y2220000D03*
X10420000Y3065480D03*
X10120000D03*
X9948520Y2670000D03*
X10010000Y3031760D03*
X10270000Y2820000D03*
X10420000Y2810000D03*
X10270000Y3220480D03*
X9984000Y3339520D03*
X10064000D03*
X10080000Y3995480D03*
X10190000D03*
X10300000D03*
X10410000D03*
X10300000Y3744520D03*
X10190000D03*
X10410000D03*
X10080000D03*
X10786490Y-443020D03*
X10660000Y-570000D03*
X10904070Y-320070D03*
X10650070Y-714930D03*
X10532000Y-710000D03*
X10783930Y-313070D03*
X10527000Y-457000D03*
X10790000Y-710000D03*
X10530000Y181000D03*
X10536930Y-193070D03*
X10904070Y-66070D03*
X10850000Y590000D03*
X10536930Y314930D03*
X10530000Y440000D03*
X10845000Y1105000D03*
X10710000Y920000D03*
X10711420Y810000D03*
X10880000Y1454660D03*
X10868770Y1315960D03*
X10880480Y2090000D03*
X10504000Y2519520D03*
X10882480Y2245000D03*
X10744000Y2820480D03*
X10530000Y3041760D03*
X10624000Y2874000D03*
X10704000Y3339520D03*
X10500000Y3304000D03*
X10520000Y3995480D03*
X10630000D03*
X10520000Y3744520D03*
X10630000D03*
X10911500Y-708500D03*
X11211000Y-281000D03*
X11298000Y-448000D03*
X11169500Y-449500D03*
X11158070Y-714930D03*
X11040000Y-710000D03*
X11170000Y-580000D03*
X11031940Y-588090D03*
X11298570Y-701430D03*
X10920000Y-580000D03*
X11298930Y60930D03*
X10917930D03*
Y-193070D03*
X11298930D03*
X11285070Y-66070D03*
X11020000Y320000D03*
X11150000Y644520D03*
X11000000D03*
X11345480Y1180000D03*
X11015480D03*
X11150000Y1095480D03*
X11290000Y1090000D03*
X11000000Y1095480D03*
X10920000Y1380000D03*
X11090000Y1230000D03*
X11190000Y1550000D03*
X11290000Y1390000D03*
X11110000Y2045480D03*
Y1715480D03*
X11095180Y2150000D03*
X11000000Y1950000D03*
X11190000Y1910000D03*
X11200000Y1990000D03*
X11194520Y1690000D03*
X10910000Y1949210D03*
Y1830000D03*
X11387500Y2112980D03*
X11095180Y2299000D03*
X11204520Y2625000D03*
X11207900Y2274100D03*
Y2192100D03*
X11204520Y2715000D03*
X11373520Y2670000D03*
X11285000Y3629520D03*
X11420000Y-840000D03*
X11550000Y-830000D03*
X11793070Y-460930D03*
X11666070D03*
Y-714930D03*
X11800000Y-710000D03*
X11549500Y-69500D03*
X11690000Y170000D03*
X11800000Y-73000D03*
X11410000Y-200000D03*
X11670000Y-210000D03*
X11830000Y650000D03*
X11675000Y310000D03*
X11510000Y610000D03*
X11850000Y920000D03*
Y820000D03*
X11412980Y902500D03*
X11500000Y837500D03*
X11412980Y772500D03*
X11660000Y1550000D03*
X11550000Y1350000D03*
X11411000Y1390000D03*
X11550000Y1230790D03*
X11804520Y2090000D03*
X11645480Y1840000D03*
Y1690000D03*
X11520240Y2110240D03*
X11689000Y2534000D03*
X11801520Y2246000D03*
X11452500Y2190000D03*
X11845000Y3065480D03*
X11545000D03*
X11435000Y3031760D03*
X11695000Y2825000D03*
X11845000D03*
X11695000Y3220480D03*
X11409000Y3339520D03*
X11489000D03*
X11505000Y3995480D03*
X11615000D03*
X11725000D03*
X11835000D03*
X11725000Y3744520D03*
X11615000D03*
X11835000D03*
X11505000D03*
X12060000Y-705500D03*
X12312000Y-458000D03*
X12301070Y-714930D03*
X12174070D03*
Y-460930D03*
X12320000Y-569000D03*
X11930000Y-584000D03*
X12178000Y-330000D03*
X11930000D03*
X12190000Y-200000D03*
X12060930Y60930D03*
X12060000Y-79000D03*
X12320000Y-212000D03*
X11920000Y-80000D03*
X12050000Y177000D03*
X11920000Y47000D03*
X12310000Y60000D03*
X11918000Y172000D03*
X12180000Y-80000D03*
X12020000Y630000D03*
X12060930Y314930D03*
X12320000Y644520D03*
X12170000D03*
X12185480Y1180000D03*
X12269800D03*
X12320000Y1095480D03*
X12020000Y1100000D03*
X12170000Y1095480D03*
X12089210Y1370000D03*
X11970000D03*
X12305480Y2090000D03*
X12340000Y1875000D03*
X11929000Y2519520D03*
X12307480Y2245000D03*
X12169000Y2820480D03*
X11955000Y3041760D03*
X12129000Y3339520D03*
X11969000Y3291000D03*
X11945000Y3995480D03*
X12055000D03*
X11945000Y3744520D03*
X12055000D03*
X12430000Y-459000D03*
X12682070Y-714930D03*
X12428070Y-587930D03*
X12550000Y-696000D03*
X12680000Y-572000D03*
X12713500Y-263500D03*
X12570000Y-580000D03*
X12697500Y-462500D03*
X12431000Y-331000D03*
X12386000Y230000D03*
X12700000Y30000D03*
X12420000Y-60000D03*
X12440000Y-195000D03*
X12560000Y-80000D03*
X12710000Y200000D03*
X12692000Y-70000D03*
X12562000Y-200000D03*
X12441930Y314930D03*
X12726210Y293790D03*
X12515480Y1180000D03*
X12460000Y1090000D03*
X12582980Y902500D03*
X12670000Y837500D03*
X12582980Y772500D03*
X12510000Y1550000D03*
X12698460Y1410010D03*
X12780460Y1409980D03*
X12430000Y2045480D03*
Y1715480D03*
X12517500Y1927500D03*
X12520000Y1990000D03*
X12514520Y1700000D03*
X12707500Y2112980D03*
X12837500D03*
X12772500Y2200000D03*
X12670000Y3480000D03*
X12720000Y3560000D03*
X12820000Y3780000D03*
X12680000Y4430000D03*
X12730000Y4290000D03*
X12800000Y5140000D03*
X12938430Y-832670D03*
X12980030Y-762000D03*
X13050000Y-590000D03*
X12980000Y-680000D03*
X12860000Y-400000D03*
X12990000Y-480000D03*
X13190000Y550000D03*
X12880000Y460000D03*
X13030000Y480000D03*
X13202500Y951920D03*
X12890000Y1200000D03*
X12910000Y837500D03*
X13130000Y1260000D03*
X12900000Y1390000D03*
X13140000Y1600000D03*
X13145290Y1479500D03*
X12890000Y1305400D03*
X13160000Y2120000D03*
X13170000Y1770000D03*
X12955700Y1860000D03*
Y1700000D03*
X12960000Y1770000D03*
X13040000Y2320000D03*
X13072500Y2547500D03*
X13210000Y2330000D03*
X12919520Y2800000D03*
X13074520Y2950000D03*
X13050000Y3040000D03*
X12919520Y3160000D03*
X13074520Y3310000D03*
X13010000Y5010000D03*
X12891540Y5079500D03*
X13074350Y4920000D03*
X13490000Y560000D03*
X13340000Y684520D03*
X13410000Y950000D03*
X13510000Y1260000D03*
X13410000Y1640000D03*
X13500000Y1479500D03*
X13410000Y2130000D03*
G54D20*
G01X-3915400Y-8900800D02*
Y19775800D01*
X16709400D01*
Y-8900800D01*
X-3915400D01*
G01X-3534400Y-8062600D02*
Y19064600D01*
X16252200D01*
Y-8062600D01*
X-3534400D01*
G01X-3509000Y-8024500D02*
Y-3452500D01*
X16303000D01*
G01X-3300810Y-6564000D02*
Y-6437000D01*
X-3239670D01*
G01X-3262200Y-6498380D02*
X-3300810D01*
G01X-3172870Y-6564000D02*
Y-6437000D01*
X-3132660D01*
X-3119790Y-6443350D01*
X-3111740Y-6451820D01*
X-3108530Y-6468750D01*
X-3111740Y-6485680D01*
X-3121400Y-6496270D01*
X-3132660Y-6502620D01*
X-3172870D01*
G01X-3132660D02*
X-3108530Y-6564000D01*
G01X-3051380D02*
X-3011160Y-6437000D01*
X-2970940Y-6564000D01*
G01X-2985420Y-6519550D02*
X-3036900D01*
G01X-2846230Y-6447580D02*
X-2855880Y-6441230D01*
X-2867140Y-6437000D01*
X-2880010D01*
X-2894490Y-6443350D01*
X-2905750Y-6453930D01*
X-2913790Y-6466630D01*
X-2920230Y-6487800D01*
X-2921840Y-6506850D01*
X-2918620Y-6525900D01*
X-2913790Y-6538600D01*
X-2904140Y-6551300D01*
X-2892880Y-6559770D01*
X-2881620Y-6564000D01*
X-2870360D01*
X-2859100Y-6559770D01*
X-2849450Y-6553420D01*
X-2841400Y-6544950D01*
G01X-2752080Y-6437000D02*
Y-6564000D01*
G01X-2789080Y-6437000D02*
X-2715080D01*
G01X-2641840D02*
X-2603240D01*
G01X-2622540D02*
Y-6564000D01*
G01X-2641840D02*
X-2603240D01*
G01X-2493000D02*
X-2505870Y-6561880D01*
X-2517130Y-6553420D01*
X-2526780Y-6540720D01*
X-2533220Y-6525900D01*
X-2536440Y-6508970D01*
Y-6492030D01*
X-2533220Y-6475100D01*
X-2526780Y-6460280D01*
X-2517130Y-6447580D01*
X-2505870Y-6439120D01*
X-2493000Y-6437000D01*
X-2480130Y-6439120D01*
X-2468870Y-6447580D01*
X-2459220Y-6460280D01*
X-2452780Y-6475100D01*
X-2449560Y-6492030D01*
Y-6508970D01*
X-2452780Y-6525900D01*
X-2459220Y-6540720D01*
X-2468870Y-6553420D01*
X-2480130Y-6561880D01*
X-2493000Y-6564000D01*
G01X-2400460D02*
Y-6437000D01*
X-2326460Y-6564000D01*
Y-6437000D01*
G01X-2267700Y-6547070D02*
X-2254830Y-6557650D01*
X-2240350Y-6564000D01*
X-2227490D01*
X-2214620Y-6557650D01*
X-2204960Y-6547070D01*
X-2200140Y-6532250D01*
X-2203350Y-6517440D01*
X-2211400Y-6504730D01*
X-2225880Y-6496270D01*
X-2245180Y-6492030D01*
X-2256440Y-6483570D01*
X-2261270Y-6468750D01*
X-2258050Y-6453930D01*
X-2250010Y-6443350D01*
X-2238750Y-6437000D01*
X-2227490D01*
X-2216220Y-6441230D01*
X-2206570Y-6451820D01*
G01X-1992540Y-6521670D02*
X-1953930D01*
G01X-1974840Y-6494150D02*
Y-6549190D01*
G01X-3310460Y-6183000D02*
X-3270240Y-6056000D01*
X-3230020Y-6183000D01*
G01X-3244500Y-6138550D02*
X-3295980D01*
G01X-3177700Y-6183000D02*
Y-6056000D01*
X-3103700Y-6183000D01*
Y-6056000D01*
G01X-3001510Y-6119500D02*
X-2969330D01*
Y-6157600D01*
X-2978990Y-6170300D01*
X-2990250Y-6178770D01*
X-3006330Y-6183000D01*
X-3022420Y-6178770D01*
X-3033680Y-6170300D01*
X-3043330Y-6157600D01*
X-3049770Y-6142780D01*
X-3052990Y-6125850D01*
Y-6111030D01*
X-3049770Y-6098340D01*
X-3043330Y-6083510D01*
X-3033680Y-6070820D01*
X-3024030Y-6062350D01*
X-3011160Y-6056000D01*
X-2999900D01*
X-2987030Y-6060230D01*
X-2977380Y-6068700D01*
G01X-2913790Y-6056000D02*
Y-6183000D01*
X-2849450D01*
G01X-2719910D02*
X-2784250D01*
Y-6056000D01*
X-2719910D01*
G01X-2745650Y-6117380D02*
X-2784250D01*
G01X-2656320Y-6166070D02*
X-2643450Y-6176650D01*
X-2628970Y-6183000D01*
X-2616110D01*
X-2603240Y-6176650D01*
X-2593580Y-6166070D01*
X-2588760Y-6151250D01*
X-2591970Y-6136440D01*
X-2600020Y-6123730D01*
X-2614500Y-6115270D01*
X-2633800Y-6111030D01*
X-2645060Y-6102570D01*
X-2649890Y-6087750D01*
X-2646670Y-6072930D01*
X-2638630Y-6062350D01*
X-2627370Y-6056000D01*
X-2616110D01*
X-2604840Y-6060230D01*
X-2595190Y-6070820D01*
G01X-2381160Y-6140670D02*
X-2342550D01*
G01X-2363460Y-6113150D02*
Y-6168190D01*
G01X-3305630Y-5776600D02*
X-3295980Y-5791420D01*
X-3283110Y-5799880D01*
X-3268630Y-5802000D01*
X-3255760Y-5799880D01*
X-3242890Y-5789300D01*
X-3234850Y-5776600D01*
X-3233240Y-5763900D01*
X-3236460Y-5749090D01*
X-3247720Y-5738500D01*
X-3258980Y-5734270D01*
X-3273460D01*
G01X-3258980D02*
X-3249330Y-5727920D01*
X-3241280Y-5717340D01*
X-3238070Y-5704630D01*
X-3241280Y-5691930D01*
X-3249330Y-5681350D01*
X-3263810Y-5675000D01*
X-3278280Y-5677120D01*
X-3292760Y-5685580D01*
G01X-3043330Y-5802000D02*
Y-5675000D01*
X-3004730D01*
X-2991860Y-5681350D01*
X-2982200Y-5696170D01*
X-2978990Y-5713100D01*
X-2982200Y-5730030D01*
X-2990250Y-5742730D01*
X-3004730Y-5749090D01*
X-3043330D01*
G01X-2913790Y-5675000D02*
Y-5802000D01*
X-2849450D01*
G01X-2657930D02*
Y-5675000D01*
X-2625760D01*
X-2612890Y-5681350D01*
X-2603240Y-5689820D01*
X-2595190Y-5702510D01*
X-2588760Y-5717340D01*
X-2587150Y-5738500D01*
X-2588760Y-5759670D01*
X-2595190Y-5774490D01*
X-2603240Y-5787190D01*
X-2612890Y-5795650D01*
X-2625760Y-5802000D01*
X-2657930D01*
G01X-2460830D02*
X-2525170D01*
Y-5675000D01*
X-2460830D01*
G01X-2486570Y-5736380D02*
X-2525170D01*
G01X-2328070Y-5685580D02*
X-2337720Y-5679230D01*
X-2348980Y-5675000D01*
X-2361850D01*
X-2376330Y-5681350D01*
X-2387590Y-5691930D01*
X-2395630Y-5704630D01*
X-2402070Y-5725800D01*
X-2403680Y-5744850D01*
X-2400460Y-5763900D01*
X-2395630Y-5776600D01*
X-2385980Y-5789300D01*
X-2374720Y-5797770D01*
X-2363460Y-5802000D01*
X-2352200D01*
X-2340940Y-5797770D01*
X-2331290Y-5791420D01*
X-2323240Y-5782950D01*
G01X-2253220Y-5675000D02*
X-2214620D01*
G01X-2233920D02*
Y-5802000D01*
G01X-2253220D02*
X-2214620D01*
G01X-2146210D02*
Y-5675000D01*
X-2104380Y-5780830D01*
X-2062550Y-5675000D01*
Y-5802000D01*
G01X-2015060D02*
X-1974840Y-5675000D01*
X-1934620Y-5802000D01*
G01X-1949100Y-5757550D02*
X-2000580D01*
G01X-1877470Y-5675000D02*
Y-5802000D01*
X-1813130D01*
G01X-1749540Y-5785070D02*
X-1736670Y-5795650D01*
X-1722190Y-5802000D01*
X-1709330D01*
X-1696460Y-5795650D01*
X-1686800Y-5785070D01*
X-1681980Y-5770250D01*
X-1685190Y-5755440D01*
X-1693240Y-5742730D01*
X-1707720Y-5734270D01*
X-1727020Y-5730030D01*
X-1738280Y-5721570D01*
X-1743110Y-5706750D01*
X-1739890Y-5691930D01*
X-1731850Y-5681350D01*
X-1720590Y-5675000D01*
X-1709330D01*
X-1698060Y-5679230D01*
X-1688410Y-5689820D01*
G01X-1474380Y-5759670D02*
X-1435770D01*
G01X-1456680Y-5732150D02*
Y-5787190D01*
G01X-3300810Y-5315170D02*
X-3291150Y-5302470D01*
X-3279890Y-5296120D01*
X-3267020Y-5294000D01*
X-3250940Y-5298230D01*
X-3239670Y-5308820D01*
X-3236460Y-5321510D01*
X-3238070Y-5334220D01*
X-3244500Y-5344800D01*
X-3276670Y-5365970D01*
X-3291150Y-5380780D01*
X-3300810Y-5401950D01*
X-3304020Y-5421000D01*
X-3236460D01*
G01X-3043330D02*
Y-5294000D01*
X-3004730D01*
X-2991860Y-5300350D01*
X-2982200Y-5315170D01*
X-2978990Y-5332100D01*
X-2982200Y-5349030D01*
X-2990250Y-5361730D01*
X-3004730Y-5368090D01*
X-3043330D01*
G01X-2913790Y-5294000D02*
Y-5421000D01*
X-2849450D01*
G01X-2657930D02*
Y-5294000D01*
X-2625760D01*
X-2612890Y-5300350D01*
X-2603240Y-5308820D01*
X-2595190Y-5321510D01*
X-2588760Y-5336340D01*
X-2587150Y-5357500D01*
X-2588760Y-5378670D01*
X-2595190Y-5393490D01*
X-2603240Y-5406190D01*
X-2612890Y-5414650D01*
X-2625760Y-5421000D01*
X-2657930D01*
G01X-2460830D02*
X-2525170D01*
Y-5294000D01*
X-2460830D01*
G01X-2486570Y-5355380D02*
X-2525170D01*
G01X-2328070Y-5304580D02*
X-2337720Y-5298230D01*
X-2348980Y-5294000D01*
X-2361850D01*
X-2376330Y-5300350D01*
X-2387590Y-5310930D01*
X-2395630Y-5323630D01*
X-2402070Y-5344800D01*
X-2403680Y-5363850D01*
X-2400460Y-5382900D01*
X-2395630Y-5395600D01*
X-2385980Y-5408300D01*
X-2374720Y-5416770D01*
X-2363460Y-5421000D01*
X-2352200D01*
X-2340940Y-5416770D01*
X-2331290Y-5410420D01*
X-2323240Y-5401950D01*
G01X-2253220Y-5294000D02*
X-2214620D01*
G01X-2233920D02*
Y-5421000D01*
G01X-2253220D02*
X-2214620D01*
G01X-2146210D02*
Y-5294000D01*
X-2104380Y-5399830D01*
X-2062550Y-5294000D01*
Y-5421000D01*
G01X-2015060D02*
X-1974840Y-5294000D01*
X-1934620Y-5421000D01*
G01X-1949100Y-5376550D02*
X-2000580D01*
G01X-1877470Y-5294000D02*
Y-5421000D01*
X-1813130D01*
G01X-1749540Y-5404070D02*
X-1736670Y-5414650D01*
X-1722190Y-5421000D01*
X-1709330D01*
X-1696460Y-5414650D01*
X-1686800Y-5404070D01*
X-1681980Y-5389250D01*
X-1685190Y-5374440D01*
X-1693240Y-5361730D01*
X-1707720Y-5353270D01*
X-1727020Y-5349030D01*
X-1738280Y-5340570D01*
X-1743110Y-5325750D01*
X-1739890Y-5310930D01*
X-1731850Y-5300350D01*
X-1720590Y-5294000D01*
X-1709330D01*
X-1698060Y-5298230D01*
X-1688410Y-5308820D01*
G01X-1474380Y-5378670D02*
X-1435770D01*
G01X-1456680Y-5351150D02*
Y-5406190D01*
G01X-3270240Y-4913000D02*
Y-5040000D01*
G01X-3307240Y-4913000D02*
X-3233240D01*
G01X-3140700Y-5040000D02*
X-3153570Y-5037880D01*
X-3164830Y-5029420D01*
X-3174480Y-5016720D01*
X-3180920Y-5001900D01*
X-3184140Y-4984970D01*
Y-4968030D01*
X-3180920Y-4951100D01*
X-3174480Y-4936280D01*
X-3164830Y-4923580D01*
X-3153570Y-4915120D01*
X-3140700Y-4913000D01*
X-3127830Y-4915120D01*
X-3116570Y-4923580D01*
X-3106920Y-4936280D01*
X-3100480Y-4951100D01*
X-3097260Y-4968030D01*
Y-4984970D01*
X-3100480Y-5001900D01*
X-3106920Y-5016720D01*
X-3116570Y-5029420D01*
X-3127830Y-5037880D01*
X-3140700Y-5040000D01*
G01X-3043330Y-4913000D02*
Y-5040000D01*
X-2978990D01*
G01X-2849450D02*
X-2913790D01*
Y-4913000D01*
X-2849450D01*
G01X-2875190Y-4974380D02*
X-2913790D01*
G01X-2784250Y-5040000D02*
Y-4913000D01*
X-2744040D01*
X-2731170Y-4919350D01*
X-2723120Y-4927820D01*
X-2719910Y-4944750D01*
X-2723120Y-4961680D01*
X-2732780Y-4972270D01*
X-2744040Y-4978620D01*
X-2784250D01*
G01X-2744040D02*
X-2719910Y-5040000D01*
G01X-2662760D02*
X-2622540Y-4913000D01*
X-2582320Y-5040000D01*
G01X-2596800Y-4995550D02*
X-2648280D01*
G01X-2530000Y-5040000D02*
Y-4913000D01*
X-2456000Y-5040000D01*
Y-4913000D01*
G01X-2328070Y-4923580D02*
X-2337720Y-4917230D01*
X-2348980Y-4913000D01*
X-2361850D01*
X-2376330Y-4919350D01*
X-2387590Y-4929930D01*
X-2395630Y-4942630D01*
X-2402070Y-4963800D01*
X-2403680Y-4982850D01*
X-2400460Y-5001900D01*
X-2395630Y-5014600D01*
X-2385980Y-5027300D01*
X-2374720Y-5035770D01*
X-2363460Y-5040000D01*
X-2352200D01*
X-2340940Y-5035770D01*
X-2331290Y-5029420D01*
X-2323240Y-5020950D01*
G01X-2201750Y-5040000D02*
X-2266090D01*
Y-4913000D01*
X-2201750D01*
G01X-2227490Y-4974380D02*
X-2266090D01*
G01X-2138160Y-5023070D02*
X-2125290Y-5033650D01*
X-2110810Y-5040000D01*
X-2097950D01*
X-2085080Y-5033650D01*
X-2075420Y-5023070D01*
X-2070600Y-5008250D01*
X-2073810Y-4993440D01*
X-2081860Y-4980730D01*
X-2096340Y-4972270D01*
X-2115640Y-4968030D01*
X-2126900Y-4959570D01*
X-2131730Y-4944750D01*
X-2128510Y-4929930D01*
X-2120470Y-4919350D01*
X-2109210Y-4913000D01*
X-2097950D01*
X-2086680Y-4917230D01*
X-2077030Y-4927820D01*
G01X-1845300Y-5040000D02*
X-1858170Y-5037880D01*
X-1869430Y-5029420D01*
X-1879080Y-5016720D01*
X-1885520Y-5001900D01*
X-1888740Y-4984970D01*
Y-4968030D01*
X-1885520Y-4951100D01*
X-1879080Y-4936280D01*
X-1869430Y-4923580D01*
X-1858170Y-4915120D01*
X-1845300Y-4913000D01*
X-1832430Y-4915120D01*
X-1821170Y-4923580D01*
X-1811520Y-4936280D01*
X-1805080Y-4951100D01*
X-1801860Y-4968030D01*
Y-4984970D01*
X-1805080Y-5001900D01*
X-1811520Y-5016720D01*
X-1821170Y-5029420D01*
X-1832430Y-5037880D01*
X-1845300Y-5040000D01*
G01X-1752760D02*
Y-4913000D01*
X-1678760Y-5040000D01*
Y-4913000D01*
G01X-1586220Y-5044230D02*
X-1589440Y-5042120D01*
Y-5037880D01*
X-1586220Y-5035770D01*
X-1583000Y-5037880D01*
Y-5042120D01*
X-1586220Y-5044230D01*
G01Y-4987090D02*
X-1589440Y-4984970D01*
Y-4980730D01*
X-1586220Y-4978620D01*
X-1583000Y-4980730D01*
Y-4984970D01*
X-1586220Y-4987090D01*
G01X-3305630Y-4595500D02*
Y-4468500D01*
X-3273460D01*
X-3260590Y-4474850D01*
X-3250940Y-4483320D01*
X-3242890Y-4496010D01*
X-3236460Y-4510840D01*
X-3234850Y-4532000D01*
X-3236460Y-4553170D01*
X-3242890Y-4567990D01*
X-3250940Y-4580690D01*
X-3260590Y-4589150D01*
X-3273460Y-4595500D01*
X-3305630D01*
G01X-3160000Y-4468500D02*
X-3121400D01*
G01X-3140700D02*
Y-4595500D01*
G01X-3160000D02*
X-3121400D01*
G01X-3052990D02*
Y-4468500D01*
X-3011160Y-4574330D01*
X-2969330Y-4468500D01*
Y-4595500D01*
G01X-2849450D02*
X-2913790D01*
Y-4468500D01*
X-2849450D01*
G01X-2875190Y-4529880D02*
X-2913790D01*
G01X-2789080Y-4595500D02*
Y-4468500D01*
X-2715080Y-4595500D01*
Y-4468500D01*
G01X-2656320Y-4578570D02*
X-2643450Y-4589150D01*
X-2628970Y-4595500D01*
X-2616110D01*
X-2603240Y-4589150D01*
X-2593580Y-4578570D01*
X-2588760Y-4563750D01*
X-2591970Y-4548940D01*
X-2600020Y-4536230D01*
X-2614500Y-4527770D01*
X-2633800Y-4523530D01*
X-2645060Y-4515070D01*
X-2649890Y-4500250D01*
X-2646670Y-4485430D01*
X-2638630Y-4474850D01*
X-2627370Y-4468500D01*
X-2616110D01*
X-2604840Y-4472730D01*
X-2595190Y-4483320D01*
G01X-2512300Y-4468500D02*
X-2473700D01*
G01X-2493000D02*
Y-4595500D01*
G01X-2512300D02*
X-2473700D01*
G01X-2363460D02*
X-2376330Y-4593380D01*
X-2387590Y-4584920D01*
X-2397240Y-4572220D01*
X-2403680Y-4557400D01*
X-2406900Y-4540470D01*
Y-4523530D01*
X-2403680Y-4506600D01*
X-2397240Y-4491780D01*
X-2387590Y-4479080D01*
X-2376330Y-4470620D01*
X-2363460Y-4468500D01*
X-2350590Y-4470620D01*
X-2339330Y-4479080D01*
X-2329680Y-4491780D01*
X-2323240Y-4506600D01*
X-2320020Y-4523530D01*
Y-4540470D01*
X-2323240Y-4557400D01*
X-2329680Y-4572220D01*
X-2339330Y-4584920D01*
X-2350590Y-4593380D01*
X-2363460Y-4595500D01*
G01X-2270920D02*
Y-4468500D01*
X-2196920Y-4595500D01*
Y-4468500D01*
G01X-2138160Y-4578570D02*
X-2125290Y-4589150D01*
X-2110810Y-4595500D01*
X-2097950D01*
X-2085080Y-4589150D01*
X-2075420Y-4578570D01*
X-2070600Y-4563750D01*
X-2073810Y-4548940D01*
X-2081860Y-4536230D01*
X-2096340Y-4527770D01*
X-2115640Y-4523530D01*
X-2126900Y-4515070D01*
X-2131730Y-4500250D01*
X-2128510Y-4485430D01*
X-2120470Y-4474850D01*
X-2109210Y-4468500D01*
X-2097950D01*
X-2086680Y-4472730D01*
X-2077030Y-4483320D01*
G01X-1885520Y-4595500D02*
X-1845300Y-4468500D01*
X-1805080Y-4595500D01*
G01X-1819560Y-4551050D02*
X-1871040D01*
G01X-1747930Y-4595500D02*
Y-4468500D01*
X-1707720D01*
X-1694850Y-4474850D01*
X-1686800Y-4483320D01*
X-1683590Y-4500250D01*
X-1686800Y-4517180D01*
X-1696460Y-4527770D01*
X-1707720Y-4534120D01*
X-1747930D01*
G01X-1707720D02*
X-1683590Y-4595500D01*
G01X-1554050D02*
X-1618390D01*
Y-4468500D01*
X-1554050D01*
G01X-1579790Y-4529880D02*
X-1618390D01*
G01X-1346440Y-4468500D02*
X-1307840D01*
G01X-1327140D02*
Y-4595500D01*
G01X-1346440D02*
X-1307840D01*
G01X-1234600D02*
Y-4468500D01*
X-1160600Y-4595500D01*
Y-4468500D01*
G01X-980350Y-4595500D02*
Y-4468500D01*
X-938520Y-4574330D01*
X-896690Y-4468500D01*
Y-4595500D01*
G01X-828280Y-4468500D02*
X-789680D01*
G01X-808980D02*
Y-4595500D01*
G01X-828280D02*
X-789680D01*
G01X-711610Y-4468500D02*
Y-4595500D01*
X-647270D01*
G01X-591730D02*
Y-4468500D01*
X-549900Y-4574330D01*
X-508070Y-4468500D01*
Y-4595500D01*
G01X-388190D02*
X-452530D01*
Y-4468500D01*
X-388190D01*
G01X-413930Y-4529880D02*
X-452530D01*
G01X-290820Y-4468500D02*
Y-4595500D01*
G01X-327820Y-4468500D02*
X-253820D01*
G01X-193450Y-4595500D02*
Y-4468500D01*
X-153240D01*
X-140370Y-4474850D01*
X-132320Y-4483320D01*
X-129110Y-4500250D01*
X-132320Y-4517180D01*
X-141980Y-4527770D01*
X-153240Y-4534120D01*
X-193450D01*
G01X-153240D02*
X-129110Y-4595500D01*
G01X430D02*
X-63910D01*
Y-4468500D01*
X430D01*
G01X-25310Y-4529880D02*
X-63910D01*
G01X64020Y-4578570D02*
X76890Y-4589150D01*
X91370Y-4595500D01*
X104230D01*
X117100Y-4589150D01*
X126760Y-4578570D01*
X131580Y-4563750D01*
X128370Y-4548940D01*
X120320Y-4536230D01*
X105840Y-4527770D01*
X86540Y-4523530D01*
X75280Y-4515070D01*
X70450Y-4500250D01*
X73670Y-4485430D01*
X81710Y-4474850D01*
X92970Y-4468500D01*
X104230D01*
X115500Y-4472730D01*
X125150Y-4483320D01*
G01X-3509000Y-4214500D02*
X5635000D01*
G01X-3305630Y-3770000D02*
Y-3861020D01*
X-3299200Y-3880070D01*
X-3286330Y-3892770D01*
X-3270240Y-3897000D01*
X-3254150Y-3892770D01*
X-3241280Y-3880070D01*
X-3234850Y-3861020D01*
Y-3770000D01*
G01X-3177700Y-3897000D02*
Y-3770000D01*
X-3103700Y-3897000D01*
Y-3770000D01*
G01X-3043330D02*
Y-3897000D01*
X-2978990D01*
G01X-2849450D02*
X-2913790D01*
Y-3770000D01*
X-2849450D01*
G01X-2875190Y-3831380D02*
X-2913790D01*
G01X-2785860Y-3880070D02*
X-2772990Y-3890650D01*
X-2758510Y-3897000D01*
X-2745650D01*
X-2732780Y-3890650D01*
X-2723120Y-3880070D01*
X-2718300Y-3865250D01*
X-2721510Y-3850440D01*
X-2729560Y-3837730D01*
X-2744040Y-3829270D01*
X-2763340Y-3825030D01*
X-2774600Y-3816570D01*
X-2779430Y-3801750D01*
X-2776210Y-3786930D01*
X-2768170Y-3776350D01*
X-2756910Y-3770000D01*
X-2745650D01*
X-2734380Y-3774230D01*
X-2724730Y-3784820D01*
G01X-2656320Y-3880070D02*
X-2643450Y-3890650D01*
X-2628970Y-3897000D01*
X-2616110D01*
X-2603240Y-3890650D01*
X-2593580Y-3880070D01*
X-2588760Y-3865250D01*
X-2591970Y-3850440D01*
X-2600020Y-3837730D01*
X-2614500Y-3829270D01*
X-2633800Y-3825030D01*
X-2645060Y-3816570D01*
X-2649890Y-3801750D01*
X-2646670Y-3786930D01*
X-2638630Y-3776350D01*
X-2627370Y-3770000D01*
X-2616110D01*
X-2604840Y-3774230D01*
X-2595190Y-3784820D01*
G01X-2363460Y-3897000D02*
X-2376330Y-3894880D01*
X-2387590Y-3886420D01*
X-2397240Y-3873720D01*
X-2403680Y-3858900D01*
X-2406900Y-3841970D01*
Y-3825030D01*
X-2403680Y-3808100D01*
X-2397240Y-3793280D01*
X-2387590Y-3780580D01*
X-2376330Y-3772120D01*
X-2363460Y-3770000D01*
X-2350590Y-3772120D01*
X-2339330Y-3780580D01*
X-2329680Y-3793280D01*
X-2323240Y-3808100D01*
X-2320020Y-3825030D01*
Y-3841970D01*
X-2323240Y-3858900D01*
X-2329680Y-3873720D01*
X-2339330Y-3886420D01*
X-2350590Y-3894880D01*
X-2363460Y-3897000D01*
G01X-2233920Y-3770000D02*
Y-3897000D01*
G01X-2270920Y-3770000D02*
X-2196920D01*
G01X-2138160Y-3897000D02*
Y-3770000D01*
G01X-2070600D02*
Y-3897000D01*
G01Y-3833500D02*
X-2138160D01*
G01X-1942670Y-3897000D02*
X-2007010D01*
Y-3770000D01*
X-1942670D01*
G01X-1968410Y-3831380D02*
X-2007010D01*
G01X-1877470Y-3897000D02*
Y-3770000D01*
X-1837260D01*
X-1824390Y-3776350D01*
X-1816340Y-3784820D01*
X-1813130Y-3801750D01*
X-1816340Y-3818680D01*
X-1826000Y-3829270D01*
X-1837260Y-3835620D01*
X-1877470D01*
G01X-1837260D02*
X-1813130Y-3897000D01*
G01X-1764020Y-3770000D02*
X-1741500Y-3897000D01*
X-1715760Y-3770000D01*
X-1690020Y-3897000D01*
X-1667500Y-3770000D01*
G01X-1605520D02*
X-1566920D01*
G01X-1586220D02*
Y-3897000D01*
G01X-1605520D02*
X-1566920D01*
G01X-1490460Y-3880070D02*
X-1477590Y-3890650D01*
X-1463110Y-3897000D01*
X-1450250D01*
X-1437380Y-3890650D01*
X-1427720Y-3880070D01*
X-1422900Y-3865250D01*
X-1426110Y-3850440D01*
X-1434160Y-3837730D01*
X-1448640Y-3829270D01*
X-1467940Y-3825030D01*
X-1479200Y-3816570D01*
X-1484030Y-3801750D01*
X-1480810Y-3786930D01*
X-1472770Y-3776350D01*
X-1461510Y-3770000D01*
X-1450250D01*
X-1438980Y-3774230D01*
X-1429330Y-3784820D01*
G01X-1294970Y-3897000D02*
X-1359310D01*
Y-3770000D01*
X-1294970D01*
G01X-1320710Y-3831380D02*
X-1359310D01*
G01X-1101840Y-3880070D02*
X-1088970Y-3890650D01*
X-1074490Y-3897000D01*
X-1061630D01*
X-1048760Y-3890650D01*
X-1039100Y-3880070D01*
X-1034280Y-3865250D01*
X-1037490Y-3850440D01*
X-1045540Y-3837730D01*
X-1060020Y-3829270D01*
X-1079320Y-3825030D01*
X-1090580Y-3816570D01*
X-1095410Y-3801750D01*
X-1092190Y-3786930D01*
X-1084150Y-3776350D01*
X-1072890Y-3770000D01*
X-1061630D01*
X-1050360Y-3774230D01*
X-1040710Y-3784820D01*
G01X-970690Y-3897000D02*
Y-3770000D01*
X-932090D01*
X-919220Y-3776350D01*
X-909560Y-3791170D01*
X-906350Y-3808100D01*
X-909560Y-3825030D01*
X-917610Y-3837730D01*
X-932090Y-3844090D01*
X-970690D01*
G01X-776810Y-3897000D02*
X-841150D01*
Y-3770000D01*
X-776810D01*
G01X-802550Y-3831380D02*
X-841150D01*
G01X-644050Y-3780580D02*
X-653700Y-3774230D01*
X-664960Y-3770000D01*
X-677830D01*
X-692310Y-3776350D01*
X-703570Y-3786930D01*
X-711610Y-3799630D01*
X-718050Y-3820800D01*
X-719660Y-3839850D01*
X-716440Y-3858900D01*
X-711610Y-3871600D01*
X-701960Y-3884300D01*
X-690700Y-3892770D01*
X-679440Y-3897000D01*
X-668180D01*
X-656920Y-3892770D01*
X-647270Y-3886420D01*
X-639220Y-3877950D01*
G01X-569200Y-3770000D02*
X-530600D01*
G01X-549900D02*
Y-3897000D01*
G01X-569200D02*
X-530600D01*
G01X-450930D02*
Y-3770000D01*
X-389790D01*
G01X-412320Y-3831380D02*
X-450930D01*
G01X-310120Y-3770000D02*
X-271520D01*
G01X-290820D02*
Y-3897000D01*
G01X-310120D02*
X-271520D01*
G01X-129110D02*
X-193450D01*
Y-3770000D01*
X-129110D01*
G01X-154850Y-3831380D02*
X-193450D01*
G01X-67130Y-3897000D02*
Y-3770000D01*
X-34960D01*
X-22090Y-3776350D01*
X-12440Y-3784820D01*
X-4390Y-3797510D01*
X2040Y-3812340D01*
X3650Y-3833500D01*
X2040Y-3854670D01*
X-4390Y-3869490D01*
X-12440Y-3882190D01*
X-22090Y-3890650D01*
X-34960Y-3897000D01*
X-67130D01*
G01X-300000Y-1090000D02*
X13600000D01*
Y4330000D01*
X13440000D01*
G02X13340000Y4430000I0J100000D01*
G01Y5410000D01*
X13230000D01*
G02X13130000Y5510000I0J100000D01*
G01Y6560000D01*
X30000D01*
Y3950000D01*
G02X-70000Y3850000I-100000J0D01*
G01X-300000D01*
Y-1090000D01*
G01X301000Y-3452500D02*
Y-8024500D01*
G01Y-7135500D02*
X5635000D01*
G01X301000Y-6500500D02*
X5635000D01*
G01X301000Y-5738500D02*
X5635000D01*
G01X301000Y-4976500D02*
X5635000D01*
G01X3539500Y16677000D02*
Y15915000D01*
G01Y18963000D02*
Y16677000D01*
G01Y17439000D02*
X16239500D01*
G01X3539500Y18201000D02*
X16239500D01*
G01X3603000Y-6437000D02*
Y-6500500D01*
G01Y-6437000D02*
Y-3452500D01*
G01X4555500Y16677000D02*
Y15915000D01*
G01Y16677000D02*
Y18201000D01*
G01X5635000Y-3452500D02*
Y-8024500D01*
G01X11985000Y-7262500D02*
X5635000D01*
G01X16303000Y-6246500D02*
X5635000D01*
G01X16303000Y-4722500D02*
X5635000D01*
G01X6905000Y-7262500D02*
Y-6246500D01*
G01X7921000Y-7262500D02*
Y-8024500D01*
G01X9953000Y-7262500D02*
Y-6246500D01*
G01X11413500Y16677000D02*
Y15915000D01*
G01Y16423000D02*
Y17439000D01*
G01D02*
Y18201000D01*
G01X11985000Y-8024500D02*
Y-7262500D01*
X16303000D01*
G01X13699500Y16677000D02*
Y15915000D01*
G01Y16677000D02*
Y17439000D01*
G01D02*
Y18201000D01*
G01X16239500Y18836000D02*
Y15788000D01*
G54D11*
X0Y0D03*
X250000Y5460000D03*
X7000000Y0D03*
X12905000Y5460000D03*
X13300000Y0D03*
G54D12*
X680000Y-240000D03*
Y-494000D03*
Y14000D03*
X864000Y3080000D03*
X1824000D03*
X2289000D03*
X3249000D03*
X3714000D03*
X4674000D03*
X5139000D03*
X6099000D03*
X6910000Y650000D03*
Y396000D03*
Y904000D03*
X7034000Y3080000D03*
X7994000D03*
X8459000D03*
X9419000D03*
X9884000D03*
X10844000D03*
X11309000D03*
X12269000D03*
X13430000Y2683000D03*
Y2429000D03*
Y2937000D03*
Y3191000D03*
Y3526000D03*
Y3780000D03*
Y4034000D03*
G54D13*
X650000Y920000D03*
X13140000Y4030000D03*
G54D14*
X632500Y2920000D03*
Y3420000D03*
Y3890000D03*
X1345000Y2460000D03*
X1825000D03*
X2057500Y3890000D03*
X2770000Y2460000D03*
X3250000D03*
X3482500Y2670000D03*
Y3670000D03*
Y4670000D03*
Y5670000D03*
X4195000Y2460000D03*
X4675000D03*
X4907500Y2920000D03*
Y3420000D03*
Y3890000D03*
X5620000Y2460000D03*
X6100000D03*
X6332500Y3890000D03*
X6797500Y2920000D03*
Y3420000D03*
Y3890000D03*
X7510000Y2460000D03*
X7990000D03*
X8222500Y3890000D03*
X8935000Y2460000D03*
X9415000D03*
X9647500Y2670000D03*
Y3670000D03*
Y4670000D03*
Y5670000D03*
X10360000Y2460000D03*
X10840000D03*
X11072500Y2920000D03*
Y3420000D03*
Y3890000D03*
X11785000Y2460000D03*
X12265000D03*
X12497500Y3890000D03*
G54D15*
X632500Y4170000D03*
Y5170000D03*
Y6170000D03*
X950000Y4670000D03*
X1200000Y6170000D03*
X1490000Y4670000D03*
X2057500Y2670000D03*
Y3670000D03*
Y4670000D03*
Y5670000D03*
X2375000Y4670000D03*
X2625000Y6170000D03*
X2915000Y4670000D03*
X3800000D03*
X4050000Y6170000D03*
X4340000Y4670000D03*
X4907500Y4170000D03*
Y5170000D03*
Y6170000D03*
X5225000Y4670000D03*
X5475000Y6170000D03*
X5765000Y4670000D03*
X6332500Y2670000D03*
Y3670000D03*
Y4670000D03*
Y5670000D03*
X6797500Y4170000D03*
Y5170000D03*
Y6170000D03*
X7115000Y4670000D03*
X7365000Y6170000D03*
X7655000Y4670000D03*
X8222500Y2670000D03*
Y3670000D03*
Y4670000D03*
X8540000D03*
X8222500Y5670000D03*
X8790000Y6170000D03*
X9080000Y4670000D03*
X9965000D03*
X10505000D03*
X10215000Y6170000D03*
X11072500Y4170000D03*
X11390000Y4670000D03*
X11072500Y5170000D03*
Y6170000D03*
X11930000Y4670000D03*
X11640000Y6170000D03*
X12497500Y2670000D03*
Y3670000D03*
Y4670000D03*
Y5670000D03*
G54D16*
X7430000Y-200000D03*
X12868000Y105000D03*
G54D17*
G01X6994000Y-5753330D02*
Y-5593340D01*
G01Y-5617330D02*
X7004000Y-5604000D01*
X7014000Y-5596000D01*
X7030000Y-5593340D01*
X7044000Y-5596000D01*
X7058000Y-5609330D01*
X7064000Y-5628000D01*
X7066000Y-5646670D01*
X7064000Y-5665340D01*
X7058000Y-5684000D01*
X7046000Y-5694670D01*
X7030000Y-5700000D01*
X7016000Y-5697330D01*
X7002000Y-5689340D01*
X6994000Y-5678670D01*
G01X7207000Y-5606670D02*
X7193000Y-5596000D01*
X7181000Y-5593340D01*
X7165000Y-5598670D01*
X7153000Y-5609330D01*
X7145000Y-5628000D01*
X7143000Y-5646670D01*
X7145000Y-5665340D01*
X7153000Y-5681340D01*
X7165000Y-5694670D01*
X7181000Y-5700000D01*
X7195000Y-5694670D01*
X7207000Y-5684000D01*
G01X7320000Y-5540000D02*
X7304000Y-5545330D01*
X7292000Y-5558670D01*
X7284000Y-5574660D01*
X7278000Y-5596000D01*
X7276000Y-5620000D01*
X7278000Y-5644000D01*
X7284000Y-5665340D01*
X7292000Y-5681340D01*
X7304000Y-5694670D01*
X7320000Y-5700000D01*
X7336000Y-5694670D01*
X7348000Y-5681340D01*
X7356000Y-5665340D01*
X7362000Y-5644000D01*
X7364000Y-5620000D01*
X7362000Y-5596000D01*
X7356000Y-5574660D01*
X7348000Y-5558670D01*
X7336000Y-5545330D01*
X7320000Y-5540000D01*
G01X7427000Y-5633340D02*
X7441000Y-5614670D01*
X7453000Y-5604000D01*
X7469000Y-5598670D01*
X7483000Y-5604000D01*
X7493000Y-5614670D01*
X7501000Y-5630670D01*
X7503000Y-5649330D01*
X7501000Y-5665340D01*
X7493000Y-5681340D01*
X7481000Y-5694670D01*
X7467000Y-5700000D01*
X7451000Y-5694670D01*
X7437000Y-5678670D01*
X7429000Y-5654670D01*
X7427000Y-5628000D01*
X7431000Y-5593340D01*
X7437000Y-5574660D01*
X7447000Y-5556000D01*
X7461000Y-5542670D01*
X7475000Y-5540000D01*
X7489000Y-5545330D01*
X7499000Y-5558670D01*
G01X7566000Y-5676010D02*
X7578000Y-5689340D01*
X7592000Y-5697330D01*
X7610000Y-5700000D01*
X7628000Y-5694670D01*
X7642000Y-5684000D01*
X7652000Y-5665340D01*
X7654000Y-5644000D01*
X7650000Y-5622670D01*
X7640000Y-5609330D01*
X7626000Y-5598670D01*
X7612000Y-5596000D01*
X7598000Y-5598670D01*
X7580000Y-5609330D01*
X7586000Y-5540000D01*
X7640000D01*
G01X7719000Y-5700000D02*
Y-5540000D01*
G01Y-5620000D02*
X7729000Y-5604000D01*
X7741000Y-5596000D01*
X7753000Y-5593340D01*
X7771000Y-5598670D01*
X7783000Y-5609330D01*
X7791000Y-5628000D01*
Y-5649330D01*
X7787000Y-5670670D01*
X7779000Y-5686670D01*
X7765000Y-5697330D01*
X7753000Y-5700000D01*
X7741000Y-5697330D01*
X7729000Y-5689340D01*
X7719000Y-5676010D01*
G01X6990000Y-5300000D02*
Y-5140000D01*
X7038000D01*
X7054000Y-5148000D01*
X7066000Y-5166670D01*
X7070000Y-5188000D01*
X7066000Y-5209330D01*
X7056000Y-5225330D01*
X7038000Y-5233340D01*
X6990000D01*
G01X7211000Y-5300000D02*
Y-5193340D01*
G01Y-5212000D02*
X7203000Y-5201330D01*
X7191000Y-5196000D01*
X7177000Y-5193340D01*
X7163000Y-5198670D01*
X7151000Y-5209330D01*
X7143000Y-5225330D01*
X7139000Y-5246670D01*
X7143000Y-5268000D01*
X7151000Y-5284000D01*
X7163000Y-5294670D01*
X7177000Y-5300000D01*
X7191000Y-5297330D01*
X7203000Y-5289340D01*
X7211000Y-5278670D01*
G01X7320000Y-5300000D02*
X7308000Y-5297330D01*
X7296000Y-5286670D01*
X7288000Y-5268000D01*
X7284000Y-5246670D01*
X7288000Y-5225330D01*
X7296000Y-5206670D01*
X7308000Y-5196000D01*
X7320000Y-5193340D01*
X7332000Y-5196000D01*
X7344000Y-5206670D01*
X7352000Y-5225330D01*
X7354000Y-5246670D01*
X7352000Y-5268000D01*
X7344000Y-5286670D01*
X7332000Y-5297330D01*
X7320000Y-5300000D01*
G01X7465000D02*
Y-5140000D01*
G01X7610000Y-5300000D02*
X7598000Y-5297330D01*
X7586000Y-5286670D01*
X7578000Y-5268000D01*
X7574000Y-5246670D01*
X7578000Y-5225330D01*
X7586000Y-5206670D01*
X7598000Y-5196000D01*
X7610000Y-5193340D01*
X7622000Y-5196000D01*
X7634000Y-5206670D01*
X7642000Y-5225330D01*
X7644000Y-5246670D01*
X7642000Y-5268000D01*
X7634000Y-5286670D01*
X7622000Y-5297330D01*
X7610000Y-5300000D01*
G01X7916000Y-5214670D02*
X7924000Y-5206670D01*
X7930000Y-5193340D01*
X7934000Y-5174660D01*
X7930000Y-5158670D01*
X7922000Y-5148000D01*
X7908000Y-5140000D01*
X7854000D01*
Y-5300000D01*
X7920000D01*
X7934000Y-5289340D01*
X7942000Y-5273330D01*
X7946000Y-5254670D01*
X7942000Y-5236000D01*
X7930000Y-5220000D01*
X7916000Y-5214670D01*
X7854000D01*
G01X8081000Y-5300000D02*
Y-5193340D01*
G01Y-5212000D02*
X8073000Y-5201330D01*
X8061000Y-5196000D01*
X8047000Y-5193340D01*
X8033000Y-5198670D01*
X8021000Y-5209330D01*
X8013000Y-5225330D01*
X8009000Y-5246670D01*
X8013000Y-5268000D01*
X8021000Y-5284000D01*
X8033000Y-5294670D01*
X8047000Y-5300000D01*
X8061000Y-5297330D01*
X8073000Y-5289340D01*
X8081000Y-5278670D01*
G01X8160000Y-5228000D02*
X8224000D01*
X8218000Y-5209330D01*
X8208000Y-5198670D01*
X8194000Y-5193340D01*
X8180000Y-5196000D01*
X8168000Y-5204000D01*
X8160000Y-5222670D01*
X8156000Y-5238670D01*
Y-5254670D01*
X8160000Y-5270670D01*
X8170000Y-5286670D01*
X8182000Y-5297330D01*
X8196000Y-5300000D01*
X8210000Y-5294670D01*
X8224000Y-5278670D01*
G01X8305000Y-5281340D02*
X8315000Y-5292000D01*
X8329000Y-5300000D01*
X8341000D01*
X8353000Y-5294670D01*
X8361000Y-5286670D01*
X8365000Y-5276010D01*
X8363000Y-5260000D01*
X8355000Y-5252000D01*
X8319000Y-5236000D01*
X8311000Y-5217330D01*
X8315000Y-5204000D01*
X8323000Y-5196000D01*
X8335000Y-5193340D01*
X8347000Y-5196000D01*
X8359000Y-5204000D01*
G01X8450000Y-5281340D02*
X8460000Y-5292000D01*
X8474000Y-5300000D01*
X8486000D01*
X8498000Y-5294670D01*
X8506000Y-5286670D01*
X8510000Y-5276010D01*
X8508000Y-5260000D01*
X8500000Y-5252000D01*
X8464000Y-5236000D01*
X8456000Y-5217330D01*
X8460000Y-5204000D01*
X8468000Y-5196000D01*
X8480000Y-5193340D01*
X8492000Y-5196000D01*
X8504000Y-5204000D01*
G01X8625000Y-5300000D02*
X8613000Y-5297330D01*
X8601000Y-5286670D01*
X8593000Y-5268000D01*
X8589000Y-5246670D01*
X8593000Y-5225330D01*
X8601000Y-5206670D01*
X8613000Y-5196000D01*
X8625000Y-5193340D01*
X8637000Y-5196000D01*
X8649000Y-5206670D01*
X8657000Y-5225330D01*
X8659000Y-5246670D01*
X8657000Y-5268000D01*
X8649000Y-5286670D01*
X8637000Y-5297330D01*
X8625000Y-5300000D01*
G01X8766000Y-5329330D02*
X8774000Y-5294670D01*
G01X9008000Y-5300000D02*
Y-5140000D01*
X9060000Y-5273330D01*
X9112000Y-5140000D01*
Y-5300000D01*
G01X9241000D02*
Y-5193340D01*
G01Y-5212000D02*
X9233000Y-5201330D01*
X9221000Y-5196000D01*
X9207000Y-5193340D01*
X9193000Y-5198670D01*
X9181000Y-5209330D01*
X9173000Y-5225330D01*
X9169000Y-5246670D01*
X9173000Y-5268000D01*
X9181000Y-5284000D01*
X9193000Y-5294670D01*
X9207000Y-5300000D01*
X9221000Y-5297330D01*
X9233000Y-5289340D01*
X9241000Y-5278670D01*
G01X9308000Y-5348000D02*
X9320000Y-5353330D01*
X9336000Y-5348000D01*
X9346000Y-5337340D01*
X9354000Y-5324000D01*
X9366000Y-5281340D01*
X9392000Y-5193340D01*
G01X9328000D02*
X9366000Y-5281340D01*
G01X9602000Y-5166670D02*
X9614000Y-5150670D01*
X9628000Y-5142670D01*
X9644000Y-5140000D01*
X9664000Y-5145330D01*
X9678000Y-5158670D01*
X9682000Y-5174660D01*
X9680000Y-5190670D01*
X9672000Y-5204000D01*
X9632000Y-5230670D01*
X9614000Y-5249330D01*
X9602000Y-5276010D01*
X9598000Y-5300000D01*
X9682000D01*
G01X9785000Y-5140000D02*
X9769000Y-5145330D01*
X9757000Y-5158670D01*
X9749000Y-5174660D01*
X9743000Y-5196000D01*
X9741000Y-5220000D01*
X9743000Y-5244000D01*
X9749000Y-5265340D01*
X9757000Y-5281340D01*
X9769000Y-5294670D01*
X9785000Y-5300000D01*
X9801000Y-5294670D01*
X9813000Y-5281340D01*
X9821000Y-5265340D01*
X9827000Y-5244000D01*
X9829000Y-5220000D01*
X9827000Y-5196000D01*
X9821000Y-5174660D01*
X9813000Y-5158670D01*
X9801000Y-5145330D01*
X9785000Y-5140000D01*
G01X9892000Y-5166670D02*
X9904000Y-5150670D01*
X9918000Y-5142670D01*
X9934000Y-5140000D01*
X9954000Y-5145330D01*
X9968000Y-5158670D01*
X9972000Y-5174660D01*
X9970000Y-5190670D01*
X9962000Y-5204000D01*
X9922000Y-5230670D01*
X9904000Y-5249330D01*
X9892000Y-5276010D01*
X9888000Y-5300000D01*
X9972000D01*
G01X10075000Y-5140000D02*
X10059000Y-5145330D01*
X10047000Y-5158670D01*
X10039000Y-5174660D01*
X10033000Y-5196000D01*
X10031000Y-5220000D01*
X10033000Y-5244000D01*
X10039000Y-5265340D01*
X10047000Y-5281340D01*
X10059000Y-5294670D01*
X10075000Y-5300000D01*
X10091000Y-5294670D01*
X10103000Y-5281340D01*
X10111000Y-5265340D01*
X10117000Y-5244000D01*
X10119000Y-5220000D01*
X10117000Y-5196000D01*
X10111000Y-5174660D01*
X10103000Y-5158670D01*
X10091000Y-5145330D01*
X10075000Y-5140000D01*
G54D18*
G01X1398410Y-3875670D02*
X1414320Y-3889000D01*
X1432230Y-3897000D01*
X1448150D01*
X1464070Y-3889000D01*
X1476010Y-3875670D01*
X1481970Y-3856990D01*
X1477990Y-3838330D01*
X1468040Y-3822330D01*
X1450140Y-3811650D01*
X1426260Y-3806320D01*
X1412340Y-3795660D01*
X1406360Y-3776990D01*
X1410350Y-3758320D01*
X1420290Y-3744980D01*
X1434220Y-3736980D01*
X1448150D01*
X1462080Y-3742310D01*
X1474020Y-3755650D01*
G01X1576330Y-3736980D02*
X1624080D01*
G01X1600210D02*
Y-3897000D01*
G01X1576330D02*
X1624080D01*
G01X1772170Y-3816990D02*
X1811960D01*
Y-3865000D01*
X1800020Y-3881000D01*
X1786100Y-3891670D01*
X1766200Y-3897000D01*
X1746300Y-3891670D01*
X1732380Y-3881000D01*
X1720440Y-3865000D01*
X1712480Y-3846330D01*
X1708500Y-3824990D01*
Y-3806320D01*
X1712480Y-3790320D01*
X1720440Y-3771650D01*
X1732380Y-3755650D01*
X1744310Y-3744980D01*
X1760230Y-3736980D01*
X1774160D01*
X1790070Y-3742310D01*
X1802010Y-3752980D01*
G01X1874490Y-3897000D02*
Y-3736980D01*
X1966010Y-3897000D01*
Y-3736980D01*
G01X2030530Y-3897000D02*
X2080270Y-3736980D01*
X2130010Y-3897000D01*
G01X2112100Y-3841000D02*
X2048430D01*
G01X2240290Y-3736980D02*
Y-3897000D01*
G01X2194530Y-3736980D02*
X2286050D01*
G01X2356540D02*
Y-3851660D01*
X2364490Y-3875670D01*
X2380410Y-3891670D01*
X2400310Y-3897000D01*
X2420210Y-3891670D01*
X2436130Y-3875670D01*
X2444080Y-3851660D01*
Y-3736980D01*
G01X2520540Y-3897000D02*
Y-3736980D01*
X2570280D01*
X2586200Y-3744980D01*
X2596150Y-3755650D01*
X2600120Y-3776990D01*
X2596150Y-3798320D01*
X2584210Y-3811650D01*
X2570280Y-3819660D01*
X2520540D01*
G01X2570280D02*
X2600120Y-3897000D01*
G01X2760140D02*
X2680560D01*
Y-3736980D01*
X2760140D01*
G01X2728310Y-3814320D02*
X2680560D01*
G01X2838590Y-3875670D02*
X2854500Y-3889000D01*
X2872410Y-3897000D01*
X2888330D01*
X2904250Y-3889000D01*
X2916190Y-3875670D01*
X2922150Y-3856990D01*
X2918170Y-3838330D01*
X2908220Y-3822330D01*
X2890320Y-3811650D01*
X2866440Y-3806320D01*
X2852520Y-3795660D01*
X2846540Y-3776990D01*
X2850530Y-3758320D01*
X2860470Y-3744980D01*
X2874400Y-3736980D01*
X2888330D01*
X2902260Y-3742310D01*
X2914200Y-3755650D01*
G01X4253920Y-3897000D02*
Y-3736980D01*
X4293710D01*
X4309630Y-3744980D01*
X4321570Y-3755650D01*
X4331520Y-3771650D01*
X4339470Y-3790320D01*
X4341460Y-3816990D01*
X4339470Y-3843660D01*
X4331520Y-3862330D01*
X4321570Y-3878330D01*
X4309630Y-3889000D01*
X4293710Y-3897000D01*
X4253920D01*
G01X4407970D02*
X4457710Y-3736980D01*
X4507450Y-3897000D01*
G01X4489540Y-3841000D02*
X4425870D01*
G01X4617730Y-3736980D02*
Y-3897000D01*
G01X4571970Y-3736980D02*
X4663490D01*
G01X4817540Y-3897000D02*
X4737960D01*
Y-3736980D01*
X4817540D01*
G01X4785710Y-3814320D02*
X4737960D01*
G54D19*
G01X3698250Y17693000D02*
Y17947000D01*
X3777620D01*
X3803020Y17934290D01*
X3818900Y17917370D01*
X3825250Y17883500D01*
X3818900Y17849630D01*
X3799850Y17828470D01*
X3777620Y17815760D01*
X3698250D01*
G01X3777620D02*
X3825250Y17693000D01*
G01X4079250D02*
X3952250D01*
Y17947000D01*
X4079250D01*
G01X4028450Y17824240D02*
X3952250D01*
G01X4190370Y17947000D02*
X4269750Y17693000D01*
X4349130Y17947000D01*
G01X5790570Y-7609640D02*
X5815980Y-7630800D01*
X5844550Y-7643500D01*
X5869950D01*
X5895350Y-7630800D01*
X5914400Y-7609640D01*
X5923930Y-7580000D01*
X5917580Y-7550370D01*
X5901700Y-7524970D01*
X5873120Y-7508030D01*
X5835030Y-7499570D01*
X5812800Y-7482640D01*
X5803270Y-7453000D01*
X5809630Y-7423370D01*
X5825500Y-7402210D01*
X5847720Y-7389500D01*
X5869950D01*
X5892180Y-7397960D01*
X5911230Y-7419130D01*
G01X6181100Y-7410670D02*
X6162050Y-7397960D01*
X6139830Y-7389500D01*
X6114430D01*
X6085850Y-7402210D01*
X6063630Y-7423370D01*
X6047750Y-7448770D01*
X6035050Y-7491100D01*
X6031870Y-7529200D01*
X6038230Y-7567300D01*
X6047750Y-7592700D01*
X6066800Y-7618110D01*
X6089030Y-7635040D01*
X6111250Y-7643500D01*
X6133470D01*
X6155700Y-7635040D01*
X6174750Y-7622340D01*
X6190630Y-7605410D01*
G01X6285870Y-7643500D02*
X6365250Y-7389500D01*
X6444630Y-7643500D01*
G01X6416050Y-7554600D02*
X6314450D01*
G01X6555750Y-7389500D02*
Y-7643500D01*
X6682750D01*
G01X6936750D02*
X6809750D01*
Y-7389500D01*
X6936750D01*
G01X6885950Y-7512260D02*
X6809750D01*
G01X5790570Y-6593640D02*
X5815980Y-6614800D01*
X5844550Y-6627500D01*
X5869950D01*
X5895350Y-6614800D01*
X5914400Y-6593640D01*
X5923930Y-6564000D01*
X5917580Y-6534370D01*
X5901700Y-6508970D01*
X5873120Y-6492030D01*
X5835030Y-6483570D01*
X5812800Y-6466640D01*
X5803270Y-6437000D01*
X5809630Y-6407370D01*
X5825500Y-6386210D01*
X5847720Y-6373500D01*
X5869950D01*
X5892180Y-6381960D01*
X5911230Y-6403130D01*
G01X6073150Y-6373500D02*
X6149340D01*
G01X6111250D02*
Y-6627500D01*
G01X6073150D02*
X6149340D01*
G01X6304920Y-6373500D02*
X6425580D01*
X6304920Y-6627500D01*
X6425580D01*
G01X6682750D02*
X6555750D01*
Y-6373500D01*
X6682750D01*
G01X6631950Y-6496260D02*
X6555750D01*
G01X6358900Y17693000D02*
Y17947000D01*
X6422400D01*
X6447800Y17934290D01*
X6466850Y17917370D01*
X6482730Y17891970D01*
X6495430Y17862330D01*
X6498600Y17820000D01*
X6495430Y17777660D01*
X6482730Y17748030D01*
X6466850Y17722630D01*
X6447800Y17705700D01*
X6422400Y17693000D01*
X6358900D01*
G01X6746250D02*
X6619250D01*
Y17947000D01*
X6746250D01*
G01X6695450Y17824240D02*
X6619250D01*
G01X6870070Y17726860D02*
X6895480Y17705700D01*
X6924050Y17693000D01*
X6949450D01*
X6974850Y17705700D01*
X6993900Y17726860D01*
X7003430Y17756500D01*
X6997080Y17786130D01*
X6981200Y17811530D01*
X6952620Y17828470D01*
X6914530Y17836930D01*
X6892300Y17853860D01*
X6882770Y17883500D01*
X6889130Y17913130D01*
X6905000Y17934290D01*
X6927220Y17947000D01*
X6949450D01*
X6971680Y17938540D01*
X6990730Y17917370D01*
G01X7260600Y17925830D02*
X7241550Y17938540D01*
X7219330Y17947000D01*
X7193930D01*
X7165350Y17934290D01*
X7143130Y17913130D01*
X7127250Y17887730D01*
X7114550Y17845400D01*
X7111370Y17807300D01*
X7117730Y17769200D01*
X7127250Y17743800D01*
X7146300Y17718390D01*
X7168530Y17701460D01*
X7190750Y17693000D01*
X7212970D01*
X7235200Y17701460D01*
X7254250Y17714160D01*
X7270130Y17731090D01*
G01X7381250Y17693000D02*
Y17947000D01*
X7460620D01*
X7486020Y17934290D01*
X7501900Y17917370D01*
X7508250Y17883500D01*
X7501900Y17849630D01*
X7482850Y17828470D01*
X7460620Y17815760D01*
X7381250D01*
G01X7460620D02*
X7508250Y17693000D01*
G01X7660650Y17947000D02*
X7736840D01*
G01X7698750D02*
Y17693000D01*
G01X7660650D02*
X7736840D01*
G01X7889250D02*
Y17947000D01*
X7965450D01*
X7990850Y17934290D01*
X8009900Y17904670D01*
X8016250Y17870800D01*
X8009900Y17836930D01*
X7994020Y17811530D01*
X7965450Y17798830D01*
X7889250D01*
G01X8206750Y17947000D02*
Y17693000D01*
G01X8133730Y17947000D02*
X8279770D01*
G01X8422650D02*
X8498840D01*
G01X8460750D02*
Y17693000D01*
G01X8422650D02*
X8498840D01*
G01X8714750D02*
X8689350Y17697230D01*
X8667130Y17714160D01*
X8648070Y17739560D01*
X8635370Y17769200D01*
X8629020Y17803070D01*
Y17836930D01*
X8635370Y17870800D01*
X8648070Y17900440D01*
X8667130Y17925830D01*
X8689350Y17942770D01*
X8714750Y17947000D01*
X8740150Y17942770D01*
X8762370Y17925830D01*
X8781430Y17900440D01*
X8794130Y17870800D01*
X8800480Y17836930D01*
Y17803070D01*
X8794130Y17769200D01*
X8781430Y17739560D01*
X8762370Y17714160D01*
X8740150Y17697230D01*
X8714750Y17693000D01*
G01X8895730D02*
Y17947000D01*
X9041770Y17693000D01*
Y17947000D01*
G01X7193920Y-6627500D02*
Y-6373500D01*
X7314580D01*
G01X7270120Y-6496260D02*
X7193920D01*
G01X7441570Y-6593640D02*
X7466980Y-6614800D01*
X7495550Y-6627500D01*
X7520950D01*
X7546350Y-6614800D01*
X7565400Y-6593640D01*
X7574930Y-6564000D01*
X7568580Y-6534370D01*
X7552700Y-6508970D01*
X7524120Y-6492030D01*
X7486030Y-6483570D01*
X7463800Y-6466640D01*
X7454270Y-6437000D01*
X7460630Y-6407370D01*
X7476500Y-6386210D01*
X7498720Y-6373500D01*
X7520950D01*
X7543180Y-6381960D01*
X7562230Y-6403130D01*
G01X7832100Y-6394670D02*
X7813050Y-6381960D01*
X7790830Y-6373500D01*
X7765430D01*
X7736850Y-6386210D01*
X7714630Y-6407370D01*
X7698750Y-6432770D01*
X7686050Y-6475100D01*
X7682870Y-6513200D01*
X7689230Y-6551300D01*
X7698750Y-6576700D01*
X7717800Y-6602110D01*
X7740030Y-6619040D01*
X7762250Y-6627500D01*
X7784470D01*
X7806700Y-6619040D01*
X7825750Y-6606340D01*
X7841630Y-6589410D01*
G01X7933700Y-6627500D02*
Y-6373500D01*
X8016250Y-6585170D01*
X8098800Y-6373500D01*
Y-6627500D01*
G01X8451230D02*
Y-6373500D01*
X8597270Y-6627500D01*
Y-6373500D01*
G01X8778250Y-6627500D02*
X8752850Y-6623270D01*
X8730630Y-6606340D01*
X8711570Y-6580940D01*
X8698870Y-6551300D01*
X8692520Y-6517430D01*
Y-6483570D01*
X8698870Y-6449700D01*
X8711570Y-6420060D01*
X8730630Y-6394670D01*
X8752850Y-6377730D01*
X8778250Y-6373500D01*
X8803650Y-6377730D01*
X8825870Y-6394670D01*
X8844930Y-6420060D01*
X8857630Y-6449700D01*
X8863980Y-6483570D01*
Y-6517430D01*
X8857630Y-6551300D01*
X8844930Y-6580940D01*
X8825870Y-6606340D01*
X8803650Y-6623270D01*
X8778250Y-6627500D01*
G01X7438400Y-3960500D02*
Y-4142530D01*
X7451100Y-4180640D01*
X7476500Y-4206040D01*
X7508250Y-4214500D01*
X7540000Y-4206040D01*
X7565400Y-4180640D01*
X7578100Y-4142530D01*
Y-3960500D01*
G01X7708270Y-4214500D02*
Y-4045170D01*
G01Y-4087500D02*
X7720980Y-4066330D01*
X7740030Y-4049400D01*
X7765430Y-4045170D01*
X7787650Y-4049400D01*
X7806700Y-4066330D01*
X7816230Y-4095970D01*
Y-4214500D01*
G01X8016250Y-4045170D02*
Y-4214500D01*
G01Y-3977440D02*
X8009900Y-3973210D01*
Y-3964730D01*
X8016250Y-3960500D01*
X8022600Y-3964730D01*
Y-3973210D01*
X8016250Y-3977440D01*
G01X8213100Y-4045170D02*
X8270250Y-4214500D01*
X8327400Y-4045170D01*
G01X8476630Y-4100200D02*
X8578230D01*
X8568700Y-4070570D01*
X8552830Y-4053640D01*
X8530600Y-4045170D01*
X8508380Y-4049400D01*
X8489320Y-4062100D01*
X8476630Y-4091740D01*
X8470270Y-4117140D01*
Y-4142530D01*
X8476630Y-4167940D01*
X8492500Y-4193340D01*
X8511550Y-4210270D01*
X8533780Y-4214500D01*
X8556000Y-4206040D01*
X8578230Y-4180640D01*
G01X8733800Y-4214500D02*
Y-4045170D01*
G01Y-4079030D02*
X8749670Y-4062100D01*
X8765550Y-4049400D01*
X8787780Y-4045170D01*
X8803650Y-4049400D01*
X8822700Y-4062100D01*
G01X8984630Y-4184870D02*
X9000500Y-4201800D01*
X9022720Y-4214500D01*
X9041780D01*
X9060830Y-4206040D01*
X9073520Y-4193340D01*
X9079870Y-4176410D01*
X9076700Y-4151000D01*
X9064000Y-4138300D01*
X9006850Y-4112910D01*
X8994150Y-4083260D01*
X9000500Y-4062100D01*
X9013200Y-4049400D01*
X9032250Y-4045170D01*
X9051300Y-4049400D01*
X9070350Y-4062100D01*
G01X9286250Y-4045170D02*
Y-4214500D01*
G01Y-3977440D02*
X9279900Y-3973210D01*
Y-3964730D01*
X9286250Y-3960500D01*
X9292600Y-3964730D01*
Y-3973210D01*
X9286250Y-3977440D01*
G01X9540250Y-3960500D02*
Y-4214500D01*
G01X9495800Y-4045170D02*
X9584700D01*
G01X9727570Y-4290700D02*
X9746630Y-4299160D01*
X9772030Y-4290700D01*
X9787900Y-4273770D01*
X9800600Y-4252600D01*
X9819650Y-4184870D01*
X9860930Y-4045170D01*
G01X9759320D02*
X9819650Y-4184870D01*
G01X10302250Y-4214500D02*
X10283200Y-4210270D01*
X10264150Y-4193340D01*
X10251450Y-4163700D01*
X10245100Y-4129840D01*
X10251450Y-4095970D01*
X10264150Y-4066330D01*
X10283200Y-4049400D01*
X10302250Y-4045170D01*
X10321300Y-4049400D01*
X10340350Y-4066330D01*
X10353050Y-4095970D01*
X10356230Y-4129840D01*
X10353050Y-4163700D01*
X10340350Y-4193340D01*
X10321300Y-4210270D01*
X10302250Y-4214500D01*
G01X10537200D02*
Y-3998600D01*
X10543550Y-3977440D01*
X10556250Y-3964730D01*
X10575300Y-3960500D01*
X10594350Y-3968960D01*
X10603870Y-3990130D01*
G01X10565780Y-4062100D02*
X10502270D01*
G01X11089650Y-4079030D02*
X11102350Y-4066330D01*
X11111870Y-4045170D01*
X11118230Y-4015530D01*
X11111870Y-3990130D01*
X11099180Y-3973210D01*
X11076950Y-3960500D01*
X10991230D01*
Y-4214500D01*
X11096000D01*
X11118230Y-4197570D01*
X11130930Y-4172170D01*
X11137270Y-4142530D01*
X11130930Y-4112910D01*
X11111870Y-4087500D01*
X11089650Y-4079030D01*
X10991230D01*
G01X11273800Y-4214500D02*
Y-4045170D01*
G01Y-4079030D02*
X11289670Y-4062100D01*
X11305550Y-4049400D01*
X11327780Y-4045170D01*
X11343650Y-4049400D01*
X11362700Y-4062100D01*
G01X11572250Y-4045170D02*
Y-4214500D01*
G01Y-3977440D02*
X11565900Y-3973210D01*
Y-3964730D01*
X11572250Y-3960500D01*
X11578600Y-3964730D01*
Y-3973210D01*
X11572250Y-3977440D01*
G01X11778630Y-4184870D02*
X11794500Y-4201800D01*
X11816720Y-4214500D01*
X11835780D01*
X11854830Y-4206040D01*
X11867520Y-4193340D01*
X11873870Y-4176410D01*
X11870700Y-4151000D01*
X11858000Y-4138300D01*
X11800850Y-4112910D01*
X11788150Y-4083260D01*
X11794500Y-4062100D01*
X11807200Y-4049400D01*
X11826250Y-4045170D01*
X11845300Y-4049400D01*
X11864350Y-4062100D01*
G01X12080250Y-3960500D02*
Y-4214500D01*
G01X12035800Y-4045170D02*
X12124700D01*
G01X12334250Y-4214500D02*
X12315200Y-4210270D01*
X12296150Y-4193340D01*
X12283450Y-4163700D01*
X12277100Y-4129840D01*
X12283450Y-4095970D01*
X12296150Y-4066330D01*
X12315200Y-4049400D01*
X12334250Y-4045170D01*
X12353300Y-4049400D01*
X12372350Y-4066330D01*
X12385050Y-4095970D01*
X12388230Y-4129840D01*
X12385050Y-4163700D01*
X12372350Y-4193340D01*
X12353300Y-4210270D01*
X12334250Y-4214500D01*
G01X12588250D02*
Y-3960500D01*
G01X13029570Y-4214500D02*
Y-3960500D01*
G01X13162930D02*
Y-4214500D01*
G01Y-4087500D02*
X13029570D01*
G01X13413750Y-4214500D02*
X13286750D01*
Y-3960500D01*
X13413750D01*
G01X13362950Y-4083260D02*
X13286750D01*
G01X13540750Y-4214500D02*
Y-3960500D01*
X13616950D01*
X13642350Y-3973210D01*
X13661400Y-4002830D01*
X13667750Y-4036700D01*
X13661400Y-4070570D01*
X13645520Y-4095970D01*
X13616950Y-4108670D01*
X13540750D01*
G01X9032250Y18455000D02*
Y18709000D01*
X9111620D01*
X9137020Y18696290D01*
X9152900Y18679370D01*
X9159250Y18645500D01*
X9152900Y18611630D01*
X9133850Y18590470D01*
X9111620Y18577760D01*
X9032250D01*
G01X9111620D02*
X9159250Y18455000D01*
G01X9413250D02*
X9286250D01*
Y18709000D01*
X9413250D01*
G01X9362450Y18586240D02*
X9286250D01*
G01X9524370Y18709000D02*
X9603750Y18455000D01*
X9683130Y18709000D01*
G01X9819650D02*
X9895840D01*
G01X9857750D02*
Y18455000D01*
G01X9819650D02*
X9895840D01*
G01X10045070Y18488860D02*
X10070480Y18467700D01*
X10099050Y18455000D01*
X10124450D01*
X10149850Y18467700D01*
X10168900Y18488860D01*
X10178430Y18518500D01*
X10172080Y18548130D01*
X10156200Y18573530D01*
X10127620Y18590470D01*
X10089530Y18598930D01*
X10067300Y18615860D01*
X10057770Y18645500D01*
X10064130Y18675130D01*
X10080000Y18696290D01*
X10102220Y18709000D01*
X10124450D01*
X10146680Y18700540D01*
X10165730Y18679370D01*
G01X10327650Y18709000D02*
X10403840D01*
G01X10365750D02*
Y18455000D01*
G01X10327650D02*
X10403840D01*
G01X10619750D02*
X10594350Y18459230D01*
X10572130Y18476160D01*
X10553070Y18501560D01*
X10540370Y18531200D01*
X10534020Y18565070D01*
Y18598930D01*
X10540370Y18632800D01*
X10553070Y18662440D01*
X10572130Y18687830D01*
X10594350Y18704770D01*
X10619750Y18709000D01*
X10645150Y18704770D01*
X10667370Y18687830D01*
X10686430Y18662440D01*
X10699130Y18632800D01*
X10705480Y18598930D01*
Y18565070D01*
X10699130Y18531200D01*
X10686430Y18501560D01*
X10667370Y18476160D01*
X10645150Y18459230D01*
X10619750Y18455000D01*
G01X10800730D02*
Y18709000D01*
X10946770Y18455000D01*
Y18709000D01*
G01X11061070Y18488860D02*
X11086480Y18467700D01*
X11115050Y18455000D01*
X11140450D01*
X11165850Y18467700D01*
X11184900Y18488860D01*
X11194430Y18518500D01*
X11188080Y18548130D01*
X11172200Y18573530D01*
X11143620Y18590470D01*
X11105530Y18598930D01*
X11083300Y18615860D01*
X11073770Y18645500D01*
X11080130Y18675130D01*
X11096000Y18696290D01*
X11118220Y18709000D01*
X11140450D01*
X11162680Y18700540D01*
X11181730Y18679370D01*
G01X10232400Y-6627500D02*
Y-6373500D01*
X10295900D01*
X10321300Y-6386210D01*
X10340350Y-6403130D01*
X10356230Y-6428530D01*
X10368930Y-6458170D01*
X10372100Y-6500500D01*
X10368930Y-6542840D01*
X10356230Y-6572470D01*
X10340350Y-6597870D01*
X10321300Y-6614800D01*
X10295900Y-6627500D01*
X10232400D01*
G01X10461000Y-6373500D02*
X10505450Y-6627500D01*
X10556250Y-6373500D01*
X10607050Y-6627500D01*
X10651500Y-6373500D01*
G01X10829300Y-6500500D02*
X10892800D01*
Y-6576700D01*
X10873750Y-6602110D01*
X10851520Y-6619040D01*
X10819780Y-6627500D01*
X10788030Y-6619040D01*
X10765800Y-6602110D01*
X10746750Y-6576700D01*
X10734050Y-6547070D01*
X10727700Y-6513200D01*
Y-6483570D01*
X10734050Y-6458170D01*
X10746750Y-6428530D01*
X10765800Y-6403130D01*
X10784850Y-6386210D01*
X10810250Y-6373500D01*
X10832470D01*
X10857870Y-6381960D01*
X10876930Y-6398900D01*
G01X11245230Y-6627500D02*
Y-6373500D01*
X11391270Y-6627500D01*
Y-6373500D01*
G01X11572250Y-6627500D02*
X11546850Y-6623270D01*
X11524630Y-6606340D01*
X11505570Y-6580940D01*
X11492870Y-6551300D01*
X11486520Y-6517430D01*
Y-6483570D01*
X11492870Y-6449700D01*
X11505570Y-6420060D01*
X11524630Y-6394670D01*
X11546850Y-6377730D01*
X11572250Y-6373500D01*
X11597650Y-6377730D01*
X11619870Y-6394670D01*
X11638930Y-6420060D01*
X11651630Y-6449700D01*
X11657980Y-6483570D01*
Y-6517430D01*
X11651630Y-6551300D01*
X11638930Y-6580940D01*
X11619870Y-6606340D01*
X11597650Y-6623270D01*
X11572250Y-6627500D01*
G01X12267570Y-7609640D02*
X12292980Y-7630800D01*
X12321550Y-7643500D01*
X12346950D01*
X12372350Y-7630800D01*
X12391400Y-7609640D01*
X12400930Y-7580000D01*
X12394580Y-7550370D01*
X12378700Y-7524970D01*
X12350120Y-7508030D01*
X12312030Y-7499570D01*
X12289800Y-7482640D01*
X12280270Y-7453000D01*
X12286630Y-7423370D01*
X12302500Y-7402210D01*
X12324720Y-7389500D01*
X12346950D01*
X12369180Y-7397960D01*
X12388230Y-7419130D01*
G01X12521570Y-7643500D02*
Y-7389500D01*
G01X12654930D02*
Y-7643500D01*
G01Y-7516500D02*
X12521570D01*
G01X12905750Y-7643500D02*
X12778750D01*
Y-7389500D01*
X12905750D01*
G01X12854950Y-7512260D02*
X12778750D01*
G01X13159750Y-7643500D02*
X13032750D01*
Y-7389500D01*
X13159750D01*
G01X13108950Y-7512260D02*
X13032750D01*
G01X13350250Y-7389500D02*
Y-7643500D01*
G01X13277230Y-7389500D02*
X13423270D01*
G01X12073900Y17693000D02*
Y17947000D01*
X12137400D01*
X12162800Y17934290D01*
X12181850Y17917370D01*
X12197730Y17891970D01*
X12210430Y17862330D01*
X12213600Y17820000D01*
X12210430Y17777660D01*
X12197730Y17748030D01*
X12181850Y17722630D01*
X12162800Y17705700D01*
X12137400Y17693000D01*
X12073900D01*
G01X12318370D02*
X12397750Y17947000D01*
X12477130Y17693000D01*
G01X12448550Y17781900D02*
X12346950D01*
G01X12651750Y17947000D02*
Y17693000D01*
G01X12578730Y17947000D02*
X12724770D01*
G01X12969250Y17693000D02*
X12842250D01*
Y17947000D01*
X12969250D01*
G01X12918450Y17824240D02*
X12842250D01*
G01X13969370Y17693000D02*
X14048750Y17947000D01*
X14128130Y17693000D01*
G01X14099550Y17781900D02*
X13997950D01*
G01X14239250Y17693000D02*
Y17947000D01*
X14315450D01*
X14340850Y17934290D01*
X14359900Y17904670D01*
X14366250Y17870800D01*
X14359900Y17836930D01*
X14344020Y17811530D01*
X14315450Y17798830D01*
X14239250D01*
G01X14493250Y17693000D02*
Y17947000D01*
X14569450D01*
X14594850Y17934290D01*
X14613900Y17904670D01*
X14620250Y17870800D01*
X14613900Y17836930D01*
X14598020Y17811530D01*
X14569450Y17798830D01*
X14493250D01*
G01X14747250Y17693000D02*
Y17947000D01*
X14826620D01*
X14852020Y17934290D01*
X14867900Y17917370D01*
X14874250Y17883500D01*
X14867900Y17849630D01*
X14848850Y17828470D01*
X14826620Y17815760D01*
X14747250D01*
G01X14826620D02*
X14874250Y17693000D01*
G01X15064750D02*
X15039350Y17697230D01*
X15017130Y17714160D01*
X14998070Y17739560D01*
X14985370Y17769200D01*
X14979020Y17803070D01*
Y17836930D01*
X14985370Y17870800D01*
X14998070Y17900440D01*
X15017130Y17925830D01*
X15039350Y17942770D01*
X15064750Y17947000D01*
X15090150Y17942770D01*
X15112370Y17925830D01*
X15131430Y17900440D01*
X15144130Y17870800D01*
X15150480Y17836930D01*
Y17803070D01*
X15144130Y17769200D01*
X15131430Y17739560D01*
X15112370Y17714160D01*
X15090150Y17697230D01*
X15064750Y17693000D01*
G01X15239370Y17947000D02*
X15318750Y17693000D01*
X15398130Y17947000D01*
G01X15636250Y17693000D02*
X15509250D01*
Y17947000D01*
X15636250D01*
G01X15585450Y17824240D02*
X15509250D01*
G01X15756900Y17693000D02*
Y17947000D01*
X15820400D01*
X15845800Y17934290D01*
X15864850Y17917370D01*
X15880730Y17891970D01*
X15893430Y17862330D01*
X15896600Y17820000D01*
X15893430Y17777660D01*
X15880730Y17748030D01*
X15864850Y17722630D01*
X15845800Y17705700D01*
X15820400Y17693000D01*
X15756900D01*
M02*
