G04 ================== begin FILE IDENTIFICATION RECORD ==================*
G04 Layout Name:  pc065b_toplevel_06.brd*
G04 Film Name:    art_pc065a_L06P.ger*
G04 File Format:  Gerber RS274X*
G04 File Origin:  Cadence Allegro 17.2-S061*
G04 Origin Date:  Tue Jun  2 09:05:58 2020*
G04 *
G04 Layer:  VIA CLASS/L6_SIG*
G04 Layer:  PIN/L6_SIG*
G04 Layer:  ETCH/L6_SIG*
G04 *
G04 Offset:    (0.0000 0.0000)*
G04 Mirror:    No*
G04 Mode:      Positive*
G04 Rotation:  0*
G04 FullContactRelief:  No*
G04 UndefLineWidth:     0.2000*
G04 ================== end FILE IDENTIFICATION RECORD ====================*
%FSLAX35Y35*MOMM*%
%IR0*IPPOS*OFA0.00000B0.00000*MIA0B0*SFA1.00000B1.00000*%
%ADD12C,.56*%
%ADD10C,.65*%
%ADD17C,1.*%
%ADD13C,1.7*%
%ADD18C,1.0008*%
%ADD11C,3.6*%
%ADD15C,1.65*%
%ADD16C,1.75*%
%ADD14C,1.397*%
%ADD19C,.2*%
%ADD20C,.15*%
%ADD21C,.17*%
G75*
%LPD*%
G75*
G54D10*
X-200480Y-880000D03*
X115000Y-970000D03*
X80000Y-495480D03*
X-200480Y-700000D03*
X-202980Y-515000D03*
X-70000Y250000D03*
X-185480Y590000D03*
X-210480Y390000D03*
X180000Y590000D03*
X-210480Y900000D03*
X-60000Y740000D03*
X230000Y900000D03*
X570000Y-945000D03*
X450000Y-554520D03*
Y-80000D03*
X470000Y20000D03*
X370000Y70000D03*
Y310000D03*
X705670Y535500D03*
X540000Y530000D03*
Y720000D03*
X705670Y746140D03*
X441750Y1131580D03*
X350000Y920000D03*
X445000D03*
X516200Y1174570D03*
X441750Y1342220D03*
X470000Y1410000D03*
X516200Y1299230D03*
X420000Y1930000D03*
X510000Y1830000D03*
X427700Y1862300D03*
X330000Y1710000D03*
X420000Y2030000D03*
X960000Y-750000D03*
X1054520Y-340000D03*
Y-450000D03*
X950000Y-480000D03*
X882170Y-552670D03*
Y-677330D03*
X1064520Y30000D03*
X860000Y150000D03*
X952640Y149500D03*
X870000Y-250000D03*
X950000Y50000D03*
X860000Y240000D03*
X952860Y231500D03*
X780120Y703150D03*
Y578490D03*
X1000000Y790000D03*
X1140000Y930000D03*
X1080000Y730790D03*
Y850000D03*
X780000Y1840000D03*
X1035110Y1866860D03*
X1085000Y1815000D03*
X1040000Y1730000D03*
X1030000Y1990000D03*
X742540Y2080710D03*
X824180Y2072970D03*
X759520Y2625000D03*
X1100000Y3065480D03*
X759520Y2715000D03*
X928520Y2670000D03*
X990000Y3031760D03*
X964000Y3339520D03*
X1044000D03*
X840000Y3629520D03*
X1060000Y3744520D03*
X1170000Y3995480D03*
X1060000D03*
X1170000Y3744520D03*
X1465000Y-1015000D03*
X1650000Y-970000D03*
X1491150Y-750000D03*
X1590000Y-760000D03*
X1320000Y-260000D03*
X1300000Y-740000D03*
X1655000Y75000D03*
X1430000Y70000D03*
X1340000Y-165880D03*
Y-41220D03*
X1460000Y390000D03*
X1350000D03*
X1580000Y775480D03*
X1410000Y729520D03*
Y830000D03*
X1530000Y1250000D03*
X1380000D03*
X1517440Y1345810D03*
X1392780D03*
X1359520Y2090000D03*
X1484000Y2519520D03*
X1220000Y2510000D03*
X1356520Y2246000D03*
X1400000Y3065480D03*
X1510000Y3041760D03*
X1260000Y2820000D03*
X1400000D03*
X1250000Y3220480D03*
X1684000Y3339520D03*
X1524000Y3274000D03*
X1280000Y3744520D03*
X1610000Y3995480D03*
X1490000Y3990200D03*
X1410000D03*
X1270000D03*
X1390000Y3744520D03*
X1500000D03*
X1610000D03*
X2020000Y-280000D03*
X1840000D03*
X2120500Y-462430D03*
X2100000Y-660000D03*
X1845000Y-690000D03*
X1840000Y80000D03*
X2020000D03*
X1840000Y-100000D03*
X2020000D03*
X1700000Y230000D03*
X2100000Y450000D03*
X1895000Y460000D03*
X1695000Y475000D03*
X1900000Y560000D03*
X1800000Y775480D03*
X2050000D03*
X2124520Y840000D03*
X2140000Y1160000D03*
X1790000Y1180000D03*
X1690000Y775480D03*
X1892170Y1186970D03*
X2155550Y1265440D03*
X1790000Y1320000D03*
X1900000Y1410000D03*
X1892170Y1311630D03*
X1860480Y2090000D03*
X1850000Y1850000D03*
X1845000Y1915000D03*
X1740000Y1810000D03*
X1990000Y2100000D03*
X1862480Y2245000D03*
X2030000Y2270000D03*
X1724000Y2820480D03*
X2600000Y-790000D03*
X2510000Y-752000D03*
X2200000Y-280000D03*
X2580000Y-600000D03*
X2245000Y-465000D03*
X2186790Y-413500D03*
X2510000Y-670000D03*
X2620000Y-390000D03*
X2200000Y80000D03*
Y-100000D03*
X2560000Y130000D03*
X2610000Y-20000D03*
X2635000Y570000D03*
X2245000Y450000D03*
X2610000Y350000D03*
X2480000Y814800D03*
X2190000Y740000D03*
X2295000D03*
X2230000Y1097790D03*
X2600000Y1300000D03*
X2480000Y1290000D03*
X2470000Y1590000D03*
X2230000Y1222450D03*
X2220000Y1840000D03*
X2484300Y1814300D03*
X2455000Y1865000D03*
X2550000Y1930000D03*
X2178000Y2084800D03*
X2260000Y2090000D03*
X2640000Y2500000D03*
X2525000Y3065480D03*
X2265000Y2850000D03*
X2353520Y2670000D03*
X2415000Y3031760D03*
X2389000Y3339520D03*
X2469000D03*
X2265000Y3629520D03*
X2485000Y3995480D03*
X2595000D03*
X2485000Y3744520D03*
X2595000D03*
X2945480Y-830000D03*
X3100000Y-490000D03*
X2945480Y-630000D03*
X3120000Y-330000D03*
X2680000Y-630000D03*
X2880000Y-480000D03*
X3040070Y-354820D03*
X3037600Y-436790D03*
X3050000Y-660000D03*
X3100000Y-90000D03*
X3090000Y-250000D03*
X3140000Y120000D03*
X2740000Y-70000D03*
Y-230000D03*
X2996940Y-119980D03*
X3000080Y-201930D03*
X2850000Y-20000D03*
X3035480Y320000D03*
X2740000Y300000D03*
X2830000Y1090000D03*
X2950000D03*
Y740000D03*
X2680000D03*
X2830000D03*
X2747580Y1289210D03*
X2933030Y1350000D03*
X2808370D03*
X2784520Y2090000D03*
X2909000Y2519520D03*
X2781520Y2246000D03*
X2825000Y3065480D03*
X2935000Y3041760D03*
X2675000Y2825000D03*
X2825000D03*
X2675000Y3220480D03*
X3109000Y3339520D03*
X2949000Y3241000D03*
X2700000Y3990200D03*
X2830000D03*
X2920000D03*
X3050000D03*
X2705000Y3744520D03*
X2815000D03*
X2925000D03*
X3035000D03*
X3339930Y-925260D03*
X3429930Y-979920D03*
X3330000Y120000D03*
Y-40000D03*
X3255010Y75030D03*
X3254940Y-6970D03*
X3400000Y-200000D03*
X3600000Y-100000D03*
X3240000Y660000D03*
X3590000Y700000D03*
X3146100Y663990D03*
X3330000Y430000D03*
X3240000Y790000D03*
X3590000Y820000D03*
X3280000Y1160000D03*
X3146100Y780000D03*
X3365820Y1182790D03*
X3280000Y1320000D03*
X3320640Y1412600D03*
X3365820Y1307450D03*
X3285480Y2090000D03*
X3265000Y1915000D03*
X3410000Y1830000D03*
X3320000Y1820000D03*
X3360000Y2140000D03*
X3598140Y2084920D03*
X3287480Y2245000D03*
X3609520Y2625000D03*
X3149000Y2820480D03*
X3609520Y2715000D03*
X4010000Y-860000D03*
X3690000Y-890000D03*
X3640000Y-360000D03*
X3830000Y-390000D03*
X4101350Y-208650D03*
X3870000Y50000D03*
X3790000Y200000D03*
Y118000D03*
X3860000Y260000D03*
X3750000Y630000D03*
X3930000Y527500D03*
X4110000Y592500D03*
X3857500Y630000D03*
X3688140Y705840D03*
Y821850D03*
X3860000Y1590000D03*
X3640000Y1840000D03*
X3897600Y1767600D03*
X3865000Y1865000D03*
X3930000Y2100000D03*
X4020000Y1800000D03*
X4050000Y1960000D03*
X3970000Y1897500D03*
X3680140Y2084790D03*
X4070000Y2505000D03*
X4030000Y2240000D03*
X3950000Y3065480D03*
X3778520Y2670000D03*
X3840000Y3031760D03*
X4100000Y2820000D03*
Y3220480D03*
X3814000Y3339520D03*
X3894000D03*
X3690000Y3629520D03*
X3910000Y3995480D03*
X4020000D03*
X3910000Y3744520D03*
X4020000D03*
X4390000Y-870000D03*
X4205000Y-850000D03*
X4180000Y-530000D03*
X4290000Y-485000D03*
X4500000Y-390000D03*
X4510000Y-555000D03*
X4480000Y170000D03*
Y30000D03*
X4570000Y132000D03*
Y50000D03*
X4274500Y-170000D03*
X4360000Y-180000D03*
X4590000Y470000D03*
X4530000Y410000D03*
Y285340D03*
X4122500Y462500D03*
X4388380Y1323540D03*
X4239360D03*
X4359290Y1400210D03*
X4277290Y1399990D03*
X4580000Y1840000D03*
X4240000Y2090000D03*
X4334000Y2519520D03*
X4206520Y2246000D03*
X4120000Y2260000D03*
X4250000Y3065480D03*
X4574000Y2820480D03*
X4360000Y3041760D03*
X4250000Y2820000D03*
X4534000Y3339520D03*
X4374000Y3266000D03*
X4120000Y3990200D03*
X4260000D03*
X4350000Y3995480D03*
X4480000Y3990200D03*
X4130000Y3744520D03*
X4240000D03*
X4350000D03*
X4460000D03*
X4890000Y-880000D03*
X5030000Y-800000D03*
X4727730Y-550330D03*
X4910000Y-690000D03*
X5060000Y-555000D03*
X4840000Y-550000D03*
X4920000Y-390000D03*
X4600000Y-380000D03*
X4690000Y-390000D03*
X4828630Y-389820D03*
X5008000Y-210000D03*
X5017500Y657500D03*
X4607110Y257420D03*
X5017500Y462500D03*
X4723290Y755940D03*
X4670000Y944660D03*
Y820000D03*
X4740000Y1410000D03*
X4629460Y1630000D03*
X5030000Y1350000D03*
X4670000Y2090000D03*
X5050000Y1840000D03*
X4700000D03*
X4820000Y2080000D03*
X5011000Y2079000D03*
X4712480Y2245000D03*
X5034520Y2625000D03*
Y2715000D03*
X5375000Y-935000D03*
X5413880Y-862800D03*
X5180000Y-840000D03*
X5360000Y-530000D03*
X5460000Y-495000D03*
X5335000Y-210000D03*
X5510000Y-75480D03*
X5300000Y-80000D03*
X5410000D03*
X5210000Y-210000D03*
X5090000D03*
X5540000Y-200000D03*
X5236920Y212310D03*
Y87650D03*
X5559130Y596420D03*
X5324740Y411810D03*
Y310000D03*
X5220000Y1080000D03*
X5240000Y1630000D03*
X5230000Y1340000D03*
X5480000Y2060000D03*
X5320000Y1800000D03*
X5205000Y2075000D03*
X5550000Y1790000D03*
X5093000Y2080000D03*
X5494950Y2409120D03*
X5350000Y2260000D03*
X5490000Y2201000D03*
X5514080Y2522930D03*
X5560000Y2262500D03*
X5399880Y2389880D03*
X5416240Y2309520D03*
X5375000Y3065480D03*
X5203520Y2670000D03*
X5265000Y3031760D03*
X5525000Y2826820D03*
Y3220480D03*
X5230000Y3290000D03*
X5319000Y3339520D03*
X5140000Y3400000D03*
X5115000Y3629520D03*
X5445000Y3995480D03*
X5335000D03*
X5555000D03*
X5335000Y3744520D03*
X5555000D03*
X5445000D03*
X5339000Y3640000D03*
X5810000Y-790000D03*
X5630000Y-810000D03*
X6025480Y-660000D03*
X6050000Y-340000D03*
X5810000Y-410000D03*
X5980000Y-440000D03*
X5650000Y-550000D03*
X5950000Y-75480D03*
X5590000Y-80000D03*
X5726000Y-89450D03*
X5740000Y210000D03*
X5840000Y-75480D03*
X5680000Y-170000D03*
X6040000Y550000D03*
X5650000Y450000D03*
X5641050Y600050D03*
X5570000Y470000D03*
X5850000Y1020000D03*
X5570000Y805000D03*
X5710000Y1020000D03*
X5580000D03*
X5970000Y1360000D03*
X5870000D03*
X5578000Y1550000D03*
X5660000D03*
X5680000Y2080000D03*
X5580000Y2090000D03*
X5759000Y2519520D03*
X5660000Y2246000D03*
X5580000Y2172000D03*
X5675000Y3065480D03*
X5999000Y2820480D03*
X5785000Y3041760D03*
X5675000Y2825000D03*
X5959000Y3339520D03*
X5799000Y3281000D03*
X5680000Y3990200D03*
X5775000Y3995480D03*
X5889000Y3990200D03*
X5665000Y3744520D03*
X5775000D03*
X5885000D03*
X6180000Y-750000D03*
X6070000Y-870000D03*
X6330000Y-920000D03*
X6490000Y-925480D03*
X6172500Y-667500D03*
X6490000Y-474520D03*
X6193750Y-450000D03*
X6449800Y170000D03*
X6065000Y210000D03*
X6090000Y-90000D03*
X6290000Y-170000D03*
X6380000Y-180000D03*
X6480000Y250000D03*
X6285570Y1096030D03*
X6460000Y820000D03*
X6370000Y1050000D03*
X6339800Y820000D03*
X6470000Y1163000D03*
Y1081000D03*
X6270000Y1590000D03*
X6354170Y1229000D03*
X6470000Y1590000D03*
X6070000Y2080000D03*
X6150000Y1820000D03*
X6250000Y1960000D03*
X6332220Y1934500D03*
X6420000Y1968500D03*
X6137480Y2245000D03*
X6430000Y2270000D03*
X6470000Y3360000D03*
X6480000Y3520000D03*
X6480170Y3797680D03*
X6500000Y4533450D03*
X6490000Y5558000D03*
X6520000Y5920000D03*
X6530000Y5810000D03*
X7010000Y-930000D03*
X6770000D03*
X6610000Y-925480D03*
X6770000Y-470000D03*
X6895480Y-380000D03*
X6644520D03*
X6610000Y-474520D03*
X6940000Y-732500D03*
X7020000Y-700000D03*
X6560000Y190000D03*
X6630000Y140000D03*
X6719130Y179130D03*
X6660000Y360000D03*
Y470000D03*
Y670000D03*
X6719130Y261130D03*
X6720000Y1160000D03*
X6640000Y1190000D03*
X6720000Y1303000D03*
X6650000Y1640000D03*
X6640240Y1272000D03*
X6790000Y1450000D03*
X6600000Y2120000D03*
X6680000D03*
X6770000Y1940000D03*
X6920000Y1910000D03*
X7020000Y1844500D03*
X6890000Y2120000D03*
X6929520Y2625000D03*
X6815000Y2260000D03*
X6929520Y2715000D03*
X6650000Y3200000D03*
X6644560Y3464610D03*
X6650000Y3310000D03*
X7010000Y3629520D03*
X6645000Y3795000D03*
X6580000Y4100000D03*
X7120000Y-890000D03*
X7500000Y-450000D03*
X7260000Y150000D03*
X7260390Y-92310D03*
X7300640Y-20860D03*
X7300000Y70000D03*
X7195000Y705000D03*
X7170000Y460000D03*
Y320000D03*
X7290000Y610000D03*
X7130000Y1140000D03*
X7450000Y940000D03*
X7194840Y859320D03*
X7235000Y935000D03*
X7060000Y1190000D03*
X7440000Y1088000D03*
Y1170000D03*
X7130000Y1320000D03*
X7060000Y1600000D03*
Y1272000D03*
X7205830Y2112520D03*
X7400000Y1870000D03*
Y2000000D03*
X7205830Y1963520D03*
X7490000Y1989770D03*
X7127790Y1988720D03*
X7490000Y1865110D03*
X7130020Y2070690D03*
X7414000Y2534000D03*
X7270000Y3065480D03*
X7098520Y2670000D03*
X7160000Y3031760D03*
X7420000Y2826820D03*
Y3220480D03*
X7134000Y3339520D03*
X7214000D03*
X7230000Y3995480D03*
X7340000D03*
X7450000D03*
Y3744520D03*
X7340000D03*
X7230000D03*
X7929210Y-1000000D03*
X7810000D03*
X7590000Y-460000D03*
X7986000Y-450000D03*
X7741000Y59000D03*
X7870000Y180000D03*
X7710000Y670000D03*
X7630000D03*
X7950000Y680000D03*
X7530000Y710000D03*
X7810000Y680000D03*
X7680000Y1120000D03*
X7690000Y1360000D03*
X7917900Y1361000D03*
X7580000Y1410000D03*
X7810000D03*
X7529520Y2090000D03*
X7654000Y2519520D03*
X7526520Y2246000D03*
X7570000Y3065480D03*
X7894000Y2820480D03*
X7680000Y3041760D03*
X7570000Y2820000D03*
X7854000Y3339520D03*
X7667000Y3307000D03*
X7560000Y3995480D03*
X7670000D03*
X7780000D03*
X7560000Y3744520D03*
X7670000D03*
X7780000D03*
X8115500Y-455500D03*
X8250000Y-448000D03*
X8244970Y-596280D03*
X8117000Y-73000D03*
X8239140Y62270D03*
X8248050Y171780D03*
X8210000Y490000D03*
X8200000Y700000D03*
X8129150Y535400D03*
X8133640Y453520D03*
X8353970Y700000D03*
X8160000Y890000D03*
X8120000Y970000D03*
Y1052000D03*
X8390000Y1010000D03*
X8380000Y906550D03*
X8277500Y1102500D03*
X8377790Y1102600D03*
X8120250Y812000D03*
X8119990Y730000D03*
X8179300Y1635000D03*
X8000000Y1360000D03*
X8330000Y1550000D03*
X8030480Y2090000D03*
X8179300Y1990000D03*
X8297520Y2159000D03*
X8020000Y1840000D03*
X8334520D03*
X8340000Y1990000D03*
X8339800Y1720000D03*
X8300000Y2300000D03*
X8032480Y2245000D03*
X8193560Y2264080D03*
X8195510Y2182100D03*
X8435000Y2830000D03*
Y3629520D03*
X8750000Y-590000D03*
X8880000Y-320000D03*
X8625570Y-594290D03*
X8500000Y-590000D03*
X8627040Y-442500D03*
X8880000Y-580000D03*
X8620000Y-80000D03*
X8887910Y45090D03*
X8753000Y53000D03*
X8750000Y-70000D03*
X8490000Y670000D03*
X8688500Y458500D03*
X8790000Y654300D03*
X8640000Y644520D03*
X8491430Y301430D03*
X8759060Y500290D03*
X8667800Y1180000D03*
X8790000Y1095480D03*
X8940000Y1090000D03*
X8749800Y1180000D03*
X8500000Y1100000D03*
X8640000Y1095480D03*
X8800000Y1550000D03*
X8500000Y1420000D03*
X8639600Y1419600D03*
X8940000Y1902300D03*
X8954520Y2090000D03*
X8785480Y1840000D03*
X8790000Y1720000D03*
X8527500Y2112980D03*
X8657500D03*
X8839000Y2534000D03*
X8951520Y2246000D03*
X8520000Y2570000D03*
X8592500Y2180000D03*
X8730000Y2290000D03*
X8695000Y3065480D03*
X8523520Y2670000D03*
X8585000Y3031760D03*
X8845000Y2825000D03*
Y3220480D03*
X8559000Y3339520D03*
X8639000D03*
X8950000Y3330000D03*
X8655000Y3995480D03*
X8875000D03*
X8765000D03*
X8875000Y3744520D03*
X8765000D03*
X8655000D03*
X9259500Y-580500D03*
X9131000Y-579000D03*
X9000000Y-580000D03*
X9381500Y48500D03*
X9010000Y178840D03*
X9265500Y175500D03*
X9138500Y48500D03*
X9254000Y60000D03*
X9140000Y-70000D03*
X9450000Y370000D03*
X9390000Y430000D03*
X9387010Y317490D03*
X8995480Y1180000D03*
X9443360Y1170400D03*
X9440000Y1020000D03*
X9200000Y1060000D03*
X9050000D03*
X9062980Y902500D03*
X9120000Y837500D03*
X9160000Y1140000D03*
X9360000Y1149000D03*
X9078000Y1140000D03*
X9360000Y1067000D03*
X9062980Y772500D03*
X9372610Y1357400D03*
X9374190Y1275410D03*
X9215000Y1969000D03*
X9020000Y1974660D03*
X9027110Y1853080D03*
X9079000Y2519520D03*
X8995000Y3065480D03*
X9319000Y2820480D03*
X9105000Y3041760D03*
X8995000Y2825000D03*
X9279000Y3339520D03*
X9040000Y3330000D03*
X9121260Y3288950D03*
X8985000Y3995480D03*
X9095000D03*
X9205000D03*
X8985000Y3744520D03*
X9095000D03*
X9205000D03*
X9773500Y-586500D03*
X9640000Y-580000D03*
X9638000Y-330000D03*
X9520500Y-320500D03*
X9890000Y-459000D03*
X9649120Y59070D03*
X9520000Y50000D03*
X9900000Y-70000D03*
X9680000Y630000D03*
X9830000Y644520D03*
X9845480Y1180000D03*
X9929800D03*
X9680000Y1100000D03*
X9830000Y1095480D03*
X9550000Y892000D03*
Y810000D03*
X9475830Y1390000D03*
Y1241000D03*
X9750000Y1550000D03*
X9900000Y1390000D03*
X9455480Y2090000D03*
X9590000Y1980000D03*
X9670000Y1715480D03*
X9659460Y2151000D03*
X9540000Y1830000D03*
X9754520Y1840000D03*
X9760000Y1990000D03*
X9759800Y1720000D03*
X9660000Y2300000D03*
X9457480Y2245000D03*
X9779520Y2625000D03*
X9740000Y2262000D03*
Y2180000D03*
X9779520Y2715000D03*
X9860000Y3629520D03*
X10143000Y-460000D03*
X10280000Y-450000D03*
X10400000Y-710000D03*
X10270000D03*
X10016000Y-460000D03*
X10397000D03*
X10139210Y180000D03*
X10398110Y178100D03*
X10020000Y180000D03*
X10278900Y178100D03*
X9970000Y644520D03*
X10230000Y490000D03*
X10175480Y1180000D03*
X9970000Y1095480D03*
X10120000Y1090000D03*
X10242980Y902500D03*
X10330000Y837500D03*
X10242980Y772500D03*
X10130000Y1410000D03*
X10300000Y1570000D03*
X10010000Y1390000D03*
X10270000Y1370000D03*
X10379520Y2090000D03*
X10205480Y1840000D03*
X10210000Y1720000D03*
X10310000Y1690000D03*
X10360000Y1950000D03*
X10361760Y1848240D03*
X9947500Y2112980D03*
X10008250Y2168070D03*
X10077500Y2112980D03*
X10264000Y2534000D03*
X10376520Y2246000D03*
X10170000Y2280000D03*
X10280000Y2220000D03*
X10420000Y3065480D03*
X10120000D03*
X9948520Y2670000D03*
X10010000Y3031760D03*
X10270000Y2820000D03*
X10420000Y2810000D03*
X10270000Y3220480D03*
X9984000Y3339520D03*
X10064000D03*
X10080000Y3995480D03*
X10190000D03*
X10300000D03*
X10410000D03*
X10300000Y3744520D03*
X10190000D03*
X10410000D03*
X10080000D03*
X10786490Y-443020D03*
X10660000Y-570000D03*
X10783930Y-313070D03*
X10527000Y-457000D03*
X10790000Y-710000D03*
X10530000Y181000D03*
X10850000Y590000D03*
X10530000Y440000D03*
X10845000Y1105000D03*
X10710000Y920000D03*
X10711420Y810000D03*
X10880000Y1454660D03*
X10868770Y1315960D03*
X10880480Y2090000D03*
X10504000Y2519520D03*
X10882480Y2245000D03*
X10744000Y2820480D03*
X10530000Y3041760D03*
X10624000Y2874000D03*
X10704000Y3339520D03*
X10500000Y3304000D03*
X10520000Y3995480D03*
X10630000D03*
X10520000Y3744520D03*
X10630000D03*
X10911500Y-708500D03*
X11211000Y-281000D03*
X11298000Y-448000D03*
X11169500Y-449500D03*
X11170000Y-580000D03*
X11031940Y-588090D03*
X11298570Y-701430D03*
X10920000Y-580000D03*
X11150000Y644520D03*
X11000000D03*
X11345480Y1180000D03*
X11015480D03*
X11150000Y1095480D03*
X11290000Y1090000D03*
X11000000Y1095480D03*
X10920000Y1380000D03*
X11090000Y1230000D03*
X11190000Y1550000D03*
X11290000Y1390000D03*
X11110000Y2045480D03*
Y1715480D03*
X11095180Y2150000D03*
X11000000Y1950000D03*
X11190000Y1910000D03*
X11200000Y1990000D03*
X11194520Y1690000D03*
X10910000Y1949210D03*
Y1830000D03*
X11387500Y2112980D03*
X11095180Y2299000D03*
X11204520Y2625000D03*
X11207900Y2274100D03*
Y2192100D03*
X11204520Y2715000D03*
X11373520Y2670000D03*
X11285000Y3629520D03*
X11420000Y-840000D03*
X11550000Y-830000D03*
X11800000Y-710000D03*
X11549500Y-69500D03*
X11850000Y920000D03*
Y820000D03*
X11412980Y902500D03*
X11500000Y837500D03*
X11412980Y772500D03*
X11660000Y1550000D03*
X11550000Y1350000D03*
X11411000Y1390000D03*
X11550000Y1230790D03*
X11804520Y2090000D03*
X11645480Y1840000D03*
Y1690000D03*
X11520240Y2110240D03*
X11689000Y2534000D03*
X11801520Y2246000D03*
X11452500Y2190000D03*
X11845000Y3065480D03*
X11545000D03*
X11435000Y3031760D03*
X11695000Y2825000D03*
X11845000D03*
X11695000Y3220480D03*
X11409000Y3339520D03*
X11489000D03*
X11505000Y3995480D03*
X11615000D03*
X11725000D03*
X11835000D03*
X11725000Y3744520D03*
X11615000D03*
X11835000D03*
X11505000D03*
X12060000Y-705500D03*
X12312000Y-458000D03*
X12178000Y-330000D03*
X11930000D03*
X12190000Y-200000D03*
X12310000Y60000D03*
X12180000Y-80000D03*
X12020000Y630000D03*
X12320000Y644520D03*
X12170000D03*
X12185480Y1180000D03*
X12269800D03*
X12320000Y1095480D03*
X12020000Y1100000D03*
X12170000Y1095480D03*
X12089210Y1370000D03*
X11970000D03*
X12305480Y2090000D03*
X12340000Y1875000D03*
X11929000Y2519520D03*
X12307480Y2245000D03*
X12169000Y2820480D03*
X11955000Y3041760D03*
X12129000Y3339520D03*
X11969000Y3291000D03*
X11945000Y3995480D03*
X12055000D03*
X11945000Y3744520D03*
X12055000D03*
X12430000Y-459000D03*
X12570000Y-580000D03*
X12697500Y-462500D03*
X12431000Y-331000D03*
X12386000Y230000D03*
X12560000Y-80000D03*
X12710000Y200000D03*
X12515480Y1180000D03*
X12460000Y1090000D03*
X12582980Y902500D03*
X12670000Y837500D03*
X12582980Y772500D03*
X12510000Y1550000D03*
X12698460Y1410010D03*
X12780460Y1409980D03*
X12430000Y2045480D03*
Y1715480D03*
X12517500Y1927500D03*
X12520000Y1990000D03*
X12514520Y1700000D03*
X12707500Y2112980D03*
X12837500D03*
X12772500Y2200000D03*
X12670000Y3480000D03*
X12720000Y3560000D03*
X12820000Y3780000D03*
X12680000Y4430000D03*
X12730000Y4290000D03*
X12800000Y5140000D03*
X12938430Y-832670D03*
X12980030Y-762000D03*
X13050000Y-590000D03*
X12980000Y-680000D03*
X12860000Y-400000D03*
X12990000Y-480000D03*
X13190000Y550000D03*
X12880000Y460000D03*
X13030000Y480000D03*
X13202500Y951920D03*
X12890000Y1200000D03*
X12910000Y837500D03*
X13130000Y1260000D03*
X12900000Y1390000D03*
X13140000Y1600000D03*
X13145290Y1479500D03*
X12890000Y1305400D03*
X13160000Y2120000D03*
X13170000Y1770000D03*
X12955700Y1860000D03*
Y1700000D03*
X12960000Y1770000D03*
X13040000Y2320000D03*
X13072500Y2547500D03*
X13210000Y2330000D03*
X12919520Y2800000D03*
X13074520Y2950000D03*
X13050000Y3040000D03*
X12919520Y3160000D03*
X13074520Y3310000D03*
X13010000Y5010000D03*
X12891540Y5079500D03*
X13074350Y4920000D03*
X13490000Y560000D03*
X13340000Y684520D03*
X13410000Y950000D03*
X13510000Y1260000D03*
X13410000Y1640000D03*
X13500000Y1479500D03*
X13410000Y2130000D03*
G54D20*
G01X5970000Y1360000D02*
X5949200D01*
X5881000Y1428200D01*
Y1439000D01*
X5830000Y1490000D01*
X5536140D01*
X5382000Y1335860D01*
Y183970D01*
X5350000Y151970D01*
Y-30000D01*
X5300000Y-80000D01*
G01X5870000Y1360000D02*
Y1360010D01*
X5877060Y1367070D01*
Y1388290D01*
X5850000Y1415350D01*
Y1426150D01*
X5817150Y1459000D01*
X5548990D01*
X5413000Y1323010D01*
Y171120D01*
X5381000Y139120D01*
Y-51000D01*
X5410000Y-80000D01*
G01X6470000Y1163000D02*
X6495000Y1138000D01*
X6555860D01*
X6589480Y1104380D01*
Y656800D01*
X6591000Y655280D01*
Y282050D01*
X6645990Y227060D01*
X6685060D01*
X6719130Y261130D01*
G01X6470000Y1081000D02*
X6496000Y1107000D01*
X6543010D01*
X6558480Y1091530D01*
Y643950D01*
X6560000Y642430D01*
Y269200D01*
X6633140Y196060D01*
X6697910D01*
X6698070Y196220D01*
X6701230Y197030D01*
X6719130Y179130D01*
G01X7300640Y-20860D02*
X7247940D01*
X7237420Y-10340D01*
X7235390D01*
X7220390Y4660D01*
Y9360D01*
X7220310Y9440D01*
Y66640D01*
X7173000Y113950D01*
Y146990D01*
X7079000Y240990D01*
Y683980D01*
X7039000Y723980D01*
Y1087160D01*
X6904100Y1222060D01*
X6765110D01*
X6759050Y1216000D01*
X6696800D01*
X6693800Y1213000D01*
X6679410D01*
X6673410Y1207000D01*
X6667000D01*
X6650000Y1190000D01*
X6640000D01*
G01X7300000Y70000D02*
X7290000D01*
X7266000Y94000D01*
X7236800D01*
X7204000Y126800D01*
Y159840D01*
X7110000Y253840D01*
Y696830D01*
X7070000Y736830D01*
Y1100010D01*
X6916950Y1253060D01*
X6752260D01*
X6746200Y1247000D01*
X6683950D01*
X6680950Y1244000D01*
X6672420D01*
X6663360Y1253060D01*
X6660150D01*
X6650210Y1263000D01*
X6649240D01*
X6640240Y1272000D01*
G01X7462000Y-720000D02*
Y-587210D01*
X7310000Y-435210D01*
Y-170000D01*
X7452000Y-28000D01*
X7777050D01*
X7794050Y-11000D01*
X7816160D01*
X7950660Y123500D01*
X8017430D01*
X8071080Y177150D01*
Y269330D01*
X8072700Y270710D01*
X8119500Y310500D01*
G01X8002000Y320000D02*
X8040080Y275200D01*
Y190000D01*
X8004580Y154500D01*
X7937810D01*
X7803310Y20000D01*
X7781200D01*
X7764200Y3000D01*
X7439150D01*
X7279000Y-157150D01*
Y-448060D01*
X7403580Y-572640D01*
X7389000Y-587210D01*
Y-720000D01*
G01X7127790Y1988720D02*
X7114990Y2001520D01*
X7097210D01*
X7076210Y2022520D01*
X7046840D01*
X7031840Y2007520D01*
Y1968160D01*
X7359990Y1640010D01*
Y1006150D01*
X7336880Y983040D01*
Y701510D01*
X7450000Y588390D01*
Y280000D01*
X7492500Y237500D01*
X7548500D01*
X7562000Y251000D01*
X7590000D01*
G01X7130020Y2070690D02*
X7129310D01*
X7125480Y2074520D01*
X7097210D01*
X7076210Y2053520D01*
X7033990D01*
X7000840Y2020370D01*
Y1955310D01*
X7328990Y1627160D01*
Y1019000D01*
X7305880Y995890D01*
Y688660D01*
X7419000Y575540D01*
Y267150D01*
X7494650Y191500D01*
X7548500D01*
X7562000Y178000D01*
X7590000D01*
G01X7929210Y-1000000D02*
X7896000Y-966790D01*
Y-116840D01*
X7916500Y-96340D01*
Y-93500D01*
X7926500Y-83500D01*
Y-82300D01*
X7938800Y-70000D01*
X7987000D01*
G01X7810000Y-1000000D02*
X7865000Y-945000D01*
Y-75000D01*
G01X8133640Y453520D02*
X8133520D01*
X8120000Y440000D01*
X8080000D01*
X8019000Y501000D01*
Y656160D01*
X8021500Y658660D01*
Y701340D01*
X8019000Y703840D01*
Y1167160D01*
X7917900Y1268260D01*
Y1361000D01*
G01X8239140Y62270D02*
X8230380Y53510D01*
X8178110D01*
X8154150Y77470D01*
Y134150D01*
X8184000Y164000D01*
Y215200D01*
X8234000Y265200D01*
X8254510D01*
X8284670Y295360D01*
Y338040D01*
X8281500Y341210D01*
Y341340D01*
X8266970Y355870D01*
Y736050D01*
X8267330Y736410D01*
Y790430D01*
X8278140Y801240D01*
Y810920D01*
X8293000Y825780D01*
Y942600D01*
X8297500Y947100D01*
Y1062500D01*
X8277500Y1082500D01*
Y1102500D01*
G01X8248050Y171780D02*
Y214890D01*
X8315670Y282510D01*
Y350890D01*
X8312500Y354060D01*
Y354190D01*
X8297970Y368720D01*
Y723200D01*
X8298330Y723560D01*
Y777580D01*
X8309140Y788390D01*
Y798070D01*
X8324000Y812930D01*
Y929750D01*
X8328500Y934250D01*
Y1070980D01*
X8360120Y1102600D01*
X8377790D01*
G01X8129150Y535400D02*
X8076450D01*
X8050000Y561850D01*
Y643310D01*
X8052500Y645810D01*
Y714190D01*
X8050000Y716690D01*
Y1180010D01*
X8000000Y1230010D01*
Y1360000D01*
G01X8193560Y2264080D02*
Y2259350D01*
X8147310Y2213100D01*
X8126840D01*
X8093690Y2179950D01*
Y2027440D01*
X8092300Y2026050D01*
Y1598950D01*
X8093690Y1597560D01*
Y1246310D01*
X8180000Y1160000D01*
Y1080000D01*
X8180330Y1079670D01*
Y1073950D01*
X8216140Y1038140D01*
Y836940D01*
X8193200Y814000D01*
X8191850D01*
X8189940Y812090D01*
X8120340D01*
X8120250Y812000D01*
G01X8195510Y2182100D02*
X8139690D01*
X8124690Y2167100D01*
Y2014590D01*
X8123300Y2013200D01*
Y1611800D01*
X8124690Y1610410D01*
Y1259160D01*
X8211000Y1172850D01*
Y1092850D01*
X8211330Y1092520D01*
Y1086800D01*
X8247140Y1050990D01*
Y824090D01*
X8206050Y783000D01*
X8204700D01*
X8202790Y781090D01*
X8196730D01*
X8175640Y760000D01*
X8158300D01*
X8128750Y730450D01*
X8120440D01*
X8119990Y730000D01*
G01X9360000Y1149000D02*
X9369000Y1140000D01*
X9380000D01*
X9400000Y1120000D01*
X9414560D01*
X9420160Y1114400D01*
X9468650D01*
X9527000Y1056050D01*
Y983950D01*
X9489250Y946200D01*
Y699250D01*
X9218500Y428500D01*
Y338500D01*
X9182820Y302820D01*
Y154490D01*
X9197820Y139490D01*
X9221510D01*
X9265500Y175500D01*
G01X9360000Y1067000D02*
X9362000Y1069000D01*
X9374630D01*
X9392630Y1087000D01*
X9396000D01*
X9398000Y1089000D01*
X9401710D01*
X9407310Y1083400D01*
X9455800D01*
X9496000Y1043200D01*
Y996800D01*
X9458250Y959050D01*
Y712100D01*
X9187500Y441350D01*
Y351350D01*
X9151820Y315670D01*
Y141640D01*
X9184970Y108490D01*
X9214310D01*
X9215910Y106530D01*
X9254000Y60000D01*
G01X10270000Y-710000D02*
X10326000Y-766000D01*
X10423200D01*
X10456000Y-733200D01*
Y-731390D01*
X10480500Y-706890D01*
Y-688660D01*
X10510660Y-658500D01*
X10528890D01*
X10553350Y-634040D01*
Y-617810D01*
X10604000Y-567160D01*
Y-546800D01*
X10641000Y-509800D01*
Y1218780D01*
X10772080Y1349860D01*
X10800370D01*
X10820230Y1330000D01*
X10854730D01*
X10868770Y1315960D01*
G01X10310000Y1690000D02*
X10340000Y1660000D01*
Y1648850D01*
X10421000Y1567850D01*
Y1247160D01*
X10176000Y1002160D01*
Y545080D01*
X10091000Y460080D01*
Y355690D01*
X10102500Y344190D01*
Y275810D01*
X10091000Y264310D01*
Y228210D01*
X10139210Y180000D01*
G01X10398110Y178100D02*
X10350000Y226210D01*
Y666150D01*
X10488000Y804150D01*
Y1878100D01*
X10439810Y1926290D01*
Y1926300D01*
X10416110Y1950000D01*
X10360000D01*
G01X10020000Y180000D02*
X10060000Y220000D01*
Y277160D01*
X10071500Y288660D01*
Y331340D01*
X10060000Y342840D01*
Y472930D01*
X10145000Y557930D01*
Y1015010D01*
X10390000Y1260010D01*
Y1555000D01*
X10348110Y1596890D01*
X10326890D01*
X10300000Y1570000D01*
G01X10361760Y1848240D02*
X10405510Y1891990D01*
X10430260D01*
X10457000Y1865250D01*
Y817000D01*
X10319000Y679000D01*
Y241310D01*
X10278900Y201210D01*
Y178100D01*
G01X10400000Y-710000D02*
X10505040Y-604960D01*
X10522350D01*
X10573000Y-554310D01*
Y-533950D01*
X10610000Y-496950D01*
Y1231630D01*
X10759230Y1380860D01*
X10785970D01*
X10859770Y1454660D01*
X10880000D01*
G01X11918000Y172000D02*
Y175070D01*
X11921070Y178140D01*
X11959990D01*
X11969000Y187150D01*
Y367150D01*
X11933000Y403150D01*
Y666050D01*
X11969000Y702050D01*
Y1015590D01*
X11704590Y1280000D01*
X11611820D01*
X11609330Y1277510D01*
X11596720D01*
X11550000Y1230790D01*
G01X12050000Y177000D02*
X12023000D01*
X12000000Y200000D01*
Y380000D01*
X11964000Y416000D01*
Y653200D01*
X12000000Y689200D01*
Y1028440D01*
X11717440Y1311000D01*
X11599230D01*
X11596720Y1313510D01*
X11586490D01*
X11550000Y1350000D01*
G54D11*
X0Y0D03*
X250000Y5460000D03*
X7000000Y0D03*
X12905000Y5460000D03*
X13300000Y0D03*
G54D21*
G01X1060000Y3744520D02*
X664520D01*
X325000Y3405000D01*
Y1779250D01*
X312750Y1767000D01*
X306380D01*
X273000Y1733620D01*
Y1686380D01*
X290000Y1669380D01*
Y270000D01*
X470000Y90000D01*
Y20000D01*
G01X1465000Y-1015000D02*
X1655000Y-825000D01*
Y75000D01*
G01X1590000Y-760000D02*
X1520000Y-690000D01*
Y1040000D01*
X1630730Y1150730D01*
Y1549270D01*
X1600000Y1580000D01*
Y3198000D01*
X1524000Y3274000D01*
G01X1460000Y390000D02*
Y698900D01*
X1467000Y705900D01*
Y993000D01*
X1400000Y1060000D01*
G01X1800000Y1090000D02*
X1857000Y1033000D01*
Y637000D01*
X1695000Y475000D01*
G01X2485000Y3744520D02*
X2294510D01*
X1940000Y3390010D01*
Y2130620D01*
X1933000Y2123620D01*
Y2076380D01*
X1940000Y2069380D01*
Y1470010D01*
X1952500Y1457510D01*
Y1438120D01*
X1957000Y1433620D01*
Y1386380D01*
X1952500Y1381880D01*
Y612500D01*
X1900000Y560000D01*
G01X2949000Y3241000D02*
X2990000Y3200000D01*
Y3067380D01*
X2992000Y3065380D01*
Y1128620D01*
X3007000Y1113620D01*
Y1066380D01*
X3002500Y1061880D01*
Y768120D01*
X3007000Y763620D01*
Y716380D01*
X3002500Y711880D01*
Y692490D01*
X2920000Y609990D01*
Y-319200D01*
X2937500Y-336700D01*
Y-477500D01*
X3050000Y-590000D01*
Y-660000D01*
G01X3600000Y-100000D02*
Y-50800D01*
X3590000Y-40800D01*
Y70000D01*
X3050000Y610000D01*
Y1117290D01*
X3035000Y1132290D01*
Y3744520D01*
G01X3910000D02*
X4030000Y3624520D01*
Y2830010D01*
X3990000Y2790010D01*
Y2280000D01*
X4030000Y2240000D01*
G01X5335000Y3744520D02*
X5080000Y3489520D01*
Y3440320D01*
X4782000Y3142320D01*
Y2415670D01*
X4780320Y2413990D01*
Y2190940D01*
X4773000Y2183620D01*
Y2177250D01*
X4767780Y2172030D01*
Y2147970D01*
X4773000Y2142750D01*
Y2113620D01*
X4763000Y2103620D01*
Y2056380D01*
X4780320Y2039060D01*
Y1519680D01*
X4797000Y1503000D01*
Y1427250D01*
X4802220Y1422030D01*
Y1397970D01*
X4797000Y1392750D01*
Y1317000D01*
X4780320Y1300320D01*
Y650330D01*
X4690000Y560010D01*
Y50000D01*
X4500000Y-140000D01*
Y-390000D01*
G01X4120000Y2260000D02*
X4157980Y2297980D01*
X4177880D01*
X4182900Y2303000D01*
X4186250D01*
X4236250Y2353000D01*
X4241730D01*
X4351250Y2462520D01*
X4357620D01*
X4391000Y2495900D01*
Y2502270D01*
X4440000Y2551270D01*
Y3200000D01*
X4374000Y3266000D01*
G01X5799000Y3281000D02*
X5255910Y2737910D01*
Y2698230D01*
X5260520Y2693620D01*
Y2646380D01*
X5256020Y2641880D01*
Y2273230D01*
X5267500Y2261750D01*
Y2218250D01*
X5257500Y2208250D01*
Y2103120D01*
X5262000Y2098620D01*
Y2051380D01*
X5250000Y2039380D01*
Y1714250D01*
X5282500Y1681750D01*
Y1668120D01*
X5297000Y1653620D01*
Y1606380D01*
X5282500Y1591880D01*
Y1368120D01*
X5287000Y1363620D01*
Y1316380D01*
X5282500Y1311880D01*
Y1042490D01*
X5180000Y939990D01*
Y306670D01*
X4990000Y116670D01*
Y-147380D01*
X4951000Y-186380D01*
Y-233620D01*
X4990000Y-272620D01*
Y-453700D01*
X4893700Y-550000D01*
X4840000D01*
G01X4920000Y-390000D02*
Y-336300D01*
X4910000Y-326300D01*
Y-50000D01*
X4933010Y-26990D01*
Y1253010D01*
X5030000Y1350000D01*
G01X5140000Y3400000D02*
X5102020Y3362020D01*
X5082020D01*
X4999680Y3279680D01*
Y3022280D01*
X5027000Y2994960D01*
Y2888170D01*
X4887000Y2748170D01*
Y2177250D01*
X4900000Y2164250D01*
Y2085750D01*
X4877000Y2062750D01*
Y2056380D01*
X4867000Y2046380D01*
Y23670D01*
X4610000Y-233330D01*
Y-316300D01*
X4600000Y-326300D01*
Y-380000D01*
G01X4828630Y-389820D02*
Y-336120D01*
X4837000Y-327750D01*
Y-53000D01*
X4900000Y10000D01*
Y2032710D01*
X4910000Y2042710D01*
Y2049080D01*
X4933000Y2072080D01*
Y2177920D01*
X4920000Y2190920D01*
Y2690000D01*
X5060000Y2830000D01*
Y3008630D01*
X5032680Y3035950D01*
Y3182690D01*
X5182000Y3332010D01*
Y3342000D01*
X5236520Y3396520D01*
X5246510D01*
X5339000Y3489010D01*
Y3640000D01*
G01X5180000Y-840000D02*
X5214790Y-805210D01*
X5470540D01*
X5518250Y-757500D01*
X5552510D01*
X5887500Y-422510D01*
Y-378250D01*
X5950000Y-315750D01*
Y-190010D01*
X6030000Y-110010D01*
Y164380D01*
X6008000Y186380D01*
Y238620D01*
X6030000Y260620D01*
Y469990D01*
X5987500Y512490D01*
Y521880D01*
X5983000Y526380D01*
Y573620D01*
X5987500Y578120D01*
Y1187500D01*
X6347500Y1547500D01*
Y1561750D01*
X6457980Y1672230D01*
Y1930520D01*
X6420000Y1968500D01*
G01X5090000Y-210000D02*
Y170000D01*
X5230000Y310000D01*
Y930000D01*
X5330000Y1030000D01*
Y1709990D01*
X5377500Y1757490D01*
Y2111310D01*
X5412170Y2145980D01*
Y2147920D01*
X5412500Y2148250D01*
Y2201700D01*
X5433000Y2222200D01*
Y2224620D01*
X5466380Y2258000D01*
X5467920D01*
X5472420Y2262500D01*
X5560000D01*
G01X6480000Y3520000D02*
X6410000Y3450000D01*
Y3159990D01*
X6450000Y3119990D01*
Y2470000D01*
X6243000Y2263000D01*
Y2096320D01*
X6222980Y2076300D01*
Y2017230D01*
X6177500Y1971750D01*
Y1928250D01*
X6197000Y1908750D01*
Y1853620D01*
X6207000Y1843620D01*
Y1796380D01*
X6197000Y1786380D01*
Y1443670D01*
X5954500Y1201170D01*
Y1114500D01*
X5907000Y1067000D01*
Y996380D01*
X5902500Y991880D01*
Y392500D01*
X5787500Y277500D01*
Y243120D01*
X5797000Y233620D01*
Y186380D01*
X5787500Y176880D01*
Y-47360D01*
X5783000Y-51860D01*
Y-183010D01*
X5800000Y-200010D01*
Y-346300D01*
X5810000Y-356300D01*
Y-410000D01*
G01X6490000Y5558000D02*
Y5478000D01*
X6220000Y5208000D01*
Y2420000D01*
X6210000Y2410000D01*
Y2109990D01*
X6122500Y2022490D01*
Y1942490D01*
X6090000Y1909990D01*
Y1383340D01*
X5921500Y1214840D01*
Y1155750D01*
X5842750Y1077000D01*
X5826380D01*
X5793000Y1043620D01*
Y983000D01*
X5700000Y890000D01*
Y480620D01*
X5707000Y473620D01*
Y426380D01*
X5700000Y419380D01*
Y250620D01*
X5683000Y233620D01*
Y186380D01*
X5700000Y169380D01*
Y20000D01*
X5690000Y10000D01*
Y-34860D01*
X5650000Y-74860D01*
Y-140000D01*
X5680000Y-170000D01*
G01X6180000Y-750000D02*
X6420010D01*
X6713000Y-457010D01*
Y-446380D01*
X6746380Y-413000D01*
X6757010D01*
X6795500Y-374510D01*
Y84730D01*
X7019500Y308730D01*
Y540500D01*
X6910000Y650000D01*
G01X6172500Y-667500D02*
X6371270D01*
X6507250Y-531520D01*
X6513620D01*
X6547000Y-498140D01*
Y-491770D01*
X6553000Y-485770D01*
Y-450900D01*
X6587520Y-416380D01*
Y-356380D01*
X6590000Y-353900D01*
Y-74100D01*
X6800000Y135900D01*
Y794000D01*
X6910000Y904000D01*
G01X6500000Y4533450D02*
Y4484250D01*
X6510000Y4474250D01*
Y3960010D01*
X6540000Y3930010D01*
Y3824250D01*
X6542500Y3821750D01*
Y3778250D01*
X6540000Y3775750D01*
Y2187290D01*
X6510000Y2157290D01*
Y2082710D01*
X6540000Y2052710D01*
Y1535750D01*
X6417250Y1413000D01*
X6386330D01*
X6199490Y1226160D01*
Y1137240D01*
X6195570Y1133320D01*
Y1058740D01*
X6199500Y1054810D01*
Y773830D01*
X6364300Y609030D01*
Y211790D01*
X6359800Y207290D01*
Y132710D01*
X6364300Y128210D01*
Y-95700D01*
X6290000Y-170000D01*
G01X6580000Y4100000D02*
Y4046300D01*
X6587560Y4038740D01*
Y2331810D01*
X6573000Y2317250D01*
Y2173620D01*
X6543000Y2143620D01*
Y2096380D01*
X6573000Y2066380D01*
Y1522080D01*
X6430920Y1380000D01*
X6400000D01*
X6232500Y1212500D01*
Y1123580D01*
X6228570Y1119650D01*
Y1072410D01*
X6232500Y1068480D01*
Y787500D01*
X6397300Y622700D01*
Y198120D01*
X6392800Y193620D01*
Y146380D01*
X6417980Y121200D01*
Y-142020D01*
X6380000Y-180000D01*
G01X6790000Y1450000D02*
Y1690000D01*
X6650000Y1830000D01*
Y2015750D01*
X6697250Y2063000D01*
X6703620D01*
X6737000Y2096380D01*
Y2102750D01*
X6815000Y2180750D01*
Y2260000D01*
G01X7290000Y610000D02*
Y659280D01*
X7273880Y675400D01*
Y726130D01*
X7197690Y802320D01*
X7171220D01*
X7137840Y835700D01*
Y882940D01*
X7142500Y887600D01*
Y1080410D01*
X7145090Y1083000D01*
X7153620D01*
X7187000Y1116380D01*
Y1124910D01*
X7201340Y1139250D01*
Y1368660D01*
X6717500Y1852500D01*
Y1911880D01*
X6713000Y1916380D01*
Y1963620D01*
X6717500Y1968120D01*
Y2007510D01*
X6819990Y2110000D01*
X6826300D01*
X6836300Y2120000D01*
X6890000D01*
G01X7235000Y935000D02*
Y988700D01*
X7250000Y1003700D01*
Y1520000D01*
X6920000Y1850000D01*
Y1910000D01*
G01X7560000Y3744520D02*
X7750000Y3554520D01*
Y3090010D01*
X7946500Y2893510D01*
Y2848600D01*
X7951000Y2844100D01*
Y2796860D01*
X7946500Y2792360D01*
Y2693980D01*
X8283480Y2357000D01*
X8323620D01*
X8357000Y2323620D01*
Y2283480D01*
X8527500Y2112980D01*
G01X8592500Y2180000D02*
X8510000D01*
X8390000Y2300000D01*
Y2337290D01*
X8337290Y2390000D01*
X8300000D01*
X7980000Y2710000D01*
Y2779190D01*
X7984000Y2783190D01*
Y2857770D01*
X7979500Y2862270D01*
Y2907180D01*
X7790000Y3096680D01*
Y3624520D01*
X7670000Y3744520D01*
G01X8491430Y301430D02*
Y428570D01*
X8410970Y509030D01*
Y746450D01*
X8417640Y753120D01*
Y796620D01*
X8410000Y804260D01*
Y810000D01*
X8380000Y840000D01*
Y906550D01*
G01X8500000Y-590000D02*
Y-396300D01*
X8550000Y-346300D01*
Y-110620D01*
X8557000Y-103620D01*
Y-56380D01*
X8552500Y-51880D01*
Y81750D01*
X8550000Y84250D01*
Y155750D01*
X8552500Y158250D01*
Y201750D01*
X8550000Y204250D01*
Y266080D01*
X8548430Y267650D01*
Y1018190D01*
X8523620Y1043000D01*
X8476380D01*
X8443000Y1076380D01*
Y1123620D01*
X8476380Y1157000D01*
X8523620D01*
X8552500Y1185880D01*
Y1367500D01*
X8500000Y1420000D01*
G01X8627040Y-442500D02*
Y-388800D01*
X8630000Y-385840D01*
Y-269250D01*
X8667500Y-231750D01*
Y-113120D01*
X8677000Y-103620D01*
Y-56380D01*
X8667500Y-46880D01*
Y-21750D01*
X8590000Y55750D01*
Y347250D01*
X8597500Y354750D01*
Y570000D01*
X8587500Y580000D01*
Y616400D01*
X8583000Y620900D01*
Y668140D01*
X8587500Y672640D01*
Y1067360D01*
X8583000Y1071860D01*
Y1119100D01*
X8590000Y1126100D01*
Y1178770D01*
X8610800Y1199570D01*
Y1203620D01*
X8634790Y1227610D01*
Y1361090D01*
X8639600Y1365900D01*
Y1419600D01*
G01X8880000Y-580000D02*
X8776030Y-476030D01*
Y-138220D01*
X8810000Y-104250D01*
Y196300D01*
X8759060Y247240D01*
Y500290D01*
G01X8730000Y2290000D02*
X8642500Y2377500D01*
Y2692510D01*
X8691500Y2741510D01*
Y2981360D01*
X8752000Y3041860D01*
Y3259900D01*
X8696000Y3315900D01*
Y3363140D01*
X8691500Y3367640D01*
Y3708020D01*
X8655000Y3744520D01*
G01X8950000Y3330000D02*
Y3276300D01*
X8930000Y3256300D01*
Y2970620D01*
X9160620Y2740000D01*
X9220000D01*
X9260000Y2700000D01*
Y2230010D01*
X9272000Y2218010D01*
Y1752000D01*
X9260000Y1740000D01*
Y1020000D01*
X9142500Y902500D01*
X9062980D01*
G01X9000000Y-580000D02*
Y-525460D01*
X9010000Y-515460D01*
Y178840D01*
G01X9120000Y837500D02*
X9187500D01*
X9310000Y960000D01*
Y1034750D01*
X9297500Y1047250D01*
Y1447500D01*
X9310000Y1460000D01*
Y2413670D01*
X9308000Y2415670D01*
Y2750860D01*
X9262000Y2796860D01*
Y2897990D01*
X9162000Y2997990D01*
Y3065380D01*
X9147000Y3080380D01*
Y3086320D01*
X9144000Y3089320D01*
Y3156000D01*
X9040000Y3260000D01*
Y3330000D01*
G01X9947500Y2112980D02*
Y2172000D01*
X9689500Y2430000D01*
X9642830D01*
X9407000Y2665830D01*
Y2862990D01*
X9195000Y3074990D01*
Y3079050D01*
X9180000Y3094050D01*
Y3549520D01*
X8985000Y3744520D01*
G01X10008250Y2168070D02*
X9970270Y2206050D01*
X9960120D01*
X9636170Y2530000D01*
X9589500D01*
X9440000Y2679500D01*
Y2886660D01*
X9213000Y3113660D01*
Y3563190D01*
X9095000Y3681190D01*
Y3744520D01*
G01X10280000Y2220000D02*
X10230800D01*
X10220800Y2210000D01*
X10050800D01*
X9697800Y2563000D01*
X9603170D01*
X9540500Y2625670D01*
Y2714330D01*
X9570000Y2743830D01*
Y3490000D01*
X9315480Y3744520D01*
X9205000D01*
G01X9900000Y1390000D02*
X9720000Y1210000D01*
Y1140620D01*
X9737000Y1123620D01*
Y1076380D01*
X9720000Y1059380D01*
Y670620D01*
X9737000Y653620D01*
Y606380D01*
X9710000Y579380D01*
Y215250D01*
X9706500Y211750D01*
Y168250D01*
X9710000Y164750D01*
Y70250D01*
X9708570Y68820D01*
Y-171430D01*
X9594290Y-285710D01*
X9555290D01*
X9520500Y-320500D01*
G01X9550000Y892000D02*
X9611140Y830860D01*
Y97050D01*
X9649120Y59070D01*
G01X9550000Y810000D02*
Y133700D01*
X9520000Y103700D01*
Y50000D01*
G01X9900000Y-70000D02*
X9835570Y-5570D01*
Y195820D01*
X9870000Y230250D01*
Y603900D01*
X9887000Y620900D01*
Y668140D01*
X9870000Y685140D01*
Y850000D01*
X10030000Y1010000D01*
Y1320800D01*
X10010000Y1340800D01*
Y1390000D01*
G01X10170000Y2280000D02*
Y2370000D01*
X10180000Y2380000D01*
Y3644520D01*
X10080000Y3744520D01*
G01X10783930Y-313070D02*
Y-259370D01*
X10788560Y-254740D01*
Y841440D01*
X10710000Y920000D01*
G01X10790000Y-710000D02*
X10717000Y-637000D01*
Y-546380D01*
X10711420Y-540800D01*
Y810000D01*
G01X10530000Y440000D02*
Y493700D01*
X10520000Y503700D01*
Y1200000D01*
X10624000Y1304000D01*
Y2874000D01*
G01X11387500Y2112980D02*
Y2275830D01*
X10600000Y3063330D01*
Y3340000D01*
X10570000Y3370000D01*
Y3584520D01*
X10410000Y3744520D01*
G01X11452500Y2190000D02*
Y2257500D01*
X10633000Y3077000D01*
Y3631520D01*
X10520000Y3744520D01*
G01X11170000Y-580000D02*
X11290980D01*
X11547000Y-323980D01*
Y-152620D01*
X11630000Y-69620D01*
Y109080D01*
X11577000Y162080D01*
Y933000D01*
X11410000Y1100000D01*
Y1270000D01*
X11290000Y1390000D01*
G01X11298570Y-701430D02*
Y-621430D01*
X11580000Y-340000D01*
Y-166290D01*
X11663000Y-83290D01*
Y122750D01*
X11610000Y175750D01*
Y946670D01*
X11585500Y971170D01*
Y1064500D01*
X11480000Y1170000D01*
Y1321000D01*
X11411000Y1390000D01*
G01X11850000Y920000D02*
X11777500Y847500D01*
Y122500D01*
X11853000Y47000D01*
X11920000D01*
G01X12698460Y1410010D02*
Y1356310D01*
X12707500Y1347270D01*
Y880620D01*
X12727000Y861120D01*
Y813880D01*
X12722500Y809380D01*
Y472500D01*
X12310000Y60000D01*
G01X12180000Y-80000D02*
X12270010D01*
X12780460Y430450D01*
Y1409980D01*
G01X12680000Y4430000D02*
X12610000Y4360000D01*
Y3120000D01*
X12640000Y3090000D01*
Y959520D01*
X12582980Y902500D01*
G01X12880000Y460000D02*
Y579200D01*
X12827500Y631700D01*
Y1327500D01*
X12840000Y1340000D01*
Y1431060D01*
X12830000Y1441060D01*
Y1840000D01*
X12847000Y1857000D01*
Y1913660D01*
X12900000Y1966660D01*
Y2160000D01*
X12820000Y2240000D01*
Y3649990D01*
X12750000Y3719990D01*
Y4040010D01*
X12800000Y4090010D01*
Y4255750D01*
X12802500Y4258250D01*
Y4301750D01*
X12800000Y4304250D01*
Y5140000D01*
G01X13410000Y950000D02*
Y896300D01*
X13424790Y881510D01*
Y674780D01*
X12990000Y239990D01*
Y-295750D01*
X12987500Y-298250D01*
Y-341750D01*
X12990000Y-344250D01*
Y-480000D01*
G01X13010000Y5010000D02*
Y4430000D01*
X12867020Y4287020D01*
Y3817230D01*
X12882500Y3801750D01*
Y3758250D01*
X12860000Y3735750D01*
Y2585620D01*
X12937000Y2508620D01*
Y2461380D01*
X12860000Y2384380D01*
Y2266670D01*
X12940000Y2186670D01*
Y1959990D01*
X12880000Y1899990D01*
Y1650010D01*
X12960000Y1570010D01*
Y1326200D01*
X12939200Y1305400D01*
X12890000D01*
G01X13074350Y4920000D02*
Y4384350D01*
X12990000Y4300000D01*
Y2350620D01*
X12983000Y2343620D01*
Y2296380D01*
X12990000Y2289380D01*
Y1909990D01*
X13040000Y1859990D01*
Y1629990D01*
X12993000Y1582990D01*
Y1312530D01*
X12990000Y1309530D01*
Y1237000D01*
X12953000Y1200000D01*
X12890000D01*
G54D12*
X-33500Y1177000D03*
X-160500D03*
X220500D03*
X100000Y1510000D03*
X-30000Y1507000D03*
X-160000D03*
X230000Y1500000D03*
X-160500Y1963000D03*
X220500D03*
X93500D03*
X-33500D03*
X360000Y1177000D03*
Y1423000D03*
X1013000Y2160000D03*
X1400000Y1060000D03*
X1800000Y1090000D03*
X2443000Y2160000D03*
X3863000D03*
X5350000D03*
X6960000Y-430000D03*
X7316750Y-709520D03*
X7120000Y-700000D03*
X7462000Y-720000D03*
X7389000D03*
X7210000Y-700000D03*
X7440000Y1290000D03*
X7558500Y-771500D03*
X7530000Y-670000D03*
X7991000Y-709000D03*
X7744000Y-700000D03*
X7740000Y-450000D03*
X7524170Y140000D03*
X7590000Y-240000D03*
X7743000Y-80000D03*
X7977910Y66090D03*
X7987000Y-70000D03*
X7865000Y-75000D03*
X7590000Y178000D03*
X7524170Y289000D03*
X7799500Y579500D03*
X7590000Y251000D03*
X8237070Y-714930D03*
X8110070D03*
X8364070Y-587930D03*
X8380000Y-445000D03*
X8360000Y65000D03*
X8122530Y-240660D03*
X8247370Y-76370D03*
X8372500Y-77500D03*
X8370000Y309000D03*
X8233170Y316700D03*
X8119500Y310500D03*
X8002000Y320000D03*
X8745070Y-714930D03*
X8618070D03*
X8495000Y-705000D03*
X8871000Y-700000D03*
X8650000Y70000D03*
X8615000Y-210000D03*
X8500000Y180000D03*
Y60000D03*
X8502500Y-77500D03*
X8644970Y313270D03*
X9253070Y-714930D03*
X9126070D03*
X9000000Y-702000D03*
X9257000Y-330000D03*
X9270000Y-210000D03*
X9123000Y-190000D03*
X9388000Y180000D03*
X9360000Y700000D03*
X9069500Y479500D03*
X9000000Y302000D03*
X9761070Y-714930D03*
X9634070D03*
X9507070Y-587930D03*
X9887000Y-700000D03*
X9761000Y-320000D03*
X9507070Y-79930D03*
X9761070Y47070D03*
X9888070Y174070D03*
X9780000Y-85000D03*
X9759000Y190000D03*
X9774930Y314930D03*
X10142070Y-714930D03*
X10014000Y-700000D03*
X10394000Y-590000D03*
X10155930Y60930D03*
X10028930Y-66070D03*
X10149500Y-199500D03*
X10409930Y-66070D03*
X10022000Y-200000D03*
X10413000Y-210000D03*
X10155930Y314930D03*
X10411000Y300000D03*
X10020000Y310000D03*
X10904070Y-320070D03*
X10650070Y-714930D03*
X10532000Y-710000D03*
X10536930Y-193070D03*
X10904070Y-66070D03*
X10536930Y314930D03*
X11158070Y-714930D03*
X11040000Y-710000D03*
X11298930Y60930D03*
X10917930D03*
Y-193070D03*
X11298930D03*
X11285070Y-66070D03*
X11020000Y320000D03*
X11793070Y-460930D03*
X11666070D03*
Y-714930D03*
X11690000Y170000D03*
X11800000Y-73000D03*
X11410000Y-200000D03*
X11670000Y-210000D03*
X11830000Y650000D03*
X11675000Y310000D03*
X11510000Y610000D03*
X12301070Y-714930D03*
X12174070D03*
Y-460930D03*
X12320000Y-569000D03*
X11930000Y-584000D03*
X12060930Y60930D03*
X12060000Y-79000D03*
X12320000Y-212000D03*
X11920000Y-80000D03*
X12050000Y177000D03*
X11920000Y47000D03*
X11918000Y172000D03*
X12060930Y314930D03*
X12682070Y-714930D03*
X12428070Y-587930D03*
X12550000Y-696000D03*
X12680000Y-572000D03*
X12713500Y-263500D03*
X12700000Y30000D03*
X12420000Y-60000D03*
X12440000Y-195000D03*
X12692000Y-70000D03*
X12562000Y-200000D03*
X12441930Y314930D03*
X12726210Y293790D03*
G54D13*
X680000Y-240000D03*
Y-494000D03*
Y14000D03*
X6910000Y650000D03*
Y396000D03*
Y904000D03*
X13430000Y2683000D03*
Y2429000D03*
Y2937000D03*
Y3191000D03*
Y3526000D03*
Y3780000D03*
Y4034000D03*
G54D14*
X650000Y920000D03*
X13140000Y4030000D03*
G54D15*
X632500Y2920000D03*
Y3420000D03*
Y3890000D03*
X1345000Y2460000D03*
X1825000D03*
X2057500Y3890000D03*
X2770000Y2460000D03*
X3250000D03*
X3482500Y2670000D03*
Y3670000D03*
Y4670000D03*
Y5670000D03*
X4195000Y2460000D03*
X4675000D03*
X4907500Y2920000D03*
Y3420000D03*
Y3890000D03*
X5620000Y2460000D03*
X6100000D03*
X6332500Y3890000D03*
X6797500Y2920000D03*
Y3420000D03*
Y3890000D03*
X7510000Y2460000D03*
X7990000D03*
X8222500Y3890000D03*
X8935000Y2460000D03*
X9415000D03*
X9647500Y2670000D03*
Y3670000D03*
Y4670000D03*
Y5670000D03*
X10360000Y2460000D03*
X10840000D03*
X11072500Y2920000D03*
Y3420000D03*
Y3890000D03*
X11785000Y2460000D03*
X12265000D03*
X12497500Y3890000D03*
G54D16*
X632500Y4170000D03*
Y5170000D03*
Y6170000D03*
X950000Y4670000D03*
X1200000Y6170000D03*
X1490000Y4670000D03*
X2057500Y2670000D03*
Y3670000D03*
Y4670000D03*
Y5670000D03*
X2375000Y4670000D03*
X2625000Y6170000D03*
X2915000Y4670000D03*
X3800000D03*
X4050000Y6170000D03*
X4340000Y4670000D03*
X4907500Y4170000D03*
Y5170000D03*
Y6170000D03*
X5225000Y4670000D03*
X5475000Y6170000D03*
X5765000Y4670000D03*
X6332500Y2670000D03*
Y3670000D03*
Y4670000D03*
Y5670000D03*
X6797500Y4170000D03*
Y5170000D03*
Y6170000D03*
X7115000Y4670000D03*
X7365000Y6170000D03*
X7655000Y4670000D03*
X8222500Y2670000D03*
Y3670000D03*
Y4670000D03*
X8540000D03*
X8222500Y5670000D03*
X8790000Y6170000D03*
X9080000Y4670000D03*
X9965000D03*
X10505000D03*
X10215000Y6170000D03*
X11072500Y4170000D03*
X11390000Y4670000D03*
X11072500Y5170000D03*
Y6170000D03*
X11930000Y4670000D03*
X11640000Y6170000D03*
X12497500Y2670000D03*
Y3670000D03*
Y4670000D03*
Y5670000D03*
G54D17*
X864000Y3080000D03*
X1824000D03*
X2289000D03*
X3249000D03*
X3714000D03*
X4674000D03*
X5139000D03*
X6099000D03*
X7034000D03*
X7994000D03*
X8459000D03*
X9419000D03*
X9884000D03*
X10844000D03*
X11309000D03*
X12269000D03*
G54D18*
X7430000Y-200000D03*
X12868000Y105000D03*
G54D19*
G01X213340Y4762000D02*
X194670Y4776000D01*
X184000Y4788000D01*
X178670Y4804000D01*
X184000Y4818000D01*
X194670Y4828000D01*
X210670Y4836000D01*
X229330Y4838000D01*
X245340Y4836000D01*
X261340Y4828000D01*
X274670Y4816000D01*
X280000Y4802000D01*
X274670Y4786000D01*
X258670Y4772000D01*
X234670Y4764000D01*
X208000Y4762000D01*
X173340Y4766000D01*
X154660Y4772000D01*
X136000Y4782000D01*
X122670Y4796000D01*
X120000Y4810000D01*
X125330Y4824000D01*
X138670Y4834000D01*
G01X10910000Y1949210D02*
X10949040Y1910170D01*
X10957090D01*
X10975760Y1891500D01*
X10982130D01*
X11070000Y1803630D01*
Y1758220D01*
X11051500Y1739720D01*
Y1691240D01*
X11065760Y1676980D01*
Y1336980D01*
X11148500Y1254240D01*
Y1178500D01*
X11070000Y1100000D01*
Y631780D01*
X11024240Y586020D01*
Y509970D01*
X11122500Y411710D01*
Y-413760D01*
X11111000Y-425260D01*
Y-429010D01*
X11040000Y-500010D01*
Y-524830D01*
X11031940Y-532890D01*
Y-588090D01*
G01X10910000Y1830000D02*
X10976480Y1763520D01*
Y1406260D01*
X10978500Y1404240D01*
Y1355760D01*
X10976480Y1353740D01*
Y1346600D01*
X10938500Y1308620D01*
Y1305760D01*
X10927270Y1294530D01*
Y1291720D01*
X10913600Y1278050D01*
Y1270430D01*
X10904000Y1260830D01*
Y618740D01*
X10908500Y614240D01*
Y561500D01*
X11050000Y420000D01*
Y366370D01*
X11074000Y342370D01*
Y297630D01*
X11050000Y273630D01*
Y-400000D01*
X10940000Y-510000D01*
X10934800D01*
X10920000Y-524800D01*
Y-580000D01*
M02*
