M48
METRIC
T01C.3
T02C.8128
T03C.95
T04C1.
T05C1.05
T06C2.7
T07C1.3005
T08C1.55
;LEADER: 12 
;HEADER: 
;CODE  : ASCII 
;FILE  : pc065b_toplevel_06-1-8.drl for  ... layers TOP and BOTTOM
;DESIGN: pc065b_toplevel_06.brd
;T01 Holesize 1. = 0.300000 Tolerance = +0.000000/-0.000000 PLATED MM Quantity = 1156
;T02 Holesize 2. = 0.812800 Tolerance = +0.000000/-0.000000 PLATED MM Quantity = 2
;T03 Holesize 3. = 0.950000 Tolerance = +0.050000/-0.050000 PLATED MM Quantity = 40
;T04 Holesize 4. = 1.000000 Tolerance = +0.000000/-0.000000 PLATED MM Quantity = 13
;T05 Holesize 5. = 1.050000 Tolerance = +0.050000/-0.050000 PLATED MM Quantity = 52
;T06 Holesize 6. = 2.700000 Tolerance = +0.000000/-0.000000 PLATED MM Quantity = 5
;T07 Holesize 7. = 1.300500 Tolerance = +0.000000/-0.000000 NON_PLATED MM Quantity = 2
;T08 Holesize 8. = 1.550000 Tolerance = +0.000000/-0.000000 NON_PLATED MM Quantity = 16
%
G90
T01
X-00200480Y-00700000
X-00200480Y-00880000
X02680000Y-00630000
X02945480Y-00830000
X07010000Y-00930000
X06193750Y-00450000
X06770000Y-00930000
X06330000Y-00920000
X06770000Y-00470000
X00115000Y-00970000
X00450000Y-00554520
X00570000Y-00945000
X06025480Y-00660000
X05375000Y-00935000
X06610000Y-00925480
X06490000Y-00925480
X04727730Y-00550330
X04010000Y-00860000
X11930000Y-00330000
X11800000Y-00710000
X12990000Y-00480000
X07500000Y-00450000
X13410000Y00950000
X11670000Y-00210000
X07210000Y-00700000
X07440000Y01170000
X05093000Y02080000
X03680140Y02084790
X02260000Y02090000
X00824180Y02072970
X07290000Y00610000
X06890000Y02120000
X06719130Y00179130
X06470000Y01081000
X08750000Y-00070000
X00516200Y01174570
X08753000Y00053000
X06719130Y00261130
X06470000Y01163000
X00516200Y01299230
X12820000Y03780000
X12860000Y-00400000
X10530000Y00440000
X10624000Y02874000
X05650000Y-00550000
X07170000Y00320000
X07170000Y00460000
X10280000Y02220000
X05980000Y-00440000
X10230000Y00490000
X06480000Y03520000
X05810000Y-00410000
X06420000Y01968500
X05180000Y-00840000
X07440000Y01088000
X05339000Y03640000
X04828630Y-00389820
X10170000Y02280000
X10270000Y01370000
X05220000Y01080000
X04510000Y-00555000
X06790000Y01450000
X06815000Y02260000
X08730000Y02290000
X05230000Y01340000
X04690000Y-00390000
X05140000Y03400000
X04600000Y-00380000
X12720000Y03560000
X12670000Y03480000
X05416240Y02309520
X05236920Y00087650
X11207900Y02192100
X05580000Y02090000
X05324740Y00310000
X09740000Y02180000
X08119990Y00730000
X08195510Y02182100
X07060000Y01190000
X04670000Y00820000
X03688140Y00705840
X02230000Y01097790
X03790000Y00118000
X00780120Y00578490
X05399880Y02389880
X05236920Y00212310
X11207900Y02274100
X05580000Y02172000
X09740000Y02262000
X05324740Y00411810
X08120250Y00812000
X08193560Y02264080
X07060000Y01272000
X04670000Y00944660
X03688140Y00821850
X02230000Y01222450
X03790000Y00200000
X00780120Y00703150
X03970000Y01897500
X03857500Y00630000
X06332220Y01934500
X04050000Y01960000
X04110000Y00592500
X06250000Y01960000
X04020000Y01800000
X06150000Y01820000
X03930000Y00527500
X07120000Y-00890000
X07020000Y-00700000
X11550000Y-00830000
X06940000Y-00732500
X11420000Y-00840000
X03750000Y00630000
X03830000Y-00390000
X03640000Y-00360000
X05559130Y00596420
X05570000Y00470000
X06640240Y01272000
X07300000Y00070000
X08372500Y-00077500
X06640000Y01190000
X07300640Y-00020860
X08502500Y-00077500
X12562000Y-00200000
X12692000Y-00070000
X12710000Y00200000
X12560000Y-00080000
X05011000Y02079000
X03598140Y02084920
X02178000Y02084800
X00742540Y02080710
X07570000Y02820000
X08995000Y02825000
X10420000Y02810000
X11845000Y02825000
X05675000Y02825000
X04250000Y02820000
X02825000Y02825000
X07420000Y02826820
X08845000Y02825000
X10270000Y02820000
X11695000Y02825000
X05525000Y02826820
X04100000Y02820000
X02675000Y02825000
X06380000Y-00180000
X06580000Y04100000
X06500000Y04533450
X06290000Y-00170000
X03600000Y-00100000
X05540000Y-00200000
X05030000Y01350000
X05550000Y01790000
X06470000Y03360000
X07667000Y03307000
X04920000Y-00390000
X06650000Y03310000
X09121260Y03288950
X05008000Y-00210000
X05560000Y02262500
X06430000Y02270000
X10500000Y03304000
X05090000Y-00210000
X06644560Y03464610
X06650000Y03200000
X11969000Y03291000
X05210000Y-00210000
X05799000Y03281000
X04840000Y-00550000
X04120000Y02260000
X04374000Y03266000
X05060000Y-00555000
X03050000Y-00660000
X02949000Y03241000
X04910000Y-00690000
X12910000Y00837500
X12730000Y04290000
X12890000Y01200000
X13074350Y04920000
X13030000Y00480000
X12891540Y05079500
X12680000Y04430000
X12890000Y01305400
X13010000Y05010000
X12880000Y00460000
X12800000Y05140000
X08248050Y00171780
X08377790Y01102600
X08277500Y01102500
X08239140Y00062270
X04500000Y-00390000
X04030000Y02240000
X04360000Y-00180000
X03400000Y-00200000
X03330000Y00430000
X01900000Y00560000
X04274500Y-00170000
X09900000Y-00070000
X09140000Y-00070000
X04570000Y00050000
X09360000Y01067000
X09254000Y00060000
X04277290Y01399990
X08759060Y00500290
X08880000Y-00580000
X09078000Y01140000
X02808370Y01350000
X12780460Y01409980
X12180000Y-00080000
X11850000Y00820000
X03365820Y01182790
X11550000Y01230790
X11918000Y00172000
X07130020Y02070690
X01392780Y01345810
X07590000Y00178000
X08500000Y00060000
X11970000Y01370000
X01892170Y01186970
X07020000Y01844500
X10910000Y01830000
X10920000Y-00580000
X07235000Y00935000
X06920000Y01910000
X10361760Y01848240
X10278900Y00178100
X09027110Y01853080
X10397000Y-00460000
X11298570Y-00701430
X10020000Y00180000
X10300000Y01570000
X07490000Y01865110
X08627040Y-00442500
X09890000Y-00459000
X09520000Y00050000
X09550000Y00810000
X05660000Y01550000
X09374190Y01275410
X10790000Y-00710000
X09520500Y-00320500
X09138500Y00048500
X04570000Y00132000
X09265500Y00175500
X09360000Y01149000
X04359290Y01400210
X09010000Y00178840
X09000000Y-00580000
X08491430Y00301430
X09160000Y01140000
X02933030Y01350000
X12310000Y00060000
X12698460Y01410010
X11920000Y00047000
X11850000Y00920000
X03365820Y01307450
X11550000Y01350000
X12050000Y00177000
X07127790Y01988720
X01517440Y01345810
X07590000Y00251000
X08500000Y00180000
X12089210Y01370000
X01892170Y01311630
X06770000Y01940000
X11031940Y-00588090
X10910000Y01949210
X10360000Y01950000
X09020000Y01974660
X10398110Y00178100
X11170000Y-00580000
X10527000Y-00457000
X10139210Y00180000
X10310000Y01690000
X07490000Y01989770
X08500000Y-00590000
X10016000Y-00460000
X09649120Y00059070
X09550000Y00892000
X05578000Y01550000
X09372610Y01357400
X09761000Y-00320000
X10783930Y-00313070
X07810000Y-01000000
X03429930Y-00979920
X07865000Y-00075000
X07929210Y-01000000
X03339930Y-00925260
X07987000Y-00070000
X07810000Y01410000
X07580000Y01410000
X04820000Y02080000
X05205000Y02075000
X03930000Y02100000
X03360000Y02140000
X02550000Y01930000
X01990000Y02100000
X01030000Y01990000
X00420000Y02030000
X13050000Y03040000
X12960000Y01770000
X06650000Y01640000
X05240000Y01630000
X04629460Y01630000
X03860000Y01590000
X03320000Y01820000
X02470000Y01590000
X01740000Y01810000
X01040000Y01730000
X00330000Y01710000
X08390000Y01010000
X07810000Y00680000
X07530000Y00710000
X05350000Y02160000
X01340000Y-00041220
X01340000Y-00165880
X02610000Y-00020000
X01400000Y02820000
X01260000Y02820000
X06490000Y05558000
X05680000Y-00170000
X01590000Y-00760000
X01524000Y03274000
X05030000Y-00800000
X09040000Y03330000
X06530000Y05810000
X06480170Y03797680
X06645000Y03795000
X08950000Y03330000
X06520000Y05920000
X01700000Y00230000
X01430000Y00070000
X00950000Y00050000
X00870000Y-00250000
X00180000Y00590000
X00370000Y00070000
X00230000Y00900000
X06960000Y-00430000
X11920000Y-00080000
X00230000Y01500000
X06470000Y01590000
X12178000Y-00330000
X12431000Y-00331000
X04205000Y-00850000
X12697500Y-00462500
X05630000Y-00810000
X07060000Y01600000
X12570000Y-00580000
X07195000Y00705000
X06090000Y-00090000
X06480000Y00250000
X05580000Y01020000
X07194840Y00859320
X05710000Y01020000
X06339800Y00820000
X04122500Y00462500
X05017500Y00462500
X05413880Y-00862800
X02030000Y02270000
X08520000Y02570000
X04480000Y03990200
X04260000Y03990200
X04120000Y03990200
X02610000Y00350000
X02620000Y-00390000
X01845000Y-00690000
X13145290Y01479500
X13210000Y02330000
X13410000Y01640000
X13410000Y02130000
X00470000Y00020000
X02850000Y-00020000
X01491150Y-00750000
X06172500Y-00667500
X06070000Y-00870000
X04390000Y-00870000
X01695000Y00475000
X01800000Y01090000
X01400000Y01060000
X06180000Y-00750000
X01650000Y-00970000
X04890000Y-00880000
X05810000Y-00790000
X01460000Y00390000
X01300000Y-00740000
X03690000Y-00890000
X01320000Y-00260000
X12980030Y-00762000
X02510000Y-00752000
X03037600Y-00436790
X10270000Y-00710000
X10868770Y01315960
X03000080Y-00201930
X09387010Y00317490
X07917900Y01361000
X03254940Y-00006970
X08133640Y00453520
X05410000Y-00080000
X05870000Y01360000
X04530000Y00285340
X03146100Y00663990
X01410000Y00830000
X12980000Y-00680000
X02510000Y-00670000
X03040070Y-00354820
X10400000Y-00710000
X10880000Y01454660
X09390000Y00430000
X02996940Y-00119980
X03255010Y00075030
X08000000Y01360000
X08129150Y00535400
X05970000Y01360000
X05300000Y-00080000
X04530000Y00410000
X03146100Y00780000
X01410000Y00729520
X02880000Y-00480000
X00952640Y00149500
X01080000Y00850000
X08120000Y01052000
X07389000Y-00720000
X08002000Y00320000
X00882170Y-00677330
X00952860Y00231500
X01080000Y00730790
X08120000Y00970000
X00882170Y-00552670
X07462000Y-00720000
X08119500Y00310500
X01655000Y00075000
X01465000Y-01015000
X01895000Y00460000
X02245000Y00450000
X02186790Y-00413500
X02245000Y-00465000
X02100000Y-00660000
X02120500Y-00462430
X02560000Y00130000
X02100000Y00450000
X02740000Y-00230000
X02740000Y-00070000
X02740000Y00300000
X02190000Y00740000
X08247370Y-00076370
X08380000Y-00445000
X10020000Y00310000
X09759000Y00190000
X08644970Y00313270
X11410000Y-00200000
X08615000Y-00210000
X11800000Y-00073000
X12440000Y-00195000
X09388000Y00180000
X09000000Y00302000
X09069500Y00479500
X09360000Y00700000
X10411000Y00300000
X11020000Y00320000
X11510000Y00610000
X11675000Y00310000
X11690000Y00170000
X11830000Y00650000
X12726210Y00293790
X12420000Y-00060000
X12700000Y00030000
X12713500Y-00263500
X12320000Y-00212000
X12060000Y-00079000
X10413000Y-00210000
X10022000Y-00200000
X09780000Y-00085000
X09123000Y-00190000
X09270000Y-00210000
X09257000Y-00330000
X08650000Y00070000
X08122530Y-00240660
X08233170Y00316700
X08370000Y00309000
X08360000Y00065000
X07977910Y00066090
X07799500Y00579500
X07743000Y-00080000
X07590000Y-00240000
X07740000Y-00450000
X07744000Y-00700000
X07558500Y-00771500
X08871000Y-00700000
X09000000Y-00702000
X10394000Y-00590000
X10532000Y-00710000
X11040000Y-00710000
X11930000Y-00584000
X12320000Y-00569000
X12680000Y-00572000
X12550000Y-00696000
X09887000Y-00700000
X10014000Y-00700000
X07991000Y-00709000
X08495000Y-00705000
X10149500Y-00199500
X07120000Y-00700000
X07530000Y-00670000
X07316750Y-00709520
X07524170Y00140000
X07524170Y00289000
X00100000Y01510000
X08160000Y00890000
X09215000Y01969000
X13050000Y-00590000
X07950000Y00680000
X05320000Y01800000
X09131000Y-00579000
X11689000Y02534000
X05570000Y00805000
X02455000Y01865000
X08244970Y-00596280
X08688500Y00458500
X07741000Y00059000
X04580000Y01840000
X03140000Y00120000
X09259500Y-00580500
X07690000Y01360000
X07414000Y02534000
X08839000Y02534000
X03865000Y01865000
X02640000Y02500000
X09638000Y-00330000
X03320640Y01412600
X08117000Y-00073000
X01845000Y01915000
X09381500Y00048500
X01900000Y01410000
X11169500Y-00449500
X07986000Y-00450000
X05740000Y00210000
X07590000Y-00460000
X12190000Y-00200000
X05514080Y02522930
X13510000Y01260000
X12386000Y00230000
X04070000Y02505000
X02484300Y01814300
X10280000Y-00450000
X08625570Y-00594290
X12312000Y-00458000
X12430000Y-00459000
X01850000Y01850000
X04700000Y01840000
X08880000Y-00320000
X09640000Y-00580000
X11298000Y-00448000
X10660000Y-00570000
X01085000Y01815000
X11549500Y-00069500
X05490000Y02201000
X05480000Y02060000
X08250000Y-00448000
X00427700Y01862300
X01035110Y01866860
X00510000Y01830000
X11211000Y-00281000
X07630000Y00670000
X10530000Y00181000
X12938430Y-00832670
X10911500Y-00708500
X03410000Y01830000
X10264000Y02534000
X00420000Y01930000
X10786490Y-00443020
X08750000Y-00590000
X03897600Y01767600
X03265000Y01915000
X07710000Y00670000
X09773500Y-00586500
X06065000Y00210000
X08200000Y00700000
X08297520Y02159000
X06354170Y01229000
X11095180Y02299000
X10143000Y-00460000
X09660000Y02300000
X06630000Y00140000
X11095180Y02150000
X07130000Y01320000
X07130000Y01140000
X06370000Y01050000
X09050000Y01060000
X09200000Y01060000
X05350000Y02260000
X06560000Y00190000
X09440000Y01020000
X09443360Y01170400
X04480000Y00030000
X09659460Y02151000
X08300000Y02300000
X09475830Y01241000
X09475830Y01390000
X00470000Y01410000
X05494950Y02409120
X06720000Y01160000
X06720000Y01303000
X08115500Y-00455500
X06270000Y01590000
X-00060000Y00740000
X07205830Y01963520
X03090000Y-00250000
X03100000Y-00090000
X00860000Y00240000
X02580000Y-00600000
X03870000Y00050000
X02600000Y-00790000
X03860000Y00260000
X03330000Y-00040000
X03330000Y00120000
X12060000Y-00705500
X08887910Y00045090
X03120000Y-00330000
X08620000Y-00080000
X06680000Y02120000
X06600000Y02120000
X04239360Y01323540
X13170000Y01770000
X04480000Y00170000
X04740000Y01410000
X13160000Y02120000
X07400000Y02000000
X07400000Y01870000
X10920000Y01380000
X07260390Y-00092310
X07205830Y02112520
X07260000Y00150000
X13140000Y01600000
X01220000Y02510000
X02220000Y01840000
X00441750Y01342220
X03640000Y01840000
X00441750Y01131580
X00780000Y01840000
X03280000Y01160000
X03280000Y01320000
X01790000Y01180000
X01790000Y01320000
X01140000Y00930000
X01000000Y00790000
X07680000Y01120000
X08210000Y00490000
X08940000Y01902300
X04607110Y00257420
X00705670Y00746140
X04590000Y00470000
X00540000Y00530000
X00540000Y00720000
X02140000Y01160000
X06449800Y00170000
X05850000Y01020000
X06460000Y00820000
X06285570Y01096030
X09450000Y00370000
X05017500Y00657500
X00450000Y-00080000
X03100000Y-00490000
X05335000Y-00210000
X04101350Y-00208650
X04180000Y-00530000
X02747580Y01289210
X01380000Y01250000
X00705670Y00535500
X01530000Y01250000
X05641050Y00600050
X05650000Y00450000
X04723290Y00755940
X06040000Y00550000
X02155550Y01265440
X00950000Y-00480000
X00960000Y-00750000
X00860000Y00150000
X02020000Y-00100000
X01840000Y-00280000
X02200000Y-00100000
X02265000Y02850000
X08435000Y02830000
X03590000Y00820000
X05050000Y01840000
X03590000Y00700000
X01840000Y-00100000
X02020000Y00080000
X04670000Y02090000
X05360000Y-00530000
X04388380Y01323540
X03240000Y00660000
X01840000Y00080000
X03240000Y00790000
X02200000Y-00280000
X02200000Y00080000
X02020000Y-00280000
X13074520Y03310000
X12919520Y03160000
X02480000Y01290000
X02480000Y00814800
X-00210480Y00390000
X-00070000Y00250000
X02635000Y00570000
X-00210480Y00900000
X03035480Y00320000
X00080000Y-00495480
X02830000Y00740000
X02830000Y01090000
X02295000Y00740000
X02124520Y00840000
X02950000Y00740000
X02950000Y01090000
X00759520Y02625000
X00759520Y02715000
X00840000Y03629520
X01400000Y03065480
X01250000Y03220480
X01100000Y03065480
X13072500Y02547500
X13040000Y02320000
X13074520Y02950000
X12919520Y02800000
X02265000Y03629520
X02825000Y03065480
X02675000Y03220480
X02525000Y03065480
X03609520Y02625000
X03609520Y02715000
X03690000Y03629520
X04250000Y03065480
X04100000Y03220480
X03950000Y03065480
X05034520Y02625000
X05034520Y02715000
X05115000Y03629520
X05675000Y03065480
X05525000Y03220480
X05375000Y03065480
X11204520Y02625000
X11204520Y02715000
X11285000Y03629520
X11845000Y03065480
X11695000Y03220480
X11545000Y03065480
X09779520Y02625000
X09779520Y02715000
X09860000Y03629520
X10420000Y03065480
X10270000Y03220480
X10120000Y03065480
X08435000Y03629520
X08995000Y03065480
X08845000Y03220480
X08695000Y03065480
X06929520Y02625000
X06929520Y02715000
X07010000Y03629520
X07570000Y03065480
X07420000Y03220480
X07270000Y03065480
X06644520Y-00380000
X06895480Y-00380000
X08667800Y01180000
X08749800Y01180000
X08995480Y01180000
X09845480Y01180000
X09929800Y01180000
X10175480Y01180000
X11015480Y01180000
X11090000Y01230000
X11345480Y01180000
X12185480Y01180000
X12269800Y01180000
X12515480Y01180000
X08179300Y01635000
X08020000Y01840000
X08179300Y01990000
X09670000Y01715480
X09540000Y01830000
X09590000Y01980000
X11110000Y01715480
X11000000Y01950000
X11110000Y02045480
X12430000Y01715480
X12340000Y01875000
X12430000Y02045480
X05460000Y-00495000
X04290000Y-00485000
X07450000Y00940000
X00360000Y01177000
X00360000Y01423000
X01013000Y02160000
X02443000Y02160000
X03863000Y02160000
X07440000Y01290000
X-00033500Y01963000
R02X00127000
X00220500Y01177000
X-00160500Y01177000
X-00033500Y01177000
X-00160500Y01963000
X09062980Y00772500
X08353970Y00700000
X08380000Y00906550
X08500000Y01100000
X09120000Y00837500
X09062980Y00902500
X08940000Y01090000
X08490000Y00670000
X10242980Y00772500
X10330000Y00837500
X10242980Y00902500
X09680000Y01100000
X10120000Y01090000
X09680000Y00630000
X11412980Y00772500
X11500000Y00837500
X11412980Y00902500
X10711420Y00810000
X10710000Y00920000
X10845000Y01105000
X11290000Y01090000
X10850000Y00590000
X12582980Y00772500
X12670000Y00837500
X12582980Y00902500
X12020000Y01100000
X12460000Y01090000
X12020000Y00630000
X08657500Y02112980
X08592500Y02180000
X08527500Y02112980
X08639600Y01419600
X08500000Y01420000
X08330000Y01550000
X08340000Y01990000
X08800000Y01550000
X10077500Y02112980
X10008250Y02168070
X09947500Y02112980
X10010000Y01390000
X09900000Y01390000
X09750000Y01550000
X09760000Y01990000
X10130000Y01410000
X11520240Y02110240
X11452500Y02190000
X11387500Y02112980
X11411000Y01390000
X11290000Y01390000
X11190000Y01550000
X11200000Y01990000
X11660000Y01550000
X12837500Y02112980
X12772500Y02200000
X12707500Y02112980
X12510000Y01550000
X12520000Y01990000
X12900000Y01390000
X09888070Y00174070
X09761070Y00047070
X09507070Y-00079930
X08364070Y-00587930
X08110070Y-00714930
X08237070Y-00714930
X08618070Y-00714930
X08745070Y-00714930
X09126070Y-00714930
X09253070Y-00714930
X09507070Y-00587930
X09634070Y-00714930
X09761070Y-00714930
X10142070Y-00714930
R03X00508000
X11666070Y-00460930
X11793070Y-00460930
X12174070Y-00460930
X12428070Y-00587930
X12174070Y-00714930
X12301070Y-00714930
X12682070Y-00714930
X11285070Y-00066070
X11298930Y-00193070
X10917930Y-00193070
X10904070Y-00320070
X10904070Y-00066070
X10409930Y-00066070
X10536930Y-00193070
X10028930Y-00066070
X10155930Y00060930
X09774930Y00314930
R02X00381000
X10917930Y00060930
X11298930Y00060930
X12060930Y00060930
X12060930Y00314930
X12441930Y00314930
X00928520Y02670000
X01484000Y02519520
X01724000Y02820480
X01684000Y03339520
X01044000Y03339520
X00964000Y03339520
X02353520Y02670000
X02909000Y02519520
X03149000Y02820480
X03109000Y03339520
X02469000Y03339520
X02389000Y03339520
X03778520Y02670000
X04334000Y02519520
X04574000Y02820480
X04534000Y03339520
X03894000Y03339520
X03814000Y03339520
X05203520Y02670000
X05759000Y02519520
X05999000Y02820480
X05959000Y03339520
X05319000Y03339520
X05230000Y03290000
X11929000Y02519520
X12169000Y02820480
X12129000Y03339520
X11489000Y03339520
X11409000Y03339520
X11373520Y02670000
X09948520Y02670000
X10504000Y02519520
X10744000Y02820480
X10704000Y03339520
X10064000Y03339520
X09984000Y03339520
X08523520Y02670000
X09079000Y02519520
X09319000Y02820480
X09279000Y03339520
X08639000Y03339520
X08559000Y03339520
X07098520Y02670000
X07654000Y02519520
X07894000Y02820480
X07854000Y03339520
X07214000Y03339520
X07134000Y03339520
X-00185480Y00590000
X02600000Y01300000
X02680000Y00740000
X-00202980Y-00515000
X01510000Y03041760
X00990000Y03031760
X02935000Y03041760
X02415000Y03031760
X04360000Y03041760
X03840000Y03031760
X05785000Y03041760
X05265000Y03031760
X11955000Y03041760
X11435000Y03031760
X10530000Y03041760
X10010000Y03031760
X09105000Y03041760
X08585000Y03031760
X07680000Y03041760
X07160000Y03031760
X01350000Y00390000
X01690000Y00775480
X01064520Y00030000
X01580000Y00775480
X01800000Y00775480
X02945480Y-00630000
X02050000Y00775480
X01054520Y-00450000
X01054520Y-00340000
X01356520Y02246000
X01862480Y02245000
X01610000Y03744520
X01610000Y03995480
X01060000Y03995480
X01060000Y03744520
X01270000Y03990200
X01280000Y03744520
X01390000Y03744520
X01410000Y03990200
X01500000Y03744520
X01490000Y03990200
X01170000Y03744520
X01170000Y03995480
X07870000Y00180000
X02781520Y02246000
X03287480Y02245000
X03035000Y03744520
X03050000Y03990200
X02485000Y03744520
X02485000Y03995480
X02705000Y03744520
X02700000Y03990200
X02815000Y03744520
X02830000Y03990200
X02925000Y03744520
X02920000Y03990200
X02595000Y03744520
X02595000Y03995480
X04206520Y02246000
X04712480Y02245000
X04460000Y03744520
X03910000Y03744520
X03910000Y03995480
X04130000Y03744520
R02X00110000
X04350000Y03995480
X04020000Y03744520
X04020000Y03995480
X05660000Y02246000
X06137480Y02245000
X05885000Y03744520
X05889000Y03990200
X05335000Y03744520
X05335000Y03995480
X05555000Y03744520
X05555000Y03995480
X05665000Y03744520
X05680000Y03990200
X05775000Y03744520
X05775000Y03995480
X05445000Y03744520
X05445000Y03995480
X06660000Y00470000
X06660000Y00360000
X05840000Y-00075480
X05950000Y-00075480
X05510000Y-00075480
X05590000Y-00080000
X05726000Y-00089450
X06660000Y00670000
X06050000Y-00340000
X11801520Y02246000
X12307480Y02245000
X12055000Y03744520
X12055000Y03995480
X11505000Y03744520
X11505000Y03995480
X11725000Y03744520
X11725000Y03995480
X11835000Y03744520
X11835000Y03995480
X11945000Y03744520
X11945000Y03995480
X11615000Y03744520
X11615000Y03995480
X10376520Y02246000
X10882480Y02245000
X10630000Y03744520
X10630000Y03995480
X10080000Y03744520
X10080000Y03995480
X10300000Y03744520
X10300000Y03995480
X10410000Y03744520
X10410000Y03995480
X10520000Y03744520
X10520000Y03995480
X10190000Y03744520
X10190000Y03995480
X08951520Y02246000
X09457480Y02245000
X09205000Y03744520
X09205000Y03995480
X08655000Y03744520
X08655000Y03995480
X08875000Y03744520
X08875000Y03995480
X08985000Y03744520
X08985000Y03995480
X09095000Y03744520
X09095000Y03995480
X08765000Y03744520
X08765000Y03995480
X07526520Y02246000
X08032480Y02245000
X07780000Y03744520
X07780000Y03995480
X07230000Y03744520
X07230000Y03995480
X07450000Y03744520
X07450000Y03995480
X07560000Y03744520
X07560000Y03995480
X07670000Y03744520
X07670000Y03995480
X07340000Y03744520
X07340000Y03995480
X06610000Y-00474520
X06490000Y-00474520
X08640000Y00644520
X08640000Y01095480
X08790000Y00654300
X08790000Y01095480
X09830000Y00644520
X09830000Y01095480
X09970000Y00644520
X09970000Y01095480
X11000000Y00644520
X11000000Y01095480
X11150000Y00644520
X11150000Y01095480
X12170000Y00644520
X12170000Y01095480
X12320000Y00644520
X12320000Y01095480
X08790000Y01720000
X08339800Y01720000
X08785480Y01840000
X08334520Y01840000
X10210000Y01720000
X09759800Y01720000
X10205480Y01840000
X09754520Y01840000
X11645480Y01690000
X11194520Y01690000
X11645480Y01840000
X11190000Y01910000
X12955700Y01700000
X12514520Y01700000
X12955700Y01860000
X12517500Y01927500
X13340000Y00684520
X13190000Y00550000
X-00160000Y01507000
X-00030000Y01507000
X00445000Y00920000
X00350000Y00920000
X00370000Y00310000
X01359520Y02090000
X01860480Y02090000
X02784520Y02090000
X03285480Y02090000
X04240000Y02090000
X05680000Y02080000
X06070000Y02080000
X11804520Y02090000
X12305480Y02090000
X10379520Y02090000
X10880480Y02090000
X08954520Y02090000
X09455480Y02090000
X07529520Y02090000
X08030480Y02090000
X13500000Y01479500
X13202500Y00951920
X13130000Y01260000
X13490000Y00560000
T02
X00650000Y00920000
X13140000Y04030000
T03
X03482500Y05670000
X03482500Y04670000
X00632500Y03890000
X02057500Y03890000
X04907500Y03890000
X06332500Y03890000
X00632500Y03420000
X03482500Y03670000
X04907500Y03420000
X00632500Y02920000
X04907500Y02920000
X01345000Y02460000
X01825000Y02460000
X02770000Y02460000
X03482500Y02670000
X03250000Y02460000
X04195000Y02460000
X04675000Y02460000
X05620000Y02460000
X06100000Y02460000
X09647500Y05670000
X09647500Y04670000
X06797500Y03890000
X08222500Y03890000
X11072500Y03890000
X12497500Y03890000
X06797500Y03420000
X09647500Y03670000
X11072500Y03420000
X06797500Y02920000
X11072500Y02920000
X07510000Y02460000
X07990000Y02460000
X08935000Y02460000
X09647500Y02670000
X09415000Y02460000
X10360000Y02460000
X10840000Y02460000
X11785000Y02460000
X12265000Y02460000
T04
X06910000Y00396000
R02Y00254000
X00680000Y-00494000
R02Y00254000
X13430000Y04034000
R02Y-00254000
X13430000Y02429000
R03Y00254000
T05
X00632500Y06170000
X01200000Y06170000
X02625000Y06170000
X04050000Y06170000
X04907500Y06170000
X05475000Y06170000
X02057500Y05670000
X06332500Y05670000
X00632500Y05170000
X04907500Y05170000
X00950000Y04670000
X01490000Y04670000
X02057500Y04670000
X02375000Y04670000
X02915000Y04670000
X03800000Y04670000
X04340000Y04670000
X05225000Y04670000
X05765000Y04670000
X06332500Y04670000
X00632500Y04170000
X04907500Y04170000
X02057500Y03670000
X06332500Y03670000
X02057500Y02670000
X06332500Y02670000
X06797500Y06170000
X07365000Y06170000
X08790000Y06170000
X10215000Y06170000
X11072500Y06170000
X11640000Y06170000
X08222500Y05670000
X12497500Y05670000
X06797500Y05170000
X11072500Y05170000
X07115000Y04670000
X07655000Y04670000
X08222500Y04670000
X08540000Y04670000
X09080000Y04670000
X09965000Y04670000
X10505000Y04670000
X11390000Y04670000
X11930000Y04670000
X12497500Y04670000
X06797500Y04170000
X11072500Y04170000
X08222500Y03670000
X12497500Y03670000
X08222500Y02670000
X12497500Y02670000
T06
X12905000Y05460000
X00250000Y05460000
X13300000Y00000000
X07000000Y00000000
X00000000Y00000000
T07
X07430000Y-00200000
X12868000Y00105000
T08
X01824000Y03080000
X00864000Y03080000
X03249000Y03080000
X02289000Y03080000
X04674000Y03080000
X03714000Y03080000
X06099000Y03080000
X05139000Y03080000
X12269000Y03080000
X11309000Y03080000
X10844000Y03080000
X09884000Y03080000
X09419000Y03080000
X08459000Y03080000
X07994000Y03080000
X07034000Y03080000
M30
