G04 ================== begin FILE IDENTIFICATION RECORD ==================*
G04 Layout Name:  pc065d_fibv2a_toplevel_29.brd*
G04 Film Name:    art_pc065d_BOHR*
G04 File Format:  Gerber RS274X*
G04 File Origin:  Cadence Allegro 24.1-P001*
G04 Origin Date:  Mon Aug  4 17:24:06 2025*
G04 *
G04 Layer:  MANUFACTURING/NCDRILL_LEGEND*
G04 Layer:  MANUFACTURING/NCDRILL_FIGURE*
G04 Layer:  MANUFACTURING/NCLEGEND-1-8*
G04 Layer:  DRAWING FORMAT/OUTLINE*
G04 Layer:  DRAWING FORMAT/TITLE_BLOCK*
G04 Layer:  DRAWING FORMAT/TITLE_DATA*
G04 Layer:  DRAWING FORMAT/REVISION_BLOCK*
G04 Layer:  DRAWING FORMAT/REVISION_DATA*
G04 Layer:  BOARD GEOMETRY/DESIGN_OUTLINE*
G04 *
G04 Offset:    (0.000 0.000)*
G04 Mirror:    No*
G04 Mode:      Positive*
G04 Rotation:  0*
G04 FullContactRelief:  No*
G04 UndefLineWidth:     0.500*
G04 ================== end FILE IDENTIFICATION RECORD ====================*
%FSLAX35Y35*MOMM*%
%IR0*IPPOS*OFA0.00000B0.00000*MIA0B0*SFA1.00000B1.00000*%
%AMMACRO18*
1,1,.5,0.0,.508*
20,1,.5,0.0,.508,.439941,-.254,0.0*
1,1,.5,.439941,-.254*
20,1,.5,.439941,-.254,-.439941,-.254,0.0*
1,1,.5,-.439941,-.254*
20,1,.5,-.439941,-.254,0.0,.508,0.0*
1,1,.5,0.0,.508*
1,1,.5,-.178,-.254*
20,1,.5,-.178,-.254,-.178,.254,0.0*
1,1,.5,-.178,.254*
1,1,.5,.178,.254*
20,1,.5,.178,.254,.178,-.254,0.0*
1,1,.5,.178,-.254*
1,1,.5,.178,0.0*
20,1,.5,.178,0.0,-.178,0.0,0.0*
1,1,.5,-.178,0.0*
%
%ADD18MACRO18*%
%AMMACRO10*
1,1,.5,.7,0.0*
20,1,.5,.7,0.0,-.7,0.0,0.0*
1,1,.5,-.7,0.0*
1,1,.5,0.0,.7*
20,1,.5,0.0,.7,0.0,-.7,0.0*
1,1,.5,0.0,-.7*
%
%ADD10MACRO10*%
%AMMACRO16*
1,1,.5,.508,.508*
20,1,.5,.508,.508,.508,-.508,0.0*
1,1,.5,.508,-.508*
20,1,.5,.508,-.508,-.508,-.508,0.0*
1,1,.5,-.508,-.508*
20,1,.5,-.508,-.508,-.508,.508,0.0*
1,1,.5,-.508,.508*
20,1,.5,-.508,.508,.508,.508,0.0*
1,1,.5,.508,.508*
%
%ADD16MACRO16*%
%AMMACRO13*
1,1,.5,.289949,-.7*
20,1,.5,.289949,-.7,-.289949,-.7,0.0*
1,1,.5,-.289949,-.7*
20,1,.5,-.289949,-.7,-.7,-.289949,0.0*
1,1,.5,-.7,-.289949*
20,1,.5,-.7,-.289949,-.7,.289949,0.0*
1,1,.5,-.7,.289949*
20,1,.5,-.7,.289949,-.289949,.7,0.0*
1,1,.5,-.289949,.7*
20,1,.5,-.289949,.7,.289949,.7,0.0*
1,1,.5,.289949,.7*
20,1,.5,.289949,.7,.7,.289949,0.0*
1,1,.5,.7,.289949*
20,1,.5,.7,.289949,.7,-.289949,0.0*
1,1,.5,.7,-.289949*
20,1,.5,.7,-.289949,.289949,-.7,0.0*
1,1,.5,.289949,-.7*
1,1,.5,-.496,-.297*
20,1,.5,-.496,-.297,-.496,.298,0.0*
1,1,.5,-.496,.298*
20,1,.5,-.496,.298,-.258,.298,0.0*
1,1,.5,-.258,.298*
20,1,.5,-.258,.298,-.178,.268,0.0*
1,1,.5,-.178,.268*
20,1,.5,-.178,.268,-.119,.199,0.0*
1,1,.5,-.119,.199*
20,1,.5,-.119,.199,-.099,.12,0.0*
1,1,.5,-.099,.12*
20,1,.5,-.099,.12,-.119,.04,0.0*
1,1,.5,-.119,.04*
20,1,.5,-.119,.04,-.169,-.019,0.0*
1,1,.5,-.169,-.019*
20,1,.5,-.169,-.019,-.258,-.049,0.0*
1,1,.5,-.258,-.049*
20,1,.5,-.258,-.049,-.496,-.049,0.0*
1,1,.5,-.496,-.049*
1,1,.5,.11,-.297*
20,1,.5,.11,-.297,.11,.298,0.0*
1,1,.5,.11,.298*
20,1,.5,.11,.298,.487,.298,0.0*
1,1,.5,.487,.298*
1,1,.5,.348,.01*
20,1,.5,.348,.01,.11,.01,0.0*
1,1,.5,.11,.01*
%
%ADD13MACRO13*%
%AMMACRO12*
1,1,.5,-.559,-.762*
20,1,.5,-.559,-.762,-.559,.762,0.0*
1,1,.5,-.559,.762*
20,1,.5,-.559,.762,-.051,.762,0.0*
1,1,.5,-.051,.762*
20,1,.5,-.051,.762,.152,.686,0.0*
1,1,.5,.152,.686*
20,1,.5,.152,.686,.305,.584,0.0*
1,1,.5,.305,.584*
20,1,.5,.305,.584,.432,.432,0.0*
1,1,.5,.432,.432*
20,1,.5,.432,.432,.533,.254,0.0*
1,1,.5,.533,.254*
20,1,.5,.533,.254,.559,0.0,0.0*
1,1,.5,.559,0.0*
20,1,.5,.559,0.0,.533,-.254,0.0*
1,1,.5,.533,-.254*
20,1,.5,.533,-.254,.432,-.432,0.0*
1,1,.5,.432,-.432*
20,1,.5,.432,-.432,.305,-.584,0.0*
1,1,.5,.305,-.584*
20,1,.5,.305,-.584,.152,-.686,0.0*
1,1,.5,.152,-.686*
20,1,.5,.152,-.686,-.051,-.762,0.0*
1,1,.5,-.051,-.762*
20,1,.5,-.051,-.762,-.559,-.762,0.0*
1,1,.5,-.559,-.762*
%
%ADD12MACRO12*%
%AMMACRO11*
1,1,.5,0.0,.65*
20,1,.5,0.0,.65,.562916,-.325,0.0*
1,1,.5,.562916,-.325*
20,1,.5,.562916,-.325,-.562916,-.325,0.0*
1,1,.5,-.562916,-.325*
20,1,.5,-.562916,-.325,0.0,.65,0.0*
1,1,.5,0.0,.65*
%
%ADD11MACRO11*%
%AMMACRO17*
1,1,.5,.25,0.0*
20,1,.5,.25,0.0,.125,.216506,0.0*
1,1,.5,.125,.216506*
20,1,.5,.125,.216506,-.125,.216506,0.0*
1,1,.5,-.125,.216506*
20,1,.5,-.125,.216506,-.25,0.0,0.0*
1,1,.5,-.25,0.0*
20,1,.5,-.25,0.0,-.125,-.216506,0.0*
1,1,.5,-.125,-.216506*
20,1,.5,-.125,-.216506,.125,-.216506,0.0*
1,1,.5,.125,-.216506*
20,1,.5,.125,-.216506,.25,0.0,0.0*
1,1,.5,.25,0.0*
%
%ADD17MACRO17*%
%AMMACRO14*
1,1,.5,0.0,.7*
20,1,.5,0.0,.7,.606218,-.35,0.0*
1,1,.5,.606218,-.35*
20,1,.5,.606218,-.35,-.606218,-.35,0.0*
1,1,.5,-.606218,-.35*
20,1,.5,-.606218,-.35,0.0,.7,0.0*
1,1,.5,0.0,.7*
1,1,.5,-.263,-.157*
20,1,.5,-.263,-.157,-.263,.158,0.0*
1,1,.5,-.263,.158*
20,1,.5,-.263,.158,-.136,.158,0.0*
1,1,.5,-.136,.158*
20,1,.5,-.136,.158,-.094,.142,0.0*
1,1,.5,-.094,.142*
20,1,.5,-.094,.142,-.063,.106,0.0*
1,1,.5,-.063,.106*
20,1,.5,-.063,.106,-.052,.064,0.0*
1,1,.5,-.052,.064*
20,1,.5,-.052,.064,-.063,.022,0.0*
1,1,.5,-.063,.022*
20,1,.5,-.063,.022,-.089,-.01,0.0*
1,1,.5,-.089,-.01*
20,1,.5,-.089,-.01,-.136,-.026,0.0*
1,1,.5,-.136,-.026*
20,1,.5,-.136,-.026,-.263,-.026,0.0*
1,1,.5,-.263,-.026*
1,1,.5,.059,-.157*
20,1,.5,.059,-.157,.059,.158,0.0*
1,1,.5,.059,.158*
20,1,.5,.059,.158,.258,.158,0.0*
1,1,.5,.258,.158*
1,1,.5,.185,.006*
20,1,.5,.185,.006,.059,.006,0.0*
1,1,.5,.059,.006*
%
%ADD14MACRO14*%
%AMMACRO15*
1,1,.5,.6985,0.0*
20,1,.5,.6985,0.0,.34925,.604919,0.0*
1,1,.5,.34925,.604919*
20,1,.5,.34925,.604919,-.34925,.604919,0.0*
1,1,.5,-.34925,.604919*
20,1,.5,-.34925,.604919,-.6985,0.0,0.0*
1,1,.5,-.6985,0.0*
20,1,.5,-.6985,0.0,-.34925,-.604919,0.0*
1,1,.5,-.34925,-.604919*
20,1,.5,-.34925,-.604919,.34925,-.604919,0.0*
1,1,.5,.34925,-.604919*
20,1,.5,.34925,-.604919,.6985,0.0,0.0*
1,1,.5,.6985,0.0*
%
%ADD15MACRO15*%
%ADD19C,.2*%
%ADD20C,.3*%
%ADD21C,.5*%
%ADD22C,.15*%
%ADD23C,.25*%
G75*
%LPD*%
G75*
G54D10*
X-1305000Y9502500D03*
Y12042500D03*
X1130000Y2516000D03*
Y2770000D03*
Y3024000D03*
X1164000Y4170000D03*
X2124000D03*
X2589000D03*
X3549000D03*
X4014000D03*
X4974000D03*
X5439000D03*
X6399000D03*
X7334000D03*
X8294000D03*
X8759000D03*
X9719000D03*
X10184000D03*
X11144000D03*
X11609000D03*
X12569000D03*
X13730000Y3773000D03*
Y3519000D03*
Y4027000D03*
Y4281000D03*
G54D20*
G01X-2167100Y15693800D02*
Y16011300D01*
X-2017500D01*
G01X-2072600Y15857800D02*
X-2167100D01*
G01X-1824600Y16011300D02*
X-1730200D01*
G01X-1777400D02*
Y15693800D01*
G01X-1824600D02*
X-1730200D01*
G01X-1438900Y15852500D02*
X-1360100D01*
Y15757300D01*
X-1383800Y15725500D01*
X-1411300Y15704400D01*
X-1450700Y15693800D01*
X-1490100Y15704400D01*
X-1517600Y15725500D01*
X-1541200Y15757300D01*
X-1557000Y15794300D01*
X-1564900Y15836700D01*
Y15873700D01*
X-1557000Y15905500D01*
X-1541200Y15942500D01*
X-1517600Y15974300D01*
X-1494000Y15995400D01*
X-1462500Y16011300D01*
X-1434900D01*
X-1403500Y16000700D01*
X-1379800Y15979500D01*
G01X-1234200Y16011300D02*
Y15783800D01*
X-1218500Y15736100D01*
X-1187000Y15704400D01*
X-1147600Y15693800D01*
X-1108200Y15704400D01*
X-1076700Y15736100D01*
X-1061000Y15783800D01*
Y16011300D01*
G01X-911400Y15693800D02*
Y16011300D01*
X-813000D01*
X-781500Y15995400D01*
X-761800Y15974300D01*
X-754000Y15931900D01*
X-761800Y15889600D01*
X-785500Y15863100D01*
X-813000Y15847300D01*
X-911400D01*
G01X-813000D02*
X-754000Y15693800D01*
G01X-439100D02*
X-596500D01*
Y16011300D01*
X-439100D01*
G01X-502100Y15857800D02*
X-596500D01*
G01X430900Y15693800D02*
Y16011300D01*
X580500D01*
G01X525400Y15857800D02*
X430900D01*
G01X773400Y16011300D02*
X867800D01*
G01X820600D02*
Y15693800D01*
G01X773400D02*
X867800D01*
G01X1045000D02*
Y16011300D01*
X1226000Y15693800D01*
Y16011300D01*
G01X1403200D02*
X1497600D01*
G01X1450400D02*
Y15693800D01*
G01X1403200D02*
X1497600D01*
G01X1682600Y15736100D02*
X1714100Y15709700D01*
X1749600Y15693800D01*
X1781000D01*
X1812500Y15709700D01*
X1836200Y15736100D01*
X1848000Y15773200D01*
X1840100Y15810200D01*
X1820400Y15842000D01*
X1785000Y15863100D01*
X1737700Y15873700D01*
X1710200Y15894900D01*
X1698400Y15931900D01*
X1706300Y15969000D01*
X1725900Y15995400D01*
X1753500Y16011300D01*
X1781000D01*
X1808600Y16000700D01*
X1832200Y15974300D01*
G01X1997500Y15693800D02*
Y16011300D01*
G01X2162900D02*
Y15693800D01*
G01Y15852500D02*
X1997500D01*
G01X2473800Y15693800D02*
X2316400D01*
Y16011300D01*
X2473800D01*
G01X2410800Y15857800D02*
X2316400D01*
G01X2623400Y15693800D02*
Y16011300D01*
X2702100D01*
X2733600Y15995400D01*
X2757200Y15974300D01*
X2776900Y15942500D01*
X2792700Y15905500D01*
X2796600Y15852500D01*
X2792700Y15799600D01*
X2776900Y15762600D01*
X2757200Y15730800D01*
X2733600Y15709700D01*
X2702100Y15693800D01*
X2623400D01*
G01X2906800Y15588000D02*
X3143000D01*
G01X3257100Y15736100D02*
X3288600Y15709700D01*
X3324100Y15693800D01*
X3355500D01*
X3387000Y15709700D01*
X3410700Y15736100D01*
X3422500Y15773200D01*
X3414600Y15810200D01*
X3394900Y15842000D01*
X3359500Y15863100D01*
X3312200Y15873700D01*
X3284700Y15894900D01*
X3272900Y15931900D01*
X3280800Y15969000D01*
X3300400Y15995400D01*
X3328000Y16011300D01*
X3355500D01*
X3383100Y16000700D01*
X3406700Y15974300D01*
G01X3607500Y16011300D02*
X3701900D01*
G01X3654700D02*
Y15693800D01*
G01X3607500D02*
X3701900D01*
G01X3894800Y16011300D02*
X4044400D01*
X3894800Y15693800D01*
X4044400D01*
G01X4363200D02*
X4205800D01*
Y16011300D01*
X4363200D01*
G01X4300200Y15857800D02*
X4205800D01*
G01X1765300Y13471300D02*
X1733800Y13460700D01*
X1710200Y13434300D01*
X1694400Y13402500D01*
X1682600Y13360200D01*
X1678700Y13312500D01*
X1682600Y13264900D01*
X1694400Y13222600D01*
X1710200Y13190800D01*
X1733800Y13164400D01*
X1765300Y13153800D01*
X1796800Y13164400D01*
X1820400Y13190800D01*
X1836200Y13222600D01*
X1848000Y13264900D01*
X1851900Y13312500D01*
X1848000Y13360200D01*
X1836200Y13402500D01*
X1820400Y13434300D01*
X1796800Y13460700D01*
X1765300Y13471300D01*
G01X2080200Y13143200D02*
X2072300Y13148500D01*
Y13159100D01*
X2080200Y13164400D01*
X2088100Y13159100D01*
Y13148500D01*
X2080200Y13143200D01*
G01X2395100Y13153800D02*
X2422700Y13159100D01*
X2454100Y13175000D01*
X2473800Y13201400D01*
X2481700Y13238500D01*
X2473800Y13275500D01*
X2450200Y13307300D01*
X2414800Y13323100D01*
X2375400D01*
X2351800Y13333700D01*
X2332100Y13360200D01*
X2324200Y13397200D01*
X2336100Y13434300D01*
X2363600Y13460700D01*
X2395100Y13471300D01*
X2426600Y13460700D01*
X2454100Y13434300D01*
X2466000Y13397200D01*
X2458100Y13360200D01*
X2438400Y13333700D01*
X2414800Y13323100D01*
X2375400D01*
X2340000Y13307300D01*
X2316400Y13275500D01*
X2308500Y13238500D01*
X2316400Y13201400D01*
X2336100Y13175000D01*
X2367500Y13159100D01*
X2395100Y13153800D01*
G01X2710000D02*
Y13471300D01*
X2662800Y13407800D01*
G01Y13153800D02*
X2757200D01*
G01X2938300Y13217300D02*
X2961900Y13180300D01*
X2993400Y13159100D01*
X3028800Y13153800D01*
X3060300Y13159100D01*
X3091800Y13185500D01*
X3111500Y13217300D01*
X3115400Y13249000D01*
X3107600Y13286100D01*
X3080000Y13312500D01*
X3052500Y13323100D01*
X3017000D01*
G01X3052500D02*
X3076100Y13339000D01*
X3095800Y13365500D01*
X3103600Y13397200D01*
X3095800Y13429000D01*
X3076100Y13455400D01*
X3040600Y13471300D01*
X3005200Y13466000D01*
X2969800Y13444800D01*
G01X1765300Y14106300D02*
X1733800Y14095700D01*
X1710200Y14069300D01*
X1694400Y14037500D01*
X1682600Y13995200D01*
X1678700Y13947500D01*
X1682600Y13899900D01*
X1694400Y13857600D01*
X1710200Y13825800D01*
X1733800Y13799400D01*
X1765300Y13788800D01*
X1796800Y13799400D01*
X1820400Y13825800D01*
X1836200Y13857600D01*
X1848000Y13899900D01*
X1851900Y13947500D01*
X1848000Y13995200D01*
X1836200Y14037500D01*
X1820400Y14069300D01*
X1796800Y14095700D01*
X1765300Y14106300D01*
G01X2080200Y13778200D02*
X2072300Y13783500D01*
Y13794100D01*
X2080200Y13799400D01*
X2088100Y13794100D01*
Y13783500D01*
X2080200Y13778200D01*
G01X2442300Y13788800D02*
Y14106300D01*
X2296700Y13878800D01*
X2493500D01*
G01X2710000Y14106300D02*
X2678500Y14095700D01*
X2654900Y14069300D01*
X2639100Y14037500D01*
X2627300Y13995200D01*
X2623400Y13947500D01*
X2627300Y13899900D01*
X2639100Y13857600D01*
X2654900Y13825800D01*
X2678500Y13799400D01*
X2710000Y13788800D01*
X2741500Y13799400D01*
X2765100Y13825800D01*
X2780900Y13857600D01*
X2792700Y13899900D01*
X2796600Y13947500D01*
X2792700Y13995200D01*
X2780900Y14037500D01*
X2765100Y14069300D01*
X2741500Y14095700D01*
X2710000Y14106300D01*
G01X2950100Y13921100D02*
X2977700Y13958100D01*
X3001300Y13979300D01*
X3032800Y13989900D01*
X3060300Y13979300D01*
X3080000Y13958100D01*
X3095800Y13926400D01*
X3099700Y13889300D01*
X3095800Y13857600D01*
X3080000Y13825800D01*
X3056400Y13799400D01*
X3028800Y13788800D01*
X2997300Y13799400D01*
X2969800Y13831100D01*
X2954000Y13878800D01*
X2950100Y13931700D01*
X2958000Y14000500D01*
X2969800Y14037500D01*
X2989500Y14074500D01*
X3017000Y14101000D01*
X3044600Y14106300D01*
X3072100Y14095700D01*
X3091800Y14069300D01*
G01X1765300Y15376200D02*
X1733800Y15365600D01*
X1710200Y15339200D01*
X1694400Y15307400D01*
X1682600Y15265100D01*
X1678700Y15217400D01*
X1682600Y15169800D01*
X1694400Y15127500D01*
X1710200Y15095700D01*
X1733800Y15069300D01*
X1765300Y15058700D01*
X1796800Y15069300D01*
X1820400Y15095700D01*
X1836200Y15127500D01*
X1848000Y15169800D01*
X1851900Y15217400D01*
X1848000Y15265100D01*
X1836200Y15307400D01*
X1820400Y15339200D01*
X1796800Y15365600D01*
X1765300Y15376200D01*
G01X2080200Y15048100D02*
X2072300Y15053400D01*
Y15064000D01*
X2080200Y15069300D01*
X2088100Y15064000D01*
Y15053400D01*
X2080200Y15048100D01*
G01X2320300Y15323300D02*
X2343900Y15355000D01*
X2371500Y15370900D01*
X2403000Y15376200D01*
X2442300Y15365600D01*
X2469900Y15339200D01*
X2477800Y15307400D01*
X2473800Y15275700D01*
X2458100Y15249200D01*
X2379400Y15196300D01*
X2343900Y15159200D01*
X2320300Y15106300D01*
X2312400Y15058700D01*
X2477800D01*
G01X2710000Y15376200D02*
X2678500Y15365600D01*
X2654900Y15339200D01*
X2639100Y15307400D01*
X2627300Y15265100D01*
X2623400Y15217400D01*
X2627300Y15169800D01*
X2639100Y15127500D01*
X2654900Y15095700D01*
X2678500Y15069300D01*
X2710000Y15058700D01*
X2741500Y15069300D01*
X2765100Y15095700D01*
X2780900Y15127500D01*
X2792700Y15169800D01*
X2796600Y15217400D01*
X2792700Y15265100D01*
X2780900Y15307400D01*
X2765100Y15339200D01*
X2741500Y15365600D01*
X2710000Y15376200D01*
G01X2938300Y15122200D02*
X2961900Y15085200D01*
X2993400Y15064000D01*
X3028800Y15058700D01*
X3060300Y15064000D01*
X3091800Y15090400D01*
X3111500Y15122200D01*
X3115400Y15153900D01*
X3107600Y15191000D01*
X3080000Y15217400D01*
X3052500Y15228000D01*
X3017000D01*
G01X3052500D02*
X3076100Y15243900D01*
X3095800Y15270400D01*
X3103600Y15302100D01*
X3095800Y15333900D01*
X3076100Y15360300D01*
X3040600Y15376200D01*
X3005200Y15370900D01*
X2969800Y15349700D01*
G01X1922700Y9343800D02*
Y9661300D01*
X1875500Y9597800D01*
G01Y9343800D02*
X1969900D01*
G01X2237600Y9333200D02*
X2229700Y9338500D01*
Y9349100D01*
X2237600Y9354400D01*
X2245500Y9349100D01*
Y9338500D01*
X2237600Y9333200D01*
G01X2465900Y9391400D02*
X2489500Y9365000D01*
X2517100Y9349100D01*
X2552500Y9343800D01*
X2587900Y9354400D01*
X2615500Y9375500D01*
X2635200Y9412600D01*
X2639100Y9454900D01*
X2631200Y9497300D01*
X2611500Y9523700D01*
X2584000Y9544900D01*
X2556400Y9550200D01*
X2528900Y9544900D01*
X2493500Y9523700D01*
X2505300Y9661300D01*
X2611500D01*
G01X2780800Y9391400D02*
X2804400Y9365000D01*
X2832000Y9349100D01*
X2867400Y9343800D01*
X2902800Y9354400D01*
X2930400Y9375500D01*
X2950100Y9412600D01*
X2954000Y9454900D01*
X2946100Y9497300D01*
X2926400Y9523700D01*
X2898900Y9544900D01*
X2871300Y9550200D01*
X2843800Y9544900D01*
X2808400Y9523700D01*
X2820200Y9661300D01*
X2926400D01*
G01X2080200Y9978800D02*
Y10296300D01*
X2033000Y10232800D01*
G01Y9978800D02*
X2127400D01*
G01X2395100Y9968200D02*
X2387200Y9973500D01*
Y9984100D01*
X2395100Y9989400D01*
X2403000Y9984100D01*
Y9973500D01*
X2395100Y9968200D01*
G01X2623400Y10042300D02*
X2647000Y10005300D01*
X2678500Y9984100D01*
X2713900Y9978800D01*
X2745400Y9984100D01*
X2776900Y10010500D01*
X2796600Y10042300D01*
X2800500Y10074000D01*
X2792700Y10111100D01*
X2765100Y10137500D01*
X2737600Y10148100D01*
X2702100D01*
G01X2737600D02*
X2761200Y10164000D01*
X2780900Y10190500D01*
X2788700Y10222200D01*
X2780900Y10254000D01*
X2761200Y10280400D01*
X2725700Y10296300D01*
X2690300Y10291000D01*
X2654900Y10269800D01*
G01X2005400Y10878400D02*
X2029000Y10910100D01*
X2056600Y10926000D01*
X2088100Y10931300D01*
X2127400Y10920700D01*
X2155000Y10894300D01*
X2162900Y10862500D01*
X2158900Y10830800D01*
X2143200Y10804300D01*
X2064500Y10751400D01*
X2029000Y10714300D01*
X2005400Y10661400D01*
X1997500Y10613800D01*
X2162900D01*
G01X2395100Y10603200D02*
X2387200Y10608500D01*
Y10619100D01*
X2395100Y10624400D01*
X2403000Y10619100D01*
Y10608500D01*
X2395100Y10603200D01*
G01X2702100Y10613800D02*
X2710000Y10682600D01*
X2721800Y10740800D01*
X2737600Y10793700D01*
X2757200Y10851900D01*
X2788700Y10931300D01*
X2631300D01*
G01X1922700Y11248800D02*
Y11566300D01*
X1875500Y11502800D01*
G01Y11248800D02*
X1969900D01*
G01X2237600Y11238200D02*
X2229700Y11243500D01*
Y11254100D01*
X2237600Y11259400D01*
X2245500Y11254100D01*
Y11243500D01*
X2237600Y11238200D01*
G01X2552500Y11566300D02*
X2521000Y11555700D01*
X2497400Y11529300D01*
X2481600Y11497500D01*
X2469800Y11455200D01*
X2465900Y11407500D01*
X2469800Y11359900D01*
X2481600Y11317600D01*
X2497400Y11285800D01*
X2521000Y11259400D01*
X2552500Y11248800D01*
X2584000Y11259400D01*
X2607600Y11285800D01*
X2623400Y11317600D01*
X2635200Y11359900D01*
X2639100Y11407500D01*
X2635200Y11455200D01*
X2623400Y11497500D01*
X2607600Y11529300D01*
X2584000Y11555700D01*
X2552500Y11566300D01*
G01X2780800Y11296400D02*
X2804400Y11270000D01*
X2832000Y11254100D01*
X2867400Y11248800D01*
X2902800Y11259400D01*
X2930400Y11280500D01*
X2950100Y11317600D01*
X2954000Y11359900D01*
X2946100Y11402300D01*
X2926400Y11428700D01*
X2898900Y11449900D01*
X2871300Y11455200D01*
X2843800Y11449900D01*
X2808400Y11428700D01*
X2820200Y11566300D01*
X2926400D01*
G01X2080200Y11883800D02*
Y12201300D01*
X2033000Y12137800D01*
G01Y11883800D02*
X2127400D01*
G01X2395100Y11873200D02*
X2387200Y11878500D01*
Y11889100D01*
X2395100Y11894400D01*
X2403000Y11889100D01*
Y11878500D01*
X2395100Y11873200D01*
G01X2710000Y12201300D02*
X2678500Y12190700D01*
X2654900Y12164300D01*
X2639100Y12132500D01*
X2627300Y12090200D01*
X2623400Y12042500D01*
X2627300Y11994900D01*
X2639100Y11952600D01*
X2654900Y11920800D01*
X2678500Y11894400D01*
X2710000Y11883800D01*
X2741500Y11894400D01*
X2765100Y11920800D01*
X2780900Y11952600D01*
X2792700Y11994900D01*
X2796600Y12042500D01*
X2792700Y12090200D01*
X2780900Y12132500D01*
X2765100Y12164300D01*
X2741500Y12190700D01*
X2710000Y12201300D01*
G01X1922700Y12836300D02*
X1891200Y12825700D01*
X1867600Y12799300D01*
X1851800Y12767500D01*
X1840000Y12725200D01*
X1836100Y12677500D01*
X1840000Y12629900D01*
X1851800Y12587600D01*
X1867600Y12555800D01*
X1891200Y12529400D01*
X1922700Y12518800D01*
X1954200Y12529400D01*
X1977800Y12555800D01*
X1993600Y12587600D01*
X2005400Y12629900D01*
X2009300Y12677500D01*
X2005400Y12725200D01*
X1993600Y12767500D01*
X1977800Y12799300D01*
X1954200Y12825700D01*
X1922700Y12836300D01*
G01X2237600Y12508200D02*
X2229700Y12513500D01*
Y12524100D01*
X2237600Y12529400D01*
X2245500Y12524100D01*
Y12513500D01*
X2237600Y12508200D01*
G01X2485600Y12555800D02*
X2513100Y12529400D01*
X2544600Y12518800D01*
X2576100Y12529400D01*
X2603700Y12561100D01*
X2623400Y12608800D01*
X2631200Y12656400D01*
Y12714600D01*
X2623400Y12762200D01*
X2603700Y12804500D01*
X2580100Y12825700D01*
X2552500Y12836300D01*
X2521000Y12825700D01*
X2497400Y12804500D01*
X2481600Y12772800D01*
X2473800Y12730500D01*
X2481600Y12693400D01*
X2501300Y12656400D01*
X2524900Y12635200D01*
X2552500Y12629900D01*
X2584000Y12640500D01*
X2607600Y12667000D01*
X2631200Y12714600D01*
G01X2780800Y12566400D02*
X2804400Y12540000D01*
X2832000Y12524100D01*
X2867400Y12518800D01*
X2902800Y12529400D01*
X2930400Y12550500D01*
X2950100Y12587600D01*
X2954000Y12629900D01*
X2946100Y12672300D01*
X2926400Y12698700D01*
X2898900Y12719900D01*
X2871300Y12725200D01*
X2843800Y12719900D01*
X2808400Y12698700D01*
X2820200Y12836300D01*
X2926400D01*
G01X2080200Y14741300D02*
X2048700Y14730700D01*
X2025100Y14704300D01*
X2009300Y14672500D01*
X1997500Y14630200D01*
X1993600Y14582500D01*
X1997500Y14534900D01*
X2009300Y14492600D01*
X2025100Y14460800D01*
X2048700Y14434400D01*
X2080200Y14423800D01*
X2111700Y14434400D01*
X2135300Y14460800D01*
X2151100Y14492600D01*
X2162900Y14534900D01*
X2166800Y14582500D01*
X2162900Y14630200D01*
X2151100Y14672500D01*
X2135300Y14704300D01*
X2111700Y14730700D01*
X2080200Y14741300D01*
G01X2395100Y14413200D02*
X2387200Y14418500D01*
Y14429100D01*
X2395100Y14434400D01*
X2403000Y14429100D01*
Y14418500D01*
X2395100Y14413200D01*
G01X2623400Y14487300D02*
X2647000Y14450300D01*
X2678500Y14429100D01*
X2713900Y14423800D01*
X2745400Y14429100D01*
X2776900Y14455500D01*
X2796600Y14487300D01*
X2800500Y14519000D01*
X2792700Y14556100D01*
X2765100Y14582500D01*
X2737600Y14593100D01*
X2702100D01*
G01X2737600D02*
X2761200Y14609000D01*
X2780900Y14635500D01*
X2788700Y14667200D01*
X2780900Y14699000D01*
X2761200Y14725400D01*
X2725700Y14741300D01*
X2690300Y14736000D01*
X2654900Y14714800D01*
G01X2060400Y16328800D02*
X2158800Y16646300D01*
X2257200Y16328800D01*
G01X2221800Y16439900D02*
X2095800D01*
G01X2395000Y16646300D02*
Y16328800D01*
X2552400D01*
G01X2709900Y16646300D02*
Y16328800D01*
X2867300D01*
G01X3331800Y16646300D02*
Y16418800D01*
X3347500Y16371100D01*
X3379000Y16339400D01*
X3418400Y16328800D01*
X3457800Y16339400D01*
X3489300Y16371100D01*
X3505000Y16418800D01*
Y16646300D01*
G01X3642800Y16328800D02*
Y16646300D01*
X3823800Y16328800D01*
Y16646300D01*
G01X4001000D02*
X4095400D01*
G01X4048200D02*
Y16328800D01*
G01X4001000D02*
X4095400D01*
G01X4363100Y16646300D02*
Y16328800D01*
G01X4272600Y16646300D02*
X4453600D01*
G01X4595300Y16371100D02*
X4626800Y16344700D01*
X4662300Y16328800D01*
X4693700D01*
X4725200Y16344700D01*
X4748900Y16371100D01*
X4760700Y16408200D01*
X4752800Y16445200D01*
X4733100Y16477000D01*
X4697700Y16498100D01*
X4650400Y16508700D01*
X4622900Y16529900D01*
X4611100Y16566900D01*
X4619000Y16604000D01*
X4638600Y16630400D01*
X4666200Y16646300D01*
X4693700D01*
X4721300Y16635700D01*
X4744900Y16609300D01*
G01X5209400Y16328800D02*
X5307800Y16646300D01*
X5406200Y16328800D01*
G01X5370800Y16439900D02*
X5244800D01*
G01X5544000Y16328800D02*
Y16646300D01*
X5642400D01*
X5673900Y16630400D01*
X5693600Y16609300D01*
X5701400Y16566900D01*
X5693600Y16524600D01*
X5669900Y16498100D01*
X5642400Y16482300D01*
X5544000D01*
G01X5642400D02*
X5701400Y16328800D01*
G01X6016300D02*
X5858900D01*
Y16646300D01*
X6016300D01*
G01X5953300Y16492800D02*
X5858900D01*
G01X6520200Y16646300D02*
X6614600D01*
G01X6567400D02*
Y16328800D01*
G01X6520200D02*
X6614600D01*
G01X6791800D02*
Y16646300D01*
X6972800Y16328800D01*
Y16646300D01*
G01X7409700Y16328800D02*
Y16646300D01*
X7512100Y16381700D01*
X7614500Y16646300D01*
Y16328800D01*
G01X7779800Y16646300D02*
X7874200D01*
G01X7827000D02*
Y16328800D01*
G01X7779800D02*
X7874200D01*
G01X8063200Y16646300D02*
Y16328800D01*
X8220600D01*
G01X8378100Y16646300D02*
Y16328800D01*
X8535500D01*
G01X8724500Y16646300D02*
X8818900D01*
G01X8771700D02*
Y16328800D01*
G01X8724500D02*
X8818900D01*
G01X8984200D02*
Y16646300D01*
X9086600Y16381700D01*
X9189000Y16646300D01*
Y16328800D01*
G01X9480200D02*
X9322800D01*
Y16646300D01*
X9480200D01*
G01X9417200Y16492800D02*
X9322800D01*
G01X9716400Y16646300D02*
Y16328800D01*
G01X9625900Y16646300D02*
X9806900D01*
G01X10110000Y16328800D02*
X9952600D01*
Y16646300D01*
X10110000D01*
G01X10047000Y16492800D02*
X9952600D01*
G01X10267500Y16328800D02*
Y16646300D01*
X10365900D01*
X10397400Y16630400D01*
X10417100Y16609300D01*
X10424900Y16566900D01*
X10417100Y16524600D01*
X10393400Y16498100D01*
X10365900Y16482300D01*
X10267500D01*
G01X10365900D02*
X10424900Y16328800D01*
G01X10578400Y16371100D02*
X10609900Y16344700D01*
X10645400Y16328800D01*
X10676800D01*
X10708300Y16344700D01*
X10732000Y16371100D01*
X10743800Y16408200D01*
X10735900Y16445200D01*
X10716200Y16477000D01*
X10680800Y16498100D01*
X10633500Y16508700D01*
X10606000Y16529900D01*
X10594200Y16566900D01*
X10602100Y16604000D01*
X10621700Y16630400D01*
X10649300Y16646300D01*
X10676800D01*
X10704400Y16635700D01*
X10728000Y16609300D01*
G01X2387100Y16978800D02*
Y17296300D01*
X2465800D01*
X2497300Y17280400D01*
X2520900Y17259300D01*
X2540600Y17227500D01*
X2556400Y17190500D01*
X2560300Y17137500D01*
X2556400Y17084600D01*
X2540600Y17047600D01*
X2520900Y17015800D01*
X2497300Y16994700D01*
X2465800Y16978800D01*
X2387100D01*
G01X2709900D02*
Y17296300D01*
X2808300D01*
X2839800Y17280400D01*
X2859500Y17259300D01*
X2867300Y17216900D01*
X2859500Y17174600D01*
X2835800Y17148100D01*
X2808300Y17132300D01*
X2709900D01*
G01X2808300D02*
X2867300Y16978800D01*
G01X3056300Y17296300D02*
X3150700D01*
G01X3103500D02*
Y16978800D01*
G01X3056300D02*
X3150700D01*
G01X3339700Y17296300D02*
Y16978800D01*
X3497100D01*
G01X3654600Y17296300D02*
Y16978800D01*
X3812000D01*
G01X4449700Y17269800D02*
X4426100Y17285700D01*
X4398500Y17296300D01*
X4367000D01*
X4331600Y17280400D01*
X4304100Y17254000D01*
X4284400Y17222200D01*
X4268600Y17169300D01*
X4264700Y17121700D01*
X4272600Y17074000D01*
X4284400Y17042300D01*
X4308000Y17010500D01*
X4335500Y16989400D01*
X4363100Y16978800D01*
X4390700D01*
X4418200Y16989400D01*
X4441800Y17005300D01*
X4461500Y17026400D01*
G01X4595300Y16978800D02*
Y17296300D01*
G01X4760700D02*
Y16978800D01*
G01Y17137500D02*
X4595300D01*
G01X4894500Y16978800D02*
X4992900Y17296300D01*
X5091300Y16978800D01*
G01X5055900Y17089900D02*
X4929900D01*
G01X5229100Y16978800D02*
Y17296300D01*
X5327500D01*
X5359000Y17280400D01*
X5378700Y17259300D01*
X5386500Y17216900D01*
X5378700Y17174600D01*
X5355000Y17148100D01*
X5327500Y17132300D01*
X5229100D01*
G01X5327500D02*
X5386500Y16978800D01*
G01X5622700Y17296300D02*
Y16978800D01*
G01X5532200Y17296300D02*
X5713200D01*
G01X5937600Y16968200D02*
X5929700Y16973500D01*
Y16984100D01*
X5937600Y16989400D01*
X5945500Y16984100D01*
Y16973500D01*
X5937600Y16968200D01*
G01Y17111100D02*
X5929700Y17116400D01*
Y17127000D01*
X5937600Y17132300D01*
X5945500Y17127000D01*
Y17116400D01*
X5937600Y17111100D01*
G01X6567400Y17296300D02*
Y16978800D01*
G01X6476900Y17296300D02*
X6657900D01*
G01X6882300Y16978800D02*
X6850800Y16984100D01*
X6823300Y17005300D01*
X6799600Y17037000D01*
X6783900Y17074000D01*
X6776000Y17116400D01*
Y17158700D01*
X6783900Y17201100D01*
X6799600Y17238100D01*
X6823300Y17269800D01*
X6850800Y17291000D01*
X6882300Y17296300D01*
X6913800Y17291000D01*
X6941300Y17269800D01*
X6965000Y17238100D01*
X6980700Y17201100D01*
X6988600Y17158700D01*
Y17116400D01*
X6980700Y17074000D01*
X6965000Y17037000D01*
X6941300Y17005300D01*
X6913800Y16984100D01*
X6882300Y16978800D01*
G01X7118500D02*
Y17296300D01*
X7212900D01*
X7244400Y17280400D01*
X7268100Y17243400D01*
X7275900Y17201100D01*
X7268100Y17158700D01*
X7248400Y17127000D01*
X7212900Y17111100D01*
X7118500D01*
G01X7827000Y17296300D02*
Y16978800D01*
G01X7771900Y17190500D02*
X7882100D01*
G01X8141900Y16978800D02*
X8118300Y16984100D01*
X8094700Y17005300D01*
X8078900Y17042300D01*
X8071000Y17084600D01*
X8078900Y17127000D01*
X8094700Y17164000D01*
X8118300Y17185200D01*
X8141900Y17190500D01*
X8165500Y17185200D01*
X8189100Y17164000D01*
X8204900Y17127000D01*
X8208800Y17084600D01*
X8204900Y17042300D01*
X8189100Y17005300D01*
X8165500Y16984100D01*
X8141900Y16978800D01*
G01X8803200Y17148100D02*
X8818900Y17164000D01*
X8830700Y17190500D01*
X8838600Y17227500D01*
X8830700Y17259300D01*
X8815000Y17280400D01*
X8787400Y17296300D01*
X8681200D01*
Y16978800D01*
X8811100D01*
X8838600Y17000000D01*
X8854400Y17031700D01*
X8862200Y17068800D01*
X8854400Y17105800D01*
X8830700Y17137500D01*
X8803200Y17148100D01*
X8681200D01*
G01X9086600Y16978800D02*
X9055100Y16984100D01*
X9027600Y17005300D01*
X9003900Y17037000D01*
X8988200Y17074000D01*
X8980300Y17116400D01*
Y17158700D01*
X8988200Y17201100D01*
X9003900Y17238100D01*
X9027600Y17269800D01*
X9055100Y17291000D01*
X9086600Y17296300D01*
X9118100Y17291000D01*
X9145600Y17269800D01*
X9169300Y17238100D01*
X9185000Y17201100D01*
X9192900Y17158700D01*
Y17116400D01*
X9185000Y17074000D01*
X9169300Y17037000D01*
X9145600Y17005300D01*
X9118100Y16984100D01*
X9086600Y16978800D01*
G01X9401500Y17296300D02*
Y16978800D01*
G01X9311000Y17296300D02*
X9492000D01*
G01X9716400D02*
Y16978800D01*
G01X9625900Y17296300D02*
X9806900D01*
G01X10031300Y16978800D02*
X9999800Y16984100D01*
X9972300Y17005300D01*
X9948600Y17037000D01*
X9932900Y17074000D01*
X9925000Y17116400D01*
Y17158700D01*
X9932900Y17201100D01*
X9948600Y17238100D01*
X9972300Y17269800D01*
X9999800Y17291000D01*
X10031300Y17296300D01*
X10062800Y17291000D01*
X10090300Y17269800D01*
X10114000Y17238100D01*
X10129700Y17201100D01*
X10137600Y17158700D01*
Y17116400D01*
X10129700Y17074000D01*
X10114000Y17037000D01*
X10090300Y17005300D01*
X10062800Y16984100D01*
X10031300Y16978800D01*
G01X10243800D02*
Y17296300D01*
X10346200Y17031700D01*
X10448600Y17296300D01*
Y16978800D01*
G01X5693500Y15693800D02*
Y16011300D01*
X5772200D01*
X5803700Y15995400D01*
X5827300Y15974300D01*
X5847000Y15942500D01*
X5862800Y15905500D01*
X5866700Y15852500D01*
X5862800Y15799600D01*
X5847000Y15762600D01*
X5827300Y15730800D01*
X5803700Y15709700D01*
X5772200Y15693800D01*
X5693500D01*
G01X6016300D02*
Y16011300D01*
X6114700D01*
X6146200Y15995400D01*
X6165900Y15974300D01*
X6173700Y15931900D01*
X6165900Y15889600D01*
X6142200Y15863100D01*
X6114700Y15847300D01*
X6016300D01*
G01X6114700D02*
X6173700Y15693800D01*
G01X6362700Y16011300D02*
X6457100D01*
G01X6409900D02*
Y15693800D01*
G01X6362700D02*
X6457100D01*
G01X6646100Y16011300D02*
Y15693800D01*
X6803500D01*
G01X6961000Y16011300D02*
Y15693800D01*
X7118400D01*
G01X7433300D02*
X7275900D01*
Y16011300D01*
X7433300D01*
G01X7370300Y15857800D02*
X7275900D01*
G01X7582900Y15693800D02*
Y16011300D01*
X7661600D01*
X7693100Y15995400D01*
X7716700Y15974300D01*
X7736400Y15942500D01*
X7752200Y15905500D01*
X7756100Y15852500D01*
X7752200Y15799600D01*
X7736400Y15762600D01*
X7716700Y15730800D01*
X7693100Y15709700D01*
X7661600Y15693800D01*
X7582900D01*
G01X7866300Y15588000D02*
X8102500D01*
G01X8216600Y15736100D02*
X8248100Y15709700D01*
X8283600Y15693800D01*
X8315000D01*
X8346500Y15709700D01*
X8370200Y15736100D01*
X8382000Y15773200D01*
X8374100Y15810200D01*
X8354400Y15842000D01*
X8319000Y15863100D01*
X8271700Y15873700D01*
X8244200Y15894900D01*
X8232400Y15931900D01*
X8240300Y15969000D01*
X8259900Y15995400D01*
X8287500Y16011300D01*
X8315000D01*
X8342600Y16000700D01*
X8366200Y15974300D01*
G01X8567000Y16011300D02*
X8661400D01*
G01X8614200D02*
Y15693800D01*
G01X8567000D02*
X8661400D01*
G01X8854300Y16011300D02*
X9003900D01*
X8854300Y15693800D01*
X9003900D01*
G01X9322700D02*
X9165300D01*
Y16011300D01*
X9322700D01*
G01X9259700Y15857800D02*
X9165300D01*
G01X7460900Y9449600D02*
X7563300D01*
G01X7460900Y10084600D02*
X7563300D01*
G01X7460900Y10719600D02*
X7563300D01*
G01X7460900Y11354600D02*
X7563300D01*
G01X7460900Y11989600D02*
X7563300D01*
G01X7460900Y12624600D02*
X7563300D01*
G01X7460900Y13259600D02*
X7563300D01*
G01X7460900Y13894600D02*
X7563300D01*
G01X7460900Y14529600D02*
X7563300D01*
G01X7460900Y15164500D02*
X7563300D01*
G01X10176900Y9343800D02*
Y9661300D01*
X10357900Y9343800D01*
Y9661300D01*
G01X10582300Y9343800D02*
X10550800Y9349100D01*
X10523300Y9370300D01*
X10499600Y9402000D01*
X10483900Y9439000D01*
X10476000Y9481400D01*
Y9523700D01*
X10483900Y9566100D01*
X10499600Y9603100D01*
X10523300Y9634800D01*
X10550800Y9656000D01*
X10582300Y9661300D01*
X10613800Y9656000D01*
X10641300Y9634800D01*
X10665000Y9603100D01*
X10680700Y9566100D01*
X10688600Y9523700D01*
Y9481400D01*
X10680700Y9439000D01*
X10665000Y9402000D01*
X10641300Y9370300D01*
X10613800Y9349100D01*
X10582300Y9343800D01*
G01X10806700D02*
Y9661300D01*
X10987700Y9343800D01*
Y9661300D01*
G01X11160900Y9449600D02*
X11263300D01*
G01X11448300Y9343800D02*
Y9661300D01*
X11542700D01*
X11574200Y9645400D01*
X11597900Y9608400D01*
X11605700Y9566100D01*
X11597900Y9523700D01*
X11578200Y9492000D01*
X11542700Y9476100D01*
X11448300D01*
G01X11763200Y9661300D02*
Y9343800D01*
X11920600D01*
G01X12058400D02*
X12156800Y9661300D01*
X12255200Y9343800D01*
G01X12219800Y9454900D02*
X12093800D01*
G01X12471700Y9661300D02*
Y9343800D01*
G01X12381200Y9661300D02*
X12562200D01*
G01X12865300Y9343800D02*
X12707900D01*
Y9661300D01*
X12865300D01*
G01X12802300Y9507800D02*
X12707900D01*
G01X13014900Y9343800D02*
Y9661300D01*
X13093600D01*
X13125100Y9645400D01*
X13148700Y9624300D01*
X13168400Y9592500D01*
X13184200Y9555500D01*
X13188100Y9502500D01*
X13184200Y9449600D01*
X13168400Y9412600D01*
X13148700Y9380800D01*
X13125100Y9359700D01*
X13093600Y9343800D01*
X13014900D01*
G01X10176900Y9978800D02*
Y10296300D01*
X10357900Y9978800D01*
Y10296300D01*
G01X10582300Y9978800D02*
X10550800Y9984100D01*
X10523300Y10005300D01*
X10499600Y10037000D01*
X10483900Y10074000D01*
X10476000Y10116400D01*
Y10158700D01*
X10483900Y10201100D01*
X10499600Y10238100D01*
X10523300Y10269800D01*
X10550800Y10291000D01*
X10582300Y10296300D01*
X10613800Y10291000D01*
X10641300Y10269800D01*
X10665000Y10238100D01*
X10680700Y10201100D01*
X10688600Y10158700D01*
Y10116400D01*
X10680700Y10074000D01*
X10665000Y10037000D01*
X10641300Y10005300D01*
X10613800Y9984100D01*
X10582300Y9978800D01*
G01X10806700D02*
Y10296300D01*
X10987700Y9978800D01*
Y10296300D01*
G01X11160900Y10084600D02*
X11263300D01*
G01X11448300Y9978800D02*
Y10296300D01*
X11542700D01*
X11574200Y10280400D01*
X11597900Y10243400D01*
X11605700Y10201100D01*
X11597900Y10158700D01*
X11578200Y10127000D01*
X11542700Y10111100D01*
X11448300D01*
G01X11763200Y10296300D02*
Y9978800D01*
X11920600D01*
G01X12058400D02*
X12156800Y10296300D01*
X12255200Y9978800D01*
G01X12219800Y10089900D02*
X12093800D01*
G01X12471700Y10296300D02*
Y9978800D01*
G01X12381200Y10296300D02*
X12562200D01*
G01X12865300Y9978800D02*
X12707900D01*
Y10296300D01*
X12865300D01*
G01X12802300Y10142800D02*
X12707900D01*
G01X13014900Y9978800D02*
Y10296300D01*
X13093600D01*
X13125100Y10280400D01*
X13148700Y10259300D01*
X13168400Y10227500D01*
X13184200Y10190500D01*
X13188100Y10137500D01*
X13184200Y10084600D01*
X13168400Y10047600D01*
X13148700Y10015800D01*
X13125100Y9994700D01*
X13093600Y9978800D01*
X13014900D01*
G01X10818500Y10613800D02*
Y10931300D01*
X10912900D01*
X10944400Y10915400D01*
X10968100Y10878400D01*
X10975900Y10836100D01*
X10968100Y10793700D01*
X10948400Y10762000D01*
X10912900Y10746100D01*
X10818500D01*
G01X11133400Y10931300D02*
Y10613800D01*
X11290800D01*
G01X11428600D02*
X11527000Y10931300D01*
X11625400Y10613800D01*
G01X11590000Y10724900D02*
X11464000D01*
G01X11841900Y10931300D02*
Y10613800D01*
G01X11751400Y10931300D02*
X11932400D01*
G01X12235500Y10613800D02*
X12078100D01*
Y10931300D01*
X12235500D01*
G01X12172500Y10777800D02*
X12078100D01*
G01X12385100Y10613800D02*
Y10931300D01*
X12463800D01*
X12495300Y10915400D01*
X12518900Y10894300D01*
X12538600Y10862500D01*
X12554400Y10825500D01*
X12558300Y10772500D01*
X12554400Y10719600D01*
X12538600Y10682600D01*
X12518900Y10650800D01*
X12495300Y10629700D01*
X12463800Y10613800D01*
X12385100D01*
G01X10818500Y11248800D02*
Y11566300D01*
X10912900D01*
X10944400Y11550400D01*
X10968100Y11513400D01*
X10975900Y11471100D01*
X10968100Y11428700D01*
X10948400Y11397000D01*
X10912900Y11381100D01*
X10818500D01*
G01X11133400Y11566300D02*
Y11248800D01*
X11290800D01*
G01X11428600D02*
X11527000Y11566300D01*
X11625400Y11248800D01*
G01X11590000Y11359900D02*
X11464000D01*
G01X11841900Y11566300D02*
Y11248800D01*
G01X11751400Y11566300D02*
X11932400D01*
G01X12235500Y11248800D02*
X12078100D01*
Y11566300D01*
X12235500D01*
G01X12172500Y11412800D02*
X12078100D01*
G01X12385100Y11248800D02*
Y11566300D01*
X12463800D01*
X12495300Y11550400D01*
X12518900Y11529300D01*
X12538600Y11497500D01*
X12554400Y11460500D01*
X12558300Y11407500D01*
X12554400Y11354600D01*
X12538600Y11317600D01*
X12518900Y11285800D01*
X12495300Y11264700D01*
X12463800Y11248800D01*
X12385100D01*
G01X10818500Y11883800D02*
Y12201300D01*
X10912900D01*
X10944400Y12185400D01*
X10968100Y12148400D01*
X10975900Y12106100D01*
X10968100Y12063700D01*
X10948400Y12032000D01*
X10912900Y12016100D01*
X10818500D01*
G01X11133400Y12201300D02*
Y11883800D01*
X11290800D01*
G01X11428600D02*
X11527000Y12201300D01*
X11625400Y11883800D01*
G01X11590000Y11994900D02*
X11464000D01*
G01X11841900Y12201300D02*
Y11883800D01*
G01X11751400Y12201300D02*
X11932400D01*
G01X12235500Y11883800D02*
X12078100D01*
Y12201300D01*
X12235500D01*
G01X12172500Y12047800D02*
X12078100D01*
G01X12385100Y11883800D02*
Y12201300D01*
X12463800D01*
X12495300Y12185400D01*
X12518900Y12164300D01*
X12538600Y12132500D01*
X12554400Y12095500D01*
X12558300Y12042500D01*
X12554400Y11989600D01*
X12538600Y11952600D01*
X12518900Y11920800D01*
X12495300Y11899700D01*
X12463800Y11883800D01*
X12385100D01*
G01X10818500Y12518800D02*
Y12836300D01*
X10912900D01*
X10944400Y12820400D01*
X10968100Y12783400D01*
X10975900Y12741100D01*
X10968100Y12698700D01*
X10948400Y12667000D01*
X10912900Y12651100D01*
X10818500D01*
G01X11133400Y12836300D02*
Y12518800D01*
X11290800D01*
G01X11428600D02*
X11527000Y12836300D01*
X11625400Y12518800D01*
G01X11590000Y12629900D02*
X11464000D01*
G01X11841900Y12836300D02*
Y12518800D01*
G01X11751400Y12836300D02*
X11932400D01*
G01X12235500Y12518800D02*
X12078100D01*
Y12836300D01*
X12235500D01*
G01X12172500Y12682800D02*
X12078100D01*
G01X12385100Y12518800D02*
Y12836300D01*
X12463800D01*
X12495300Y12820400D01*
X12518900Y12799300D01*
X12538600Y12767500D01*
X12554400Y12730500D01*
X12558300Y12677500D01*
X12554400Y12624600D01*
X12538600Y12587600D01*
X12518900Y12555800D01*
X12495300Y12534700D01*
X12463800Y12518800D01*
X12385100D01*
G01X10818500Y13153800D02*
Y13471300D01*
X10912900D01*
X10944400Y13455400D01*
X10968100Y13418400D01*
X10975900Y13376100D01*
X10968100Y13333700D01*
X10948400Y13302000D01*
X10912900Y13286100D01*
X10818500D01*
G01X11133400Y13471300D02*
Y13153800D01*
X11290800D01*
G01X11428600D02*
X11527000Y13471300D01*
X11625400Y13153800D01*
G01X11590000Y13264900D02*
X11464000D01*
G01X11841900Y13471300D02*
Y13153800D01*
G01X11751400Y13471300D02*
X11932400D01*
G01X12235500Y13153800D02*
X12078100D01*
Y13471300D01*
X12235500D01*
G01X12172500Y13317800D02*
X12078100D01*
G01X12385100Y13153800D02*
Y13471300D01*
X12463800D01*
X12495300Y13455400D01*
X12518900Y13434300D01*
X12538600Y13402500D01*
X12554400Y13365500D01*
X12558300Y13312500D01*
X12554400Y13259600D01*
X12538600Y13222600D01*
X12518900Y13190800D01*
X12495300Y13169700D01*
X12463800Y13153800D01*
X12385100D01*
G01X10818500Y13788800D02*
Y14106300D01*
X10912900D01*
X10944400Y14090400D01*
X10968100Y14053400D01*
X10975900Y14011100D01*
X10968100Y13968700D01*
X10948400Y13937000D01*
X10912900Y13921100D01*
X10818500D01*
G01X11133400Y14106300D02*
Y13788800D01*
X11290800D01*
G01X11428600D02*
X11527000Y14106300D01*
X11625400Y13788800D01*
G01X11590000Y13899900D02*
X11464000D01*
G01X11841900Y14106300D02*
Y13788800D01*
G01X11751400Y14106300D02*
X11932400D01*
G01X12235500Y13788800D02*
X12078100D01*
Y14106300D01*
X12235500D01*
G01X12172500Y13952800D02*
X12078100D01*
G01X12385100Y13788800D02*
Y14106300D01*
X12463800D01*
X12495300Y14090400D01*
X12518900Y14069300D01*
X12538600Y14037500D01*
X12554400Y14000500D01*
X12558300Y13947500D01*
X12554400Y13894600D01*
X12538600Y13857600D01*
X12518900Y13825800D01*
X12495300Y13804700D01*
X12463800Y13788800D01*
X12385100D01*
G01X10818500Y14423800D02*
Y14741300D01*
X10912900D01*
X10944400Y14725400D01*
X10968100Y14688400D01*
X10975900Y14646100D01*
X10968100Y14603700D01*
X10948400Y14572000D01*
X10912900Y14556100D01*
X10818500D01*
G01X11133400Y14741300D02*
Y14423800D01*
X11290800D01*
G01X11428600D02*
X11527000Y14741300D01*
X11625400Y14423800D01*
G01X11590000Y14534900D02*
X11464000D01*
G01X11841900Y14741300D02*
Y14423800D01*
G01X11751400Y14741300D02*
X11932400D01*
G01X12235500Y14423800D02*
X12078100D01*
Y14741300D01*
X12235500D01*
G01X12172500Y14587800D02*
X12078100D01*
G01X12385100Y14423800D02*
Y14741300D01*
X12463800D01*
X12495300Y14725400D01*
X12518900Y14704300D01*
X12538600Y14672500D01*
X12554400Y14635500D01*
X12558300Y14582500D01*
X12554400Y14529600D01*
X12538600Y14492600D01*
X12518900Y14460800D01*
X12495300Y14439700D01*
X12463800Y14423800D01*
X12385100D01*
G01X10818500Y15058700D02*
Y15376200D01*
X10912900D01*
X10944400Y15360300D01*
X10968100Y15323300D01*
X10975900Y15281000D01*
X10968100Y15238600D01*
X10948400Y15206900D01*
X10912900Y15191000D01*
X10818500D01*
G01X11133400Y15376200D02*
Y15058700D01*
X11290800D01*
G01X11428600D02*
X11527000Y15376200D01*
X11625400Y15058700D01*
G01X11590000Y15169800D02*
X11464000D01*
G01X11841900Y15376200D02*
Y15058700D01*
G01X11751400Y15376200D02*
X11932400D01*
G01X12235500Y15058700D02*
X12078100D01*
Y15376200D01*
X12235500D01*
G01X12172500Y15222700D02*
X12078100D01*
G01X12385100Y15058700D02*
Y15376200D01*
X12463800D01*
X12495300Y15360300D01*
X12518900Y15339200D01*
X12538600Y15307400D01*
X12554400Y15270400D01*
X12558300Y15217400D01*
X12554400Y15164500D01*
X12538600Y15127500D01*
X12518900Y15095700D01*
X12495300Y15074600D01*
X12463800Y15058700D01*
X12385100D01*
G01X10818500Y15693800D02*
Y16011300D01*
X10912900D01*
X10944400Y15995400D01*
X10968100Y15958400D01*
X10975900Y15916100D01*
X10968100Y15873700D01*
X10948400Y15842000D01*
X10912900Y15826100D01*
X10818500D01*
G01X11133400Y16011300D02*
Y15693800D01*
X11290800D01*
G01X11428600D02*
X11527000Y16011300D01*
X11625400Y15693800D01*
G01X11590000Y15804900D02*
X11464000D01*
G01X11841900Y16011300D02*
Y15693800D01*
G01X11751400Y16011300D02*
X11932400D01*
G01X12235500Y15693800D02*
X12078100D01*
Y16011300D01*
X12235500D01*
G01X12172500Y15857800D02*
X12078100D01*
G01X12385100Y15693800D02*
Y16011300D01*
X12463800D01*
X12495300Y15995400D01*
X12518900Y15974300D01*
X12538600Y15942500D01*
X12554400Y15905500D01*
X12558300Y15852500D01*
X12554400Y15799600D01*
X12538600Y15762600D01*
X12518900Y15730800D01*
X12495300Y15709700D01*
X12463800Y15693800D01*
X12385100D01*
G01X14124900Y9343800D02*
Y9661300D01*
X14077700Y9597800D01*
G01Y9343800D02*
X14172100D01*
G01X14365000Y9476100D02*
X14392600Y9513100D01*
X14416200Y9534300D01*
X14447700Y9544900D01*
X14475200Y9534300D01*
X14494900Y9513100D01*
X14510700Y9481400D01*
X14514600Y9444300D01*
X14510700Y9412600D01*
X14494900Y9380800D01*
X14471300Y9354400D01*
X14443700Y9343800D01*
X14412200Y9354400D01*
X14384700Y9386100D01*
X14368900Y9433800D01*
X14365000Y9486700D01*
X14372900Y9555500D01*
X14384700Y9592500D01*
X14404400Y9629500D01*
X14431900Y9656000D01*
X14459500Y9661300D01*
X14487000Y9650700D01*
X14506700Y9624300D01*
G01X14207600Y10243400D02*
X14231200Y10275100D01*
X14258800Y10291000D01*
X14290300Y10296300D01*
X14329600Y10285700D01*
X14357200Y10259300D01*
X14365100Y10227500D01*
X14361100Y10195800D01*
X14345400Y10169300D01*
X14266700Y10116400D01*
X14231200Y10079300D01*
X14207600Y10026400D01*
X14199700Y9978800D01*
X14365100D01*
G01X14195800Y10661400D02*
X14219400Y10635000D01*
X14247000Y10619100D01*
X14282400Y10613800D01*
X14317800Y10624400D01*
X14345400Y10645500D01*
X14365100Y10682600D01*
X14369000Y10724900D01*
X14361100Y10767300D01*
X14341400Y10793700D01*
X14313900Y10814900D01*
X14286300Y10820200D01*
X14258800Y10814900D01*
X14223400Y10793700D01*
X14235200Y10931300D01*
X14341400D01*
G01X14038300Y11296400D02*
X14061900Y11270000D01*
X14089500Y11254100D01*
X14124900Y11248800D01*
X14160300Y11259400D01*
X14187900Y11280500D01*
X14207600Y11317600D01*
X14211500Y11359900D01*
X14203600Y11402300D01*
X14183900Y11428700D01*
X14156400Y11449900D01*
X14128800Y11455200D01*
X14101300Y11449900D01*
X14065900Y11428700D01*
X14077700Y11566300D01*
X14183900D01*
G01X14365000Y11513400D02*
X14388600Y11545100D01*
X14416200Y11561000D01*
X14447700Y11566300D01*
X14487000Y11555700D01*
X14514600Y11529300D01*
X14522500Y11497500D01*
X14518500Y11465800D01*
X14502800Y11439300D01*
X14424100Y11386400D01*
X14388600Y11349300D01*
X14365000Y11296400D01*
X14357100Y11248800D01*
X14522500D01*
G01X14274500Y11883800D02*
X14282400Y11952600D01*
X14294200Y12010800D01*
X14310000Y12063700D01*
X14329600Y12121900D01*
X14361100Y12201300D01*
X14203700D01*
G01X14172100Y12518800D02*
Y12836300D01*
X14026500Y12608800D01*
X14223300D01*
G01X14439800Y12836300D02*
X14408300Y12825700D01*
X14384700Y12799300D01*
X14368900Y12767500D01*
X14357100Y12725200D01*
X14353200Y12677500D01*
X14357100Y12629900D01*
X14368900Y12587600D01*
X14384700Y12555800D01*
X14408300Y12529400D01*
X14439800Y12518800D01*
X14471300Y12529400D01*
X14494900Y12555800D01*
X14510700Y12587600D01*
X14522500Y12629900D01*
X14526400Y12677500D01*
X14522500Y12725200D01*
X14510700Y12767500D01*
X14494900Y12799300D01*
X14471300Y12825700D01*
X14439800Y12836300D01*
G01X14282400Y13153800D02*
Y13471300D01*
X14235200Y13407800D01*
G01Y13153800D02*
X14329600D01*
G01X14282400Y13788800D02*
Y14106300D01*
X14235200Y14042800D01*
G01Y13788800D02*
X14329600D01*
G01X13900600Y14460800D02*
X13928100Y14434400D01*
X13959600Y14423800D01*
X13991100Y14434400D01*
X14018700Y14466100D01*
X14038400Y14513800D01*
X14046200Y14561400D01*
Y14619600D01*
X14038400Y14667200D01*
X14018700Y14709500D01*
X13995100Y14730700D01*
X13967500Y14741300D01*
X13936000Y14730700D01*
X13912400Y14709500D01*
X13896600Y14677800D01*
X13888800Y14635500D01*
X13896600Y14598400D01*
X13916300Y14561400D01*
X13939900Y14540200D01*
X13967500Y14534900D01*
X13999000Y14545500D01*
X14022600Y14572000D01*
X14046200Y14619600D01*
G01X14282400Y14423800D02*
Y14741300D01*
X14235200Y14677800D01*
G01Y14423800D02*
X14329600D01*
G01X14597300D02*
Y14741300D01*
X14550100Y14677800D01*
G01Y14423800D02*
X14644500D01*
G01X14124900Y15058700D02*
Y15376200D01*
X14077700Y15312700D01*
G01Y15058700D02*
X14172100D01*
G01X14365000Y15191000D02*
X14392600Y15228000D01*
X14416200Y15249200D01*
X14447700Y15259800D01*
X14475200Y15249200D01*
X14494900Y15228000D01*
X14510700Y15196300D01*
X14514600Y15159200D01*
X14510700Y15127500D01*
X14494900Y15095700D01*
X14471300Y15069300D01*
X14443700Y15058700D01*
X14412200Y15069300D01*
X14384700Y15101000D01*
X14368900Y15148700D01*
X14365000Y15201600D01*
X14372900Y15270400D01*
X14384700Y15307400D01*
X14404400Y15344400D01*
X14431900Y15370900D01*
X14459500Y15376200D01*
X14487000Y15365600D01*
X14506700Y15339200D01*
G01X13967500Y15693800D02*
X13936000Y15699100D01*
X13908500Y15720300D01*
X13884800Y15752000D01*
X13869100Y15789000D01*
X13861200Y15831400D01*
Y15873700D01*
X13869100Y15916100D01*
X13884800Y15953100D01*
X13908500Y15984800D01*
X13936000Y16006000D01*
X13967500Y16011300D01*
X13999000Y16006000D01*
X14026500Y15984800D01*
X14050200Y15953100D01*
X14065900Y15916100D01*
X14073800Y15873700D01*
Y15831400D01*
X14065900Y15789000D01*
X14050200Y15752000D01*
X14026500Y15720300D01*
X13999000Y15699100D01*
X13967500Y15693800D01*
G01X13999000Y15778500D02*
X14046200Y15693800D01*
G01X14282400Y16011300D02*
Y15693800D01*
G01X14191900Y16011300D02*
X14372900D01*
G01X14597300Y15693800D02*
Y15836700D01*
X14518600Y16011300D01*
G01X14676000D02*
X14597300Y15836700D01*
G54D11*
X-1305000Y10137500D03*
X7730000Y890000D03*
X13168000Y1195000D03*
G54D21*
G01X-3615400Y-7810800D02*
Y20865800D01*
X17009400D01*
Y-7810800D01*
X-3615400D01*
G01X-3234400Y-6972600D02*
Y20154600D01*
X16552200D01*
Y-6972600D01*
X-3234400D01*
G01X-3209000Y-6934500D02*
Y-2362500D01*
X16603000D01*
G01X-3209000Y-3124500D02*
X5935000D01*
G01X-3000800Y-5474000D02*
Y-5347000D01*
X-2939700D01*
G01X-2962200Y-5408400D02*
X-3000800D01*
G01X-2872900Y-5474000D02*
Y-5347000D01*
X-2832700D01*
X-2819800Y-5353400D01*
X-2811800Y-5361800D01*
X-2808600Y-5378800D01*
X-2811800Y-5395700D01*
X-2821400Y-5406300D01*
X-2832700Y-5412600D01*
X-2872900D01*
G01X-2832700D02*
X-2808600Y-5474000D01*
G01X-2751500D02*
X-2711300Y-5347000D01*
X-2671000Y-5474000D01*
G01X-2685500Y-5429600D02*
X-2737000D01*
G01X-2546400Y-5357600D02*
X-2556000Y-5351200D01*
X-2567300Y-5347000D01*
X-2580100D01*
X-2594600Y-5353400D01*
X-2605900Y-5363900D01*
X-2613900Y-5376600D01*
X-2620400Y-5397800D01*
X-2622000Y-5416900D01*
X-2618700Y-5435900D01*
X-2613900Y-5448600D01*
X-2604300Y-5461300D01*
X-2593000Y-5469800D01*
X-2581800Y-5474000D01*
X-2570500D01*
X-2559200Y-5469800D01*
X-2549600Y-5463400D01*
X-2541500Y-5455000D01*
G01X-2452300Y-5347000D02*
Y-5474000D01*
G01X-2489200Y-5347000D02*
X-2415300D01*
G01X-2342100D02*
X-2303500D01*
G01X-2322800D02*
Y-5474000D01*
G01X-2342100D02*
X-2303500D01*
G01X-2193300D02*
X-2206100Y-5471900D01*
X-2217400Y-5463400D01*
X-2227000Y-5450700D01*
X-2233500Y-5435900D01*
X-2236700Y-5419000D01*
Y-5402000D01*
X-2233500Y-5385100D01*
X-2227000Y-5370300D01*
X-2217400Y-5357600D01*
X-2206100Y-5349100D01*
X-2193300Y-5347000D01*
X-2180400Y-5349100D01*
X-2169100Y-5357600D01*
X-2159500Y-5370300D01*
X-2153000Y-5385100D01*
X-2149800Y-5402000D01*
Y-5419000D01*
X-2153000Y-5435900D01*
X-2159500Y-5450700D01*
X-2169100Y-5463400D01*
X-2180400Y-5471900D01*
X-2193300Y-5474000D01*
G01X-2100700D02*
Y-5347000D01*
X-2026800Y-5474000D01*
Y-5347000D01*
G01X-1968000Y-5457100D02*
X-1955200Y-5467700D01*
X-1940700Y-5474000D01*
X-1927800D01*
X-1914900Y-5467700D01*
X-1905300Y-5457100D01*
X-1900500Y-5442200D01*
X-1903700Y-5427400D01*
X-1911700Y-5414700D01*
X-1926200Y-5406300D01*
X-1945500Y-5402000D01*
X-1956800Y-5393600D01*
X-1961600Y-5378800D01*
X-1958400Y-5363900D01*
X-1950300Y-5353400D01*
X-1939100Y-5347000D01*
X-1927800D01*
X-1916600Y-5351200D01*
X-1906900Y-5361800D01*
G01X-1692900Y-5431700D02*
X-1654300D01*
G01X-1675300Y-5404100D02*
Y-5459200D01*
G01X-3010500Y-5093000D02*
X-2970300Y-4966000D01*
X-2930000Y-5093000D01*
G01X-2944500Y-5048600D02*
X-2996000D01*
G01X-2877700Y-5093000D02*
Y-4966000D01*
X-2803800Y-5093000D01*
Y-4966000D01*
G01X-2701600Y-5029500D02*
X-2669400D01*
Y-5067600D01*
X-2679100Y-5080300D01*
X-2690300Y-5088800D01*
X-2706400Y-5093000D01*
X-2722500Y-5088800D01*
X-2733800Y-5080300D01*
X-2743400Y-5067600D01*
X-2749900Y-5052800D01*
X-2753100Y-5035900D01*
Y-5021000D01*
X-2749900Y-5008300D01*
X-2743400Y-4993500D01*
X-2733800Y-4980800D01*
X-2724100Y-4972400D01*
X-2711300Y-4966000D01*
X-2700000D01*
X-2687100Y-4970200D01*
X-2677500Y-4978700D01*
G01X-2613900Y-4966000D02*
Y-5093000D01*
X-2549600D01*
G01X-2420100D02*
X-2484400D01*
Y-4966000D01*
X-2420100D01*
G01X-2445800Y-5027400D02*
X-2484400D01*
G01X-2356500Y-5076100D02*
X-2343700Y-5086700D01*
X-2329200Y-5093000D01*
X-2316300D01*
X-2303400Y-5086700D01*
X-2293800Y-5076100D01*
X-2289000Y-5061200D01*
X-2292200Y-5046400D01*
X-2300200Y-5033700D01*
X-2314700Y-5025300D01*
X-2334000Y-5021000D01*
X-2345300Y-5012600D01*
X-2350100Y-4997800D01*
X-2346900Y-4982900D01*
X-2338800Y-4972400D01*
X-2327600Y-4966000D01*
X-2316300D01*
X-2305100Y-4970200D01*
X-2295400Y-4980800D01*
G01X-2081400Y-5050700D02*
X-2042800D01*
G01X-2063800Y-5023100D02*
Y-5078200D01*
G01X-3005600Y-4686600D02*
X-2996000Y-4701400D01*
X-2983100Y-4709900D01*
X-2968600Y-4712000D01*
X-2955800Y-4709900D01*
X-2942900Y-4699300D01*
X-2934900Y-4686600D01*
X-2933300Y-4673900D01*
X-2936500Y-4659100D01*
X-2947700Y-4648500D01*
X-2959000Y-4644300D01*
X-2973500D01*
G01X-2959000D02*
X-2949300Y-4637900D01*
X-2941300Y-4627300D01*
X-2938100Y-4614600D01*
X-2941300Y-4601900D01*
X-2949300Y-4591400D01*
X-2963800Y-4585000D01*
X-2978300Y-4587100D01*
X-2992800Y-4595600D01*
G01X-2743400Y-4712000D02*
Y-4585000D01*
X-2704800D01*
X-2691900Y-4591400D01*
X-2682300Y-4606200D01*
X-2679100Y-4623100D01*
X-2682300Y-4640000D01*
X-2690300Y-4652700D01*
X-2704800Y-4659100D01*
X-2743400D01*
G01X-2613900Y-4585000D02*
Y-4712000D01*
X-2549600D01*
G01X-2358100D02*
Y-4585000D01*
X-2326000D01*
X-2313100Y-4591400D01*
X-2303400Y-4599800D01*
X-2295400Y-4612500D01*
X-2289000Y-4627300D01*
X-2287400Y-4648500D01*
X-2289000Y-4669700D01*
X-2295400Y-4684500D01*
X-2303400Y-4697200D01*
X-2313100Y-4705700D01*
X-2326000Y-4712000D01*
X-2358100D01*
G01X-2161100D02*
X-2225400D01*
Y-4585000D01*
X-2161100D01*
G01X-2186800Y-4646400D02*
X-2225400D01*
G01X-2028400Y-4595600D02*
X-2038000Y-4589200D01*
X-2049300Y-4585000D01*
X-2062100D01*
X-2076600Y-4591400D01*
X-2087900Y-4601900D01*
X-2095900Y-4614600D01*
X-2102400Y-4635800D01*
X-2104000Y-4654900D01*
X-2100700Y-4673900D01*
X-2095900Y-4686600D01*
X-2086300Y-4699300D01*
X-2075000Y-4707800D01*
X-2063800Y-4712000D01*
X-2052500D01*
X-2041200Y-4707800D01*
X-2031600Y-4701400D01*
X-2023500Y-4693000D01*
G01X-1953600Y-4585000D02*
X-1915000D01*
G01X-1934300D02*
Y-4712000D01*
G01X-1953600D02*
X-1915000D01*
G01X-1846600D02*
Y-4585000D01*
X-1804800Y-4690800D01*
X-1762900Y-4585000D01*
Y-4712000D01*
G01X-1715500D02*
X-1675300Y-4585000D01*
X-1635000Y-4712000D01*
G01X-1649500Y-4667600D02*
X-1701000D01*
G01X-1577900Y-4585000D02*
Y-4712000D01*
X-1513600D01*
G01X-1450000Y-4695100D02*
X-1437200Y-4705700D01*
X-1422700Y-4712000D01*
X-1409800D01*
X-1396900Y-4705700D01*
X-1387300Y-4695100D01*
X-1382500Y-4680200D01*
X-1385700Y-4665400D01*
X-1393700Y-4652700D01*
X-1408200Y-4644300D01*
X-1427500Y-4640000D01*
X-1438800Y-4631600D01*
X-1443600Y-4616800D01*
X-1440400Y-4601900D01*
X-1432300Y-4591400D01*
X-1421100Y-4585000D01*
X-1409800D01*
X-1398600Y-4589200D01*
X-1388900Y-4599800D01*
G01X-1174900Y-4669700D02*
X-1136300D01*
G01X-1157300Y-4642100D02*
Y-4697200D01*
G01X-3000800Y-4225200D02*
X-2991200Y-4212500D01*
X-2979900Y-4206100D01*
X-2967000Y-4204000D01*
X-2950900Y-4208200D01*
X-2939700Y-4218800D01*
X-2936500Y-4231500D01*
X-2938100Y-4244200D01*
X-2944500Y-4254800D01*
X-2976700Y-4276000D01*
X-2991200Y-4290800D01*
X-3000800Y-4312000D01*
X-3004000Y-4331000D01*
X-2936500D01*
G01X-2743400D02*
Y-4204000D01*
X-2704800D01*
X-2691900Y-4210400D01*
X-2682300Y-4225200D01*
X-2679100Y-4242100D01*
X-2682300Y-4259000D01*
X-2690300Y-4271700D01*
X-2704800Y-4278100D01*
X-2743400D01*
G01X-2613900Y-4204000D02*
Y-4331000D01*
X-2549600D01*
G01X-2358100D02*
Y-4204000D01*
X-2326000D01*
X-2313100Y-4210400D01*
X-2303400Y-4218800D01*
X-2295400Y-4231500D01*
X-2289000Y-4246300D01*
X-2287400Y-4267500D01*
X-2289000Y-4288700D01*
X-2295400Y-4303500D01*
X-2303400Y-4316200D01*
X-2313100Y-4324700D01*
X-2326000Y-4331000D01*
X-2358100D01*
G01X-2161100D02*
X-2225400D01*
Y-4204000D01*
X-2161100D01*
G01X-2186800Y-4265400D02*
X-2225400D01*
G01X-2028400Y-4214600D02*
X-2038000Y-4208200D01*
X-2049300Y-4204000D01*
X-2062100D01*
X-2076600Y-4210400D01*
X-2087900Y-4220900D01*
X-2095900Y-4233600D01*
X-2102400Y-4254800D01*
X-2104000Y-4273900D01*
X-2100700Y-4292900D01*
X-2095900Y-4305600D01*
X-2086300Y-4318300D01*
X-2075000Y-4326800D01*
X-2063800Y-4331000D01*
X-2052500D01*
X-2041200Y-4326800D01*
X-2031600Y-4320400D01*
X-2023500Y-4312000D01*
G01X-1953600Y-4204000D02*
X-1915000D01*
G01X-1934300D02*
Y-4331000D01*
G01X-1953600D02*
X-1915000D01*
G01X-1846600D02*
Y-4204000D01*
X-1804800Y-4309800D01*
X-1762900Y-4204000D01*
Y-4331000D01*
G01X-1715500D02*
X-1675300Y-4204000D01*
X-1635000Y-4331000D01*
G01X-1649500Y-4286600D02*
X-1701000D01*
G01X-1577900Y-4204000D02*
Y-4331000D01*
X-1513600D01*
G01X-1450000Y-4314100D02*
X-1437200Y-4324700D01*
X-1422700Y-4331000D01*
X-1409800D01*
X-1396900Y-4324700D01*
X-1387300Y-4314100D01*
X-1382500Y-4299200D01*
X-1385700Y-4284400D01*
X-1393700Y-4271700D01*
X-1408200Y-4263300D01*
X-1427500Y-4259000D01*
X-1438800Y-4250600D01*
X-1443600Y-4235800D01*
X-1440400Y-4220900D01*
X-1432300Y-4210400D01*
X-1421100Y-4204000D01*
X-1409800D01*
X-1398600Y-4208200D01*
X-1388900Y-4218800D01*
G01X-1174900Y-4288700D02*
X-1136300D01*
G01X-1157300Y-4261100D02*
Y-4316200D01*
G01X-2970300Y-3823000D02*
Y-3950000D01*
G01X-3007200Y-3823000D02*
X-2933300D01*
G01X-2840800Y-3950000D02*
X-2853600Y-3947900D01*
X-2864900Y-3939400D01*
X-2874500Y-3926700D01*
X-2881000Y-3911900D01*
X-2884200Y-3895000D01*
Y-3878000D01*
X-2881000Y-3861100D01*
X-2874500Y-3846300D01*
X-2864900Y-3833600D01*
X-2853600Y-3825100D01*
X-2840800Y-3823000D01*
X-2827900Y-3825100D01*
X-2816600Y-3833600D01*
X-2807000Y-3846300D01*
X-2800500Y-3861100D01*
X-2797300Y-3878000D01*
Y-3895000D01*
X-2800500Y-3911900D01*
X-2807000Y-3926700D01*
X-2816600Y-3939400D01*
X-2827900Y-3947900D01*
X-2840800Y-3950000D01*
G01X-2743400Y-3823000D02*
Y-3950000D01*
X-2679100D01*
G01X-2549600D02*
X-2613900D01*
Y-3823000D01*
X-2549600D01*
G01X-2575300Y-3884400D02*
X-2613900D01*
G01X-2484400Y-3950000D02*
Y-3823000D01*
X-2444200D01*
X-2431300Y-3829400D01*
X-2423300Y-3837800D01*
X-2420100Y-3854800D01*
X-2423300Y-3871700D01*
X-2432900Y-3882300D01*
X-2444200Y-3888600D01*
X-2484400D01*
G01X-2444200D02*
X-2420100Y-3950000D01*
G01X-2363000D02*
X-2322800Y-3823000D01*
X-2282500Y-3950000D01*
G01X-2297000Y-3905600D02*
X-2348500D01*
G01X-2230200Y-3950000D02*
Y-3823000D01*
X-2156300Y-3950000D01*
Y-3823000D01*
G01X-2028400Y-3833600D02*
X-2038000Y-3827200D01*
X-2049300Y-3823000D01*
X-2062100D01*
X-2076600Y-3829400D01*
X-2087900Y-3839900D01*
X-2095900Y-3852600D01*
X-2102400Y-3873800D01*
X-2104000Y-3892900D01*
X-2100700Y-3911900D01*
X-2095900Y-3924600D01*
X-2086300Y-3937300D01*
X-2075000Y-3945800D01*
X-2063800Y-3950000D01*
X-2052500D01*
X-2041200Y-3945800D01*
X-2031600Y-3939400D01*
X-2023500Y-3931000D01*
G01X-1902100Y-3950000D02*
X-1966400D01*
Y-3823000D01*
X-1902100D01*
G01X-1927800Y-3884400D02*
X-1966400D01*
G01X-1838500Y-3933100D02*
X-1825700Y-3943700D01*
X-1811200Y-3950000D01*
X-1798300D01*
X-1785400Y-3943700D01*
X-1775800Y-3933100D01*
X-1771000Y-3918200D01*
X-1774200Y-3903400D01*
X-1782200Y-3890700D01*
X-1796700Y-3882300D01*
X-1816000Y-3878000D01*
X-1827300Y-3869600D01*
X-1832100Y-3854800D01*
X-1828900Y-3839900D01*
X-1820800Y-3829400D01*
X-1809600Y-3823000D01*
X-1798300D01*
X-1787100Y-3827200D01*
X-1777400Y-3837800D01*
G01X-1545800Y-3950000D02*
X-1558600Y-3947900D01*
X-1569900Y-3939400D01*
X-1579500Y-3926700D01*
X-1586000Y-3911900D01*
X-1589200Y-3895000D01*
Y-3878000D01*
X-1586000Y-3861100D01*
X-1579500Y-3846300D01*
X-1569900Y-3833600D01*
X-1558600Y-3825100D01*
X-1545800Y-3823000D01*
X-1532900Y-3825100D01*
X-1521600Y-3833600D01*
X-1512000Y-3846300D01*
X-1505500Y-3861100D01*
X-1502300Y-3878000D01*
Y-3895000D01*
X-1505500Y-3911900D01*
X-1512000Y-3926700D01*
X-1521600Y-3939400D01*
X-1532900Y-3947900D01*
X-1545800Y-3950000D01*
G01X-1453200D02*
Y-3823000D01*
X-1379300Y-3950000D01*
Y-3823000D01*
G01X-1286800Y-3954200D02*
X-1290000Y-3952100D01*
Y-3947900D01*
X-1286800Y-3945800D01*
X-1283500Y-3947900D01*
Y-3952100D01*
X-1286800Y-3954200D01*
G01Y-3897100D02*
X-1290000Y-3895000D01*
Y-3890700D01*
X-1286800Y-3888600D01*
X-1283500Y-3890700D01*
Y-3895000D01*
X-1286800Y-3897100D01*
G01X-3005600Y-3505500D02*
Y-3378500D01*
X-2973500D01*
X-2960600Y-3384900D01*
X-2950900Y-3393300D01*
X-2942900Y-3406000D01*
X-2936500Y-3420800D01*
X-2934900Y-3442000D01*
X-2936500Y-3463200D01*
X-2942900Y-3478000D01*
X-2950900Y-3490700D01*
X-2960600Y-3499200D01*
X-2973500Y-3505500D01*
X-3005600D01*
G01X-2860100Y-3378500D02*
X-2821500D01*
G01X-2840800D02*
Y-3505500D01*
G01X-2860100D02*
X-2821500D01*
G01X-2753100D02*
Y-3378500D01*
X-2711300Y-3484300D01*
X-2669400Y-3378500D01*
Y-3505500D01*
G01X-2549600D02*
X-2613900D01*
Y-3378500D01*
X-2549600D01*
G01X-2575300Y-3439900D02*
X-2613900D01*
G01X-2489200Y-3505500D02*
Y-3378500D01*
X-2415300Y-3505500D01*
Y-3378500D01*
G01X-2356500Y-3488600D02*
X-2343700Y-3499200D01*
X-2329200Y-3505500D01*
X-2316300D01*
X-2303400Y-3499200D01*
X-2293800Y-3488600D01*
X-2289000Y-3473700D01*
X-2292200Y-3458900D01*
X-2300200Y-3446200D01*
X-2314700Y-3437800D01*
X-2334000Y-3433500D01*
X-2345300Y-3425100D01*
X-2350100Y-3410300D01*
X-2346900Y-3395400D01*
X-2338800Y-3384900D01*
X-2327600Y-3378500D01*
X-2316300D01*
X-2305100Y-3382700D01*
X-2295400Y-3393300D01*
G01X-2212600Y-3378500D02*
X-2174000D01*
G01X-2193300D02*
Y-3505500D01*
G01X-2212600D02*
X-2174000D01*
G01X-2063800D02*
X-2076600Y-3503400D01*
X-2087900Y-3494900D01*
X-2097500Y-3482200D01*
X-2104000Y-3467400D01*
X-2107200Y-3450500D01*
Y-3433500D01*
X-2104000Y-3416600D01*
X-2097500Y-3401800D01*
X-2087900Y-3389100D01*
X-2076600Y-3380600D01*
X-2063800Y-3378500D01*
X-2050900Y-3380600D01*
X-2039600Y-3389100D01*
X-2030000Y-3401800D01*
X-2023500Y-3416600D01*
X-2020300Y-3433500D01*
Y-3450500D01*
X-2023500Y-3467400D01*
X-2030000Y-3482200D01*
X-2039600Y-3494900D01*
X-2050900Y-3503400D01*
X-2063800Y-3505500D01*
G01X-1971200D02*
Y-3378500D01*
X-1897300Y-3505500D01*
Y-3378500D01*
G01X-1838500Y-3488600D02*
X-1825700Y-3499200D01*
X-1811200Y-3505500D01*
X-1798300D01*
X-1785400Y-3499200D01*
X-1775800Y-3488600D01*
X-1771000Y-3473700D01*
X-1774200Y-3458900D01*
X-1782200Y-3446200D01*
X-1796700Y-3437800D01*
X-1816000Y-3433500D01*
X-1827300Y-3425100D01*
X-1832100Y-3410300D01*
X-1828900Y-3395400D01*
X-1820800Y-3384900D01*
X-1809600Y-3378500D01*
X-1798300D01*
X-1787100Y-3382700D01*
X-1777400Y-3393300D01*
G01X-1586000Y-3505500D02*
X-1545800Y-3378500D01*
X-1505500Y-3505500D01*
G01X-1520000Y-3461100D02*
X-1571500D01*
G01X-1448400Y-3505500D02*
Y-3378500D01*
X-1408200D01*
X-1395300Y-3384900D01*
X-1387300Y-3393300D01*
X-1384100Y-3410300D01*
X-1387300Y-3427200D01*
X-1396900Y-3437800D01*
X-1408200Y-3444100D01*
X-1448400D01*
G01X-1408200D02*
X-1384100Y-3505500D01*
G01X-1254600D02*
X-1318900D01*
Y-3378500D01*
X-1254600D01*
G01X-1280300Y-3439900D02*
X-1318900D01*
G01X-1047100Y-3378500D02*
X-1008500D01*
G01X-1027800D02*
Y-3505500D01*
G01X-1047100D02*
X-1008500D01*
G01X-935200D02*
Y-3378500D01*
X-861300Y-3505500D01*
Y-3378500D01*
G01X-681100Y-3505500D02*
Y-3378500D01*
X-639300Y-3484300D01*
X-597400Y-3378500D01*
Y-3505500D01*
G01X-529100Y-3378500D02*
X-490500D01*
G01X-509800D02*
Y-3505500D01*
G01X-529100D02*
X-490500D01*
G01X-412400Y-3378500D02*
Y-3505500D01*
X-348100D01*
G01X-292600D02*
Y-3378500D01*
X-250800Y-3484300D01*
X-208900Y-3378500D01*
Y-3505500D01*
G01X-89100D02*
X-153400D01*
Y-3378500D01*
X-89100D01*
G01X-114800Y-3439900D02*
X-153400D01*
G01X8200Y-3378500D02*
Y-3505500D01*
G01X-28700Y-3378500D02*
X45200D01*
G01X105600Y-3505500D02*
Y-3378500D01*
X145800D01*
X158700Y-3384900D01*
X166700Y-3393300D01*
X169900Y-3410300D01*
X166700Y-3427200D01*
X157100Y-3437800D01*
X145800Y-3444100D01*
X105600D01*
G01X145800D02*
X169900Y-3505500D01*
G01X299400D02*
X235100D01*
Y-3378500D01*
X299400D01*
G01X273700Y-3439900D02*
X235100D01*
G01X363000Y-3488600D02*
X375800Y-3499200D01*
X390300Y-3505500D01*
X403200D01*
X416100Y-3499200D01*
X425700Y-3488600D01*
X430500Y-3473700D01*
X427300Y-3458900D01*
X419300Y-3446200D01*
X404800Y-3437800D01*
X385500Y-3433500D01*
X374200Y-3425100D01*
X369400Y-3410300D01*
X372600Y-3395400D01*
X380700Y-3384900D01*
X391900Y-3378500D01*
X403200D01*
X414400Y-3382700D01*
X424100Y-3393300D01*
G01X-3005600Y-2680000D02*
Y-2771000D01*
X-2999200Y-2790100D01*
X-2986300Y-2802800D01*
X-2970300Y-2807000D01*
X-2954200Y-2802800D01*
X-2941300Y-2790100D01*
X-2934900Y-2771000D01*
Y-2680000D01*
G01X-2877700Y-2807000D02*
Y-2680000D01*
X-2803800Y-2807000D01*
Y-2680000D01*
G01X-2743400D02*
Y-2807000D01*
X-2679100D01*
G01X-2549600D02*
X-2613900D01*
Y-2680000D01*
X-2549600D01*
G01X-2575300Y-2741400D02*
X-2613900D01*
G01X-2486000Y-2790100D02*
X-2473200Y-2800700D01*
X-2458700Y-2807000D01*
X-2445800D01*
X-2432900Y-2800700D01*
X-2423300Y-2790100D01*
X-2418500Y-2775200D01*
X-2421700Y-2760400D01*
X-2429700Y-2747700D01*
X-2444200Y-2739300D01*
X-2463500Y-2735000D01*
X-2474800Y-2726600D01*
X-2479600Y-2711800D01*
X-2476400Y-2696900D01*
X-2468300Y-2686400D01*
X-2457100Y-2680000D01*
X-2445800D01*
X-2434600Y-2684200D01*
X-2424900Y-2694800D01*
G01X-2356500Y-2790100D02*
X-2343700Y-2800700D01*
X-2329200Y-2807000D01*
X-2316300D01*
X-2303400Y-2800700D01*
X-2293800Y-2790100D01*
X-2289000Y-2775200D01*
X-2292200Y-2760400D01*
X-2300200Y-2747700D01*
X-2314700Y-2739300D01*
X-2334000Y-2735000D01*
X-2345300Y-2726600D01*
X-2350100Y-2711800D01*
X-2346900Y-2696900D01*
X-2338800Y-2686400D01*
X-2327600Y-2680000D01*
X-2316300D01*
X-2305100Y-2684200D01*
X-2295400Y-2694800D01*
G01X-2063800Y-2807000D02*
X-2076600Y-2804900D01*
X-2087900Y-2796400D01*
X-2097500Y-2783700D01*
X-2104000Y-2768900D01*
X-2107200Y-2752000D01*
Y-2735000D01*
X-2104000Y-2718100D01*
X-2097500Y-2703300D01*
X-2087900Y-2690600D01*
X-2076600Y-2682100D01*
X-2063800Y-2680000D01*
X-2050900Y-2682100D01*
X-2039600Y-2690600D01*
X-2030000Y-2703300D01*
X-2023500Y-2718100D01*
X-2020300Y-2735000D01*
Y-2752000D01*
X-2023500Y-2768900D01*
X-2030000Y-2783700D01*
X-2039600Y-2796400D01*
X-2050900Y-2804900D01*
X-2063800Y-2807000D01*
G01X-1934300Y-2680000D02*
Y-2807000D01*
G01X-1971200Y-2680000D02*
X-1897300D01*
G01X-1838500Y-2807000D02*
Y-2680000D01*
G01X-1771000D02*
Y-2807000D01*
G01Y-2743500D02*
X-1838500D01*
G01X-1643100Y-2807000D02*
X-1707400D01*
Y-2680000D01*
X-1643100D01*
G01X-1668800Y-2741400D02*
X-1707400D01*
G01X-1577900Y-2807000D02*
Y-2680000D01*
X-1537700D01*
X-1524800Y-2686400D01*
X-1516800Y-2694800D01*
X-1513600Y-2711800D01*
X-1516800Y-2728700D01*
X-1526400Y-2739300D01*
X-1537700Y-2745600D01*
X-1577900D01*
G01X-1537700D02*
X-1513600Y-2807000D01*
G01X-1464500Y-2680000D02*
X-1442000Y-2807000D01*
X-1416300Y-2680000D01*
X-1390500Y-2807000D01*
X-1368000Y-2680000D01*
G01X-1306100D02*
X-1267500D01*
G01X-1286800D02*
Y-2807000D01*
G01X-1306100D02*
X-1267500D01*
G01X-1191000Y-2790100D02*
X-1178200Y-2800700D01*
X-1163700Y-2807000D01*
X-1150800D01*
X-1137900Y-2800700D01*
X-1128300Y-2790100D01*
X-1123500Y-2775200D01*
X-1126700Y-2760400D01*
X-1134700Y-2747700D01*
X-1149200Y-2739300D01*
X-1168500Y-2735000D01*
X-1179800Y-2726600D01*
X-1184600Y-2711800D01*
X-1181400Y-2696900D01*
X-1173300Y-2686400D01*
X-1162100Y-2680000D01*
X-1150800D01*
X-1139600Y-2684200D01*
X-1129900Y-2694800D01*
G01X-995600Y-2807000D02*
X-1059900D01*
Y-2680000D01*
X-995600D01*
G01X-1021300Y-2741400D02*
X-1059900D01*
G01X-802500Y-2790100D02*
X-789700Y-2800700D01*
X-775200Y-2807000D01*
X-762300D01*
X-749400Y-2800700D01*
X-739800Y-2790100D01*
X-735000Y-2775200D01*
X-738200Y-2760400D01*
X-746200Y-2747700D01*
X-760700Y-2739300D01*
X-780000Y-2735000D01*
X-791300Y-2726600D01*
X-796100Y-2711800D01*
X-792900Y-2696900D01*
X-784800Y-2686400D01*
X-773600Y-2680000D01*
X-762300D01*
X-751100Y-2684200D01*
X-741400Y-2694800D01*
G01X-671400Y-2807000D02*
Y-2680000D01*
X-632800D01*
X-619900Y-2686400D01*
X-610300Y-2701200D01*
X-607100Y-2718100D01*
X-610300Y-2735000D01*
X-618300Y-2747700D01*
X-632800Y-2754100D01*
X-671400D01*
G01X-477600Y-2807000D02*
X-541900D01*
Y-2680000D01*
X-477600D01*
G01X-503300Y-2741400D02*
X-541900D01*
G01X-344900Y-2690600D02*
X-354500Y-2684200D01*
X-365800Y-2680000D01*
X-378600D01*
X-393100Y-2686400D01*
X-404400Y-2696900D01*
X-412400Y-2709600D01*
X-418900Y-2730800D01*
X-420500Y-2749900D01*
X-417200Y-2768900D01*
X-412400Y-2781600D01*
X-402800Y-2794300D01*
X-391500Y-2802800D01*
X-380300Y-2807000D01*
X-369000D01*
X-357700Y-2802800D01*
X-348100Y-2796400D01*
X-340000Y-2788000D01*
G01X-270100Y-2680000D02*
X-231500D01*
G01X-250800D02*
Y-2807000D01*
G01X-270100D02*
X-231500D01*
G01X-151800D02*
Y-2680000D01*
X-90700D01*
G01X-113200Y-2741400D02*
X-151800D01*
G01X-11100Y-2680000D02*
X27500D01*
G01X8200D02*
Y-2807000D01*
G01X-11100D02*
X27500D01*
G01X169900D02*
X105600D01*
Y-2680000D01*
X169900D01*
G01X144200Y-2741400D02*
X105600D01*
G01X231900Y-2807000D02*
Y-2680000D01*
X264000D01*
X276900Y-2686400D01*
X286600Y-2694800D01*
X294600Y-2707500D01*
X301000Y-2722300D01*
X302600Y-2743500D01*
X301000Y-2764700D01*
X294600Y-2779500D01*
X286600Y-2792200D01*
X276900Y-2800700D01*
X264000Y-2807000D01*
X231900D01*
G01X-2446500Y9185000D02*
Y17455000D01*
X15266500D01*
Y9185000D01*
X-2446500D01*
G01Y9820000D02*
X15266500D01*
G01X-2446500Y10455000D02*
X15266500D01*
G01X-2446500Y11090000D02*
X15266500D01*
G01X-2446500Y11725000D02*
X15266500D01*
G01X-2446500Y12360000D02*
X15266500D01*
G01X-2446500Y12995000D02*
X15266500D01*
G01X-2446500Y13630000D02*
X15266500D01*
G01X-2446500Y14265000D02*
X15266500D01*
G01X-2446500Y14900000D02*
X15266500D01*
G01X-2446500Y15535000D02*
X15266500D01*
G01X-2446500Y16170000D02*
X15266500D01*
G01X-2446500Y16805000D02*
X15266500D01*
G01X0Y0D02*
X13900000D01*
Y5420000D01*
X13740000D01*
G02X13640000Y5520000I0J100000D01*
G01Y6500000D01*
X13530000D01*
G02X13430000Y6600000I0J100000D01*
G01Y7650000D01*
X330000D01*
Y5040000D01*
G02X230000Y4940000I-100000J0D01*
G01X0D01*
Y0D01*
G01X-163500Y16170000D02*
Y9185000D01*
G01X601000Y-2362500D02*
Y-6934500D01*
G01Y-6045500D02*
X5935000D01*
G01X601000Y-5410500D02*
X5935000D01*
G01X601000Y-4648500D02*
X5935000D01*
G01X601000Y-3886500D02*
X5935000D01*
G01X3903000Y-5347000D02*
Y-5410500D01*
G01Y-5347000D02*
Y-2362500D01*
G01X3839500Y17767000D02*
Y17005000D01*
G01Y20053000D02*
Y17767000D01*
G01Y18529000D02*
X16539500D01*
G01X3839500Y19291000D02*
X16539500D01*
G01X4953600Y16170000D02*
Y9185000D01*
G01X4855500Y17767000D02*
Y17005000D01*
G01Y17767000D02*
Y19291000D01*
G01X5935000Y-2362500D02*
Y-6934500D01*
G01X12285000Y-6172500D02*
X5935000D01*
G01X16603000Y-5156500D02*
X5935000D01*
G01X16603000Y-3632500D02*
X5935000D01*
G01X7205000Y-6172500D02*
Y-5156500D01*
G01X8221000Y-6172500D02*
Y-6934500D01*
G01X10253000Y-6172500D02*
Y-5156500D01*
G01X10070700Y16170000D02*
Y9185000D01*
G01X11713500Y17767000D02*
Y17005000D01*
G01Y17513000D02*
Y18529000D01*
G01D02*
Y19291000D01*
G01X12285000Y-6934500D02*
Y-6172500D01*
X16603000D01*
G01X13298400Y16170000D02*
Y9185000D01*
G01X13999500Y17767000D02*
Y17005000D01*
G01Y17767000D02*
Y18529000D01*
G01D02*
Y19291000D01*
G01X16539500Y19926000D02*
Y16878000D01*
G54D12*
X-1305000Y10772500D03*
X300000Y1090000D03*
X550000Y6550000D03*
X7300000Y1090000D03*
X13205000Y6550000D03*
X13600000Y1090000D03*
G54D22*
G01X1698400Y-2785700D02*
X1714300Y-2799000D01*
X1732200Y-2807000D01*
X1748200D01*
X1764100Y-2799000D01*
X1776000Y-2785700D01*
X1782000Y-2767000D01*
X1778000Y-2748300D01*
X1768100Y-2732300D01*
X1750100Y-2721700D01*
X1726300Y-2716300D01*
X1712300Y-2705700D01*
X1706400Y-2687000D01*
X1710400Y-2668300D01*
X1720300Y-2655000D01*
X1734200Y-2647000D01*
X1748200D01*
X1762100Y-2652300D01*
X1774000Y-2665700D01*
G01X1876300Y-2647000D02*
X1924100D01*
G01X1900200D02*
Y-2807000D01*
G01X1876300D02*
X1924100D01*
G01X2072100Y-2727000D02*
X2111900D01*
Y-2775000D01*
X2100000Y-2791000D01*
X2086100Y-2801700D01*
X2066200Y-2807000D01*
X2046300Y-2801700D01*
X2032300Y-2791000D01*
X2020400Y-2775000D01*
X2012400Y-2756300D01*
X2008500Y-2735000D01*
Y-2716300D01*
X2012400Y-2700300D01*
X2020400Y-2681700D01*
X2032300Y-2665700D01*
X2044300Y-2655000D01*
X2060200Y-2647000D01*
X2074100D01*
X2090000Y-2652300D01*
X2102000Y-2663000D01*
G01X2174400Y-2807000D02*
Y-2647000D01*
X2266000Y-2807000D01*
Y-2647000D01*
G01X2330400Y-2807000D02*
X2380200Y-2647000D01*
X2430000Y-2807000D01*
G01X2412000Y-2751000D02*
X2348400D01*
G01X2540200Y-2647000D02*
Y-2807000D01*
G01X2494400Y-2647000D02*
X2586000D01*
G01X2656400D02*
Y-2761700D01*
X2664400Y-2785700D01*
X2680300Y-2801700D01*
X2700200Y-2807000D01*
X2720100Y-2801700D01*
X2736000Y-2785700D01*
X2744000Y-2761700D01*
Y-2647000D01*
G01X2820400Y-2807000D02*
Y-2647000D01*
X2870100D01*
X2886100Y-2655000D01*
X2896000Y-2665700D01*
X2900000Y-2687000D01*
X2896000Y-2708300D01*
X2884100Y-2721700D01*
X2870100Y-2729700D01*
X2820400D01*
G01X2870100D02*
X2900000Y-2807000D01*
G01X3060000D02*
X2980400D01*
Y-2647000D01*
X3060000D01*
G01X3028200Y-2724300D02*
X2980400D01*
G01X3138400Y-2785700D02*
X3154300Y-2799000D01*
X3172200Y-2807000D01*
X3188200D01*
X3204100Y-2799000D01*
X3216000Y-2785700D01*
X3222000Y-2767000D01*
X3218000Y-2748300D01*
X3208100Y-2732300D01*
X3190100Y-2721700D01*
X3166300Y-2716300D01*
X3152300Y-2705700D01*
X3146400Y-2687000D01*
X3150400Y-2668300D01*
X3160300Y-2655000D01*
X3174200Y-2647000D01*
X3188200D01*
X3202100Y-2652300D01*
X3214000Y-2665700D01*
G01X4553900Y-2807000D02*
Y-2647000D01*
X4593700D01*
X4609600Y-2655000D01*
X4621600Y-2665700D01*
X4631500Y-2681700D01*
X4639500Y-2700300D01*
X4641500Y-2727000D01*
X4639500Y-2753700D01*
X4631500Y-2772300D01*
X4621600Y-2788300D01*
X4609600Y-2799000D01*
X4593700Y-2807000D01*
X4553900D01*
G01X4707900D02*
X4757700Y-2647000D01*
X4807500Y-2807000D01*
G01X4789500Y-2751000D02*
X4725900D01*
G01X4917700Y-2647000D02*
Y-2807000D01*
G01X4871900Y-2647000D02*
X4963500D01*
G01X5117500Y-2807000D02*
X5037900D01*
Y-2647000D01*
X5117500D01*
G01X5085700Y-2724300D02*
X5037900D01*
G54D13*
X-1305000Y11407500D03*
X932500Y5260000D03*
X1250000Y5760000D03*
X932500Y6260000D03*
Y7260000D03*
X1500000D03*
X1790000Y5760000D03*
X2357500Y3760000D03*
Y4760000D03*
Y5760000D03*
X2675000D03*
X2357500Y6760000D03*
X3215000Y5760000D03*
X2925000Y7260000D03*
X4100000Y5760000D03*
X4640000D03*
X4350000Y7260000D03*
X5207500Y5260000D03*
X5525000Y5760000D03*
X5207500Y6260000D03*
Y7260000D03*
X6065000Y5760000D03*
X5775000Y7260000D03*
X6632500Y3760000D03*
Y4760000D03*
Y5760000D03*
Y6760000D03*
X7097500Y5260000D03*
X7415000Y5760000D03*
X7097500Y6260000D03*
Y7260000D03*
X7955000Y5760000D03*
X7665000Y7260000D03*
X8522500Y3760000D03*
Y4760000D03*
Y5760000D03*
Y6760000D03*
X8840000Y5760000D03*
X9380000D03*
X9090000Y7260000D03*
X10265000Y5760000D03*
X10805000D03*
X10515000Y7260000D03*
X11372500Y5260000D03*
Y6260000D03*
Y7260000D03*
X11690000Y5760000D03*
X12230000D03*
X11940000Y7260000D03*
X12797500Y3760000D03*
Y4760000D03*
Y5760000D03*
Y6760000D03*
G54D23*
G01X3998200Y18783000D02*
Y19037000D01*
X4077600D01*
X4103000Y19024300D01*
X4118900Y19007400D01*
X4125300Y18973500D01*
X4118900Y18939600D01*
X4099900Y18918500D01*
X4077600Y18905800D01*
X3998200D01*
G01X4077600D02*
X4125300Y18783000D01*
G01X4379300D02*
X4252200D01*
Y19037000D01*
X4379300D01*
G01X4328500Y18914200D02*
X4252200D01*
G01X4490400Y19037000D02*
X4569700Y18783000D01*
X4649100Y19037000D01*
G01X6090600Y-6519600D02*
X6116000Y-6540800D01*
X6144500Y-6553500D01*
X6170000D01*
X6195400Y-6540800D01*
X6214400Y-6519600D01*
X6223900Y-6490000D01*
X6217600Y-6460400D01*
X6201700Y-6435000D01*
X6173100Y-6418000D01*
X6135000Y-6409600D01*
X6112800Y-6392600D01*
X6103300Y-6363000D01*
X6109600Y-6333400D01*
X6125500Y-6312200D01*
X6147700Y-6299500D01*
X6170000D01*
X6192200Y-6308000D01*
X6211200Y-6329100D01*
G01X6481100Y-6320700D02*
X6462000Y-6308000D01*
X6439800Y-6299500D01*
X6414400D01*
X6385800Y-6312200D01*
X6363600Y-6333400D01*
X6347700Y-6358800D01*
X6335000Y-6401100D01*
X6331900Y-6439200D01*
X6338200Y-6477300D01*
X6347700Y-6502700D01*
X6366800Y-6528100D01*
X6389000Y-6545000D01*
X6411200Y-6553500D01*
X6433500D01*
X6455700Y-6545000D01*
X6474800Y-6532300D01*
X6490600Y-6515400D01*
G01X6585900Y-6553500D02*
X6665200Y-6299500D01*
X6744600Y-6553500D01*
G01X6716000Y-6464600D02*
X6614400D01*
G01X6855700Y-6299500D02*
Y-6553500D01*
X6982800D01*
G01X7236800D02*
X7109700D01*
Y-6299500D01*
X7236800D01*
G01X7186000Y-6422300D02*
X7109700D01*
G01X6090600Y-5503600D02*
X6116000Y-5524800D01*
X6144500Y-5537500D01*
X6170000D01*
X6195400Y-5524800D01*
X6214400Y-5503600D01*
X6223900Y-5474000D01*
X6217600Y-5444400D01*
X6201700Y-5419000D01*
X6173100Y-5402000D01*
X6135000Y-5393600D01*
X6112800Y-5376600D01*
X6103300Y-5347000D01*
X6109600Y-5317400D01*
X6125500Y-5296200D01*
X6147700Y-5283500D01*
X6170000D01*
X6192200Y-5292000D01*
X6211200Y-5313100D01*
G01X6373100Y-5283500D02*
X6449300D01*
G01X6411200D02*
Y-5537500D01*
G01X6373100D02*
X6449300D01*
G01X6604900Y-5283500D02*
X6725600D01*
X6604900Y-5537500D01*
X6725600D01*
G01X6982800D02*
X6855700D01*
Y-5283500D01*
X6982800D01*
G01X6932000Y-5406300D02*
X6855700D01*
G01X6658900Y18783000D02*
Y19037000D01*
X6722400D01*
X6747800Y19024300D01*
X6766900Y19007400D01*
X6782700Y18982000D01*
X6795400Y18952300D01*
X6798600Y18910000D01*
X6795400Y18867700D01*
X6782700Y18838000D01*
X6766900Y18812600D01*
X6747800Y18795700D01*
X6722400Y18783000D01*
X6658900D01*
G01X7046300D02*
X6919200D01*
Y19037000D01*
X7046300D01*
G01X6995500Y18914200D02*
X6919200D01*
G01X7170100Y18816900D02*
X7195500Y18795700D01*
X7224000Y18783000D01*
X7249500D01*
X7274900Y18795700D01*
X7293900Y18816900D01*
X7303400Y18846500D01*
X7297100Y18876100D01*
X7281200Y18901500D01*
X7252600Y18918500D01*
X7214500Y18926900D01*
X7192300Y18943900D01*
X7182800Y18973500D01*
X7189100Y19003100D01*
X7205000Y19024300D01*
X7227200Y19037000D01*
X7249500D01*
X7271700Y19028500D01*
X7290700Y19007400D01*
G01X7560600Y19015800D02*
X7541500Y19028500D01*
X7519300Y19037000D01*
X7493900D01*
X7465300Y19024300D01*
X7443100Y19003100D01*
X7427200Y18977700D01*
X7414500Y18935400D01*
X7411400Y18897300D01*
X7417700Y18859200D01*
X7427200Y18833800D01*
X7446300Y18808400D01*
X7468500Y18791500D01*
X7490700Y18783000D01*
X7513000D01*
X7535200Y18791500D01*
X7554300Y18804200D01*
X7570100Y18821100D01*
G01X7681200Y18783000D02*
Y19037000D01*
X7760600D01*
X7786000Y19024300D01*
X7801900Y19007400D01*
X7808300Y18973500D01*
X7801900Y18939600D01*
X7782900Y18918500D01*
X7760600Y18905800D01*
X7681200D01*
G01X7760600D02*
X7808300Y18783000D01*
G01X7960600Y19037000D02*
X8036800D01*
G01X7998700D02*
Y18783000D01*
G01X7960600D02*
X8036800D01*
G01X8189200D02*
Y19037000D01*
X8265500D01*
X8290900Y19024300D01*
X8309900Y18994700D01*
X8316300Y18960800D01*
X8309900Y18926900D01*
X8294000Y18901500D01*
X8265500Y18888800D01*
X8189200D01*
G01X8506700Y19037000D02*
Y18783000D01*
G01X8433700Y19037000D02*
X8579800D01*
G01X8722600D02*
X8798800D01*
G01X8760700D02*
Y18783000D01*
G01X8722600D02*
X8798800D01*
G01X9014700D02*
X8989300Y18787200D01*
X8967100Y18804200D01*
X8948100Y18829600D01*
X8935400Y18859200D01*
X8929000Y18893100D01*
Y18926900D01*
X8935400Y18960800D01*
X8948100Y18990400D01*
X8967100Y19015800D01*
X8989300Y19032800D01*
X9014700Y19037000D01*
X9040100Y19032800D01*
X9062400Y19015800D01*
X9081400Y18990400D01*
X9094100Y18960800D01*
X9100500Y18926900D01*
Y18893100D01*
X9094100Y18859200D01*
X9081400Y18829600D01*
X9062400Y18804200D01*
X9040100Y18787200D01*
X9014700Y18783000D01*
G01X9195700D02*
Y19037000D01*
X9341800Y18783000D01*
Y19037000D01*
G01X7493900Y-5537500D02*
Y-5283500D01*
X7614600D01*
G01X7570100Y-5406300D02*
X7493900D01*
G01X7741600Y-5503600D02*
X7767000Y-5524800D01*
X7795500Y-5537500D01*
X7821000D01*
X7846400Y-5524800D01*
X7865400Y-5503600D01*
X7874900Y-5474000D01*
X7868600Y-5444400D01*
X7852700Y-5419000D01*
X7824100Y-5402000D01*
X7786000Y-5393600D01*
X7763800Y-5376600D01*
X7754300Y-5347000D01*
X7760600Y-5317400D01*
X7776500Y-5296200D01*
X7798700Y-5283500D01*
X7821000D01*
X7843200Y-5292000D01*
X7862200Y-5313100D01*
G01X8132100Y-5304700D02*
X8113000Y-5292000D01*
X8090800Y-5283500D01*
X8065400D01*
X8036800Y-5296200D01*
X8014600Y-5317400D01*
X7998700Y-5342800D01*
X7986000Y-5385100D01*
X7982900Y-5423200D01*
X7989200Y-5461300D01*
X7998700Y-5486700D01*
X8017800Y-5512100D01*
X8040000Y-5529000D01*
X8062200Y-5537500D01*
X8084500D01*
X8106700Y-5529000D01*
X8125800Y-5516300D01*
X8141600Y-5499400D01*
G01X8233700Y-5537500D02*
Y-5283500D01*
X8316200Y-5495200D01*
X8398800Y-5283500D01*
Y-5537500D01*
G01X8751200D02*
Y-5283500D01*
X8897300Y-5537500D01*
Y-5283500D01*
G01X9078200Y-5537500D02*
X9052800Y-5533300D01*
X9030600Y-5516300D01*
X9011600Y-5490900D01*
X8998900Y-5461300D01*
X8992500Y-5427400D01*
Y-5393600D01*
X8998900Y-5359700D01*
X9011600Y-5330100D01*
X9030600Y-5304700D01*
X9052800Y-5287700D01*
X9078200Y-5283500D01*
X9103600Y-5287700D01*
X9125900Y-5304700D01*
X9144900Y-5330100D01*
X9157600Y-5359700D01*
X9164000Y-5393600D01*
Y-5427400D01*
X9157600Y-5461300D01*
X9144900Y-5490900D01*
X9125900Y-5516300D01*
X9103600Y-5533300D01*
X9078200Y-5537500D01*
G01X7738400Y-2870500D02*
Y-3052500D01*
X7751100Y-3090600D01*
X7776500Y-3116000D01*
X7808200Y-3124500D01*
X7840000Y-3116000D01*
X7865400Y-3090600D01*
X7878100Y-3052500D01*
Y-2870500D01*
G01X8008300Y-3124500D02*
Y-2955200D01*
G01Y-2997500D02*
X8021000Y-2976300D01*
X8040000Y-2959400D01*
X8065400Y-2955200D01*
X8087600Y-2959400D01*
X8106700Y-2976300D01*
X8116200Y-3006000D01*
Y-3124500D01*
G01X8316200Y-2955200D02*
Y-3124500D01*
G01Y-2887400D02*
X8309900Y-2883200D01*
Y-2874700D01*
X8316200Y-2870500D01*
X8322600Y-2874700D01*
Y-2883200D01*
X8316200Y-2887400D01*
G01X8513100Y-2955200D02*
X8570200Y-3124500D01*
X8627400Y-2955200D01*
G01X8776600Y-3010200D02*
X8878200D01*
X8868700Y-2980600D01*
X8852800Y-2963600D01*
X8830600Y-2955200D01*
X8808400Y-2959400D01*
X8789300Y-2972100D01*
X8776600Y-3001700D01*
X8770300Y-3027100D01*
Y-3052500D01*
X8776600Y-3077900D01*
X8792500Y-3103300D01*
X8811500Y-3120300D01*
X8833800Y-3124500D01*
X8856000Y-3116000D01*
X8878200Y-3090600D01*
G01X9033800Y-3124500D02*
Y-2955200D01*
G01Y-2989000D02*
X9049700Y-2972100D01*
X9065500Y-2959400D01*
X9087800Y-2955200D01*
X9103600Y-2959400D01*
X9122700Y-2972100D01*
G01X9284600Y-3094900D02*
X9300500Y-3111800D01*
X9322700Y-3124500D01*
X9341800D01*
X9360800Y-3116000D01*
X9373500Y-3103300D01*
X9379900Y-3086400D01*
X9376700Y-3061000D01*
X9364000Y-3048300D01*
X9306800Y-3022900D01*
X9294100Y-2993300D01*
X9300500Y-2972100D01*
X9313200Y-2959400D01*
X9332200Y-2955200D01*
X9351300Y-2959400D01*
X9370400Y-2972100D01*
G01X9586200Y-2955200D02*
Y-3124500D01*
G01Y-2887400D02*
X9579900Y-2883200D01*
Y-2874700D01*
X9586200Y-2870500D01*
X9592600Y-2874700D01*
Y-2883200D01*
X9586200Y-2887400D01*
G01X9840200Y-2870500D02*
Y-3124500D01*
G01X9795800Y-2955200D02*
X9884700D01*
G01X10027600Y-3200700D02*
X10046600Y-3209200D01*
X10072000Y-3200700D01*
X10087900Y-3183800D01*
X10100600Y-3162600D01*
X10119600Y-3094900D01*
X10160900Y-2955200D01*
G01X10059300D02*
X10119600Y-3094900D01*
G01X10602200Y-3124500D02*
X10583200Y-3120300D01*
X10564100Y-3103300D01*
X10551400Y-3073700D01*
X10545100Y-3039800D01*
X10551400Y-3006000D01*
X10564100Y-2976300D01*
X10583200Y-2959400D01*
X10602200Y-2955200D01*
X10621300Y-2959400D01*
X10640400Y-2976300D01*
X10653000Y-3006000D01*
X10656200Y-3039800D01*
X10653000Y-3073700D01*
X10640400Y-3103300D01*
X10621300Y-3120300D01*
X10602200Y-3124500D01*
G01X10837200D02*
Y-2908600D01*
X10843500Y-2887400D01*
X10856200Y-2874700D01*
X10875300Y-2870500D01*
X10894400Y-2879000D01*
X10903900Y-2900100D01*
G01X10865800Y-2972100D02*
X10802300D01*
G01X11389600Y-2989000D02*
X11402400Y-2976300D01*
X11411900Y-2955200D01*
X11418200Y-2925500D01*
X11411900Y-2900100D01*
X11399200Y-2883200D01*
X11377000Y-2870500D01*
X11291200D01*
Y-3124500D01*
X11396000D01*
X11418200Y-3107600D01*
X11430900Y-3082200D01*
X11437300Y-3052500D01*
X11430900Y-3022900D01*
X11411900Y-2997500D01*
X11389600Y-2989000D01*
X11291200D01*
G01X11573800Y-3124500D02*
Y-2955200D01*
G01Y-2989000D02*
X11589700Y-2972100D01*
X11605500Y-2959400D01*
X11627800Y-2955200D01*
X11643600Y-2959400D01*
X11662700Y-2972100D01*
G01X11872200Y-2955200D02*
Y-3124500D01*
G01Y-2887400D02*
X11865900Y-2883200D01*
Y-2874700D01*
X11872200Y-2870500D01*
X11878600Y-2874700D01*
Y-2883200D01*
X11872200Y-2887400D01*
G01X12078600Y-3094900D02*
X12094500Y-3111800D01*
X12116700Y-3124500D01*
X12135800D01*
X12154800Y-3116000D01*
X12167500Y-3103300D01*
X12173900Y-3086400D01*
X12170700Y-3061000D01*
X12158000Y-3048300D01*
X12100800Y-3022900D01*
X12088100Y-2993300D01*
X12094500Y-2972100D01*
X12107200Y-2959400D01*
X12126200Y-2955200D01*
X12145300Y-2959400D01*
X12164400Y-2972100D01*
G01X12380200Y-2870500D02*
Y-3124500D01*
G01X12335800Y-2955200D02*
X12424700D01*
G01X12634200Y-3124500D02*
X12615200Y-3120300D01*
X12596100Y-3103300D01*
X12583400Y-3073700D01*
X12577100Y-3039800D01*
X12583400Y-3006000D01*
X12596100Y-2976300D01*
X12615200Y-2959400D01*
X12634200Y-2955200D01*
X12653300Y-2959400D01*
X12672400Y-2976300D01*
X12685000Y-3006000D01*
X12688200Y-3039800D01*
X12685000Y-3073700D01*
X12672400Y-3103300D01*
X12653300Y-3120300D01*
X12634200Y-3124500D01*
G01X12888200D02*
Y-2870500D01*
G01X13329600Y-3124500D02*
Y-2870500D01*
G01X13462900D02*
Y-3124500D01*
G01Y-2997500D02*
X13329600D01*
G01X13713800Y-3124500D02*
X13586700D01*
Y-2870500D01*
X13713800D01*
G01X13663000Y-2993300D02*
X13586700D01*
G01X13840700Y-3124500D02*
Y-2870500D01*
X13917000D01*
X13942400Y-2883200D01*
X13961400Y-2912800D01*
X13967800Y-2946700D01*
X13961400Y-2980600D01*
X13945500Y-3006000D01*
X13917000Y-3018700D01*
X13840700D01*
G01X9332200Y19545000D02*
Y19799000D01*
X9411600D01*
X9437000Y19786300D01*
X9452900Y19769400D01*
X9459300Y19735500D01*
X9452900Y19701600D01*
X9433900Y19680500D01*
X9411600Y19667800D01*
X9332200D01*
G01X9411600D02*
X9459300Y19545000D01*
G01X9713300D02*
X9586200D01*
Y19799000D01*
X9713300D01*
G01X9662500Y19676200D02*
X9586200D01*
G01X9824400Y19799000D02*
X9903700Y19545000D01*
X9983100Y19799000D01*
G01X10119600D02*
X10195800D01*
G01X10157700D02*
Y19545000D01*
G01X10119600D02*
X10195800D01*
G01X10345100Y19578900D02*
X10370500Y19557700D01*
X10399000Y19545000D01*
X10424500D01*
X10449900Y19557700D01*
X10468900Y19578900D01*
X10478400Y19608500D01*
X10472100Y19638100D01*
X10456200Y19663500D01*
X10427600Y19680500D01*
X10389500Y19688900D01*
X10367300Y19705900D01*
X10357800Y19735500D01*
X10364100Y19765100D01*
X10380000Y19786300D01*
X10402200Y19799000D01*
X10424500D01*
X10446700Y19790500D01*
X10465700Y19769400D01*
G01X10627600Y19799000D02*
X10703800D01*
G01X10665700D02*
Y19545000D01*
G01X10627600D02*
X10703800D01*
G01X10919700D02*
X10894300Y19549200D01*
X10872100Y19566200D01*
X10853100Y19591600D01*
X10840400Y19621200D01*
X10834000Y19655100D01*
Y19688900D01*
X10840400Y19722800D01*
X10853100Y19752400D01*
X10872100Y19777800D01*
X10894300Y19794800D01*
X10919700Y19799000D01*
X10945100Y19794800D01*
X10967400Y19777800D01*
X10986400Y19752400D01*
X10999100Y19722800D01*
X11005500Y19688900D01*
Y19655100D01*
X10999100Y19621200D01*
X10986400Y19591600D01*
X10967400Y19566200D01*
X10945100Y19549200D01*
X10919700Y19545000D01*
G01X11100700D02*
Y19799000D01*
X11246800Y19545000D01*
Y19799000D01*
G01X11361100Y19578900D02*
X11386500Y19557700D01*
X11415000Y19545000D01*
X11440500D01*
X11465900Y19557700D01*
X11484900Y19578900D01*
X11494400Y19608500D01*
X11488100Y19638100D01*
X11472200Y19663500D01*
X11443600Y19680500D01*
X11405500Y19688900D01*
X11383300Y19705900D01*
X11373800Y19735500D01*
X11380100Y19765100D01*
X11396000Y19786300D01*
X11418200Y19799000D01*
X11440500D01*
X11462700Y19790500D01*
X11481700Y19769400D01*
G01X10532400Y-5537500D02*
Y-5283500D01*
X10595900D01*
X10621300Y-5296200D01*
X10640400Y-5313100D01*
X10656200Y-5338500D01*
X10668900Y-5368200D01*
X10672100Y-5410500D01*
X10668900Y-5452800D01*
X10656200Y-5482500D01*
X10640400Y-5507900D01*
X10621300Y-5524800D01*
X10595900Y-5537500D01*
X10532400D01*
G01X10761000Y-5283500D02*
X10805400Y-5537500D01*
X10856200Y-5283500D01*
X10907000Y-5537500D01*
X10951500Y-5283500D01*
G01X11129300Y-5410500D02*
X11192800D01*
Y-5486700D01*
X11173800Y-5512100D01*
X11151500Y-5529000D01*
X11119800Y-5537500D01*
X11088000Y-5529000D01*
X11065800Y-5512100D01*
X11046700Y-5486700D01*
X11034000Y-5457100D01*
X11027700Y-5423200D01*
Y-5393600D01*
X11034000Y-5368200D01*
X11046700Y-5338500D01*
X11065800Y-5313100D01*
X11084800Y-5296200D01*
X11110200Y-5283500D01*
X11132500D01*
X11157900Y-5292000D01*
X11176900Y-5308900D01*
G01X11545200Y-5537500D02*
Y-5283500D01*
X11691300Y-5537500D01*
Y-5283500D01*
G01X11872200Y-5537500D02*
X11846800Y-5533300D01*
X11824600Y-5516300D01*
X11805600Y-5490900D01*
X11792900Y-5461300D01*
X11786500Y-5427400D01*
Y-5393600D01*
X11792900Y-5359700D01*
X11805600Y-5330100D01*
X11824600Y-5304700D01*
X11846800Y-5287700D01*
X11872200Y-5283500D01*
X11897600Y-5287700D01*
X11919900Y-5304700D01*
X11938900Y-5330100D01*
X11951600Y-5359700D01*
X11958000Y-5393600D01*
Y-5427400D01*
X11951600Y-5461300D01*
X11938900Y-5490900D01*
X11919900Y-5516300D01*
X11897600Y-5533300D01*
X11872200Y-5537500D01*
G01X12567600Y-6519600D02*
X12593000Y-6540800D01*
X12621500Y-6553500D01*
X12647000D01*
X12672400Y-6540800D01*
X12691400Y-6519600D01*
X12700900Y-6490000D01*
X12694600Y-6460400D01*
X12678700Y-6435000D01*
X12650100Y-6418000D01*
X12612000Y-6409600D01*
X12589800Y-6392600D01*
X12580300Y-6363000D01*
X12586600Y-6333400D01*
X12602500Y-6312200D01*
X12624700Y-6299500D01*
X12647000D01*
X12669200Y-6308000D01*
X12688200Y-6329100D01*
G01X12821600Y-6553500D02*
Y-6299500D01*
G01X12954900D02*
Y-6553500D01*
G01Y-6426500D02*
X12821600D01*
G01X13205800Y-6553500D02*
X13078700D01*
Y-6299500D01*
X13205800D01*
G01X13155000Y-6422300D02*
X13078700D01*
G01X13459800Y-6553500D02*
X13332700D01*
Y-6299500D01*
X13459800D01*
G01X13409000Y-6422300D02*
X13332700D01*
G01X13650200Y-6299500D02*
Y-6553500D01*
G01X13577200Y-6299500D02*
X13723300D01*
G01X12373900Y18783000D02*
Y19037000D01*
X12437400D01*
X12462800Y19024300D01*
X12481900Y19007400D01*
X12497700Y18982000D01*
X12510400Y18952300D01*
X12513600Y18910000D01*
X12510400Y18867700D01*
X12497700Y18838000D01*
X12481900Y18812600D01*
X12462800Y18795700D01*
X12437400Y18783000D01*
X12373900D01*
G01X12618400D02*
X12697700Y19037000D01*
X12777100Y18783000D01*
G01X12748500Y18871900D02*
X12646900D01*
G01X12951700Y19037000D02*
Y18783000D01*
G01X12878700Y19037000D02*
X13024800D01*
G01X13269300Y18783000D02*
X13142200D01*
Y19037000D01*
X13269300D01*
G01X13218500Y18914200D02*
X13142200D01*
G01X14269400Y18783000D02*
X14348700Y19037000D01*
X14428100Y18783000D01*
G01X14399500Y18871900D02*
X14297900D01*
G01X14539200Y18783000D02*
Y19037000D01*
X14615500D01*
X14640900Y19024300D01*
X14659900Y18994700D01*
X14666300Y18960800D01*
X14659900Y18926900D01*
X14644000Y18901500D01*
X14615500Y18888800D01*
X14539200D01*
G01X14793200Y18783000D02*
Y19037000D01*
X14869500D01*
X14894900Y19024300D01*
X14913900Y18994700D01*
X14920300Y18960800D01*
X14913900Y18926900D01*
X14898000Y18901500D01*
X14869500Y18888800D01*
X14793200D01*
G01X15047200Y18783000D02*
Y19037000D01*
X15126600D01*
X15152000Y19024300D01*
X15167900Y19007400D01*
X15174300Y18973500D01*
X15167900Y18939600D01*
X15148900Y18918500D01*
X15126600Y18905800D01*
X15047200D01*
G01X15126600D02*
X15174300Y18783000D01*
G01X15364700D02*
X15339300Y18787200D01*
X15317100Y18804200D01*
X15298100Y18829600D01*
X15285400Y18859200D01*
X15279000Y18893100D01*
Y18926900D01*
X15285400Y18960800D01*
X15298100Y18990400D01*
X15317100Y19015800D01*
X15339300Y19032800D01*
X15364700Y19037000D01*
X15390100Y19032800D01*
X15412400Y19015800D01*
X15431400Y18990400D01*
X15444100Y18960800D01*
X15450500Y18926900D01*
Y18893100D01*
X15444100Y18859200D01*
X15431400Y18829600D01*
X15412400Y18804200D01*
X15390100Y18787200D01*
X15364700Y18783000D01*
G01X15539400Y19037000D02*
X15618700Y18783000D01*
X15698100Y19037000D01*
G01X15936300Y18783000D02*
X15809200D01*
Y19037000D01*
X15936300D01*
G01X15885500Y18914200D02*
X15809200D01*
G01X16056900Y18783000D02*
Y19037000D01*
X16120400D01*
X16145800Y19024300D01*
X16164900Y19007400D01*
X16180700Y18982000D01*
X16193400Y18952300D01*
X16196600Y18910000D01*
X16193400Y18867700D01*
X16180700Y18838000D01*
X16164900Y18812600D01*
X16145800Y18795700D01*
X16120400Y18783000D01*
X16056900D01*
G54D14*
X-1305000Y12677500D03*
X932500Y4010000D03*
Y4510000D03*
Y4980000D03*
X1645000Y3550000D03*
X2125000D03*
X2357500Y4980000D03*
X3070000Y3550000D03*
X3550000D03*
X3782500Y3760000D03*
Y4760000D03*
Y5760000D03*
Y6760000D03*
X4495000Y3550000D03*
X4975000D03*
X5207500Y4010000D03*
Y4510000D03*
Y4980000D03*
X5920000Y3550000D03*
X6400000D03*
X6632500Y4980000D03*
X7097500Y4010000D03*
Y4510000D03*
Y4980000D03*
X7810000Y3550000D03*
X8290000D03*
X8522500Y4980000D03*
X9235000Y3550000D03*
X9715000D03*
X9947500Y3760000D03*
Y4760000D03*
Y5760000D03*
Y6760000D03*
X10660000Y3550000D03*
X11140000D03*
X11372500Y4010000D03*
Y4510000D03*
Y4980000D03*
X12085000Y3550000D03*
X12565000D03*
X12797500Y4980000D03*
G54D15*
X-1305000Y13312500D03*
X13440000Y4866000D03*
G54D16*
X-1305000Y13947500D03*
X13820000Y2640000D03*
G54D17*
X-1305000Y14582500D03*
X140000Y1600000D03*
X130000Y2090000D03*
X139500Y2267000D03*
X140000Y2597000D03*
X139500Y3053000D03*
X270000Y1930000D03*
X480000Y1600000D03*
X590000Y1880000D03*
X266500Y2267000D03*
X595000Y2075000D03*
X660000Y2267000D03*
X400000Y2600000D03*
X270000Y2597000D03*
X660000Y2513000D03*
X530000Y2590000D03*
X520500Y3053000D03*
X393500D03*
X266500D03*
X1110000Y532500D03*
Y92500D03*
Y387500D03*
X973000Y993000D03*
X1110000Y827500D03*
X820000Y1780000D03*
X1000000Y1785000D03*
X775000Y2075000D03*
X845000Y2520000D03*
Y2780000D03*
X1059500Y3805000D03*
Y3715000D03*
X1140000Y4719500D03*
X1650000Y1290000D03*
Y1070000D03*
X1582400Y1133500D03*
Y1206500D03*
X1350000Y1910000D03*
X1380000Y1610000D03*
X1530000Y1910000D03*
X1387500Y3427400D03*
X1460500D03*
X1520000Y3600000D03*
X1228500Y3760000D03*
X1560000Y3910000D03*
X1700000D03*
Y4155500D03*
X1550000Y4310500D03*
X1400000Y4155500D03*
X1290000Y4121800D03*
X1264000Y4429500D03*
X1344000D03*
X1580000Y4834500D03*
X1690000D03*
X1470000D03*
X1360000D03*
X1580000Y5080000D03*
X1470000D03*
X1360000D03*
X1690000D03*
X1800000Y240000D03*
X1860000Y350000D03*
X1937700Y496500D03*
Y423500D03*
X1810000Y790000D03*
Y980000D03*
X1800000Y680000D03*
X1860000Y570000D03*
X2110000Y790000D03*
X1810000Y1470000D03*
X2035700Y1360000D03*
X2040000Y1470000D03*
X1910000Y2370000D03*
X1710000D03*
X2110000Y2290000D03*
X2046500Y2326900D03*
X1973500D03*
X1846500D03*
X1773500D03*
X1910000Y2500000D03*
X2060000Y3180000D03*
X2110000Y3335000D03*
X1710000Y3336000D03*
X1760000Y3180000D03*
X2024000Y3910500D03*
X1784000Y3609500D03*
X1810000Y4131800D03*
X1984000Y4429500D03*
X1800000Y4834500D03*
X1824000Y4430000D03*
X1910000Y4834500D03*
Y5080000D03*
X1800000Y5080100D03*
X2330000Y550000D03*
X2400000D03*
X2410000Y330000D03*
X2330000Y620000D03*
Y690000D03*
X2400000Y620000D03*
Y690000D03*
X2260000Y1430000D03*
X2350000Y1480000D03*
X2635000Y1255000D03*
X2490000Y1690000D03*
X2420000D03*
X2350000D03*
Y1620000D03*
Y1550000D03*
X2607500Y2592500D03*
X2550000Y2930000D03*
X2420000D03*
X2390000Y2740000D03*
Y2640000D03*
X2330000Y3360000D03*
X2275000Y2985000D03*
X2653500Y3760000D03*
X2565000Y3940000D03*
Y4719500D03*
X3105000Y325000D03*
X2890000Y390000D03*
X2730000D03*
X2773500Y489800D03*
X2846500D03*
X3040000Y1090000D03*
X3130000Y2440000D03*
X2865000Y2805000D03*
Y2585000D03*
X3140000Y3336000D03*
X2705000Y2985000D03*
X2812500Y3427400D03*
X2885500D03*
X2940000Y3590000D03*
X2975000Y3915000D03*
X3125000D03*
Y4155500D03*
X2975000Y4310500D03*
X2825000Y4155500D03*
X2715000Y4121800D03*
X2689000Y4429500D03*
X2769000D03*
X3005000Y4834500D03*
X3115000D03*
X2895000D03*
X2785000D03*
Y5080000D03*
X2895000D03*
X3005000D03*
X3115000D03*
X3290000Y740000D03*
Y670000D03*
Y600000D03*
X3220000Y740000D03*
X3150000D03*
X3610000Y830000D03*
X3290000Y1500000D03*
X3220000D03*
X3440000Y1240000D03*
X3450000Y1090000D03*
X3290000Y1640000D03*
X3220000D03*
Y1570000D03*
X3290000D03*
X3330000Y2440000D03*
X3530000Y2360000D03*
X3466500Y2400000D03*
X3393500D03*
X3266500D03*
X3193500D03*
X3490000Y3180000D03*
X3530000Y3335000D03*
X3190000Y3180000D03*
X3449000Y3910500D03*
X3209000Y3609500D03*
X3235000Y4131800D03*
X3409000Y4429500D03*
X3225000Y4834500D03*
X3335000D03*
X3249000Y4430000D03*
X3225000Y5080000D03*
X3335000D03*
X3890000Y710000D03*
X4002500Y725000D03*
X4075500D03*
X4028000Y1595000D03*
X3955000D03*
X4101000D03*
X3675000Y2465000D03*
X4090000Y2930000D03*
X3890000Y2980000D03*
X3909500Y3805000D03*
X4078500Y3760000D03*
X3909500Y3715000D03*
X3990000Y4719500D03*
X4221500Y725000D03*
X4367500D03*
X4440500D03*
X4565000Y1085000D03*
X4393000Y1595000D03*
X4466000D03*
X4320000D03*
X4174000D03*
X4247000D03*
X4550000Y2400000D03*
X4212500Y2592500D03*
X4220000Y2930000D03*
X4505000Y2815000D03*
Y2570000D03*
X4110000Y2740000D03*
Y2640000D03*
X4560000Y3336000D03*
X4345000Y3000000D03*
X4237500Y3427400D03*
X4310500D03*
X4362500Y3587500D03*
X4400000Y3910000D03*
X4550000D03*
Y4155500D03*
X4400000Y4310500D03*
X4250000Y4155500D03*
X4140000Y4121800D03*
X4114000Y4429500D03*
X4194000D03*
X4430000Y4834500D03*
X4540000D03*
X4320000D03*
X4210000D03*
X4430000Y5080000D03*
X4540000D03*
X4210000D03*
X4320000D03*
X4890000Y710000D03*
X4655000Y995000D03*
X5002500Y725000D03*
X4630000Y1400000D03*
Y1180000D03*
X5028000Y1595000D03*
X4955000D03*
X4950000Y2400000D03*
X4750000D03*
X4886500Y2362400D03*
X4813500D03*
X4686500D03*
X4613500D03*
X4910000Y3180000D03*
X4960000Y3335000D03*
X4610000Y3180000D03*
X4874000Y3910500D03*
X4634000Y3609500D03*
X4660000Y4131800D03*
X4834000Y4429500D03*
X4650000Y4834500D03*
X4760000D03*
X4674000Y4430000D03*
X4760000Y5080000D03*
X4650000D03*
X5530000Y1020000D03*
X5075500Y725000D03*
X5148500D03*
X5221500D03*
X5294500D03*
X5367500D03*
X5440500D03*
X5513500D03*
X5247000Y1595000D03*
X5320000D03*
X5393000D03*
X5466000D03*
X5101000D03*
X5174000D03*
X5334500Y3805000D03*
X5503500Y3760000D03*
X5334500Y3715000D03*
X5530000Y4380000D03*
X5415000Y4719500D03*
X5690000Y940000D03*
X6025000Y750000D03*
X5755000Y1325000D03*
X5715000Y1235000D03*
X5900000Y1530000D03*
X5980000Y2370000D03*
X5900000Y2520000D03*
X5980000Y3336000D03*
X5662500Y3427400D03*
X5735500D03*
X5814100Y3612900D03*
X5825000Y3916800D03*
X5975000Y3915000D03*
X5825000Y4310500D03*
X5675000Y4155500D03*
X5975000D03*
X5565000Y4121800D03*
X5619000Y4429500D03*
X5855000Y4834500D03*
X5965000D03*
X5745000D03*
X5635000D03*
X5745000Y5080000D03*
X5635000D03*
X5855000D03*
X5965000D03*
X6450000Y210000D03*
X6480000Y340000D03*
X6472500Y422500D03*
X6105000Y750000D03*
X6185000D03*
X6265000D03*
X6345000D03*
X6425000D03*
X6505000D03*
X6472500Y1570000D03*
X6072500D03*
X6152500D03*
X6312500D03*
X6392500D03*
X6232500D03*
X6180000Y2450000D03*
X6380000Y2370000D03*
X6316500Y2412400D03*
X6243500D03*
X6116500D03*
X6043500D03*
X6472500Y2592500D03*
X6510000Y2750000D03*
Y2670000D03*
X6380000Y2760000D03*
X6410000Y2680000D03*
X6340000Y3180000D03*
X6285000Y3020000D03*
X6390000Y3335000D03*
X6040000Y3180000D03*
X6195000Y3020000D03*
X6299000Y3910500D03*
X6059000Y3609500D03*
X6085000Y4131800D03*
X6259000Y4429500D03*
X6075000Y4834500D03*
X6099000Y4430000D03*
X6185000Y4834500D03*
X6075000Y5080000D03*
X6185000D03*
X6790000Y200000D03*
X6910000Y190000D03*
X6790000Y610000D03*
X6910000Y615500D03*
X6585000Y750000D03*
X6632500Y1570000D03*
X6552500D03*
X6535000Y3005000D03*
X6625000D03*
X7170000Y500000D03*
X7250000Y255000D03*
X7240000Y357500D03*
X7320000Y390000D03*
X7240000Y2520000D03*
X7229500Y3805000D03*
X7398500Y3760000D03*
X7229500Y3715000D03*
X7460000Y4121800D03*
X7434000Y4429500D03*
X7310000Y4719500D03*
X7915900Y261900D03*
X7600000Y510000D03*
X7915900Y388900D03*
Y769900D03*
Y642900D03*
Y1391100D03*
Y1137100D03*
X7943500Y2482400D03*
X7820000Y2930000D03*
X7680000D03*
X7872500Y2512600D03*
X7840000Y2740000D03*
Y2640000D03*
X7680000Y2740000D03*
Y2640000D03*
X7866300Y3336000D03*
X7930000Y3180000D03*
X7545000Y2985000D03*
X7557500Y3427400D03*
X7630500D03*
X7714000Y3624000D03*
X7954000Y3609500D03*
X7720000Y3916800D03*
X7870000Y3910000D03*
Y4155500D03*
X7720000Y4310500D03*
X7570000Y4155500D03*
X7514000Y4429500D03*
X7750000Y4834500D03*
X7640000D03*
X7860000D03*
X7530000D03*
Y5075700D03*
X7640000D03*
X7750000D03*
X7860000D03*
X8042900Y388900D03*
X8169900D03*
X8296900Y261900D03*
X8423900D03*
X8042900Y642900D03*
X8169900D03*
X8296900Y769900D03*
X8423900D03*
X8042900Y1010100D03*
X8423900D03*
X8296900D03*
Y1391100D03*
X8423900D03*
Y1137100D03*
X8169900Y1518100D03*
X8423900D03*
X8296900D03*
X8169900Y1137100D03*
X8042900D03*
Y1264100D03*
X8216500Y2482400D03*
X8143500D03*
X8016500D03*
X8080000Y2520000D03*
X8280000D03*
X8320000Y2930000D03*
X8230000Y3180000D03*
X8292700Y3335000D03*
X7975000Y2995000D03*
X8194000Y3910500D03*
X7980000Y4131800D03*
X8154000Y4429500D03*
X7970000Y4834500D03*
X8080000D03*
X7994000Y4430000D03*
X7970000Y5075700D03*
X8080000D03*
X8550900Y388900D03*
X8677900D03*
X8804900Y261900D03*
Y515900D03*
X8550900Y642900D03*
X8677900D03*
X8797500Y762500D03*
X8550900Y1010100D03*
X8804900Y642900D03*
X8550900Y1264100D03*
Y1518100D03*
X8801000Y1141000D03*
X8677900Y1137100D03*
X8804900Y1264100D03*
X8550900Y1137100D03*
X8677900Y1264100D03*
X8860000Y2490000D03*
X8545000Y2780000D03*
X8634500Y2930000D03*
X8639800Y2810000D03*
X8630000Y2640000D03*
X8479300Y3080000D03*
X8699300D03*
X8827500Y3203000D03*
X8892500Y3270000D03*
X8664300Y3805000D03*
X8823500Y3760000D03*
X8765000Y3685000D03*
X8885000Y4121800D03*
X8859000Y4429500D03*
X8735000Y4719500D03*
X8931900Y261900D03*
X9058900Y388900D03*
X9185900D03*
X9312900Y261900D03*
X8931900Y515900D03*
X9185900D03*
X9058900D03*
X9312900Y1010100D03*
X9185900Y769900D03*
X9058900Y642900D03*
X8928000Y1014000D03*
X8931900Y642900D03*
X9074500Y785500D03*
X9185900Y1010100D03*
X8946000Y784000D03*
X9058900Y1010100D03*
X9312900Y769900D03*
X8931900Y1518100D03*
X9185900Y1137100D03*
X9312900Y1518100D03*
X9299100Y1391100D03*
X9185900Y1264100D03*
X9058900D03*
X9290000Y2440000D03*
X9010000Y2490000D03*
X9363500Y2422400D03*
X9100000Y2640000D03*
X9085500Y2930000D03*
X9090000Y2810000D03*
X9291300Y3336000D03*
X9344300Y3180000D03*
X9110000Y3035000D03*
X8957500Y3203000D03*
X9139000Y3624000D03*
X9379000Y3609500D03*
X9145000Y3915000D03*
X9295000D03*
X8982500Y3527400D03*
X9055500D03*
X8995000Y4155500D03*
X9145000Y4310500D03*
X9295000Y4155500D03*
X8939000Y4429500D03*
X9175000Y4834500D03*
X9065000D03*
X9285000D03*
X9395000D03*
X8955000D03*
Y5075700D03*
X9175000D03*
X9065000D03*
X9285000D03*
X9395000D03*
X9439900Y261900D03*
Y515900D03*
X9566900Y388900D03*
X9693900D03*
X9820900Y261900D03*
Y515900D03*
X9693900D03*
X9566900D03*
X9693900Y1010100D03*
X9439900Y642900D03*
X9566900Y769900D03*
X9820900Y642900D03*
X9693900D03*
X9566900D03*
X9439900Y769900D03*
X9566900Y1010100D03*
X9553100Y896900D03*
X9820900Y1010100D03*
X9566900Y1137100D03*
X9693900Y1264100D03*
X9820900Y1137100D03*
X9566900Y1264100D03*
X9820900D03*
X9693900Y1137100D03*
X9439900Y1264100D03*
X9570000Y1390000D03*
X9810000Y1540000D03*
X9878900Y1753500D03*
X9827200Y1701800D03*
X9680000Y1660000D03*
X9500000Y2460000D03*
X9690000Y2360000D03*
X9636500Y2422400D03*
X9563500D03*
X9436500D03*
X9840000Y2920000D03*
X9665700Y3180000D03*
X9717700Y3335000D03*
X9619000Y3910500D03*
X9405000Y4131800D03*
X9421300Y4379000D03*
X9579000Y4429500D03*
X9505000Y4834500D03*
Y5075700D03*
X9947900Y261900D03*
Y515900D03*
X10074900Y388900D03*
X10201900D03*
X10328900Y261900D03*
Y515900D03*
X10201900D03*
X10074900D03*
Y1010100D03*
X9947900Y769900D03*
X10201900Y642900D03*
X10328900Y769900D03*
X9947900Y1010100D03*
Y1137100D03*
X10328900D03*
Y1391100D03*
X10049500Y1289500D03*
X9947900Y1264100D03*
X10328900D03*
X10201900D03*
Y1137100D03*
X10074900D03*
X9941500Y1398500D03*
X10070000Y1530000D03*
X10200000Y2480000D03*
X10310000D03*
X9965000Y2770000D03*
X10054500Y2930000D03*
X10059800Y2810000D03*
X10050000Y2640000D03*
X9890000Y3070000D03*
X10119300Y3080000D03*
X10247500Y3203000D03*
X10320000Y3270000D03*
X10079500Y3805000D03*
X10248500Y3760000D03*
X10079500Y3715000D03*
X10310000Y4121800D03*
X10284000Y4439300D03*
X10160000Y4719500D03*
X10569100Y261900D03*
Y515900D03*
X10823100D03*
X10696100D03*
X10569100Y1010100D03*
X10696100Y642900D03*
X10569100D03*
X10442100D03*
X10569100Y1264100D03*
Y1518100D03*
X10823100Y1137100D03*
Y1391100D03*
Y1264100D03*
X10696100D03*
X10740000Y2460000D03*
X10803500Y2422400D03*
X10430000Y2500000D03*
X10505500Y2930000D03*
X10510000Y2810000D03*
X10716300Y3336000D03*
X10832500Y3066800D03*
X10530000Y3035000D03*
X10377500Y3203000D03*
X10407500Y3367400D03*
X10480500D03*
X10540000Y3590000D03*
X10804000Y3580000D03*
X10570000Y3910000D03*
X10720000D03*
Y4155500D03*
X10570000Y4310500D03*
X10420000Y4155500D03*
X10830000Y4131800D03*
X10364000Y4439300D03*
X10600000Y4834500D03*
X10490000D03*
X10710000D03*
X10820000D03*
X10380000D03*
Y5075700D03*
X10490000D03*
X10600000D03*
X10710000D03*
X10820000D03*
X10950100Y261900D03*
Y515900D03*
X11077100Y261900D03*
Y515900D03*
X10950100Y1010100D03*
X11077100Y642900D03*
X11204100Y769900D03*
Y642900D03*
Y1137100D03*
Y1264100D03*
X11077100D03*
X11090900Y1518100D03*
X10963900D03*
X11274500Y1540000D03*
X10940000Y2460000D03*
X11140000D03*
X11076500Y2422400D03*
X11003500D03*
X10876500D03*
X11090700Y3180000D03*
X11142700Y3335000D03*
X11300000Y3040000D03*
X11044000Y3900700D03*
X11004000Y4439300D03*
X10930000Y4834500D03*
X10844000Y4438000D03*
X10930000Y5075700D03*
X11458100Y261900D03*
X11585100D03*
Y515900D03*
X11712100Y388900D03*
Y515900D03*
X11331100Y1010100D03*
X11712100D03*
X11585100Y769900D03*
X11458100Y1010100D03*
X11585100D03*
X11712100Y642900D03*
X11458100Y769900D03*
X11331100D03*
X11712100D03*
X11585100Y1137100D03*
X11712100Y1264100D03*
Y1518100D03*
X11585100Y1391100D03*
Y1264100D03*
X11458100D03*
X11712100Y1137100D03*
Y1391100D03*
X11405000Y2780000D03*
X11494500D03*
X11490000Y2640000D03*
X11670000Y2520000D03*
X11760000D03*
X11410000Y3135500D03*
X11490000Y3000000D03*
X11559300Y3080000D03*
X11687500Y3203000D03*
X11752500Y3280000D03*
X11504500Y3805000D03*
X11749000Y3619300D03*
X11504500Y3715000D03*
X11735000Y4121800D03*
X11585000Y4719500D03*
X11709000Y4429500D03*
X11789000D03*
X11805000Y4834500D03*
Y5075700D03*
X11839100Y388900D03*
X11966100Y261900D03*
Y515900D03*
X12093100Y261900D03*
Y515900D03*
X12220100Y388900D03*
X11839100Y515900D03*
X12220100D03*
X11966100Y769900D03*
X12093100Y1010100D03*
X11966100Y642900D03*
X11839100D03*
Y1010100D03*
X11966100D03*
X11839100Y769900D03*
X12093100Y1518100D03*
Y1264100D03*
X11966100Y1391100D03*
Y1137100D03*
X12220100D03*
X12093100D03*
X11966100Y1518100D03*
X11839100D03*
Y1391100D03*
X12220100Y1518100D03*
X12093100Y1391100D03*
X12220100D03*
X12170000Y2480000D03*
X12223500Y2422400D03*
X11960000Y2640000D03*
X11945500Y2930000D03*
Y2780000D03*
X12141300Y3336000D03*
X12194300Y3180000D03*
X11970000Y3035000D03*
X11820200Y3200200D03*
X11832500Y3427400D03*
X11905500D03*
X11989000Y3624000D03*
X12229000Y3609500D03*
X11995000Y3915000D03*
X12145000D03*
X11995000Y4310500D03*
X12145000Y4155500D03*
X11845000D03*
X12255000Y4131800D03*
X12025000Y4834500D03*
X11915000D03*
X12135000D03*
X12245000D03*
X12269000Y4430000D03*
X11915000Y5075700D03*
X12025000D03*
X12135000D03*
X12245000D03*
X12347100Y388900D03*
X12474100Y261900D03*
Y515900D03*
X12601100Y261900D03*
X12728100Y388900D03*
Y515900D03*
X12347100D03*
X12601100D03*
X12728100Y769900D03*
X12347100D03*
X12601100Y642900D03*
X12347100D03*
X12474100D03*
X12728100D03*
X12347100Y1137100D03*
X12474100Y1264100D03*
Y1518100D03*
X12601100Y1137100D03*
Y1264100D03*
X12474100Y1137100D03*
X12728100Y1518100D03*
X12601100D03*
X12347100D03*
X12360000Y2470000D03*
X12550000Y2480000D03*
X12496500Y2422400D03*
X12423500D03*
X12296500D03*
X12644500Y2710000D03*
X12640000Y2965000D03*
X12730000Y3135500D03*
X12515700Y3180000D03*
X12567700Y3335000D03*
X12469000Y3900700D03*
X12429000Y4429500D03*
X12355000Y4834500D03*
Y5075700D03*
X12982100Y515900D03*
X12855100Y388900D03*
X12982100Y261900D03*
X13140000Y560000D03*
X13215000D03*
X12855100Y515900D03*
Y642900D03*
X12982100Y769900D03*
X12855100Y1010100D03*
X12982100D03*
X12855100Y769900D03*
X12982100Y642900D03*
Y1137100D03*
Y1391100D03*
X12855100Y1518100D03*
X12982100Y1264100D03*
X12855100Y1137100D03*
X13200000Y1920000D03*
Y1850000D03*
Y1780000D03*
Y1710000D03*
Y2480000D03*
X13070000Y2120000D03*
X12814500Y2790000D03*
X12830000Y2640000D03*
X12998500Y2500000D03*
X13080500D03*
X12817500Y3017500D03*
X12820000Y3080000D03*
X13007500Y3203000D03*
X13072500Y3290000D03*
X13137500Y3203000D03*
X13219500Y3890000D03*
Y4250000D03*
X12940000Y5280000D03*
X13190000Y5090000D03*
X13090000Y5220000D03*
X13240000Y5030000D03*
X13140000Y5160000D03*
X12950000Y5635000D03*
Y5545000D03*
X12955000Y5425000D03*
X12960000Y6270000D03*
X13040000Y5870000D03*
X13120000Y5920000D03*
X13195000Y5875000D03*
X13660000Y110000D03*
Y185000D03*
Y260000D03*
Y560000D03*
X13290000D03*
X13365000D03*
X13440000D03*
X13515000D03*
X13660000Y635000D03*
X13290000D03*
X13365000D03*
X13440000D03*
X13515000D03*
X13575000Y2005000D03*
X13590000Y1700000D03*
X13370000Y1920000D03*
Y1850000D03*
Y1780000D03*
Y1710000D03*
X13700000Y1700000D03*
X13500000Y2350000D03*
X13340000Y2010000D03*
X13420000Y2680000D03*
X13255700Y2950000D03*
X13260000Y2860000D03*
X13255700Y2790000D03*
X13720000Y2640000D03*
X13420000Y3060000D03*
X13600000D03*
X13260000Y3035000D03*
X13330000Y3464300D03*
X13380000Y3720000D03*
X13510000Y3464300D03*
X13374500Y4040000D03*
Y4400000D03*
X13350000Y4130000D03*
X13480000Y5160000D03*
X13380000Y5030000D03*
X13530000Y5220000D03*
X13430000Y5090000D03*
X13548100Y5820000D03*
X13260000Y5920000D03*
X13332500Y6000000D03*
X13392500Y5940000D03*
X13470000Y5880000D03*
X13735000Y110000D03*
X13810000D03*
X13735000Y185000D03*
X13810000D03*
X13735000Y260000D03*
X13810000D03*
Y335000D03*
Y410000D03*
Y485000D03*
X13735000Y560000D03*
X13810000D03*
X13735000Y635000D03*
X13810000D03*
Y1820000D03*
Y2350000D03*
X13790000Y3040000D03*
X13780000Y5060000D03*
G54D18*
X-1305000Y15217500D03*
X3940000Y1160000D03*
X4320000D03*
X4130000Y1082500D03*
Y1237500D03*
X4940000Y1160000D03*
X5320000D03*
X5130000Y1082500D03*
Y1237500D03*
X6010000Y1160000D03*
X6390000D03*
X6200000Y1237500D03*
Y1082500D03*
X13120000Y5520000D03*
X13500000D03*
X13310000Y5597500D03*
Y5442500D03*
G54D19*
G01X7271500Y-5036700D02*
Y-4876700D01*
G01Y-4900700D02*
X7281500Y-4887400D01*
X7291500Y-4879400D01*
X7307500Y-4876700D01*
X7321500Y-4879400D01*
X7335500Y-4892700D01*
X7341500Y-4911400D01*
X7343500Y-4930100D01*
X7341500Y-4948700D01*
X7335500Y-4967400D01*
X7323500Y-4978100D01*
X7307500Y-4983400D01*
X7293500Y-4980700D01*
X7279500Y-4972700D01*
X7271500Y-4962100D01*
G01X7484500Y-4890100D02*
X7470500Y-4879400D01*
X7458500Y-4876700D01*
X7442500Y-4882100D01*
X7430500Y-4892700D01*
X7422500Y-4911400D01*
X7420500Y-4930100D01*
X7422500Y-4948700D01*
X7430500Y-4964700D01*
X7442500Y-4978100D01*
X7458500Y-4983400D01*
X7472500Y-4978100D01*
X7484500Y-4967400D01*
G01X7597500Y-4823400D02*
X7581500Y-4828700D01*
X7569500Y-4842100D01*
X7561500Y-4858100D01*
X7555500Y-4879400D01*
X7553500Y-4903400D01*
X7555500Y-4927400D01*
X7561500Y-4948700D01*
X7569500Y-4964700D01*
X7581500Y-4978100D01*
X7597500Y-4983400D01*
X7613500Y-4978100D01*
X7625500Y-4964700D01*
X7633500Y-4948700D01*
X7639500Y-4927400D01*
X7641500Y-4903400D01*
X7639500Y-4879400D01*
X7633500Y-4858100D01*
X7625500Y-4842100D01*
X7613500Y-4828700D01*
X7597500Y-4823400D01*
G01X7704500Y-4916700D02*
X7718500Y-4898100D01*
X7730500Y-4887400D01*
X7746500Y-4882100D01*
X7760500Y-4887400D01*
X7770500Y-4898100D01*
X7778500Y-4914100D01*
X7780500Y-4932700D01*
X7778500Y-4948700D01*
X7770500Y-4964700D01*
X7758500Y-4978100D01*
X7744500Y-4983400D01*
X7728500Y-4978100D01*
X7714500Y-4962100D01*
X7706500Y-4938100D01*
X7704500Y-4911400D01*
X7708500Y-4876700D01*
X7714500Y-4858100D01*
X7724500Y-4839400D01*
X7738500Y-4826100D01*
X7752500Y-4823400D01*
X7766500Y-4828700D01*
X7776500Y-4842100D01*
G01X7843500Y-4959400D02*
X7855500Y-4972700D01*
X7869500Y-4980700D01*
X7887500Y-4983400D01*
X7905500Y-4978100D01*
X7919500Y-4967400D01*
X7929500Y-4948700D01*
X7931500Y-4927400D01*
X7927500Y-4906100D01*
X7917500Y-4892700D01*
X7903500Y-4882100D01*
X7889500Y-4879400D01*
X7875500Y-4882100D01*
X7857500Y-4892700D01*
X7863500Y-4823400D01*
X7917500D01*
G01X8068500D02*
Y-4983400D01*
G01Y-4959400D02*
X8060500Y-4972700D01*
X8048500Y-4980700D01*
X8034500Y-4983400D01*
X8018500Y-4978100D01*
X8006500Y-4964700D01*
X7998500Y-4948700D01*
X7996500Y-4930100D01*
X7998500Y-4911400D01*
X8006500Y-4895400D01*
X8018500Y-4882100D01*
X8034500Y-4876700D01*
X8048500Y-4879400D01*
X8058500Y-4884700D01*
X8068500Y-4895400D01*
G01X8278500Y-4983400D02*
Y-4823400D01*
X8318500D01*
X8334500Y-4831400D01*
X8346500Y-4842100D01*
X8356500Y-4858100D01*
X8364500Y-4876700D01*
X8366500Y-4903400D01*
X8364500Y-4930100D01*
X8356500Y-4948700D01*
X8346500Y-4964700D01*
X8334500Y-4975400D01*
X8318500Y-4983400D01*
X8278500D01*
G01X8423500Y-4823400D02*
Y-4938100D01*
X8431500Y-4962100D01*
X8447500Y-4978100D01*
X8467500Y-4983400D01*
X8487500Y-4978100D01*
X8503500Y-4962100D01*
X8511500Y-4938100D01*
Y-4823400D01*
G01X8566500Y-4983400D02*
Y-4823400D01*
X8658500Y-4983400D01*
Y-4823400D01*
G01X8797500Y-4983400D02*
X8717500D01*
Y-4823400D01*
X8797500D01*
G01X8765500Y-4900700D02*
X8717500D01*
G01X9047500Y-4823400D02*
Y-4983400D01*
G01X9001500Y-4823400D02*
X9093500D01*
G01X9192500Y-4876700D02*
Y-4983400D01*
G01Y-4834100D02*
X9188500Y-4831400D01*
Y-4826100D01*
X9192500Y-4823400D01*
X9196500Y-4826100D01*
Y-4831400D01*
X9192500Y-4834100D01*
G01X9277500Y-4983400D02*
Y-4876700D01*
G01Y-4906100D02*
X9283500Y-4892700D01*
X9293500Y-4882100D01*
X9307500Y-4876700D01*
X9321500Y-4882100D01*
X9331500Y-4892700D01*
X9337500Y-4906100D01*
Y-4983400D01*
G01Y-4906100D02*
X9343500Y-4892700D01*
X9353500Y-4882100D01*
X9367500Y-4876700D01*
X9381500Y-4882100D01*
X9391500Y-4892700D01*
X9397500Y-4908700D01*
Y-4983400D01*
G01X9482500Y-4876700D02*
Y-4983400D01*
G01Y-4834100D02*
X9478500Y-4831400D01*
Y-4826100D01*
X9482500Y-4823400D01*
X9486500Y-4826100D01*
Y-4831400D01*
X9482500Y-4834100D01*
G01X9593500Y-4983400D02*
Y-4876700D01*
G01Y-4903400D02*
X9601500Y-4890100D01*
X9613500Y-4879400D01*
X9629500Y-4876700D01*
X9643500Y-4879400D01*
X9655500Y-4890100D01*
X9661500Y-4908700D01*
Y-4983400D01*
G01X9744500Y-5023400D02*
X9758500Y-5034100D01*
X9774500Y-5036700D01*
X9788500Y-5034100D01*
X9800500Y-5020700D01*
X9808500Y-5002100D01*
Y-4876700D01*
G01Y-4898100D02*
X9800500Y-4887400D01*
X9788500Y-4879400D01*
X9774500Y-4876700D01*
X9758500Y-4882100D01*
X9748500Y-4892700D01*
X9740500Y-4911400D01*
X9736500Y-4930100D01*
X9738500Y-4946100D01*
X9746500Y-4964700D01*
X9758500Y-4978100D01*
X9774500Y-4983400D01*
X9786500Y-4980700D01*
X9800500Y-4970100D01*
X9808500Y-4959400D01*
G01X10020500Y-4962100D02*
X10036500Y-4975400D01*
X10054500Y-4983400D01*
X10070500D01*
X10086500Y-4975400D01*
X10098500Y-4962100D01*
X10104500Y-4943400D01*
X10100500Y-4924700D01*
X10090500Y-4908700D01*
X10072500Y-4898100D01*
X10048500Y-4892700D01*
X10034500Y-4882100D01*
X10028500Y-4863400D01*
X10032500Y-4844700D01*
X10042500Y-4831400D01*
X10056500Y-4823400D01*
X10070500D01*
X10084500Y-4828700D01*
X10096500Y-4842100D01*
G01X10165500Y-5031400D02*
X10177500Y-5036700D01*
X10193500Y-5031400D01*
X10203500Y-5020700D01*
X10211500Y-5007400D01*
X10223500Y-4964700D01*
X10249500Y-4876700D01*
G01X10185500D02*
X10223500Y-4964700D01*
G01X10322500D02*
X10332500Y-4975400D01*
X10346500Y-4983400D01*
X10358500D01*
X10370500Y-4978100D01*
X10378500Y-4970100D01*
X10382500Y-4959400D01*
X10380500Y-4943400D01*
X10372500Y-4935400D01*
X10336500Y-4919400D01*
X10328500Y-4900700D01*
X10332500Y-4887400D01*
X10340500Y-4879400D01*
X10352500Y-4876700D01*
X10364500Y-4879400D01*
X10376500Y-4887400D01*
G01X10497500Y-4823400D02*
Y-4983400D01*
G01X10469500Y-4876700D02*
X10525500D01*
G01X10612500Y-4911400D02*
X10676500D01*
X10670500Y-4892700D01*
X10660500Y-4882100D01*
X10646500Y-4876700D01*
X10632500Y-4879400D01*
X10620500Y-4887400D01*
X10612500Y-4906100D01*
X10608500Y-4922100D01*
Y-4938100D01*
X10612500Y-4954100D01*
X10622500Y-4970100D01*
X10634500Y-4980700D01*
X10648500Y-4983400D01*
X10662500Y-4978100D01*
X10676500Y-4962100D01*
G01X10727500Y-4983400D02*
Y-4876700D01*
G01Y-4906100D02*
X10733500Y-4892700D01*
X10743500Y-4882100D01*
X10757500Y-4876700D01*
X10771500Y-4882100D01*
X10781500Y-4892700D01*
X10787500Y-4906100D01*
Y-4983400D01*
G01Y-4906100D02*
X10793500Y-4892700D01*
X10803500Y-4882100D01*
X10817500Y-4876700D01*
X10831500Y-4882100D01*
X10841500Y-4892700D01*
X10847500Y-4908700D01*
Y-4983400D01*
G01X11039500D02*
Y-4823400D01*
X11115500D01*
G01X11087500Y-4900700D02*
X11039500D01*
G01X11198500Y-4823400D02*
X11246500D01*
G01X11222500D02*
Y-4983400D01*
G01X11198500D02*
X11246500D01*
G01X11383500Y-4898100D02*
X11391500Y-4890100D01*
X11397500Y-4876700D01*
X11401500Y-4858100D01*
X11397500Y-4842100D01*
X11389500Y-4831400D01*
X11375500Y-4823400D01*
X11321500D01*
Y-4983400D01*
X11387500D01*
X11401500Y-4972700D01*
X11409500Y-4956700D01*
X11413500Y-4938100D01*
X11409500Y-4919400D01*
X11397500Y-4903400D01*
X11383500Y-4898100D01*
X11321500D01*
G01X11621500Y-4876700D02*
X11657500Y-4983400D01*
X11693500Y-4876700D01*
G01X11764500Y-4850100D02*
X11776500Y-4834100D01*
X11790500Y-4826100D01*
X11806500Y-4823400D01*
X11826500Y-4828700D01*
X11840500Y-4842100D01*
X11844500Y-4858100D01*
X11842500Y-4874100D01*
X11834500Y-4887400D01*
X11794500Y-4914100D01*
X11776500Y-4932700D01*
X11764500Y-4959400D01*
X11760500Y-4983400D01*
X11844500D01*
G01X11983500D02*
Y-4876700D01*
G01Y-4895400D02*
X11975500Y-4884700D01*
X11963500Y-4879400D01*
X11949500Y-4876700D01*
X11935500Y-4882100D01*
X11923500Y-4892700D01*
X11915500Y-4908700D01*
X11911500Y-4930100D01*
X11915500Y-4951400D01*
X11923500Y-4967400D01*
X11935500Y-4978100D01*
X11949500Y-4983400D01*
X11963500Y-4980700D01*
X11975500Y-4972700D01*
X11983500Y-4962100D01*
G01X7300000Y-4590000D02*
Y-4430000D01*
X7348000D01*
X7364000Y-4438000D01*
X7376000Y-4456700D01*
X7380000Y-4478000D01*
X7376000Y-4499300D01*
X7366000Y-4515300D01*
X7348000Y-4523300D01*
X7300000D01*
G01X7455000Y-4518000D02*
X7519000D01*
X7513000Y-4499300D01*
X7503000Y-4488700D01*
X7489000Y-4483300D01*
X7475000Y-4486000D01*
X7463000Y-4494000D01*
X7455000Y-4512700D01*
X7451000Y-4528700D01*
Y-4544700D01*
X7455000Y-4560700D01*
X7465000Y-4576700D01*
X7477000Y-4587300D01*
X7491000Y-4590000D01*
X7505000Y-4584700D01*
X7519000Y-4568700D01*
G01X7630000Y-4430000D02*
Y-4590000D01*
G01X7602000Y-4483300D02*
X7658000D01*
G01X7745000Y-4518000D02*
X7809000D01*
X7803000Y-4499300D01*
X7793000Y-4488700D01*
X7779000Y-4483300D01*
X7765000Y-4486000D01*
X7753000Y-4494000D01*
X7745000Y-4512700D01*
X7741000Y-4528700D01*
Y-4544700D01*
X7745000Y-4560700D01*
X7755000Y-4576700D01*
X7767000Y-4587300D01*
X7781000Y-4590000D01*
X7795000Y-4584700D01*
X7809000Y-4568700D01*
G01X8023000Y-4590000D02*
Y-4430000D01*
G01X8107000D02*
Y-4590000D01*
G01Y-4510000D02*
X8023000D01*
G01X8246000Y-4590000D02*
Y-4483300D01*
G01Y-4502000D02*
X8238000Y-4491300D01*
X8226000Y-4486000D01*
X8212000Y-4483300D01*
X8198000Y-4488700D01*
X8186000Y-4499300D01*
X8178000Y-4515300D01*
X8174000Y-4536700D01*
X8178000Y-4558000D01*
X8186000Y-4574000D01*
X8198000Y-4584700D01*
X8212000Y-4590000D01*
X8226000Y-4587300D01*
X8238000Y-4579300D01*
X8246000Y-4568700D01*
G01X8325000Y-4571300D02*
X8335000Y-4582000D01*
X8349000Y-4590000D01*
X8361000D01*
X8373000Y-4584700D01*
X8381000Y-4576700D01*
X8385000Y-4566000D01*
X8383000Y-4550000D01*
X8375000Y-4542000D01*
X8339000Y-4526000D01*
X8331000Y-4507300D01*
X8335000Y-4494000D01*
X8343000Y-4486000D01*
X8355000Y-4483300D01*
X8367000Y-4486000D01*
X8379000Y-4494000D01*
G01X8500000Y-4430000D02*
Y-4590000D01*
G01X8472000Y-4483300D02*
X8528000D01*
G01X8645000D02*
Y-4590000D01*
G01Y-4440700D02*
X8641000Y-4438000D01*
Y-4432700D01*
X8645000Y-4430000D01*
X8649000Y-4432700D01*
Y-4438000D01*
X8645000Y-4440700D01*
G01X8756000Y-4590000D02*
Y-4483300D01*
G01Y-4510000D02*
X8764000Y-4496700D01*
X8776000Y-4486000D01*
X8792000Y-4483300D01*
X8806000Y-4486000D01*
X8818000Y-4496700D01*
X8824000Y-4515300D01*
Y-4590000D01*
G01X8907000Y-4630000D02*
X8921000Y-4640700D01*
X8937000Y-4643300D01*
X8951000Y-4640700D01*
X8963000Y-4627300D01*
X8971000Y-4608700D01*
Y-4483300D01*
G01Y-4504700D02*
X8963000Y-4494000D01*
X8951000Y-4486000D01*
X8937000Y-4483300D01*
X8921000Y-4488700D01*
X8911000Y-4499300D01*
X8903000Y-4518000D01*
X8899000Y-4536700D01*
X8901000Y-4552700D01*
X8909000Y-4571300D01*
X8921000Y-4584700D01*
X8937000Y-4590000D01*
X8949000Y-4587300D01*
X8963000Y-4576700D01*
X8971000Y-4566000D01*
G01X9050000Y-4518000D02*
X9114000D01*
X9108000Y-4499300D01*
X9098000Y-4488700D01*
X9084000Y-4483300D01*
X9070000Y-4486000D01*
X9058000Y-4494000D01*
X9050000Y-4512700D01*
X9046000Y-4528700D01*
Y-4544700D01*
X9050000Y-4560700D01*
X9060000Y-4576700D01*
X9072000Y-4587300D01*
X9086000Y-4590000D01*
X9100000Y-4584700D01*
X9114000Y-4568700D01*
G01X9195000Y-4571300D02*
X9205000Y-4582000D01*
X9219000Y-4590000D01*
X9231000D01*
X9243000Y-4584700D01*
X9251000Y-4576700D01*
X9255000Y-4566000D01*
X9253000Y-4550000D01*
X9245000Y-4542000D01*
X9209000Y-4526000D01*
X9201000Y-4507300D01*
X9205000Y-4494000D01*
X9213000Y-4486000D01*
X9225000Y-4483300D01*
X9237000Y-4486000D01*
X9249000Y-4494000D01*
G01X9475000Y-4558000D02*
X9485000Y-4574000D01*
X9497000Y-4584700D01*
X9511000Y-4590000D01*
X9527000Y-4584700D01*
X9539000Y-4574000D01*
X9551000Y-4558000D01*
X9555000Y-4536700D01*
Y-4430000D01*
G01X9626000Y-4483300D02*
Y-4558000D01*
X9634000Y-4576700D01*
X9646000Y-4587300D01*
X9660000Y-4590000D01*
X9674000Y-4587300D01*
X9686000Y-4576700D01*
X9694000Y-4558000D01*
G01Y-4590000D02*
Y-4483300D01*
G01X9771000Y-4590000D02*
Y-4483300D01*
G01Y-4510000D02*
X9779000Y-4496700D01*
X9791000Y-4486000D01*
X9807000Y-4483300D01*
X9821000Y-4486000D01*
X9833000Y-4496700D01*
X9839000Y-4515300D01*
Y-4590000D01*
G01X9920000Y-4518000D02*
X9984000D01*
X9978000Y-4499300D01*
X9968000Y-4488700D01*
X9954000Y-4483300D01*
X9940000Y-4486000D01*
X9928000Y-4494000D01*
X9920000Y-4512700D01*
X9916000Y-4528700D01*
Y-4544700D01*
X9920000Y-4560700D01*
X9930000Y-4576700D01*
X9942000Y-4587300D01*
X9956000Y-4590000D01*
X9970000Y-4584700D01*
X9984000Y-4568700D01*
G01X10202000Y-4456700D02*
X10214000Y-4440700D01*
X10228000Y-4432700D01*
X10244000Y-4430000D01*
X10264000Y-4435300D01*
X10278000Y-4448700D01*
X10282000Y-4464700D01*
X10280000Y-4480700D01*
X10272000Y-4494000D01*
X10232000Y-4520700D01*
X10214000Y-4539300D01*
X10202000Y-4566000D01*
X10198000Y-4590000D01*
X10282000D01*
G01X10385000Y-4430000D02*
X10369000Y-4435300D01*
X10357000Y-4448700D01*
X10349000Y-4464700D01*
X10343000Y-4486000D01*
X10341000Y-4510000D01*
X10343000Y-4534000D01*
X10349000Y-4555300D01*
X10357000Y-4571300D01*
X10369000Y-4584700D01*
X10385000Y-4590000D01*
X10401000Y-4584700D01*
X10413000Y-4571300D01*
X10421000Y-4555300D01*
X10427000Y-4534000D01*
X10429000Y-4510000D01*
X10427000Y-4486000D01*
X10421000Y-4464700D01*
X10413000Y-4448700D01*
X10401000Y-4435300D01*
X10385000Y-4430000D01*
G01X10492000Y-4456700D02*
X10504000Y-4440700D01*
X10518000Y-4432700D01*
X10534000Y-4430000D01*
X10554000Y-4435300D01*
X10568000Y-4448700D01*
X10572000Y-4464700D01*
X10570000Y-4480700D01*
X10562000Y-4494000D01*
X10522000Y-4520700D01*
X10504000Y-4539300D01*
X10492000Y-4566000D01*
X10488000Y-4590000D01*
X10572000D01*
G01X10699000D02*
Y-4430000D01*
X10625000Y-4544700D01*
X10725000D01*
G01X10816000Y-4619300D02*
X10824000Y-4584700D01*
G01X11066000Y-4590000D02*
Y-4430000D01*
X11106000D01*
X11122000Y-4438000D01*
X11134000Y-4448700D01*
X11144000Y-4464700D01*
X11152000Y-4483300D01*
X11154000Y-4510000D01*
X11152000Y-4536700D01*
X11144000Y-4555300D01*
X11134000Y-4571300D01*
X11122000Y-4582000D01*
X11106000Y-4590000D01*
X11066000D01*
G01X11291000D02*
Y-4483300D01*
G01Y-4502000D02*
X11283000Y-4491300D01*
X11271000Y-4486000D01*
X11257000Y-4483300D01*
X11243000Y-4488700D01*
X11231000Y-4499300D01*
X11223000Y-4515300D01*
X11219000Y-4536700D01*
X11223000Y-4558000D01*
X11231000Y-4574000D01*
X11243000Y-4584700D01*
X11257000Y-4590000D01*
X11271000Y-4587300D01*
X11283000Y-4579300D01*
X11291000Y-4568700D01*
G01X11364000Y-4483300D02*
X11400000Y-4590000D01*
X11436000Y-4483300D01*
G01X11545000D02*
Y-4590000D01*
G01Y-4440700D02*
X11541000Y-4438000D01*
Y-4432700D01*
X11545000Y-4430000D01*
X11549000Y-4432700D01*
Y-4438000D01*
X11545000Y-4440700D01*
G01X11726000Y-4430000D02*
Y-4590000D01*
G01Y-4566000D02*
X11718000Y-4579300D01*
X11706000Y-4587300D01*
X11692000Y-4590000D01*
X11676000Y-4584700D01*
X11664000Y-4571300D01*
X11656000Y-4555300D01*
X11654000Y-4536700D01*
X11656000Y-4518000D01*
X11664000Y-4502000D01*
X11676000Y-4488700D01*
X11692000Y-4483300D01*
X11706000Y-4486000D01*
X11716000Y-4491300D01*
X11726000Y-4502000D01*
G01X12024000Y-4443300D02*
X12012000Y-4435300D01*
X11998000Y-4430000D01*
X11982000D01*
X11964000Y-4438000D01*
X11950000Y-4451300D01*
X11940000Y-4467300D01*
X11932000Y-4494000D01*
X11930000Y-4518000D01*
X11934000Y-4542000D01*
X11940000Y-4558000D01*
X11952000Y-4574000D01*
X11966000Y-4584700D01*
X11980000Y-4590000D01*
X11994000D01*
X12008000Y-4584700D01*
X12020000Y-4576700D01*
X12030000Y-4566000D01*
G01X12091000Y-4483300D02*
Y-4558000D01*
X12099000Y-4576700D01*
X12111000Y-4587300D01*
X12125000Y-4590000D01*
X12139000Y-4587300D01*
X12151000Y-4576700D01*
X12159000Y-4558000D01*
G01Y-4590000D02*
Y-4483300D01*
G01X12240000Y-4571300D02*
X12250000Y-4582000D01*
X12264000Y-4590000D01*
X12276000D01*
X12288000Y-4584700D01*
X12296000Y-4576700D01*
X12300000Y-4566000D01*
X12298000Y-4550000D01*
X12290000Y-4542000D01*
X12254000Y-4526000D01*
X12246000Y-4507300D01*
X12250000Y-4494000D01*
X12258000Y-4486000D01*
X12270000Y-4483300D01*
X12282000Y-4486000D01*
X12294000Y-4494000D01*
G01X12385000Y-4571300D02*
X12395000Y-4582000D01*
X12409000Y-4590000D01*
X12421000D01*
X12433000Y-4584700D01*
X12441000Y-4576700D01*
X12445000Y-4566000D01*
X12443000Y-4550000D01*
X12435000Y-4542000D01*
X12399000Y-4526000D01*
X12391000Y-4507300D01*
X12395000Y-4494000D01*
X12403000Y-4486000D01*
X12415000Y-4483300D01*
X12427000Y-4486000D01*
X12439000Y-4494000D01*
G01X12596000Y-4590000D02*
Y-4483300D01*
G01Y-4502000D02*
X12588000Y-4491300D01*
X12576000Y-4486000D01*
X12562000Y-4483300D01*
X12548000Y-4488700D01*
X12536000Y-4499300D01*
X12528000Y-4515300D01*
X12524000Y-4536700D01*
X12528000Y-4558000D01*
X12536000Y-4574000D01*
X12548000Y-4584700D01*
X12562000Y-4590000D01*
X12576000Y-4587300D01*
X12588000Y-4579300D01*
X12596000Y-4568700D01*
G01X12671000Y-4590000D02*
Y-4483300D01*
G01Y-4510000D02*
X12679000Y-4496700D01*
X12691000Y-4486000D01*
X12707000Y-4483300D01*
X12721000Y-4486000D01*
X12733000Y-4496700D01*
X12739000Y-4515300D01*
Y-4590000D01*
G01X12820000Y-4571300D02*
X12830000Y-4582000D01*
X12844000Y-4590000D01*
X12856000D01*
X12868000Y-4584700D01*
X12876000Y-4576700D01*
X12880000Y-4566000D01*
X12878000Y-4550000D01*
X12870000Y-4542000D01*
X12834000Y-4526000D01*
X12826000Y-4507300D01*
X12830000Y-4494000D01*
X12838000Y-4486000D01*
X12850000Y-4483300D01*
X12862000Y-4486000D01*
X12874000Y-4494000D01*
G01X12991000Y-4619300D02*
X12999000Y-4584700D01*
G01X13235000Y-4590000D02*
X13285000Y-4430000D01*
X13335000Y-4590000D01*
G01X13317000Y-4534000D02*
X13253000D01*
G01X13396000Y-4483300D02*
Y-4558000D01*
X13404000Y-4576700D01*
X13416000Y-4587300D01*
X13430000Y-4590000D01*
X13444000Y-4587300D01*
X13456000Y-4576700D01*
X13464000Y-4558000D01*
G01Y-4590000D02*
Y-4483300D01*
G01X13547000Y-4630000D02*
X13561000Y-4640700D01*
X13577000Y-4643300D01*
X13591000Y-4640700D01*
X13603000Y-4627300D01*
X13611000Y-4608700D01*
Y-4483300D01*
G01Y-4504700D02*
X13603000Y-4494000D01*
X13591000Y-4486000D01*
X13577000Y-4483300D01*
X13561000Y-4488700D01*
X13551000Y-4499300D01*
X13543000Y-4518000D01*
X13539000Y-4536700D01*
X13541000Y-4552700D01*
X13549000Y-4571300D01*
X13561000Y-4584700D01*
X13577000Y-4590000D01*
X13589000Y-4587300D01*
X13603000Y-4576700D01*
X13611000Y-4566000D01*
G01X13686000Y-4483300D02*
Y-4558000D01*
X13694000Y-4576700D01*
X13706000Y-4587300D01*
X13720000Y-4590000D01*
X13734000Y-4587300D01*
X13746000Y-4576700D01*
X13754000Y-4558000D01*
G01Y-4590000D02*
Y-4483300D01*
G01X13835000Y-4571300D02*
X13845000Y-4582000D01*
X13859000Y-4590000D01*
X13871000D01*
X13883000Y-4584700D01*
X13891000Y-4576700D01*
X13895000Y-4566000D01*
X13893000Y-4550000D01*
X13885000Y-4542000D01*
X13849000Y-4526000D01*
X13841000Y-4507300D01*
X13845000Y-4494000D01*
X13853000Y-4486000D01*
X13865000Y-4483300D01*
X13877000Y-4486000D01*
X13889000Y-4494000D01*
G01X14010000Y-4430000D02*
Y-4590000D01*
G01X13982000Y-4483300D02*
X14038000D01*
G01X14262000Y-4456700D02*
X14274000Y-4440700D01*
X14288000Y-4432700D01*
X14304000Y-4430000D01*
X14324000Y-4435300D01*
X14338000Y-4448700D01*
X14342000Y-4464700D01*
X14340000Y-4480700D01*
X14332000Y-4494000D01*
X14292000Y-4520700D01*
X14274000Y-4539300D01*
X14262000Y-4566000D01*
X14258000Y-4590000D01*
X14342000D01*
G01X14445000Y-4430000D02*
X14429000Y-4435300D01*
X14417000Y-4448700D01*
X14409000Y-4464700D01*
X14403000Y-4486000D01*
X14401000Y-4510000D01*
X14403000Y-4534000D01*
X14409000Y-4555300D01*
X14417000Y-4571300D01*
X14429000Y-4584700D01*
X14445000Y-4590000D01*
X14461000Y-4584700D01*
X14473000Y-4571300D01*
X14481000Y-4555300D01*
X14487000Y-4534000D01*
X14489000Y-4510000D01*
X14487000Y-4486000D01*
X14481000Y-4464700D01*
X14473000Y-4448700D01*
X14461000Y-4435300D01*
X14445000Y-4430000D01*
G01X14552000Y-4456700D02*
X14564000Y-4440700D01*
X14578000Y-4432700D01*
X14594000Y-4430000D01*
X14614000Y-4435300D01*
X14628000Y-4448700D01*
X14632000Y-4464700D01*
X14630000Y-4480700D01*
X14622000Y-4494000D01*
X14582000Y-4520700D01*
X14564000Y-4539300D01*
X14552000Y-4566000D01*
X14548000Y-4590000D01*
X14632000D01*
G01X14691000Y-4566000D02*
X14703000Y-4579300D01*
X14717000Y-4587300D01*
X14735000Y-4590000D01*
X14753000Y-4584700D01*
X14767000Y-4574000D01*
X14777000Y-4555300D01*
X14779000Y-4534000D01*
X14775000Y-4512700D01*
X14765000Y-4499300D01*
X14751000Y-4488700D01*
X14737000Y-4486000D01*
X14723000Y-4488700D01*
X14705000Y-4499300D01*
X14711000Y-4430000D01*
X14765000D01*
G01X7290000Y-4210000D02*
Y-4050000D01*
X7338000D01*
X7354000Y-4058000D01*
X7366000Y-4076700D01*
X7370000Y-4098000D01*
X7366000Y-4119300D01*
X7356000Y-4135300D01*
X7338000Y-4143300D01*
X7290000D01*
G01X7511000Y-4210000D02*
Y-4103300D01*
G01Y-4122000D02*
X7503000Y-4111300D01*
X7491000Y-4106000D01*
X7477000Y-4103300D01*
X7463000Y-4108700D01*
X7451000Y-4119300D01*
X7443000Y-4135300D01*
X7439000Y-4156700D01*
X7443000Y-4178000D01*
X7451000Y-4194000D01*
X7463000Y-4204700D01*
X7477000Y-4210000D01*
X7491000Y-4207300D01*
X7503000Y-4199300D01*
X7511000Y-4188700D01*
G01X7620000Y-4210000D02*
X7608000Y-4207300D01*
X7596000Y-4196700D01*
X7588000Y-4178000D01*
X7584000Y-4156700D01*
X7588000Y-4135300D01*
X7596000Y-4116700D01*
X7608000Y-4106000D01*
X7620000Y-4103300D01*
X7632000Y-4106000D01*
X7644000Y-4116700D01*
X7652000Y-4135300D01*
X7654000Y-4156700D01*
X7652000Y-4178000D01*
X7644000Y-4196700D01*
X7632000Y-4207300D01*
X7620000Y-4210000D01*
G01X7765000D02*
Y-4050000D01*
G01X7910000Y-4210000D02*
X7898000Y-4207300D01*
X7886000Y-4196700D01*
X7878000Y-4178000D01*
X7874000Y-4156700D01*
X7878000Y-4135300D01*
X7886000Y-4116700D01*
X7898000Y-4106000D01*
X7910000Y-4103300D01*
X7922000Y-4106000D01*
X7934000Y-4116700D01*
X7942000Y-4135300D01*
X7944000Y-4156700D01*
X7942000Y-4178000D01*
X7934000Y-4196700D01*
X7922000Y-4207300D01*
X7910000Y-4210000D01*
G01X8216000Y-4124700D02*
X8224000Y-4116700D01*
X8230000Y-4103300D01*
X8234000Y-4084700D01*
X8230000Y-4068700D01*
X8222000Y-4058000D01*
X8208000Y-4050000D01*
X8154000D01*
Y-4210000D01*
X8220000D01*
X8234000Y-4199300D01*
X8242000Y-4183300D01*
X8246000Y-4164700D01*
X8242000Y-4146000D01*
X8230000Y-4130000D01*
X8216000Y-4124700D01*
X8154000D01*
G01X8381000Y-4210000D02*
Y-4103300D01*
G01Y-4122000D02*
X8373000Y-4111300D01*
X8361000Y-4106000D01*
X8347000Y-4103300D01*
X8333000Y-4108700D01*
X8321000Y-4119300D01*
X8313000Y-4135300D01*
X8309000Y-4156700D01*
X8313000Y-4178000D01*
X8321000Y-4194000D01*
X8333000Y-4204700D01*
X8347000Y-4210000D01*
X8361000Y-4207300D01*
X8373000Y-4199300D01*
X8381000Y-4188700D01*
G01X8460000Y-4138000D02*
X8524000D01*
X8518000Y-4119300D01*
X8508000Y-4108700D01*
X8494000Y-4103300D01*
X8480000Y-4106000D01*
X8468000Y-4114000D01*
X8460000Y-4132700D01*
X8456000Y-4148700D01*
Y-4164700D01*
X8460000Y-4180700D01*
X8470000Y-4196700D01*
X8482000Y-4207300D01*
X8496000Y-4210000D01*
X8510000Y-4204700D01*
X8524000Y-4188700D01*
G01X8605000Y-4191300D02*
X8615000Y-4202000D01*
X8629000Y-4210000D01*
X8641000D01*
X8653000Y-4204700D01*
X8661000Y-4196700D01*
X8665000Y-4186000D01*
X8663000Y-4170000D01*
X8655000Y-4162000D01*
X8619000Y-4146000D01*
X8611000Y-4127300D01*
X8615000Y-4114000D01*
X8623000Y-4106000D01*
X8635000Y-4103300D01*
X8647000Y-4106000D01*
X8659000Y-4114000D01*
G01X8750000Y-4191300D02*
X8760000Y-4202000D01*
X8774000Y-4210000D01*
X8786000D01*
X8798000Y-4204700D01*
X8806000Y-4196700D01*
X8810000Y-4186000D01*
X8808000Y-4170000D01*
X8800000Y-4162000D01*
X8764000Y-4146000D01*
X8756000Y-4127300D01*
X8760000Y-4114000D01*
X8768000Y-4106000D01*
X8780000Y-4103300D01*
X8792000Y-4106000D01*
X8804000Y-4114000D01*
G01X8925000Y-4210000D02*
X8913000Y-4207300D01*
X8901000Y-4196700D01*
X8893000Y-4178000D01*
X8889000Y-4156700D01*
X8893000Y-4135300D01*
X8901000Y-4116700D01*
X8913000Y-4106000D01*
X8925000Y-4103300D01*
X8937000Y-4106000D01*
X8949000Y-4116700D01*
X8957000Y-4135300D01*
X8959000Y-4156700D01*
X8957000Y-4178000D01*
X8949000Y-4196700D01*
X8937000Y-4207300D01*
X8925000Y-4210000D01*
G01X9066000Y-4239300D02*
X9074000Y-4204700D01*
G01X9308000Y-4210000D02*
Y-4050000D01*
X9360000Y-4183300D01*
X9412000Y-4050000D01*
Y-4210000D01*
G01X9541000D02*
Y-4103300D01*
G01Y-4122000D02*
X9533000Y-4111300D01*
X9521000Y-4106000D01*
X9507000Y-4103300D01*
X9493000Y-4108700D01*
X9481000Y-4119300D01*
X9473000Y-4135300D01*
X9469000Y-4156700D01*
X9473000Y-4178000D01*
X9481000Y-4194000D01*
X9493000Y-4204700D01*
X9507000Y-4210000D01*
X9521000Y-4207300D01*
X9533000Y-4199300D01*
X9541000Y-4188700D01*
G01X9608000Y-4258000D02*
X9620000Y-4263300D01*
X9636000Y-4258000D01*
X9646000Y-4247300D01*
X9654000Y-4234000D01*
X9666000Y-4191300D01*
X9692000Y-4103300D01*
G01X9628000D02*
X9666000Y-4191300D01*
G01X9902000Y-4076700D02*
X9914000Y-4060700D01*
X9928000Y-4052700D01*
X9944000Y-4050000D01*
X9964000Y-4055300D01*
X9978000Y-4068700D01*
X9982000Y-4084700D01*
X9980000Y-4100700D01*
X9972000Y-4114000D01*
X9932000Y-4140700D01*
X9914000Y-4159300D01*
X9902000Y-4186000D01*
X9898000Y-4210000D01*
X9982000D01*
G01X10085000Y-4050000D02*
X10069000Y-4055300D01*
X10057000Y-4068700D01*
X10049000Y-4084700D01*
X10043000Y-4106000D01*
X10041000Y-4130000D01*
X10043000Y-4154000D01*
X10049000Y-4175300D01*
X10057000Y-4191300D01*
X10069000Y-4204700D01*
X10085000Y-4210000D01*
X10101000Y-4204700D01*
X10113000Y-4191300D01*
X10121000Y-4175300D01*
X10127000Y-4154000D01*
X10129000Y-4130000D01*
X10127000Y-4106000D01*
X10121000Y-4084700D01*
X10113000Y-4068700D01*
X10101000Y-4055300D01*
X10085000Y-4050000D01*
G01X10192000Y-4076700D02*
X10204000Y-4060700D01*
X10218000Y-4052700D01*
X10234000Y-4050000D01*
X10254000Y-4055300D01*
X10268000Y-4068700D01*
X10272000Y-4084700D01*
X10270000Y-4100700D01*
X10262000Y-4114000D01*
X10222000Y-4140700D01*
X10204000Y-4159300D01*
X10192000Y-4186000D01*
X10188000Y-4210000D01*
X10272000D01*
G01X10375000Y-4050000D02*
X10359000Y-4055300D01*
X10347000Y-4068700D01*
X10339000Y-4084700D01*
X10333000Y-4106000D01*
X10331000Y-4130000D01*
X10333000Y-4154000D01*
X10339000Y-4175300D01*
X10347000Y-4191300D01*
X10359000Y-4204700D01*
X10375000Y-4210000D01*
X10391000Y-4204700D01*
X10403000Y-4191300D01*
X10411000Y-4175300D01*
X10417000Y-4154000D01*
X10419000Y-4130000D01*
X10417000Y-4106000D01*
X10411000Y-4084700D01*
X10403000Y-4068700D01*
X10391000Y-4055300D01*
X10375000Y-4050000D01*
G01X10516000Y-4239300D02*
X10524000Y-4204700D01*
G01X10766000Y-4210000D02*
Y-4050000D01*
X10806000D01*
X10822000Y-4058000D01*
X10834000Y-4068700D01*
X10844000Y-4084700D01*
X10852000Y-4103300D01*
X10854000Y-4130000D01*
X10852000Y-4156700D01*
X10844000Y-4175300D01*
X10834000Y-4191300D01*
X10822000Y-4202000D01*
X10806000Y-4210000D01*
X10766000D01*
G01X10991000D02*
Y-4103300D01*
G01Y-4122000D02*
X10983000Y-4111300D01*
X10971000Y-4106000D01*
X10957000Y-4103300D01*
X10943000Y-4108700D01*
X10931000Y-4119300D01*
X10923000Y-4135300D01*
X10919000Y-4156700D01*
X10923000Y-4178000D01*
X10931000Y-4194000D01*
X10943000Y-4204700D01*
X10957000Y-4210000D01*
X10971000Y-4207300D01*
X10983000Y-4199300D01*
X10991000Y-4188700D01*
G01X11064000Y-4103300D02*
X11100000Y-4210000D01*
X11136000Y-4103300D01*
G01X11245000D02*
Y-4210000D01*
G01Y-4060700D02*
X11241000Y-4058000D01*
Y-4052700D01*
X11245000Y-4050000D01*
X11249000Y-4052700D01*
Y-4058000D01*
X11245000Y-4060700D01*
G01X11426000Y-4050000D02*
Y-4210000D01*
G01Y-4186000D02*
X11418000Y-4199300D01*
X11406000Y-4207300D01*
X11392000Y-4210000D01*
X11376000Y-4204700D01*
X11364000Y-4191300D01*
X11356000Y-4175300D01*
X11354000Y-4156700D01*
X11356000Y-4138000D01*
X11364000Y-4122000D01*
X11376000Y-4108700D01*
X11392000Y-4103300D01*
X11406000Y-4106000D01*
X11416000Y-4111300D01*
X11426000Y-4122000D01*
G01X11724000Y-4063300D02*
X11712000Y-4055300D01*
X11698000Y-4050000D01*
X11682000D01*
X11664000Y-4058000D01*
X11650000Y-4071300D01*
X11640000Y-4087300D01*
X11632000Y-4114000D01*
X11630000Y-4138000D01*
X11634000Y-4162000D01*
X11640000Y-4178000D01*
X11652000Y-4194000D01*
X11666000Y-4204700D01*
X11680000Y-4210000D01*
X11694000D01*
X11708000Y-4204700D01*
X11720000Y-4196700D01*
X11730000Y-4186000D01*
G01X11791000Y-4103300D02*
Y-4178000D01*
X11799000Y-4196700D01*
X11811000Y-4207300D01*
X11825000Y-4210000D01*
X11839000Y-4207300D01*
X11851000Y-4196700D01*
X11859000Y-4178000D01*
G01Y-4210000D02*
Y-4103300D01*
G01X11940000Y-4191300D02*
X11950000Y-4202000D01*
X11964000Y-4210000D01*
X11976000D01*
X11988000Y-4204700D01*
X11996000Y-4196700D01*
X12000000Y-4186000D01*
X11998000Y-4170000D01*
X11990000Y-4162000D01*
X11954000Y-4146000D01*
X11946000Y-4127300D01*
X11950000Y-4114000D01*
X11958000Y-4106000D01*
X11970000Y-4103300D01*
X11982000Y-4106000D01*
X11994000Y-4114000D01*
G01X12085000Y-4191300D02*
X12095000Y-4202000D01*
X12109000Y-4210000D01*
X12121000D01*
X12133000Y-4204700D01*
X12141000Y-4196700D01*
X12145000Y-4186000D01*
X12143000Y-4170000D01*
X12135000Y-4162000D01*
X12099000Y-4146000D01*
X12091000Y-4127300D01*
X12095000Y-4114000D01*
X12103000Y-4106000D01*
X12115000Y-4103300D01*
X12127000Y-4106000D01*
X12139000Y-4114000D01*
G01X12296000Y-4210000D02*
Y-4103300D01*
G01Y-4122000D02*
X12288000Y-4111300D01*
X12276000Y-4106000D01*
X12262000Y-4103300D01*
X12248000Y-4108700D01*
X12236000Y-4119300D01*
X12228000Y-4135300D01*
X12224000Y-4156700D01*
X12228000Y-4178000D01*
X12236000Y-4194000D01*
X12248000Y-4204700D01*
X12262000Y-4210000D01*
X12276000Y-4207300D01*
X12288000Y-4199300D01*
X12296000Y-4188700D01*
G01X12371000Y-4210000D02*
Y-4103300D01*
G01Y-4130000D02*
X12379000Y-4116700D01*
X12391000Y-4106000D01*
X12407000Y-4103300D01*
X12421000Y-4106000D01*
X12433000Y-4116700D01*
X12439000Y-4135300D01*
Y-4210000D01*
G01X12520000Y-4191300D02*
X12530000Y-4202000D01*
X12544000Y-4210000D01*
X12556000D01*
X12568000Y-4204700D01*
X12576000Y-4196700D01*
X12580000Y-4186000D01*
X12578000Y-4170000D01*
X12570000Y-4162000D01*
X12534000Y-4146000D01*
X12526000Y-4127300D01*
X12530000Y-4114000D01*
X12538000Y-4106000D01*
X12550000Y-4103300D01*
X12562000Y-4106000D01*
X12574000Y-4114000D01*
G01X12691000Y-4239300D02*
X12699000Y-4204700D01*
G01X12945000Y-4178000D02*
X12955000Y-4194000D01*
X12967000Y-4204700D01*
X12981000Y-4210000D01*
X12997000Y-4204700D01*
X13009000Y-4194000D01*
X13021000Y-4178000D01*
X13025000Y-4156700D01*
Y-4050000D01*
G01X13096000Y-4103300D02*
Y-4178000D01*
X13104000Y-4196700D01*
X13116000Y-4207300D01*
X13130000Y-4210000D01*
X13144000Y-4207300D01*
X13156000Y-4196700D01*
X13164000Y-4178000D01*
G01Y-4210000D02*
Y-4103300D01*
G01X13275000Y-4210000D02*
Y-4050000D01*
G01X13378000Y-4258000D02*
X13390000Y-4263300D01*
X13406000Y-4258000D01*
X13416000Y-4247300D01*
X13424000Y-4234000D01*
X13436000Y-4191300D01*
X13462000Y-4103300D01*
G01X13398000D02*
X13436000Y-4191300D01*
G01X13672000Y-4076700D02*
X13684000Y-4060700D01*
X13698000Y-4052700D01*
X13714000Y-4050000D01*
X13734000Y-4055300D01*
X13748000Y-4068700D01*
X13752000Y-4084700D01*
X13750000Y-4100700D01*
X13742000Y-4114000D01*
X13702000Y-4140700D01*
X13684000Y-4159300D01*
X13672000Y-4186000D01*
X13668000Y-4210000D01*
X13752000D01*
G01X13855000Y-4050000D02*
X13839000Y-4055300D01*
X13827000Y-4068700D01*
X13819000Y-4084700D01*
X13813000Y-4106000D01*
X13811000Y-4130000D01*
X13813000Y-4154000D01*
X13819000Y-4175300D01*
X13827000Y-4191300D01*
X13839000Y-4204700D01*
X13855000Y-4210000D01*
X13871000Y-4204700D01*
X13883000Y-4191300D01*
X13891000Y-4175300D01*
X13897000Y-4154000D01*
X13899000Y-4130000D01*
X13897000Y-4106000D01*
X13891000Y-4084700D01*
X13883000Y-4068700D01*
X13871000Y-4055300D01*
X13855000Y-4050000D01*
G01X13962000Y-4076700D02*
X13974000Y-4060700D01*
X13988000Y-4052700D01*
X14004000Y-4050000D01*
X14024000Y-4055300D01*
X14038000Y-4068700D01*
X14042000Y-4084700D01*
X14040000Y-4100700D01*
X14032000Y-4114000D01*
X13992000Y-4140700D01*
X13974000Y-4159300D01*
X13962000Y-4186000D01*
X13958000Y-4210000D01*
X14042000D01*
G01X14101000Y-4178000D02*
X14113000Y-4196700D01*
X14129000Y-4207300D01*
X14147000Y-4210000D01*
X14163000Y-4207300D01*
X14179000Y-4194000D01*
X14189000Y-4178000D01*
X14191000Y-4162000D01*
X14187000Y-4143300D01*
X14173000Y-4130000D01*
X14159000Y-4124700D01*
X14141000D01*
G01X14159000D02*
X14171000Y-4116700D01*
X14181000Y-4103300D01*
X14185000Y-4087300D01*
X14181000Y-4071300D01*
X14171000Y-4058000D01*
X14153000Y-4050000D01*
X14135000Y-4052700D01*
X14117000Y-4063300D01*
M02*
