G04 ================== begin FILE IDENTIFICATION RECORD ==================*
G04 Layout Name:  pc065d_fibv2a_toplevel_29.brd*
G04 Film Name:    art_pc065d_05_L03P*
G04 File Format:  Gerber RS274X*
G04 File Origin:  Cadence Allegro 24.1-P001*
G04 Origin Date:  Mon Aug  4 18:02:41 2025*
G04 *
G04 Layer:  ETCH/L3_SIG*
G04 Layer:  PIN/L3_SIG*
G04 Layer:  VIA CLASS/L3_SIG*
G04 *
G04 Offset:    (0.000 0.000)*
G04 Mirror:    No*
G04 Mode:      Positive*
G04 Rotation:  0*
G04 FullContactRelief:  No*
G04 UndefLineWidth:     0.200*
G04 ================== end FILE IDENTIFICATION RECORD ====================*
%FSLAX35Y35*MOMM*%
%IR0*IPPOS*OFA0.00000B0.00000*MIA0B0*SFA1.00000B1.00000*%
%ADD14C,1.*%
%ADD17C,1.001*%
%ADD12C,1.7*%
%ADD10C,4.5*%
%ADD13C,1.65*%
%ADD15C,1.75*%
%ADD18C,1.397*%
%ADD16C,.5*%
%ADD11C,.56*%
%ADD19C,.813*%
%ADD20C,.2*%
%ADD21C,.15*%
%ADD22C,.17*%
G75*
%LPD*%
G75*
G36*
G01X200000Y5520000D02*
Y5370000D01*
X380000D01*
Y5520000D01*
X200000D01*
G37*
G36*
G01X1366000Y4800900D02*
X1379700Y4814800D01*
X1360000Y4836600D01*
X1340300Y4814800D01*
X1354000Y4800900D01*
G03X1366000I6000J6000D01*
G37*
G36*
G01X1916000D02*
X1929700Y4814800D01*
X1910000Y4836600D01*
X1890300Y4814800D01*
X1904000Y4800900D01*
G03X1916000I6000J6000D01*
G37*
G36*
G01X2871000Y2771400D02*
X2884700Y2785300D01*
X2865000Y2807100D01*
X2845300Y2785300D01*
X2859000Y2771400D01*
G03X2871000I6000J6000D01*
G37*
G36*
G01X2898600Y2591000D02*
X2884700Y2604700D01*
X2862900Y2585000D01*
X2884700Y2565300D01*
X2898600Y2579000D01*
G03Y2591000I-6000J6000D01*
G37*
G36*
G01X2779000Y4868100D02*
X2765300Y4854200D01*
X2785000Y4832400D01*
X2804700Y4854200D01*
X2791000Y4868100D01*
G03X2779000I-6000J-6000D01*
G37*
G36*
G01X3315500Y4806500D02*
X3335000D01*
X3336500Y4836000D01*
X3307000Y4834500D01*
Y4815000D01*
G03X3315500Y4806500I8500J0D01*
G37*
G36*
G01X4034000Y1561400D02*
X4047700Y1575300D01*
X4028000Y1597100D01*
X4008300Y1575300D01*
X4022000Y1561400D01*
G03X4034000I6000J6000D01*
G37*
G36*
G01X4399000D02*
X4412700Y1575300D01*
X4393000Y1597100D01*
X4373300Y1575300D01*
X4387000Y1561400D01*
G03X4399000I6000J6000D01*
G37*
G36*
G01X4472000D02*
X4485700Y1575300D01*
X4466000Y1597100D01*
X4446300Y1575300D01*
X4460000Y1561400D01*
G03X4472000I6000J6000D01*
G37*
G36*
G01X4326000D02*
X4339700Y1575300D01*
X4320000Y1597100D01*
X4300300Y1575300D01*
X4314000Y1561400D01*
G03X4326000I6000J6000D01*
G37*
G36*
G01X4107000D02*
X4120700Y1575300D01*
X4101000Y1597100D01*
X4081300Y1575300D01*
X4095000Y1561400D01*
G03X4107000I6000J6000D01*
G37*
G36*
G01X4180000D02*
X4193700Y1575300D01*
X4174000Y1597100D01*
X4154300Y1575300D01*
X4168000Y1561400D01*
G03X4180000I6000J6000D01*
G37*
G36*
G01X4253000D02*
X4266700Y1575300D01*
X4247000Y1597100D01*
X4227300Y1575300D01*
X4241000Y1561400D01*
G03X4253000I6000J6000D01*
G37*
G36*
G01X4538600Y2821000D02*
X4524700Y2834700D01*
X4502900Y2815000D01*
X4524700Y2795300D01*
X4538600Y2809000D01*
G03Y2821000I-6000J6000D01*
G37*
G36*
G01Y2576000D02*
X4524700Y2589700D01*
X4502900Y2570000D01*
X4524700Y2550300D01*
X4538600Y2564000D01*
G03Y2576000I-6000J6000D01*
G37*
G36*
G01X4176400Y4828500D02*
X4190300Y4814800D01*
X4212100Y4834500D01*
X4190300Y4854200D01*
X4176400Y4840500D01*
G03Y4828500I6000J-6000D01*
G37*
G36*
G01X5022000Y1628600D02*
X5008300Y1614700D01*
X5028000Y1592900D01*
X5047700Y1614700D01*
X5034000Y1628600D01*
G03X5022000I-6000J-6000D01*
G37*
G36*
G01X4921400Y1589000D02*
X4935300Y1575300D01*
X4957100Y1595000D01*
X4935300Y1614700D01*
X4921400Y1601000D01*
G03Y1589000I6000J-6000D01*
G37*
G36*
G01X4740500Y4806500D02*
X4760000D01*
X4761500Y4836000D01*
X4732000Y4834500D01*
Y4815000D01*
G03X4740500Y4806500I8500J0D01*
G37*
G36*
G01X5241000Y1628600D02*
X5227300Y1614700D01*
X5247000Y1592900D01*
X5266700Y1614700D01*
X5253000Y1628600D01*
G03X5241000I-6000J-6000D01*
G37*
G36*
G01X5314000D02*
X5300300Y1614700D01*
X5320000Y1592900D01*
X5339700Y1614700D01*
X5326000Y1628600D01*
G03X5314000I-6000J-6000D01*
G37*
G36*
G01X5387000D02*
X5373300Y1614700D01*
X5393000Y1592900D01*
X5412700Y1614700D01*
X5399000Y1628600D01*
G03X5387000I-6000J-6000D01*
G37*
G36*
G01X5460000D02*
X5446300Y1614700D01*
X5466000Y1592900D01*
X5485700Y1614700D01*
X5472000Y1628600D01*
G03X5460000I-6000J-6000D01*
G37*
G36*
G01X5095000D02*
X5081300Y1614700D01*
X5101000Y1592900D01*
X5120700Y1614700D01*
X5107000Y1628600D01*
G03X5095000I-6000J-6000D01*
G37*
G36*
G01X5168000D02*
X5154300Y1614700D01*
X5174000Y1592900D01*
X5193700Y1614700D01*
X5180000Y1628600D01*
G03X5168000I-6000J-6000D01*
G37*
G36*
G01X5607000Y4854000D02*
Y4834500D01*
X5636500Y4833000D01*
X5635000Y4862500D01*
X5615500D01*
G03X5607000Y4854000I0J-8500D01*
G37*
G36*
G01X6165500Y4806500D02*
X6185000D01*
X6186500Y4836000D01*
X6157000Y4834500D01*
Y4815000D01*
G03X6165500Y4806500I8500J0D01*
G37*
G36*
G01X6543600Y2756000D02*
X6529700Y2769700D01*
X6507900Y2750000D01*
X6529700Y2730300D01*
X6543600Y2744000D01*
G03Y2756000I-6000J6000D01*
G37*
G36*
G01Y2676000D02*
X6529700Y2689700D01*
X6507900Y2670000D01*
X6529700Y2650300D01*
X6543600Y2664000D01*
G03Y2676000I-6000J6000D01*
G37*
G36*
G01X7268000Y338000D02*
Y357500D01*
X7238500Y359000D01*
X7240000Y329500D01*
X7259500D01*
G03X7268000Y338000I0J8500D01*
G37*
G36*
G01X7812000Y2759500D02*
Y2740000D01*
X7841500Y2738500D01*
X7840000Y2768000D01*
X7820500D01*
G03X7812000Y2759500I0J-8500D01*
G37*
G36*
G01X7820500Y2612000D02*
X7840000D01*
X7841500Y2641500D01*
X7812000Y2640000D01*
Y2620500D01*
G03X7820500Y2612000I8500J0D01*
G37*
G36*
G01X7496400Y4828500D02*
X7510300Y4814800D01*
X7532100Y4834500D01*
X7510300Y4854200D01*
X7496400Y4840500D01*
G03Y4828500I6000J-6000D01*
G37*
G36*
G01X8060500Y4806500D02*
X8080000D01*
X8081500Y4836000D01*
X8052000Y4834500D01*
Y4815000D01*
G03X8060500Y4806500I8500J0D01*
G37*
G36*
G01X8879500Y2518000D02*
X8860000D01*
X8858500Y2488500D01*
X8888000Y2490000D01*
Y2509500D01*
G03X8879500Y2518000I-8500J0D01*
G37*
G36*
G01X9166400Y487900D02*
X9185900D01*
X9187400Y517400D01*
X9157900Y515900D01*
Y496400D01*
G03X9166400Y487900I8500J0D01*
G37*
G36*
G01X9039400D02*
X9058900D01*
X9060400Y517400D01*
X9030900Y515900D01*
Y496400D01*
G03X9039400Y487900I8500J0D01*
G37*
G36*
G01X9038000Y2470500D02*
Y2490000D01*
X9008500Y2491500D01*
X9010000Y2462000D01*
X9029500D01*
G03X9038000Y2470500I0J8500D01*
G37*
G36*
G01X8921400Y4828500D02*
X8935300Y4814800D01*
X8957100Y4834500D01*
X8935300Y4854200D01*
X8921400Y4840500D01*
G03Y4828500I6000J-6000D01*
G37*
G36*
G01X9713400Y670900D02*
X9693900D01*
X9692400Y641400D01*
X9721900Y642900D01*
Y662400D01*
G03X9713400Y670900I-8500J0D01*
G37*
G36*
G01X9792900Y1156600D02*
Y1137100D01*
X9822400Y1135600D01*
X9820900Y1165100D01*
X9801400D01*
G03X9792900Y1156600I0J-8500D01*
G37*
G36*
G01X9665900D02*
Y1137100D01*
X9695400Y1135600D01*
X9693900Y1165100D01*
X9674400D01*
G03X9665900Y1156600I0J-8500D01*
G37*
G36*
G01X9485500Y4806500D02*
X9505000D01*
X9506500Y4836000D01*
X9477000Y4834500D01*
Y4815000D01*
G03X9485500Y4806500I8500J0D01*
G37*
G36*
G01X10173900Y535400D02*
Y515900D01*
X10203400Y514400D01*
X10201900Y543900D01*
X10182400D01*
G03X10173900Y535400I0J-8500D01*
G37*
G36*
G01X10222400Y1165100D02*
X10201900D01*
X10200600Y1135800D01*
X10229900Y1137100D01*
Y1157600D01*
G03X10222400Y1165100I-7500J0D01*
G37*
G36*
G01X10102900Y1116600D02*
Y1137100D01*
X10073600Y1138400D01*
X10074900Y1109100D01*
X10095400D01*
G03X10102900Y1116600I0J7500D01*
G37*
G36*
G01X10206000Y2446400D02*
X10219700Y2460300D01*
X10200000Y2482100D01*
X10180300Y2460300D01*
X10194000Y2446400D01*
G03X10206000I6000J6000D01*
G37*
G36*
G01X10316000D02*
X10329700Y2460300D01*
X10310000Y2482100D01*
X10290300Y2460300D01*
X10304000Y2446400D01*
G03X10316000I6000J6000D01*
G37*
G36*
G01X10346400Y4828500D02*
X10360300Y4814800D01*
X10382100Y4834500D01*
X10360300Y4854200D01*
X10346400Y4840500D01*
G03Y4828500I6000J-6000D01*
G37*
G36*
G01X10910500Y4806500D02*
X10930000D01*
X10931500Y4836000D01*
X10902000Y4834500D01*
Y4815000D01*
G03X10910500Y4806500I8500J0D01*
G37*
G36*
G01X11692600Y487900D02*
X11712100D01*
X11713600Y517400D01*
X11684100Y515900D01*
Y496400D01*
G03X11692600Y487900I8500J0D01*
G37*
G36*
G01X11350600Y797900D02*
X11331100D01*
X11329600Y768400D01*
X11359100Y769900D01*
Y789400D01*
G03X11350600Y797900I-8500J0D01*
G37*
G36*
G01X11430100Y1029600D02*
Y1010100D01*
X11459600Y1008600D01*
X11458100Y1038100D01*
X11438600D01*
G03X11430100Y1029600I0J-8500D01*
G37*
G36*
G01X11604600Y1038100D02*
X11585100D01*
X11583600Y1008600D01*
X11613100Y1010100D01*
Y1029600D01*
G03X11604600Y1038100I-8500J0D01*
G37*
G36*
G01X11731600Y1419100D02*
X11712100D01*
X11710600Y1389600D01*
X11740100Y1391100D01*
Y1410600D01*
G03X11731600Y1419100I-8500J0D01*
G37*
G36*
G01X11649500Y2492000D02*
X11670000D01*
X11671300Y2521300D01*
X11642000Y2520000D01*
Y2499500D01*
G03X11649500Y2492000I7500J0D01*
G37*
G36*
G01X11739500D02*
X11760000D01*
X11761300Y2521300D01*
X11732000Y2520000D01*
Y2499500D01*
G03X11739500Y2492000I7500J0D01*
G37*
G36*
G01X11819600Y487900D02*
X11839100D01*
X11840600Y517400D01*
X11811100Y515900D01*
Y496400D01*
G03X11819600Y487900I8500J0D01*
G37*
G36*
G01X12226100Y1103500D02*
X12239800Y1117400D01*
X12220100Y1139200D01*
X12200400Y1117400D01*
X12214100Y1103500D01*
G03X12226100I6000J6000D01*
G37*
G36*
G01X12073600Y1109100D02*
X12093100D01*
X12094600Y1138600D01*
X12065100Y1137100D01*
Y1117600D01*
G03X12073600Y1109100I8500J0D01*
G37*
G36*
G01X11960100Y1551700D02*
X11946400Y1537800D01*
X11966100Y1516000D01*
X11985800Y1537800D01*
X11972100Y1551700D01*
G03X11960100I-6000J-6000D01*
G37*
G36*
G01X11833100D02*
X11819400Y1537800D01*
X11839100Y1516000D01*
X11858800Y1537800D01*
X11845100Y1551700D01*
G03X11833100I-6000J-6000D01*
G37*
G36*
G01X11777000Y4854000D02*
Y4834500D01*
X11806500Y4833000D01*
X11805000Y4862500D01*
X11785500D01*
G03X11777000Y4854000I0J-8500D01*
G37*
G36*
G01X12634700Y1143100D02*
X12620800Y1156800D01*
X12599000Y1137100D01*
X12620800Y1117400D01*
X12634700Y1131100D01*
G03Y1143100I-6000J6000D01*
G37*
G36*
G01X12502100Y1117600D02*
Y1137100D01*
X12472600Y1138600D01*
X12474100Y1109100D01*
X12493600D01*
G03X12502100Y1117600I0J8500D01*
G37*
G36*
G01X12335500Y4806500D02*
X12355000D01*
X12356500Y4836000D01*
X12327000Y4834500D01*
Y4815000D01*
G03X12335500Y4806500I8500J0D01*
G37*
G36*
G01X13004500Y2466400D02*
X13018200Y2480300D01*
X12998500Y2502100D01*
X12978800Y2480300D01*
X12992500Y2466400D01*
G03X13004500I6000J6000D01*
G37*
G36*
G01X13108500Y2480500D02*
Y2500000D01*
X13079000Y2501500D01*
X13080500Y2472000D01*
X13100000D01*
G03X13108500Y2480500I0J8500D01*
G37*
G36*
G01X13070500Y5192000D02*
X13090000D01*
X13091500Y5221500D01*
X13062000Y5220000D01*
Y5200500D01*
G03X13070500Y5192000I8500J0D01*
G37*
G36*
G01X13508000Y5140500D02*
Y5160000D01*
X13478500Y5161500D01*
X13480000Y5132000D01*
X13499500D01*
G03X13508000Y5140500I0J8500D01*
G37*
G36*
G01X13558000Y5200500D02*
Y5220000D01*
X13528500Y5221500D01*
X13530000Y5192000D01*
X13549500D01*
G03X13558000Y5200500I0J8500D01*
G37*
G54D10*
X300000Y1090000D03*
X550000Y6550000D03*
X7300000Y1090000D03*
X13205000Y6550000D03*
X13600000Y1090000D03*
G54D20*
G01X548000Y5396000D02*
X566700Y5408000D01*
X577300Y5424000D01*
X580000Y5442000D01*
X577300Y5458000D01*
X564000Y5474000D01*
X548000Y5484000D01*
X532000Y5486000D01*
X513300Y5482000D01*
X500000Y5468000D01*
X494700Y5454000D01*
Y5436000D01*
G01Y5454000D02*
X486700Y5466000D01*
X473300Y5476000D01*
X457300Y5480000D01*
X441300Y5476000D01*
X428000Y5466000D01*
X420000Y5448000D01*
X422700Y5430000D01*
X433300Y5412000D01*
G54D11*
X140000Y1600000D03*
X130000Y2090000D03*
X139500Y2267000D03*
X140000Y2597000D03*
X139500Y3053000D03*
X270000Y1930000D03*
X480000Y1600000D03*
X590000Y1880000D03*
X266500Y2267000D03*
X595000Y2075000D03*
X660000Y2267000D03*
X400000Y2600000D03*
X270000Y2597000D03*
X660000Y2513000D03*
X530000Y2590000D03*
X520500Y3053000D03*
X393500D03*
X266500D03*
X1110000Y532500D03*
Y92500D03*
Y387500D03*
X973000Y993000D03*
X1110000Y827500D03*
X820000Y1780000D03*
X1000000Y1785000D03*
X775000Y2075000D03*
X845000Y2520000D03*
Y2780000D03*
X1059500Y3805000D03*
Y3715000D03*
X1140000Y4719500D03*
X1650000Y1290000D03*
Y1070000D03*
X1582400Y1133500D03*
Y1206500D03*
X1350000Y1910000D03*
X1380000Y1610000D03*
X1530000Y1910000D03*
X1387500Y3427400D03*
X1460500D03*
X1520000Y3600000D03*
X1228500Y3760000D03*
X1560000Y3910000D03*
X1700000D03*
Y4155500D03*
X1550000Y4310500D03*
X1400000Y4155500D03*
X1290000Y4121800D03*
X1264000Y4429500D03*
X1344000D03*
X1580000Y4834500D03*
X1690000D03*
X1470000D03*
X1360000D03*
X1580000Y5080000D03*
X1470000D03*
X1360000D03*
X1690000D03*
X1800000Y240000D03*
X1860000Y350000D03*
X1937700Y496500D03*
Y423500D03*
X1810000Y790000D03*
Y980000D03*
X1800000Y680000D03*
X1860000Y570000D03*
X2110000Y790000D03*
X1810000Y1470000D03*
X2035700Y1360000D03*
X2040000Y1470000D03*
X1910000Y2370000D03*
X1710000D03*
X2110000Y2290000D03*
X2046500Y2326900D03*
X1973500D03*
X1846500D03*
X1773500D03*
X1910000Y2500000D03*
X2060000Y3180000D03*
X2110000Y3335000D03*
X1710000Y3336000D03*
X1760000Y3180000D03*
X2024000Y3910500D03*
X1784000Y3609500D03*
X1810000Y4131800D03*
X1984000Y4429500D03*
X1800000Y4834500D03*
X1824000Y4430000D03*
X1910000Y4834500D03*
Y5080000D03*
X1800000Y5080100D03*
X2330000Y550000D03*
X2400000D03*
X2410000Y330000D03*
X2330000Y620000D03*
Y690000D03*
X2400000Y620000D03*
Y690000D03*
X2260000Y1430000D03*
X2350000Y1480000D03*
X2635000Y1255000D03*
X2490000Y1690000D03*
X2420000D03*
X2350000D03*
Y1620000D03*
Y1550000D03*
X2607500Y2592500D03*
X2550000Y2930000D03*
X2420000D03*
X2390000Y2740000D03*
Y2640000D03*
X2330000Y3360000D03*
X2275000Y2985000D03*
X2653500Y3760000D03*
X2565000Y3940000D03*
Y4719500D03*
X3105000Y325000D03*
X2890000Y390000D03*
X2730000D03*
X2773500Y489800D03*
X2846500D03*
X3040000Y1090000D03*
X3130000Y2440000D03*
X2865000Y2805000D03*
Y2585000D03*
X3140000Y3336000D03*
X2705000Y2985000D03*
X2812500Y3427400D03*
X2885500D03*
X2940000Y3590000D03*
X2975000Y3915000D03*
X3125000D03*
Y4155500D03*
X2975000Y4310500D03*
X2825000Y4155500D03*
X2715000Y4121800D03*
X2689000Y4429500D03*
X2769000D03*
X3005000Y4834500D03*
X3115000D03*
X2895000D03*
X2785000D03*
Y5080000D03*
X2895000D03*
X3005000D03*
X3115000D03*
X3290000Y740000D03*
Y670000D03*
Y600000D03*
X3220000Y740000D03*
X3150000D03*
X3610000Y830000D03*
X3290000Y1500000D03*
X3220000D03*
X3440000Y1240000D03*
X3450000Y1090000D03*
X3290000Y1640000D03*
X3220000D03*
Y1570000D03*
X3290000D03*
X3330000Y2440000D03*
X3530000Y2360000D03*
X3466500Y2400000D03*
X3393500D03*
X3266500D03*
X3193500D03*
X3490000Y3180000D03*
X3530000Y3335000D03*
X3190000Y3180000D03*
X3449000Y3910500D03*
X3209000Y3609500D03*
X3235000Y4131800D03*
X3409000Y4429500D03*
X3225000Y4834500D03*
X3335000D03*
X3249000Y4430000D03*
X3225000Y5080000D03*
X3335000D03*
X3890000Y710000D03*
X4002500Y725000D03*
X4075500D03*
X4028000Y1595000D03*
X3955000D03*
X4101000D03*
X3675000Y2465000D03*
X4090000Y2930000D03*
X3890000Y2980000D03*
X3909500Y3805000D03*
X4078500Y3760000D03*
X3909500Y3715000D03*
X3990000Y4719500D03*
X4221500Y725000D03*
X4367500D03*
X4440500D03*
X4565000Y1085000D03*
X4393000Y1595000D03*
X4466000D03*
X4320000D03*
X4174000D03*
X4247000D03*
X4550000Y2400000D03*
X4212500Y2592500D03*
X4220000Y2930000D03*
X4505000Y2815000D03*
Y2570000D03*
X4110000Y2740000D03*
Y2640000D03*
X4560000Y3336000D03*
X4345000Y3000000D03*
X4237500Y3427400D03*
X4310500D03*
X4362500Y3587500D03*
X4400000Y3910000D03*
X4550000D03*
Y4155500D03*
X4400000Y4310500D03*
X4250000Y4155500D03*
X4140000Y4121800D03*
X4114000Y4429500D03*
X4194000D03*
X4430000Y4834500D03*
X4540000D03*
X4320000D03*
X4210000D03*
X4430000Y5080000D03*
X4540000D03*
X4210000D03*
X4320000D03*
X4890000Y710000D03*
X4655000Y995000D03*
X5002500Y725000D03*
X4630000Y1400000D03*
Y1180000D03*
X5028000Y1595000D03*
X4955000D03*
X4950000Y2400000D03*
X4750000D03*
X4886500Y2362400D03*
X4813500D03*
X4686500D03*
X4613500D03*
X4910000Y3180000D03*
X4960000Y3335000D03*
X4610000Y3180000D03*
X4874000Y3910500D03*
X4634000Y3609500D03*
X4660000Y4131800D03*
X4834000Y4429500D03*
X4650000Y4834500D03*
X4760000D03*
X4674000Y4430000D03*
X4760000Y5080000D03*
X4650000D03*
X5530000Y1020000D03*
X5075500Y725000D03*
X5148500D03*
X5221500D03*
X5294500D03*
X5367500D03*
X5440500D03*
X5513500D03*
X5247000Y1595000D03*
X5320000D03*
X5393000D03*
X5466000D03*
X5101000D03*
X5174000D03*
X5334500Y3805000D03*
X5503500Y3760000D03*
X5334500Y3715000D03*
X5530000Y4380000D03*
X5415000Y4719500D03*
X5690000Y940000D03*
X6025000Y750000D03*
X5755000Y1325000D03*
X5715000Y1235000D03*
X5900000Y1530000D03*
X5980000Y2370000D03*
X5900000Y2520000D03*
X5980000Y3336000D03*
X5662500Y3427400D03*
X5735500D03*
X5814100Y3612900D03*
X5825000Y3916800D03*
X5975000Y3915000D03*
X5825000Y4310500D03*
X5675000Y4155500D03*
X5975000D03*
X5565000Y4121800D03*
X5619000Y4429500D03*
X5855000Y4834500D03*
X5965000D03*
X5745000D03*
X5635000D03*
X5745000Y5080000D03*
X5635000D03*
X5855000D03*
X5965000D03*
X6450000Y210000D03*
X6480000Y340000D03*
X6472500Y422500D03*
X6105000Y750000D03*
X6185000D03*
X6265000D03*
X6345000D03*
X6425000D03*
X6505000D03*
X6472500Y1570000D03*
X6072500D03*
X6152500D03*
X6312500D03*
X6392500D03*
X6232500D03*
X6180000Y2450000D03*
X6380000Y2370000D03*
X6316500Y2412400D03*
X6243500D03*
X6116500D03*
X6043500D03*
X6472500Y2592500D03*
X6510000Y2750000D03*
Y2670000D03*
X6380000Y2760000D03*
X6410000Y2680000D03*
X6340000Y3180000D03*
X6285000Y3020000D03*
X6390000Y3335000D03*
X6040000Y3180000D03*
X6195000Y3020000D03*
X6299000Y3910500D03*
X6059000Y3609500D03*
X6085000Y4131800D03*
X6259000Y4429500D03*
X6075000Y4834500D03*
X6099000Y4430000D03*
X6185000Y4834500D03*
X6075000Y5080000D03*
X6185000D03*
X6790000Y200000D03*
X6910000Y190000D03*
X6790000Y610000D03*
X6910000Y615500D03*
X6585000Y750000D03*
X6632500Y1570000D03*
X6552500D03*
X6535000Y3005000D03*
X6625000D03*
X7170000Y500000D03*
X7250000Y255000D03*
X7240000Y357500D03*
X7320000Y390000D03*
X7240000Y2520000D03*
X7229500Y3805000D03*
X7398500Y3760000D03*
X7229500Y3715000D03*
X7460000Y4121800D03*
X7434000Y4429500D03*
X7310000Y4719500D03*
X7915900Y261900D03*
X7600000Y510000D03*
X7915900Y388900D03*
Y769900D03*
Y642900D03*
Y1391100D03*
Y1137100D03*
X7943500Y2482400D03*
X7820000Y2930000D03*
X7680000D03*
X7872500Y2512600D03*
X7840000Y2740000D03*
Y2640000D03*
X7680000Y2740000D03*
Y2640000D03*
X7866300Y3336000D03*
X7930000Y3180000D03*
X7545000Y2985000D03*
X7557500Y3427400D03*
X7630500D03*
X7714000Y3624000D03*
X7954000Y3609500D03*
X7720000Y3916800D03*
X7870000Y3910000D03*
Y4155500D03*
X7720000Y4310500D03*
X7570000Y4155500D03*
X7514000Y4429500D03*
X7750000Y4834500D03*
X7640000D03*
X7860000D03*
X7530000D03*
Y5075700D03*
X7640000D03*
X7750000D03*
X7860000D03*
X8042900Y388900D03*
X8169900D03*
X8296900Y261900D03*
X8423900D03*
X8042900Y642900D03*
X8169900D03*
X8296900Y769900D03*
X8423900D03*
X8042900Y1010100D03*
X8423900D03*
X8296900D03*
Y1391100D03*
X8423900D03*
Y1137100D03*
X8169900Y1518100D03*
X8423900D03*
X8296900D03*
X8169900Y1137100D03*
X8042900D03*
Y1264100D03*
X8216500Y2482400D03*
X8143500D03*
X8016500D03*
X8080000Y2520000D03*
X8280000D03*
X8320000Y2930000D03*
X8230000Y3180000D03*
X8292700Y3335000D03*
X7975000Y2995000D03*
X8194000Y3910500D03*
X7980000Y4131800D03*
X8154000Y4429500D03*
X7970000Y4834500D03*
X8080000D03*
X7994000Y4430000D03*
X7970000Y5075700D03*
X8080000D03*
X8550900Y388900D03*
X8677900D03*
X8804900Y261900D03*
Y515900D03*
X8550900Y642900D03*
X8677900D03*
X8797500Y762500D03*
X8550900Y1010100D03*
X8804900Y642900D03*
X8550900Y1264100D03*
Y1518100D03*
X8801000Y1141000D03*
X8677900Y1137100D03*
X8804900Y1264100D03*
X8550900Y1137100D03*
X8677900Y1264100D03*
X8860000Y2490000D03*
X8545000Y2780000D03*
X8634500Y2930000D03*
X8639800Y2810000D03*
X8630000Y2640000D03*
X8479300Y3080000D03*
X8699300D03*
X8827500Y3203000D03*
X8892500Y3270000D03*
X8664300Y3805000D03*
X8823500Y3760000D03*
X8765000Y3685000D03*
X8885000Y4121800D03*
X8859000Y4429500D03*
X8735000Y4719500D03*
X8931900Y261900D03*
X9058900Y388900D03*
X9185900D03*
X9312900Y261900D03*
X8931900Y515900D03*
X9185900D03*
X9058900D03*
X9312900Y1010100D03*
X9185900Y769900D03*
X9058900Y642900D03*
X8928000Y1014000D03*
X8931900Y642900D03*
X9074500Y785500D03*
X9185900Y1010100D03*
X8946000Y784000D03*
X9058900Y1010100D03*
X9312900Y769900D03*
X8931900Y1518100D03*
X9185900Y1137100D03*
X9312900Y1518100D03*
X9299100Y1391100D03*
X9185900Y1264100D03*
X9058900D03*
X9290000Y2440000D03*
X9010000Y2490000D03*
X9363500Y2422400D03*
X9100000Y2640000D03*
X9085500Y2930000D03*
X9090000Y2810000D03*
X9291300Y3336000D03*
X9344300Y3180000D03*
X9110000Y3035000D03*
X8957500Y3203000D03*
X9139000Y3624000D03*
X9379000Y3609500D03*
X9145000Y3915000D03*
X9295000D03*
X8982500Y3527400D03*
X9055500D03*
X8995000Y4155500D03*
X9145000Y4310500D03*
X9295000Y4155500D03*
X8939000Y4429500D03*
X9175000Y4834500D03*
X9065000D03*
X9285000D03*
X9395000D03*
X8955000D03*
Y5075700D03*
X9175000D03*
X9065000D03*
X9285000D03*
X9395000D03*
X9439900Y261900D03*
Y515900D03*
X9566900Y388900D03*
X9693900D03*
X9820900Y261900D03*
Y515900D03*
X9693900D03*
X9566900D03*
X9693900Y1010100D03*
X9439900Y642900D03*
X9566900Y769900D03*
X9820900Y642900D03*
X9693900D03*
X9566900D03*
X9439900Y769900D03*
X9566900Y1010100D03*
X9553100Y896900D03*
X9820900Y1010100D03*
X9566900Y1137100D03*
X9693900Y1264100D03*
X9820900Y1137100D03*
X9566900Y1264100D03*
X9820900D03*
X9693900Y1137100D03*
X9439900Y1264100D03*
X9570000Y1390000D03*
X9810000Y1540000D03*
X9878900Y1753500D03*
X9827200Y1701800D03*
X9680000Y1660000D03*
X9500000Y2460000D03*
X9690000Y2360000D03*
X9636500Y2422400D03*
X9563500D03*
X9436500D03*
X9840000Y2920000D03*
X9665700Y3180000D03*
X9717700Y3335000D03*
X9619000Y3910500D03*
X9405000Y4131800D03*
X9421300Y4379000D03*
X9579000Y4429500D03*
X9505000Y4834500D03*
Y5075700D03*
X9947900Y261900D03*
Y515900D03*
X10074900Y388900D03*
X10201900D03*
X10328900Y261900D03*
Y515900D03*
X10201900D03*
X10074900D03*
Y1010100D03*
X9947900Y769900D03*
X10201900Y642900D03*
X10328900Y769900D03*
X9947900Y1010100D03*
Y1137100D03*
X10328900D03*
Y1391100D03*
X10049500Y1289500D03*
X9947900Y1264100D03*
X10328900D03*
X10201900D03*
Y1137100D03*
X10074900D03*
X9941500Y1398500D03*
X10070000Y1530000D03*
X10200000Y2480000D03*
X10310000D03*
X9965000Y2770000D03*
X10054500Y2930000D03*
X10059800Y2810000D03*
X10050000Y2640000D03*
X9890000Y3070000D03*
X10119300Y3080000D03*
X10247500Y3203000D03*
X10320000Y3270000D03*
X10079500Y3805000D03*
X10248500Y3760000D03*
X10079500Y3715000D03*
X10310000Y4121800D03*
X10284000Y4439300D03*
X10160000Y4719500D03*
X10569100Y261900D03*
Y515900D03*
X10823100D03*
X10696100D03*
X10569100Y1010100D03*
X10696100Y642900D03*
X10569100D03*
X10442100D03*
X10569100Y1264100D03*
Y1518100D03*
X10823100Y1137100D03*
Y1391100D03*
Y1264100D03*
X10696100D03*
X10740000Y2460000D03*
X10803500Y2422400D03*
X10430000Y2500000D03*
X10505500Y2930000D03*
X10510000Y2810000D03*
X10716300Y3336000D03*
X10832500Y3066800D03*
X10530000Y3035000D03*
X10377500Y3203000D03*
X10407500Y3367400D03*
X10480500D03*
X10540000Y3590000D03*
X10804000Y3580000D03*
X10570000Y3910000D03*
X10720000D03*
Y4155500D03*
X10570000Y4310500D03*
X10420000Y4155500D03*
X10830000Y4131800D03*
X10364000Y4439300D03*
X10600000Y4834500D03*
X10490000D03*
X10710000D03*
X10820000D03*
X10380000D03*
Y5075700D03*
X10490000D03*
X10600000D03*
X10710000D03*
X10820000D03*
X10950100Y261900D03*
Y515900D03*
X11077100Y261900D03*
Y515900D03*
X10950100Y1010100D03*
X11077100Y642900D03*
X11204100Y769900D03*
Y642900D03*
Y1137100D03*
Y1264100D03*
X11077100D03*
X11090900Y1518100D03*
X10963900D03*
X11274500Y1540000D03*
X10940000Y2460000D03*
X11140000D03*
X11076500Y2422400D03*
X11003500D03*
X10876500D03*
X11090700Y3180000D03*
X11142700Y3335000D03*
X11300000Y3040000D03*
X11044000Y3900700D03*
X11004000Y4439300D03*
X10930000Y4834500D03*
X10844000Y4438000D03*
X10930000Y5075700D03*
X11458100Y261900D03*
X11585100D03*
Y515900D03*
X11712100Y388900D03*
Y515900D03*
X11331100Y1010100D03*
X11712100D03*
X11585100Y769900D03*
X11458100Y1010100D03*
X11585100D03*
X11712100Y642900D03*
X11458100Y769900D03*
X11331100D03*
X11712100D03*
X11585100Y1137100D03*
X11712100Y1264100D03*
Y1518100D03*
X11585100Y1391100D03*
Y1264100D03*
X11458100D03*
X11712100Y1137100D03*
Y1391100D03*
X11405000Y2780000D03*
X11494500D03*
X11490000Y2640000D03*
X11670000Y2520000D03*
X11760000D03*
X11410000Y3135500D03*
X11490000Y3000000D03*
X11559300Y3080000D03*
X11687500Y3203000D03*
X11752500Y3280000D03*
X11504500Y3805000D03*
X11749000Y3619300D03*
X11504500Y3715000D03*
X11735000Y4121800D03*
X11585000Y4719500D03*
X11709000Y4429500D03*
X11789000D03*
X11805000Y4834500D03*
Y5075700D03*
X11839100Y388900D03*
X11966100Y261900D03*
Y515900D03*
X12093100Y261900D03*
Y515900D03*
X12220100Y388900D03*
X11839100Y515900D03*
X12220100D03*
X11966100Y769900D03*
X12093100Y1010100D03*
X11966100Y642900D03*
X11839100D03*
Y1010100D03*
X11966100D03*
X11839100Y769900D03*
X12093100Y1518100D03*
Y1264100D03*
X11966100Y1391100D03*
Y1137100D03*
X12220100D03*
X12093100D03*
X11966100Y1518100D03*
X11839100D03*
Y1391100D03*
X12220100Y1518100D03*
X12093100Y1391100D03*
X12220100D03*
X12170000Y2480000D03*
X12223500Y2422400D03*
X11960000Y2640000D03*
X11945500Y2930000D03*
Y2780000D03*
X12141300Y3336000D03*
X12194300Y3180000D03*
X11970000Y3035000D03*
X11820200Y3200200D03*
X11832500Y3427400D03*
X11905500D03*
X11989000Y3624000D03*
X12229000Y3609500D03*
X11995000Y3915000D03*
X12145000D03*
X11995000Y4310500D03*
X12145000Y4155500D03*
X11845000D03*
X12255000Y4131800D03*
X12025000Y4834500D03*
X11915000D03*
X12135000D03*
X12245000D03*
X12269000Y4430000D03*
X11915000Y5075700D03*
X12025000D03*
X12135000D03*
X12245000D03*
X12347100Y388900D03*
X12474100Y261900D03*
Y515900D03*
X12601100Y261900D03*
X12728100Y388900D03*
Y515900D03*
X12347100D03*
X12601100D03*
X12728100Y769900D03*
X12347100D03*
X12601100Y642900D03*
X12347100D03*
X12474100D03*
X12728100D03*
X12347100Y1137100D03*
X12474100Y1264100D03*
Y1518100D03*
X12601100Y1137100D03*
Y1264100D03*
X12474100Y1137100D03*
X12728100Y1518100D03*
X12601100D03*
X12347100D03*
X12360000Y2470000D03*
X12550000Y2480000D03*
X12496500Y2422400D03*
X12423500D03*
X12296500D03*
X12644500Y2710000D03*
X12640000Y2965000D03*
X12730000Y3135500D03*
X12515700Y3180000D03*
X12567700Y3335000D03*
X12469000Y3900700D03*
X12429000Y4429500D03*
X12355000Y4834500D03*
Y5075700D03*
X12982100Y515900D03*
X12855100Y388900D03*
X12982100Y261900D03*
X13140000Y560000D03*
X13215000D03*
X12855100Y515900D03*
Y642900D03*
X12982100Y769900D03*
X12855100Y1010100D03*
X12982100D03*
X12855100Y769900D03*
X12982100Y642900D03*
Y1137100D03*
Y1391100D03*
X12855100Y1518100D03*
X12982100Y1264100D03*
X12855100Y1137100D03*
X13200000Y1920000D03*
Y1850000D03*
Y1780000D03*
Y1710000D03*
Y2480000D03*
X13070000Y2120000D03*
X12814500Y2790000D03*
X12830000Y2640000D03*
X12998500Y2500000D03*
X13080500D03*
X12817500Y3017500D03*
X12820000Y3080000D03*
X13007500Y3203000D03*
X13072500Y3290000D03*
X13137500Y3203000D03*
X13219500Y3890000D03*
Y4250000D03*
X12940000Y5280000D03*
X13190000Y5090000D03*
X13090000Y5220000D03*
X13240000Y5030000D03*
X13140000Y5160000D03*
X12950000Y5635000D03*
Y5545000D03*
X12955000Y5425000D03*
X12960000Y6270000D03*
X13040000Y5870000D03*
X13120000Y5920000D03*
X13195000Y5875000D03*
X13660000Y110000D03*
Y185000D03*
Y260000D03*
Y560000D03*
X13290000D03*
X13365000D03*
X13440000D03*
X13515000D03*
X13660000Y635000D03*
X13290000D03*
X13365000D03*
X13440000D03*
X13515000D03*
X13575000Y2005000D03*
X13590000Y1700000D03*
X13370000Y1920000D03*
Y1850000D03*
Y1780000D03*
Y1710000D03*
X13700000Y1700000D03*
X13500000Y2350000D03*
X13340000Y2010000D03*
X13420000Y2680000D03*
X13255700Y2950000D03*
X13260000Y2860000D03*
X13255700Y2790000D03*
X13720000Y2640000D03*
X13420000Y3060000D03*
X13600000D03*
X13260000Y3035000D03*
X13330000Y3464300D03*
X13380000Y3720000D03*
X13510000Y3464300D03*
X13374500Y4040000D03*
Y4400000D03*
X13350000Y4130000D03*
X13480000Y5160000D03*
X13380000Y5030000D03*
X13530000Y5220000D03*
X13430000Y5090000D03*
X13548100Y5820000D03*
X13260000Y5920000D03*
X13332500Y6000000D03*
X13392500Y5940000D03*
X13470000Y5880000D03*
X13735000Y110000D03*
X13810000D03*
X13735000Y185000D03*
X13810000D03*
X13735000Y260000D03*
X13810000D03*
Y335000D03*
Y410000D03*
Y485000D03*
X13735000Y560000D03*
X13810000D03*
X13735000Y635000D03*
X13810000D03*
Y1820000D03*
Y2350000D03*
X13790000Y3040000D03*
X13780000Y5060000D03*
G54D21*
G01X10201900Y1137100D02*
X10240200Y1175400D01*
G02X10275500Y1190000I35311J-35400D01*
G01X10679300D01*
G03X10714600Y1204600I-11J50000D01*
G01X10745400Y1235400D01*
G03X10760000Y1270700I-35400J35311D01*
G01Y1589300D01*
G02X10774600Y1624600I50000J-11D01*
G01X11670000Y2520000D01*
G01X11760000D02*
X10924600Y1684600D01*
G03X10910000Y1649300I35400J-35311D01*
G01Y1150700D01*
G02X10895400Y1115400I-50000J11D01*
G01X10864600Y1084600D01*
G02X10829300Y1070000I-35311J35400D01*
G01X10162700D01*
G02X10127400Y1084600I11J50000D01*
G01X10074900Y1137100D01*
G54D12*
X1130000Y2516000D03*
Y2770000D03*
Y3024000D03*
X13730000Y3773000D03*
Y3519000D03*
Y4027000D03*
Y4281000D03*
G54D22*
G01X10380000Y4834500D02*
X10300700D01*
G02X10265400Y4849100I11J50000D01*
G01X9549100Y5565400D01*
G03X9513800Y5580000I-35311J-35400D01*
G01X960700D01*
G03X925400Y5565400I11J-50000D01*
G01X764600Y5404600D01*
G03X750000Y5369300I35400J-35311D01*
G01Y3550700D01*
G03X764600Y3515400I50000J11D01*
G01X955400Y3324600D01*
G02X970000Y3289300I-35400J-35311D01*
G01Y2400700D01*
G03X984600Y2365400I50000J11D01*
G01X1095400Y2254600D01*
G03X1130700Y2240000I35311J35400D01*
G01X1349300D01*
G02X1384600Y2225400I-11J-50000D01*
G01X1935400Y1674600D01*
G02X1950000Y1639300I-35400J-35311D01*
G01Y1350000D01*
G03X2000000Y1300000I50000J0D01*
G01X2389300D01*
G03X2424600Y1314600I-11J50000D01*
G01X2475400Y1365400D01*
G02X2510700Y1380000I35311J-35400D01*
G01X3669300D01*
G02X3704600Y1365400I-11J-50000D01*
G01X3735400Y1334600D01*
G03X3770700Y1320000I35311J35400D01*
G01X4239300D01*
G03X4274600Y1334600I-11J50000D01*
G01X4378400Y1438400D01*
G03X4393000Y1473700I-35400J35311D01*
G01Y1595000D01*
G01X11805000Y4834500D02*
X11714600Y4924900D01*
G02X11700000Y4960200I35400J35311D01*
G01Y5219300D01*
G03X11685400Y5254600I-50000J-11D01*
G01X11334600Y5605400D01*
G03X11299300Y5620000I-35311J-35400D01*
G01X940700D01*
G03X905400Y5605400I11J-50000D01*
G01X724600Y5424600D01*
G03X710000Y5389300I35400J-35311D01*
G01Y3520700D01*
G03X724600Y3485400I50000J11D01*
G01X905400Y3304600D01*
G02X920000Y3269300I-35400J-35311D01*
G01Y2350700D01*
G03X934600Y2315400I50000J11D01*
G01X1055400Y2194600D01*
G03X1090700Y2180000I35311J35400D01*
G01X1349300D01*
G02X1384600Y2165400I-11J-50000D01*
G01X1885400Y1664600D01*
G02X1900000Y1629300I-35400J-35311D01*
G01Y1350700D01*
G03X1914600Y1315400I50000J11D01*
G01X1955400Y1274600D01*
G03X1990700Y1260000I35311J35400D01*
G01X2419300D01*
G03X2454600Y1274600I-11J50000D01*
G01X2495400Y1315400D01*
G02X2530700Y1330000I35311J-35400D01*
G01X3659300D01*
G02X3694600Y1315400I-11J-50000D01*
G01X3715400Y1294600D01*
G03X3750700Y1280000I35311J35400D01*
G01X3959300D01*
G02X3994600Y1265400I-11J-50000D01*
G01X4065400Y1194600D01*
G03X4100700Y1180000I35311J35400D01*
G01X4179300D01*
G03X4214600Y1194600I-11J50000D01*
G01X4451400Y1431400D01*
G03X4466000Y1466700I-35400J35311D01*
G01Y1595000D01*
G01X8955000Y4834500D02*
X8875700D01*
G02X8840400Y4849100I11J50000D01*
G01X8164100Y5525400D01*
G03X8128800Y5540000I-35311J-35400D01*
G01X1360700D01*
G03X1325400Y5525400I11J-50000D01*
G01X1084600Y5284600D01*
G03X1070000Y5249300I35400J-35311D01*
G01Y4890700D01*
G02X1055400Y4855400I-50000J11D01*
G01X1034600Y4834600D01*
G03X1020000Y4799300I35400J-35311D01*
G01Y4650700D01*
G03X1034600Y4615400I50000J11D01*
G01X1065400Y4584600D01*
G02X1080000Y4549300I-35400J-35311D01*
G01Y4460700D01*
G02X1065400Y4425400I-50000J11D01*
G01X834600Y4194600D01*
G03X820000Y4159300I35400J-35311D01*
G01Y3560700D01*
G03X834600Y3525400I50000J11D01*
G01X1365400Y2994600D01*
G02X1380000Y2959300I-35400J-35311D01*
G01Y2310700D01*
G03X1394600Y2275400I50000J11D01*
G01X1905400Y1764600D01*
G03X1940700Y1750000I35311J35400D01*
G01X3369300D01*
G02X3404600Y1735400I-11J-50000D01*
G01X3765400Y1374600D01*
G03X3800700Y1360000I35311J35400D01*
G01X4189300D01*
G03X4224600Y1374600I-11J50000D01*
G01X4305400Y1455400D01*
G03X4320000Y1490700I-35400J35311D01*
G01Y1595000D01*
G01X4174000D02*
Y1530700D01*
G02X4159400Y1495400I-50000J11D01*
G01X4118600Y1454600D01*
G02X4083300Y1440000I-35311J35400D01*
G01X3850700D01*
G02X3815400Y1454600I11J50000D01*
G01X3454600Y1815400D01*
G03X3419300Y1830000I-35311J-35400D01*
G01X1990700D01*
G02X1955400Y1844600I11J50000D01*
G01X1484600Y2315400D01*
G02X1470000Y2350700I35400J35311D01*
G01Y3009300D01*
G03X1455400Y3044600I-50000J-11D01*
G01X1184600Y3315400D01*
G02X1170000Y3350700I35400J35311D01*
G01Y3989300D01*
G03X1155400Y4024600I-50000J-11D01*
G01X1054600Y4125400D01*
G02X1040000Y4160700I35400J35311D01*
G01Y4239300D01*
G02X1054600Y4274600I50000J-11D01*
G01X1185400Y4405400D01*
G03X1200000Y4440700I-35400J35311D01*
G01Y5179300D01*
G02X1214600Y5214600I50000J-11D01*
G01X1425400Y5425400D01*
G02X1460700Y5440000I35311J-35400D01*
G01X5399300D01*
G02X5434600Y5425400I-11J-50000D01*
G01X5515400Y5344600D01*
G02X5530000Y5309300I-35400J-35311D01*
G01Y4937000D01*
G03X5547000Y4920000I17000J0D01*
G01X5549500D01*
X5635000Y4834500D01*
G01X7530000D02*
X7036200D01*
G02X7000900Y4849100I11J50000D01*
G01X6374600Y5475400D01*
G03X6339300Y5490000I-35311J-35400D01*
G01X1370700D01*
G03X1335400Y5475400I11J-50000D01*
G01X1124600Y5264600D01*
G03X1110000Y5229300I35400J-35311D01*
G01Y4860700D01*
G02X1095400Y4825400I-50000J11D01*
G01X1074600Y4804600D01*
G03X1060000Y4769300I35400J-35311D01*
G01Y4680700D01*
G03X1074600Y4645400I50000J11D01*
G01X1105400Y4614600D01*
G02X1120000Y4579300I-35400J-35311D01*
G01Y4430700D01*
G02X1105400Y4395400I-50000J11D01*
G01X994600Y4284600D01*
G03X980000Y4249300I35400J-35311D01*
G01Y4140700D01*
G03X994600Y4105400I50000J11D01*
G01X1115400Y3984600D01*
G02X1130000Y3949300I-35400J-35311D01*
G01Y3320700D01*
G03X1144600Y3285400I50000J11D01*
G01X1415400Y3014600D01*
G02X1430000Y2979300I-35400J-35311D01*
G01Y2320700D01*
G03X1444600Y2285400I50000J11D01*
G01X1925400Y1804600D01*
G03X1960700Y1790000I35311J35400D01*
G01X3399300D01*
G02X3434600Y1775400I-11J-50000D01*
G01X3795400Y1414600D01*
G03X3830700Y1400000I35311J35400D01*
G01X4139300D01*
G03X4174600Y1414600I-11J50000D01*
G01X4232400Y1472400D01*
G03X4247000Y1507700I-35400J35311D01*
G01Y1595000D01*
G01X4028000D02*
Y1537000D01*
G02X4011000Y1520000I-17000J0D01*
G01X3930700D01*
G02X3895400Y1534600I11J50000D01*
G01X3534600Y1895400D01*
G03X3499300Y1910000I-35311J-35400D01*
G01X2040700D01*
G02X2005400Y1924600I11J50000D01*
G01X1564600Y2365400D01*
G02X1550000Y2400700I35400J35311D01*
G01Y3049300D01*
G03X1535400Y3084600I-50000J-11D01*
G01X1294600Y3325400D01*
G02X1280000Y3360700I35400J35311D01*
G01Y3549300D01*
G02X1294600Y3584600I50000J-11D01*
G01X1485400Y3775400D01*
G03X1500000Y3810700I-35400J35311D01*
G01Y4265900D01*
G03X1490000Y4290000I-34000J17D01*
G02X1480000Y4314100I24000J24083D01*
G01Y4429300D01*
G03X1465400Y4464600I-50000J-11D01*
G01X1294600Y4635400D01*
G02X1280000Y4670700I35400J35311D01*
G01Y5069300D01*
G02X1294600Y5104600I50000J-11D01*
G01X1385400Y5195400D01*
G02X1420700Y5210000I35311J-35400D01*
G01X2489300D01*
G02X2524600Y5195400I-11J-50000D01*
G01X2770400Y4949600D01*
G02X2785000Y4914300I-35400J-35311D01*
G01Y4834500D01*
G01X3955000Y1595000D02*
X3925700D01*
G02X3890400Y1609600I11J50000D01*
G01X3564600Y1935400D01*
G03X3529300Y1950000I-35311J-35400D01*
G01X2070700D01*
G02X2035400Y1964600I11J50000D01*
G01X1604600Y2395400D01*
G02X1590000Y2430700I35400J35311D01*
G01Y3069300D01*
G03X1575400Y3104600I-50000J-11D01*
G01X1334600Y3345400D01*
G02X1320000Y3380700I35400J35311D01*
G01Y3519300D01*
G02X1334600Y3554600I50000J-11D01*
G01X1605400Y3825400D01*
G03X1620000Y3860700I-35400J35311D01*
G01Y4359300D01*
G03X1605400Y4394600I-50000J-11D01*
G01X1374600Y4625400D01*
G02X1360000Y4660700I35400J35311D01*
G01Y4834500D01*
G01X4101000Y1595000D02*
Y1520000D01*
G02X4061000Y1480000I-40000J0D01*
G01X3880700D01*
G02X3845400Y1494600I11J50000D01*
G01X3484600Y1855400D01*
G03X3449300Y1870000I-35311J-35400D01*
G01X2020700D01*
G02X1985400Y1884600I11J50000D01*
G01X1524600Y2345400D01*
G02X1510000Y2380700I35400J35311D01*
G01Y3029300D01*
G03X1495400Y3064600I-50000J-11D01*
G01X1244600Y3315400D01*
G02X1230000Y3350700I35400J35311D01*
G01Y3569300D01*
G02X1244600Y3604600I50000J-11D01*
G01X1445400Y3805400D01*
G03X1460000Y3840700I-35400J35311D01*
G01Y4229300D01*
G03X1445400Y4264600I-50000J-11D01*
G01X1444600Y4265400D01*
G02X1430000Y4300700I35400J35311D01*
G01Y4409300D01*
G03X1415400Y4444600I-50000J-11D01*
G01X1254600Y4605400D01*
G02X1240000Y4640700I35400J35311D01*
G01Y5159300D01*
G02X1254600Y5194600I50000J-11D01*
G01X1435400Y5375400D01*
G02X1470700Y5390000I35311J-35400D01*
G01X3439300D01*
G02X3474600Y5375400I-11J-50000D01*
G01X4000900Y4849100D01*
G03X4036200Y4834500I35311J35400D01*
G01X4210000D01*
G01X3335000D02*
X3205100Y4704600D01*
G02X3169800Y4690000I-35311J35400D01*
G01X2630700D01*
G03X2595400Y4675400I11J-50000D01*
G01X2254600Y4334600D01*
G03X2240000Y4299300I35400J-35311D01*
G01Y4050700D01*
G02X2225400Y4015400I-50000J11D01*
G01X1964600Y3754600D01*
G03X1950000Y3719300I35400J-35311D01*
G01Y2640700D01*
G03X1964600Y2605400I50000J11D01*
G01X2525400Y2044600D01*
G03X2560700Y2030000I35311J35400D01*
G01X4349300D01*
G02X4384600Y2015400I-11J-50000D01*
G01X4695400Y1704600D01*
G03X4730700Y1690000I35311J35400D01*
G01X4982200D01*
G02X5028000Y1644200I0J-45800D01*
G01Y1595000D01*
G01X4955000D02*
X4765700D01*
G02X4730400Y1609600I11J50000D01*
G01X4364600Y1975400D01*
G03X4329300Y1990000I-35311J-35400D01*
G01X2540700D01*
G02X2505400Y2004600I11J50000D01*
G01X1924600Y2585400D01*
G02X1910000Y2620700I35400J35311D01*
G01Y4834500D01*
G01X4760000D02*
X4710100Y4784600D01*
G02X4674800Y4770000I-35311J35400D01*
G01X4150600D01*
G03X4115300Y4755400I11J-50000D01*
G01X4024500Y4664600D01*
G02X3989200Y4650000I-35311J35400D01*
G01X2640700D01*
G03X2605400Y4635400I11J-50000D01*
G01X2294600Y4324600D01*
G03X2280000Y4289300I35400J-35311D01*
G01Y4040700D01*
G02X2265400Y4005400I-50000J11D01*
G01X2004600Y3744600D01*
G03X1990000Y3709300I35400J-35311D01*
G01Y2660700D01*
G03X2004600Y2625400I50000J11D01*
G01X2545400Y2084600D01*
G03X2580700Y2070000I35311J35400D01*
G01X4369300D01*
G02X4404600Y2055400I-11J-50000D01*
G01X4715400Y1744600D01*
G03X4750700Y1730000I35311J35400D01*
G01X5019300D01*
G02X5054600Y1715400I-11J-50000D01*
G01X5086400Y1683600D01*
G02X5101000Y1648300I-35400J-35311D01*
G01Y1595000D01*
G01X8080000Y4834500D02*
X7890100Y4644600D01*
G02X7854800Y4630000I-35311J35400D01*
G01X7300700D01*
G02X7265400Y4644600I11J50000D01*
G01X7204600Y4705400D01*
G03X7169300Y4720000I-35311J-35400D01*
G01X6870700D01*
G03X6835400Y4705400I11J-50000D01*
G01X6774600Y4644600D01*
G02X6739300Y4630000I-35311J35400D01*
G01X5400700D01*
G02X5365400Y4644600I11J50000D01*
G01X5324600Y4685400D01*
G03X5289300Y4700000I-35311J-35400D01*
G01X4810700D01*
G03X4775400Y4685400I11J-50000D01*
G01X4644600Y4554600D01*
G02X4609300Y4540000I-35311J35400D01*
G01X2640700D01*
G03X2605400Y4525400I11J-50000D01*
G01X2414600Y4334600D01*
G03X2400000Y4299300I35400J-35311D01*
G01Y4040700D01*
G02X2385400Y4005400I-50000J11D01*
G01X2234600Y3854600D01*
G03X2220000Y3819300I35400J-35311D01*
G01Y3730700D01*
G03X2234600Y3695400I50000J11D01*
G01X2305400Y3624600D01*
G02X2320000Y3589300I-35400J-35311D01*
G01Y3450700D01*
G02X2305400Y3415400I-50000J11D01*
G01X2254600Y3364600D01*
G03X2240000Y3329300I35400J-35311D01*
G01Y3160700D01*
G03X2254600Y3125400I50000J11D01*
G01X2315400Y3064600D01*
G02X2330000Y3029300I-35400J-35311D01*
G01Y2440700D01*
G03X2344600Y2405400I50000J11D01*
G01X2585400Y2164600D01*
G03X2620700Y2150000I35311J35400D01*
G01X4409300D01*
G02X4444600Y2135400I-11J-50000D01*
G01X4755400Y1824600D01*
G03X4790700Y1810000I35311J35400D01*
G01X5089300D01*
G02X5124600Y1795400I-11J-50000D01*
G01X5232400Y1687600D01*
G02X5247000Y1652300I-35400J-35311D01*
G01Y1595000D01*
G01X9505000Y4834500D02*
X9265100Y4594600D01*
G02X9229800Y4580000I-35311J35400D01*
G01X7280700D01*
G02X7245400Y4594600I11J50000D01*
G01X7204600Y4635400D01*
G03X7169300Y4650000I-35311J-35400D01*
G01X6880700D01*
G03X6845400Y4635400I11J-50000D01*
G01X6804600Y4594600D01*
G02X6769300Y4580000I-35311J35400D01*
G01X5360700D01*
G02X5325400Y4594600I11J50000D01*
G01X5294600Y4625400D01*
G03X5259300Y4640000I-35311J-35400D01*
G01X4820700D01*
G03X4785400Y4625400I11J-50000D01*
G01X4664600Y4504600D01*
G02X4629300Y4490000I-35311J35400D01*
G01X2670700D01*
G03X2635400Y4475400I11J-50000D01*
G01X2494600Y4334600D01*
G03X2480000Y4299300I35400J-35311D01*
G01Y2350700D01*
G03X2494600Y2315400I50000J11D01*
G01X2605400Y2204600D01*
G03X2640700Y2190000I35311J35400D01*
G01X4429300D01*
G02X4464600Y2175400I-11J-50000D01*
G01X4775400Y1864600D01*
G03X4810700Y1850000I35311J35400D01*
G01X5109300D01*
G02X5144600Y1835400I-11J-50000D01*
G01X5305400Y1674600D01*
G02X5320000Y1639300I-35400J-35311D01*
G01Y1595000D01*
G01X6185000Y4834500D02*
X6145100Y4794600D01*
G02X6109800Y4780000I-35311J35400D01*
G01X4830700D01*
G03X4795400Y4765400I11J-50000D01*
G01X4654600Y4624600D01*
G02X4619300Y4610000I-35311J35400D01*
G01X2650700D01*
G03X2615400Y4595400I11J-50000D01*
G01X2334600Y4314600D01*
G03X2320000Y4279300I35400J-35311D01*
G01Y4020700D01*
G02X2305400Y3985400I-50000J11D01*
G01X2194600Y3874600D01*
G03X2180000Y3839300I35400J-35311D01*
G01Y3710700D01*
G03X2194600Y3675400I50000J11D01*
G01X2265400Y3604600D01*
G02X2280000Y3569300I-35400J-35311D01*
G01Y3470700D01*
G02X2265400Y3435400I-50000J11D01*
G01X2214600Y3384600D01*
G03X2200000Y3349300I35400J-35311D01*
G01Y2510700D01*
G03X2214600Y2475400I50000J11D01*
G01X2565400Y2124600D01*
G03X2600700Y2110000I35311J35400D01*
G01X4389300D01*
G02X4424600Y2095400I-11J-50000D01*
G01X4735400Y1784600D01*
G03X4770700Y1770000I35311J35400D01*
G01X5049300D01*
G02X5084600Y1755400I-11J-50000D01*
G01X5159400Y1680600D01*
G02X5174000Y1645300I-35400J-35311D01*
G01Y1595000D01*
G01X5393000D02*
Y1636300D01*
G03X5378400Y1671600I-50000J-11D01*
G01X5174600Y1875400D01*
G03X5139300Y1890000I-35311J-35400D01*
G01X4830700D01*
G02X4795400Y1904600I11J50000D01*
G01X4484600Y2215400D01*
G03X4449300Y2230000I-35311J-35400D01*
G01X2800700D01*
G02X2765400Y2244600I11J50000D01*
G01X2674600Y2335400D01*
G02X2660000Y2370700I35400J35311D01*
G01Y2899300D01*
G03X2645400Y2934600I-50000J-11D01*
G01X2584600Y2995400D01*
G02X2570000Y3030700I35400J35311D01*
G01Y3819300D01*
G02X2584600Y3854600I50000J-11D01*
G01X2655400Y3925400D01*
G02X2690700Y3940000I35311J-35400D01*
G01X2699300D01*
G03X2734600Y3954600I-11J50000D01*
G01X3065400Y4285400D01*
G02X3100700Y4300000I35311J-35400D01*
G01X4169300D01*
G03X4204600Y4314600I-11J50000D01*
G01X4255400Y4365400D01*
G02X4290700Y4380000I35311J-35400D01*
G01X4500000D01*
X4510000Y4370000D01*
X5379300D01*
G03X5414600Y4384600I-11J50000D01*
G01X5545400Y4515400D01*
G02X5580700Y4530000I35311J-35400D01*
G01X6839300D01*
G02X6874600Y4515400I-11J-50000D01*
G01X7015400Y4374600D01*
G03X7050700Y4360000I35311J35400D01*
G01X7149300D01*
G03X7184600Y4374600I-11J50000D01*
G01X7285400Y4475400D01*
G02X7320700Y4490000I35311J-35400D01*
G01X9429300D01*
G03X9464600Y4504600I-11J50000D01*
G01X9515400Y4555400D01*
G02X9550700Y4570000I35311J-35400D01*
G01X10644800D01*
G03X10680100Y4584600I-11J50000D01*
G01X10930000Y4834500D01*
G01X9185900Y515900D02*
X9134600Y464600D01*
G03X9120000Y429300I35400J-35311D01*
G01Y350000D01*
G02X9100000Y330000I-20000J0D01*
G01X7900700D01*
G02X7865400Y344600I11J50000D01*
G01X7594600Y615400D01*
G02X7580000Y650700I35400J35311D01*
G01Y989300D01*
G02X7594600Y1024600I50000J-11D01*
G01X7675400Y1105400D01*
G03X7690000Y1140700I-35400J35311D01*
G01Y1389300D01*
G03X7675400Y1424600I-50000J-11D01*
G01X7004600Y2095400D01*
G03X6969300Y2110000I-35311J-35400D01*
G01X6000700D01*
G02X5965400Y2124600I11J50000D01*
G01X5634600Y2455400D01*
G03X5599300Y2470000I-35311J-35400D01*
G01X3850700D01*
G02X3815400Y2484600I11J50000D01*
G01X3784600Y2515400D01*
G03X3749300Y2530000I-35311J-35400D01*
G01X3110700D01*
G03X3075400Y2515400I11J-50000D01*
G01X3009600Y2449600D01*
G02X2974300Y2435000I-35311J35400D01*
G01X2825000D01*
G02X2790000Y2470000I0J35000D01*
G01Y2579300D01*
G02X2804600Y2614600I50000J-11D01*
G01X2850400Y2660400D01*
G03X2865000Y2695700I-35400J35311D01*
G01Y2805000D01*
G01X5466000Y1595000D02*
Y1633300D01*
G03X5451400Y1668600I-50000J-11D01*
G01X5204600Y1915400D01*
G03X5169300Y1930000I-35311J-35400D01*
G01X4850700D01*
G02X4815400Y1944600I11J50000D01*
G01X4494600Y2265400D01*
G03X4459300Y2280000I-35311J-35400D01*
G01X2840700D01*
G02X2805400Y2294600I11J50000D01*
G01X2754600Y2345400D01*
G02X2740000Y2380700I35400J35311D01*
G01Y2699300D01*
G02X2754600Y2734600I50000J-11D01*
G01X2785400Y2765400D01*
G03X2800000Y2800700I-35400J35311D01*
G01Y3049300D01*
G03X2785400Y3084600I-50000J-11D01*
G01X2734600Y3135400D01*
G02X2720000Y3170700I35400J35311D01*
G01Y3509300D01*
G02X2734600Y3544600I50000J-11D01*
G01X2775400Y3585400D01*
G03X2790000Y3620700I-35400J35311D01*
G01Y3899300D01*
G02X2804600Y3934600I50000J-11D01*
G01X2875400Y4005400D01*
G02X2910700Y4020000I35311J-35400D01*
G01X4239300D01*
G03X4274600Y4034600I-11J50000D01*
G01X4525400Y4285400D01*
G02X4560700Y4300000I35311J-35400D01*
G01X5599300D01*
G03X5634600Y4314600I-11J50000D01*
G01X5675400Y4355400D01*
G02X5710700Y4370000I35311J-35400D01*
G01X6789300D01*
G02X6824600Y4355400I-11J-50000D01*
G01X6885400Y4294600D01*
G03X6920700Y4280000I35311J35400D01*
G01X7169300D01*
G03X7204600Y4294600I-11J50000D01*
G01X7265400Y4355400D01*
G02X7300700Y4370000I35311J-35400D01*
G01X7789300D01*
G02X7824600Y4355400I-11J-50000D01*
G01X7825400Y4354600D01*
G03X7860700Y4340000I35311J35400D01*
G01X8939300D01*
G03X8974600Y4354600I-11J50000D01*
G01X8995400Y4375400D01*
G02X9030700Y4390000I35311J-35400D01*
G01X9209300D01*
G02X9244600Y4375400I-11J-50000D01*
G01X9305400Y4314600D01*
G03X9340700Y4300000I35311J35400D01*
G01X9549300D01*
G03X9584600Y4314600I-11J50000D01*
G01X9765400Y4495400D01*
G02X9800700Y4510000I35311J-35400D01*
G01X10659300D01*
G03X10694600Y4524600I-11J50000D01*
G01X10805400Y4635400D01*
G02X10840700Y4650000I35311J-35400D01*
G01X12173000D01*
G03X12190000Y4667000I0J17000D01*
G01Y4669500D01*
X12355000Y4834500D01*
G01X2865000Y2585000D02*
X3824300D01*
G02X3859600Y2570400I-11J-50000D01*
G01X3905400Y2524600D01*
G03X3940700Y2510000I35311J35400D01*
G01X5659300D01*
G02X5694600Y2495400I-11J-50000D01*
G01X6025400Y2164600D01*
G03X6060700Y2150000I35311J35400D01*
G01X7019300D01*
G02X7054600Y2135400I-11J-50000D01*
G01X7735400Y1454600D01*
G02X7750000Y1419300I-35400J-35311D01*
G01Y1110700D01*
G02X7735400Y1075400I-50000J11D01*
G01X7644600Y984600D01*
G03X7630000Y949300I35400J-35311D01*
G01Y660700D01*
G03X7644600Y625400I50000J11D01*
G01X7805400Y464600D01*
G03X7840700Y450000I35311J35400D01*
G01X8972300D01*
G03X9007600Y464600I-11J50000D01*
G01X9058900Y515900D01*
G01X9820900Y1137100D02*
X9764600Y1193400D01*
G02X9750000Y1228700I35400J35311D01*
G01Y1729300D01*
G02X9764600Y1764600I50000J-11D01*
G01X9805400Y1805400D01*
G03X9820000Y1840700I-35400J35311D01*
G01Y2549300D01*
G03X9805400Y2584600I-50000J-11D01*
G01X9264600Y3125400D01*
G03X9229300Y3140000I-35311J-35400D01*
G01X9090700D01*
G03X9055400Y3125400I11J-50000D01*
G01X8944600Y3014600D01*
G02X8909300Y3000000I-35311J35400D01*
G01X8460700D01*
G02X8425400Y3014600I11J50000D01*
G01X8334600Y3105400D01*
G03X8299300Y3120000I-35311J-35400D01*
G01X6100700D01*
G03X6065400Y3105400I11J-50000D01*
G01X5789600Y2829600D01*
G02X5754300Y2815000I-35311J35400D01*
G01X4505000D01*
G01X9693900Y1137100D02*
X9644600Y1186400D01*
G02X9630000Y1221700I35400J35311D01*
G01Y1465900D01*
G03X9620000Y1490000I-34000J17D01*
G02X9610000Y1514100I24000J24083D01*
G01Y1699300D01*
G02X9624600Y1734600I50000J-11D01*
G01X9735400Y1845400D01*
G03X9750000Y1880700I-35400J35311D01*
G01Y2549300D01*
G03X9735400Y2584600I-50000J-11D01*
G01X9244600Y3075400D01*
G03X9209300Y3090000I-35311J-35400D01*
G01X9100700D01*
G03X9065400Y3075400I11J-50000D01*
G01X8874600Y2884600D01*
G02X8839300Y2870000I-35311J35400D01*
G01X8510700D01*
G02X8475400Y2884600I11J50000D01*
G01X8294600Y3065400D01*
G03X8259300Y3080000I-35311J-35400D01*
G01X6170700D01*
G03X6135400Y3065400I11J-50000D01*
G01X5654600Y2584600D01*
G02X5619300Y2570000I-35311J35400D01*
G01X4505000D01*
G01X7840000Y2740000D02*
X7784600Y2795400D01*
G03X7749300Y2810000I-35311J-35400D01*
G01X7250700D01*
G02X7215400Y2824600I11J50000D01*
G01X7134600Y2905400D01*
G03X7099300Y2920000I-35311J-35400D01*
G01X6310700D01*
G03X6275400Y2905400I11J-50000D01*
G01X6204600Y2834600D01*
G03X6190000Y2799300I35400J-35311D01*
G01Y2650700D01*
G03X6204600Y2615400I50000J11D01*
G01X6315400Y2504600D01*
G03X6350700Y2490000I35311J35400D01*
G01X6759300D01*
G02X6794600Y2475400I-11J-50000D01*
G01X7785400Y1484600D01*
G02X7800000Y1449300I-35400J-35311D01*
G01Y1110800D01*
G03X7814600Y1075500I50000J11D01*
G01X8295500Y594600D01*
G03X8330800Y580000I35311J35400D01*
G01X9189400D01*
G02X9224700Y565400I-11J-50000D01*
G01X9625500Y164600D01*
G03X9660800Y150000I35311J35400D01*
G01X11229300D01*
G03X11264600Y164600I-11J50000D01*
G01X11355400Y255400D01*
G03X11370000Y290700I-35400J35311D01*
G01Y530000D01*
G02X11410000Y570000I40000J0D01*
G01X12129300D01*
G03X12164600Y584600I-11J50000D01*
G01X12205500Y625500D01*
G03X12220100Y660800I-35400J35311D01*
G01Y1137100D01*
G01X7840000Y2640000D02*
X7764600Y2564600D01*
G02X7729300Y2550000I-35311J35400D01*
G01X7369200D01*
G02X7333900Y2564600I11J50000D01*
G01X7093100Y2805400D01*
G03X7057800Y2820000I-35311J-35400D01*
G01X6331500D01*
G03X6290000Y2778500I0J-41500D01*
G01Y2630700D01*
G03X6304600Y2595400I50000J11D01*
G01X6355400Y2544600D01*
G03X6390700Y2530000I35311J35400D01*
G01X6799300D01*
G02X6834600Y2515400I-11J-50000D01*
G01X7825400Y1524600D01*
G02X7840000Y1489300I-35400J-35311D01*
G01Y1150800D01*
G03X7854600Y1115500I50000J11D01*
G01X8255500Y714600D01*
G03X8290800Y700000I35311J35400D01*
G01X9129300D01*
G02X9164600Y685400I-11J-50000D01*
G01X9645400Y204600D01*
G03X9680700Y190000I35311J35400D01*
G01X11159400D01*
G03X11194700Y204600I-11J50000D01*
G01X11255400Y265300D01*
G03X11270000Y300600I-35400J35311D01*
G01Y609300D01*
G02X11284600Y644600I50000J-11D01*
G01X11325400Y685400D01*
G02X11360700Y700000I35311J-35400D01*
G01X11969300D01*
G03X12004600Y714600I-11J50000D01*
G01X12026000Y736000D01*
G03X12040600Y771300I-35400J35311D01*
G01Y1063900D01*
G02X12055200Y1099200I50000J-11D01*
G01X12093100Y1137100D01*
G01X6510000Y2750000D02*
X6809300D01*
G02X6844600Y2735400I-11J-50000D01*
G01X7225400Y2354600D01*
G03X7260700Y2340000I35311J35400D01*
G01X8539300D01*
G02X8574600Y2325400I-11J-50000D01*
G01X9105400Y1794600D01*
G02X9120000Y1759300I-35400J-35311D01*
G01Y1217000D01*
G03X9137000Y1200000I17000J0D01*
G01X9199300D01*
G02X9234600Y1185400I-11J-50000D01*
G01X9475400Y944600D01*
G02X9490000Y909300I-35400J-35311D01*
G01Y857100D01*
G03X9500000Y833000I34000J-17D01*
G02X9510000Y808900I-24000J-24083D01*
G01Y600000D01*
G03X9530000Y580000I20000J0D01*
G01X9559900D01*
G02X9595200Y565400I-11J-50000D01*
G01X9630100Y530500D01*
G03X9665400Y515900I35311J35400D01*
G01X9693900D01*
G01X6510000Y2670000D02*
X6749300D01*
G02X6784600Y2655400I-11J-50000D01*
G01X7135400Y2304600D01*
G03X7170700Y2290000I35311J35400D01*
G01X8529300D01*
G02X8564600Y2275400I-11J-50000D01*
G01X8985400Y1854600D01*
G02X9000000Y1819300I-35400J-35311D01*
G01Y980700D01*
G03X9014600Y945400I50000J11D01*
G01X9055400Y904600D01*
G03X9090700Y890000I35311J35400D01*
G01X9340000D01*
G02X9380000Y850000I0J-40000D01*
G01Y620000D01*
G03X9420000Y580000I40000J0D01*
G01X9432900D01*
G02X9468200Y565400I-11J-50000D01*
G01X9503100Y530500D01*
G03X9538400Y515900I35311J35400D01*
G01X9566900D01*
G01X7240000Y357500D02*
X7472900Y124600D01*
G03X7508200Y110000I35311J35400D01*
G01X11519300D01*
G03X11554600Y124600I-11J50000D01*
G01X11625400Y195400D01*
G03X11640000Y230700I-35400J35311D01*
G01Y423100D01*
G02X11654600Y458400I50000J-11D01*
G01X11712100Y515900D01*
G01X7320000Y390000D02*
X7299800Y410200D01*
G03X7264500Y424800I-35311J-35400D01*
G01X7235500D01*
G03X7200200Y410200I11J-50000D01*
G01X7154600Y364600D01*
G03X7140000Y329300I35400J-35311D01*
G01Y150700D01*
G03X7154600Y115400I50000J11D01*
G01X7185400Y84600D01*
G03X7220700Y70000I35311J35400D01*
G01X11699300D01*
G03X11734600Y84600I-11J50000D01*
G01X11765400Y115400D01*
G03X11780000Y150700I-35400J35311D01*
G01Y436100D01*
G02X11794600Y471400I50000J-11D01*
G01X11839100Y515900D01*
G01X8860000Y2490000D02*
X8905400Y2535400D01*
G02X8940700Y2550000I35311J-35400D01*
G01X9009300D01*
G02X9044600Y2535400I-11J-50000D01*
G01X9265400Y2314600D01*
G02X9280000Y2279300I-35400J-35311D01*
G01Y1720700D01*
G03X9294600Y1685400I50000J11D01*
G01X9355400Y1624600D01*
G02X9370000Y1589300I-35400J-35311D01*
G01Y1260700D01*
G03X9384600Y1225400I50000J11D01*
G01X9525400Y1084600D01*
G03X9560700Y1070000I35311J35400D01*
G01X9733000D01*
G02X9760000Y1043000I0J-27000D01*
G01Y1000700D01*
G03X9774600Y965400I50000J11D01*
G01X9835400Y904600D01*
G03X9870700Y890000I35311J35400D01*
G01X9889300D01*
G02X9924600Y875400I-11J-50000D01*
G01X10105400Y694600D01*
G02X10120000Y659300I-35400J-35311D01*
G01Y618500D01*
G03X10134600Y583200I50000J11D01*
G01X10201900Y515900D01*
G01X9010000Y2490000D02*
X9175400Y2324600D01*
G02X9190000Y2289300I-35400J-35311D01*
G01Y1390700D01*
G03X9204600Y1355400I50000J11D01*
G01X9295400Y1264600D01*
G02X9310000Y1229300I-35400J-35311D01*
G01Y1200700D01*
G03X9324600Y1165400I50000J11D01*
G01X9525400Y964600D01*
G03X9560700Y950000I35311J35400D01*
G01X9669300D01*
G02X9704600Y935400I-11J-50000D01*
G01X10060300Y579700D01*
G02X10074900Y544400I-35400J-35311D01*
G01Y515900D01*
G01X10200000Y2480000D02*
Y1780700D01*
G02X10185400Y1745400I-50000J11D01*
G01X9894600Y1454600D01*
G03X9880000Y1419300I35400J-35311D01*
G01Y1010700D01*
G03X9894600Y975400I50000J11D01*
G01X9945400Y924600D01*
G03X9980700Y910000I35311J35400D01*
G01X10009300D01*
G02X10044600Y895400I-11J-50000D01*
G01X10255400Y684600D01*
G02X10270000Y649300I-35400J-35311D01*
G01Y500000D01*
G02X10220000Y450000I-50000J0D01*
G01X10040000D01*
G02X10010000Y480000I0J30000D01*
G01Y539300D01*
G03X9995400Y574600I-50000J-11D01*
G01X9874600Y695400D01*
G03X9839300Y710000I-35311J-35400D01*
G01X9781700D01*
G03X9746400Y695400I11J-50000D01*
G01X9693900Y642900D01*
G01X10310000Y2480000D02*
Y1480700D01*
G02X10295400Y1445400I-50000J11D01*
G01X10024600Y1174600D01*
G03X10010000Y1139300I35400J-35311D01*
G01Y1010700D01*
G03X10024600Y975400I50000J11D01*
G01X10375400Y624600D01*
G02X10390000Y589300I-35400J-35311D01*
G01Y490700D01*
G02X10375400Y455400I-50000J11D01*
G01X10254600Y334600D01*
G02X10219300Y320000I-35311J35400D01*
G01X10010700D01*
G02X9975400Y334600I11J50000D01*
G01X9894600Y415400D01*
G02X9880000Y450700I35400J35311D01*
G01Y540000D01*
G03X9840000Y580000I-40000J0D01*
G01X9699700D01*
G02X9664400Y594600I11J50000D01*
G01X9630700Y628300D01*
G03X9595400Y642900I-35311J-35400D01*
G01X9566900D01*
G01X13090000Y5220000D02*
X13064600Y5194600D01*
G03X13050000Y5159300I35400J-35311D01*
G01Y4810700D01*
G02X13035400Y4775400I-50000J11D01*
G01X12794600Y4534600D01*
G03X12780000Y4499300I35400J-35311D01*
G01Y4140700D01*
G02X12765400Y4105400I-50000J11D01*
G01X12384600Y3724600D01*
G03X12370000Y3689300I35400J-35311D01*
G01Y2900700D01*
G02X12355400Y2865400I-50000J11D01*
G01X11994600Y2504600D01*
G03X11980000Y2469300I35400J-35311D01*
G01Y1960700D01*
G02X11965400Y1925400I-50000J11D01*
G01X11394600Y1354600D01*
G03X11380000Y1319300I35400J-35311D01*
G01Y1108900D01*
G03X11394600Y1073600I50000J11D01*
G01X11458100Y1010100D01*
G01X11585100D02*
X11635400Y1060400D01*
G03X11650000Y1095700I-35400J35311D01*
G01Y1170000D01*
G02X11690000Y1210000I40000J0D01*
G01X11759300D01*
G03X11794600Y1224600I-11J50000D01*
G01X11885400Y1315400D01*
G02X11920700Y1330000I35311J-35400D01*
G01X12260000D01*
G03X12290000Y1360000I0J30000D01*
G01Y1549300D01*
G02X12304600Y1584600I50000J-11D01*
G01X12805400Y2085400D01*
G03X12820000Y2120700I-35400J35311D01*
G01Y2459400D01*
G02X12834600Y2494700I50000J-11D01*
G01X12955300Y2615400D01*
G02X12990600Y2630000I35311J-35400D01*
G01X13249300D01*
G03X13284600Y2644600I-11J50000D01*
G01X13485400Y2845400D01*
G03X13500000Y2880700I-35400J35311D01*
G01Y3069300D01*
G03X13485400Y3104600I-50000J-11D01*
G01X13454600Y3135400D01*
G02X13440000Y3170700I35400J35311D01*
G01Y3549300D01*
G02X13454600Y3584600I50000J-11D01*
G01X13545400Y3675400D01*
G03X13560000Y3710700I-35400J35311D01*
G01Y4359300D01*
G02X13574600Y4394600I50000J-11D01*
G01X13665400Y4485400D01*
G03X13680000Y4520700I-35400J35311D01*
G01Y5159300D01*
G03X13665400Y5194600I-50000J-11D01*
G01X13594600Y5265400D01*
G03X13559300Y5280000I-35311J-35400D01*
G01X13450700D01*
G03X13415400Y5265400I11J-50000D01*
G01X13359800Y5209800D01*
G03X13345200Y5174500I35400J-35311D01*
G01Y5085500D01*
G03X13359800Y5050200I50000J11D01*
G01X13380000Y5030000D01*
G01X11458100Y769900D02*
X11533600Y845400D01*
G02X11568900Y860000I35311J-35400D01*
G01X11699300D01*
G03X11734600Y874600I-11J50000D01*
G01X11765400Y905400D01*
G03X11780000Y940700I-35400J35311D01*
G01Y1099300D01*
G02X11794600Y1134600I50000J-11D01*
G01X11845400Y1185400D01*
G02X11880700Y1200000I35311J-35400D01*
G01X12219300D01*
G03X12254600Y1214600I-11J50000D01*
G01X12395400Y1355400D01*
G03X12410000Y1390700I-35400J35311D01*
G01Y1559300D01*
G02X12424600Y1594600I50000J-11D01*
G01X12893400Y2063400D01*
G03X12908000Y2098700I-35400J35311D01*
G01Y2467300D01*
G02X12922600Y2502600I50000J-11D01*
G01X12975400Y2555400D01*
G02X13010700Y2570000I35311J-35400D01*
G01X13492900D01*
G03X13505000Y2575000I0J17141D01*
G01X13845000Y2915000D01*
G03X13850000Y2927100I-12141J12100D01*
G01Y5229300D01*
G03X13835400Y5264600I-50000J-11D01*
G01X13774600Y5325400D01*
G03X13739300Y5340000I-35311J-35400D01*
G01X13450700D01*
G03X13415400Y5325400I11J-50000D01*
G01X13324600Y5234600D01*
G03X13310000Y5199300I35400J-35311D01*
G01Y5010000D01*
G03X13350000Y4970000I40000J0D01*
G01X13410000D01*
G03X13460000Y5020000I0J50000D01*
G01Y5039300D01*
G03X13445400Y5074600I-50000J-11D01*
G01X13430000Y5090000D01*
G01X13140000Y5160000D02*
X13119800Y5139800D01*
G03X13105200Y5104500I35400J-35311D01*
G01Y4795100D01*
G02X13090600Y4759800I-50000J11D01*
G01X12844600Y4513800D01*
G03X12830000Y4478500I35400J-35311D01*
G01Y4119900D01*
G02X12815400Y4084600I-50000J11D01*
G01X12434600Y3703800D01*
G03X12420000Y3668500I35400J-35311D01*
G01Y2880700D01*
G02X12405400Y2845400I-50000J11D01*
G01X12044600Y2484600D01*
G03X12030000Y2449300I35400J-35311D01*
G01Y1940700D01*
G02X12015400Y1905400I-50000J11D01*
G01X11534600Y1424600D01*
G03X11520000Y1389300I35400J-35311D01*
G01Y979500D01*
G02X11505400Y944200I-50000J11D01*
G01X11331100Y769900D01*
G01X11712100Y1391100D02*
X11756400Y1435400D01*
G02X11791700Y1450000I35311J-35400D01*
G01X11870000D01*
G03X11910000Y1490000I0J40000D01*
G01Y1609300D01*
G02X11924600Y1644600I50000J-11D01*
G01X12045400Y1765400D01*
G02X12080700Y1780000I35311J-35400D01*
G01X12229300D01*
G03X12264600Y1794600I-11J50000D01*
G01X12635400Y2165400D01*
G03X12650000Y2200700I-35400J35311D01*
G01Y2599300D01*
G02X12664600Y2634600I50000J-11D01*
G01X12715400Y2685400D01*
G03X12730000Y2720700I-35400J35311D01*
G01Y2769300D01*
G02X12744600Y2804600I50000J-11D01*
G01X12935400Y2995400D01*
G03X12950000Y3030700I-35400J35311D01*
G01Y4456900D01*
G02X12964600Y4492200I50000J-11D01*
G01X13190600Y4718200D01*
G03X13205200Y4753500I-35400J35311D01*
G01Y4974500D01*
G02X13219800Y5009800I50000J-11D01*
G01X13240000Y5030000D01*
G01X11839100Y1391100D02*
X11867600D01*
G03X11902900Y1405700I-11J50000D01*
G01X11932600Y1435400D01*
G02X11967900Y1450000I35311J-35400D01*
G01X12023000D01*
G03X12040000Y1467000I0J17000D01*
G01Y1590000D01*
G02X12090000Y1640000I50000J0D01*
G01X12259300D01*
G03X12294600Y1654600I-11J50000D01*
G01X12715400Y2075400D01*
G03X12730000Y2110700I-35400J35311D01*
G01Y2439300D01*
G02X12744600Y2474600I50000J-11D01*
G01X12955400Y2685400D01*
G02X12990700Y2700000I35311J-35400D01*
G01X13269300D01*
G03X13304600Y2714600I-11J50000D01*
G01X13305400Y2715400D01*
G03X13320000Y2750700I-35400J35311D01*
G01Y3079300D01*
G03X13305400Y3114600I-50000J-11D01*
G01X13274600Y3145400D01*
G02X13260000Y3180700I35400J35311D01*
G01Y3699300D01*
G02X13274600Y3734600I50000J-11D01*
G01X13495400Y3955400D01*
G03X13510000Y3990700I-35400J35311D01*
G01Y4389300D01*
G02X13524600Y4424600I50000J-11D01*
G01X13615400Y4515400D01*
G03X13630000Y4550700I-35400J35311D01*
G01Y4949300D01*
G03X13615400Y4984600I-50000J-11D01*
G01X13584600Y5015400D01*
G02X13570000Y5050700I35400J35311D01*
G01Y5159300D01*
G03X13555400Y5194600I-50000J-11D01*
G01X13530000Y5220000D01*
G01X11966100Y1518100D02*
Y1595400D01*
G02X11980700Y1630700I50000J-11D01*
G01X12035400Y1685400D01*
G02X12070700Y1700000I35311J-35400D01*
G01X12229300D01*
G03X12264600Y1714600I-11J50000D01*
G01X12675400Y2125400D01*
G03X12690000Y2160700I-35400J35311D01*
G01Y2559300D01*
G02X12704600Y2594600I50000J-11D01*
G01X13185400Y3075400D01*
G03X13200000Y3110700I-35400J35311D01*
G01Y3759300D01*
G02X13214600Y3794600I50000J-11D01*
G01X13445400Y4025400D01*
G03X13460000Y4060700I-35400J35311D01*
G01Y4409300D01*
G02X13474600Y4444600I50000J-11D01*
G01X13565400Y4535400D01*
G03X13580000Y4570700I-35400J35311D01*
G01Y4929300D01*
G03X13565400Y4964600I-50000J-11D01*
G01X13534600Y4995400D01*
G02X13520000Y5030700I35400J35311D01*
G01Y5099300D01*
G03X13505400Y5134600I-50000J-11D01*
G01X13480000Y5160000D01*
G01X13190000Y5090000D02*
X13169800Y5069800D01*
G03X13155200Y5034500I35400J-35311D01*
G01Y4774300D01*
G02X13140600Y4739000I-50000J11D01*
G01X12924600Y4523000D01*
G03X12910000Y4487700I35400J-35311D01*
G01Y3047400D01*
G02X12895400Y3012100I-50000J11D01*
G01X12747900Y2864600D01*
G02X12712600Y2850000I-35311J35400D01*
G01X12650700D01*
G03X12615400Y2835400I11J-50000D01*
G01X12584600Y2804600D01*
G03X12570000Y2769300I35400J-35311D01*
G01Y2680700D01*
G03X12584600Y2645400I50000J11D01*
G01X12595400Y2634600D01*
G02X12610000Y2599300I-35400J-35311D01*
G01Y2260700D01*
G02X12595400Y2225400I-50000J11D01*
G01X12214600Y1844600D01*
G02X12179300Y1830000I-35311J35400D01*
G01X12050700D01*
G03X12015400Y1815400I11J-50000D01*
G01X11853700Y1653700D01*
G03X11839100Y1618400I35400J-35311D01*
G01Y1518100D01*
G01X12998500Y2500000D02*
Y1829100D01*
G02X12983900Y1793800I-50000J11D01*
G01X12814600Y1624500D01*
G03X12800000Y1589200I35400J-35311D01*
G01Y1230700D01*
G02X12785400Y1195400I-50000J11D01*
G01X12741700Y1151700D01*
G02X12706400Y1137100I-35311J35400D01*
G01X12601100D01*
G01X12474100D02*
X12526600Y1084600D01*
G03X12561900Y1070000I35311J35400D01*
G01X12893000D01*
G03X12920000Y1097000I0J27000D01*
G01Y1609300D01*
G02X12934600Y1644600I50000J-11D01*
G01X13115400Y1825400D01*
G03X13130000Y1860700I-35400J35311D01*
G01Y2429800D01*
G03X13115400Y2465100I-50000J-11D01*
G01X13080500Y2500000D01*
G54D13*
X932500Y4010000D03*
Y4510000D03*
Y4980000D03*
X1645000Y3550000D03*
X2125000D03*
X2357500Y4980000D03*
X3070000Y3550000D03*
X3550000D03*
X3782500Y3760000D03*
Y4760000D03*
Y5760000D03*
Y6760000D03*
X4495000Y3550000D03*
X4975000D03*
X5207500Y4010000D03*
Y4510000D03*
Y4980000D03*
X5920000Y3550000D03*
X6400000D03*
X6632500Y4980000D03*
X7097500Y4010000D03*
Y4510000D03*
Y4980000D03*
X7810000Y3550000D03*
X8290000D03*
X8522500Y4980000D03*
X9235000Y3550000D03*
X9715000D03*
X9947500Y3760000D03*
Y4760000D03*
Y5760000D03*
Y6760000D03*
X10660000Y3550000D03*
X11140000D03*
X11372500Y4010000D03*
Y4510000D03*
Y4980000D03*
X12085000Y3550000D03*
X12565000D03*
X12797500Y4980000D03*
G54D14*
X1164000Y4170000D03*
X2124000D03*
X2589000D03*
X3549000D03*
X4014000D03*
X4974000D03*
X5439000D03*
X6399000D03*
X7334000D03*
X8294000D03*
X8759000D03*
X9719000D03*
X10184000D03*
X11144000D03*
X11609000D03*
X12569000D03*
G54D15*
X932500Y5260000D03*
X1250000Y5760000D03*
X932500Y6260000D03*
Y7260000D03*
X1500000D03*
X1790000Y5760000D03*
X2357500Y3760000D03*
Y4760000D03*
Y5760000D03*
X2675000D03*
X2357500Y6760000D03*
X3215000Y5760000D03*
X2925000Y7260000D03*
X4100000Y5760000D03*
X4640000D03*
X4350000Y7260000D03*
X5207500Y5260000D03*
X5525000Y5760000D03*
X5207500Y6260000D03*
Y7260000D03*
X6065000Y5760000D03*
X5775000Y7260000D03*
X6632500Y3760000D03*
Y4760000D03*
Y5760000D03*
Y6760000D03*
X7097500Y5260000D03*
X7415000Y5760000D03*
X7097500Y6260000D03*
Y7260000D03*
X7955000Y5760000D03*
X7665000Y7260000D03*
X8522500Y3760000D03*
Y4760000D03*
Y5760000D03*
Y6760000D03*
X8840000Y5760000D03*
X9380000D03*
X9090000Y7260000D03*
X10265000Y5760000D03*
X10805000D03*
X10515000Y7260000D03*
X11372500Y5260000D03*
Y6260000D03*
Y7260000D03*
X11690000Y5760000D03*
X12230000D03*
X11940000Y7260000D03*
X12797500Y3760000D03*
Y4760000D03*
Y5760000D03*
Y6760000D03*
G54D16*
G01X12601100Y515900D02*
X12542800Y457600D01*
G02X12507500Y443000I-35311J35400D01*
G01X12440700D01*
G02X12405400Y457600I11J50000D01*
G01X12347100Y515900D01*
X3940000Y1160000D03*
X4320000D03*
X4130000Y1082500D03*
Y1237500D03*
X4940000Y1160000D03*
X5320000D03*
X5130000Y1082500D03*
Y1237500D03*
X6010000Y1160000D03*
X6390000D03*
X6200000Y1237500D03*
Y1082500D03*
X13120000Y5520000D03*
X13500000D03*
X13310000Y5597500D03*
Y5442500D03*
G54D17*
X7730000Y890000D03*
X13168000Y1195000D03*
G54D18*
X13440000Y4866000D03*
G54D19*
X13820000Y2640000D03*
M02*
