G04 ================== begin FILE IDENTIFICATION RECORD ==================*
G04 Layout Name:  pc065d_fibv2a_toplevel_29.brd*
G04 Film Name:    art_pc065d_06_L04P*
G04 File Format:  Gerber RS274X*
G04 File Origin:  Cadence Allegro 24.1-P001*
G04 Origin Date:  Mon Aug  4 17:24:06 2025*
G04 *
G04 Layer:  VIA CLASS/L4_PWR*
G04 Layer:  PIN/L4_PWR*
G04 Layer:  ETCH/L4_PWR*
G04 *
G04 Offset:    (0.000 0.000)*
G04 Mirror:    No*
G04 Mode:      Positive*
G04 Rotation:  0*
G04 FullContactRelief:  No*
G04 UndefLineWidth:     0.200*
G04 ================== end FILE IDENTIFICATION RECORD ====================*
%FSLAX35Y35*MOMM*%
%IR0*IPPOS*OFA0.00000B0.00000*MIA0B0*SFA1.00000B1.00000*%
%ADD14C,1.*%
%ADD17C,1.001*%
%ADD12C,1.7*%
%ADD10C,4.5*%
%ADD13C,1.65*%
%ADD15C,1.75*%
%ADD18C,1.397*%
%ADD16C,.5*%
%ADD11C,.56*%
%ADD19C,.813*%
%ADD20C,.2*%
%ADD24C,1.004*%
%ADD25C,2.204*%
%ADD23C,1.71*%
%ADD22C,5.004*%
%ADD21C,1.064*%
%ADD30C,1.902*%
%ADD26C,2.154*%
%ADD27C,2.254*%
%ADD28C,1.96*%
%ADD29C,1.958*%
G75*
%LPD*%
G75*
G36*
G01X50000Y988500D02*
G02X69600Y992500I10203J24D01*
G03X300000Y839800I230400J97468D01*
G03Y1340200I0J250200D01*
G03X69600Y1187500I0J-250168D01*
G02X50000Y1191500I-9397J3976D01*
G01Y4890000D01*
X230000D01*
G03X380000Y5040000I0J150000D01*
G01Y5070000D01*
X610000D01*
Y5499800D01*
X610200D01*
Y5680200D01*
X610000D01*
Y6270000D01*
X380000D01*
Y6344400D01*
G02X396500Y6352500I10218J42D01*
G03X550000Y6299800I153592J197468D01*
G03Y6800200I0J250200D01*
G03X396500Y6747500I92J-250168D01*
G02X380000Y6755600I-6282J8058D01*
G01Y7600000D01*
X13380000D01*
Y6751600D01*
G02X13363300Y6743700I-10211J-16D01*
G03X13205000Y6800200I-158360J-193679D01*
G03Y6299800I0J-250200D01*
G03X13440200Y6464800I0J250133D01*
G02X13454900Y6470100I9572J-3512D01*
G03X13529800Y6450000I75013J129923D01*
G01X13590000D01*
Y5874900D01*
G02X13574700Y5866100I-10189J14D01*
G03X13548200Y5873200I-26556J-46112D01*
G01X13548100D01*
G03X13535700Y5871700I143J-53183D01*
G02X13523200Y5881400I-2301J9939D01*
G03X13470000Y5933200I-53200J-1419D01*
G03X13458100Y5931900I-207J-53223D01*
G02X13445700Y5941500I-2231J9927D01*
G03X13395300Y5993100I-53176J-1526D01*
G02X13385600Y6002800I502J10202D01*
G03X13332500Y6053200I-53100J-2772D01*
G03X13279300Y6000000I0J-53200D01*
G03X13281400Y5985200I53202J0D01*
G02X13269700Y5972300I-9784J-2882D01*
G03X13260000Y5973200I-9744J-52296D01*
G03X13208500Y5933200I0J-53153D01*
G01X13208100Y5931600D01*
X13203100Y5927600D01*
X13201000Y5927900D01*
G03X13195000Y5928200I-5653J-52919D01*
G03X13183300Y5926900I0J-53300D01*
G02X13171300Y5934100I-2185J9958D01*
G03X13067600Y5929200I-51299J-14101D01*
G02X13054700Y5921100I-10062J1703D01*
G03X13040000Y5923200I-14798J-51086D01*
G03Y5816800I0J-53200D01*
G03X13092400Y5860800I0J53202D01*
G02X13105300Y5868900I10062J-1703D01*
G03X13120000Y5866800I14798J51086D01*
G03X13131700Y5868100I0J53300D01*
G02X13143700Y5860900I2185J-9958D01*
G03X13195000Y5821800I51300J14103D01*
G03X13246500Y5861800I0J53153D01*
G01X13246900Y5863400D01*
X13251900Y5867400D01*
X13254000Y5867100D01*
G03X13260000Y5866800I5653J52919D01*
G03X13313200Y5920000I0J53200D01*
G03X13311100Y5934800I-53202J0D01*
G02X13322800Y5947700I9784J2882D01*
G03X13329700Y5946900I9563J52322D01*
G02X13339400Y5937200I-502J-10202D01*
G03X13392500Y5886800I53100J2772D01*
G03X13404400Y5888100I207J53223D01*
G02X13416800Y5878500I2231J-9927D01*
G03X13470000Y5826800I53200J1522D01*
G03X13482400Y5828300I-143J53183D01*
G02X13494900Y5818600I2301J-9939D01*
G03X13548100Y5766800I53200J1419D01*
G01X13548200D01*
G03X13574700Y5773900I-56J53212D01*
G02X13590000Y5765100I5111J-8814D01*
G01Y5520000D01*
G03X13740000Y5370000I150000J0D01*
G01X13850000D01*
Y4076400D01*
G02X13830500Y4072200I-10198J-20D01*
G03X13730000Y4137200I-100500J-45194D01*
G03Y3916800I0J-110200D01*
G03X13830500Y3981800I0J110194D01*
G02X13850000Y3977600I9302J-4180D01*
G01Y3822400D01*
G02X13830500Y3818200I-10198J-20D01*
G03X13730000Y3883200I-100500J-45194D01*
G03Y3662800I0J-110200D01*
G03X13830500Y3727800I0J110194D01*
G02X13850000Y3723600I9302J-4180D01*
G01Y3568400D01*
G02X13830500Y3564200I-10198J-20D01*
G03X13730000Y3629200I-100500J-45194D01*
G03Y3408800I0J-110200D01*
G03X13830500Y3473800I0J110194D01*
G02X13850000Y3469600I9302J-4180D01*
G01Y3079200D01*
G02X13831800Y3072900I-10199J24D01*
G03X13790000Y3093200I-41800J-32885D01*
G03Y2986800I0J-53200D01*
G03X13831800Y3007100I0J53185D01*
G02X13850000Y3000800I8001J-6324D01*
G01Y2713500D01*
G02X13838000Y2703400I-10210J-48D01*
G03X13820000Y2705900I-17980J-63403D01*
G03X13769000Y2681800I0J-66013D01*
G02X13754500Y2680500I-7886J6442D01*
G03X13720000Y2693200I-34500J-40510D01*
G03Y2586800I0J-53200D01*
G03X13754500Y2599500I0J53210D01*
G02X13769000Y2598200I6614J-7742D01*
G03X13820000Y2574100I51000J41913D01*
G03X13838000Y2576600I20J65903D01*
G02X13850000Y2566500I1790J-10052D01*
G01Y2406000D01*
G02X13835000Y2397000I-10185J-25D01*
G03X13810100Y2403200I-24929J-47018D01*
G01X13810000D01*
G03Y2296800I0J-53200D01*
G01X13810100D01*
G03X13835000Y2303000I-29J53218D01*
G02X13850000Y2294000I4815J-8975D01*
G01Y1876000D01*
G02X13835000Y1867000I-10185J-25D01*
G03X13810100Y1873200I-24929J-47018D01*
G01X13810000D01*
G03Y1766800I0J-53200D01*
G01X13810100D01*
G03X13835000Y1773000I-29J53218D01*
G02X13850000Y1764000I4815J-8975D01*
G01Y1191500D01*
G02X13830400Y1187500I-10203J-24D01*
G03X13600000Y1340200I-230400J-97468D01*
G03Y839800I0J-250200D01*
G03X13830400Y992500I0J250168D01*
G02X13850000Y988500I9397J-3976D01*
G01Y50000D01*
X1164500D01*
G02X1155800Y65400I59J10191D01*
G03X1163200Y92500I-45922J27100D01*
G03X1056800I-53200J0D01*
G03X1064200Y65400I53322J0D01*
G02X1055500Y50000I-8759J-5209D01*
G01X50000D01*
Y988500D01*
G37*
G36*
G01X200000Y5670000D02*
Y5520000D01*
X380000D01*
Y5670000D01*
X200000D01*
G37*
%LPC*%
G75*
G36*
G01X2730200Y458800D02*
G02X2720300Y489800I43326J30917D01*
G02X2773500Y543000I53200J0D01*
G02X2810000Y528500I0J-53190D01*
G02X2846500Y543000I36500J-38690D01*
G02X2899700Y489800I0J-53200D01*
G01Y489700D01*
G02X2889800Y458800I-53226J17D01*
G03X2896700Y442800I8270J-5921D01*
G02X2943200Y390000I-6727J-52800D01*
G02X2836800I-53200J0D01*
G01Y390100D01*
G02X2846700Y421000I53226J-17D01*
G03X2839800Y437000I-8270J5921D01*
G02X2810000Y451100I6737J52779D01*
G02X2780200Y437000I-36537J38679D01*
G03X2773300Y421000I1370J-10079D01*
G02X2783200Y390000I-43326J-30917D01*
G02X2676800I-53200J0D01*
G02X2723300Y442800I53227J0D01*
G03X2730200Y458800I-1370J10079D01*
G37*
G36*
G01X7214900Y295000D02*
G03X7213300Y311500I-6709J7677D01*
G02X7186800Y357500I26675J46000D01*
G02X7240000Y410700I53200J0D01*
G02X7258900Y407200I-75J-53186D01*
G03X7271800Y412500I3617J9546D01*
G02X7320000Y443200I48200J-22488D01*
G02Y336800I0J-53200D01*
G02X7301100Y340300I75J53186D01*
G03X7288200Y335000I-3617J-9546D01*
G02X7275100Y317500I-48233J22453D01*
G03X7276700Y301000I6709J-7677D01*
G02X7303200Y255000I-26675J-46000D01*
G02X7196800I-53200J0D01*
G02X7214900Y295000I53249J0D01*
G37*
G36*
G01X6439300Y374300D02*
G03X6438600Y381500I-3915J3253D01*
G02X6419300Y422500I33899J41000D01*
G02X6525700I53200J0D01*
G02X6513200Y388200I-53310J0D01*
G03X6513900Y381000I3915J-3253D01*
G02X6533200Y340000I-33899J-41000D01*
G02X6426800I-53200J0D01*
G02X6439300Y374300I53310J0D01*
G37*
G36*
G01X13327500Y672700D02*
G02X13402500I37500J-37613D01*
G02X13477500I37500J-37613D01*
G02X13515000Y688200I37500J-37613D01*
G02X13568200Y635000I0J-53200D01*
G02X13552700Y597500I-53113J0D01*
G02X13568200Y560000I-37613J-37500D01*
G02X13515000Y506800I-53200J0D01*
G02X13477500Y522300I0J53113D01*
G02X13402500I-37500J37613D01*
G02X13327500I-37500J37613D01*
G02X13252500I-37500J37613D01*
G02X13177500I-37500J37613D01*
G02X13140000Y506800I-37500J37613D01*
G02Y613200I0J53200D01*
G02X13177500Y597700I0J-53113D01*
G02X13215000Y613200I37500J-37613D01*
G02X13225900Y612100I135J-53214D01*
G03X13237900Y624100I2025J9975D01*
G02X13236800Y635000I52114J10765D01*
G02X13290000Y688200I53200J0D01*
G02X13327500Y672700I0J-53113D01*
G37*
G36*
G01X2289900Y585000D02*
G02Y655000I40206J35000D01*
G02X2276800Y690000I40206J35000D01*
G02X2330000Y743200I53200J0D01*
G02X2365000Y730100I0J-53306D01*
G02X2400000Y743200I35000J-40206D01*
G02X2453200Y690000I0J-53200D01*
G02X2440100Y655000I-53306J0D01*
G02Y585000I-40206J-35000D01*
G02X2453200Y550000I-40206J-35000D01*
G02X2400000Y496800I-53200J0D01*
G02X2365000Y509900I0J53306D01*
G02X2330000Y496800I-35000J40206D01*
G02X2276800Y550000I0J53200D01*
G02X2289900Y585000I53306J0D01*
G37*
G36*
G01X4404000Y763700D02*
G02X4440500Y778200I36500J-38690D01*
G02Y671800I0J-53200D01*
G02X4404000Y686300I0J53190D01*
G02X4367500Y671800I-36500J38690D01*
G02Y778200I0J53200D01*
G02X4404000Y763700I0J-53190D01*
G37*
G36*
G01X3185000Y699900D02*
G02X3150000Y686800I-35000J40206D01*
G02Y793200I0J53200D01*
G02X3185000Y780100I0J-53306D01*
G02X3255000I35000J-40206D01*
G02X3290000Y793200I35000J-40206D01*
G02X3343200Y740000I0J-53200D01*
G02X3330100Y705000I-53306J0D01*
G02Y635000I-40206J-35000D01*
G02X3343200Y600000I-40206J-35000D01*
G02X3236800I-53200J0D01*
G02X3249900Y635000I53306J0D01*
G02X3236800Y670000I40206J35000D01*
G02X3237100Y675900I53213J252D01*
G03X3225900Y687100I-10121J1079D01*
G02X3220000Y686800I-5648J52913D01*
G02X3185000Y699900I0J53306D01*
G37*
G36*
G01X6461500Y788700D02*
G03X6468500I3500J3711D01*
G02X6541500I36500J-38690D01*
G03X6548500I3500J3711D01*
G02X6585000Y803200I36500J-38690D01*
G02Y696800I0J-53200D01*
G02X6548500Y711300I0J53190D01*
G03X6541500I-3500J-3711D01*
G02X6468500I-36500J38690D01*
G03X6461500I-3500J-3711D01*
G02X6388500I-36500J38690D01*
G03X6381500I-3500J-3711D01*
G02X6308500I-36500J38690D01*
G03X6301500I-3500J-3711D01*
G02X6228500I-36500J38690D01*
G03X6221500I-3500J-3711D01*
G02X6148500I-36500J38690D01*
G03X6141500I-3500J-3711D01*
G02X6068500I-36500J38690D01*
G03X6061500I-3500J-3711D01*
G02X6025000Y696800I-36500J38690D01*
G02Y803200I0J53200D01*
G02X6061500Y788700I0J-53190D01*
G03X6068500I3500J3711D01*
G02X6141500I36500J-38690D01*
G03X6148500I3500J3711D01*
G02X6221500I36500J-38690D01*
G03X6228500I3500J3711D01*
G02X6301500I36500J-38690D01*
G03X6308500I3500J3711D01*
G02X6381500I36500J-38690D01*
G03X6388500I3500J3711D01*
G02X6461500I36500J-38690D01*
G37*
G36*
G01X9983300Y1303900D02*
G03X9999600Y1307900I6776J7597D01*
G02X10049500Y1342700I49900J-18376D01*
G02Y1236300I0J-53200D01*
G02X10014100Y1249700I-86J53233D01*
G03X9997800Y1245700I-6776J-7597D01*
G02X9947900Y1210900I-49900J18376D01*
G02Y1317300I0J53200D01*
G02X9983300Y1303900I86J-53233D01*
G37*
G36*
G01X6509000Y1608700D02*
G03X6516000I3500J3711D01*
G02X6589000I36500J-38690D01*
G03X6596000I3500J3711D01*
G02X6632500Y1623200I36500J-38690D01*
G02Y1516800I0J-53200D01*
G02X6596000Y1531300I0J53190D01*
G03X6589000I-3500J-3711D01*
G02X6516000I-36500J38690D01*
G03X6509000I-3500J-3711D01*
G02X6436000I-36500J38690D01*
G03X6429000I-3500J-3711D01*
G02X6356000I-36500J38690D01*
G03X6349000I-3500J-3711D01*
G02X6276000I-36500J38690D01*
G03X6269000I-3500J-3711D01*
G02X6196000I-36500J38690D01*
G03X6189000I-3500J-3711D01*
G02X6116000I-36500J38690D01*
G03X6109000I-3500J-3711D01*
G02X6072500Y1516800I-36500J38690D01*
G02Y1623200I0J53200D01*
G02X6109000Y1608700I0J-53190D01*
G03X6116000I3500J3711D01*
G02X6189000I36500J-38690D01*
G03X6196000I3500J3711D01*
G02X6269000I36500J-38690D01*
G03X6276000I3500J3711D01*
G02X6349000I36500J-38690D01*
G03X6356000I3500J3711D01*
G02X6429000I36500J-38690D01*
G03X6436000I3500J3711D01*
G02X6509000I36500J-38690D01*
G37*
G36*
G01X4283500Y1633700D02*
G02X4356500I36500J-38690D01*
G02X4429500I36500J-38690D01*
G02X4466000Y1648200I36500J-38690D01*
G02Y1541800I0J-53200D01*
G02X4429500Y1556300I0J53190D01*
G02X4356500I-36500J38690D01*
G02X4283500I-36500J38690D01*
G02X4210500I-36500J38690D01*
G02X4137500I-36500J38690D01*
G02X4064500I-36500J38690D01*
G02X3991500I-36500J38690D01*
G02X3955000Y1541800I-36500J38690D01*
G02Y1648200I0J53200D01*
G02X3991500Y1633700I0J-53190D01*
G02X4064500I36500J-38690D01*
G02X4137500I36500J-38690D01*
G02X4210500I36500J-38690D01*
G02X4283500I36500J-38690D01*
G37*
G36*
G01X5283500D02*
G02X5356500I36500J-38690D01*
G02X5429500I36500J-38690D01*
G02X5466000Y1648200I36500J-38690D01*
G02Y1541800I0J-53200D01*
G02X5429500Y1556300I0J53190D01*
G02X5356500I-36500J38690D01*
G02X5283500I-36500J38690D01*
G02X5210500I-36500J38690D01*
G02X5137500I-36500J38690D01*
G02X5064500I-36500J38690D01*
G02X4991500I-36500J38690D01*
G02X4955000Y1541800I-36500J38690D01*
G02Y1648200I0J53200D01*
G02X4991500Y1633700I0J-53190D01*
G02X5064500I36500J-38690D01*
G02X5137500I36500J-38690D01*
G02X5210500I36500J-38690D01*
G02X5283500I36500J-38690D01*
G37*
G36*
G01X3179900Y1535000D02*
G02Y1605000I40206J35000D01*
G02X3166800Y1640000I40206J35000D01*
G02X3220000Y1693200I53200J0D01*
G02X3255000Y1680100I0J-53306D01*
G02X3290000Y1693200I35000J-40206D01*
G02X3343200Y1640000I0J-53200D01*
G02X3330100Y1605000I-53306J0D01*
G02Y1535000I-40206J-35000D01*
G02X3343200Y1500000I-40206J-35000D01*
G02X3290000Y1446800I-53200J0D01*
G02X3255000Y1459900I0J53306D01*
G02X3220000Y1446800I-35000J40206D01*
G02X3166800Y1500000I0J53200D01*
G02X3179900Y1535000I53306J0D01*
G37*
G36*
G01X2309900Y1655000D02*
G02X2296800Y1690000I40206J35000D01*
G02X2350000Y1743200I53200J0D01*
G02X2385000Y1730100I0J-53306D01*
G02X2455000I35000J-40206D01*
G02X2490000Y1743200I35000J-40206D01*
G02Y1636800I0J-53200D01*
G02X2455000Y1649900I0J53306D01*
G02X2420000Y1636800I-35000J40206D01*
G02X2414100Y1637100I-252J53213D01*
G03X2402900Y1625900I-1079J-10121D01*
G02X2403200Y1620000I-52913J-5648D01*
G02X2390100Y1585000I-53306J0D01*
G02Y1515000I-40206J-35000D01*
G02X2403200Y1480000I-40206J-35000D01*
G02X2350000Y1426800I-53200J0D01*
G02X2327300Y1431900I0J53069D01*
G03X2312800Y1423800I-4350J-9241D01*
G02X2260000Y1376800I-52800J6158D01*
G02Y1483200I0J53200D01*
G02X2282700Y1478100I0J-53069D01*
G03X2297200Y1486200I4350J9241D01*
G02X2309900Y1515000I52845J-6103D01*
G02Y1585000I40206J35000D01*
G02X2296800Y1620000I40206J35000D01*
G02X2309900Y1655000I53306J0D01*
G37*
G36*
G01X9825700Y1755000D02*
G02X9878900Y1806700I53200J-1522D01*
G02X9932100Y1753500I0J-53200D01*
G02X9880400Y1700300I-53222J0D01*
G02X9827200Y1648600I-53200J1522D01*
G02X9774000Y1701800I0J53200D01*
G02X9825700Y1755000I53222J0D01*
G37*
G36*
G01X13159900Y1815000D02*
G02Y1885000I40206J35000D01*
G02X13146800Y1920000I40206J35000D01*
G02X13253200I53200J0D01*
G02X13240100Y1885000I-53306J0D01*
G02Y1815000I-40206J-35000D01*
G02Y1745000I-40206J-35000D01*
G02X13253200Y1710000I-40206J-35000D01*
G02X13146800I-53200J0D01*
G02X13159900Y1745000I53306J0D01*
G02Y1815000I40206J35000D01*
G37*
G36*
G01X13329900D02*
G02Y1885000I40206J35000D01*
G02X13316800Y1920000I40206J35000D01*
G02X13423200I53200J0D01*
G02X13410100Y1885000I-53306J0D01*
G02Y1815000I-40206J-35000D01*
G02Y1745000I-40206J-35000D01*
G02X13423200Y1710000I-40206J-35000D01*
G02X13316800I-53200J0D01*
G02X13329900Y1745000I53306J0D01*
G02Y1815000I40206J35000D01*
G37*
G36*
G01X1767000Y2379700D02*
G02X1773500Y2380100I6511J-52799D01*
G02X1810000Y2365600I0J-53190D01*
G02X1846500Y2380100I36500J-38690D01*
G02X1853000Y2379700I-11J-53199D01*
G03X1858500Y2383500I571J5053D01*
G02X1961500I51500J-13554D01*
G03X1967000Y2379700I4929J1253D01*
G02X1973500Y2380100I6511J-52799D01*
G02X2010000Y2365600I0J-53190D01*
G02X2046500Y2380100I36500J-38690D01*
G02X2097600Y2341700I0J-53200D01*
G02X2110000Y2343200I12543J-51683D01*
G02Y2236800I0J-53200D01*
G02X2058900Y2275200I0J53200D01*
G02X2046500Y2273700I-12543J51683D01*
G02X2010000Y2288200I0J53190D01*
G02X1973500Y2273700I-36500J38690D01*
G02X1922000Y2313400I0J53254D01*
G03X1916500Y2317200I-4929J-1253D01*
G02X1910000Y2316800I-6511J52799D01*
G02X1903500Y2317200I11J53199D01*
G03X1898000Y2313400I-571J-5053D01*
G02X1846500Y2273700I-51500J13554D01*
G02X1810000Y2288200I0J53190D01*
G02X1773500Y2273700I-36500J38690D01*
G02X1722000Y2313400I0J53254D01*
G03X1716500Y2317200I-4929J-1253D01*
G02X1710000Y2316800I-6511J52799D01*
G02Y2423200I0J53200D01*
G02X1761500Y2383500I0J-53254D01*
G03X1767000Y2379700I4929J1253D01*
G37*
G36*
G01X4801300Y2414200D02*
G02X4813500Y2415600I12126J-51809D01*
G02X4850000Y2401100I0J-53190D01*
G02X4886500Y2415600I36500J-38690D01*
G02X4898700Y2414200I74J-53209D01*
G02X4950000Y2453200I51300J-14240D01*
G02Y2346800I0J-53200D01*
G02X4937800Y2348200I-74J53209D01*
G02X4886500Y2309200I-51300J14240D01*
G02X4850000Y2323700I0J53190D01*
G02X4813500Y2309200I-36500J38690D01*
G02X4762200Y2348200I0J53240D01*
G02X4750000Y2346800I-12126J51809D01*
G02X4737800Y2348200I-74J53209D01*
G02X4686500Y2309200I-51300J14240D01*
G02X4650000Y2323700I0J53190D01*
G02X4613500Y2309200I-36500J38690D01*
G02X4562200Y2348200I0J53240D01*
G02X4550000Y2346800I-12126J51809D01*
G02Y2453200I0J53200D01*
G02X4601300Y2414200I0J-53240D01*
G02X4613500Y2415600I12126J-51809D01*
G02X4650000Y2401100I0J-53190D01*
G02X4686500Y2415600I36500J-38690D01*
G02X4698700Y2414200I74J-53209D01*
G02X4801300I51300J-14240D01*
G37*
G36*
G01X3181800Y2451900D02*
G02X3193500Y2453200I11700J-52000D01*
G02X3230000Y2438700I0J-53190D01*
G02X3266500Y2453200I36500J-38690D01*
G02X3278200Y2451900I0J-53300D01*
G02X3381800I51800J-11835D01*
G02X3393500Y2453200I11700J-52000D01*
G02X3430000Y2438700I0J-53190D01*
G02X3466500Y2453200I36500J-38690D01*
G02X3518300Y2411900I0J-53135D01*
G02X3530000Y2413200I11700J-52000D01*
G02Y2306800I0J-53200D01*
G02X3478200Y2348100I0J53135D01*
G02X3466500Y2346800I-11700J52000D01*
G02X3430000Y2361300I0J53190D01*
G02X3393500Y2346800I-36500J38690D01*
G02X3341700Y2388100I0J53135D01*
G02X3318300I-11700J52000D01*
G02X3266500Y2346800I-51800J11835D01*
G02X3230000Y2361300I0J53190D01*
G02X3193500Y2346800I-36500J38690D01*
G02X3141700Y2388100I0J53135D01*
G02X3130000Y2386800I-11700J52000D01*
G02Y2493200I0J53200D01*
G02X3181800Y2451900I0J-53135D01*
G37*
G36*
G01X5992200Y2426500D02*
G02X6043500Y2465600I51300J-14103D01*
G02X6080000Y2451100I0J-53190D01*
G02X6116500Y2465600I36500J-38690D01*
G02X6128700Y2464200I74J-53209D01*
G02X6231300I51300J-14240D01*
G02X6243500Y2465600I12126J-51809D01*
G02X6280000Y2451100I0J-53190D01*
G02X6316500Y2465600I36500J-38690D01*
G02X6367800Y2426500I0J-53203D01*
G03X6373400Y2422800I4913J1347D01*
G02X6380000Y2423200I6512J-52805D01*
G02Y2316800I0J-53200D01*
G02X6328700Y2355900I0J53203D01*
G03X6323100Y2359600I-4913J-1347D01*
G02X6316500Y2359200I-6512J52805D01*
G02X6280000Y2373700I0J53190D01*
G02X6243500Y2359200I-36500J38690D01*
G02X6192200Y2398200I0J53240D01*
G02X6180000Y2396800I-12126J51809D01*
G02X6167800Y2398200I-74J53209D01*
G02X6116500Y2359200I-51300J14240D01*
G02X6080000Y2373700I0J53190D01*
G02X6043500Y2359200I-36500J38690D01*
G02X6036900Y2359600I-88J53205D01*
G03X6031300Y2355900I-687J-5047D01*
G02X5980000Y2316800I-51300J14103D01*
G02Y2423200I0J53200D01*
G02X5986600Y2422800I88J-53205D01*
G03X5992200Y2426500I687J5047D01*
G37*
G36*
G01X9335500Y2467600D02*
G02X9363500Y2475600I28053J-45185D01*
G02X9400000Y2461100I0J-53190D01*
G02X9436500Y2475600I36500J-38690D01*
G02X9448700Y2474200I74J-53209D01*
G02X9551300I51300J-14240D01*
G02X9563500Y2475600I12126J-51809D01*
G02X9600000Y2461100I0J-53190D01*
G02X9636500Y2475600I36500J-38690D01*
G02X9689700Y2422400I0J-53200D01*
G02X9689600Y2418500I-53215J-587D01*
G03X9694200Y2413000I5077J-427D01*
G02X9743200Y2360000I-4163J-53000D01*
G02X9636800I-53200J0D01*
G02X9636900Y2363900I53215J587D01*
G03X9632300Y2369400I-5077J427D01*
G02X9600000Y2383700I4160J53025D01*
G02X9563500Y2369200I-36500J38690D01*
G02X9512200Y2408200I0J53240D01*
G02X9500000Y2406800I-12126J51809D01*
G02X9487800Y2408200I-74J53209D01*
G02X9436500Y2369200I-51300J14240D01*
G02X9400000Y2383700I0J53190D01*
G02X9363500Y2369200I-36500J38690D01*
G02X9318000Y2394800I0J53235D01*
G02X9290000Y2386800I-28053J45185D01*
G02Y2493200I0J53200D01*
G02X9335500Y2467600I0J-53235D01*
G37*
G36*
G01X10991300Y2474200D02*
G02X11003500Y2475600I12126J-51809D01*
G02X11040000Y2461100I0J-53190D01*
G02X11076500Y2475600I36500J-38690D01*
G02X11088700Y2474200I74J-53209D01*
G02X11140000Y2513200I51300J-14240D01*
G02Y2406800I0J-53200D01*
G02X11127800Y2408200I-74J53209D01*
G02X11076500Y2369200I-51300J14240D01*
G02X11040000Y2383700I0J53190D01*
G02X11003500Y2369200I-36500J38690D01*
G02X10952200Y2408200I0J53240D01*
G02X10940000Y2406800I-12126J51809D01*
G02X10927800Y2408200I-74J53209D01*
G02X10876500Y2369200I-51300J14240D01*
G02X10840000Y2383700I0J53190D01*
G02X10803500Y2369200I-36500J38690D01*
G02X10752200Y2408200I0J53240D01*
G02X10740000Y2406800I-12126J51809D01*
G02Y2513200I0J53200D01*
G02X10791300Y2474200I0J-53240D01*
G02X10803500Y2475600I12126J-51809D01*
G02X10840000Y2461100I0J-53190D01*
G02X10876500Y2475600I36500J-38690D01*
G02X10888700Y2474200I74J-53209D01*
G02X10991300I51300J-14240D01*
G37*
G36*
G01X12492100Y2475400D02*
G03X12496800Y2480500I-404J5088D01*
G02X12550000Y2533200I53200J-502D01*
G02X12603200Y2480000I0J-53200D01*
G02X12554400Y2427000I-53181J0D01*
G03X12549700Y2421900I404J-5088D01*
G02X12496500Y2369200I-53200J502D01*
G02X12460000Y2383700I0J53190D01*
G02X12423500Y2369200I-36500J38690D01*
G02X12371100Y2412900I0J53266D01*
G03X12365600Y2417100I-5009J-858D01*
G02X12360000Y2416800I-5642J52898D01*
G02X12354400Y2417100I42J53198D01*
G03X12348900Y2412900I-491J-5058D01*
G02X12296500Y2369200I-52400J9566D01*
G02X12260000Y2383700I0J53190D01*
G02X12223500Y2369200I-36500J38690D01*
G02X12170300Y2421900I0J53202D01*
G03X12165600Y2427000I-5104J12D01*
G02X12116800Y2480000I4381J53000D01*
G02X12170000Y2533200I53200J0D01*
G02X12223200Y2480500I0J-53202D01*
G03X12227900Y2475400I5104J-12D01*
G02X12260000Y2461100I-4381J-53012D01*
G02X12296500Y2475600I36500J-38690D01*
G02X12302100Y2475300I-42J-53198D01*
G03X12307600Y2479500I491J5058D01*
G02X12412400I52400J-9566D01*
G03X12417900Y2475300I5009J858D01*
G02X12423500Y2475600I5642J-52898D01*
G02X12460000Y2461100I0J-53190D01*
G02X12492100Y2475400I36481J-38712D01*
G37*
G36*
G01X13043100Y2462200D02*
G03X13035900I-3600J-3645D01*
G02X12998500Y2446800I-37400J37714D01*
G02Y2553200I0J53200D01*
G02X13035900Y2537800I0J-53114D01*
G03X13043100I3600J3645D01*
G02X13080500Y2553200I37400J-37714D01*
G02Y2446800I0J-53200D01*
G02X13043100Y2462200I0J53114D01*
G37*
G36*
G01X8131300Y2534200D02*
G02X8143500Y2535600I12126J-51809D01*
G02X8180000Y2521100I0J-53190D01*
G02X8216500Y2535600I36500J-38690D01*
G02X8228700Y2534200I74J-53209D01*
G02X8280000Y2573200I51300J-14240D01*
G02Y2466800I0J-53200D01*
G02X8267800Y2468200I-74J53209D01*
G02X8216500Y2429200I-51300J14240D01*
G02X8180000Y2443700I0J53190D01*
G02X8143500Y2429200I-36500J38690D01*
G02X8092200Y2468200I0J53240D01*
G02X8080000Y2466800I-12126J51809D01*
G02X8067800Y2468200I-74J53209D01*
G02X8016500Y2429200I-51300J14240D01*
G02X7980000Y2443700I0J53190D01*
G02X7943500Y2429200I-36500J38690D01*
G02X7895500Y2459500I0J53170D01*
G03X7889300Y2462100I-4582J-2233D01*
G02X7872500Y2459400I-16735J50510D01*
G02Y2565800I0J53200D01*
G02X7920500Y2535500I0J-53170D01*
G03X7926700Y2532900I4582J2233D01*
G02X7943500Y2535600I16735J-50510D01*
G02X7980000Y2521100I0J-53190D01*
G02X8016500Y2535600I36500J-38690D01*
G02X8028700Y2534200I74J-53209D01*
G02X8131300I51300J-14240D01*
G37*
G36*
G01X11722200Y2482500D02*
G03X11707800I-7200J-7156D01*
G02X11670000Y2466800I-37745J37523D01*
G02Y2573200I0J53200D01*
G02X11707800Y2557500I55J-53223D01*
G03X11722200I7200J7156D01*
G02X11760000Y2573200I37745J-37523D01*
G02Y2466800I0J-53200D01*
G02X11722200Y2482500I-55J53223D01*
G37*
G36*
G01X2357300Y2682000D02*
G03Y2698000I-6276J8000D01*
G02X2336800Y2740000I32774J42000D01*
G02X2443200I53200J0D01*
G02X2422700Y2698000I-53274J0D01*
G03Y2682000I6276J-8000D01*
G02X2443200Y2640000I-32774J-42000D01*
G02X2336800I-53200J0D01*
G02X2357300Y2682000I53274J0D01*
G37*
G36*
G01X7647300D02*
G03Y2698000I-6276J8000D01*
G02X7626800Y2740000I32774J42000D01*
G02X7733200I53200J0D01*
G02X7712700Y2698000I-53274J0D01*
G03Y2682000I6276J-8000D01*
G02X7733200Y2640000I-32774J-42000D01*
G02X7626800I-53200J0D01*
G02X7647300Y2682000I53274J0D01*
G37*
G36*
G01X7807300D02*
G03Y2698000I-6276J8000D01*
G02X7786800Y2740000I32774J42000D01*
G02X7893200I53200J0D01*
G02X7872700Y2698000I-53274J0D01*
G03Y2682000I6276J-8000D01*
G02X7893200Y2640000I-32774J-42000D01*
G02X7786800I-53200J0D01*
G02X7807300Y2682000I53274J0D01*
G37*
G36*
G01X6360600Y2699800D02*
G03X6355800Y2712600I-9468J3750D01*
G02X6326800Y2760000I24237J47400D01*
G02X6433200I53200J0D01*
G02X6429400Y2740200I-53210J-53D01*
G03X6434200Y2727400I9468J-3750D01*
G02X6455200Y2708100I-24192J-47397D01*
G03X6471300Y2706500I8663J5366D01*
G01X6474600Y2710000D01*
X6471300Y2713500D01*
G02X6456800Y2750000I38690J36500D01*
G02X6563200I53200J0D01*
G02X6548700Y2713500I-53190J0D01*
G03Y2706500I3711J-3500D01*
G02X6563200Y2670000I-38690J-36500D01*
G02X6529400Y2620500I-53146J0D01*
G03X6523400Y2608000I3752J-9491D01*
G02X6525700Y2592500I-50904J-15474D01*
G02X6419300I-53200J0D01*
G02X6423300Y2612800I53212J59D01*
G03X6413300Y2626900I-9400J3929D01*
G02X6410000Y2626800I-3261J53101D01*
G02X6356800Y2680000I0J53200D01*
G02X6360600Y2699800I53210J53D01*
G37*
G36*
G01X11456900Y2742300D02*
G03X11442600I-7150J-7207D01*
G02X11405000Y2726800I-37545J37723D01*
G02Y2833200I0J53200D01*
G02X11442600Y2817700I55J-53223D01*
G03X11456900I7150J7207D01*
G02X11494500Y2833200I37545J-37723D01*
G02Y2726800I0J-53200D01*
G02X11456900Y2742300I-55J53223D01*
G37*
G36*
G01X8610000Y2765900D02*
G03X8594700Y2761100I-5764J-8413D01*
G02X8545000Y2726800I-49700J18857D01*
G02Y2833200I0J53200D01*
G02X8574800Y2824100I40J-53212D01*
G03X8590100Y2828900I5764J8413D01*
G02X8639800Y2863200I49700J-18857D01*
G02Y2756800I0J-53200D01*
G02X8610000Y2765900I-40J53212D01*
G37*
G36*
G01X9992700Y2815400D02*
G03X10007900Y2821900I5259J8725D01*
G02X10059800Y2863200I51900J-11960D01*
G02Y2756800I0J-53200D01*
G02X10032100Y2764600I0J53085D01*
G03X10016900Y2758100I-5259J-8725D01*
G02X9965000Y2716800I-51900J11960D01*
G02Y2823200I0J53200D01*
G02X9992700Y2815400I0J-53085D01*
G37*
G36*
G01X13297800Y2822500D02*
G02X13308900Y2790000I-42029J-32500D01*
G02X13202500I-53200J0D01*
G02X13217900Y2827500I53223J55D01*
G02X13206800Y2860000I42029J32500D01*
G02X13313200I53200J0D01*
G02X13297800Y2822500I-53223J-55D01*
G37*
G36*
G01X6587200Y2967500D02*
G03X6572800I-7200J-7156D01*
G02X6535000Y2951800I-37745J37523D01*
G02Y3058200I0J53200D01*
G02X6572800Y3042500I55J-53223D01*
G03X6587200I7200J7156D01*
G02X6625000Y3058200I37745J-37523D01*
G02Y2951800I0J-53200D01*
G02X6587200Y2967500I-55J53223D01*
G37*
G36*
G01X8828900Y3256200D02*
G03X8839400Y3267000I322J10191D01*
G02X8839300Y3270000I53091J3271D01*
G02X8945700I53200J0D01*
G02X8945600Y3267000I-53191J271D01*
G03X8956100Y3256200I10178J-609D01*
G01X8957500D01*
G02X8904300Y3203000I0J-53200D01*
G02X8904400Y3206000I53191J-271D01*
G03X8893900Y3216800I-10178J609D01*
G01X8892500D01*
X8891100D01*
G03X8880600Y3206000I-322J-10191D01*
G02X8880700Y3203000I-53091J-3271D01*
G02X8827500Y3256200I-53200J0D01*
G01X8828900D01*
G37*
G36*
G01X10255300Y3255600D02*
G03X10266900Y3266400I1426J10098D01*
G02X10266800Y3270000I53109J3277D01*
G02X10373200I53200J0D01*
G02X10373100Y3266800I-53198J61D01*
G03X10382300Y3256000I10172J-654D01*
G02X10430700Y3203000I-4819J-53000D01*
G02X10324300I-53200J0D01*
G02X10324400Y3206200I53198J-61D01*
G03X10315200Y3217000I-10172J654D01*
G02X10312200Y3217400I5527J52903D01*
G03X10300600Y3206600I-1426J-10098D01*
G02X10300700Y3203000I-53109J-3277D01*
G02X10247500Y3256200I-53200J0D01*
G02X10255300Y3255600I-168J-53187D01*
G37*
G36*
G01X11690100Y3256100D02*
G03X11700600Y3268500I515J10210D01*
G02X11699300Y3280000I51879J11688D01*
G02X11805700I53200J0D01*
G02X11803800Y3266000I-53188J89D01*
G03X11814700Y3253100I9834J-2746D01*
G02X11820200Y3253400I5643J-52892D01*
G02X11767000Y3200200I0J-53200D01*
G02X11768900Y3214200I53188J-89D01*
G03X11758000Y3227100I-9834J2746D01*
G02X11752500Y3226800I-5643J52892D01*
G02X11749900Y3226900I743J53171D01*
G03X11739400Y3214500I-515J-10210D01*
G02X11740700Y3203000I-51879J-11688D01*
G02X11687500Y3256200I-53200J0D01*
G02X11690100Y3256100I-743J-53171D01*
G37*
G36*
G01X10444000Y3406100D02*
G02X10480500Y3420600I36500J-38690D01*
G02Y3314200I0J-53200D01*
G02X10444000Y3328700I0J53190D01*
G02X10407500Y3314200I-36500J38690D01*
G02Y3420600I0J53200D01*
G02X10444000Y3406100I0J-53190D01*
G37*
G36*
G01X1424000Y3466100D02*
G02X1460500Y3480600I36500J-38690D01*
G02Y3374200I0J-53200D01*
G02X1424000Y3388700I0J53190D01*
G02X1387500Y3374200I-36500J38690D01*
G02Y3480600I0J53200D01*
G02X1424000Y3466100I0J-53190D01*
G37*
G36*
G01X2849000D02*
G02X2885500Y3480600I36500J-38690D01*
G02Y3374200I0J-53200D01*
G02X2849000Y3388700I0J53190D01*
G02X2812500Y3374200I-36500J38690D01*
G02Y3480600I0J53200D01*
G02X2849000Y3466100I0J-53190D01*
G37*
G36*
G01X4274000D02*
G02X4310500Y3480600I36500J-38690D01*
G02Y3374200I0J-53200D01*
G02X4274000Y3388700I0J53190D01*
G02X4237500Y3374200I-36500J38690D01*
G02Y3480600I0J53200D01*
G02X4274000Y3466100I0J-53190D01*
G37*
G36*
G01X5699000D02*
G02X5735500Y3480600I36500J-38690D01*
G02Y3374200I0J-53200D01*
G02X5699000Y3388700I0J53190D01*
G02X5662500Y3374200I-36500J38690D01*
G02Y3480600I0J53200D01*
G02X5699000Y3466100I0J-53190D01*
G37*
G36*
G01X7594000D02*
G02X7630500Y3480600I36500J-38690D01*
G02Y3374200I0J-53200D01*
G02X7594000Y3388700I0J53190D01*
G02X7557500Y3374200I-36500J38690D01*
G02Y3480600I0J53200D01*
G02X7594000Y3466100I0J-53190D01*
G37*
G36*
G01X11869000D02*
G02X11905500Y3480600I36500J-38690D01*
G02Y3374200I0J-53200D01*
G02X11869000Y3388700I0J53190D01*
G02X11832500Y3374200I-36500J38690D01*
G02Y3480600I0J53200D01*
G02X11869000Y3466100I0J-53190D01*
G37*
G36*
G01X9019000Y3566100D02*
G02X9055500Y3580600I36500J-38690D01*
G02Y3474200I0J-53200D01*
G02X9019000Y3488700I0J53190D01*
G02X8982500Y3474200I-36500J38690D01*
G02Y3580600I0J53200D01*
G02X9019000Y3566100I0J-53190D01*
G37*
G36*
G01X10553600Y3533100D02*
G03X10547800Y3537400I-5042J-739D01*
G02X10540000Y3536800I-7968J52587D01*
G02Y3643200I0J53200D01*
G02X10577800Y3627400I0J-53116D01*
G03X10585000Y3627300I3650J3569D01*
G02X10660000Y3657700I75000J-77316D01*
G02X10746600Y3614000I0J-107657D01*
G03X10762700Y3613600I8205J6041D01*
G02X10804000Y3633200I41300J-33712D01*
G02Y3526800I0J-53200D01*
G02X10779600Y3532700I-47J53211D01*
G03X10765000Y3525900I-4671J-9044D01*
G02X10660000Y3442300I-105000J24139D01*
G02X10553600Y3533100I0J107740D01*
G37*
G36*
G01X1561200Y3633700D02*
G03X1575600Y3632400I7844J6484D01*
G02X1645000Y3657700I69400J-82535D01*
G02X1719200Y3628100I0J-107801D01*
G03X1735500Y3631300I7011J7404D01*
G02X1784000Y3662700I48500J-21756D01*
G02Y3556300I0J-53200D01*
G02X1766300Y3559300I-85J53214D01*
G03X1752700Y3549700I-3413J-9598D01*
G02X1645000Y3442300I-107700J300D01*
G02X1537900Y3538200I0J107754D01*
G03X1526600Y3547200I-10117J-1108D01*
G02X1520000Y3546800I-6512J52805D01*
G02Y3653200I0J53200D01*
G02X1561200Y3633700I0J-53274D01*
G37*
G36*
G01X2979000Y3626200D02*
G03X2993700Y3626000I7446J6965D01*
G02X3070000Y3657700I76300J-75975D01*
G02X3144200Y3628100I0J-107801D01*
G03X3160500Y3631300I7011J7404D01*
G02X3209000Y3662700I48500J-21756D01*
G02Y3556300I0J-53200D01*
G02X3191300Y3559300I-85J53214D01*
G03X3177700Y3549700I-3413J-9598D01*
G02X3070000Y3442300I-107700J300D01*
G02X2964200Y3530100I0J107645D01*
G03X2951900Y3538100I-10011J-1936D01*
G02X2940000Y3536800I-11693J51923D01*
G02Y3643200I0J53200D01*
G02X2979000Y3626200I0J-53235D01*
G37*
G36*
G01X4401500Y3623700D02*
G03X4416400Y3623600I7497J6916D01*
G02X4495000Y3657700I78600J-73536D01*
G02X4569200Y3628100I0J-107801D01*
G03X4585500Y3631300I7011J7404D01*
G02X4634000Y3662700I48500J-21756D01*
G02Y3556300I0J-53200D01*
G02X4616300Y3559300I-85J53214D01*
G03X4602700Y3549700I-3413J-9598D01*
G02X4495000Y3442300I-107700J300D01*
G02X4389500Y3528500I0J107661D01*
G03X4376800Y3536200I-9967J-2115D01*
G02X4362500Y3534300I-14096J51327D01*
G02Y3640700I0J53200D01*
G02X4401500Y3623700I0J-53235D01*
G37*
G36*
G01X5812400Y3554800D02*
G03X5807900Y3560100I-5103J227D01*
G02X5760900Y3612900I6158J52800D01*
G02X5814100Y3666100I53200J0D01*
G02X5857500Y3643600I0J-53107D01*
G03X5864300Y3642200I4155J2967D01*
G02X5920000Y3657700I55700J-92330D01*
G02X5994200Y3628100I0J-107801D01*
G03X6010500Y3631300I7011J7404D01*
G02X6059000Y3662700I48500J-21756D01*
G02Y3556300I0J-53200D01*
G02X6041300Y3559300I-85J53214D01*
G03X6027700Y3549700I-3413J-9598D01*
G02X5920000Y3442300I-107700J300D01*
G02X5812300Y3550000I0J107700D01*
G02X5812400Y3554800I107703J157D01*
G37*
G36*
G01X7703600Y3567000D02*
G03X7700000Y3572700I-5025J813D01*
G02X7660800Y3624000I13967J51300D01*
G02X7714000Y3677200I53200J0D01*
G02X7760000Y3650600I0J-53074D01*
G03X7766500Y3648500I4425J2588D01*
G02X7810000Y3657700I43553J-98489D01*
G02X7887400Y3624900I0J-107723D01*
G03X7904300Y3628400I7346J7082D01*
G02X7954000Y3662700I49700J-18857D01*
G02Y3556300I0J-53200D01*
G02X7932100Y3561000I-35J53208D01*
G03X7917700Y3551600I-4213J-9276D01*
G01Y3550000D01*
G02X7702300I-107700J0D01*
G02X7703600Y3567000I107724J312D01*
G37*
G36*
G01X9128600D02*
G03X9125000Y3572700I-5025J813D01*
G02X9085800Y3624000I13967J51300D01*
G02X9139000Y3677200I53200J0D01*
G02X9185000Y3650600I0J-53074D01*
G03X9191500Y3648500I4425J2588D01*
G02X9235000Y3657700I43553J-98489D01*
G02X9312400Y3624900I0J-107723D01*
G03X9329300Y3628400I7346J7082D01*
G02X9379000Y3662700I49700J-18857D01*
G02Y3556300I0J-53200D01*
G02X9357100Y3561000I-35J53208D01*
G03X9342700Y3551600I-4213J-9276D01*
G01Y3550000D01*
G02X9127300I-107700J0D01*
G02X9128600Y3567000I107724J312D01*
G37*
G36*
G01X11978600D02*
G03X11975000Y3572700I-5025J813D01*
G02X11935800Y3624000I13967J51300D01*
G02X11989000Y3677200I53200J0D01*
G02X12035000Y3650600I0J-53074D01*
G03X12041500Y3648500I4425J2588D01*
G02X12085000Y3657700I43553J-98489D01*
G02X12162400Y3624900I0J-107723D01*
G03X12179300Y3628400I7346J7082D01*
G02X12229000Y3662700I49700J-18857D01*
G02Y3556300I0J-53200D01*
G02X12207100Y3561000I-35J53208D01*
G03X12192700Y3551600I-4213J-9276D01*
G01Y3550000D01*
G02X11977300I-107700J0D01*
G02X11978600Y3567000I107724J312D01*
G37*
G36*
G01X3900800Y3752500D02*
G03X3889000Y3744000I-1725J-10046D01*
G02X3782500Y3652300I-106500J15994D01*
G02Y3867700I0J107700D01*
G02X3855200Y3839500I0J-107811D01*
G03X3869700Y3840300I6856J7535D01*
G02X3909500Y3858200I39800J-35297D01*
G02Y3751800I0J-53200D01*
G02X3900800Y3752500I-97J53208D01*
G37*
G36*
G01X10066700Y3753400D02*
G03X10054100Y3744900I-2478J-9916D01*
G02X9947500Y3652300I-106600J15058D01*
G02Y3867700I0J107700D01*
G02X10022700Y3837100I0J-107703D01*
G03X10037800Y3838100I7100J7300D01*
G02X10079500Y3858200I41700J-33206D01*
G02Y3751800I0J-53200D01*
G02X10066700Y3753400I148J53182D01*
G37*
G36*
G01X8647600Y3754500D02*
G03X8634300Y3746100I-3171J-9709D01*
G02X8522500Y3647300I-111800J13855D01*
G02Y3872700I0J112700D01*
G02X8605800Y3835900I0J-112678D01*
G03X8621600Y3836700I7574J6841D01*
G02X8664300Y3858200I42700J-31652D01*
G02Y3751800I0J-53200D01*
G02X8647600Y3754500I32J53195D01*
G37*
G36*
G01X13329400Y4068300D02*
G03X13325500Y4082800I-8602J5461D01*
G02X13296800Y4130000I24463J47200D01*
G02X13403200I53200J0D01*
G02X13395100Y4101700I-53222J-76D01*
G03X13399000Y4087200I8602J-5461D01*
G02X13427700Y4040000I-24463J-47200D01*
G02X13321300I-53200J0D01*
G02X13329400Y4068300I53222J76D01*
G37*
G36*
G01X1307500Y4390800D02*
G03X1300500I-3500J-3711D01*
G02X1264000Y4376300I-36500J38690D01*
G02Y4482700I0J53200D01*
G02X1300500Y4468200I0J-53190D01*
G03X1307500I3500J3711D01*
G02X1344000Y4482700I36500J-38690D01*
G02Y4376300I0J-53200D01*
G02X1307500Y4390800I0J53190D01*
G37*
G36*
G01X2732500D02*
G03X2725500I-3500J-3711D01*
G02X2689000Y4376300I-36500J38690D01*
G02Y4482700I0J53200D01*
G02X2725500Y4468200I0J-53190D01*
G03X2732500I3500J3711D01*
G02X2769000Y4482700I36500J-38690D01*
G02Y4376300I0J-53200D01*
G02X2732500Y4390800I0J53190D01*
G37*
G36*
G01X4157500D02*
G03X4150500I-3500J-3711D01*
G02X4114000Y4376300I-36500J38690D01*
G02Y4482700I0J53200D01*
G02X4150500Y4468200I0J-53190D01*
G03X4157500I3500J3711D01*
G02X4194000Y4482700I36500J-38690D01*
G02Y4376300I0J-53200D01*
G02X4157500Y4390800I0J53190D01*
G37*
G36*
G01X5551900Y4428500D02*
G03X5566300Y4436400I4283J9267D01*
G02X5619000Y4482700I52700J-6842D01*
G02Y4376300I0J-53200D01*
G02X5597100Y4381000I-35J53208D01*
G03X5582700Y4373100I-4283J-9267D01*
G02X5530000Y4326800I-52700J6842D01*
G02Y4433200I0J53200D01*
G02X5551900Y4428500I35J-53208D01*
G37*
G36*
G01X7477500Y4390800D02*
G03X7470500I-3500J-3711D01*
G02X7434000Y4376300I-36500J38690D01*
G02Y4482700I0J53200D01*
G02X7470500Y4468200I0J-53190D01*
G03X7477500I3500J3711D01*
G02X7514000Y4482700I36500J-38690D01*
G02Y4376300I0J-53200D01*
G02X7477500Y4390800I0J53190D01*
G37*
G36*
G01X8902500D02*
G03X8895500I-3500J-3711D01*
G02X8859000Y4376300I-36500J38690D01*
G02Y4482700I0J53200D01*
G02X8895500Y4468200I0J-53190D01*
G03X8902500I3500J3711D01*
G02X8939000Y4482700I36500J-38690D01*
G02Y4376300I0J-53200D01*
G02X8902500Y4390800I0J53190D01*
G37*
G36*
G01X11752500D02*
G03X11745500I-3500J-3711D01*
G02X11709000Y4376300I-36500J38690D01*
G02Y4482700I0J53200D01*
G02X11745500Y4468200I0J-53190D01*
G03X11752500I3500J3711D01*
G02X11789000Y4482700I36500J-38690D01*
G02Y4376300I0J-53200D01*
G02X11752500Y4390800I0J53190D01*
G37*
G36*
G01X10327500Y4400600D02*
G03X10320500I-3500J-3711D01*
G02X10284000Y4386100I-36500J38690D01*
G02Y4492500I0J53200D01*
G02X10320500Y4478000I0J-53190D01*
G03X10327500I3500J3711D01*
G02X10364000Y4492500I36500J-38690D01*
G02Y4386100I0J-53200D01*
G02X10327500Y4400600I0J53190D01*
G37*
G36*
G01X2312600Y4863400D02*
G03X2312800Y4882000I-4047J9345D01*
G02X2249800Y4980000I44722J98000D01*
G02X2465200I107700J0D01*
G02X2402200Y4882000I-107722J0D01*
G03X2402400Y4863400I4247J-9255D01*
G02X2470200Y4760000I-44946J-103400D01*
G02X2244800I-112700J0D01*
G02X2312600Y4863400I112746J0D01*
G37*
G36*
G01X6587600D02*
G03X6587800Y4882000I-4047J9345D01*
G02X6524800Y4980000I44722J98000D01*
G02X6740200I107700J0D01*
G02X6677200Y4882000I-107722J0D01*
G03X6677400Y4863400I4247J-9255D01*
G02X6745200Y4760000I-44946J-103400D01*
G02X6519800I-112700J0D01*
G02X6587600Y4863400I112746J0D01*
G37*
G36*
G01X8477600D02*
G03X8477800Y4882000I-4047J9345D01*
G02X8414800Y4980000I44722J98000D01*
G02X8630200I107700J0D01*
G02X8567200Y4882000I-107722J0D01*
G03X8567400Y4863400I4247J-9255D01*
G02X8635200Y4760000I-44946J-103400D01*
G02X8409800I-112700J0D01*
G02X8477600Y4863400I112746J0D01*
G37*
G36*
G01X12752600D02*
G03X12752800Y4882000I-4047J9345D01*
G02X12689800Y4980000I44722J98000D01*
G02X12905200I107700J0D01*
G02X12842200Y4882000I-107722J0D01*
G03X12842400Y4863400I4247J-9255D01*
G02X12910200Y4760000I-44946J-103400D01*
G02X12684800I-112700J0D01*
G02X12752600Y4863400I112746J0D01*
G37*
G36*
G01X13086800Y5162100D02*
G03X13082500Y5167300I-5071J185D01*
G02X13036800Y5220000I7536J52700D01*
G02X13143200I53200J0D01*
G01Y5217900D01*
G03X13147500Y5212700I5071J-185D01*
G02X13193200Y5160000I-7536J-52700D01*
G02X13192800Y5153300I-53211J-185D01*
G03X13200800Y5142100I10111J-1235D01*
G02X13243200Y5090000I-10810J-52100D01*
G01Y5087900D01*
G03X13247500Y5082700I5071J-185D01*
G02X13293200Y5030000I-7536J-52700D01*
G02X13186800I-53200J0D01*
G01Y5032100D01*
G03X13182500Y5037300I-5071J185D01*
G02X13136800Y5090000I7536J52700D01*
G02X13137200Y5096700I53211J185D01*
G03X13129200Y5107900I-10111J1235D01*
G02X13086800Y5160000I10810J52100D01*
G01Y5162100D01*
G37*
G36*
G01X13472500Y5212700D02*
G03X13476800Y5217900I-771J5015D01*
G01Y5220000D01*
G02X13583200I53200J0D01*
G02X13537500Y5167300I-53236J0D01*
G03X13533200Y5162100I771J-5015D01*
G01Y5160000D01*
G02X13490800Y5107900I-53210J0D01*
G03X13482800Y5096700I2111J-9965D01*
G02X13483200Y5090000I-52811J-6515D01*
G02X13437500Y5037300I-53236J0D01*
G03X13433200Y5032100I771J-5015D01*
G01Y5030000D01*
G02X13326800I-53200J0D01*
G02X13372500Y5082700I53236J0D01*
G03X13376800Y5087900I-771J5015D01*
G01Y5090000D01*
G02X13419200Y5142100I53210J0D01*
G03X13427200Y5153300I-2111J9965D01*
G02X13426800Y5160000I52811J6515D01*
G02X13472500Y5212700I53236J0D01*
G37*
G36*
G01X3952200Y742200D02*
G02X4002500Y778200I50300J-17140D01*
G02X4039000Y763700I0J-53190D01*
G02X4075500Y778200I36500J-38690D01*
G02Y671800I0J-53200D01*
G02X4039000Y686300I0J53190D01*
G02X4002500Y671800I-36500J38690D01*
G02X3958400Y695200I0J53256D01*
G03X3940300Y692800I-8451J-5715D01*
G02X3890000Y656800I-50300J17140D01*
G02Y763200I0J53200D01*
G02X3934100Y739800I0J-53256D01*
G03X3952200Y742200I8451J5715D01*
G37*
G36*
G01X5404000Y763700D02*
G02X5477000I36500J-38690D01*
G02X5513500Y778200I36500J-38690D01*
G02Y671800I0J-53200D01*
G02X5477000Y686300I0J53190D01*
G02X5404000I-36500J38690D01*
G02X5331000I-36500J38690D01*
G02X5258000I-36500J38690D01*
G02X5185000I-36500J38690D01*
G02X5112000I-36500J38690D01*
G02X5039000I-36500J38690D01*
G02X5002500Y671800I-36500J38690D01*
G02X4958400Y695200I0J53256D01*
G03X4940300Y692800I-8451J-5715D01*
G02X4890000Y656800I-50300J17140D01*
G02Y763200I0J53200D01*
G02X4934100Y739800I0J-53256D01*
G03X4952200Y742200I8451J5715D01*
G02X5002500Y778200I50300J-17140D01*
G02X5039000Y763700I0J-53190D01*
G02X5112000I36500J-38690D01*
G02X5185000I36500J-38690D01*
G02X5258000I36500J-38690D01*
G02X5331000I36500J-38690D01*
G02X5404000I36500J-38690D01*
G37*
G36*
G01X9117800Y754600D02*
G02X9074500Y732300I-43300J30888D01*
G02Y838700I0J53200D01*
G02X9124600Y803300I0J-53152D01*
G03X9142600Y800800I9640J3361D01*
G02X9185900Y823100I43300J-30888D01*
G02Y716700I0J-53200D01*
G02X9135800Y752100I0J53152D01*
G03X9117800Y754600I-9640J-3361D01*
G37*
G36*
G01X9538000Y965400D02*
G02X9513700Y1010100I28963J44700D01*
G02X9620100I53200J0D01*
G02X9584200Y959800I-53188J0D01*
G03X9582000Y941600I3319J-9634D01*
G02X9606300Y896900I-28963J-44700D01*
G02X9499900I-53200J0D01*
G02X9535800Y947200I53188J0D01*
G03X9538000Y965400I-3319J9634D01*
G37*
G36*
G01X2011800Y1424900D02*
G02X1986800Y1470000I28180J45100D01*
G02X2093200I53200J0D01*
G02X2064600Y1422800I-53248J0D01*
G03X2063900Y1405100I4688J-9049D01*
G02X2088900Y1360000I-28180J-45100D01*
G02X1982500I-53200J0D01*
G02X2011100Y1407200I53248J0D01*
G03X2011800Y1424900I-4688J9049D01*
G37*
G36*
G01X10246200Y2453500D02*
G02X10200000Y2426800I-46200J26621D01*
G02Y2533200I0J53200D01*
G02X10246200Y2506500I0J-53321D01*
G03X10263800I8800J5030D01*
G02X10310000Y2533200I46200J-26621D01*
G02Y2426800I0J-53200D01*
G02X10263800Y2453500I0J53321D01*
G03X10246200I-8800J-5030D01*
G37*
G36*
G01X4077300Y2698000D02*
G02X4056800Y2740000I32774J42000D01*
G02X4163200I53200J0D01*
G02X4142700Y2698000I-53274J0D01*
G03Y2682000I6276J-8000D01*
G02X4163200Y2642000I-32684J-42004D01*
G03X4179600Y2634300I10180J366D01*
G02X4212500Y2645700I32900J-41774D01*
G02Y2539300I0J-53200D01*
G02X4159300Y2590500I0J53239D01*
G03X4142900Y2598200I-10180J-366D01*
G02X4110000Y2586800I-32900J41774D01*
G02X4056800Y2640000I0J53200D01*
G02X4077300Y2682000I53274J0D01*
G03Y2698000I-6276J8000D01*
G37*
G36*
G01X13023200Y3269900D02*
G02X13019300Y3290000I49320J19998D01*
G02X13125700I53200J0D01*
G02X13121800Y3269900I-53220J-102D01*
G03X13132200Y3255900I9440J-3850D01*
G02X13137500Y3256200I5652J-52880D01*
G02X13084300Y3203000I0J-53200D01*
G02X13088200Y3223100I53220J102D01*
G03X13077800Y3237100I-9440J3850D01*
G02X13072500Y3236800I-5652J52880D01*
G02X13067200Y3237100I352J53180D01*
G03X13056800Y3223100I-960J-10150D01*
G02X13060700Y3203000I-49320J-19998D01*
G02X13007500Y3256200I-53200J0D01*
G02X13012800Y3255900I-352J-53180D01*
G03X13023200Y3269900I960J10150D01*
G37*
G36*
G01X1753800Y4861000D02*
G02X1846200I46200J-26621D01*
G03X1863800I8800J5030D01*
G02X1910000Y4887700I46200J-26621D01*
G02Y4781300I0J-53200D01*
G02X1863800Y4808000I0J53321D01*
G03X1846200I-8800J-5030D01*
G02X1753800I-46200J26621D01*
G03X1736200I-8800J-5030D01*
G02X1643800I-46200J26621D01*
G03X1626200I-8800J-5030D01*
G02X1533800I-46200J26621D01*
G03X1516200I-8800J-5030D01*
G02X1423800I-46200J26621D01*
G03X1406200I-8800J-5030D01*
G02X1360000Y4781300I-46200J26621D01*
G02Y4887700I0J53200D01*
G02X1406200Y4861000I0J-53321D01*
G03X1423800I8800J5030D01*
G02X1516200I46200J-26621D01*
G03X1533800I8800J5030D01*
G02X1626200I46200J-26621D01*
G03X1643800I8800J5030D01*
G02X1736200I46200J-26621D01*
G03X1753800I8800J5030D01*
G37*
G36*
G01X3178800D02*
G02X3271200I46200J-26621D01*
G03X3288800I8800J5030D01*
G02X3335000Y4887700I46200J-26621D01*
G02Y4781300I0J-53200D01*
G02X3288800Y4808000I0J53321D01*
G03X3271200I-8800J-5030D01*
G02X3178800I-46200J26621D01*
G03X3161200I-8800J-5030D01*
G02X3068800I-46200J26621D01*
G03X3051200I-8800J-5030D01*
G02X2958800I-46200J26621D01*
G03X2941200I-8800J-5030D01*
G02X2848800I-46200J26621D01*
G03X2831200I-8800J-5030D01*
G02X2785000Y4781300I-46200J26621D01*
G02Y4887700I0J53200D01*
G02X2831200Y4861000I0J-53321D01*
G03X2848800I8800J5030D01*
G02X2941200I46200J-26621D01*
G03X2958800I8800J5030D01*
G02X3051200I46200J-26621D01*
G03X3068800I8800J5030D01*
G02X3161200I46200J-26621D01*
G03X3178800I8800J5030D01*
G37*
G36*
G01X4603800D02*
G02X4696200I46200J-26621D01*
G03X4713800I8800J5030D01*
G02X4760000Y4887700I46200J-26621D01*
G02Y4781300I0J-53200D01*
G02X4713800Y4808000I0J53321D01*
G03X4696200I-8800J-5030D01*
G02X4603800I-46200J26621D01*
G03X4586200I-8800J-5030D01*
G02X4493800I-46200J26621D01*
G03X4476200I-8800J-5030D01*
G02X4383800I-46200J26621D01*
G03X4366200I-8800J-5030D01*
G02X4273800I-46200J26621D01*
G03X4256200I-8800J-5030D01*
G02X4210000Y4781300I-46200J26621D01*
G02Y4887700I0J53200D01*
G02X4256200Y4861000I0J-53321D01*
G03X4273800I8800J5030D01*
G02X4366200I46200J-26621D01*
G03X4383800I8800J5030D01*
G02X4476200I46200J-26621D01*
G03X4493800I8800J5030D01*
G02X4586200I46200J-26621D01*
G03X4603800I8800J5030D01*
G37*
G36*
G01X6028800D02*
G02X6121200I46200J-26621D01*
G03X6138800I8800J5030D01*
G02X6185000Y4887700I46200J-26621D01*
G02Y4781300I0J-53200D01*
G02X6138800Y4808000I0J53321D01*
G03X6121200I-8800J-5030D01*
G02X6028800I-46200J26621D01*
G03X6011200I-8800J-5030D01*
G02X5918800I-46200J26621D01*
G03X5901200I-8800J-5030D01*
G02X5808800I-46200J26621D01*
G03X5791200I-8800J-5030D01*
G02X5698800I-46200J26621D01*
G03X5681200I-8800J-5030D01*
G02X5635000Y4781300I-46200J26621D01*
G02Y4887700I0J53200D01*
G02X5681200Y4861000I0J-53321D01*
G03X5698800I8800J5030D01*
G02X5791200I46200J-26621D01*
G03X5808800I8800J5030D01*
G02X5901200I46200J-26621D01*
G03X5918800I8800J5030D01*
G02X6011200I46200J-26621D01*
G03X6028800I8800J5030D01*
G37*
G36*
G01X7923800D02*
G02X8016200I46200J-26621D01*
G03X8033800I8800J5030D01*
G02X8080000Y4887700I46200J-26621D01*
G02Y4781300I0J-53200D01*
G02X8033800Y4808000I0J53321D01*
G03X8016200I-8800J-5030D01*
G02X7923800I-46200J26621D01*
G03X7906200I-8800J-5030D01*
G02X7813800I-46200J26621D01*
G03X7796200I-8800J-5030D01*
G02X7703800I-46200J26621D01*
G03X7686200I-8800J-5030D01*
G02X7593800I-46200J26621D01*
G03X7576200I-8800J-5030D01*
G02X7530000Y4781300I-46200J26621D01*
G02Y4887700I0J53200D01*
G02X7576200Y4861000I0J-53321D01*
G03X7593800I8800J5030D01*
G02X7686200I46200J-26621D01*
G03X7703800I8800J5030D01*
G02X7796200I46200J-26621D01*
G03X7813800I8800J5030D01*
G02X7906200I46200J-26621D01*
G03X7923800I8800J5030D01*
G37*
G36*
G01X9348800D02*
G02X9441200I46200J-26621D01*
G03X9458800I8800J5030D01*
G02X9505000Y4887700I46200J-26621D01*
G02Y4781300I0J-53200D01*
G02X9458800Y4808000I0J53321D01*
G03X9441200I-8800J-5030D01*
G02X9348800I-46200J26621D01*
G03X9331200I-8800J-5030D01*
G02X9238800I-46200J26621D01*
G03X9221200I-8800J-5030D01*
G02X9128800I-46200J26621D01*
G03X9111200I-8800J-5030D01*
G02X9018800I-46200J26621D01*
G03X9001200I-8800J-5030D01*
G02X8955000Y4781300I-46200J26621D01*
G02Y4887700I0J53200D01*
G02X9001200Y4861000I0J-53321D01*
G03X9018800I8800J5030D01*
G02X9111200I46200J-26621D01*
G03X9128800I8800J5030D01*
G02X9221200I46200J-26621D01*
G03X9238800I8800J5030D01*
G02X9331200I46200J-26621D01*
G03X9348800I8800J5030D01*
G37*
G36*
G01X10773800D02*
G02X10866200I46200J-26621D01*
G03X10883800I8800J5030D01*
G02X10930000Y4887700I46200J-26621D01*
G02Y4781300I0J-53200D01*
G02X10883800Y4808000I0J53321D01*
G03X10866200I-8800J-5030D01*
G02X10773800I-46200J26621D01*
G03X10756200I-8800J-5030D01*
G02X10663800I-46200J26621D01*
G03X10646200I-8800J-5030D01*
G02X10553800I-46200J26621D01*
G03X10536200I-8800J-5030D01*
G02X10443800I-46200J26621D01*
G03X10426200I-8800J-5030D01*
G02X10380000Y4781300I-46200J26621D01*
G02Y4887700I0J53200D01*
G02X10426200Y4861000I0J-53321D01*
G03X10443800I8800J5030D01*
G02X10536200I46200J-26621D01*
G03X10553800I8800J5030D01*
G02X10646200I46200J-26621D01*
G03X10663800I8800J5030D01*
G02X10756200I46200J-26621D01*
G03X10773800I8800J5030D01*
G37*
G36*
G01X12198800D02*
G02X12291200I46200J-26621D01*
G03X12308800I8800J5030D01*
G02X12355000Y4887700I46200J-26621D01*
G02Y4781300I0J-53200D01*
G02X12308800Y4808000I0J53321D01*
G03X12291200I-8800J-5030D01*
G02X12198800I-46200J26621D01*
G03X12181200I-8800J-5030D01*
G02X12088800I-46200J26621D01*
G03X12071200I-8800J-5030D01*
G02X11978800I-46200J26621D01*
G03X11961200I-8800J-5030D01*
G02X11868800I-46200J26621D01*
G03X11851200I-8800J-5030D01*
G02X11805000Y4781300I-46200J26621D01*
G02Y4887700I0J53200D01*
G02X11851200Y4861000I0J-53321D01*
G03X11868800I8800J5030D01*
G02X11961200I46200J-26621D01*
G03X11978800I8800J5030D01*
G02X12071200I46200J-26621D01*
G03X12088800I8800J5030D01*
G02X12181200I46200J-26621D01*
G03X12198800I8800J5030D01*
G37*
G36*
G01X1599700Y1272700D02*
G02X1596800Y1290000I50296J17324D01*
G02X1650000Y1236800I53200J0D01*
G02X1643600Y1237200I112J53193D01*
G03X1632700Y1223800I-1234J-10129D01*
G02X1635600Y1206500I-50296J-17324D01*
G02X1621100Y1170000I-53190J0D01*
G02X1635600Y1133300I-38699J-36504D01*
G03X1646500Y1123100I10192J-33D01*
G02X1650000Y1123200I3269J-53107D01*
G02Y1016800I0J-53200D01*
G02X1596800Y1070200I0J53200D01*
G03X1585900Y1080400I-10192J33D01*
G02X1582400Y1080300I-3269J53107D01*
G02X1529200Y1133500I0J53200D01*
G02X1543700Y1170000I53190J0D01*
G02X1529200Y1206500I38690J36500D01*
G02X1582400Y1259700I53200J0D01*
G02X1588800Y1259300I-112J-53193D01*
G03X1599700Y1272700I1234J10129D01*
G37*
G36*
G01X1778200Y728500D02*
G03X1779800Y746200I-4197J9302D01*
G02X1756800Y790000I30205J43800D01*
G02X1863200I53200J0D01*
G02X1831800Y741500I-53156J0D01*
G03X1830200Y723800I4197J-9302D01*
G02X1853200Y680000I-30205J-43800D01*
G02X1746800I-53200J0D01*
G02X1778200Y728500I53156J0D01*
G37*
G36*
G01X1873000Y518400D02*
G02X1860000Y516800I-12950J51606D01*
G02X1913200Y570000I0J53200D01*
G02X1912200Y559900I-53184J166D01*
G03X1924700Y548100I10025J-1901D01*
G02X1937700Y549700I12950J-51606D01*
G02X1990900Y496500I0J-53200D01*
G02X1976400Y460000I-53190J0D01*
G02X1990900Y423500I-38690J-36500D01*
G02X1937700Y370300I-53200J0D01*
G02X1924700Y371900I-50J53206D01*
G03X1912200Y360100I-2475J-9899D01*
G02X1913200Y350000I-52184J-10266D01*
G02X1860000Y403200I-53200J0D01*
G02X1873000Y401600I50J-53206D01*
G03X1885500Y413400I2475J9899D01*
G02X1884500Y423500I52184J10266D01*
G02X1899000Y460000I53190J0D01*
G02X1884500Y496500I38690J36500D01*
G02X1885500Y506600I53184J-166D01*
G03X1873000Y518400I-10025J1901D01*
G37*
G54D24*
X3940000Y1160000D03*
X4320000D03*
X4130000Y1082500D03*
Y1237500D03*
X4940000Y1160000D03*
X5320000D03*
X5130000Y1082500D03*
Y1237500D03*
X6010000Y1160000D03*
X6390000D03*
X6200000Y1237500D03*
Y1082500D03*
X13120000Y5520000D03*
X13500000D03*
X13310000Y5597500D03*
Y5442500D03*
G54D25*
X1130000Y2516000D03*
Y2770000D03*
Y3024000D03*
G54D23*
X7730000Y890000D03*
X13168000Y1195000D03*
G54D22*
X7300000Y1090000D03*
G54D21*
X1810000Y980000D03*
X1110000Y532500D03*
Y387500D03*
X2410000Y330000D03*
X3105000Y325000D03*
X6450000Y210000D03*
X6910000Y190000D03*
X7170000Y500000D03*
X7915900Y261900D03*
Y388900D03*
X8042900D03*
X8169900D03*
X8296900Y261900D03*
X8423900D03*
X8550900Y388900D03*
X8677900D03*
X8804900Y261900D03*
Y515900D03*
X8931900Y261900D03*
X9058900Y388900D03*
X9185900D03*
X9312900Y261900D03*
X8931900Y515900D03*
X9185900D03*
X9058900D03*
X9439900Y261900D03*
Y515900D03*
X9566900Y388900D03*
X9693900D03*
X9820900Y261900D03*
Y515900D03*
X9693900D03*
X9566900D03*
X9947900Y261900D03*
Y515900D03*
X10074900Y388900D03*
X10201900D03*
X10328900Y261900D03*
Y515900D03*
X10201900D03*
X10074900D03*
X10569100Y261900D03*
Y515900D03*
X10823100D03*
X10696100D03*
X10950100Y261900D03*
Y515900D03*
X11077100Y261900D03*
Y515900D03*
X11458100Y261900D03*
X11585100D03*
Y515900D03*
X11712100Y388900D03*
Y515900D03*
X11839100Y388900D03*
X11966100Y261900D03*
Y515900D03*
X12093100Y261900D03*
Y515900D03*
X12220100Y388900D03*
X11839100Y515900D03*
X12220100D03*
X12347100Y388900D03*
X12474100Y261900D03*
Y515900D03*
X12601100Y261900D03*
X12728100Y388900D03*
Y515900D03*
X12347100D03*
X12601100D03*
X12982100D03*
X12855100Y388900D03*
X12982100Y261900D03*
X12855100Y515900D03*
X973000Y993000D03*
X1110000Y827500D03*
X2110000Y790000D03*
X3610000Y830000D03*
X4221500Y725000D03*
X4655000Y995000D03*
X5530000Y1020000D03*
X5690000Y940000D03*
X6910000Y615500D03*
X7915900Y769900D03*
Y642900D03*
X8042900D03*
X8169900D03*
X8296900Y769900D03*
X8423900D03*
X8042900Y1010100D03*
X8423900D03*
X8296900D03*
X8550900Y642900D03*
X8677900D03*
X8797500Y762500D03*
X8550900Y1010100D03*
X8804900Y642900D03*
X9312900Y1010100D03*
X9058900Y642900D03*
X8928000Y1014000D03*
X8931900Y642900D03*
X9185900Y1010100D03*
X8946000Y784000D03*
X9058900Y1010100D03*
X9312900Y769900D03*
X9693900Y1010100D03*
X9439900Y642900D03*
X9566900Y769900D03*
X9820900Y642900D03*
X9693900D03*
X9566900D03*
X9439900Y769900D03*
X9820900Y1010100D03*
X10074900D03*
X9947900Y769900D03*
X10201900Y642900D03*
X10328900Y769900D03*
X9947900Y1010100D03*
X10569100D03*
X10696100Y642900D03*
X10569100D03*
X10442100D03*
X10950100Y1010100D03*
X11077100Y642900D03*
X11204100Y769900D03*
Y642900D03*
X11331100Y1010100D03*
X11712100D03*
X11585100Y769900D03*
X11458100Y1010100D03*
X11585100D03*
X11712100Y642900D03*
X11458100Y769900D03*
X11331100D03*
X11712100D03*
X11966100D03*
X12093100Y1010100D03*
X11966100Y642900D03*
X11839100D03*
Y1010100D03*
X11966100D03*
X11839100Y769900D03*
X12728100D03*
X12347100D03*
X12601100Y642900D03*
X12347100D03*
X12474100D03*
X12728100D03*
X12855100D03*
X12982100Y769900D03*
X12855100Y1010100D03*
X12982100D03*
X12855100Y769900D03*
X12982100Y642900D03*
X1810000Y1470000D03*
X2635000Y1255000D03*
X3040000Y1090000D03*
X3440000Y1240000D03*
X4565000Y1085000D03*
X4630000Y1400000D03*
X5755000Y1325000D03*
X7915900Y1391100D03*
Y1137100D03*
X8296900Y1391100D03*
X8423900D03*
Y1137100D03*
X8169900Y1518100D03*
X8423900D03*
X8296900D03*
X8169900Y1137100D03*
X8042900D03*
Y1264100D03*
X8550900D03*
Y1518100D03*
X8801000Y1141000D03*
X8677900Y1137100D03*
X8804900Y1264100D03*
X8550900Y1137100D03*
X8677900Y1264100D03*
X8931900Y1518100D03*
X9185900Y1137100D03*
X9312900Y1518100D03*
X9299100Y1391100D03*
X9185900Y1264100D03*
X9058900D03*
X9566900Y1137100D03*
X9693900Y1264100D03*
X9820900Y1137100D03*
X9566900Y1264100D03*
X9820900D03*
X9693900Y1137100D03*
X9439900Y1264100D03*
X9570000Y1390000D03*
X9947900Y1137100D03*
X10328900D03*
Y1391100D03*
Y1264100D03*
X10201900D03*
Y1137100D03*
X10074900D03*
X9941500Y1398500D03*
X10569100Y1264100D03*
Y1518100D03*
X10823100Y1137100D03*
Y1391100D03*
Y1264100D03*
X10696100D03*
X11204100Y1137100D03*
Y1264100D03*
X11077100D03*
X11090900Y1518100D03*
X10963900D03*
X11585100Y1137100D03*
X11712100Y1264100D03*
Y1518100D03*
X11585100Y1391100D03*
Y1264100D03*
X11458100D03*
X11712100Y1137100D03*
Y1391100D03*
X12093100Y1518100D03*
Y1264100D03*
X11966100Y1391100D03*
Y1137100D03*
X12220100D03*
X12093100D03*
X11966100Y1518100D03*
X11839100D03*
Y1391100D03*
X12220100Y1518100D03*
X12093100Y1391100D03*
X12220100D03*
X12347100Y1137100D03*
X12474100Y1264100D03*
Y1518100D03*
X12601100Y1137100D03*
Y1264100D03*
X12474100Y1137100D03*
X12728100Y1518100D03*
X12601100D03*
X12347100D03*
X12982100Y1137100D03*
Y1391100D03*
X12855100Y1518100D03*
X12982100Y1264100D03*
X12855100Y1137100D03*
X270000Y1930000D03*
X480000Y1600000D03*
X590000Y1880000D03*
X820000Y1780000D03*
X1000000Y1785000D03*
X1350000Y1910000D03*
X1380000Y1610000D03*
X5900000Y1530000D03*
X9810000Y1540000D03*
X9680000Y1660000D03*
X10070000Y1530000D03*
X11274500Y1540000D03*
X13575000Y2005000D03*
X13700000Y1700000D03*
X130000Y2090000D03*
X139500Y2267000D03*
X266500D03*
X595000Y2075000D03*
X775000D03*
X3675000Y2465000D03*
X8860000Y2490000D03*
X9010000D03*
X13200000Y2480000D03*
X13070000Y2120000D03*
X13500000Y2350000D03*
X140000Y2597000D03*
X400000Y2600000D03*
X270000Y2597000D03*
X660000Y2513000D03*
X1910000Y2500000D03*
X2607500Y2592500D03*
X2550000Y2930000D03*
X2420000D03*
X2865000Y2805000D03*
Y2585000D03*
X4090000Y2930000D03*
X4220000D03*
X4505000Y2815000D03*
Y2570000D03*
X5900000Y2520000D03*
X7240000D03*
X7820000Y2930000D03*
X7680000D03*
X8630000Y2640000D03*
X9100000D03*
X9090000Y2810000D03*
X10050000Y2640000D03*
X10430000Y2500000D03*
X10510000Y2810000D03*
X11490000Y2640000D03*
X11960000D03*
X11945500Y2780000D03*
X12644500Y2710000D03*
X12814500Y2790000D03*
X12830000Y2640000D03*
X13420000Y2680000D03*
X139500Y3053000D03*
X520500D03*
X393500D03*
X266500D03*
X2060000Y3180000D03*
X2110000Y3335000D03*
X1710000Y3336000D03*
X3140000D03*
X2705000Y2985000D03*
X3490000Y3180000D03*
X3530000Y3335000D03*
X4560000Y3336000D03*
X4345000Y3000000D03*
X4910000Y3180000D03*
X4960000Y3335000D03*
X5980000Y3336000D03*
X6340000Y3180000D03*
X6285000Y3020000D03*
X6390000Y3335000D03*
X7866300Y3336000D03*
X8230000Y3180000D03*
X8292700Y3335000D03*
X7975000Y2995000D03*
X8479300Y3080000D03*
X9291300Y3336000D03*
X9110000Y3035000D03*
X9665700Y3180000D03*
X9717700Y3335000D03*
X9890000Y3070000D03*
X10716300Y3336000D03*
X10530000Y3035000D03*
X11090700Y3180000D03*
X11142700Y3335000D03*
X11410000Y3135500D03*
X12141300Y3336000D03*
X11970000Y3035000D03*
X12730000Y3135500D03*
X12515700Y3180000D03*
X12567700Y3335000D03*
X13420000Y3060000D03*
X13600000D03*
X13260000Y3035000D03*
X1059500Y3805000D03*
X1228500Y3760000D03*
X1560000Y3910000D03*
X1700000D03*
X2024000Y3910500D03*
X2653500Y3760000D03*
X2975000Y3915000D03*
X3125000D03*
X3449000Y3910500D03*
X4078500Y3760000D03*
X4400000Y3910000D03*
X4550000D03*
X4874000Y3910500D03*
X5334500Y3805000D03*
X5503500Y3760000D03*
X5825000Y3916800D03*
X5975000Y3915000D03*
X6299000Y3910500D03*
X7229500Y3805000D03*
X7398500Y3760000D03*
X7720000Y3916800D03*
X7870000Y3910000D03*
X8194000Y3910500D03*
X8823500Y3760000D03*
X9145000Y3915000D03*
X9295000D03*
X9619000Y3910500D03*
X10248500Y3760000D03*
X10570000Y3910000D03*
X10720000D03*
X11044000Y3900700D03*
X11504500Y3805000D03*
X11749000Y3619300D03*
X11995000Y3915000D03*
X12145000D03*
X12469000Y3900700D03*
X13219500Y3890000D03*
X13330000Y3464300D03*
X13380000Y3720000D03*
X13510000Y3464300D03*
X1700000Y4155500D03*
X1550000Y4310500D03*
X1400000Y4155500D03*
X2565000Y3940000D03*
X3125000Y4155500D03*
X2975000Y4310500D03*
X2825000Y4155500D03*
X4550000D03*
X4400000Y4310500D03*
X4250000Y4155500D03*
X5825000Y4310500D03*
X5675000Y4155500D03*
X5975000D03*
X7870000D03*
X7720000Y4310500D03*
X7570000Y4155500D03*
X8995000D03*
X9145000Y4310500D03*
X9295000Y4155500D03*
X9421300Y4379000D03*
X10720000Y4155500D03*
X10570000Y4310500D03*
X10420000Y4155500D03*
X11995000Y4310500D03*
X12145000Y4155500D03*
X11845000D03*
X13219500Y4250000D03*
X13374500Y4400000D03*
X1140000Y4719500D03*
X1984000Y4429500D03*
X1824000Y4430000D03*
X2565000Y4719500D03*
X3409000Y4429500D03*
X3249000Y4430000D03*
X3990000Y4719500D03*
X4834000Y4429500D03*
X4674000Y4430000D03*
X5415000Y4719500D03*
X6259000Y4429500D03*
X6099000Y4430000D03*
X7310000Y4719500D03*
X8154000Y4429500D03*
X7994000Y4430000D03*
X8735000Y4719500D03*
X9579000Y4429500D03*
X10160000Y4719500D03*
X11004000Y4439300D03*
X10844000Y4438000D03*
X11585000Y4719500D03*
X12269000Y4430000D03*
X12429000Y4429500D03*
X12940000Y5280000D03*
X13780000Y5060000D03*
X12950000Y5635000D03*
X12955000Y5425000D03*
X12960000Y6270000D03*
X1800000Y240000D03*
G54D30*
X13440000Y4866000D03*
G54D26*
X2125000Y3550000D03*
X3550000D03*
X4975000D03*
X6400000D03*
X8290000D03*
X9715000D03*
X11140000D03*
X12565000D03*
X932500Y4010000D03*
X5207500D03*
X7097500D03*
X11372500D03*
X932500Y4510000D03*
X3782500Y4760000D03*
X5207500Y4510000D03*
X7097500D03*
X9947500Y4760000D03*
X11372500Y4510000D03*
X932500Y4980000D03*
X5207500D03*
X7097500D03*
X11372500D03*
X3782500Y5760000D03*
X9947500D03*
X3782500Y6760000D03*
X9947500D03*
G54D27*
X2357500Y3760000D03*
X6632500D03*
X12797500D03*
X932500Y5260000D03*
X5207500D03*
X7097500D03*
X11372500D03*
X1250000Y5760000D03*
X1790000D03*
X2357500D03*
X2675000D03*
X3215000D03*
X4100000D03*
X4640000D03*
X5525000D03*
X6065000D03*
X6632500D03*
X7415000D03*
X7955000D03*
X8522500D03*
X8840000D03*
X9380000D03*
X10265000D03*
X10805000D03*
X11690000D03*
X12230000D03*
X12797500D03*
X932500Y6260000D03*
X5207500D03*
X7097500D03*
X11372500D03*
X2357500Y6760000D03*
X6632500D03*
X8522500D03*
X12797500D03*
X932500Y7260000D03*
X1500000D03*
X2925000D03*
X4350000D03*
X5207500D03*
X5775000D03*
X7097500D03*
X7665000D03*
X9090000D03*
X10515000D03*
X11372500D03*
X11940000D03*
G54D28*
X1164000Y4170000D03*
X2124000D03*
X2589000D03*
X3549000D03*
X4014000D03*
X4974000D03*
X5439000D03*
X6399000D03*
X7334000D03*
X8294000D03*
X8759000D03*
X9719000D03*
X10184000D03*
X11144000D03*
X11609000D03*
X12569000D03*
G54D29*
X13730000Y4281000D03*
%LPD*%
G75*
G54D10*
X300000Y1090000D03*
X550000Y6550000D03*
X7300000Y1090000D03*
X13205000Y6550000D03*
X13600000Y1090000D03*
G54D20*
G01X580000Y5614000D02*
X420000D01*
X534700Y5540000D01*
Y5640000D01*
G54D11*
X140000Y1600000D03*
X130000Y2090000D03*
X139500Y2267000D03*
X140000Y2597000D03*
X139500Y3053000D03*
X270000Y1930000D03*
X480000Y1600000D03*
X590000Y1880000D03*
X266500Y2267000D03*
X595000Y2075000D03*
X660000Y2267000D03*
X400000Y2600000D03*
X270000Y2597000D03*
X660000Y2513000D03*
X530000Y2590000D03*
X520500Y3053000D03*
X393500D03*
X266500D03*
X1110000Y532500D03*
Y92500D03*
Y387500D03*
X973000Y993000D03*
X1110000Y827500D03*
X820000Y1780000D03*
X1000000Y1785000D03*
X775000Y2075000D03*
X845000Y2520000D03*
Y2780000D03*
X1059500Y3805000D03*
Y3715000D03*
X1140000Y4719500D03*
X1650000Y1290000D03*
Y1070000D03*
X1582400Y1133500D03*
Y1206500D03*
X1350000Y1910000D03*
X1380000Y1610000D03*
X1530000Y1910000D03*
X1387500Y3427400D03*
X1460500D03*
X1520000Y3600000D03*
X1228500Y3760000D03*
X1560000Y3910000D03*
X1700000D03*
Y4155500D03*
X1550000Y4310500D03*
X1400000Y4155500D03*
X1290000Y4121800D03*
X1264000Y4429500D03*
X1344000D03*
X1580000Y4834500D03*
X1690000D03*
X1470000D03*
X1360000D03*
X1580000Y5080000D03*
X1470000D03*
X1360000D03*
X1690000D03*
X1800000Y240000D03*
X1860000Y350000D03*
X1937700Y496500D03*
Y423500D03*
X1810000Y790000D03*
Y980000D03*
X1800000Y680000D03*
X1860000Y570000D03*
X2110000Y790000D03*
X1810000Y1470000D03*
X2035700Y1360000D03*
X2040000Y1470000D03*
X1910000Y2370000D03*
X1710000D03*
X2110000Y2290000D03*
X2046500Y2326900D03*
X1973500D03*
X1846500D03*
X1773500D03*
X1910000Y2500000D03*
X2060000Y3180000D03*
X2110000Y3335000D03*
X1710000Y3336000D03*
X1760000Y3180000D03*
X2024000Y3910500D03*
X1784000Y3609500D03*
X1810000Y4131800D03*
X1984000Y4429500D03*
X1800000Y4834500D03*
X1824000Y4430000D03*
X1910000Y4834500D03*
Y5080000D03*
X1800000Y5080100D03*
X2330000Y550000D03*
X2400000D03*
X2410000Y330000D03*
X2330000Y620000D03*
Y690000D03*
X2400000Y620000D03*
Y690000D03*
X2260000Y1430000D03*
X2350000Y1480000D03*
X2635000Y1255000D03*
X2490000Y1690000D03*
X2420000D03*
X2350000D03*
Y1620000D03*
Y1550000D03*
X2607500Y2592500D03*
X2550000Y2930000D03*
X2420000D03*
X2390000Y2740000D03*
Y2640000D03*
X2330000Y3360000D03*
X2275000Y2985000D03*
X2653500Y3760000D03*
X2565000Y3940000D03*
Y4719500D03*
X3105000Y325000D03*
X2890000Y390000D03*
X2730000D03*
X2773500Y489800D03*
X2846500D03*
X3040000Y1090000D03*
X3130000Y2440000D03*
X2865000Y2805000D03*
Y2585000D03*
X3140000Y3336000D03*
X2705000Y2985000D03*
X2812500Y3427400D03*
X2885500D03*
X2940000Y3590000D03*
X2975000Y3915000D03*
X3125000D03*
Y4155500D03*
X2975000Y4310500D03*
X2825000Y4155500D03*
X2715000Y4121800D03*
X2689000Y4429500D03*
X2769000D03*
X3005000Y4834500D03*
X3115000D03*
X2895000D03*
X2785000D03*
Y5080000D03*
X2895000D03*
X3005000D03*
X3115000D03*
X3290000Y740000D03*
Y670000D03*
Y600000D03*
X3220000Y740000D03*
X3150000D03*
X3610000Y830000D03*
X3290000Y1500000D03*
X3220000D03*
X3440000Y1240000D03*
X3450000Y1090000D03*
X3290000Y1640000D03*
X3220000D03*
Y1570000D03*
X3290000D03*
X3330000Y2440000D03*
X3530000Y2360000D03*
X3466500Y2400000D03*
X3393500D03*
X3266500D03*
X3193500D03*
X3490000Y3180000D03*
X3530000Y3335000D03*
X3190000Y3180000D03*
X3449000Y3910500D03*
X3209000Y3609500D03*
X3235000Y4131800D03*
X3409000Y4429500D03*
X3225000Y4834500D03*
X3335000D03*
X3249000Y4430000D03*
X3225000Y5080000D03*
X3335000D03*
X3890000Y710000D03*
X4002500Y725000D03*
X4075500D03*
X4028000Y1595000D03*
X3955000D03*
X4101000D03*
X3675000Y2465000D03*
X4090000Y2930000D03*
X3890000Y2980000D03*
X3909500Y3805000D03*
X4078500Y3760000D03*
X3909500Y3715000D03*
X3990000Y4719500D03*
X4221500Y725000D03*
X4367500D03*
X4440500D03*
X4565000Y1085000D03*
X4393000Y1595000D03*
X4466000D03*
X4320000D03*
X4174000D03*
X4247000D03*
X4550000Y2400000D03*
X4212500Y2592500D03*
X4220000Y2930000D03*
X4505000Y2815000D03*
Y2570000D03*
X4110000Y2740000D03*
Y2640000D03*
X4560000Y3336000D03*
X4345000Y3000000D03*
X4237500Y3427400D03*
X4310500D03*
X4362500Y3587500D03*
X4400000Y3910000D03*
X4550000D03*
Y4155500D03*
X4400000Y4310500D03*
X4250000Y4155500D03*
X4140000Y4121800D03*
X4114000Y4429500D03*
X4194000D03*
X4430000Y4834500D03*
X4540000D03*
X4320000D03*
X4210000D03*
X4430000Y5080000D03*
X4540000D03*
X4210000D03*
X4320000D03*
X4890000Y710000D03*
X4655000Y995000D03*
X5002500Y725000D03*
X4630000Y1400000D03*
Y1180000D03*
X5028000Y1595000D03*
X4955000D03*
X4950000Y2400000D03*
X4750000D03*
X4886500Y2362400D03*
X4813500D03*
X4686500D03*
X4613500D03*
X4910000Y3180000D03*
X4960000Y3335000D03*
X4610000Y3180000D03*
X4874000Y3910500D03*
X4634000Y3609500D03*
X4660000Y4131800D03*
X4834000Y4429500D03*
X4650000Y4834500D03*
X4760000D03*
X4674000Y4430000D03*
X4760000Y5080000D03*
X4650000D03*
X5530000Y1020000D03*
X5075500Y725000D03*
X5148500D03*
X5221500D03*
X5294500D03*
X5367500D03*
X5440500D03*
X5513500D03*
X5247000Y1595000D03*
X5320000D03*
X5393000D03*
X5466000D03*
X5101000D03*
X5174000D03*
X5334500Y3805000D03*
X5503500Y3760000D03*
X5334500Y3715000D03*
X5530000Y4380000D03*
X5415000Y4719500D03*
X5690000Y940000D03*
X6025000Y750000D03*
X5755000Y1325000D03*
X5715000Y1235000D03*
X5900000Y1530000D03*
X5980000Y2370000D03*
X5900000Y2520000D03*
X5980000Y3336000D03*
X5662500Y3427400D03*
X5735500D03*
X5814100Y3612900D03*
X5825000Y3916800D03*
X5975000Y3915000D03*
X5825000Y4310500D03*
X5675000Y4155500D03*
X5975000D03*
X5565000Y4121800D03*
X5619000Y4429500D03*
X5855000Y4834500D03*
X5965000D03*
X5745000D03*
X5635000D03*
X5745000Y5080000D03*
X5635000D03*
X5855000D03*
X5965000D03*
X6450000Y210000D03*
X6480000Y340000D03*
X6472500Y422500D03*
X6105000Y750000D03*
X6185000D03*
X6265000D03*
X6345000D03*
X6425000D03*
X6505000D03*
X6472500Y1570000D03*
X6072500D03*
X6152500D03*
X6312500D03*
X6392500D03*
X6232500D03*
X6180000Y2450000D03*
X6380000Y2370000D03*
X6316500Y2412400D03*
X6243500D03*
X6116500D03*
X6043500D03*
X6472500Y2592500D03*
X6510000Y2750000D03*
Y2670000D03*
X6380000Y2760000D03*
X6410000Y2680000D03*
X6340000Y3180000D03*
X6285000Y3020000D03*
X6390000Y3335000D03*
X6040000Y3180000D03*
X6195000Y3020000D03*
X6299000Y3910500D03*
X6059000Y3609500D03*
X6085000Y4131800D03*
X6259000Y4429500D03*
X6075000Y4834500D03*
X6099000Y4430000D03*
X6185000Y4834500D03*
X6075000Y5080000D03*
X6185000D03*
X6790000Y200000D03*
X6910000Y190000D03*
X6790000Y610000D03*
X6910000Y615500D03*
X6585000Y750000D03*
X6632500Y1570000D03*
X6552500D03*
X6535000Y3005000D03*
X6625000D03*
X7170000Y500000D03*
X7250000Y255000D03*
X7240000Y357500D03*
X7320000Y390000D03*
X7240000Y2520000D03*
X7229500Y3805000D03*
X7398500Y3760000D03*
X7229500Y3715000D03*
X7460000Y4121800D03*
X7434000Y4429500D03*
X7310000Y4719500D03*
X7915900Y261900D03*
X7600000Y510000D03*
X7915900Y388900D03*
Y769900D03*
Y642900D03*
Y1391100D03*
Y1137100D03*
X7943500Y2482400D03*
X7820000Y2930000D03*
X7680000D03*
X7872500Y2512600D03*
X7840000Y2740000D03*
Y2640000D03*
X7680000Y2740000D03*
Y2640000D03*
X7866300Y3336000D03*
X7930000Y3180000D03*
X7545000Y2985000D03*
X7557500Y3427400D03*
X7630500D03*
X7714000Y3624000D03*
X7954000Y3609500D03*
X7720000Y3916800D03*
X7870000Y3910000D03*
Y4155500D03*
X7720000Y4310500D03*
X7570000Y4155500D03*
X7514000Y4429500D03*
X7750000Y4834500D03*
X7640000D03*
X7860000D03*
X7530000D03*
Y5075700D03*
X7640000D03*
X7750000D03*
X7860000D03*
X8042900Y388900D03*
X8169900D03*
X8296900Y261900D03*
X8423900D03*
X8042900Y642900D03*
X8169900D03*
X8296900Y769900D03*
X8423900D03*
X8042900Y1010100D03*
X8423900D03*
X8296900D03*
Y1391100D03*
X8423900D03*
Y1137100D03*
X8169900Y1518100D03*
X8423900D03*
X8296900D03*
X8169900Y1137100D03*
X8042900D03*
Y1264100D03*
X8216500Y2482400D03*
X8143500D03*
X8016500D03*
X8080000Y2520000D03*
X8280000D03*
X8320000Y2930000D03*
X8230000Y3180000D03*
X8292700Y3335000D03*
X7975000Y2995000D03*
X8194000Y3910500D03*
X7980000Y4131800D03*
X8154000Y4429500D03*
X7970000Y4834500D03*
X8080000D03*
X7994000Y4430000D03*
X7970000Y5075700D03*
X8080000D03*
X8550900Y388900D03*
X8677900D03*
X8804900Y261900D03*
Y515900D03*
X8550900Y642900D03*
X8677900D03*
X8797500Y762500D03*
X8550900Y1010100D03*
X8804900Y642900D03*
X8550900Y1264100D03*
Y1518100D03*
X8801000Y1141000D03*
X8677900Y1137100D03*
X8804900Y1264100D03*
X8550900Y1137100D03*
X8677900Y1264100D03*
X8860000Y2490000D03*
X8545000Y2780000D03*
X8634500Y2930000D03*
X8639800Y2810000D03*
X8630000Y2640000D03*
X8479300Y3080000D03*
X8699300D03*
X8827500Y3203000D03*
X8892500Y3270000D03*
X8664300Y3805000D03*
X8823500Y3760000D03*
X8765000Y3685000D03*
X8885000Y4121800D03*
X8859000Y4429500D03*
X8735000Y4719500D03*
X8931900Y261900D03*
X9058900Y388900D03*
X9185900D03*
X9312900Y261900D03*
X8931900Y515900D03*
X9185900D03*
X9058900D03*
X9312900Y1010100D03*
X9185900Y769900D03*
X9058900Y642900D03*
X8928000Y1014000D03*
X8931900Y642900D03*
X9074500Y785500D03*
X9185900Y1010100D03*
X8946000Y784000D03*
X9058900Y1010100D03*
X9312900Y769900D03*
X8931900Y1518100D03*
X9185900Y1137100D03*
X9312900Y1518100D03*
X9299100Y1391100D03*
X9185900Y1264100D03*
X9058900D03*
X9290000Y2440000D03*
X9010000Y2490000D03*
X9363500Y2422400D03*
X9100000Y2640000D03*
X9085500Y2930000D03*
X9090000Y2810000D03*
X9291300Y3336000D03*
X9344300Y3180000D03*
X9110000Y3035000D03*
X8957500Y3203000D03*
X9139000Y3624000D03*
X9379000Y3609500D03*
X9145000Y3915000D03*
X9295000D03*
X8982500Y3527400D03*
X9055500D03*
X8995000Y4155500D03*
X9145000Y4310500D03*
X9295000Y4155500D03*
X8939000Y4429500D03*
X9175000Y4834500D03*
X9065000D03*
X9285000D03*
X9395000D03*
X8955000D03*
Y5075700D03*
X9175000D03*
X9065000D03*
X9285000D03*
X9395000D03*
X9439900Y261900D03*
Y515900D03*
X9566900Y388900D03*
X9693900D03*
X9820900Y261900D03*
Y515900D03*
X9693900D03*
X9566900D03*
X9693900Y1010100D03*
X9439900Y642900D03*
X9566900Y769900D03*
X9820900Y642900D03*
X9693900D03*
X9566900D03*
X9439900Y769900D03*
X9566900Y1010100D03*
X9553100Y896900D03*
X9820900Y1010100D03*
X9566900Y1137100D03*
X9693900Y1264100D03*
X9820900Y1137100D03*
X9566900Y1264100D03*
X9820900D03*
X9693900Y1137100D03*
X9439900Y1264100D03*
X9570000Y1390000D03*
X9810000Y1540000D03*
X9878900Y1753500D03*
X9827200Y1701800D03*
X9680000Y1660000D03*
X9500000Y2460000D03*
X9690000Y2360000D03*
X9636500Y2422400D03*
X9563500D03*
X9436500D03*
X9840000Y2920000D03*
X9665700Y3180000D03*
X9717700Y3335000D03*
X9619000Y3910500D03*
X9405000Y4131800D03*
X9421300Y4379000D03*
X9579000Y4429500D03*
X9505000Y4834500D03*
Y5075700D03*
X9947900Y261900D03*
Y515900D03*
X10074900Y388900D03*
X10201900D03*
X10328900Y261900D03*
Y515900D03*
X10201900D03*
X10074900D03*
Y1010100D03*
X9947900Y769900D03*
X10201900Y642900D03*
X10328900Y769900D03*
X9947900Y1010100D03*
Y1137100D03*
X10328900D03*
Y1391100D03*
X10049500Y1289500D03*
X9947900Y1264100D03*
X10328900D03*
X10201900D03*
Y1137100D03*
X10074900D03*
X9941500Y1398500D03*
X10070000Y1530000D03*
X10200000Y2480000D03*
X10310000D03*
X9965000Y2770000D03*
X10054500Y2930000D03*
X10059800Y2810000D03*
X10050000Y2640000D03*
X9890000Y3070000D03*
X10119300Y3080000D03*
X10247500Y3203000D03*
X10320000Y3270000D03*
X10079500Y3805000D03*
X10248500Y3760000D03*
X10079500Y3715000D03*
X10310000Y4121800D03*
X10284000Y4439300D03*
X10160000Y4719500D03*
X10569100Y261900D03*
Y515900D03*
X10823100D03*
X10696100D03*
X10569100Y1010100D03*
X10696100Y642900D03*
X10569100D03*
X10442100D03*
X10569100Y1264100D03*
Y1518100D03*
X10823100Y1137100D03*
Y1391100D03*
Y1264100D03*
X10696100D03*
X10740000Y2460000D03*
X10803500Y2422400D03*
X10430000Y2500000D03*
X10505500Y2930000D03*
X10510000Y2810000D03*
X10716300Y3336000D03*
X10832500Y3066800D03*
X10530000Y3035000D03*
X10377500Y3203000D03*
X10407500Y3367400D03*
X10480500D03*
X10540000Y3590000D03*
X10804000Y3580000D03*
X10570000Y3910000D03*
X10720000D03*
Y4155500D03*
X10570000Y4310500D03*
X10420000Y4155500D03*
X10830000Y4131800D03*
X10364000Y4439300D03*
X10600000Y4834500D03*
X10490000D03*
X10710000D03*
X10820000D03*
X10380000D03*
Y5075700D03*
X10490000D03*
X10600000D03*
X10710000D03*
X10820000D03*
X10950100Y261900D03*
Y515900D03*
X11077100Y261900D03*
Y515900D03*
X10950100Y1010100D03*
X11077100Y642900D03*
X11204100Y769900D03*
Y642900D03*
Y1137100D03*
Y1264100D03*
X11077100D03*
X11090900Y1518100D03*
X10963900D03*
X11274500Y1540000D03*
X10940000Y2460000D03*
X11140000D03*
X11076500Y2422400D03*
X11003500D03*
X10876500D03*
X11090700Y3180000D03*
X11142700Y3335000D03*
X11300000Y3040000D03*
X11044000Y3900700D03*
X11004000Y4439300D03*
X10930000Y4834500D03*
X10844000Y4438000D03*
X10930000Y5075700D03*
X11458100Y261900D03*
X11585100D03*
Y515900D03*
X11712100Y388900D03*
Y515900D03*
X11331100Y1010100D03*
X11712100D03*
X11585100Y769900D03*
X11458100Y1010100D03*
X11585100D03*
X11712100Y642900D03*
X11458100Y769900D03*
X11331100D03*
X11712100D03*
X11585100Y1137100D03*
X11712100Y1264100D03*
Y1518100D03*
X11585100Y1391100D03*
Y1264100D03*
X11458100D03*
X11712100Y1137100D03*
Y1391100D03*
X11405000Y2780000D03*
X11494500D03*
X11490000Y2640000D03*
X11670000Y2520000D03*
X11760000D03*
X11410000Y3135500D03*
X11490000Y3000000D03*
X11559300Y3080000D03*
X11687500Y3203000D03*
X11752500Y3280000D03*
X11504500Y3805000D03*
X11749000Y3619300D03*
X11504500Y3715000D03*
X11735000Y4121800D03*
X11585000Y4719500D03*
X11709000Y4429500D03*
X11789000D03*
X11805000Y4834500D03*
Y5075700D03*
X11839100Y388900D03*
X11966100Y261900D03*
Y515900D03*
X12093100Y261900D03*
Y515900D03*
X12220100Y388900D03*
X11839100Y515900D03*
X12220100D03*
X11966100Y769900D03*
X12093100Y1010100D03*
X11966100Y642900D03*
X11839100D03*
Y1010100D03*
X11966100D03*
X11839100Y769900D03*
X12093100Y1518100D03*
Y1264100D03*
X11966100Y1391100D03*
Y1137100D03*
X12220100D03*
X12093100D03*
X11966100Y1518100D03*
X11839100D03*
Y1391100D03*
X12220100Y1518100D03*
X12093100Y1391100D03*
X12220100D03*
X12170000Y2480000D03*
X12223500Y2422400D03*
X11960000Y2640000D03*
X11945500Y2930000D03*
Y2780000D03*
X12141300Y3336000D03*
X12194300Y3180000D03*
X11970000Y3035000D03*
X11820200Y3200200D03*
X11832500Y3427400D03*
X11905500D03*
X11989000Y3624000D03*
X12229000Y3609500D03*
X11995000Y3915000D03*
X12145000D03*
X11995000Y4310500D03*
X12145000Y4155500D03*
X11845000D03*
X12255000Y4131800D03*
X12025000Y4834500D03*
X11915000D03*
X12135000D03*
X12245000D03*
X12269000Y4430000D03*
X11915000Y5075700D03*
X12025000D03*
X12135000D03*
X12245000D03*
X12347100Y388900D03*
X12474100Y261900D03*
Y515900D03*
X12601100Y261900D03*
X12728100Y388900D03*
Y515900D03*
X12347100D03*
X12601100D03*
X12728100Y769900D03*
X12347100D03*
X12601100Y642900D03*
X12347100D03*
X12474100D03*
X12728100D03*
X12347100Y1137100D03*
X12474100Y1264100D03*
Y1518100D03*
X12601100Y1137100D03*
Y1264100D03*
X12474100Y1137100D03*
X12728100Y1518100D03*
X12601100D03*
X12347100D03*
X12360000Y2470000D03*
X12550000Y2480000D03*
X12496500Y2422400D03*
X12423500D03*
X12296500D03*
X12644500Y2710000D03*
X12640000Y2965000D03*
X12730000Y3135500D03*
X12515700Y3180000D03*
X12567700Y3335000D03*
X12469000Y3900700D03*
X12429000Y4429500D03*
X12355000Y4834500D03*
Y5075700D03*
X12982100Y515900D03*
X12855100Y388900D03*
X12982100Y261900D03*
X13140000Y560000D03*
X13215000D03*
X12855100Y515900D03*
Y642900D03*
X12982100Y769900D03*
X12855100Y1010100D03*
X12982100D03*
X12855100Y769900D03*
X12982100Y642900D03*
Y1137100D03*
Y1391100D03*
X12855100Y1518100D03*
X12982100Y1264100D03*
X12855100Y1137100D03*
X13200000Y1920000D03*
Y1850000D03*
Y1780000D03*
Y1710000D03*
Y2480000D03*
X13070000Y2120000D03*
X12814500Y2790000D03*
X12830000Y2640000D03*
X12998500Y2500000D03*
X13080500D03*
X12817500Y3017500D03*
X12820000Y3080000D03*
X13007500Y3203000D03*
X13072500Y3290000D03*
X13137500Y3203000D03*
X13219500Y3890000D03*
Y4250000D03*
X12940000Y5280000D03*
X13190000Y5090000D03*
X13090000Y5220000D03*
X13240000Y5030000D03*
X13140000Y5160000D03*
X12950000Y5635000D03*
Y5545000D03*
X12955000Y5425000D03*
X12960000Y6270000D03*
X13040000Y5870000D03*
X13120000Y5920000D03*
X13195000Y5875000D03*
X13660000Y110000D03*
Y185000D03*
Y260000D03*
Y560000D03*
X13290000D03*
X13365000D03*
X13440000D03*
X13515000D03*
X13660000Y635000D03*
X13290000D03*
X13365000D03*
X13440000D03*
X13515000D03*
X13575000Y2005000D03*
X13590000Y1700000D03*
X13370000Y1920000D03*
Y1850000D03*
Y1780000D03*
Y1710000D03*
X13700000Y1700000D03*
X13500000Y2350000D03*
X13340000Y2010000D03*
X13420000Y2680000D03*
X13255700Y2950000D03*
X13260000Y2860000D03*
X13255700Y2790000D03*
X13720000Y2640000D03*
X13420000Y3060000D03*
X13600000D03*
X13260000Y3035000D03*
X13330000Y3464300D03*
X13380000Y3720000D03*
X13510000Y3464300D03*
X13374500Y4040000D03*
Y4400000D03*
X13350000Y4130000D03*
X13480000Y5160000D03*
X13380000Y5030000D03*
X13530000Y5220000D03*
X13430000Y5090000D03*
X13548100Y5820000D03*
X13260000Y5920000D03*
X13332500Y6000000D03*
X13392500Y5940000D03*
X13470000Y5880000D03*
X13735000Y110000D03*
X13810000D03*
X13735000Y185000D03*
X13810000D03*
X13735000Y260000D03*
X13810000D03*
Y335000D03*
Y410000D03*
Y485000D03*
X13735000Y560000D03*
X13810000D03*
X13735000Y635000D03*
X13810000D03*
Y1820000D03*
Y2350000D03*
X13790000Y3040000D03*
X13780000Y5060000D03*
G54D12*
X1130000Y2516000D03*
Y2770000D03*
Y3024000D03*
X13730000Y3773000D03*
Y3519000D03*
Y4027000D03*
Y4281000D03*
G54D13*
X932500Y4010000D03*
Y4510000D03*
Y4980000D03*
X1645000Y3550000D03*
X2125000D03*
X2357500Y4980000D03*
X3070000Y3550000D03*
X3550000D03*
X3782500Y3760000D03*
Y4760000D03*
Y5760000D03*
Y6760000D03*
X4495000Y3550000D03*
X4975000D03*
X5207500Y4010000D03*
Y4510000D03*
Y4980000D03*
X5920000Y3550000D03*
X6400000D03*
X6632500Y4980000D03*
X7097500Y4010000D03*
Y4510000D03*
Y4980000D03*
X7810000Y3550000D03*
X8290000D03*
X8522500Y4980000D03*
X9235000Y3550000D03*
X9715000D03*
X9947500Y3760000D03*
Y4760000D03*
Y5760000D03*
Y6760000D03*
X10660000Y3550000D03*
X11140000D03*
X11372500Y4010000D03*
Y4510000D03*
Y4980000D03*
X12085000Y3550000D03*
X12565000D03*
X12797500Y4980000D03*
G54D14*
X1164000Y4170000D03*
X2124000D03*
X2589000D03*
X3549000D03*
X4014000D03*
X4974000D03*
X5439000D03*
X6399000D03*
X7334000D03*
X8294000D03*
X8759000D03*
X9719000D03*
X10184000D03*
X11144000D03*
X11609000D03*
X12569000D03*
G54D15*
X932500Y5260000D03*
X1250000Y5760000D03*
X932500Y6260000D03*
Y7260000D03*
X1500000D03*
X1790000Y5760000D03*
X2357500Y3760000D03*
Y4760000D03*
Y5760000D03*
X2675000D03*
X2357500Y6760000D03*
X3215000Y5760000D03*
X2925000Y7260000D03*
X4100000Y5760000D03*
X4640000D03*
X4350000Y7260000D03*
X5207500Y5260000D03*
X5525000Y5760000D03*
X5207500Y6260000D03*
Y7260000D03*
X6065000Y5760000D03*
X5775000Y7260000D03*
X6632500Y3760000D03*
Y4760000D03*
Y5760000D03*
Y6760000D03*
X7097500Y5260000D03*
X7415000Y5760000D03*
X7097500Y6260000D03*
Y7260000D03*
X7955000Y5760000D03*
X7665000Y7260000D03*
X8522500Y3760000D03*
Y4760000D03*
Y5760000D03*
Y6760000D03*
X8840000Y5760000D03*
X9380000D03*
X9090000Y7260000D03*
X10265000Y5760000D03*
X10805000D03*
X10515000Y7260000D03*
X11372500Y5260000D03*
Y6260000D03*
Y7260000D03*
X11690000Y5760000D03*
X12230000D03*
X11940000Y7260000D03*
X12797500Y3760000D03*
Y4760000D03*
Y5760000D03*
Y6760000D03*
G54D16*
G01X13627000Y4281000D02*
X13730000D01*
G01X13652100Y4203100D02*
X13730000Y4281000D01*
G01X13652100Y4358900D02*
X13730000Y4281000D01*
G01Y4178000D02*
Y4281000D01*
G01D02*
Y4384000D01*
G01Y4281000D02*
X13807900Y4358900D01*
G01X13730000Y4281000D02*
X13807900Y4203100D01*
X3940000Y1160000D03*
X4320000D03*
X4130000Y1082500D03*
Y1237500D03*
X4940000Y1160000D03*
X5320000D03*
X5130000Y1082500D03*
Y1237500D03*
X6010000Y1160000D03*
X6390000D03*
X6200000Y1237500D03*
Y1082500D03*
X13120000Y5520000D03*
X13500000D03*
X13310000Y5597500D03*
Y5442500D03*
G54D17*
X7730000Y890000D03*
X13168000Y1195000D03*
G54D18*
X13440000Y4866000D03*
G54D19*
X13820000Y2640000D03*
M02*
