G04 ================== begin FILE IDENTIFICATION RECORD ==================*
G04 Layout Name:  pc065d_fibv2a_toplevel_29.brd*
G04 Film Name:    art_pc065d_SMD2*
G04 File Format:  Gerber RS274X*
G04 File Origin:  Cadence Allegro 24.1-P001*
G04 Origin Date:  Mon Aug  4 16:57:21 2025*
G04 *
G04 Layer:  PIN/PASTEMASK_BOTTOM*
G04 Layer:  PACKAGE GEOMETRY/PASTEMASK_BOTTOM*
G04 *
G04 Offset:    (0.000 0.000)*
G04 Mirror:    No*
G04 Mode:      Positive*
G04 Rotation:  0*
G04 FullContactRelief:  No*
G04 UndefLineWidth:     0.200*
G04 ================== end FILE IDENTIFICATION RECORD ====================*
%FSLAX35Y35*MOMM*%
%IR0*IPPOS*OFA0.00000B0.00000*MIA0B0*SFA1.00000B1.00000*%
%ADD24R,.9X1.*%
%ADD15R,1.X.9*%
%ADD19R,1.45X.45*%
%ADD22R,.025X.025*%
%ADD23O,.397X.037*%
%ADD21O,.037X.397*%
%ADD13R,1.X1.05*%
%ADD18R,1.2X1.4*%
%ADD12R,1.4X1.2*%
%ADD11R,2.2X1.05*%
%ADD16R,.3X.4*%
%ADD20R,1.45X1.2*%
%ADD17R,.5X.5*%
%ADD10R,.6X.6*%
%ADD14R,.66X.356*%
G75*
%LPD*%
G75*
G36*
G01X4120000Y1249500D02*
Y1070600D01*
X3950200D01*
Y1249500D01*
X4120000D01*
G37*
G36*
G01X4309800D02*
Y1070600D01*
X4140000D01*
Y1249500D01*
X4309800D01*
G37*
G36*
G01X5120000D02*
Y1070600D01*
X4950200D01*
Y1249500D01*
X5120000D01*
G37*
G36*
G01X5309800D02*
Y1070600D01*
X5140000D01*
Y1249500D01*
X5309800D01*
G37*
G54D10*
X140000Y2675000D03*
Y2765000D03*
X530000Y2675000D03*
Y2765000D03*
X400000Y2675000D03*
Y2765000D03*
X270000Y2675000D03*
Y2765000D03*
X1140000Y3715000D03*
Y3805000D03*
X1645000Y370000D03*
Y550000D03*
Y240000D03*
X1425000D03*
X1515000D03*
X1645000Y680000D03*
X1425000D03*
X1515000D03*
X1700000Y3985000D03*
Y4075000D03*
X1400000Y3985000D03*
Y4075000D03*
X1360000Y4915000D03*
Y5005000D03*
X1580000D03*
Y4915000D03*
X1690000Y5005000D03*
Y4915000D03*
X1470000Y5005000D03*
Y4915000D03*
X1735000Y370000D03*
Y550000D03*
Y240000D03*
Y680000D03*
X2125000Y2520000D03*
X2035000D03*
Y2640000D03*
X2125000D03*
X2035000Y2750000D03*
X2125000D03*
X1910000Y4915000D03*
Y5005000D03*
X1800000D03*
Y4915000D03*
X2425000Y1400000D03*
X2335000D03*
X2425000Y1290000D03*
X2335000D03*
X2425000Y1180000D03*
X2335000D03*
X2615000Y2930000D03*
X2275000D03*
X2365000D03*
X2565000Y3715000D03*
Y3805000D03*
X3105000Y490000D03*
Y380000D03*
Y600000D03*
X2705000Y2930000D03*
X2955000Y2640000D03*
X2865000D03*
X2955000Y2750000D03*
X2865000D03*
X3125000Y3985000D03*
Y4075000D03*
X2825000Y3985000D03*
Y4075000D03*
X2785000Y4915000D03*
Y5005000D03*
X3005000D03*
Y4915000D03*
X3115000Y5005000D03*
Y4915000D03*
X2895000Y5005000D03*
Y4915000D03*
X3195000Y490000D03*
Y380000D03*
Y600000D03*
X3620000Y1235000D03*
Y1325000D03*
X3335000Y4915000D03*
Y5005000D03*
X3225000D03*
Y4915000D03*
X3740000Y995000D03*
X3890000Y880000D03*
Y790000D03*
X3740000Y1085000D03*
Y1325000D03*
Y1235000D03*
X3915000Y2930000D03*
X4005000D03*
X3765000Y2520000D03*
X3675000D03*
Y2640000D03*
X3765000D03*
X3675000Y2750000D03*
X3765000D03*
X3990000Y3715000D03*
Y3805000D03*
X4530000Y1325000D03*
Y1235000D03*
X4345000Y2930000D03*
X4255000D03*
X4505000Y2640000D03*
Y2750000D03*
X4550000Y3985000D03*
Y4075000D03*
X4250000Y3985000D03*
Y4075000D03*
X4210000Y4915000D03*
Y5005000D03*
X4430000D03*
Y4915000D03*
X4540000Y5005000D03*
Y4915000D03*
X4320000Y5005000D03*
Y4915000D03*
X4750000Y995000D03*
X4890000Y880000D03*
Y790000D03*
X4630000Y1235000D03*
Y1325000D03*
X4750000Y1085000D03*
Y1325000D03*
Y1235000D03*
X4595000Y2640000D03*
Y2750000D03*
X4760000Y4915000D03*
Y5005000D03*
X4650000D03*
Y4915000D03*
X5530000Y1325000D03*
Y1235000D03*
X5415000Y3715000D03*
Y3805000D03*
X5955000Y2520000D03*
Y2640000D03*
Y2750000D03*
X5975000Y3985000D03*
Y4075000D03*
X5675000Y3985000D03*
Y4075000D03*
X5635000Y4915000D03*
Y5005000D03*
X5855000D03*
Y4915000D03*
X5965000Y5005000D03*
Y4915000D03*
X5745000Y5005000D03*
Y4915000D03*
X6195000Y2930000D03*
X6285000D03*
X6045000Y2520000D03*
Y2640000D03*
Y2750000D03*
X6185000Y4915000D03*
Y5005000D03*
X6075000D03*
Y4915000D03*
X6910000Y535000D03*
Y445000D03*
Y245000D03*
Y335000D03*
X6790000Y535000D03*
Y445000D03*
Y245000D03*
Y335000D03*
X6625000Y2930000D03*
X6535000D03*
X6875000Y2640000D03*
X6785000D03*
X6875000Y2750000D03*
X6785000D03*
X7395000Y2520000D03*
X7305000D03*
Y2640000D03*
X7395000D03*
X7305000Y2750000D03*
X7395000D03*
X7310000Y3715000D03*
Y3805000D03*
X7950000Y1235000D03*
Y1325000D03*
X7885000Y2930000D03*
X7545000D03*
X7635000D03*
X7870000Y3985000D03*
Y4075000D03*
X7570000Y3985000D03*
Y4075000D03*
X7530000Y4915000D03*
Y5005000D03*
X7750000D03*
Y4915000D03*
X7860000Y5005000D03*
Y4915000D03*
X7640000Y5005000D03*
Y4915000D03*
X7975000Y2930000D03*
X8225000Y2640000D03*
X8135000D03*
X8225000Y2750000D03*
X8135000D03*
X8080000Y4915000D03*
Y5005000D03*
X7970000D03*
Y4915000D03*
X8915000Y2780000D03*
X8715000D03*
X8805000D03*
X8915000Y2930000D03*
X8715000D03*
X8805000D03*
X8735000Y3715000D03*
Y3805000D03*
X9005000Y2780000D03*
Y2930000D03*
X9110000Y3125000D03*
Y3035000D03*
X9295000Y3985000D03*
Y4075000D03*
X8995000Y3985000D03*
Y4075000D03*
X8955000Y4915000D03*
Y5005000D03*
X9175000D03*
Y4915000D03*
X9285000Y5005000D03*
Y4915000D03*
X9395000Y5005000D03*
Y4915000D03*
X9065000Y5005000D03*
Y4915000D03*
X9505000D03*
Y5005000D03*
X10335000Y2780000D03*
X10135000D03*
X10225000D03*
X10335000Y2930000D03*
X10135000D03*
X10225000D03*
X10160000Y3715000D03*
Y3805000D03*
X10425000Y2780000D03*
Y2930000D03*
X10530000Y3125000D03*
Y3035000D03*
X10720000Y3985000D03*
Y4075000D03*
X10420000Y3985000D03*
Y4075000D03*
X10380000Y4915000D03*
Y5005000D03*
X10600000D03*
Y4915000D03*
X10710000Y5005000D03*
Y4915000D03*
X10820000Y5005000D03*
Y4915000D03*
X10490000Y5005000D03*
Y4915000D03*
X10930000D03*
Y5005000D03*
X11725000Y610000D03*
X11775000Y2780000D03*
X11575000D03*
X11665000D03*
X11775000Y2930000D03*
X11575000D03*
X11665000D03*
X11585000Y3715000D03*
Y3805000D03*
X11805000Y4915000D03*
Y5005000D03*
X12125000Y420000D03*
X12035000D03*
X12245000Y620000D03*
X12155000D03*
X12235000Y880000D03*
X12145000D03*
X11815000Y610000D03*
X11865000Y2780000D03*
Y2930000D03*
X11970000Y3125000D03*
Y3035000D03*
X12145000Y3985000D03*
Y4075000D03*
X11845000Y3985000D03*
Y4075000D03*
X12025000Y5005000D03*
Y4915000D03*
X12135000Y5005000D03*
Y4915000D03*
X12245000Y5005000D03*
Y4915000D03*
X11915000Y5005000D03*
Y4915000D03*
X12355000D03*
Y5005000D03*
X13185000Y2790000D03*
X13095000D03*
X12895000D03*
X12985000D03*
X13185000Y2940000D03*
X13095000D03*
X12895000D03*
X12985000D03*
X13290000Y3125000D03*
Y3035000D03*
G54D20*
X2730000Y1085000D03*
Y1255000D03*
G54D11*
X1110000Y92500D03*
Y387500D03*
Y532500D03*
Y827500D03*
G54D12*
X1140000Y4830000D03*
Y5010000D03*
X1550000Y4020000D03*
Y4200000D03*
X2565000Y4830000D03*
Y5010000D03*
X2930000Y1270000D03*
Y1090000D03*
X2975000Y4020000D03*
Y4200000D03*
X3990000Y4830000D03*
Y5010000D03*
X4400000Y4020000D03*
Y4200000D03*
X5415000Y4830000D03*
Y5010000D03*
X5825000Y4020000D03*
Y4200000D03*
X7310000Y4830000D03*
Y5010000D03*
X7720000Y4020000D03*
Y4200000D03*
X8735000Y4830000D03*
Y5010000D03*
X9145000Y4020000D03*
Y4200000D03*
X10160000Y4830000D03*
Y5010000D03*
X10570000Y4020000D03*
Y4200000D03*
X11585000Y4830000D03*
Y5010000D03*
X11995000Y4020000D03*
Y4200000D03*
G54D21*
X3902500Y995000D03*
X3952500D03*
X4002500D03*
X4052500D03*
X4055000Y1325000D03*
X4005000D03*
X3955000D03*
X3905000D03*
X4102500Y995000D03*
X4152500D03*
X4202500D03*
X4252500D03*
X4302500D03*
X4352500D03*
X4355000Y1325000D03*
X4305000D03*
X4255000D03*
X4205000D03*
X4155000D03*
X4105000D03*
X4902500Y995000D03*
X4952500D03*
X5002500D03*
X5005000Y1325000D03*
X4955000D03*
X4905000D03*
X5052500Y995000D03*
X5102500D03*
X5152500D03*
X5202500D03*
X5252500D03*
X5302500D03*
X5352500D03*
X5355000Y1325000D03*
X5305000D03*
X5255000D03*
X5205000D03*
X5155000D03*
X5105000D03*
X5055000D03*
G54D13*
X1262500Y240000D03*
Y680000D03*
G54D22*
X4130000Y1160000D03*
X5130000D03*
G54D14*
X1290000Y4053500D03*
Y3966500D03*
X1810000Y3976500D03*
Y4063500D03*
X2715000Y4053500D03*
Y3966500D03*
X3235000Y3976500D03*
Y4063500D03*
X4140000Y4053500D03*
Y3966500D03*
X4660000Y3976500D03*
Y4063500D03*
X5565000Y4053500D03*
Y3966500D03*
X6085000Y3976500D03*
Y4063500D03*
X7460000Y4053500D03*
Y3966500D03*
X7980000Y3976500D03*
Y4063500D03*
X8885000Y4053500D03*
Y3966500D03*
X9405000Y3976500D03*
Y4063500D03*
X10310000Y4053500D03*
Y3966500D03*
X10830000Y3976500D03*
Y4063500D03*
X11735000Y4053500D03*
Y3966500D03*
X12255000Y3976500D03*
Y4063500D03*
G54D23*
X3865000Y1085000D03*
Y1235000D03*
X4395000Y1085000D03*
Y1235000D03*
X4865000Y1085000D03*
Y1235000D03*
X5395000Y1085000D03*
Y1235000D03*
G54D15*
X1710000Y7265000D03*
Y7415000D03*
X3140000Y7265000D03*
Y7415000D03*
X4560000Y7265000D03*
Y7415000D03*
X5990000Y7265000D03*
Y7415000D03*
X7880000Y7265000D03*
Y7415000D03*
X9300000Y7265000D03*
Y7415000D03*
X10730000Y7265000D03*
Y7415000D03*
X12150000Y7265000D03*
Y7415000D03*
X13150000Y635000D03*
Y785000D03*
G54D24*
X7835000Y510000D03*
X7685000D03*
X7995000D03*
X8145000D03*
X13665000Y400000D03*
X13515000D03*
G54D16*
X1645000Y7535000D03*
X3070000D03*
X4495000D03*
X5920000D03*
X7810000D03*
X9235000D03*
X10660000D03*
X12085000D03*
G54D17*
X1575000Y7560000D03*
X1715000D03*
X3000000D03*
X3140000D03*
X4425000D03*
X4565000D03*
X5850000D03*
X5990000D03*
X7740000D03*
X7880000D03*
X9165000D03*
X9305000D03*
X10590000D03*
X10730000D03*
X12015000D03*
X12155000D03*
G54D18*
X2590000Y410000D03*
X2410000D03*
X2420000Y1020000D03*
X2240000D03*
G54D19*
X2270000Y2787500D03*
Y2722500D03*
Y2657500D03*
Y2592500D03*
X2710000D03*
Y2657500D03*
Y2722500D03*
Y2787500D03*
X3910000D03*
Y2722500D03*
Y2657500D03*
Y2592500D03*
X4350000D03*
Y2657500D03*
Y2722500D03*
Y2787500D03*
X6190000D03*
Y2722500D03*
Y2657500D03*
Y2592500D03*
X6630000D03*
Y2657500D03*
Y2722500D03*
Y2787500D03*
X7540000D03*
Y2722500D03*
Y2657500D03*
Y2592500D03*
X7980000D03*
Y2657500D03*
Y2722500D03*
Y2787500D03*
M02*
