G04 ================== begin FILE IDENTIFICATION RECORD ==================*
G04 Layout Name:  pc065d_fibv2a_toplevel_29.brd*
G04 Film Name:    art_pc065d_02_LSM1*
G04 File Format:  Gerber RS274X*
G04 File Origin:  Cadence Allegro 24.1-P001*
G04 Origin Date:  Mon Aug  4 18:02:59 2025*
G04 *
G04 Layer:  PIN/SOLDERMASK_TOP*
G04 Layer:  PACKAGE GEOMETRY/SOLDERMASK_TOP*
G04 Layer:  BOARD GEOMETRY/SOLDERMASK_TOP*
G04 *
G04 Offset:    (0.000 0.000)*
G04 Mirror:    No*
G04 Mode:      Positive*
G04 Rotation:  0*
G04 FullContactRelief:  No*
G04 UndefLineWidth:     0.200*
G04 ================== end FILE IDENTIFICATION RECORD ====================*
%FSLAX35Y35*MOMM*%
%IR0*IPPOS*OFA0.00000B0.00000*MIA0B0*SFA1.00000B1.00000*%
%ADD22R,.5X2.*%
%ADD16R,1.2X.9*%
%ADD32C,1.3*%
%ADD17C,1.7*%
%ADD23R,.45X1.45*%
%ADD31R,1.45X.45*%
%ADD19C,1.55*%
%ADD10C,6.5*%
%ADD18C,1.65*%
%ADD35C,1.651*%
%ADD20C,1.75*%
%ADD13R,.85X1.85*%
%ADD25R,.635X2.159*%
%ADD24R,2.159X.635*%
%ADD12R,1.2X1.45*%
%ADD21R,1.45X1.2*%
%ADD29O,.702X.342*%
%ADD28O,.342X.702*%
%ADD30R,4.152X2.152*%
%ADD26C,.602*%
%ADD11R,1.45X1.65*%
%ADD36R,1.65X1.45*%
%ADD27C,.64*%
%ADD33R,2.65X1.95*%
%ADD15R,.711X.229*%
%ADD14R,.85X.85*%
%ADD34R,.483X.914*%
G75*
%LPD*%
G75*
G36*
G01X6002700Y1115400D02*
Y1204600D01*
X5972400D01*
Y1115400D01*
X6002700D01*
G37*
G36*
G01X6005100Y1170100D02*
Y1204500D01*
X5919900D01*
Y1170100D01*
X6005100D01*
G37*
G36*
G01Y1115300D02*
Y1149700D01*
X5919900D01*
Y1115300D01*
X6005100D01*
G37*
G36*
G01X6394900Y1204700D02*
Y1170300D01*
X6480100D01*
Y1204700D01*
X6394900D01*
G37*
G36*
G01Y1149900D02*
Y1115500D01*
X6480100D01*
Y1149900D01*
X6394900D01*
G37*
G36*
G01X6427600Y1115400D02*
Y1204600D01*
X6397300D01*
Y1115400D01*
X6427600D01*
G37*
G36*
G01X13112700Y5475400D02*
Y5564600D01*
X13082400D01*
Y5475400D01*
X13112700D01*
G37*
G36*
G01X13115100Y5530100D02*
Y5564500D01*
X13029900D01*
Y5530100D01*
X13115100D01*
G37*
G36*
G01Y5475300D02*
Y5509700D01*
X13029900D01*
Y5475300D01*
X13115100D01*
G37*
G36*
G01X13504900Y5564700D02*
Y5530300D01*
X13590100D01*
Y5564700D01*
X13504900D01*
G37*
G36*
G01Y5509900D02*
Y5475500D01*
X13590100D01*
Y5509900D01*
X13504900D01*
G37*
G36*
G01X13537600Y5475400D02*
Y5564600D01*
X13507300D01*
Y5475400D01*
X13537600D01*
G37*
G54D10*
X300000Y1090000D03*
X550000Y6550000D03*
X7300000Y1090000D03*
X13205000Y6550000D03*
X13600000Y1090000D03*
G54D11*
X220000Y1600000D03*
X200000Y2090000D03*
X400000Y1600000D03*
X380000Y2090000D03*
X1530000Y1810000D03*
X1350000D03*
X13160000Y2120000D03*
X13340000D03*
X13600000Y2760000D03*
X13420000D03*
X13600000Y2960000D03*
X13420000D03*
X13510000Y3575000D03*
X13330000D03*
X13510000Y3890000D03*
X13330000D03*
X13510000Y4250000D03*
X13330000D03*
G54D20*
X932500Y5260000D03*
X1250000Y5760000D03*
X932500Y6260000D03*
Y7260000D03*
X1500000D03*
X1790000Y5760000D03*
X2357500Y3760000D03*
Y4760000D03*
Y5760000D03*
X2675000D03*
X2357500Y6760000D03*
X3215000Y5760000D03*
X2925000Y7260000D03*
X4100000Y5760000D03*
X4640000D03*
X4350000Y7260000D03*
X5207500Y5260000D03*
X5525000Y5760000D03*
X5207500Y6260000D03*
Y7260000D03*
X6065000Y5760000D03*
X5775000Y7260000D03*
X6632500Y3760000D03*
Y4760000D03*
Y5760000D03*
Y6760000D03*
X7097500Y5260000D03*
X7415000Y5760000D03*
X7097500Y6260000D03*
Y7260000D03*
X7955000Y5760000D03*
X7665000Y7260000D03*
X8522500Y3760000D03*
Y4760000D03*
Y5760000D03*
Y6760000D03*
X8840000Y5760000D03*
X9380000D03*
X9090000Y7260000D03*
X10265000Y5760000D03*
X10805000D03*
X10515000Y7260000D03*
X11372500Y5260000D03*
Y6260000D03*
Y7260000D03*
X11690000Y5760000D03*
X12230000D03*
X11940000Y7260000D03*
X12797500Y3760000D03*
Y4760000D03*
Y5760000D03*
Y6760000D03*
G54D30*
X6200000Y1160000D03*
X13310000Y5520000D03*
G54D21*
X1530000Y1465000D03*
Y1635000D03*
G54D12*
X225000Y1780000D03*
X395000D03*
G54D13*
X139500Y2395000D03*
Y2925000D03*
X520500Y2395000D03*
X393500D03*
X266500D03*
Y2925000D03*
X393500D03*
X520500D03*
G54D31*
X6630000Y292500D03*
Y357500D03*
Y422500D03*
Y487500D03*
X7070000D03*
Y422500D03*
Y357500D03*
Y292500D03*
G54D22*
X1464000Y3760000D03*
X1624000D03*
X1384000D03*
X1544000D03*
X1304000D03*
X1264000Y4580000D03*
X1344000D03*
X1424000D03*
X1504000D03*
X1584000D03*
X1664000D03*
X1944000Y3760000D03*
X1864000D03*
X2024000D03*
X1784000D03*
X1704000D03*
X1744000Y4580000D03*
X1824000D03*
X1904000D03*
X1984000D03*
X2889000Y3760000D03*
X3129000D03*
X3049000D03*
X2809000D03*
X2969000D03*
X2729000D03*
X2689000Y4580000D03*
X2769000D03*
X2849000D03*
X2929000D03*
X3009000D03*
X3089000D03*
X3369000Y3760000D03*
X3289000D03*
X3449000D03*
X3209000D03*
X3169000Y4580000D03*
X3249000D03*
X3329000D03*
X3409000D03*
X4314000Y3760000D03*
X4554000D03*
X4474000D03*
X4234000D03*
X4394000D03*
X4154000D03*
X4114000Y4580000D03*
X4194000D03*
X4274000D03*
X4354000D03*
X4434000D03*
X4514000D03*
X4794000Y3760000D03*
X4714000D03*
X4874000D03*
X4634000D03*
X4594000Y4580000D03*
X4674000D03*
X4754000D03*
X4834000D03*
X5739000Y3760000D03*
X5979000D03*
X5899000D03*
X5659000D03*
X5819000D03*
X5579000D03*
X5539000Y4580000D03*
X5619000D03*
X5699000D03*
X5779000D03*
X5859000D03*
X5939000D03*
X6219000Y3760000D03*
X6139000D03*
X6299000D03*
X6059000D03*
X6019000Y4580000D03*
X6099000D03*
X6179000D03*
X6259000D03*
X7434000D03*
X7634000Y3760000D03*
X7874000D03*
X7794000D03*
X7554000D03*
X7714000D03*
X7474000D03*
X7514000Y4580000D03*
X7594000D03*
X7674000D03*
X7754000D03*
X7834000D03*
X7914000D03*
X8114000Y3760000D03*
X8034000D03*
X8194000D03*
X7954000D03*
X7994000Y4580000D03*
X8074000D03*
X8154000D03*
X8899000Y3760000D03*
X8859000Y4580000D03*
X9059000Y3760000D03*
X9379000D03*
X9299000D03*
X9219000D03*
X8979000D03*
X9139000D03*
X8939000Y4580000D03*
X9019000D03*
X9099000D03*
X9179000D03*
X9259000D03*
X9339000D03*
X9539000Y3760000D03*
X9459000D03*
X9619000D03*
X9419000Y4580000D03*
X9499000D03*
X9579000D03*
X10324000Y3760000D03*
X10284000Y4580000D03*
X10484000Y3760000D03*
X10804000D03*
X10724000D03*
X10644000D03*
X10404000D03*
X10564000D03*
X10364000Y4580000D03*
X10444000D03*
X10524000D03*
X10604000D03*
X10684000D03*
X10764000D03*
X10964000Y3760000D03*
X10884000D03*
X11044000D03*
X10844000Y4580000D03*
X10924000D03*
X11004000D03*
X11749000Y3760000D03*
X11709000Y4580000D03*
X11789000D03*
X11909000Y3760000D03*
X12229000D03*
X12149000D03*
X12069000D03*
X11829000D03*
X11989000D03*
X11869000Y4580000D03*
X11949000D03*
X12029000D03*
X12109000D03*
X12189000D03*
X12269000D03*
X12389000Y3760000D03*
X12309000D03*
X12469000D03*
X12349000Y4580000D03*
X12429000D03*
G54D14*
X415000Y1930000D03*
X325000D03*
X660000Y1595000D03*
Y1685000D03*
Y2165000D03*
Y2075000D03*
Y2435000D03*
Y2345000D03*
X1125000Y1460000D03*
X1215000D03*
X950000Y1785000D03*
Y1875000D03*
X820000Y2165000D03*
Y2075000D03*
X845000Y2520000D03*
X935000D03*
X845000Y2780000D03*
X935000D03*
X1380000Y1465000D03*
Y1555000D03*
X2160000Y885000D03*
Y975000D03*
X1965000Y790000D03*
X1875000D03*
Y980000D03*
X1965000D03*
X1945000Y1120000D03*
X1855000D03*
X2060000Y1125000D03*
Y1215000D03*
X1965000Y1360000D03*
X1875000D03*
X1965000Y1470000D03*
X1875000D03*
X1855000Y1220000D03*
X1945000D03*
X1855000Y2590000D03*
X1765000D03*
X2055000D03*
X1965000D03*
X1767000Y3336000D03*
X1857000D03*
X2052000Y3335000D03*
X1962000D03*
X3275000Y2590000D03*
X3185000D03*
X3475000D03*
X3385000D03*
X3192000Y3336000D03*
X3282000D03*
X3477000Y3335000D03*
X3387000D03*
X4695000Y2590000D03*
X4605000D03*
X4895000D03*
X4805000D03*
X4617000Y3336000D03*
X4707000D03*
X4902000Y3335000D03*
X4812000D03*
X5690000Y995000D03*
X5810000D03*
X5690000Y1085000D03*
X5810000Y1325000D03*
Y1235000D03*
Y1085000D03*
X5960000Y1440000D03*
Y1530000D03*
X6470000Y535000D03*
Y625000D03*
X6125000Y2590000D03*
X6035000D03*
X6325000D03*
X6235000D03*
X6042000Y3336000D03*
X6132000D03*
X6327000Y3335000D03*
X6237000D03*
X6635000Y140000D03*
X6545000D03*
X6600000Y995000D03*
Y1085000D03*
X7250000Y165000D03*
Y255000D03*
X7935000Y2590000D03*
X7937000Y3336000D03*
X8025000Y2590000D03*
X8225000D03*
X8135000D03*
X8027000Y3336000D03*
X8222000Y3335000D03*
X8132000D03*
X8635000Y2710000D03*
X8545000D03*
X8550000Y2965000D03*
Y3055000D03*
X9355000Y2590000D03*
X9362000Y3336000D03*
X9445000Y2590000D03*
X9645000D03*
X9555000D03*
X9452000Y3336000D03*
X9647000Y3335000D03*
X9557000D03*
X10055000Y2710000D03*
X9965000D03*
X9970000Y2965000D03*
Y3055000D03*
X10795000Y2590000D03*
X10787000Y3336000D03*
X10885000Y2590000D03*
X11085000D03*
X10995000D03*
X10877000Y3336000D03*
X11072000Y3335000D03*
X10982000D03*
X11495000Y2710000D03*
X11405000D03*
X11410000Y2965000D03*
Y3055000D03*
X12215000Y2590000D03*
X12212000Y3336000D03*
X12725000Y2710000D03*
X12730000Y2965000D03*
X12305000Y2590000D03*
X12505000D03*
X12415000D03*
X12302000Y3336000D03*
X12497000Y3335000D03*
X12407000D03*
X12730000Y3055000D03*
X12815000Y2710000D03*
X12950000Y5335000D03*
X13050000Y5105000D03*
Y5015000D03*
X12950000Y5425000D03*
Y5635000D03*
Y5545000D03*
X13100000Y5995000D03*
Y6085000D03*
X13590000Y1835000D03*
Y1745000D03*
X13480000Y1835000D03*
Y1745000D03*
X13700000Y1835000D03*
Y1745000D03*
X13485000Y1950000D03*
X13575000D03*
X13545000Y3720000D03*
X13455000D03*
X13545000Y4400000D03*
X13455000D03*
X13545000Y4040000D03*
X13455000D03*
X13810000Y1935000D03*
Y1845000D03*
X13820000Y2475000D03*
Y2565000D03*
X13780000Y5205000D03*
Y5115000D03*
G54D23*
X2007500Y2740000D03*
X1942500D03*
X1877500D03*
X1812500D03*
Y3180000D03*
X1877500D03*
X1942500D03*
X2007500D03*
X3432500Y2740000D03*
X3367500D03*
X3302500D03*
X3237500D03*
Y3180000D03*
X3302500D03*
X3367500D03*
X3432500D03*
X4857500Y2740000D03*
X4792500D03*
X4727500D03*
X4662500D03*
Y3180000D03*
X4727500D03*
X4792500D03*
X4857500D03*
X6282500Y2740000D03*
X6217500D03*
X6152500D03*
X6087500D03*
Y3180000D03*
X6152500D03*
X6217500D03*
X6282500D03*
X8177500Y2740000D03*
X8112500D03*
X8047500D03*
X7982500D03*
Y3180000D03*
X8047500D03*
X8112500D03*
X8177500D03*
X8892500Y2640000D03*
X8827500D03*
X8762500D03*
Y3080000D03*
X8827500D03*
X8892500D03*
X8957500Y2640000D03*
Y3080000D03*
X9602500Y2740000D03*
X9537500D03*
X9472500D03*
X9407500D03*
Y3180000D03*
X9472500D03*
X9537500D03*
X9602500D03*
X10312500Y2640000D03*
X10247500D03*
X10182500D03*
Y3080000D03*
X10247500D03*
X10312500D03*
X10377500Y2640000D03*
Y3080000D03*
X11027500Y2740000D03*
X10962500D03*
X10897500D03*
X10832500D03*
Y3180000D03*
X10897500D03*
X10962500D03*
X11027500D03*
X11752500Y2640000D03*
X11687500D03*
X11622500D03*
Y3080000D03*
X11687500D03*
X11752500D03*
X12257500Y2740000D03*
X11817500Y2640000D03*
X12257500Y3180000D03*
X11817500Y3080000D03*
X12452500Y2740000D03*
X12387500D03*
X12322500D03*
Y3180000D03*
X12387500D03*
X12452500D03*
X13137500Y2640000D03*
X13072500D03*
X13007500D03*
X12942500D03*
Y3080000D03*
X13007500D03*
X13072500D03*
X13137500D03*
G54D32*
X7730000Y890000D03*
X13168000Y1195000D03*
G54D15*
X660000Y1830000D03*
Y1880000D03*
Y1930000D03*
X820000D03*
Y1880000D03*
Y1830000D03*
G54D33*
X13600000Y2350000D03*
G54D24*
X2390000Y970000D03*
Y890000D03*
Y810000D03*
Y1370000D03*
Y1290000D03*
Y1210000D03*
Y1130000D03*
Y1050000D03*
X3230000Y810000D03*
Y890000D03*
Y970000D03*
Y1050000D03*
Y1130000D03*
Y1210000D03*
Y1290000D03*
Y1370000D03*
G54D34*
X13697500Y2130500D03*
X13632500D03*
X13567500D03*
X13502500D03*
Y2569500D03*
X13567500D03*
X13632500D03*
X13697500D03*
G54D25*
X2530000Y670000D03*
X2610000D03*
Y1510000D03*
X2530000D03*
X2690000Y670000D03*
X2770000D03*
X2850000D03*
X2930000D03*
X3010000D03*
X3090000D03*
Y1510000D03*
X3010000D03*
X2930000D03*
X2850000D03*
X2770000D03*
X2690000D03*
G54D16*
X1060000Y993000D03*
Y1247000D03*
Y1120000D03*
X1280000Y993000D03*
Y1120000D03*
Y1247000D03*
G54D26*
X3940000Y1160000D03*
X4320000D03*
X4940000D03*
X5320000D03*
X6010000D03*
X6390000D03*
X13120000Y5520000D03*
X13500000D03*
G54D35*
X13440000Y4866000D03*
G54D17*
X1130000Y2516000D03*
Y2770000D03*
Y3024000D03*
X13730000Y3773000D03*
Y3519000D03*
Y4027000D03*
Y4281000D03*
G54D27*
X4130000Y1082500D03*
Y1237500D03*
X5130000Y1082500D03*
Y1237500D03*
X6200000D03*
Y1082500D03*
X7972500Y318500D03*
X8099500D03*
X8226500D03*
X8353500D03*
X7972500Y445500D03*
X8099500D03*
X8226500D03*
X8353500D03*
X7972500Y572500D03*
X8099500D03*
X8226500D03*
X8353500D03*
X7972500Y699500D03*
X8099500D03*
X8226500D03*
X8353500D03*
X7972500Y826500D03*
X8099500D03*
X8226500D03*
X8353500D03*
X7972500Y953500D03*
X8099500D03*
X8226500D03*
X8353500D03*
X7972500Y1080500D03*
X8099500D03*
X8226500D03*
X8353500D03*
X7972500Y1207500D03*
X8099500D03*
X8226500D03*
X8353500D03*
X7972500Y1334500D03*
X8099500D03*
X8226500D03*
X8353500D03*
X7972500Y1461500D03*
X8099500D03*
X8226500D03*
X8353500D03*
X8480500Y318500D03*
X8607500D03*
X8734500D03*
X8861500D03*
X8480500Y445500D03*
X8607500D03*
X8734500D03*
X8861500D03*
X8480500Y572500D03*
X8607500D03*
X8734500D03*
X8861500D03*
X8480500Y699500D03*
X8607500D03*
X8734500D03*
X8861500D03*
X8480500Y826500D03*
X8607500D03*
X8734500D03*
X8861500D03*
X8480500Y953500D03*
X8607500D03*
X8734500D03*
X8861500D03*
X8480500Y1080500D03*
X8607500D03*
X8734500D03*
X8861500D03*
X8480500Y1207500D03*
X8607500D03*
X8734500D03*
X8861500D03*
X8480500Y1334500D03*
X8607500D03*
X8734500D03*
X8861500D03*
X8480500Y1461500D03*
X8607500D03*
X8734500D03*
X8861500D03*
X8988500Y318500D03*
X9115500D03*
X9242500D03*
X9369500D03*
X8988500Y445500D03*
X9115500D03*
X9242500D03*
X9369500D03*
X8988500Y572500D03*
X9115500D03*
X9242500D03*
X9369500D03*
X8988500Y699500D03*
X9115500D03*
X9242500D03*
X9369500D03*
X8988500Y826500D03*
X9115500D03*
X9242500D03*
X9369500D03*
X8988500Y953500D03*
X9115500D03*
X9242500D03*
X9369500D03*
X8988500Y1080500D03*
X9115500D03*
X9242500D03*
X9369500D03*
X8988500Y1207500D03*
X9115500D03*
X9242500D03*
X9369500D03*
X8988500Y1334500D03*
X9115500D03*
X9242500D03*
X9369500D03*
X8988500Y1461500D03*
X9115500D03*
X9242500D03*
X9369500D03*
X9496500Y318500D03*
X9623500D03*
X9750500D03*
X9877500D03*
X9496500Y445500D03*
X9623500D03*
X9750500D03*
X9877500D03*
X9496500Y572500D03*
X9623500D03*
X9750500D03*
X9877500D03*
X9496500Y699500D03*
X9623500D03*
X9750500D03*
X9877500D03*
X9496500Y826500D03*
X9623500D03*
X9750500D03*
X9877500D03*
X9496500Y953500D03*
X9623500D03*
X9750500D03*
X9877500D03*
X9496500Y1080500D03*
X9623500D03*
X9750500D03*
X9877500D03*
X9496500Y1207500D03*
X9623500D03*
X9750500D03*
X9877500D03*
X9496500Y1334500D03*
X9623500D03*
X9750500D03*
X9877500D03*
X9496500Y1461500D03*
X9623500D03*
X9750500D03*
X9877500D03*
X10004500Y318500D03*
X10131500D03*
X10258500D03*
X10004500Y445500D03*
X10131500D03*
X10258500D03*
X10004500Y572500D03*
X10131500D03*
X10258500D03*
X10004500Y699500D03*
X10131500D03*
X10258500D03*
X10004500Y826500D03*
X10131500D03*
X10258500D03*
X10004500Y953500D03*
X10131500D03*
X10258500D03*
X10004500Y1080500D03*
X10131500D03*
X10258500D03*
X10004500Y1207500D03*
X10131500D03*
X10258500D03*
X10004500Y1334500D03*
X10131500D03*
X10258500D03*
X10004500Y1461500D03*
X10131500D03*
X10258500D03*
X10385500Y318500D03*
X10512500D03*
X10639500D03*
X10766500D03*
X10385500Y445500D03*
X10512500D03*
X10639500D03*
X10766500D03*
X10385500Y572500D03*
X10512500D03*
X10639500D03*
X10766500D03*
X10385500Y699500D03*
X10512500D03*
X10639500D03*
X10766500D03*
X10385500Y826500D03*
X10512500D03*
X10639500D03*
X10766500D03*
X10385500Y953500D03*
X10512500D03*
X10639500D03*
X10766500D03*
X10385500Y1080500D03*
X10512500D03*
X10639500D03*
X10766500D03*
X10385500Y1207500D03*
X10512500D03*
X10639500D03*
X10766500D03*
X10385500Y1334500D03*
X10512500D03*
X10639500D03*
X10766500D03*
X10385500Y1461500D03*
X10512500D03*
X10639500D03*
X10766500D03*
X10893500Y318500D03*
X11020500D03*
X11147500D03*
X11274500D03*
X10893500Y445500D03*
X11020500D03*
X11147500D03*
X11274500D03*
X10893500Y572500D03*
X11020500D03*
X11147500D03*
X11274500D03*
X10893500Y699500D03*
X11020500D03*
X11147500D03*
X11274500D03*
X10893500Y826500D03*
X11020500D03*
X11147500D03*
X11274500D03*
X10893500Y953500D03*
X11020500D03*
X11147500D03*
X11274500D03*
X10893500Y1080500D03*
X11020500D03*
X11147500D03*
X11274500D03*
X10893500Y1207500D03*
X11020500D03*
X11147500D03*
X11274500D03*
X10893500Y1334500D03*
X11020500D03*
X11147500D03*
X11274500D03*
X10893500Y1461500D03*
X11020500D03*
X11147500D03*
X11274500D03*
X11401500Y318500D03*
X11528500D03*
X11655500D03*
X11782500D03*
X11401500Y445500D03*
X11528500D03*
X11655500D03*
X11782500D03*
X11401500Y572500D03*
X11528500D03*
X11655500D03*
X11782500D03*
X11401500Y699500D03*
X11528500D03*
X11655500D03*
X11782500D03*
X11401500Y826500D03*
X11528500D03*
X11655500D03*
X11782500D03*
X11401500Y953500D03*
X11528500D03*
X11655500D03*
X11782500D03*
X11401500Y1080500D03*
X11528500D03*
X11655500D03*
X11782500D03*
X11401500Y1207500D03*
X11528500D03*
X11655500D03*
X11782500D03*
X11401500Y1334500D03*
X11528500D03*
X11655500D03*
X11782500D03*
X11401500Y1461500D03*
X11528500D03*
X11655500D03*
X11782500D03*
X11909500Y318500D03*
X12036500D03*
X12163500D03*
X12290500D03*
X11909500Y445500D03*
X12036500D03*
X12163500D03*
X12290500D03*
X11909500Y572500D03*
X12036500D03*
X12163500D03*
X12290500D03*
X11909500Y699500D03*
X12036500D03*
X12163500D03*
X12290500D03*
X11909500Y826500D03*
X12036500D03*
X12163500D03*
X12290500D03*
X11909500Y953500D03*
X12036500D03*
X12163500D03*
X12290500D03*
X11909500Y1080500D03*
X12036500D03*
X12163500D03*
X12290500D03*
X11909500Y1207500D03*
X12036500D03*
X12163500D03*
X12290500D03*
X11909500Y1334500D03*
X12036500D03*
X12163500D03*
X12290500D03*
X11909500Y1461500D03*
X12036500D03*
X12163500D03*
X12290500D03*
X12417500Y318500D03*
X12544500D03*
X12671500D03*
X12417500Y445500D03*
X12544500D03*
X12671500D03*
X12417500Y572500D03*
X12544500D03*
X12671500D03*
X12417500Y699500D03*
X12544500D03*
X12671500D03*
X12417500Y826500D03*
X12544500D03*
X12671500D03*
X12417500Y953500D03*
X12544500D03*
X12671500D03*
X12417500Y1080500D03*
X12544500D03*
X12671500D03*
X12417500Y1207500D03*
X12544500D03*
X12671500D03*
X12417500Y1334500D03*
X12544500D03*
X12671500D03*
X12417500Y1461500D03*
X12544500D03*
X12671500D03*
X12798500Y318500D03*
X12925500D03*
X12798500Y445500D03*
X12925500D03*
X12798500Y572500D03*
X12925500D03*
X12798500Y699500D03*
X12925500D03*
X12798500Y826500D03*
X12925500D03*
X12798500Y953500D03*
X12925500D03*
X12798500Y1080500D03*
X12925500D03*
X12798500Y1207500D03*
X12925500D03*
X12798500Y1334500D03*
X12925500D03*
X12798500Y1461500D03*
X12925500D03*
X13310000Y5597500D03*
Y5442500D03*
G54D36*
X13790000Y2950000D03*
Y2770000D03*
G54D18*
X932500Y4010000D03*
Y4510000D03*
Y4980000D03*
X1645000Y3550000D03*
X2125000D03*
X2357500Y4980000D03*
X3070000Y3550000D03*
X3550000D03*
X3782500Y3760000D03*
Y4760000D03*
Y5760000D03*
Y6760000D03*
X4495000Y3550000D03*
X4975000D03*
X5207500Y4010000D03*
Y4510000D03*
Y4980000D03*
X5920000Y3550000D03*
X6400000D03*
X6632500Y4980000D03*
X7097500Y4010000D03*
Y4510000D03*
Y4980000D03*
X7810000Y3550000D03*
X8290000D03*
X8522500Y4980000D03*
X9235000Y3550000D03*
X9715000D03*
X9947500Y3760000D03*
Y4760000D03*
Y5760000D03*
Y6760000D03*
X10660000Y3550000D03*
X11140000D03*
X11372500Y4010000D03*
Y4510000D03*
Y4980000D03*
X12085000Y3550000D03*
X12565000D03*
X12797500Y4980000D03*
G54D28*
X5975000Y995000D03*
X5972500Y1325000D03*
X6425000Y995000D03*
X6375000D03*
X6325000D03*
X6275000D03*
X6225000D03*
X6175000D03*
X6125000D03*
X6075000D03*
X6025000D03*
X6022500Y1325000D03*
X6072500D03*
X6122500D03*
X6172500D03*
X6222500D03*
X6272500D03*
X6322500D03*
X6372500D03*
X6422500D03*
X13185000Y5355000D03*
X13135000D03*
X13085000D03*
X13082500Y5685000D03*
X13132500D03*
X13182500D03*
X13535000Y5355000D03*
X13485000D03*
X13435000D03*
X13385000D03*
X13335000D03*
X13285000D03*
X13235000D03*
X13232500Y5685000D03*
X13282500D03*
X13332500D03*
X13382500D03*
X13432500D03*
X13482500D03*
X13532500D03*
G54D19*
X1164000Y4170000D03*
X2124000D03*
X2589000D03*
X3549000D03*
X4014000D03*
X4974000D03*
X5439000D03*
X6399000D03*
X7334000D03*
X8294000D03*
X8759000D03*
X9719000D03*
X10184000D03*
X11144000D03*
X11609000D03*
X12569000D03*
G54D29*
X5935000Y1235000D03*
Y1085000D03*
X6465000Y1235000D03*
Y1085000D03*
X13045000Y5595000D03*
Y5445000D03*
X13575000Y5595000D03*
Y5445000D03*
M02*
