G04 ================== begin FILE IDENTIFICATION RECORD ==================*
G04 Layout Name:  pc065d_fibv2a_toplevel_29.brd*
G04 Film Name:    art_pc065d_07_L05P*
G04 File Format:  Gerber RS274X*
G04 File Origin:  Cadence Allegro 24.1-P001*
G04 Origin Date:  Mon Aug  4 16:57:21 2025*
G04 *
G04 Layer:  VIA CLASS/L5_PWR*
G04 Layer:  PIN/L5_PWR*
G04 Layer:  ETCH/L5_PWR*
G04 *
G04 Offset:    (0.000 0.000)*
G04 Mirror:    No*
G04 Mode:      Positive*
G04 Rotation:  0*
G04 FullContactRelief:  No*
G04 UndefLineWidth:     0.200*
G04 ================== end FILE IDENTIFICATION RECORD ====================*
%FSLAX35Y35*MOMM*%
%IR0*IPPOS*OFA0.00000B0.00000*MIA0B0*SFA1.00000B1.00000*%
%ADD14C,1.*%
%ADD17C,1.001*%
%ADD12C,1.7*%
%ADD10C,4.5*%
%ADD13C,1.65*%
%ADD15C,1.75*%
%ADD18C,1.397*%
%ADD16C,.5*%
%ADD11C,.56*%
%ADD19C,.813*%
%ADD20C,.2*%
%ADD24C,1.004*%
%ADD27C,2.204*%
%ADD29C,5.004*%
%ADD28C,1.71*%
%ADD21C,1.064*%
%ADD23C,2.154*%
%ADD22C,2.254*%
%ADD25C,1.96*%
%ADD26C,1.958*%
G75*
%LPD*%
G75*
G36*
G01X50000Y988500D02*
G02X69600Y992500I10203J24D01*
G03X300000Y839800I230400J97468D01*
G03Y1340200I0J250200D01*
G03X69600Y1187500I0J-250168D01*
G02X50000Y1191500I-9397J3976D01*
G01Y4890000D01*
X230000D01*
G03X380000Y5040000I0J150000D01*
G01Y5070000D01*
X610000D01*
Y5659800D01*
X610200D01*
Y5840200D01*
X610000D01*
Y6270000D01*
X380000D01*
Y6344400D01*
G02X396500Y6352500I10218J42D01*
G03X550000Y6299800I153592J197468D01*
G03Y6800200I0J250200D01*
G03X396500Y6747500I92J-250168D01*
G02X380000Y6755600I-6282J8058D01*
G01Y7600000D01*
X13380000D01*
Y6751600D01*
G02X13363300Y6743700I-10211J-16D01*
G03X13205000Y6800200I-158360J-193679D01*
G03Y6299800I0J-250200D01*
G03X13440200Y6464800I0J250133D01*
G02X13454900Y6470100I9572J-3512D01*
G03X13529800Y6450000I75013J129923D01*
G01X13590000D01*
Y5874900D01*
G02X13574700Y5866100I-10189J14D01*
G03X13548200Y5873200I-26556J-46112D01*
G01X13548100D01*
G03X13535700Y5871700I143J-53183D01*
G02X13523200Y5881400I-2301J9939D01*
G03X13470000Y5933200I-53200J-1419D01*
G03X13458100Y5931900I-207J-53223D01*
G02X13445700Y5941500I-2231J9927D01*
G03X13395300Y5993100I-53176J-1526D01*
G02X13385600Y6002800I502J10202D01*
G03X13332500Y6053200I-53100J-2772D01*
G03X13279300Y6000000I0J-53200D01*
G03X13281400Y5985200I53202J0D01*
G02X13269700Y5972300I-9784J-2882D01*
G03X13260000Y5973200I-9744J-52296D01*
G03X13208500Y5933200I0J-53153D01*
G01X13208100Y5931600D01*
X13203100Y5927600D01*
X13201000Y5927900D01*
G03X13195000Y5928200I-5653J-52919D01*
G03X13183300Y5926900I0J-53300D01*
G02X13171300Y5934100I-2185J9958D01*
G03X13067600Y5929200I-51299J-14101D01*
G02X13054700Y5921100I-10062J1703D01*
G03X13040000Y5923200I-14798J-51086D01*
G03Y5816800I0J-53200D01*
G03X13092400Y5860800I0J53202D01*
G02X13105300Y5868900I10062J-1703D01*
G03X13120000Y5866800I14798J51086D01*
G03X13131700Y5868100I0J53300D01*
G02X13143700Y5860900I2185J-9958D01*
G03X13195000Y5821800I51300J14103D01*
G03X13246500Y5861800I0J53153D01*
G01X13246900Y5863400D01*
X13251900Y5867400D01*
X13254000Y5867100D01*
G03X13260000Y5866800I5653J52919D01*
G03X13313200Y5920000I0J53200D01*
G03X13311100Y5934800I-53202J0D01*
G02X13322800Y5947700I9784J2882D01*
G03X13329700Y5946900I9563J52322D01*
G02X13339400Y5937200I-502J-10202D01*
G03X13392500Y5886800I53100J2772D01*
G03X13404400Y5888100I207J53223D01*
G02X13416800Y5878500I2231J-9927D01*
G03X13470000Y5826800I53200J1522D01*
G03X13482400Y5828300I-143J53183D01*
G02X13494900Y5818600I2301J-9939D01*
G03X13548100Y5766800I53200J1419D01*
G01X13548200D01*
G03X13574700Y5773900I-56J53212D01*
G02X13590000Y5765100I5111J-8814D01*
G01Y5520000D01*
G03X13740000Y5370000I150000J0D01*
G01X13850000D01*
Y4330400D01*
G02X13830500Y4326200I-10198J-20D01*
G03X13730000Y4391200I-100500J-45194D01*
G03Y4170800I0J-110200D01*
G03X13830500Y4235800I0J110194D01*
G02X13850000Y4231600I9302J-4180D01*
G01Y4076400D01*
G02X13830500Y4072200I-10198J-20D01*
G03X13730000Y4137200I-100500J-45194D01*
G03Y3916800I0J-110200D01*
G03X13830500Y3981800I0J110194D01*
G02X13850000Y3977600I9302J-4180D01*
G01Y3568400D01*
G02X13830500Y3564200I-10198J-20D01*
G03X13730000Y3629200I-100500J-45194D01*
G03Y3408800I0J-110200D01*
G03X13830500Y3473800I0J110194D01*
G02X13850000Y3469600I9302J-4180D01*
G01Y3079200D01*
G02X13831800Y3072900I-10199J24D01*
G03X13790000Y3093200I-41800J-32885D01*
G03Y2986800I0J-53200D01*
G03X13831800Y3007100I0J53185D01*
G02X13850000Y3000800I8001J-6324D01*
G01Y2713500D01*
G02X13838000Y2703400I-10210J-48D01*
G03X13820000Y2705900I-17980J-63403D01*
G03X13769000Y2681800I0J-66013D01*
G02X13754500Y2680500I-7886J6442D01*
G03X13720000Y2693200I-34500J-40510D01*
G03Y2586800I0J-53200D01*
G03X13754500Y2599500I0J53210D01*
G02X13769000Y2598200I6614J-7742D01*
G03X13820000Y2574100I51000J41913D01*
G03X13838000Y2576600I20J65903D01*
G02X13850000Y2566500I1790J-10052D01*
G01Y2406000D01*
G02X13835000Y2397000I-10185J-25D01*
G03X13810100Y2403200I-24929J-47018D01*
G01X13810000D01*
G03Y2296800I0J-53200D01*
G01X13810100D01*
G03X13835000Y2303000I-29J53218D01*
G02X13850000Y2294000I4815J-8975D01*
G01Y1876000D01*
G02X13835000Y1867000I-10185J-25D01*
G03X13810100Y1873200I-24929J-47018D01*
G01X13810000D01*
G03Y1766800I0J-53200D01*
G01X13810100D01*
G03X13835000Y1773000I-29J53218D01*
G02X13850000Y1764000I4815J-8975D01*
G01Y1191500D01*
G02X13830400Y1187500I-10203J-24D01*
G03X13600000Y1340200I-230400J-97468D01*
G03Y839800I0J-250200D01*
G03X13830400Y992500I0J250168D01*
G02X13850000Y988500I9397J-3976D01*
G01Y691000D01*
G02X13835000Y682000I-10185J-25D01*
G03X13810100Y688200I-24929J-47018D01*
G01X13810000D01*
G03X13772500Y672700I0J-53113D01*
G03X13697500I-37500J-37613D01*
G03X13660000Y688200I-37500J-37613D01*
G03X13606800Y635000I0J-53200D01*
G03X13622300Y597500I53113J0D01*
G03X13606800Y560000I37613J-37500D01*
G03X13660000Y506800I53200J0D01*
G03X13697500Y522300I0J53113D01*
G03X13735000Y506800I37500J37613D01*
G03X13745900Y507900I135J53214D01*
G02X13757900Y495900I2025J-9975D01*
G03X13756800Y485000I52114J-10765D01*
G03X13772300Y447500I53113J0D01*
G03Y372500I37613J-37500D01*
G03X13756800Y335000I37613J-37500D01*
G03X13757900Y324100I53214J-135D01*
G02X13745900Y312100I-9975J-2025D01*
G03X13735000Y313200I-10765J-52114D01*
G03X13697500Y297700I0J-53113D01*
G03X13660000Y313200I-37500J-37613D01*
G03X13606800Y260000I0J-53200D01*
G03X13622300Y222500I53113J0D01*
G03Y147500I37613J-37500D01*
G03X13606800Y110000I37613J-37500D01*
G03X13627100Y68200I53185J0D01*
G02X13620800Y50000I-6324J-8001D01*
G01X1164500D01*
G02X1155800Y65400I59J10191D01*
G03X1163200Y92500I-45922J27100D01*
G03X1056800I-53200J0D01*
G03X1064200Y65400I53322J0D01*
G02X1055500Y50000I-8759J-5209D01*
G01X50000D01*
Y988500D01*
G37*
G36*
G01X200000Y5820000D02*
Y5670000D01*
X380000D01*
Y5820000D01*
X200000D01*
G37*
%LPC*%
G75*
G36*
G01X2730200Y458800D02*
G02X2720300Y489800I43326J30917D01*
G02X2773500Y543000I53200J0D01*
G02X2810000Y528500I0J-53190D01*
G02X2846500Y543000I36500J-38690D01*
G02X2899700Y489800I0J-53200D01*
G01Y489700D01*
G02X2889800Y458800I-53226J17D01*
G03X2896700Y442800I8270J-5921D01*
G02X2943200Y390000I-6727J-52800D01*
G02X2836800I-53200J0D01*
G01Y390100D01*
G02X2846700Y421000I53226J-17D01*
G03X2839800Y437000I-8270J5921D01*
G02X2810000Y451100I6737J52779D01*
G02X2780200Y437000I-36537J38679D01*
G03X2773300Y421000I1370J-10079D01*
G02X2783200Y390000I-43326J-30917D01*
G02X2676800I-53200J0D01*
G02X2723300Y442800I53227J0D01*
G03X2730200Y458800I-1370J10079D01*
G37*
G36*
G01X13476800Y5217900D02*
Y5220000D01*
G02X13583200I53200J0D01*
G02X13537500Y5167300I-53236J0D01*
G03X13533200Y5162100I771J-5015D01*
G01Y5160000D01*
G02X13490800Y5107900I-53210J0D01*
G03X13482800Y5096700I2111J-9965D01*
G02X13483200Y5090000I-52811J-6515D01*
G02X13437500Y5037300I-53236J0D01*
G03X13433200Y5032100I771J-5015D01*
G01Y5029600D01*
G03X13438600Y5024500I5096J-13D01*
G02X13460000Y5025200I21326J-324502D01*
G01X13555200D01*
Y3664800D01*
X13415200D01*
Y3325200D01*
X13555200D01*
Y2067700D01*
G03X13566900Y2057600I10190J-22D01*
G02X13575000Y2058200I7969J-52610D01*
G02Y1951800I0J-53200D01*
G02X13566900Y1952400I-131J53210D01*
G03X13555200Y1942300I-1510J-10078D01*
G01Y1758400D01*
G03X13569400Y1749000I10212J1D01*
G02X13590000Y1753200I20714J-48977D01*
G02X13636200Y1726500I0J-53321D01*
G03X13653800I8800J5030D01*
G02X13700000Y1753200I46200J-26621D01*
G02Y1646800I0J-53200D01*
G02X13653800Y1673500I0J53321D01*
G03X13636200I-8800J-5030D01*
G02X13590000Y1646800I-46200J26621D01*
G02X13569400Y1651000I114J53177D01*
G03X13555200Y1641600I-3988J-9401D01*
G01Y1544800D01*
X12916300D01*
G03X12906500Y1531900I23J-10190D01*
G02X12908300Y1518100I-51410J-13723D01*
G02X12801900I-53200J0D01*
G02X12803700Y1531900I53210J77D01*
G03X12793900Y1544800I-9823J2710D01*
G01X12789300D01*
G03X12779500Y1531900I23J-10190D01*
G02X12781300Y1518100I-51410J-13723D01*
G02X12674900I-53200J0D01*
G02X12676700Y1531900I53210J77D01*
G03X12666900Y1544800I-9823J2710D01*
G01X12662300D01*
G03X12652500Y1531900I23J-10190D01*
G02X12654300Y1518100I-51410J-13723D01*
G02X12547900I-53200J0D01*
G02X12549700Y1531900I53210J77D01*
G03X12539900Y1544800I-9823J2710D01*
G01X12535300D01*
G03X12525500Y1531900I23J-10190D01*
G02X12527300Y1518100I-51410J-13723D01*
G02X12420900I-53200J0D01*
G02X12422700Y1531900I53210J77D01*
G03X12412900Y1544800I-9823J2710D01*
G01X12408300D01*
G03X12398500Y1531900I23J-10190D01*
G02X12400300Y1518100I-51410J-13723D01*
G02X12293900I-53200J0D01*
G02X12295700Y1531900I53210J77D01*
G03X12285900Y1544800I-9823J2710D01*
G01X12281300D01*
G03X12271500Y1531900I23J-10190D01*
G02X12273300Y1518100I-51410J-13723D01*
G02X12166900I-53200J0D01*
G02X12168700Y1531900I53210J77D01*
G03X12158900Y1544800I-9823J2710D01*
G01X12154300D01*
G03X12144500Y1531900I23J-10190D01*
G02X12146300Y1518100I-51410J-13723D01*
G02X12039900I-53200J0D01*
G02X12041700Y1531900I53210J77D01*
G03X12031900Y1544800I-9823J2710D01*
G01X12027300D01*
G03X12017500Y1531900I23J-10190D01*
G02X12019300Y1518100I-51410J-13723D01*
G02X11912900I-53200J0D01*
G02X11914700Y1531900I53210J77D01*
G03X11904900Y1544800I-9823J2710D01*
G01X11900300D01*
G03X11890500Y1531900I23J-10190D01*
G02X11892300Y1518100I-51410J-13723D01*
G02X11785900I-53200J0D01*
G02X11787700Y1531900I53210J77D01*
G03X11777900Y1544800I-9823J2710D01*
G01X11773300D01*
G03X11763500Y1531900I23J-10190D01*
G02X11765300Y1518100I-51410J-13723D01*
G02X11658900I-53200J0D01*
G02X11660700Y1531900I53210J77D01*
G03X11650900Y1544800I-9823J2710D01*
G01X11327700D01*
Y1539700D01*
G02X11221300I-53200J301D01*
G01Y1544800D01*
X11152100D01*
G03X11142300Y1531900I23J-10190D01*
G02X11144100Y1518100I-51410J-13723D01*
G02X11037700I-53200J0D01*
G02X11039500Y1531900I53210J77D01*
G03X11029700Y1544800I-9823J2710D01*
G01X11025100D01*
G03X11015300Y1531900I23J-10190D01*
G02X11017100Y1518100I-51410J-13723D01*
G02X10910700I-53200J0D01*
G02X10912500Y1531900I53210J77D01*
G03X10902700Y1544800I-9823J2710D01*
G01X10630300D01*
G03X10620500Y1531900I23J-10190D01*
G02X10622300Y1518100I-51410J-13723D01*
G02X10515900I-53200J0D01*
G02X10517700Y1531900I53210J77D01*
G03X10507900Y1544800I-9823J2710D01*
G01X10133200D01*
G03X10123100Y1533900I57J-10182D01*
G02X10123200Y1530000I-53115J-3313D01*
G02X10016800I-53200J0D01*
G02X10016900Y1533900I53215J587D01*
G03X10006800Y1544800I-10157J718D01*
G01X9863200D01*
Y1539700D01*
G02X9756800I-53200J301D01*
G01Y1544800D01*
X9374100D01*
G03X9364300Y1531900I23J-10190D01*
G02X9366100Y1518100I-51410J-13723D01*
G02X9259700I-53200J0D01*
G02X9261500Y1531900I53210J77D01*
G03X9251700Y1544800I-9823J2710D01*
G01X8993100D01*
G03X8983300Y1531900I23J-10190D01*
G02X8985100Y1518100I-51410J-13723D01*
G02X8878700I-53200J0D01*
G02X8880500Y1531900I53210J77D01*
G03X8870700Y1544800I-9823J2710D01*
G01X8612100D01*
G03X8602300Y1531900I23J-10190D01*
G02X8604100Y1518100I-51410J-13723D01*
G02X8497700I-53200J0D01*
G02X8499500Y1531900I53210J77D01*
G03X8489700Y1544800I-9823J2710D01*
G01X8485100D01*
G03X8475300Y1531900I23J-10190D01*
G02X8477100Y1518100I-51410J-13723D01*
G02X8370700I-53200J0D01*
G02X8372500Y1531900I53210J77D01*
G03X8362700Y1544800I-9823J2710D01*
G01X8358100D01*
G03X8348300Y1531900I23J-10190D01*
G02X8350100Y1518100I-51410J-13723D01*
G02X8243700I-53200J0D01*
G02X8245500Y1531900I53210J77D01*
G03X8235700Y1544800I-9823J2710D01*
G01X8231100D01*
G03X8221300Y1531900I23J-10190D01*
G02X8223100Y1518100I-51410J-13723D01*
G02X8116700I-53200J0D01*
G02X8118500Y1531900I53210J77D01*
G03X8108700Y1544800I-9823J2710D01*
G01X6679400D01*
G02X6632500Y1516800I-46900J25279D01*
G02X6596000Y1531300I0J53190D01*
G03X6589000I-3500J-3711D01*
G02X6516000I-36500J38690D01*
G03X6509000I-3500J-3711D01*
G02X6436000I-36500J38690D01*
G03X6429000I-3500J-3711D01*
G02X6356000I-36500J38690D01*
G03X6349000I-3500J-3711D01*
G02X6276000I-36500J38690D01*
G03X6269000I-3500J-3711D01*
G02X6196000I-36500J38690D01*
G03X6189000I-3500J-3711D01*
G02X6116000I-36500J38690D01*
G03X6109000I-3500J-3711D01*
G02X6072500Y1516800I-36500J38690D01*
G02X6025600Y1544800I0J53279D01*
G01X5963200D01*
G03X5953100Y1533900I57J-10182D01*
G02X5953200Y1530000I-53115J-3313D01*
G02X5846800I-53200J0D01*
G02X5846900Y1533900I53215J587D01*
G03X5836800Y1544800I-10157J718D01*
G01X5755200D01*
Y1429600D01*
X5605200Y1279600D01*
Y904800D01*
X5444800D01*
Y1544800D01*
X5410600D01*
X5409800Y1544500D01*
G02X5393000Y1541800I-16735J50510D01*
G02X5376200Y1544500I-65J53210D01*
G01X5375400Y1544800D01*
X5337600D01*
X5336800Y1544500D01*
G02X5320000Y1541800I-16735J50510D01*
G02X5303200Y1544500I-65J53210D01*
G01X5302400Y1544800D01*
X5264600D01*
X5263800Y1544500D01*
G02X5247000Y1541800I-16735J50510D01*
G02X5230200Y1544500I-65J53210D01*
G01X5229400Y1544800D01*
X5191600D01*
X5190800Y1544500D01*
G02X5174000Y1541800I-16735J50510D01*
G02X5157200Y1544500I-65J53210D01*
G01X5156400Y1544800D01*
X5118600D01*
X5117800Y1544500D01*
G02X5101000Y1541800I-16735J50510D01*
G02X5084200Y1544500I-65J53210D01*
G01X5083400Y1544800D01*
X5045600D01*
X5044800Y1544500D01*
G02X5028000Y1541800I-16735J50510D01*
G02X5011200Y1544500I-65J53210D01*
G01X5010400Y1544800D01*
X4972600D01*
X4971800Y1544500D01*
G02X4955000Y1541800I-16735J50510D01*
G02X4938200Y1544500I-65J53210D01*
G01X4937400Y1544800D01*
X4735200D01*
Y994800D01*
X4708400D01*
X4708000Y990200D01*
G02X4602000I-53000J4819D01*
G01X4601600Y994800D01*
X4494800D01*
Y1544800D01*
X4483600D01*
X4482800Y1544500D01*
G02X4466000Y1541800I-16735J50510D01*
G02X4449200Y1544500I-65J53210D01*
G01X4448400Y1544800D01*
X4410600D01*
X4409800Y1544500D01*
G02X4393000Y1541800I-16735J50510D01*
G02X4376200Y1544500I-65J53210D01*
G01X4375400Y1544800D01*
X4337600D01*
X4336800Y1544500D01*
G02X4320000Y1541800I-16735J50510D01*
G02X4303200Y1544500I-65J53210D01*
G01X4302400Y1544800D01*
X4264600D01*
X4263800Y1544500D01*
G02X4247000Y1541800I-16735J50510D01*
G02X4230200Y1544500I-65J53210D01*
G01X4229400Y1544800D01*
X4191600D01*
X4190800Y1544500D01*
G02X4174000Y1541800I-16735J50510D01*
G02X4157200Y1544500I-65J53210D01*
G01X4156400Y1544800D01*
X4118600D01*
X4117800Y1544500D01*
G02X4101000Y1541800I-16735J50510D01*
G02X4084200Y1544500I-65J53210D01*
G01X4083400Y1544800D01*
X4045600D01*
X4044800Y1544500D01*
G02X4028000Y1541800I-16735J50510D01*
G02X4011200Y1544500I-65J53210D01*
G01X4010400Y1544800D01*
X3972600D01*
X3971800Y1544500D01*
G02X3955000Y1541800I-16735J50510D01*
G02X3938200Y1544500I-65J53210D01*
G01X3937400Y1544800D01*
X3705200D01*
Y704800D01*
X3534800D01*
Y1544800D01*
X3336900D01*
G02X3330100Y1535000I-46852J25250D01*
G02X3343200Y1500000I-40206J-35000D01*
G02X3290000Y1446800I-53200J0D01*
G02X3255000Y1459900I0J53306D01*
G02X3220000Y1446800I-35000J40206D01*
G02X3166800Y1500000I0J53200D01*
G02X3179900Y1535000I53306J0D01*
G02X3173100Y1544800I40052J35050D01*
G01X2905200D01*
Y1154800D01*
X2424800D01*
Y1544800D01*
X2403100D01*
X2402400Y1540600D01*
G02X2390100Y1515000I-52382J9413D01*
G02X2403200Y1480000I-40206J-35000D01*
G02X2350000Y1426800I-53200J0D01*
G02X2327300Y1431900I0J53069D01*
G03X2312800Y1423800I-4350J-9241D01*
G02X2260000Y1376800I-52800J6158D01*
G02Y1483200I0J53200D01*
G02X2282700Y1478100I0J-53069D01*
G03X2297200Y1486200I4350J9241D01*
G02X2309900Y1515000I52845J-6103D01*
G02X2297600Y1540600I40082J35013D01*
G01X2296900Y1544800D01*
X1764800D01*
Y2274300D01*
X1760900Y2275200D01*
G02X1722000Y2313400I12574J51711D01*
G03X1716500Y2317200I-4929J-1253D01*
G02X1710000Y2316800I-6511J52799D01*
G02Y2423200I0J53200D01*
G02X1747400Y2407800I0J-53114D01*
G03X1764800Y2415100I7195J7237D01*
G01Y3085200D01*
X3315200D01*
Y2503200D01*
G03X3326100Y2493100I10182J57D01*
G02X3330000Y2493200I3313J-53115D01*
G02X3381800Y2451900I0J-53135D01*
G02X3393500Y2453200I11700J-52000D01*
G02X3430000Y2438700I0J-53190D01*
G02X3466500Y2453200I36500J-38690D01*
G02X3518300Y2411900I0J-53135D01*
G02X3530000Y2413200I11700J-52000D01*
G02Y2306800I0J-53200D01*
G02X3478200Y2348100I0J53135D01*
G02X3466500Y2346800I-11700J52000D01*
G02X3430000Y2361300I0J53190D01*
G02X3393500Y2346800I-36500J38690D01*
G02X3341700Y2388100I0J53135D01*
G02X3318300I-11700J52000D01*
G02X3315600Y2379500I-51911J11574D01*
G01X3315200Y2378600D01*
Y1975200D01*
X3604800D01*
Y3125200D01*
X4425200D01*
Y1975200D01*
X5674800D01*
Y3185200D01*
X5986900D01*
X5987600Y3189400D01*
G02X6092400I52400J-9444D01*
G01X6093100Y3185200D01*
X6286900D01*
X6287600Y3189400D01*
G02X6392400I52400J-9444D01*
G01X6393100Y3185200D01*
X6775200D01*
Y1975200D01*
X7104800D01*
Y3145200D01*
X7871600D01*
G03X7881000Y3159400I-1J10212D01*
G02X7876800Y3180000I48977J20714D01*
G02X7983200I53200J0D01*
G02X7979000Y3159400I-53177J114D01*
G03X7988400Y3145200I9401J-3988D01*
G01X8115200D01*
Y2559900D01*
G02X8131300Y2534200I-35175J-39928D01*
G02X8143500Y2535600I12126J-51809D01*
G02X8180000Y2521100I0J-53190D01*
G02X8216500Y2535600I36500J-38690D01*
G02X8228700Y2534200I74J-53209D01*
G02X8280000Y2573200I51300J-14240D01*
G02Y2466800I0J-53200D01*
G02X8267800Y2468200I-74J53209D01*
G02X8216500Y2429200I-51300J14240D01*
G02X8180000Y2443700I0J53190D01*
G02X8143500Y2429200I-36500J38690D01*
G02X8128300Y2431400I-58J53208D01*
G03X8115200Y2421600I-2909J-9767D01*
G01Y1975200D01*
X8534800D01*
Y2727600D01*
X8531000Y2728700D01*
G02Y2831300I13967J51300D01*
G01X8534800Y2832400D01*
Y3035700D01*
G03X8517300Y3042800I-10204J-35D01*
G02X8479300Y3026800I-38000J37125D01*
G02Y3133200I0J53200D01*
G02X8517300Y3117200I0J-53125D01*
G03X8534800Y3124300I7296J7135D01*
G01Y3135200D01*
X9245200D01*
Y2493100D01*
G03X9261000Y2484600I10197J20D01*
G02X9290000Y2493200I29000J-44595D01*
G02X9335500Y2467600I0J-53235D01*
G02X9363500Y2475600I28053J-45185D01*
G02X9400000Y2461100I0J-53190D01*
G02X9436500Y2475600I36500J-38690D01*
G02X9448700Y2474200I74J-53209D01*
G02X9551300I51300J-14240D01*
G02X9563500Y2475600I12126J-51809D01*
G02X9600000Y2461100I0J-53190D01*
G02X9636500Y2475600I36500J-38690D01*
G02X9689700Y2422400I0J-53200D01*
G02X9689600Y2418500I-53215J-587D01*
G03X9694200Y2413000I5077J-427D01*
G02X9743200Y2360000I-4163J-53000D01*
G02X9636800I-53200J0D01*
G02X9636900Y2363900I53215J587D01*
G03X9632300Y2369400I-5077J427D01*
G02X9600000Y2383700I4160J53025D01*
G02X9563500Y2369200I-36500J38690D01*
G02X9512200Y2408200I0J53240D01*
G02X9500000Y2406800I-12126J51809D01*
G02X9487800Y2408200I-74J53209D01*
G02X9436500Y2369200I-51300J14240D01*
G02X9400000Y2383700I0J53190D01*
G02X9363500Y2369200I-36500J38690D01*
G02X9318000Y2394800I0J53235D01*
G02X9290000Y2386800I-28053J45185D01*
G02X9261000Y2395400I0J53195D01*
G03X9245200Y2386900I-5603J-8520D01*
G01Y1975200D01*
X9964800D01*
Y2716800D01*
G02Y2823200I200J53200D01*
G01Y3165200D01*
X10190400D01*
G03X10199600Y3179800I15J10189D01*
G02X10194300Y3203000I47911J23151D01*
G02X10247500Y3256200I53200J0D01*
G02X10255300Y3255600I-168J-53187D01*
G03X10266900Y3266400I1426J10098D01*
G02X10266800Y3270000I53109J3277D01*
G02X10373200I53200J0D01*
G02X10373100Y3266800I-53198J61D01*
G03X10382300Y3256000I10172J-654D01*
G02X10430700Y3203000I-4819J-53000D01*
G02X10425400Y3179800I-53211J-49D01*
G03X10434600Y3165200I9185J-4411D01*
G01X10785200D01*
Y3118200D01*
G03X10801400Y3109900I10214J-24D01*
G02X10832500Y3120000I31179J-43074D01*
G02Y3013600I0J-53200D01*
G02X10801400Y3023700I79J53174D01*
G03X10785200Y3015400I-5986J-8276D01*
G01Y2488100D01*
G02X10791300Y2474200I-45183J-28117D01*
G02X10803500Y2475600I12126J-51809D01*
G02X10840000Y2461100I0J-53190D01*
G02X10876500Y2475600I36500J-38690D01*
G02X10888700Y2474200I74J-53209D01*
G02X10991300I51300J-14240D01*
G02X11003500Y2475600I12126J-51809D01*
G02X11040000Y2461100I0J-53190D01*
G02X11076500Y2475600I36500J-38690D01*
G02X11088700Y2474200I74J-53209D01*
G02X11140000Y2513200I51300J-14240D01*
G02Y2406800I0J-53200D01*
G02X11127800Y2408200I-74J53209D01*
G02X11076500Y2369200I-51300J14240D01*
G02X11040000Y2383700I0J53190D01*
G02X11003500Y2369200I-36500J38690D01*
G02X10952200Y2408200I0J53240D01*
G02X10940000Y2406800I-12126J51809D01*
G02X10927800Y2408200I-74J53209D01*
G02X10876500Y2369200I-51300J14240D01*
G02X10840000Y2383700I0J53190D01*
G02X10803500Y2369200I-36500J38690D01*
G02X10796700Y2369600I-281J53217D01*
G03X10785200Y2359500I-1315J-10100D01*
G01Y1975200D01*
X11364800D01*
Y2745200D01*
G02Y2814800I40078J34800D01*
G01Y3086000D01*
G03X11368800Y3101800I-3915J9397D01*
G02X11356800Y3135500I41320J33700D01*
G02X11463200I53200J0D01*
G02X11451200Y3101800I-53320J0D01*
G03X11459100Y3085200I7917J-6412D01*
G01X11506200D01*
X11506900Y3089400D01*
G02X11611700I52400J-9444D01*
G01X11612400Y3085200D01*
X11952400D01*
X11953200Y3085500D01*
G02X11970000Y3088200I16735J-50510D01*
G02X11986800Y3085500I65J-53210D01*
G01X11987600Y3085200D01*
X12105200D01*
Y1975200D01*
X13134800D01*
Y2454500D01*
G03X13117500Y2461800I-10203J-31D01*
G02X13080500Y2446800I-37000J38133D01*
G02X13043100Y2462200I0J53114D01*
G03X13035900I-3600J-3645D01*
G02X12998500Y2446800I-37400J37714D01*
G02X12945300Y2500000I0J53200D01*
G02X12960700Y2537400I53114J0D01*
G03X12953400Y2554800I-7237J7195D01*
G01X12624800D01*
Y2660600D01*
G02Y2759400I19673J49400D01*
G01Y2913900D01*
X12621500Y2915100D01*
G02X12586800Y2965000I18529J49900D01*
G02X12640000Y3018200I53200J0D01*
G02X12683800Y2995200I0J-53205D01*
G01X12755300D01*
G03X12765300Y3007300I-23J10201D01*
G02X12764300Y3017500I52194J10266D01*
G02X12775700Y3050500I53228J81D01*
G02X12766800Y3078300I44290J29504D01*
G03X12752400Y3087200I-10168J-352D01*
G02X12730000Y3082300I-22306J48321D01*
G02Y3188700I0J53200D01*
G02X12783200Y3137200I0J-53228D01*
G03X12797600Y3128300I10168J352D01*
G02X12820000Y3133200I22306J-48321D01*
G02X12873200Y3080000I0J-53200D01*
G02X12861800Y3047000I-53228J-81D01*
G02X12870700Y3017500I-44440J-29500D01*
G02X12869700Y3007300I-53194J66D01*
G03X12879700Y2995200I10023J-1899D01*
G01X13134800D01*
Y3149700D01*
X13130400Y3150300D01*
G02X13084300Y3203000I7072J52700D01*
G02X13088200Y3223100I53220J102D01*
G03X13077800Y3237100I-9440J3850D01*
G02X13072500Y3236800I-5652J52880D01*
G02X13067200Y3237100I352J53180D01*
G03X13056800Y3223100I-960J-10150D01*
G02X13060700Y3203000I-49320J-19998D01*
G02X13007500Y3256200I-53200J0D01*
G02X13012800Y3255900I-352J-53180D01*
G03X13023200Y3269900I960J10150D01*
G02X13019300Y3290000I49320J19998D01*
G02X13072500Y3343200I53200J0D01*
G02X13116200Y3320300I0J-53146D01*
G03X13134800Y3326100I8395J5801D01*
G01Y4700000D01*
G02X13325700Y4996200I325242J0D01*
G03X13330900Y5009400I-4185J9273D01*
G02X13326800Y5030000I49123J20485D01*
G02X13372500Y5082700I53236J0D01*
G03X13376800Y5087900I-771J5015D01*
G01Y5090000D01*
G02X13419200Y5142100I53210J0D01*
G03X13427200Y5153300I-2111J9965D01*
G02X13426800Y5160000I52811J6515D01*
G02X13472500Y5212700I53236J0D01*
G03X13476800Y5217900I-771J5015D01*
G37*
G36*
G01X1643800Y5106500D02*
G02X1690000Y5133200I46200J-26621D01*
G02X1736100Y5106500I0J-53148D01*
G03X1753800I8850J5075D01*
G02X1846200I46200J-26422D01*
G03X1863900I8850J5075D01*
G02X1910000Y5133200I46100J-26448D01*
G02Y5026800I0J-53200D01*
G02X1863800Y5053600I0J53222D01*
G03X1846100I-8850J-5075D01*
G02X1753900I-46100J26448D01*
G03X1736200I-8850J-5075D01*
G02X1690000Y5026800I-46200J26422D01*
G02X1643800Y5053500I0J53321D01*
G03X1626200I-8800J-5030D01*
G02X1533800I-46200J26621D01*
G03X1516200I-8800J-5030D01*
G02X1423800I-46200J26621D01*
G03X1406200I-8800J-5030D01*
G02X1360000Y5026800I-46200J26621D01*
G02Y5133200I0J53200D01*
G02X1406200Y5106500I0J-53321D01*
G03X1423800I8800J5030D01*
G02X1516200I46200J-26621D01*
G03X1533800I8800J5030D01*
G02X1626200I46200J-26621D01*
G03X1643800I8800J5030D01*
G37*
G36*
G01X6028800D02*
G02X6121200I46200J-26621D01*
G03X6138800I8800J5030D01*
G02X6185000Y5133200I46200J-26621D01*
G02Y5026800I0J-53200D01*
G02X6138800Y5053500I0J53321D01*
G03X6121200I-8800J-5030D01*
G02X6028800I-46200J26621D01*
G03X6011200I-8800J-5030D01*
G02X5918800I-46200J26621D01*
G03X5901200I-8800J-5030D01*
G02X5808800I-46200J26621D01*
G03X5791200I-8800J-5030D01*
G02X5698800I-46200J26621D01*
G03X5681200I-8800J-5030D01*
G02X5635000Y5026800I-46200J26621D01*
G02Y5133200I0J53200D01*
G02X5681200Y5106500I0J-53321D01*
G03X5698800I8800J5030D01*
G02X5791200I46200J-26621D01*
G03X5808800I8800J5030D01*
G02X5901200I46200J-26621D01*
G03X5918800I8800J5030D01*
G02X6011200I46200J-26621D01*
G03X6028800I8800J5030D01*
G37*
G36*
G01X4603800D02*
G02X4696200I46200J-26621D01*
G03X4713800I8800J5030D01*
G02X4760000Y5133200I46200J-26621D01*
G02Y5026800I0J-53200D01*
G02X4713800Y5053500I0J53321D01*
G03X4696200I-8800J-5030D01*
G02X4603800I-46200J26621D01*
G03X4586200I-8800J-5030D01*
G02X4493800I-46200J26621D01*
G03X4476200I-8800J-5030D01*
G02X4383800I-46200J26621D01*
G03X4366200I-8800J-5030D01*
G02X4273800I-46200J26621D01*
G03X4256200I-8800J-5030D01*
G02X4210000Y5026800I-46200J26621D01*
G02Y5133200I0J53200D01*
G02X4256200Y5106500I0J-53321D01*
G03X4273800I8800J5030D01*
G02X4366200I46200J-26621D01*
G03X4383800I8800J5030D01*
G02X4476200I46200J-26621D01*
G03X4493800I8800J5030D01*
G02X4586200I46200J-26621D01*
G03X4603800I8800J5030D01*
G37*
G36*
G01X3178800D02*
G02X3271200I46200J-26621D01*
G03X3288800I8800J5030D01*
G02X3335000Y5133200I46200J-26621D01*
G02Y5026800I0J-53200D01*
G02X3288800Y5053500I0J53321D01*
G03X3271200I-8800J-5030D01*
G02X3178800I-46200J26621D01*
G03X3161200I-8800J-5030D01*
G02X3068800I-46200J26621D01*
G03X3051200I-8800J-5030D01*
G02X2958800I-46200J26621D01*
G03X2941200I-8800J-5030D01*
G02X2848800I-46200J26621D01*
G03X2831200I-8800J-5030D01*
G02X2785000Y5026800I-46200J26621D01*
G02Y5133200I0J53200D01*
G02X2831200Y5106500I0J-53321D01*
G03X2848800I8800J5030D01*
G02X2941200I46200J-26621D01*
G03X2958800I8800J5030D01*
G02X3051200I46200J-26621D01*
G03X3068800I8800J5030D01*
G02X3161200I46200J-26621D01*
G03X3178800I8800J5030D01*
G37*
G36*
G01X12198800Y5102200D02*
G02X12291200I46200J-26621D01*
G03X12308800I8800J5030D01*
G02X12355000Y5128900I46200J-26621D01*
G02Y5022500I0J-53200D01*
G02X12308800Y5049200I0J53321D01*
G03X12291200I-8800J-5030D01*
G02X12198800I-46200J26621D01*
G03X12181200I-8800J-5030D01*
G02X12088800I-46200J26621D01*
G03X12071200I-8800J-5030D01*
G02X11978800I-46200J26621D01*
G03X11961200I-8800J-5030D01*
G02X11868800I-46200J26621D01*
G03X11851200I-8800J-5030D01*
G02X11805000Y5022500I-46200J26621D01*
G02Y5128900I0J53200D01*
G02X11851200Y5102200I0J-53321D01*
G03X11868800I8800J5030D01*
G02X11961200I46200J-26621D01*
G03X11978800I8800J5030D01*
G02X12071200I46200J-26621D01*
G03X12088800I8800J5030D01*
G02X12181200I46200J-26621D01*
G03X12198800I8800J5030D01*
G37*
G36*
G01X10773800D02*
G02X10866200I46200J-26621D01*
G03X10883800I8800J5030D01*
G02X10930000Y5128900I46200J-26621D01*
G02Y5022500I0J-53200D01*
G02X10883800Y5049200I0J53321D01*
G03X10866200I-8800J-5030D01*
G02X10773800I-46200J26621D01*
G03X10756200I-8800J-5030D01*
G02X10663800I-46200J26621D01*
G03X10646200I-8800J-5030D01*
G02X10553800I-46200J26621D01*
G03X10536200I-8800J-5030D01*
G02X10443800I-46200J26621D01*
G03X10426200I-8800J-5030D01*
G02X10380000Y5022500I-46200J26621D01*
G02Y5128900I0J53200D01*
G02X10426200Y5102200I0J-53321D01*
G03X10443800I8800J5030D01*
G02X10536200I46200J-26621D01*
G03X10553800I8800J5030D01*
G02X10646200I46200J-26621D01*
G03X10663800I8800J5030D01*
G02X10756200I46200J-26621D01*
G03X10773800I8800J5030D01*
G37*
G36*
G01X9348800D02*
G02X9441200I46200J-26621D01*
G03X9458800I8800J5030D01*
G02X9505000Y5128900I46200J-26621D01*
G02Y5022500I0J-53200D01*
G02X9458800Y5049200I0J53321D01*
G03X9441200I-8800J-5030D01*
G02X9348800I-46200J26621D01*
G03X9331200I-8800J-5030D01*
G02X9238800I-46200J26621D01*
G03X9221200I-8800J-5030D01*
G02X9128800I-46200J26621D01*
G03X9111200I-8800J-5030D01*
G02X9018800I-46200J26621D01*
G03X9001200I-8800J-5030D01*
G02X8955000Y5022500I-46200J26621D01*
G02Y5128900I0J53200D01*
G02X9001200Y5102200I0J-53321D01*
G03X9018800I8800J5030D01*
G02X9111200I46200J-26621D01*
G03X9128800I8800J5030D01*
G02X9221200I46200J-26621D01*
G03X9238800I8800J5030D01*
G02X9331200I46200J-26621D01*
G03X9348800I8800J5030D01*
G37*
G36*
G01X7923800D02*
G02X8016200I46200J-26621D01*
G03X8033800I8800J5030D01*
G02X8080000Y5128900I46200J-26621D01*
G02Y5022500I0J-53200D01*
G02X8033800Y5049200I0J53321D01*
G03X8016200I-8800J-5030D01*
G02X7923800I-46200J26621D01*
G03X7906200I-8800J-5030D01*
G02X7813800I-46200J26621D01*
G03X7796200I-8800J-5030D01*
G02X7703800I-46200J26621D01*
G03X7686200I-8800J-5030D01*
G02X7593800I-46200J26621D01*
G03X7576200I-8800J-5030D01*
G02X7530000Y5022500I-46200J26621D01*
G02Y5128900I0J53200D01*
G02X7576200Y5102200I0J-53321D01*
G03X7593800I8800J5030D01*
G02X7686200I46200J-26621D01*
G03X7703800I8800J5030D01*
G02X7796200I46200J-26621D01*
G03X7813800I8800J5030D01*
G02X7906200I46200J-26621D01*
G03X7923800I8800J5030D01*
G37*
G36*
G01X12198800Y4861000D02*
G02X12291200I46200J-26621D01*
G03X12308800I8800J5030D01*
G02X12355000Y4887700I46200J-26621D01*
G02Y4781300I0J-53200D01*
G02X12308800Y4808000I0J53321D01*
G03X12291200I-8800J-5030D01*
G02X12198800I-46200J26621D01*
G03X12181200I-8800J-5030D01*
G02X12088800I-46200J26621D01*
G03X12071200I-8800J-5030D01*
G02X11978800I-46200J26621D01*
G03X11961200I-8800J-5030D01*
G02X11868800I-46200J26621D01*
G03X11851200I-8800J-5030D01*
G02X11805000Y4781300I-46200J26621D01*
G02Y4887700I0J53200D01*
G02X11851200Y4861000I0J-53321D01*
G03X11868800I8800J5030D01*
G02X11961200I46200J-26621D01*
G03X11978800I8800J5030D01*
G02X12071200I46200J-26621D01*
G03X12088800I8800J5030D01*
G02X12181200I46200J-26621D01*
G03X12198800I8800J5030D01*
G37*
G36*
G01X10773800D02*
G02X10866200I46200J-26621D01*
G03X10883800I8800J5030D01*
G02X10930000Y4887700I46200J-26621D01*
G02Y4781300I0J-53200D01*
G02X10883800Y4808000I0J53321D01*
G03X10866200I-8800J-5030D01*
G02X10773800I-46200J26621D01*
G03X10756200I-8800J-5030D01*
G02X10663800I-46200J26621D01*
G03X10646200I-8800J-5030D01*
G02X10553800I-46200J26621D01*
G03X10536200I-8800J-5030D01*
G02X10443800I-46200J26621D01*
G03X10426200I-8800J-5030D01*
G02X10380000Y4781300I-46200J26621D01*
G02Y4887700I0J53200D01*
G02X10426200Y4861000I0J-53321D01*
G03X10443800I8800J5030D01*
G02X10536200I46200J-26621D01*
G03X10553800I8800J5030D01*
G02X10646200I46200J-26621D01*
G03X10663800I8800J5030D01*
G02X10756200I46200J-26621D01*
G03X10773800I8800J5030D01*
G37*
G36*
G01X9348800D02*
G02X9441200I46200J-26621D01*
G03X9458800I8800J5030D01*
G02X9505000Y4887700I46200J-26621D01*
G02Y4781300I0J-53200D01*
G02X9458800Y4808000I0J53321D01*
G03X9441200I-8800J-5030D01*
G02X9348800I-46200J26621D01*
G03X9331200I-8800J-5030D01*
G02X9238800I-46200J26621D01*
G03X9221200I-8800J-5030D01*
G02X9128800I-46200J26621D01*
G03X9111200I-8800J-5030D01*
G02X9018800I-46200J26621D01*
G03X9001200I-8800J-5030D01*
G02X8955000Y4781300I-46200J26621D01*
G02Y4887700I0J53200D01*
G02X9001200Y4861000I0J-53321D01*
G03X9018800I8800J5030D01*
G02X9111200I46200J-26621D01*
G03X9128800I8800J5030D01*
G02X9221200I46200J-26621D01*
G03X9238800I8800J5030D01*
G02X9331200I46200J-26621D01*
G03X9348800I8800J5030D01*
G37*
G36*
G01X7923800D02*
G02X8016200I46200J-26621D01*
G03X8033800I8800J5030D01*
G02X8080000Y4887700I46200J-26621D01*
G02Y4781300I0J-53200D01*
G02X8033800Y4808000I0J53321D01*
G03X8016200I-8800J-5030D01*
G02X7923800I-46200J26621D01*
G03X7906200I-8800J-5030D01*
G02X7813800I-46200J26621D01*
G03X7796200I-8800J-5030D01*
G02X7703800I-46200J26621D01*
G03X7686200I-8800J-5030D01*
G02X7593800I-46200J26621D01*
G03X7576200I-8800J-5030D01*
G02X7530000Y4781300I-46200J26621D01*
G02Y4887700I0J53200D01*
G02X7576200Y4861000I0J-53321D01*
G03X7593800I8800J5030D01*
G02X7686200I46200J-26621D01*
G03X7703800I8800J5030D01*
G02X7796200I46200J-26621D01*
G03X7813800I8800J5030D01*
G02X7906200I46200J-26621D01*
G03X7923800I8800J5030D01*
G37*
G36*
G01X6028800D02*
G02X6121200I46200J-26621D01*
G03X6138800I8800J5030D01*
G02X6185000Y4887700I46200J-26621D01*
G02Y4781300I0J-53200D01*
G02X6138800Y4808000I0J53321D01*
G03X6121200I-8800J-5030D01*
G02X6028800I-46200J26621D01*
G03X6011200I-8800J-5030D01*
G02X5918800I-46200J26621D01*
G03X5901200I-8800J-5030D01*
G02X5808800I-46200J26621D01*
G03X5791200I-8800J-5030D01*
G02X5698800I-46200J26621D01*
G03X5681200I-8800J-5030D01*
G02X5635000Y4781300I-46200J26621D01*
G02Y4887700I0J53200D01*
G02X5681200Y4861000I0J-53321D01*
G03X5698800I8800J5030D01*
G02X5791200I46200J-26621D01*
G03X5808800I8800J5030D01*
G02X5901200I46200J-26621D01*
G03X5918800I8800J5030D01*
G02X6011200I46200J-26621D01*
G03X6028800I8800J5030D01*
G37*
G36*
G01X4603800D02*
G02X4696200I46200J-26621D01*
G03X4713800I8800J5030D01*
G02X4760000Y4887700I46200J-26621D01*
G02Y4781300I0J-53200D01*
G02X4713800Y4808000I0J53321D01*
G03X4696200I-8800J-5030D01*
G02X4603800I-46200J26621D01*
G03X4586200I-8800J-5030D01*
G02X4493800I-46200J26621D01*
G03X4476200I-8800J-5030D01*
G02X4383800I-46200J26621D01*
G03X4366200I-8800J-5030D01*
G02X4273800I-46200J26621D01*
G03X4256200I-8800J-5030D01*
G02X4210000Y4781300I-46200J26621D01*
G02Y4887700I0J53200D01*
G02X4256200Y4861000I0J-53321D01*
G03X4273800I8800J5030D01*
G02X4366200I46200J-26621D01*
G03X4383800I8800J5030D01*
G02X4476200I46200J-26621D01*
G03X4493800I8800J5030D01*
G02X4586200I46200J-26621D01*
G03X4603800I8800J5030D01*
G37*
G36*
G01X3178800D02*
G02X3271200I46200J-26621D01*
G03X3288800I8800J5030D01*
G02X3335000Y4887700I46200J-26621D01*
G02Y4781300I0J-53200D01*
G02X3288800Y4808000I0J53321D01*
G03X3271200I-8800J-5030D01*
G02X3178800I-46200J26621D01*
G03X3161200I-8800J-5030D01*
G02X3068800I-46200J26621D01*
G03X3051200I-8800J-5030D01*
G02X2958800I-46200J26621D01*
G03X2941200I-8800J-5030D01*
G02X2848800I-46200J26621D01*
G03X2831200I-8800J-5030D01*
G02X2785000Y4781300I-46200J26621D01*
G02Y4887700I0J53200D01*
G02X2831200Y4861000I0J-53321D01*
G03X2848800I8800J5030D01*
G02X2941200I46200J-26621D01*
G03X2958800I8800J5030D01*
G02X3051200I46200J-26621D01*
G03X3068800I8800J5030D01*
G02X3161200I46200J-26621D01*
G03X3178800I8800J5030D01*
G37*
G36*
G01X1753800D02*
G02X1846200I46200J-26621D01*
G03X1863800I8800J5030D01*
G02X1910000Y4887700I46200J-26621D01*
G02Y4781300I0J-53200D01*
G02X1863800Y4808000I0J53321D01*
G03X1846200I-8800J-5030D01*
G02X1753800I-46200J26621D01*
G03X1736200I-8800J-5030D01*
G02X1643800I-46200J26621D01*
G03X1626200I-8800J-5030D01*
G02X1533800I-46200J26621D01*
G03X1516200I-8800J-5030D01*
G02X1423800I-46200J26621D01*
G03X1406200I-8800J-5030D01*
G02X1360000Y4781300I-46200J26621D01*
G02Y4887700I0J53200D01*
G02X1406200Y4861000I0J-53321D01*
G03X1423800I8800J5030D01*
G02X1516200I46200J-26621D01*
G03X1533800I8800J5030D01*
G02X1626200I46200J-26621D01*
G03X1643800I8800J5030D01*
G02X1736200I46200J-26621D01*
G03X1753800I8800J5030D01*
G37*
G36*
G01X11674000Y4096600D02*
G02X11609000Y4072000I-64942J73422D01*
G02Y4268000I0J98000D01*
G02X11706400Y4181300I0J-98060D01*
G03X11719500Y4172700I10114J1129D01*
G02X11735000Y4175000I15474J-50904D01*
G02X11774600Y4157300I0J-53148D01*
G03X11792300Y4162700I7593J6820D01*
G02X11845000Y4208700I52700J-7188D01*
G02Y4102300I0J-53200D01*
G02X11805400Y4120000I0J53148D01*
G03X11787700Y4114600I-7593J-6820D01*
G02X11735000Y4068600I-52700J7188D01*
G02X11689500Y4094300I0J53127D01*
G03X11674000Y4096600I-8707J-5301D01*
G37*
G36*
G01X10249000D02*
G02X10184000Y4072000I-64942J73422D01*
G02Y4268000I0J98000D01*
G02X10281400Y4181300I0J-98060D01*
G03X10294500Y4172700I10114J1129D01*
G02X10310000Y4175000I15474J-50904D01*
G02X10349600Y4157300I0J-53148D01*
G03X10367300Y4162700I7593J6820D01*
G02X10420000Y4208700I52700J-7188D01*
G02Y4102300I0J-53200D01*
G02X10380400Y4120000I0J53148D01*
G03X10362700Y4114600I-7593J-6820D01*
G02X10310000Y4068600I-52700J7188D01*
G02X10264500Y4094300I0J53127D01*
G03X10249000Y4096600I-8707J-5301D01*
G37*
G36*
G01X8824000D02*
G02X8759000Y4072000I-64942J73422D01*
G02Y4268000I0J98000D01*
G02X8856400Y4181300I0J-98060D01*
G03X8869500Y4172700I10114J1129D01*
G02X8885000Y4175000I15474J-50904D01*
G02X8924600Y4157300I0J-53148D01*
G03X8942300Y4162700I7593J6820D01*
G02X8995000Y4208700I52700J-7188D01*
G02Y4102300I0J-53200D01*
G02X8955400Y4120000I0J53148D01*
G03X8937700Y4114600I-7593J-6820D01*
G02X8885000Y4068600I-52700J7188D01*
G02X8839500Y4094300I0J53127D01*
G03X8824000Y4096600I-8707J-5301D01*
G37*
G36*
G01X7399000D02*
G02X7334000Y4072000I-64942J73422D01*
G02Y4268000I0J98000D01*
G02X7431400Y4181300I0J-98060D01*
G03X7444500Y4172700I10114J1129D01*
G02X7460000Y4175000I15474J-50904D01*
G02X7499600Y4157300I0J-53148D01*
G03X7517300Y4162700I7593J6820D01*
G02X7570000Y4208700I52700J-7188D01*
G02Y4102300I0J-53200D01*
G02X7530400Y4120000I0J53148D01*
G03X7512700Y4114600I-7593J-6820D01*
G02X7460000Y4068600I-52700J7188D01*
G02X7414500Y4094300I0J53127D01*
G03X7399000Y4096600I-8707J-5301D01*
G37*
G36*
G01X5504000D02*
G02X5439000Y4072000I-64942J73422D01*
G02Y4268000I0J98000D01*
G02X5536400Y4181300I0J-98060D01*
G03X5549500Y4172700I10114J1129D01*
G02X5565000Y4175000I15474J-50904D01*
G02X5604600Y4157300I0J-53148D01*
G03X5622300Y4162700I7593J6820D01*
G02X5675000Y4208700I52700J-7188D01*
G02Y4102300I0J-53200D01*
G02X5635400Y4120000I0J53148D01*
G03X5617700Y4114600I-7593J-6820D01*
G02X5565000Y4068600I-52700J7188D01*
G02X5519500Y4094300I0J53127D01*
G03X5504000Y4096600I-8707J-5301D01*
G37*
G36*
G01X4079000D02*
G02X4014000Y4072000I-64942J73422D01*
G02Y4268000I0J98000D01*
G02X4111400Y4181300I0J-98060D01*
G03X4124500Y4172700I10114J1129D01*
G02X4140000Y4175000I15474J-50904D01*
G02X4179600Y4157300I0J-53148D01*
G03X4197300Y4162700I7593J6820D01*
G02X4250000Y4208700I52700J-7188D01*
G02Y4102300I0J-53200D01*
G02X4210400Y4120000I0J53148D01*
G03X4192700Y4114600I-7593J-6820D01*
G02X4140000Y4068600I-52700J7188D01*
G02X4094500Y4094300I0J53127D01*
G03X4079000Y4096600I-8707J-5301D01*
G37*
G36*
G01X2654000D02*
G02X2589000Y4072000I-64942J73422D01*
G02Y4268000I0J98000D01*
G02X2686400Y4181300I0J-98060D01*
G03X2699500Y4172700I10114J1129D01*
G02X2715000Y4175000I15474J-50904D01*
G02X2754600Y4157300I0J-53148D01*
G03X2772300Y4162700I7593J6820D01*
G02X2825000Y4208700I52700J-7188D01*
G02Y4102300I0J-53200D01*
G02X2785400Y4120000I0J53148D01*
G03X2767700Y4114600I-7593J-6820D01*
G02X2715000Y4068600I-52700J7188D01*
G02X2669500Y4094300I0J53127D01*
G03X2654000Y4096600I-8707J-5301D01*
G37*
G36*
G01X1229000D02*
G02X1164000Y4072000I-64942J73422D01*
G02Y4268000I0J98000D01*
G02X1261400Y4181300I0J-98060D01*
G03X1274500Y4172700I10114J1129D01*
G02X1290000Y4175000I15474J-50904D01*
G02X1329600Y4157300I0J-53148D01*
G03X1347300Y4162700I7593J6820D01*
G02X1400000Y4208700I52700J-7188D01*
G02Y4102300I0J-53200D01*
G02X1360400Y4120000I0J53148D01*
G03X1342700Y4114600I-7593J-6820D01*
G02X1290000Y4068600I-52700J7188D01*
G02X1244500Y4094300I0J53127D01*
G03X1229000Y4096600I-8707J-5301D01*
G37*
G36*
G01X12186000Y4121600D02*
G02X12145000Y4102300I-41000J33899D01*
G02Y4208700I0J53200D01*
G02X12196300Y4169500I0J-53167D01*
G03X12214000Y4165700I9839J2708D01*
G02X12255000Y4185000I41000J-33899D01*
G02Y4078600I0J-53200D01*
G02X12203700Y4117800I0J53167D01*
G03X12186000Y4121600I-9839J-2708D01*
G37*
G36*
G01X10761000D02*
G02X10720000Y4102300I-41000J33899D01*
G02Y4208700I0J53200D01*
G02X10771300Y4169500I0J-53167D01*
G03X10789000Y4165700I9839J2708D01*
G02X10830000Y4185000I41000J-33899D01*
G02Y4078600I0J-53200D01*
G02X10778700Y4117800I0J53167D01*
G03X10761000Y4121600I-9839J-2708D01*
G37*
G36*
G01X9336000D02*
G02X9295000Y4102300I-41000J33899D01*
G02Y4208700I0J53200D01*
G02X9346300Y4169500I0J-53167D01*
G03X9364000Y4165700I9839J2708D01*
G02X9405000Y4185000I41000J-33899D01*
G02Y4078600I0J-53200D01*
G02X9353700Y4117800I0J53167D01*
G03X9336000Y4121600I-9839J-2708D01*
G37*
G36*
G01X7911000D02*
G02X7870000Y4102300I-41000J33899D01*
G02Y4208700I0J53200D01*
G02X7921300Y4169500I0J-53167D01*
G03X7939000Y4165700I9839J2708D01*
G02X7980000Y4185000I41000J-33899D01*
G02Y4078600I0J-53200D01*
G02X7928700Y4117800I0J53167D01*
G03X7911000Y4121600I-9839J-2708D01*
G37*
G36*
G01X6016000D02*
G02X5975000Y4102300I-41000J33899D01*
G02Y4208700I0J53200D01*
G02X6026300Y4169500I0J-53167D01*
G03X6044000Y4165700I9839J2708D01*
G02X6085000Y4185000I41000J-33899D01*
G02Y4078600I0J-53200D01*
G02X6033700Y4117800I0J53167D01*
G03X6016000Y4121600I-9839J-2708D01*
G37*
G36*
G01X4591000D02*
G02X4550000Y4102300I-41000J33899D01*
G02Y4208700I0J53200D01*
G02X4601300Y4169500I0J-53167D01*
G03X4619000Y4165700I9839J2708D01*
G02X4660000Y4185000I41000J-33899D01*
G02Y4078600I0J-53200D01*
G02X4608700Y4117800I0J53167D01*
G03X4591000Y4121600I-9839J-2708D01*
G37*
G36*
G01X3166000D02*
G02X3125000Y4102300I-41000J33899D01*
G02Y4208700I0J53200D01*
G02X3176300Y4169500I0J-53167D01*
G03X3194000Y4165700I9839J2708D01*
G02X3235000Y4185000I41000J-33899D01*
G02Y4078600I0J-53200D01*
G02X3183700Y4117800I0J53167D01*
G03X3166000Y4121600I-9839J-2708D01*
G37*
G36*
G01X1741000D02*
G02X1700000Y4102300I-41000J33899D01*
G02Y4208700I0J53200D01*
G02X1751300Y4169500I0J-53167D01*
G03X1769000Y4165700I9839J2708D01*
G02X1810000Y4185000I41000J-33899D01*
G02Y4078600I0J-53200D01*
G02X1758700Y4117800I0J53167D01*
G03X1741000Y4121600I-9839J-2708D01*
G37*
G36*
G01X2011800Y1424900D02*
G02X1986800Y1470000I28180J45100D01*
G02X2093200I53200J0D01*
G02X2064600Y1422800I-53248J0D01*
G03X2063900Y1405100I4688J-9049D01*
G02X2088900Y1360000I-28180J-45100D01*
G02X1982500I-53200J0D01*
G02X2011100Y1407200I53248J0D01*
G03X2011800Y1424900I-4688J9049D01*
G37*
G36*
G01X9538000Y965400D02*
G02X9513700Y1010100I28963J44700D01*
G02X9620100I53200J0D01*
G02X9584200Y959800I-53188J0D01*
G03X9582000Y941600I3319J-9634D01*
G02X9606300Y896900I-28963J-44700D01*
G02X9499900I-53200J0D01*
G02X9535800Y947200I53188J0D01*
G03X9538000Y965400I-3319J9634D01*
G37*
G36*
G01X9117800Y754600D02*
G02X9074500Y732300I-43300J30888D01*
G02Y838700I0J53200D01*
G02X9124600Y803300I0J-53152D01*
G03X9142600Y800800I9640J3361D01*
G02X9185900Y823100I43300J-30888D01*
G02Y716700I0J-53200D01*
G02X9135800Y752100I0J53152D01*
G03X9117800Y754600I-9640J-3361D01*
G37*
G36*
G01X5404000Y763700D02*
G02X5477000I36500J-38690D01*
G02X5513500Y778200I36500J-38690D01*
G02Y671800I0J-53200D01*
G02X5477000Y686300I0J53190D01*
G02X5404000I-36500J38690D01*
G02X5331000I-36500J38690D01*
G02X5258000I-36500J38690D01*
G02X5185000I-36500J38690D01*
G02X5112000I-36500J38690D01*
G02X5039000I-36500J38690D01*
G02X5002500Y671800I-36500J38690D01*
G02X4958400Y695200I0J53256D01*
G03X4940300Y692800I-8451J-5715D01*
G02X4890000Y656800I-50300J17140D01*
G02Y763200I0J53200D01*
G02X4934100Y739800I0J-53256D01*
G03X4952200Y742200I8451J5715D01*
G02X5002500Y778200I50300J-17140D01*
G02X5039000Y763700I0J-53190D01*
G02X5112000I36500J-38690D01*
G02X5185000I36500J-38690D01*
G02X5258000I36500J-38690D01*
G02X5331000I36500J-38690D01*
G02X5404000I36500J-38690D01*
G37*
G36*
G01X3952200Y742200D02*
G02X4002500Y778200I50300J-17140D01*
G02X4039000Y763700I0J-53190D01*
G02X4075500Y778200I36500J-38690D01*
G02Y671800I0J-53200D01*
G02X4039000Y686300I0J53190D01*
G02X4002500Y671800I-36500J38690D01*
G02X3958400Y695200I0J53256D01*
G03X3940300Y692800I-8451J-5715D01*
G02X3890000Y656800I-50300J17140D01*
G02Y763200I0J53200D01*
G02X3934100Y739800I0J-53256D01*
G03X3952200Y742200I8451J5715D01*
G37*
G36*
G01X12912500Y5582800D02*
G03Y5597200I-7156J7200D01*
G02X12896800Y5635000I37523J37745D01*
G02X13003200I53200J0D01*
G02X12987500Y5597200I-53223J-55D01*
G03Y5582800I7156J-7200D01*
G02X13003200Y5545000I-37523J-37745D01*
G02X12896800I-53200J0D01*
G02X12912500Y5582800I53223J55D01*
G37*
G36*
G01X13086800Y5162100D02*
G03X13082500Y5167300I-5071J185D01*
G02X13036800Y5220000I7536J52700D01*
G02X13143200I53200J0D01*
G01Y5217900D01*
G03X13147500Y5212700I5071J-185D01*
G02X13193200Y5160000I-7536J-52700D01*
G02X13192800Y5153300I-53211J-185D01*
G03X13200800Y5142100I10111J-1235D01*
G02X13243200Y5090000I-10810J-52100D01*
G01Y5087900D01*
G03X13247500Y5082700I5071J-185D01*
G02X13293200Y5030000I-7536J-52700D01*
G02X13186800I-53200J0D01*
G01Y5032100D01*
G03X13182500Y5037300I-5071J185D01*
G02X13136800Y5090000I7536J52700D01*
G02X13137200Y5096700I53211J185D01*
G03X13129200Y5107900I-10111J1235D01*
G02X13086800Y5160000I10810J52100D01*
G01Y5162100D01*
G37*
G36*
G01X12752600Y4863400D02*
G03X12752800Y4882000I-4047J9345D01*
G02X12689800Y4980000I44722J98000D01*
G02X12905200I107700J0D01*
G02X12842200Y4882000I-107722J0D01*
G03X12842400Y4863400I4247J-9255D01*
G02X12910200Y4760000I-44946J-103400D01*
G02X12684800I-112700J0D01*
G02X12752600Y4863400I112746J0D01*
G37*
G36*
G01X8477600D02*
G03X8477800Y4882000I-4047J9345D01*
G02X8414800Y4980000I44722J98000D01*
G02X8630200I107700J0D01*
G02X8567200Y4882000I-107722J0D01*
G03X8567400Y4863400I4247J-9255D01*
G02X8635200Y4760000I-44946J-103400D01*
G02X8409800I-112700J0D01*
G02X8477600Y4863400I112746J0D01*
G37*
G36*
G01X6587600D02*
G03X6587800Y4882000I-4047J9345D01*
G02X6524800Y4980000I44722J98000D01*
G02X6740200I107700J0D01*
G02X6677200Y4882000I-107722J0D01*
G03X6677400Y4863400I4247J-9255D01*
G02X6745200Y4760000I-44946J-103400D01*
G02X6519800I-112700J0D01*
G02X6587600Y4863400I112746J0D01*
G37*
G36*
G01X2312600D02*
G03X2312800Y4882000I-4047J9345D01*
G02X2249800Y4980000I44722J98000D01*
G02X2465200I107700J0D01*
G02X2402200Y4882000I-107722J0D01*
G03X2402400Y4863400I4247J-9255D01*
G02X2470200Y4760000I-44946J-103400D01*
G02X2244800I-112700J0D01*
G02X2312600Y4863400I112746J0D01*
G37*
G36*
G01X10327500Y4400600D02*
G03X10320500I-3500J-3711D01*
G02X10284000Y4386100I-36500J38690D01*
G02Y4492500I0J53200D01*
G02X10320500Y4478000I0J-53190D01*
G03X10327500I3500J3711D01*
G02X10364000Y4492500I36500J-38690D01*
G02Y4386100I0J-53200D01*
G02X10327500Y4400600I0J53190D01*
G37*
G36*
G01X11752500Y4390800D02*
G03X11745500I-3500J-3711D01*
G02X11709000Y4376300I-36500J38690D01*
G02Y4482700I0J53200D01*
G02X11745500Y4468200I0J-53190D01*
G03X11752500I3500J3711D01*
G02X11789000Y4482700I36500J-38690D01*
G02Y4376300I0J-53200D01*
G02X11752500Y4390800I0J53190D01*
G37*
G36*
G01X8902500D02*
G03X8895500I-3500J-3711D01*
G02X8859000Y4376300I-36500J38690D01*
G02Y4482700I0J53200D01*
G02X8895500Y4468200I0J-53190D01*
G03X8902500I3500J3711D01*
G02X8939000Y4482700I36500J-38690D01*
G02Y4376300I0J-53200D01*
G02X8902500Y4390800I0J53190D01*
G37*
G36*
G01X7477500D02*
G03X7470500I-3500J-3711D01*
G02X7434000Y4376300I-36500J38690D01*
G02Y4482700I0J53200D01*
G02X7470500Y4468200I0J-53190D01*
G03X7477500I3500J3711D01*
G02X7514000Y4482700I36500J-38690D01*
G02Y4376300I0J-53200D01*
G02X7477500Y4390800I0J53190D01*
G37*
G36*
G01X5551900Y4428500D02*
G03X5566300Y4436400I4283J9267D01*
G02X5619000Y4482700I52700J-6842D01*
G02Y4376300I0J-53200D01*
G02X5597100Y4381000I-35J53208D01*
G03X5582700Y4373100I-4283J-9267D01*
G02X5530000Y4326800I-52700J6842D01*
G02Y4433200I0J53200D01*
G02X5551900Y4428500I35J-53208D01*
G37*
G36*
G01X4157500Y4390800D02*
G03X4150500I-3500J-3711D01*
G02X4114000Y4376300I-36500J38690D01*
G02Y4482700I0J53200D01*
G02X4150500Y4468200I0J-53190D01*
G03X4157500I3500J3711D01*
G02X4194000Y4482700I36500J-38690D01*
G02Y4376300I0J-53200D01*
G02X4157500Y4390800I0J53190D01*
G37*
G36*
G01X2732500D02*
G03X2725500I-3500J-3711D01*
G02X2689000Y4376300I-36500J38690D01*
G02Y4482700I0J53200D01*
G02X2725500Y4468200I0J-53190D01*
G03X2732500I3500J3711D01*
G02X2769000Y4482700I36500J-38690D01*
G02Y4376300I0J-53200D01*
G02X2732500Y4390800I0J53190D01*
G37*
G36*
G01X1307500D02*
G03X1300500I-3500J-3711D01*
G02X1264000Y4376300I-36500J38690D01*
G02Y4482700I0J53200D01*
G02X1300500Y4468200I0J-53190D01*
G03X1307500I3500J3711D01*
G02X1344000Y4482700I36500J-38690D01*
G02Y4376300I0J-53200D01*
G02X1307500Y4390800I0J53190D01*
G37*
G36*
G01X8647600Y3754500D02*
G03X8634300Y3746100I-3171J-9709D01*
G02X8522500Y3647300I-111800J13855D01*
G02Y3872700I0J112700D01*
G02X8605800Y3835900I0J-112678D01*
G03X8621600Y3836700I7574J6841D01*
G02X8664300Y3858200I42700J-31652D01*
G02Y3751800I0J-53200D01*
G02X8647600Y3754500I32J53195D01*
G37*
G36*
G01X10037800Y3681900D02*
G03X10022700Y3682900I-8000J-6300D01*
G02X9947500Y3652300I-75200J77103D01*
G02Y3867700I0J107700D01*
G02X10022700Y3837100I0J-107703D01*
G03X10037800Y3838100I7100J7300D01*
G02X10079500Y3858200I41700J-33206D01*
G02X10132700Y3805000I0J-53200D01*
G02X10117000Y3767200I-53223J-55D01*
G03Y3752800I7156J-7200D01*
G02X10132700Y3715000I-37523J-37745D01*
G02X10079500Y3661800I-53200J0D01*
G02X10037800Y3681900I0J53306D01*
G37*
G36*
G01X3869700Y3679700D02*
G03X3855200Y3680500I-7644J-6735D01*
G02X3782500Y3652300I-72700J79611D01*
G02Y3867700I0J107700D01*
G02X3855200Y3839500I0J-107811D01*
G03X3869700Y3840300I6856J7535D01*
G02X3909500Y3858200I39800J-35297D01*
G02X3962700Y3805000I0J-53200D01*
G02X3947000Y3767200I-53223J-55D01*
G03Y3752800I7156J-7200D01*
G02X3962700Y3715000I-37523J-37745D01*
G02X3909500Y3661800I-53200J0D01*
G02X3869700Y3679700I0J53197D01*
G37*
G36*
G01X11467000Y3752800D02*
G03Y3767200I-7156J7200D01*
G02X11451300Y3805000I37523J37745D01*
G02X11557700I53200J0D01*
G02X11542000Y3767200I-53223J-55D01*
G03Y3752800I7156J-7200D01*
G02X11557700Y3715000I-37523J-37745D01*
G02X11451300I-53200J0D01*
G02X11467000Y3752800I53223J55D01*
G37*
G36*
G01X7192000D02*
G03Y3767200I-7156J7200D01*
G02X7176300Y3805000I37523J37745D01*
G02X7282700I53200J0D01*
G02X7267000Y3767200I-53223J-55D01*
G03Y3752800I7156J-7200D01*
G02X7282700Y3715000I-37523J-37745D01*
G02X7176300I-53200J0D01*
G02X7192000Y3752800I53223J55D01*
G37*
G36*
G01X5297000D02*
G03Y3767200I-7156J7200D01*
G02X5281300Y3805000I37523J37745D01*
G02X5387700I53200J0D01*
G02X5372000Y3767200I-53223J-55D01*
G03Y3752800I7156J-7200D01*
G02X5387700Y3715000I-37523J-37745D01*
G02X5281300I-53200J0D01*
G02X5297000Y3752800I53223J55D01*
G37*
G36*
G01X1022000D02*
G03Y3767200I-7156J7200D01*
G02X1006300Y3805000I37523J37745D01*
G02X1112700I53200J0D01*
G02X1097000Y3767200I-53223J-55D01*
G03Y3752800I7156J-7200D01*
G02X1112700Y3715000I-37523J-37745D01*
G02X1006300I-53200J0D01*
G02X1022000Y3752800I53223J55D01*
G37*
G36*
G01X8761800Y3738100D02*
G03X8771200Y3750200I-612J10176D01*
G02X8770300Y3760000I52305J9745D01*
G02X8876700I53200J0D01*
G02X8826700Y3706900I-53196J0D01*
G03X8817300Y3694800I612J-10176D01*
G02X8818200Y3685000I-52305J-9745D01*
G02X8711800I-53200J0D01*
G02X8761800Y3738100I53196J0D01*
G37*
G36*
G01X11978600Y3567000D02*
G03X11975000Y3572700I-5025J813D01*
G02X11935800Y3624000I13967J51300D01*
G02X11989000Y3677200I53200J0D01*
G02X12035000Y3650600I0J-53074D01*
G03X12041500Y3648500I4425J2588D01*
G02X12085000Y3657700I43553J-98489D01*
G02X12162400Y3624900I0J-107723D01*
G03X12179300Y3628400I7346J7082D01*
G02X12229000Y3662700I49700J-18857D01*
G02Y3556300I0J-53200D01*
G02X12207100Y3561000I-35J53208D01*
G03X12192700Y3551600I-4213J-9276D01*
G01Y3550000D01*
G02X11977300I-107700J0D01*
G02X11978600Y3567000I107724J312D01*
G37*
G36*
G01X9128600D02*
G03X9125000Y3572700I-5025J813D01*
G02X9085800Y3624000I13967J51300D01*
G02X9139000Y3677200I53200J0D01*
G02X9185000Y3650600I0J-53074D01*
G03X9191500Y3648500I4425J2588D01*
G02X9235000Y3657700I43553J-98489D01*
G02X9312400Y3624900I0J-107723D01*
G03X9329300Y3628400I7346J7082D01*
G02X9379000Y3662700I49700J-18857D01*
G02Y3556300I0J-53200D01*
G02X9357100Y3561000I-35J53208D01*
G03X9342700Y3551600I-4213J-9276D01*
G01Y3550000D01*
G02X9127300I-107700J0D01*
G02X9128600Y3567000I107724J312D01*
G37*
G36*
G01X7703600D02*
G03X7700000Y3572700I-5025J813D01*
G02X7660800Y3624000I13967J51300D01*
G02X7714000Y3677200I53200J0D01*
G02X7760000Y3650600I0J-53074D01*
G03X7766500Y3648500I4425J2588D01*
G02X7810000Y3657700I43553J-98489D01*
G02X7887400Y3624900I0J-107723D01*
G03X7904300Y3628400I7346J7082D01*
G02X7954000Y3662700I49700J-18857D01*
G02Y3556300I0J-53200D01*
G02X7932100Y3561000I-35J53208D01*
G03X7917700Y3551600I-4213J-9276D01*
G01Y3550000D01*
G02X7702300I-107700J0D01*
G02X7703600Y3567000I107724J312D01*
G37*
G36*
G01X5812400Y3554800D02*
G03X5807900Y3560100I-5103J227D01*
G02X5760900Y3612900I6158J52800D01*
G02X5814100Y3666100I53200J0D01*
G02X5857500Y3643600I0J-53107D01*
G03X5864300Y3642200I4155J2967D01*
G02X5920000Y3657700I55700J-92330D01*
G02X5994200Y3628100I0J-107801D01*
G03X6010500Y3631300I7011J7404D01*
G02X6059000Y3662700I48500J-21756D01*
G02Y3556300I0J-53200D01*
G02X6041300Y3559300I-85J53214D01*
G03X6027700Y3549700I-3413J-9598D01*
G02X5920000Y3442300I-107700J300D01*
G02X5812300Y3550000I0J107700D01*
G02X5812400Y3554800I107703J157D01*
G37*
G36*
G01X4401500Y3623700D02*
G03X4416400Y3623600I7497J6916D01*
G02X4495000Y3657700I78600J-73536D01*
G02X4569200Y3628100I0J-107801D01*
G03X4585500Y3631300I7011J7404D01*
G02X4634000Y3662700I48500J-21756D01*
G02Y3556300I0J-53200D01*
G02X4616300Y3559300I-85J53214D01*
G03X4602700Y3549700I-3413J-9598D01*
G02X4495000Y3442300I-107700J300D01*
G02X4389500Y3528500I0J107661D01*
G03X4376800Y3536200I-9967J-2115D01*
G02X4362500Y3534300I-14096J51327D01*
G02Y3640700I0J53200D01*
G02X4401500Y3623700I0J-53235D01*
G37*
G36*
G01X2979000Y3626200D02*
G03X2993700Y3626000I7446J6965D01*
G02X3070000Y3657700I76300J-75975D01*
G02X3144200Y3628100I0J-107801D01*
G03X3160500Y3631300I7011J7404D01*
G02X3209000Y3662700I48500J-21756D01*
G02Y3556300I0J-53200D01*
G02X3191300Y3559300I-85J53214D01*
G03X3177700Y3549700I-3413J-9598D01*
G02X3070000Y3442300I-107700J300D01*
G02X2964200Y3530100I0J107645D01*
G03X2951900Y3538100I-10011J-1936D01*
G02X2940000Y3536800I-11693J51923D01*
G02Y3643200I0J53200D01*
G02X2979000Y3626200I0J-53235D01*
G37*
G36*
G01X1561200Y3633700D02*
G03X1575600Y3632400I7844J6484D01*
G02X1645000Y3657700I69400J-82535D01*
G02X1719200Y3628100I0J-107801D01*
G03X1735500Y3631300I7011J7404D01*
G02X1784000Y3662700I48500J-21756D01*
G02Y3556300I0J-53200D01*
G02X1766300Y3559300I-85J53214D01*
G03X1752700Y3549700I-3413J-9598D01*
G02X1645000Y3442300I-107700J300D01*
G02X1537900Y3538200I0J107754D01*
G03X1526600Y3547200I-10117J-1108D01*
G02X1520000Y3546800I-6512J52805D01*
G02Y3653200I0J53200D01*
G02X1561200Y3633700I0J-53274D01*
G37*
G36*
G01X10553600Y3533100D02*
G03X10547800Y3537400I-5042J-739D01*
G02X10540000Y3536800I-7968J52587D01*
G02Y3643200I0J53200D01*
G02X10577800Y3627400I0J-53116D01*
G03X10585000Y3627300I3650J3569D01*
G02X10660000Y3657700I75000J-77316D01*
G02X10746600Y3614000I0J-107657D01*
G03X10762700Y3613600I8205J6041D01*
G02X10804000Y3633200I41300J-33712D01*
G02Y3526800I0J-53200D01*
G02X10779600Y3532700I-47J53211D01*
G03X10765000Y3525900I-4671J-9044D01*
G02X10660000Y3442300I-105000J24139D01*
G02X10553600Y3533100I0J107740D01*
G37*
G36*
G01X9019000Y3566100D02*
G02X9055500Y3580600I36500J-38690D01*
G02Y3474200I0J-53200D01*
G02X9019000Y3488700I0J53190D01*
G02X8982500Y3474200I-36500J38690D01*
G02Y3580600I0J53200D01*
G02X9019000Y3566100I0J-53190D01*
G37*
G36*
G01X11869000Y3466100D02*
G02X11905500Y3480600I36500J-38690D01*
G02Y3374200I0J-53200D01*
G02X11869000Y3388700I0J53190D01*
G02X11832500Y3374200I-36500J38690D01*
G02Y3480600I0J53200D01*
G02X11869000Y3466100I0J-53190D01*
G37*
G36*
G01X7594000D02*
G02X7630500Y3480600I36500J-38690D01*
G02Y3374200I0J-53200D01*
G02X7594000Y3388700I0J53190D01*
G02X7557500Y3374200I-36500J38690D01*
G02Y3480600I0J53200D01*
G02X7594000Y3466100I0J-53190D01*
G37*
G36*
G01X5699000D02*
G02X5735500Y3480600I36500J-38690D01*
G02Y3374200I0J-53200D01*
G02X5699000Y3388700I0J53190D01*
G02X5662500Y3374200I-36500J38690D01*
G02Y3480600I0J53200D01*
G02X5699000Y3466100I0J-53190D01*
G37*
G36*
G01X4274000D02*
G02X4310500Y3480600I36500J-38690D01*
G02Y3374200I0J-53200D01*
G02X4274000Y3388700I0J53190D01*
G02X4237500Y3374200I-36500J38690D01*
G02Y3480600I0J53200D01*
G02X4274000Y3466100I0J-53190D01*
G37*
G36*
G01X2849000D02*
G02X2885500Y3480600I36500J-38690D01*
G02Y3374200I0J-53200D01*
G02X2849000Y3388700I0J53190D01*
G02X2812500Y3374200I-36500J38690D01*
G02Y3480600I0J53200D01*
G02X2849000Y3466100I0J-53190D01*
G37*
G36*
G01X1424000D02*
G02X1460500Y3480600I36500J-38690D01*
G02Y3374200I0J-53200D01*
G02X1424000Y3388700I0J53190D01*
G02X1387500Y3374200I-36500J38690D01*
G02Y3480600I0J53200D01*
G02X1424000Y3466100I0J-53190D01*
G37*
G36*
G01X10444000Y3406100D02*
G02X10480500Y3420600I36500J-38690D01*
G02Y3314200I0J-53200D01*
G02X10444000Y3328700I0J53190D01*
G02X10407500Y3314200I-36500J38690D01*
G02Y3420600I0J53200D01*
G02X10444000Y3406100I0J-53190D01*
G37*
G36*
G01X11690100Y3256100D02*
G03X11700600Y3268500I515J10210D01*
G02X11699300Y3280000I51879J11688D01*
G02X11805700I53200J0D01*
G02X11803800Y3266000I-53188J89D01*
G03X11814700Y3253100I9834J-2746D01*
G02X11820200Y3253400I5643J-52892D01*
G02X11767000Y3200200I0J-53200D01*
G02X11768900Y3214200I53188J-89D01*
G03X11758000Y3227100I-9834J2746D01*
G02X11752500Y3226800I-5643J52892D01*
G02X11749900Y3226900I743J53171D01*
G03X11739400Y3214500I-515J-10210D01*
G02X11740700Y3203000I-51879J-11688D01*
G02X11687500Y3256200I-53200J0D01*
G02X11690100Y3256100I-743J-53171D01*
G37*
G36*
G01X8828900Y3256200D02*
G03X8839400Y3267000I322J10191D01*
G02X8839300Y3270000I53091J3271D01*
G02X8945700I53200J0D01*
G02X8945600Y3267000I-53191J271D01*
G03X8956100Y3256200I10178J-609D01*
G01X8957500D01*
G02X8904300Y3203000I0J-53200D01*
G02X8904400Y3206000I53191J-271D01*
G03X8893900Y3216800I-10178J609D01*
G01X8892500D01*
X8891100D01*
G03X8880600Y3206000I-322J-10191D01*
G02X8880700Y3203000I-53091J-3271D01*
G02X8827500Y3256200I-53200J0D01*
G01X8828900D01*
G37*
G36*
G01X12492100Y2475400D02*
G03X12496800Y2480500I-404J5088D01*
G02X12550000Y2533200I53200J-502D01*
G02X12603200Y2480000I0J-53200D01*
G02X12554400Y2427000I-53181J0D01*
G03X12549700Y2421900I404J-5088D01*
G02X12496500Y2369200I-53200J502D01*
G02X12460000Y2383700I0J53190D01*
G02X12423500Y2369200I-36500J38690D01*
G02X12371100Y2412900I0J53266D01*
G03X12365600Y2417100I-5009J-858D01*
G02X12360000Y2416800I-5642J52898D01*
G02X12354400Y2417100I42J53198D01*
G03X12348900Y2412900I-491J-5058D01*
G02X12296500Y2369200I-52400J9566D01*
G02X12260000Y2383700I0J53190D01*
G02X12223500Y2369200I-36500J38690D01*
G02X12170300Y2421900I0J53202D01*
G03X12165600Y2427000I-5104J12D01*
G02X12116800Y2480000I4381J53000D01*
G02X12170000Y2533200I53200J0D01*
G02X12223200Y2480500I0J-53202D01*
G03X12227900Y2475400I5104J-12D01*
G02X12260000Y2461100I-4381J-53012D01*
G02X12296500Y2475600I36500J-38690D01*
G02X12302100Y2475300I-42J-53198D01*
G03X12307600Y2479500I491J5058D01*
G02X12412400I52400J-9566D01*
G03X12417900Y2475300I5009J858D01*
G02X12423500Y2475600I5642J-52898D01*
G02X12460000Y2461100I0J-53190D01*
G02X12492100Y2475400I36481J-38712D01*
G37*
G36*
G01X4801300Y2414200D02*
G02X4813500Y2415600I12126J-51809D01*
G02X4850000Y2401100I0J-53190D01*
G02X4886500Y2415600I36500J-38690D01*
G02X4898700Y2414200I74J-53209D01*
G02X4950000Y2453200I51300J-14240D01*
G02Y2346800I0J-53200D01*
G02X4937800Y2348200I-74J53209D01*
G02X4886500Y2309200I-51300J14240D01*
G02X4850000Y2323700I0J53190D01*
G02X4813500Y2309200I-36500J38690D01*
G02X4762200Y2348200I0J53240D01*
G02X4750000Y2346800I-12126J51809D01*
G02X4737800Y2348200I-74J53209D01*
G02X4686500Y2309200I-51300J14240D01*
G02X4650000Y2323700I0J53190D01*
G02X4613500Y2309200I-36500J38690D01*
G02X4562200Y2348200I0J53240D01*
G02X4550000Y2346800I-12126J51809D01*
G02Y2453200I0J53200D01*
G02X4601300Y2414200I0J-53240D01*
G02X4613500Y2415600I12126J-51809D01*
G02X4650000Y2401100I0J-53190D01*
G02X4686500Y2415600I36500J-38690D01*
G02X4698700Y2414200I74J-53209D01*
G02X4801300I51300J-14240D01*
G37*
G36*
G01X5701200Y1286400D02*
G03X5707600Y1300800I-2695J9820D01*
G02X5701800Y1325000I47410J24158D01*
G02X5808200I53200J0D01*
G02X5768800Y1273600I-53227J0D01*
G03X5762400Y1259200I2695J-9820D01*
G02X5768200Y1235000I-47410J-24158D01*
G02X5661800I-53200J0D01*
G02X5701200Y1286400I53227J0D01*
G37*
G36*
G01X9983300Y1303900D02*
G03X9999600Y1307900I6776J7597D01*
G02X10049500Y1342700I49900J-18376D01*
G02Y1236300I0J-53200D01*
G02X10014100Y1249700I-86J53233D01*
G03X9997800Y1245700I-6776J-7597D01*
G02X9947900Y1210900I-49900J18376D01*
G02Y1317300I0J53200D01*
G02X9983300Y1303900I86J-53233D01*
G37*
G36*
G01X6461500Y788700D02*
G03X6468500I3500J3711D01*
G02X6541500I36500J-38690D01*
G03X6548500I3500J3711D01*
G02X6585000Y803200I36500J-38690D01*
G02Y696800I0J-53200D01*
G02X6548500Y711300I0J53190D01*
G03X6541500I-3500J-3711D01*
G02X6468500I-36500J38690D01*
G03X6461500I-3500J-3711D01*
G02X6388500I-36500J38690D01*
G03X6381500I-3500J-3711D01*
G02X6308500I-36500J38690D01*
G03X6301500I-3500J-3711D01*
G02X6228500I-36500J38690D01*
G03X6221500I-3500J-3711D01*
G02X6148500I-36500J38690D01*
G03X6141500I-3500J-3711D01*
G02X6068500I-36500J38690D01*
G03X6061500I-3500J-3711D01*
G02X6025000Y696800I-36500J38690D01*
G02Y803200I0J53200D01*
G02X6061500Y788700I0J-53190D01*
G03X6068500I3500J3711D01*
G02X6141500I36500J-38690D01*
G03X6148500I3500J3711D01*
G02X6221500I36500J-38690D01*
G03X6228500I3500J3711D01*
G02X6301500I36500J-38690D01*
G03X6308500I3500J3711D01*
G02X6381500I36500J-38690D01*
G03X6388500I3500J3711D01*
G02X6461500I36500J-38690D01*
G37*
G36*
G01X3185000Y699900D02*
G02X3150000Y686800I-35000J40206D01*
G02Y793200I0J53200D01*
G02X3185000Y780100I0J-53306D01*
G02X3255000I35000J-40206D01*
G02X3290000Y793200I35000J-40206D01*
G02X3343200Y740000I0J-53200D01*
G02X3330100Y705000I-53306J0D01*
G02Y635000I-40206J-35000D01*
G02X3343200Y600000I-40206J-35000D01*
G02X3236800I-53200J0D01*
G02X3249900Y635000I53306J0D01*
G02X3236800Y670000I40206J35000D01*
G02X3237100Y675900I53213J252D01*
G03X3225900Y687100I-10121J1079D01*
G02X3220000Y686800I-5648J52913D01*
G02X3185000Y699900I0J53306D01*
G37*
G36*
G01X4404000Y763700D02*
G02X4440500Y778200I36500J-38690D01*
G02Y671800I0J-53200D01*
G02X4404000Y686300I0J53190D01*
G02X4367500Y671800I-36500J38690D01*
G02Y778200I0J53200D01*
G02X4404000Y763700I0J-53190D01*
G37*
G36*
G01X2289900Y585000D02*
G02Y655000I40206J35000D01*
G02X2276800Y690000I40206J35000D01*
G02X2330000Y743200I53200J0D01*
G02X2365000Y730100I0J-53306D01*
G02X2400000Y743200I35000J-40206D01*
G02X2453200Y690000I0J-53200D01*
G02X2440100Y655000I-53306J0D01*
G02Y585000I-40206J-35000D01*
G02X2453200Y550000I-40206J-35000D01*
G02X2400000Y496800I-53200J0D01*
G02X2365000Y509900I0J53306D01*
G02X2330000Y496800I-35000J40206D01*
G02X2276800Y550000I0J53200D01*
G02X2289900Y585000I53306J0D01*
G37*
G36*
G01X13327500Y672700D02*
G02X13402500I37500J-37613D01*
G02X13477500I37500J-37613D01*
G02X13515000Y688200I37500J-37613D01*
G02X13568200Y635000I0J-53200D01*
G02X13552700Y597500I-53113J0D01*
G02X13568200Y560000I-37613J-37500D01*
G02X13515000Y506800I-53200J0D01*
G02X13477500Y522300I0J53113D01*
G02X13402500I-37500J37613D01*
G02X13327500I-37500J37613D01*
G02X13252500I-37500J37613D01*
G02X13177500I-37500J37613D01*
G02X13140000Y506800I-37500J37613D01*
G02Y613200I0J53200D01*
G02X13177500Y597700I0J-53113D01*
G02X13215000Y613200I37500J-37613D01*
G02X13225900Y612100I135J-53214D01*
G03X13237900Y624100I2025J9975D01*
G02X13236800Y635000I52114J10765D01*
G02X13290000Y688200I53200J0D01*
G02X13327500Y672700I0J-53113D01*
G37*
G36*
G01X6439300Y374300D02*
G03X6438600Y381500I-3915J3253D01*
G02X6419300Y422500I33899J41000D01*
G02X6525700I53200J0D01*
G02X6513200Y388200I-53310J0D01*
G03X6513900Y381000I3915J-3253D01*
G02X6533200Y340000I-33899J-41000D01*
G02X6426800I-53200J0D01*
G02X6439300Y374300I53310J0D01*
G37*
G36*
G01X7214900Y295000D02*
G03X7213300Y311500I-6709J7677D01*
G02X7186800Y357500I26675J46000D01*
G02X7240000Y410700I53200J0D01*
G02X7258900Y407200I-75J-53186D01*
G03X7271800Y412500I3617J9546D01*
G02X7320000Y443200I48200J-22488D01*
G02Y336800I0J-53200D01*
G02X7301100Y340300I75J53186D01*
G03X7288200Y335000I-3617J-9546D01*
G02X7275100Y317500I-48233J22453D01*
G03X7276700Y301000I6709J-7677D01*
G02X7303200Y255000I-26675J-46000D01*
G02X7196800I-53200J0D01*
G02X7214900Y295000I53249J0D01*
G37*
G36*
G01X1599700Y1272700D02*
G02X1596800Y1290000I50296J17324D01*
G02X1650000Y1236800I53200J0D01*
G02X1643600Y1237200I112J53193D01*
G03X1632700Y1223800I-1234J-10129D01*
G02X1635600Y1206500I-50296J-17324D01*
G02X1621100Y1170000I-53190J0D01*
G02X1635600Y1133300I-38699J-36504D01*
G03X1646500Y1123100I10192J-33D01*
G02X1650000Y1123200I3269J-53107D01*
G02Y1016800I0J-53200D01*
G02X1596800Y1070200I0J53200D01*
G03X1585900Y1080400I-10192J33D01*
G02X1582400Y1080300I-3269J53107D01*
G02X1529200Y1133500I0J53200D01*
G02X1543700Y1170000I53190J0D01*
G02X1529200Y1206500I38690J36500D01*
G02X1582400Y1259700I53200J0D01*
G02X1588800Y1259300I-112J-53193D01*
G03X1599700Y1272700I1234J10129D01*
G37*
G36*
G01X1746800Y680000D02*
G02X1778200Y728500I53156J0D01*
G03X1779800Y746200I-4197J9302D01*
G02X1756800Y790000I30205J43800D01*
G02X1863200I53200J0D01*
G02X1831800Y741500I-53156J0D01*
G03X1830200Y723800I4197J-9302D01*
G02X1853200Y680000I-30205J-43800D01*
G02X1746800I-53200J0D01*
G37*
G36*
G01X1873000Y518400D02*
G02X1860000Y516800I-12950J51606D01*
G02X1913200Y570000I0J53200D01*
G02X1912200Y559900I-53184J166D01*
G03X1924700Y548100I10025J-1901D01*
G02X1937700Y549700I12950J-51606D01*
G02X1990900Y496500I0J-53200D01*
G02X1976400Y460000I-53190J0D01*
G02X1990900Y423500I-38690J-36500D01*
G02X1937700Y370300I-53200J0D01*
G02X1924700Y371900I-50J53206D01*
G03X1912200Y360100I-2475J-9899D01*
G02X1913200Y350000I-52184J-10266D01*
G02X1860000Y403200I-53200J0D01*
G02X1873000Y401600I50J-53206D01*
G03X1885500Y413400I2475J9899D01*
G02X1884500Y423500I52184J10266D01*
G02X1899000Y460000I53190J0D01*
G02X1884500Y496500I38690J36500D01*
G02X1885500Y506600I53184J-166D01*
G03X1873000Y518400I-10025J1901D01*
G37*
G54D24*
X13310000Y5442500D03*
Y5597500D03*
X13500000Y5520000D03*
X13120000D03*
X6200000Y1082500D03*
Y1237500D03*
X6390000Y1160000D03*
X6010000D03*
X5130000Y1237500D03*
Y1082500D03*
X5320000Y1160000D03*
X4940000D03*
X4130000Y1237500D03*
Y1082500D03*
X4320000Y1160000D03*
X3940000D03*
G54D27*
X1130000Y3024000D03*
Y2770000D03*
Y2516000D03*
G54D29*
X7300000Y1090000D03*
G54D28*
X13168000Y1195000D03*
X7730000Y890000D03*
G54D21*
X1810000Y980000D03*
X12960000Y6270000D03*
X12955000Y5425000D03*
X13780000Y5060000D03*
X12940000Y5280000D03*
X12429000Y4429500D03*
X12269000Y4430000D03*
X11585000Y4719500D03*
X10844000Y4438000D03*
X11004000Y4439300D03*
X10160000Y4719500D03*
X9579000Y4429500D03*
X8735000Y4719500D03*
X7994000Y4430000D03*
X8154000Y4429500D03*
X7310000Y4719500D03*
X6099000Y4430000D03*
X6259000Y4429500D03*
X5415000Y4719500D03*
X4674000Y4430000D03*
X4834000Y4429500D03*
X3990000Y4719500D03*
X3249000Y4430000D03*
X3409000Y4429500D03*
X2565000Y4719500D03*
X1824000Y4430000D03*
X1984000Y4429500D03*
X1140000Y4719500D03*
X11995000Y4310500D03*
X10570000D03*
X9421300Y4379000D03*
X9145000Y4310500D03*
X7720000D03*
X5825000D03*
X4400000D03*
X2975000D03*
X2565000Y3940000D03*
X1550000Y4310500D03*
X12469000Y3900700D03*
X12145000Y3915000D03*
X11995000D03*
X11749000Y3619300D03*
X11044000Y3900700D03*
X10720000Y3910000D03*
X10570000D03*
X10248500Y3760000D03*
X9619000Y3910500D03*
X9295000Y3915000D03*
X9145000D03*
X8194000Y3910500D03*
X7870000Y3910000D03*
X7720000Y3916800D03*
X7398500Y3760000D03*
X6299000Y3910500D03*
X5975000Y3915000D03*
X5825000Y3916800D03*
X5503500Y3760000D03*
X4874000Y3910500D03*
X4550000Y3910000D03*
X4400000D03*
X4078500Y3760000D03*
X3449000Y3910500D03*
X3125000Y3915000D03*
X2975000D03*
X2653500Y3760000D03*
X2024000Y3910500D03*
X1700000Y3910000D03*
X1560000D03*
X1228500Y3760000D03*
X12515700Y3180000D03*
X12194300D03*
X11300000Y3040000D03*
X11090700Y3180000D03*
X9890000Y3070000D03*
X9665700Y3180000D03*
X9344300D03*
X8230000D03*
X4610000D03*
X4910000D03*
X3190000D03*
X3490000D03*
X2330000Y3360000D03*
X1760000Y3180000D03*
X2060000D03*
X266500Y3053000D03*
X393500D03*
X520500D03*
X139500D03*
X9840000Y2920000D03*
X8320000Y2930000D03*
X4505000Y2570000D03*
Y2815000D03*
X845000Y2780000D03*
Y2520000D03*
X530000Y2590000D03*
X660000Y2513000D03*
X270000Y2597000D03*
X400000Y2600000D03*
X140000Y2597000D03*
X13070000Y2120000D03*
X775000Y2075000D03*
X660000Y2267000D03*
X595000Y2075000D03*
X266500Y2267000D03*
X139500D03*
X130000Y2090000D03*
X1530000Y1910000D03*
X1380000Y1610000D03*
X1350000Y1910000D03*
X1000000Y1785000D03*
X820000Y1780000D03*
X590000Y1880000D03*
X480000Y1600000D03*
X270000Y1930000D03*
X140000Y1600000D03*
X12855100Y1137100D03*
X12982100Y1264100D03*
Y1391100D03*
Y1137100D03*
X12474100D03*
X12601100Y1264100D03*
Y1137100D03*
X12474100Y1264100D03*
X12347100Y1137100D03*
X12220100Y1391100D03*
X12093100D03*
X11839100D03*
X12093100Y1137100D03*
X12220100D03*
X11966100D03*
Y1391100D03*
X12093100Y1264100D03*
X11712100Y1391100D03*
Y1137100D03*
X11458100Y1264100D03*
X11585100D03*
Y1391100D03*
X11712100Y1264100D03*
X11585100Y1137100D03*
X11077100Y1264100D03*
X11204100D03*
Y1137100D03*
X10696100Y1264100D03*
X10823100D03*
Y1391100D03*
Y1137100D03*
X10569100Y1264100D03*
X9941500Y1398500D03*
X10074900Y1137100D03*
X10201900D03*
Y1264100D03*
X10328900D03*
Y1391100D03*
Y1137100D03*
X9947900D03*
X9570000Y1390000D03*
X9439900Y1264100D03*
X9693900Y1137100D03*
X9820900Y1264100D03*
X9566900D03*
X9820900Y1137100D03*
X9693900Y1264100D03*
X9566900Y1137100D03*
X9058900Y1264100D03*
X9185900D03*
X9299100Y1391100D03*
X9185900Y1137100D03*
X8677900Y1264100D03*
X8550900Y1137100D03*
X8804900Y1264100D03*
X8677900Y1137100D03*
X8801000Y1141000D03*
X8550900Y1264100D03*
X8042900D03*
Y1137100D03*
X8169900D03*
X8423900D03*
Y1391100D03*
X8296900D03*
X7915900Y1137100D03*
Y1391100D03*
X3450000Y1090000D03*
X3440000Y1240000D03*
X3040000Y1090000D03*
X1810000Y1470000D03*
X12982100Y642900D03*
X12855100Y769900D03*
X12982100Y1010100D03*
X12855100D03*
X12982100Y769900D03*
X12855100Y642900D03*
X12728100D03*
X12474100D03*
X12347100D03*
X12601100D03*
X12347100Y769900D03*
X12728100D03*
X11839100D03*
X11966100Y1010100D03*
X11839100D03*
Y642900D03*
X11966100D03*
X12093100Y1010100D03*
X11966100Y769900D03*
X11712100D03*
X11331100D03*
X11458100D03*
X11712100Y642900D03*
X11585100Y1010100D03*
X11458100D03*
X11585100Y769900D03*
X11712100Y1010100D03*
X11331100D03*
X11204100Y642900D03*
Y769900D03*
X11077100Y642900D03*
X10950100Y1010100D03*
X10442100Y642900D03*
X10569100D03*
X10696100D03*
X10569100Y1010100D03*
X9947900D03*
X10328900Y769900D03*
X10201900Y642900D03*
X9947900Y769900D03*
X10074900Y1010100D03*
X9820900D03*
X9439900Y769900D03*
X9566900Y642900D03*
X9693900D03*
X9820900D03*
X9566900Y769900D03*
X9439900Y642900D03*
X9693900Y1010100D03*
X9312900Y769900D03*
X9058900Y1010100D03*
X8946000Y784000D03*
X9185900Y1010100D03*
X8931900Y642900D03*
X8928000Y1014000D03*
X9058900Y642900D03*
X9312900Y1010100D03*
X8804900Y642900D03*
X8550900Y1010100D03*
X8797500Y762500D03*
X8677900Y642900D03*
X8550900D03*
X8296900Y1010100D03*
X8423900D03*
X8042900D03*
X8423900Y769900D03*
X8296900D03*
X8169900Y642900D03*
X8042900D03*
X7915900D03*
Y769900D03*
X6910000Y615500D03*
X6790000Y610000D03*
X5690000Y940000D03*
X4221500Y725000D03*
X2110000Y790000D03*
X1110000Y827500D03*
X973000Y993000D03*
X12855100Y515900D03*
X12982100Y261900D03*
X12855100Y388900D03*
X12982100Y515900D03*
X12601100D03*
X12347100D03*
X12728100D03*
Y388900D03*
X12601100Y261900D03*
X12474100Y515900D03*
Y261900D03*
X12347100Y388900D03*
X12220100Y515900D03*
X11839100D03*
X12220100Y388900D03*
X12093100Y515900D03*
Y261900D03*
X11966100Y515900D03*
Y261900D03*
X11839100Y388900D03*
X11712100Y515900D03*
Y388900D03*
X11585100Y515900D03*
Y261900D03*
X11458100D03*
X11077100Y515900D03*
Y261900D03*
X10950100Y515900D03*
Y261900D03*
X10696100Y515900D03*
X10823100D03*
X10569100D03*
Y261900D03*
X10074900Y515900D03*
X10201900D03*
X10328900D03*
Y261900D03*
X10201900Y388900D03*
X10074900D03*
X9947900Y515900D03*
Y261900D03*
X9566900Y515900D03*
X9693900D03*
X9820900D03*
Y261900D03*
X9693900Y388900D03*
X9566900D03*
X9439900Y515900D03*
Y261900D03*
X9058900Y515900D03*
X9185900D03*
X8931900D03*
X9312900Y261900D03*
X9185900Y388900D03*
X9058900D03*
X8931900Y261900D03*
X8804900Y515900D03*
Y261900D03*
X8677900Y388900D03*
X8550900D03*
X8423900Y261900D03*
X8296900D03*
X8169900Y388900D03*
X8042900D03*
X7915900D03*
X7600000Y510000D03*
X7915900Y261900D03*
X7170000Y500000D03*
X6910000Y190000D03*
X6790000Y200000D03*
X6450000Y210000D03*
X3105000Y325000D03*
X2410000Y330000D03*
X1110000Y387500D03*
Y532500D03*
X1800000Y240000D03*
G54D23*
X9947500Y6760000D03*
X3782500D03*
X9947500Y5760000D03*
X3782500D03*
X11372500Y4980000D03*
X7097500D03*
X5207500D03*
X932500D03*
X11372500Y4510000D03*
X9947500Y4760000D03*
X7097500Y4510000D03*
X5207500D03*
X3782500Y4760000D03*
X932500Y4510000D03*
X11372500Y4010000D03*
X7097500D03*
X5207500D03*
X932500D03*
X12565000Y3550000D03*
X11140000D03*
X9715000D03*
X8290000D03*
X6400000D03*
X4975000D03*
X3550000D03*
X2125000D03*
G54D22*
X11940000Y7260000D03*
X11372500D03*
X10515000D03*
X9090000D03*
X7665000D03*
X7097500D03*
X5775000D03*
X5207500D03*
X4350000D03*
X2925000D03*
X1500000D03*
X932500D03*
X12797500Y6760000D03*
X8522500D03*
X6632500D03*
X2357500D03*
X11372500Y6260000D03*
X7097500D03*
X5207500D03*
X932500D03*
X12797500Y5760000D03*
X12230000D03*
X11690000D03*
X10805000D03*
X10265000D03*
X9380000D03*
X8840000D03*
X8522500D03*
X7955000D03*
X7415000D03*
X6632500D03*
X6065000D03*
X5525000D03*
X4640000D03*
X4100000D03*
X3215000D03*
X2675000D03*
X2357500D03*
X1790000D03*
X1250000D03*
X11372500Y5260000D03*
X7097500D03*
X5207500D03*
X932500D03*
X12797500Y3760000D03*
X6632500D03*
X2357500D03*
G54D25*
X12569000Y4170000D03*
X11144000D03*
X9719000D03*
X8294000D03*
X6399000D03*
X4974000D03*
X3549000D03*
X2124000D03*
G54D26*
X13730000Y3773000D03*
%LPD*%
G75*
G36*
G01X13460000Y5000000D02*
X13530000D01*
Y4913700D01*
G02X13511100Y4908500I-10185J73D01*
G03X13440000Y4948800I-71100J-42570D01*
G03Y4783200I0J-82800D01*
G03X13511100Y4823500I0J82870D01*
G02X13530000Y4818300I8715J-5273D01*
G01Y3690000D01*
X13440200D01*
G02X13430500Y3703400I0J10211D01*
G03X13433200Y3720000I-50479J16730D01*
G03X13326800I-53200J0D01*
G03X13379800Y3666800I53200J0D01*
G02X13390000Y3656600I3J-10197D01*
G01Y3503500D01*
G02X13371800Y3497200I-10199J24D01*
G03X13330000Y3517500I-41800J-32885D01*
G03Y3411100I0J-53200D01*
G03X13371800Y3431400I0J53185D01*
G02X13390000Y3425100I8001J-6324D01*
G01Y3300000D01*
X13530000D01*
Y2410200D01*
G02X13516600Y2400500I-10211J0D01*
G03X13500000Y2403200I-16730J-50479D01*
G03Y2296800I0J-53200D01*
G03X13516600Y2299500I-130J53179D01*
G02X13530000Y2289800I3189J-9700D01*
G01Y2033400D01*
G03Y1976600I45080J-28400D01*
G01Y1570000D01*
X12866800D01*
X12866300Y1570100D01*
G03X12855100Y1571300I-11235J-51996D01*
G03X12843900Y1570100I35J-53196D01*
G01X12843400Y1570000D01*
X12739800D01*
X12739300Y1570100D01*
G03X12728100Y1571300I-11235J-51996D01*
G03X12716900Y1570100I35J-53196D01*
G01X12716400Y1570000D01*
X12612800D01*
X12612300Y1570100D01*
G03X12601100Y1571300I-11235J-51996D01*
G03X12589900Y1570100I35J-53196D01*
G01X12589400Y1570000D01*
X12485800D01*
X12485300Y1570100D01*
G03X12474100Y1571300I-11235J-51996D01*
G03X12462900Y1570100I35J-53196D01*
G01X12462400Y1570000D01*
X12358800D01*
X12358300Y1570100D01*
G03X12347100Y1571300I-11235J-51996D01*
G03X12335900Y1570100I35J-53196D01*
G01X12335400Y1570000D01*
X12231800D01*
X12231300Y1570100D01*
G03X12220100Y1571300I-11235J-51996D01*
G03X12208900Y1570100I35J-53196D01*
G01X12208400Y1570000D01*
X12104800D01*
X12104300Y1570100D01*
G03X12093100Y1571300I-11235J-51996D01*
G03X12081900Y1570100I35J-53196D01*
G01X12081400Y1570000D01*
X11977800D01*
X11977300Y1570100D01*
G03X11966100Y1571300I-11235J-51996D01*
G03X11954900Y1570100I35J-53196D01*
G01X11954400Y1570000D01*
X11850800D01*
X11850300Y1570100D01*
G03X11839100Y1571300I-11235J-51996D01*
G03X11827900Y1570100I35J-53196D01*
G01X11827400Y1570000D01*
X11723800D01*
X11723300Y1570100D01*
G03X11712100Y1571300I-11235J-51996D01*
G03X11700900Y1570100I35J-53196D01*
G01X11700400Y1570000D01*
X11318400D01*
G03X11230600I-43900J-29935D01*
G01X11102600D01*
X11102100Y1570100D01*
G03X11090900Y1571300I-11235J-51996D01*
G03X11079700Y1570100I35J-53196D01*
G01X11079200Y1570000D01*
X10975600D01*
X10975100Y1570100D01*
G03X10963900Y1571300I-11235J-51996D01*
G03X10952700Y1570100I35J-53196D01*
G01X10952200Y1570000D01*
X10580800D01*
X10580300Y1570100D01*
G03X10569100Y1571300I-11235J-51996D01*
G03X10557900Y1570100I35J-53196D01*
G01X10557400Y1570000D01*
X10105100D01*
G03X10034900I-35100J-40067D01*
G01X9853900D01*
G03X9766100I-43900J-29935D01*
G01X9324600D01*
X9324100Y1570100D01*
G03X9312900Y1571300I-11235J-51996D01*
G03X9301700Y1570100I35J-53196D01*
G01X9301200Y1570000D01*
X8943600D01*
X8943100Y1570100D01*
G03X8931900Y1571300I-11235J-51996D01*
G03X8920700Y1570100I35J-53196D01*
G01X8920200Y1570000D01*
X8562600D01*
X8562100Y1570100D01*
G03X8550900Y1571300I-11235J-51996D01*
G03X8539700Y1570100I35J-53196D01*
G01X8539200Y1570000D01*
X8435600D01*
X8435100Y1570100D01*
G03X8423900Y1571300I-11235J-51996D01*
G03X8412700Y1570100I35J-53196D01*
G01X8412200Y1570000D01*
X8308600D01*
X8308100Y1570100D01*
G03X8296900Y1571300I-11235J-51996D01*
G03X8285700Y1570100I35J-53196D01*
G01X8285200Y1570000D01*
X8181600D01*
X8181100Y1570100D01*
G03X8169900Y1571300I-11235J-51996D01*
G03X8158700Y1570100I35J-53196D01*
G01X8158200Y1570000D01*
X6685900D01*
X6685500Y1574700D01*
G03X6632500Y1623200I-53000J-4709D01*
G03X6596000Y1608700I0J-53190D01*
G02X6589000I-3500J3711D01*
G03X6516000I-36500J-38690D01*
G02X6509000I-3500J3711D01*
G03X6436000I-36500J-38690D01*
G02X6429000I-3500J3711D01*
G03X6356000I-36500J-38690D01*
G02X6349000I-3500J3711D01*
G03X6276000I-36500J-38690D01*
G02X6269000I-3500J3711D01*
G03X6196000I-36500J-38690D01*
G02X6189000I-3500J3711D01*
G03X6116000I-36500J-38690D01*
G02X6109000I-3500J3711D01*
G03X6072500Y1623200I-36500J-38690D01*
G03X6019500Y1574700I0J-53209D01*
G01X6019100Y1570000D01*
X5935100D01*
G03X5864900I-35100J-40067D01*
G01X5730000D01*
Y1440000D01*
X5580000Y1290000D01*
Y930000D01*
X5470000D01*
Y1541800D01*
X5474300Y1542500D01*
G03X5519200Y1595000I-8243J52500D01*
G03X5466000Y1648200I-53200J0D01*
G03X5429500Y1633700I0J-53190D01*
G03X5356500I-36500J-38690D01*
G03X5283500I-36500J-38690D01*
G03X5210500I-36500J-38690D01*
G03X5137500I-36500J-38690D01*
G03X5064500I-36500J-38690D01*
G03X4991500I-36500J-38690D01*
G03X4955000Y1648200I-36500J-38690D01*
G03X4901800Y1595000I0J-53200D01*
G03X4903300Y1582600I53183J143D01*
G02X4893400Y1570000I-9924J-2392D01*
G01X4710000D01*
Y1039900D01*
G02X4692600Y1032600I-10205J-62D01*
G03X4655000Y1048200I-37600J-37513D01*
G03X4608000Y1020000I0J-53267D01*
G01X4520000D01*
Y1570000D01*
X4515700D01*
Y1576000D01*
X4516000Y1576800D01*
G03X4519200Y1595000I-50005J18173D01*
G03X4466000Y1648200I-53200J0D01*
G03X4429500Y1633700I0J-53190D01*
G03X4356500I-36500J-38690D01*
G03X4283500I-36500J-38690D01*
G03X4210500I-36500J-38690D01*
G03X4137500I-36500J-38690D01*
G03X4064500I-36500J-38690D01*
G03X3991500I-36500J-38690D01*
G03X3955000Y1648200I-36500J-38690D01*
G03X3901800Y1595000I0J-53200D01*
G03X3903300Y1582600I53183J143D01*
G02X3893400Y1570000I-9924J-2392D01*
G01X3680000D01*
Y730000D01*
X3560000D01*
Y1570000D01*
X3343400D01*
X3343000Y1574700D01*
G03X3330100Y1605000I-53006J-4671D01*
G03X3343200Y1640000I-40206J35000D01*
G03X3290000Y1693200I-53200J0D01*
G03X3255000Y1680100I0J-53306D01*
G03X3220000Y1693200I-35000J-40206D01*
G03X3166800Y1640000I0J-53200D01*
G03X3179900Y1605000I53306J0D01*
G03X3167000Y1574700I40106J-34971D01*
G01X3166600Y1570000D01*
X2880000D01*
Y1180000D01*
X2450000D01*
Y1570000D01*
X2399300D01*
G03X2390100Y1585000I-49333J-19936D01*
G03X2403200Y1620000I-40206J35000D01*
G03X2402900Y1625900I-53213J252D01*
G02X2414100Y1637100I10110J1090D01*
G03X2420000Y1636800I5648J52913D01*
G03X2455000Y1649900I0J53306D01*
G03X2490000Y1636800I35000J40206D01*
G03Y1743200I0J53200D01*
G03X2455000Y1730100I0J-53306D01*
G03X2385000I-35000J-40206D01*
G03X2350000Y1743200I-35000J-40206D01*
G03X2296800Y1690000I0J-53200D01*
G03X2309900Y1655000I53306J0D01*
G03X2296800Y1620000I40206J-35000D01*
G03X2309900Y1585000I53306J0D01*
G03X2300700Y1570000I40133J-34936D01*
G01X1790000D01*
Y2276200D01*
X1793200Y2277500D01*
G03X1810000Y2288200I-19670J49423D01*
G03X1846500Y2273700I36500J38690D01*
G03X1898000Y2313400I0J53254D01*
G02X1903500Y2317200I4929J-1253D01*
G03X1910000Y2316800I6511J52799D01*
G03X1916500Y2317200I-11J53199D01*
G02X1922000Y2313400I571J-5053D01*
G03X1973500Y2273700I51500J13554D01*
G03X2010000Y2288200I0J53190D01*
G03X2046500Y2273700I36500J38690D01*
G03X2058900Y2275200I-143J53183D01*
G03X2110000Y2236800I51100J14800D01*
G03Y2343200I0J53200D01*
G03X2097600Y2341700I143J-53183D01*
G03X2046500Y2380100I-51100J-14800D01*
G03X2010000Y2365600I0J-53190D01*
G03X1973500Y2380100I-36500J-38690D01*
G03X1967000Y2379700I11J-53199D01*
G02X1961500Y2383500I-571J5053D01*
G03X1858500I-51500J-13554D01*
G02X1853000Y2379700I-4929J1253D01*
G03X1846500Y2380100I-6511J-52799D01*
G03X1810000Y2365600I0J-53190D01*
G03X1793200Y2376300I-36470J-38723D01*
G01X1790000Y2377600D01*
Y3060000D01*
X3290000D01*
Y2475100D01*
G03X3278200Y2451900I40068J-34980D01*
G03X3266500Y2453200I-11700J-52000D01*
G03X3230000Y2438700I0J-53190D01*
G03X3193500Y2453200I-36500J-38690D01*
G03X3181800Y2451900I0J-53300D01*
G03X3130000Y2493200I-51800J-11835D01*
G03Y2386800I0J-53200D01*
G03X3141700Y2388100I0J53300D01*
G03X3193500Y2346800I51800J11835D01*
G03X3230000Y2361300I0J53190D01*
G03X3266500Y2346800I36500J38690D01*
G03X3277700Y2348000I-35J53196D01*
G02X3290000Y2338000I2101J-9981D01*
G01Y1950000D01*
X3630000D01*
Y3100000D01*
X4400000D01*
Y1950000D01*
X5700000D01*
Y3160000D01*
X5990700D01*
G03X6089300I49300J20004D01*
G01X6290700D01*
G03X6389300I49300J20004D01*
G01X6750000D01*
Y1950000D01*
X7130000D01*
Y3120000D01*
X8090000D01*
Y2583400D01*
G02X8079800Y2573200I-10197J-3D01*
G03X8028700Y2534200I177J-53210D01*
G03X8016500Y2535600I-12126J-51809D01*
G03X7980000Y2521100I0J-53190D01*
G03X7943500Y2535600I-36500J-38690D01*
G03X7926700Y2532900I-65J-53210D01*
G02X7920500Y2535500I-1618J4833D01*
G03X7872500Y2565800I-48000J-22870D01*
G03Y2459400I0J-53200D01*
G03X7889300Y2462100I65J53210D01*
G02X7895500Y2459500I1618J-4833D01*
G03X7943500Y2429200I48000J22870D01*
G03X7980000Y2443700I0J53190D01*
G03X8016500Y2429200I36500J38690D01*
G03X8067800Y2468200I0J53240D01*
G03X8079800Y2466800I12126J51806D01*
G02X8090000Y2456600I3J-10197D01*
G01Y1950000D01*
X8560000D01*
Y2728800D01*
X8563300Y2730100D01*
G03Y2829900I-18223J49900D01*
G01X8560000Y2831200D01*
Y3110000D01*
X8639100D01*
G02X8648800Y3096600I0J-10211D01*
G03X8646100Y3080000I50479J-16730D01*
G03X8752500I53200J0D01*
G03X8749800Y3096600I-53179J-130D01*
G02X8759500Y3110000I9700J3189D01*
G01X9220000D01*
Y1950000D01*
X9990000D01*
Y2723000D01*
G03Y2817000I-25067J47000D01*
G01Y3140000D01*
X10080100D01*
G02X10086400Y3121800I-24J-10199D01*
G03X10066100Y3080000I32885J-41800D01*
G03X10172500I53200J0D01*
G03X10152200Y3121800I-53185J0D01*
G02X10158500Y3140000I6324J8001D01*
G01X10760000D01*
Y2522600D01*
G02X10748200Y2512600I-10185J56D01*
G03X10740000Y2513200I-7972J-52617D01*
G03Y2406800I0J-53200D01*
G03X10752200Y2408200I74J53209D01*
G03X10760000Y2391800I51242J14316D01*
G01Y1950000D01*
X11390000D01*
Y2716800D01*
G02X11401000Y2727000I10213J17D01*
G03X11405000Y2726800I4653J52967D01*
G03Y2833200I0J53200D01*
G03X11401000Y2833000I653J-53167D01*
G02X11390000Y2843200I-787J10183D01*
G01Y3060000D01*
X11450800D01*
G02X11457100Y3041800I-24J-10199D01*
G03X11436800Y3000000I32885J-41800D01*
G03X11543200I53200J0D01*
G03X11541200Y3014400I-53193J-49D01*
G02X11552400Y3027300I9835J2773D01*
G03X11559300Y3026800I7285J52672D01*
G03X11608600Y3060000I0J53204D01*
G01X12080000D01*
Y1950000D01*
X13160000D01*
Y2424000D01*
G02X13175000Y2433000I10185J25D01*
G03X13200000Y2426800I24929J47018D01*
G03Y2533200I0J53200D01*
G03X13175000Y2527000I-71J-53218D01*
G02X13160000Y2536000I-4815J8975D01*
G01Y2580000D01*
X12650000D01*
Y2656900D01*
X12654200Y2657700D01*
G03Y2762300I-9690J52300D01*
G01X12650000Y2763100D01*
Y2912600D01*
X12653800Y2913600D01*
G03X12693200Y2964900I-13807J51384D01*
G01Y2970000D01*
X12793500D01*
G03X12817500Y2964300I23960J47509D01*
G03X12841500Y2970000I40J53209D01*
G01X13160000D01*
Y3154800D01*
G03Y3251200I-22488J48200D01*
G01Y3850100D01*
G02X13178100Y3856600I10199J50D01*
G03X13219500Y3836800I41400J33382D01*
G03Y3943200I0J53200D01*
G03X13178100Y3923400I0J-53182D01*
G02X13160000Y3929900I-7901J6450D01*
G01Y4210100D01*
G02X13178100Y4216600I10199J50D01*
G03X13219500Y4196800I41400J33382D01*
G03Y4303200I0J53200D01*
G03X13178100Y4283400I0J-53182D01*
G02X13160000Y4289900I-7901J6450D01*
G01Y4700000D01*
G02X13357300Y4981900I300038J0D01*
G03X13380000Y4976800I22700J47969D01*
G03X13422200Y4997600I0J53209D01*
G02X13460000Y5000000I37871J-297595D01*
G37*
%LPC*%
G75*
G36*
G01X9825700Y1755000D02*
G02X9878900Y1806700I53200J-1522D01*
G02X9932100Y1753500I0J-53200D01*
G02X9880400Y1700300I-53222J0D01*
G02X9827200Y1648600I-53200J1522D01*
G02X9774000Y1701800I0J53200D01*
G02X9825700Y1755000I53222J0D01*
G37*
G36*
G01X5992200Y2426500D02*
G02X6043500Y2465600I51300J-14103D01*
G02X6080000Y2451100I0J-53190D01*
G02X6116500Y2465600I36500J-38690D01*
G02X6128700Y2464200I74J-53209D01*
G02X6231300I51300J-14240D01*
G02X6243500Y2465600I12126J-51809D01*
G02X6280000Y2451100I0J-53190D01*
G02X6316500Y2465600I36500J-38690D01*
G02X6367800Y2426500I0J-53203D01*
G03X6373400Y2422800I4913J1347D01*
G02X6380000Y2423200I6512J-52805D01*
G02Y2316800I0J-53200D01*
G02X6328700Y2355900I0J53203D01*
G03X6323100Y2359600I-4913J-1347D01*
G02X6316500Y2359200I-6512J52805D01*
G02X6280000Y2373700I0J53190D01*
G02X6243500Y2359200I-36500J38690D01*
G02X6192200Y2398200I0J53240D01*
G02X6180000Y2396800I-12126J51809D01*
G02X6167800Y2398200I-74J53209D01*
G02X6116500Y2359200I-51300J14240D01*
G02X6080000Y2373700I0J53190D01*
G02X6043500Y2359200I-36500J38690D01*
G02X6036900Y2359600I-88J53205D01*
G03X6031300Y2355900I-687J-5047D01*
G02X5980000Y2316800I-51300J14103D01*
G02Y2423200I0J53200D01*
G02X5986600Y2422800I88J-53205D01*
G03X5992200Y2426500I687J5047D01*
G37*
G36*
G01X11722200Y2482500D02*
G03X11707800I-7200J-7156D01*
G02X11670000Y2466800I-37745J37523D01*
G02Y2573200I0J53200D01*
G02X11707800Y2557500I55J-53223D01*
G03X11722200I7200J7156D01*
G02X11760000Y2573200I37745J-37523D01*
G02Y2466800I0J-53200D01*
G02X11722200Y2482500I-55J53223D01*
G37*
G36*
G01X2357300Y2682000D02*
G03Y2698000I-6276J8000D01*
G02X2336800Y2740000I32774J42000D01*
G02X2443200I53200J0D01*
G02X2422700Y2698000I-53274J0D01*
G03Y2682000I6276J-8000D01*
G02X2443200Y2640000I-32774J-42000D01*
G02X2336800I-53200J0D01*
G02X2357300Y2682000I53274J0D01*
G37*
G36*
G01X7647300D02*
G03Y2698000I-6276J8000D01*
G02X7626800Y2740000I32774J42000D01*
G02X7733200I53200J0D01*
G02X7712700Y2698000I-53274J0D01*
G03Y2682000I6276J-8000D01*
G02X7733200Y2640000I-32774J-42000D01*
G02X7626800I-53200J0D01*
G02X7647300Y2682000I53274J0D01*
G37*
G36*
G01X7807300D02*
G03Y2698000I-6276J8000D01*
G02X7786800Y2740000I32774J42000D01*
G02X7893200I53200J0D01*
G02X7872700Y2698000I-53274J0D01*
G03Y2682000I6276J-8000D01*
G02X7893200Y2640000I-32774J-42000D01*
G02X7786800I-53200J0D01*
G02X7807300Y2682000I53274J0D01*
G37*
G36*
G01X6360600Y2699800D02*
G03X6355800Y2712600I-9468J3750D01*
G02X6326800Y2760000I24237J47400D01*
G02X6433200I53200J0D01*
G02X6429400Y2740200I-53210J-53D01*
G03X6434200Y2727400I9468J-3750D01*
G02X6455200Y2708100I-24192J-47397D01*
G03X6471300Y2706500I8663J5366D01*
G01X6474600Y2710000D01*
X6471300Y2713500D01*
G02X6456800Y2750000I38690J36500D01*
G02X6563200I53200J0D01*
G02X6548700Y2713500I-53190J0D01*
G03Y2706500I3711J-3500D01*
G02X6563200Y2670000I-38690J-36500D01*
G02X6529400Y2620500I-53146J0D01*
G03X6523400Y2608000I3752J-9491D01*
G02X6525700Y2592500I-50904J-15474D01*
G02X6419300I-53200J0D01*
G02X6423300Y2612800I53212J59D01*
G03X6413300Y2626900I-9400J3929D01*
G02X6410000Y2626800I-3261J53101D01*
G02X6356800Y2680000I0J53200D01*
G02X6360600Y2699800I53210J53D01*
G37*
G36*
G01X6247200Y2982500D02*
G03X6232800I-7200J-7156D01*
G02X6195000Y2966800I-37745J37523D01*
G02Y3073200I0J53200D01*
G02X6232800Y3057500I55J-53223D01*
G03X6247200I7200J7156D01*
G02X6285000Y3073200I37745J-37523D01*
G02Y2966800I0J-53200D01*
G02X6247200Y2982500I-55J53223D01*
G37*
G36*
G01X10246200Y2453500D02*
G02X10200000Y2426800I-46200J26621D01*
G02Y2533200I0J53200D01*
G02X10246200Y2506500I0J-53321D01*
G03X10263800I8800J5030D01*
G02X10310000Y2533200I46200J-26621D01*
G02Y2426800I0J-53200D01*
G02X10263800Y2453500I0J53321D01*
G03X10246200I-8800J-5030D01*
G37*
G36*
G01X4077300Y2698000D02*
G02X4056800Y2740000I32774J42000D01*
G02X4163200I53200J0D01*
G02X4142700Y2698000I-53274J0D01*
G03Y2682000I6276J-8000D01*
G02X4163200Y2642000I-32684J-42004D01*
G03X4179600Y2634300I10180J366D01*
G02X4212500Y2645700I32900J-41774D01*
G02Y2539300I0J-53200D01*
G02X4159300Y2590500I0J53239D01*
G03X4142900Y2598200I-10180J-366D01*
G02X4110000Y2586800I-32900J41774D01*
G02X4056800Y2640000I0J53200D01*
G02X4077300Y2682000I53274J0D01*
G03Y2698000I-6276J8000D01*
G37*
G54D21*
X4630000Y1400000D03*
Y1180000D03*
X9680000Y1660000D03*
X8860000Y2490000D03*
X9010000D03*
X13340000Y2010000D03*
X2607500Y2592500D03*
X2550000Y2930000D03*
X2420000D03*
X2865000Y2805000D03*
Y2585000D03*
X4090000Y2930000D03*
X4220000D03*
X7820000D03*
X7680000D03*
X8634500D03*
X9100000Y2640000D03*
X9085500Y2930000D03*
X10054500D03*
X10430000Y2500000D03*
X10505500Y2930000D03*
X11960000Y2640000D03*
X11945500Y2930000D03*
X13420000Y2680000D03*
X13255700Y2950000D03*
X2275000Y2985000D03*
X3890000Y2980000D03*
X6535000Y3005000D03*
X7545000Y2985000D03*
X13420000Y3060000D03*
X13374500Y4040000D03*
Y4400000D03*
%LPD*%
G75*
G54D10*
X300000Y1090000D03*
X550000Y6550000D03*
X7300000Y1090000D03*
X13205000Y6550000D03*
X13600000Y1090000D03*
G54D20*
G01X556000Y5794000D02*
X569300Y5782000D01*
X577300Y5768000D01*
X580000Y5750000D01*
X574700Y5732000D01*
X564000Y5718000D01*
X545300Y5708000D01*
X524000Y5706000D01*
X502700Y5710000D01*
X489300Y5720000D01*
X478700Y5734000D01*
X476000Y5748000D01*
X478700Y5762000D01*
X489300Y5780000D01*
X420000Y5774000D01*
Y5720000D01*
G54D11*
X140000Y1600000D03*
X130000Y2090000D03*
X139500Y2267000D03*
X140000Y2597000D03*
X139500Y3053000D03*
X270000Y1930000D03*
X480000Y1600000D03*
X590000Y1880000D03*
X266500Y2267000D03*
X595000Y2075000D03*
X660000Y2267000D03*
X400000Y2600000D03*
X270000Y2597000D03*
X660000Y2513000D03*
X530000Y2590000D03*
X520500Y3053000D03*
X393500D03*
X266500D03*
X1110000Y532500D03*
Y92500D03*
Y387500D03*
X973000Y993000D03*
X1110000Y827500D03*
X820000Y1780000D03*
X1000000Y1785000D03*
X775000Y2075000D03*
X845000Y2520000D03*
Y2780000D03*
X1059500Y3805000D03*
Y3715000D03*
X1140000Y4719500D03*
X1650000Y1290000D03*
Y1070000D03*
X1582400Y1133500D03*
Y1206500D03*
X1350000Y1910000D03*
X1380000Y1610000D03*
X1530000Y1910000D03*
X1387500Y3427400D03*
X1460500D03*
X1520000Y3600000D03*
X1228500Y3760000D03*
X1560000Y3910000D03*
X1700000D03*
Y4155500D03*
X1550000Y4310500D03*
X1400000Y4155500D03*
X1290000Y4121800D03*
X1264000Y4429500D03*
X1344000D03*
X1580000Y4834500D03*
X1690000D03*
X1470000D03*
X1360000D03*
X1580000Y5080000D03*
X1470000D03*
X1360000D03*
X1690000D03*
X1800000Y240000D03*
X1860000Y350000D03*
X1937700Y496500D03*
Y423500D03*
X1810000Y790000D03*
Y980000D03*
X1800000Y680000D03*
X1860000Y570000D03*
X2110000Y790000D03*
X1810000Y1470000D03*
X2035700Y1360000D03*
X2040000Y1470000D03*
X1910000Y2370000D03*
X1710000D03*
X2110000Y2290000D03*
X2046500Y2326900D03*
X1973500D03*
X1846500D03*
X1773500D03*
X1910000Y2500000D03*
X2060000Y3180000D03*
X2110000Y3335000D03*
X1710000Y3336000D03*
X1760000Y3180000D03*
X2024000Y3910500D03*
X1784000Y3609500D03*
X1810000Y4131800D03*
X1984000Y4429500D03*
X1800000Y4834500D03*
X1824000Y4430000D03*
X1910000Y4834500D03*
Y5080000D03*
X1800000Y5080100D03*
X2330000Y550000D03*
X2400000D03*
X2410000Y330000D03*
X2330000Y620000D03*
Y690000D03*
X2400000Y620000D03*
Y690000D03*
X2260000Y1430000D03*
X2350000Y1480000D03*
X2635000Y1255000D03*
X2490000Y1690000D03*
X2420000D03*
X2350000D03*
Y1620000D03*
Y1550000D03*
X2607500Y2592500D03*
X2550000Y2930000D03*
X2420000D03*
X2390000Y2740000D03*
Y2640000D03*
X2330000Y3360000D03*
X2275000Y2985000D03*
X2653500Y3760000D03*
X2565000Y3940000D03*
Y4719500D03*
X3105000Y325000D03*
X2890000Y390000D03*
X2730000D03*
X2773500Y489800D03*
X2846500D03*
X3040000Y1090000D03*
X3130000Y2440000D03*
X2865000Y2805000D03*
Y2585000D03*
X3140000Y3336000D03*
X2705000Y2985000D03*
X2812500Y3427400D03*
X2885500D03*
X2940000Y3590000D03*
X2975000Y3915000D03*
X3125000D03*
Y4155500D03*
X2975000Y4310500D03*
X2825000Y4155500D03*
X2715000Y4121800D03*
X2689000Y4429500D03*
X2769000D03*
X3005000Y4834500D03*
X3115000D03*
X2895000D03*
X2785000D03*
Y5080000D03*
X2895000D03*
X3005000D03*
X3115000D03*
X3290000Y740000D03*
Y670000D03*
Y600000D03*
X3220000Y740000D03*
X3150000D03*
X3610000Y830000D03*
X3290000Y1500000D03*
X3220000D03*
X3440000Y1240000D03*
X3450000Y1090000D03*
X3290000Y1640000D03*
X3220000D03*
Y1570000D03*
X3290000D03*
X3330000Y2440000D03*
X3530000Y2360000D03*
X3466500Y2400000D03*
X3393500D03*
X3266500D03*
X3193500D03*
X3490000Y3180000D03*
X3530000Y3335000D03*
X3190000Y3180000D03*
X3449000Y3910500D03*
X3209000Y3609500D03*
X3235000Y4131800D03*
X3409000Y4429500D03*
X3225000Y4834500D03*
X3335000D03*
X3249000Y4430000D03*
X3225000Y5080000D03*
X3335000D03*
X3890000Y710000D03*
X4002500Y725000D03*
X4075500D03*
X4028000Y1595000D03*
X3955000D03*
X4101000D03*
X3675000Y2465000D03*
X4090000Y2930000D03*
X3890000Y2980000D03*
X3909500Y3805000D03*
X4078500Y3760000D03*
X3909500Y3715000D03*
X3990000Y4719500D03*
X4221500Y725000D03*
X4367500D03*
X4440500D03*
X4565000Y1085000D03*
X4393000Y1595000D03*
X4466000D03*
X4320000D03*
X4174000D03*
X4247000D03*
X4550000Y2400000D03*
X4212500Y2592500D03*
X4220000Y2930000D03*
X4505000Y2815000D03*
Y2570000D03*
X4110000Y2740000D03*
Y2640000D03*
X4560000Y3336000D03*
X4345000Y3000000D03*
X4237500Y3427400D03*
X4310500D03*
X4362500Y3587500D03*
X4400000Y3910000D03*
X4550000D03*
Y4155500D03*
X4400000Y4310500D03*
X4250000Y4155500D03*
X4140000Y4121800D03*
X4114000Y4429500D03*
X4194000D03*
X4430000Y4834500D03*
X4540000D03*
X4320000D03*
X4210000D03*
X4430000Y5080000D03*
X4540000D03*
X4210000D03*
X4320000D03*
X4890000Y710000D03*
X4655000Y995000D03*
X5002500Y725000D03*
X4630000Y1400000D03*
Y1180000D03*
X5028000Y1595000D03*
X4955000D03*
X4950000Y2400000D03*
X4750000D03*
X4886500Y2362400D03*
X4813500D03*
X4686500D03*
X4613500D03*
X4910000Y3180000D03*
X4960000Y3335000D03*
X4610000Y3180000D03*
X4874000Y3910500D03*
X4634000Y3609500D03*
X4660000Y4131800D03*
X4834000Y4429500D03*
X4650000Y4834500D03*
X4760000D03*
X4674000Y4430000D03*
X4760000Y5080000D03*
X4650000D03*
X5530000Y1020000D03*
X5075500Y725000D03*
X5148500D03*
X5221500D03*
X5294500D03*
X5367500D03*
X5440500D03*
X5513500D03*
X5247000Y1595000D03*
X5320000D03*
X5393000D03*
X5466000D03*
X5101000D03*
X5174000D03*
X5334500Y3805000D03*
X5503500Y3760000D03*
X5334500Y3715000D03*
X5530000Y4380000D03*
X5415000Y4719500D03*
X5690000Y940000D03*
X6025000Y750000D03*
X5755000Y1325000D03*
X5715000Y1235000D03*
X5900000Y1530000D03*
X5980000Y2370000D03*
X5900000Y2520000D03*
X5980000Y3336000D03*
X5662500Y3427400D03*
X5735500D03*
X5814100Y3612900D03*
X5825000Y3916800D03*
X5975000Y3915000D03*
X5825000Y4310500D03*
X5675000Y4155500D03*
X5975000D03*
X5565000Y4121800D03*
X5619000Y4429500D03*
X5855000Y4834500D03*
X5965000D03*
X5745000D03*
X5635000D03*
X5745000Y5080000D03*
X5635000D03*
X5855000D03*
X5965000D03*
X6450000Y210000D03*
X6480000Y340000D03*
X6472500Y422500D03*
X6105000Y750000D03*
X6185000D03*
X6265000D03*
X6345000D03*
X6425000D03*
X6505000D03*
X6472500Y1570000D03*
X6072500D03*
X6152500D03*
X6312500D03*
X6392500D03*
X6232500D03*
X6180000Y2450000D03*
X6380000Y2370000D03*
X6316500Y2412400D03*
X6243500D03*
X6116500D03*
X6043500D03*
X6472500Y2592500D03*
X6510000Y2750000D03*
Y2670000D03*
X6380000Y2760000D03*
X6410000Y2680000D03*
X6340000Y3180000D03*
X6285000Y3020000D03*
X6390000Y3335000D03*
X6040000Y3180000D03*
X6195000Y3020000D03*
X6299000Y3910500D03*
X6059000Y3609500D03*
X6085000Y4131800D03*
X6259000Y4429500D03*
X6075000Y4834500D03*
X6099000Y4430000D03*
X6185000Y4834500D03*
X6075000Y5080000D03*
X6185000D03*
X6790000Y200000D03*
X6910000Y190000D03*
X6790000Y610000D03*
X6910000Y615500D03*
X6585000Y750000D03*
X6632500Y1570000D03*
X6552500D03*
X6535000Y3005000D03*
X6625000D03*
X7170000Y500000D03*
X7250000Y255000D03*
X7240000Y357500D03*
X7320000Y390000D03*
X7240000Y2520000D03*
X7229500Y3805000D03*
X7398500Y3760000D03*
X7229500Y3715000D03*
X7460000Y4121800D03*
X7434000Y4429500D03*
X7310000Y4719500D03*
X7915900Y261900D03*
X7600000Y510000D03*
X7915900Y388900D03*
Y769900D03*
Y642900D03*
Y1391100D03*
Y1137100D03*
X7943500Y2482400D03*
X7820000Y2930000D03*
X7680000D03*
X7872500Y2512600D03*
X7840000Y2740000D03*
Y2640000D03*
X7680000Y2740000D03*
Y2640000D03*
X7866300Y3336000D03*
X7930000Y3180000D03*
X7545000Y2985000D03*
X7557500Y3427400D03*
X7630500D03*
X7714000Y3624000D03*
X7954000Y3609500D03*
X7720000Y3916800D03*
X7870000Y3910000D03*
Y4155500D03*
X7720000Y4310500D03*
X7570000Y4155500D03*
X7514000Y4429500D03*
X7750000Y4834500D03*
X7640000D03*
X7860000D03*
X7530000D03*
Y5075700D03*
X7640000D03*
X7750000D03*
X7860000D03*
X8042900Y388900D03*
X8169900D03*
X8296900Y261900D03*
X8423900D03*
X8042900Y642900D03*
X8169900D03*
X8296900Y769900D03*
X8423900D03*
X8042900Y1010100D03*
X8423900D03*
X8296900D03*
Y1391100D03*
X8423900D03*
Y1137100D03*
X8169900Y1518100D03*
X8423900D03*
X8296900D03*
X8169900Y1137100D03*
X8042900D03*
Y1264100D03*
X8216500Y2482400D03*
X8143500D03*
X8016500D03*
X8080000Y2520000D03*
X8280000D03*
X8320000Y2930000D03*
X8230000Y3180000D03*
X8292700Y3335000D03*
X7975000Y2995000D03*
X8194000Y3910500D03*
X7980000Y4131800D03*
X8154000Y4429500D03*
X7970000Y4834500D03*
X8080000D03*
X7994000Y4430000D03*
X7970000Y5075700D03*
X8080000D03*
X8550900Y388900D03*
X8677900D03*
X8804900Y261900D03*
Y515900D03*
X8550900Y642900D03*
X8677900D03*
X8797500Y762500D03*
X8550900Y1010100D03*
X8804900Y642900D03*
X8550900Y1264100D03*
Y1518100D03*
X8801000Y1141000D03*
X8677900Y1137100D03*
X8804900Y1264100D03*
X8550900Y1137100D03*
X8677900Y1264100D03*
X8860000Y2490000D03*
X8545000Y2780000D03*
X8634500Y2930000D03*
X8639800Y2810000D03*
X8630000Y2640000D03*
X8479300Y3080000D03*
X8699300D03*
X8827500Y3203000D03*
X8892500Y3270000D03*
X8664300Y3805000D03*
X8823500Y3760000D03*
X8765000Y3685000D03*
X8885000Y4121800D03*
X8859000Y4429500D03*
X8735000Y4719500D03*
X8931900Y261900D03*
X9058900Y388900D03*
X9185900D03*
X9312900Y261900D03*
X8931900Y515900D03*
X9185900D03*
X9058900D03*
X9312900Y1010100D03*
X9185900Y769900D03*
X9058900Y642900D03*
X8928000Y1014000D03*
X8931900Y642900D03*
X9074500Y785500D03*
X9185900Y1010100D03*
X8946000Y784000D03*
X9058900Y1010100D03*
X9312900Y769900D03*
X8931900Y1518100D03*
X9185900Y1137100D03*
X9312900Y1518100D03*
X9299100Y1391100D03*
X9185900Y1264100D03*
X9058900D03*
X9290000Y2440000D03*
X9010000Y2490000D03*
X9363500Y2422400D03*
X9100000Y2640000D03*
X9085500Y2930000D03*
X9090000Y2810000D03*
X9291300Y3336000D03*
X9344300Y3180000D03*
X9110000Y3035000D03*
X8957500Y3203000D03*
X9139000Y3624000D03*
X9379000Y3609500D03*
X9145000Y3915000D03*
X9295000D03*
X8982500Y3527400D03*
X9055500D03*
X8995000Y4155500D03*
X9145000Y4310500D03*
X9295000Y4155500D03*
X8939000Y4429500D03*
X9175000Y4834500D03*
X9065000D03*
X9285000D03*
X9395000D03*
X8955000D03*
Y5075700D03*
X9175000D03*
X9065000D03*
X9285000D03*
X9395000D03*
X9439900Y261900D03*
Y515900D03*
X9566900Y388900D03*
X9693900D03*
X9820900Y261900D03*
Y515900D03*
X9693900D03*
X9566900D03*
X9693900Y1010100D03*
X9439900Y642900D03*
X9566900Y769900D03*
X9820900Y642900D03*
X9693900D03*
X9566900D03*
X9439900Y769900D03*
X9566900Y1010100D03*
X9553100Y896900D03*
X9820900Y1010100D03*
X9566900Y1137100D03*
X9693900Y1264100D03*
X9820900Y1137100D03*
X9566900Y1264100D03*
X9820900D03*
X9693900Y1137100D03*
X9439900Y1264100D03*
X9570000Y1390000D03*
X9810000Y1540000D03*
X9878900Y1753500D03*
X9827200Y1701800D03*
X9680000Y1660000D03*
X9500000Y2460000D03*
X9690000Y2360000D03*
X9636500Y2422400D03*
X9563500D03*
X9436500D03*
X9840000Y2920000D03*
X9665700Y3180000D03*
X9717700Y3335000D03*
X9619000Y3910500D03*
X9405000Y4131800D03*
X9421300Y4379000D03*
X9579000Y4429500D03*
X9505000Y4834500D03*
Y5075700D03*
X9947900Y261900D03*
Y515900D03*
X10074900Y388900D03*
X10201900D03*
X10328900Y261900D03*
Y515900D03*
X10201900D03*
X10074900D03*
Y1010100D03*
X9947900Y769900D03*
X10201900Y642900D03*
X10328900Y769900D03*
X9947900Y1010100D03*
Y1137100D03*
X10328900D03*
Y1391100D03*
X10049500Y1289500D03*
X9947900Y1264100D03*
X10328900D03*
X10201900D03*
Y1137100D03*
X10074900D03*
X9941500Y1398500D03*
X10070000Y1530000D03*
X10200000Y2480000D03*
X10310000D03*
X9965000Y2770000D03*
X10054500Y2930000D03*
X10059800Y2810000D03*
X10050000Y2640000D03*
X9890000Y3070000D03*
X10119300Y3080000D03*
X10247500Y3203000D03*
X10320000Y3270000D03*
X10079500Y3805000D03*
X10248500Y3760000D03*
X10079500Y3715000D03*
X10310000Y4121800D03*
X10284000Y4439300D03*
X10160000Y4719500D03*
X10569100Y261900D03*
Y515900D03*
X10823100D03*
X10696100D03*
X10569100Y1010100D03*
X10696100Y642900D03*
X10569100D03*
X10442100D03*
X10569100Y1264100D03*
Y1518100D03*
X10823100Y1137100D03*
Y1391100D03*
Y1264100D03*
X10696100D03*
X10740000Y2460000D03*
X10803500Y2422400D03*
X10430000Y2500000D03*
X10505500Y2930000D03*
X10510000Y2810000D03*
X10716300Y3336000D03*
X10832500Y3066800D03*
X10530000Y3035000D03*
X10377500Y3203000D03*
X10407500Y3367400D03*
X10480500D03*
X10540000Y3590000D03*
X10804000Y3580000D03*
X10570000Y3910000D03*
X10720000D03*
Y4155500D03*
X10570000Y4310500D03*
X10420000Y4155500D03*
X10830000Y4131800D03*
X10364000Y4439300D03*
X10600000Y4834500D03*
X10490000D03*
X10710000D03*
X10820000D03*
X10380000D03*
Y5075700D03*
X10490000D03*
X10600000D03*
X10710000D03*
X10820000D03*
X10950100Y261900D03*
Y515900D03*
X11077100Y261900D03*
Y515900D03*
X10950100Y1010100D03*
X11077100Y642900D03*
X11204100Y769900D03*
Y642900D03*
Y1137100D03*
Y1264100D03*
X11077100D03*
X11090900Y1518100D03*
X10963900D03*
X11274500Y1540000D03*
X10940000Y2460000D03*
X11140000D03*
X11076500Y2422400D03*
X11003500D03*
X10876500D03*
X11090700Y3180000D03*
X11142700Y3335000D03*
X11300000Y3040000D03*
X11044000Y3900700D03*
X11004000Y4439300D03*
X10930000Y4834500D03*
X10844000Y4438000D03*
X10930000Y5075700D03*
X11458100Y261900D03*
X11585100D03*
Y515900D03*
X11712100Y388900D03*
Y515900D03*
X11331100Y1010100D03*
X11712100D03*
X11585100Y769900D03*
X11458100Y1010100D03*
X11585100D03*
X11712100Y642900D03*
X11458100Y769900D03*
X11331100D03*
X11712100D03*
X11585100Y1137100D03*
X11712100Y1264100D03*
Y1518100D03*
X11585100Y1391100D03*
Y1264100D03*
X11458100D03*
X11712100Y1137100D03*
Y1391100D03*
X11405000Y2780000D03*
X11494500D03*
X11490000Y2640000D03*
X11670000Y2520000D03*
X11760000D03*
X11410000Y3135500D03*
X11490000Y3000000D03*
X11559300Y3080000D03*
X11687500Y3203000D03*
X11752500Y3280000D03*
X11504500Y3805000D03*
X11749000Y3619300D03*
X11504500Y3715000D03*
X11735000Y4121800D03*
X11585000Y4719500D03*
X11709000Y4429500D03*
X11789000D03*
X11805000Y4834500D03*
Y5075700D03*
X11839100Y388900D03*
X11966100Y261900D03*
Y515900D03*
X12093100Y261900D03*
Y515900D03*
X12220100Y388900D03*
X11839100Y515900D03*
X12220100D03*
X11966100Y769900D03*
X12093100Y1010100D03*
X11966100Y642900D03*
X11839100D03*
Y1010100D03*
X11966100D03*
X11839100Y769900D03*
X12093100Y1518100D03*
Y1264100D03*
X11966100Y1391100D03*
Y1137100D03*
X12220100D03*
X12093100D03*
X11966100Y1518100D03*
X11839100D03*
Y1391100D03*
X12220100Y1518100D03*
X12093100Y1391100D03*
X12220100D03*
X12170000Y2480000D03*
X12223500Y2422400D03*
X11960000Y2640000D03*
X11945500Y2930000D03*
Y2780000D03*
X12141300Y3336000D03*
X12194300Y3180000D03*
X11970000Y3035000D03*
X11820200Y3200200D03*
X11832500Y3427400D03*
X11905500D03*
X11989000Y3624000D03*
X12229000Y3609500D03*
X11995000Y3915000D03*
X12145000D03*
X11995000Y4310500D03*
X12145000Y4155500D03*
X11845000D03*
X12255000Y4131800D03*
X12025000Y4834500D03*
X11915000D03*
X12135000D03*
X12245000D03*
X12269000Y4430000D03*
X11915000Y5075700D03*
X12025000D03*
X12135000D03*
X12245000D03*
X12347100Y388900D03*
X12474100Y261900D03*
Y515900D03*
X12601100Y261900D03*
X12728100Y388900D03*
Y515900D03*
X12347100D03*
X12601100D03*
X12728100Y769900D03*
X12347100D03*
X12601100Y642900D03*
X12347100D03*
X12474100D03*
X12728100D03*
X12347100Y1137100D03*
X12474100Y1264100D03*
Y1518100D03*
X12601100Y1137100D03*
Y1264100D03*
X12474100Y1137100D03*
X12728100Y1518100D03*
X12601100D03*
X12347100D03*
X12360000Y2470000D03*
X12550000Y2480000D03*
X12496500Y2422400D03*
X12423500D03*
X12296500D03*
X12644500Y2710000D03*
X12640000Y2965000D03*
X12730000Y3135500D03*
X12515700Y3180000D03*
X12567700Y3335000D03*
X12469000Y3900700D03*
X12429000Y4429500D03*
X12355000Y4834500D03*
Y5075700D03*
X12982100Y515900D03*
X12855100Y388900D03*
X12982100Y261900D03*
X13140000Y560000D03*
X13215000D03*
X12855100Y515900D03*
Y642900D03*
X12982100Y769900D03*
X12855100Y1010100D03*
X12982100D03*
X12855100Y769900D03*
X12982100Y642900D03*
Y1137100D03*
Y1391100D03*
X12855100Y1518100D03*
X12982100Y1264100D03*
X12855100Y1137100D03*
X13200000Y1920000D03*
Y1850000D03*
Y1780000D03*
Y1710000D03*
Y2480000D03*
X13070000Y2120000D03*
X12814500Y2790000D03*
X12830000Y2640000D03*
X12998500Y2500000D03*
X13080500D03*
X12817500Y3017500D03*
X12820000Y3080000D03*
X13007500Y3203000D03*
X13072500Y3290000D03*
X13137500Y3203000D03*
X13219500Y3890000D03*
Y4250000D03*
X12940000Y5280000D03*
X13190000Y5090000D03*
X13090000Y5220000D03*
X13240000Y5030000D03*
X13140000Y5160000D03*
X12950000Y5635000D03*
Y5545000D03*
X12955000Y5425000D03*
X12960000Y6270000D03*
X13040000Y5870000D03*
X13120000Y5920000D03*
X13195000Y5875000D03*
X13660000Y110000D03*
Y185000D03*
Y260000D03*
Y560000D03*
X13290000D03*
X13365000D03*
X13440000D03*
X13515000D03*
X13660000Y635000D03*
X13290000D03*
X13365000D03*
X13440000D03*
X13515000D03*
X13575000Y2005000D03*
X13590000Y1700000D03*
X13370000Y1920000D03*
Y1850000D03*
Y1780000D03*
Y1710000D03*
X13700000Y1700000D03*
X13500000Y2350000D03*
X13340000Y2010000D03*
X13420000Y2680000D03*
X13255700Y2950000D03*
X13260000Y2860000D03*
X13255700Y2790000D03*
X13720000Y2640000D03*
X13420000Y3060000D03*
X13600000D03*
X13260000Y3035000D03*
X13330000Y3464300D03*
X13380000Y3720000D03*
X13510000Y3464300D03*
X13374500Y4040000D03*
Y4400000D03*
X13350000Y4130000D03*
X13480000Y5160000D03*
X13380000Y5030000D03*
X13530000Y5220000D03*
X13430000Y5090000D03*
X13548100Y5820000D03*
X13260000Y5920000D03*
X13332500Y6000000D03*
X13392500Y5940000D03*
X13470000Y5880000D03*
X13735000Y110000D03*
X13810000D03*
X13735000Y185000D03*
X13810000D03*
X13735000Y260000D03*
X13810000D03*
Y335000D03*
Y410000D03*
Y485000D03*
X13735000Y560000D03*
X13810000D03*
X13735000Y635000D03*
X13810000D03*
Y1820000D03*
Y2350000D03*
X13790000Y3040000D03*
X13780000Y5060000D03*
G54D12*
X1130000Y2516000D03*
Y2770000D03*
Y3024000D03*
X13730000Y3773000D03*
Y3519000D03*
Y4027000D03*
Y4281000D03*
G54D13*
X932500Y4010000D03*
Y4510000D03*
Y4980000D03*
X1645000Y3550000D03*
X2125000D03*
X2357500Y4980000D03*
X3070000Y3550000D03*
X3550000D03*
X3782500Y3760000D03*
Y4760000D03*
Y5760000D03*
Y6760000D03*
X4495000Y3550000D03*
X4975000D03*
X5207500Y4010000D03*
Y4510000D03*
Y4980000D03*
X5920000Y3550000D03*
X6400000D03*
X6632500Y4980000D03*
X7097500Y4010000D03*
Y4510000D03*
Y4980000D03*
X7810000Y3550000D03*
X8290000D03*
X8522500Y4980000D03*
X9235000Y3550000D03*
X9715000D03*
X9947500Y3760000D03*
Y4760000D03*
Y5760000D03*
Y6760000D03*
X10660000Y3550000D03*
X11140000D03*
X11372500Y4010000D03*
Y4510000D03*
Y4980000D03*
X12085000Y3550000D03*
X12565000D03*
X12797500Y4980000D03*
G54D14*
X1164000Y4170000D03*
X2124000D03*
X2589000D03*
X3549000D03*
X4014000D03*
X4974000D03*
X5439000D03*
X6399000D03*
X7334000D03*
X8294000D03*
X8759000D03*
X9719000D03*
X10184000D03*
X11144000D03*
X11609000D03*
X12569000D03*
G54D15*
X932500Y5260000D03*
X1250000Y5760000D03*
X932500Y6260000D03*
Y7260000D03*
X1500000D03*
X1790000Y5760000D03*
X2357500Y3760000D03*
Y4760000D03*
Y5760000D03*
X2675000D03*
X2357500Y6760000D03*
X3215000Y5760000D03*
X2925000Y7260000D03*
X4100000Y5760000D03*
X4640000D03*
X4350000Y7260000D03*
X5207500Y5260000D03*
X5525000Y5760000D03*
X5207500Y6260000D03*
Y7260000D03*
X6065000Y5760000D03*
X5775000Y7260000D03*
X6632500Y3760000D03*
Y4760000D03*
Y5760000D03*
Y6760000D03*
X7097500Y5260000D03*
X7415000Y5760000D03*
X7097500Y6260000D03*
Y7260000D03*
X7955000Y5760000D03*
X7665000Y7260000D03*
X8522500Y3760000D03*
Y4760000D03*
Y5760000D03*
Y6760000D03*
X8840000Y5760000D03*
X9380000D03*
X9090000Y7260000D03*
X10265000Y5760000D03*
X10805000D03*
X10515000Y7260000D03*
X11372500Y5260000D03*
Y6260000D03*
Y7260000D03*
X11690000Y5760000D03*
X12230000D03*
X11940000Y7260000D03*
X12797500Y3760000D03*
Y4760000D03*
Y5760000D03*
Y6760000D03*
G54D16*
G01X13627000Y3773000D02*
X13730000D01*
G01X13652100Y3695100D02*
X13730000Y3773000D01*
G01X13652100Y3850900D02*
X13730000Y3773000D01*
G01X13440000Y4778100D02*
Y4866000D01*
G01D02*
Y4953900D01*
G01X13352100Y4866000D02*
X13440000D01*
G01X13372700Y4798700D02*
X13440000Y4866000D01*
G01D02*
X13507300Y4933300D01*
G01X13372700D02*
X13440000Y4866000D01*
G01D02*
X13507300Y4798700D01*
G01X13730000Y3670000D02*
Y3773000D01*
G01D02*
Y3876000D01*
G01Y3773000D02*
X13807900Y3850900D01*
G01X13730000Y3773000D02*
X13807900Y3695100D01*
X3940000Y1160000D03*
X4320000D03*
X4130000Y1082500D03*
Y1237500D03*
X4940000Y1160000D03*
X5320000D03*
X5130000Y1082500D03*
Y1237500D03*
X6010000Y1160000D03*
X6390000D03*
X6200000Y1237500D03*
Y1082500D03*
X13120000Y5520000D03*
X13500000D03*
X13310000Y5597500D03*
Y5442500D03*
G54D17*
X7730000Y890000D03*
X13168000Y1195000D03*
G54D18*
X13440000Y4866000D03*
G54D19*
X13820000Y2640000D03*
M02*
