M48
METRIC
T01C.203
T02C.3
T03C.406
T04C.813
T05C.95
T06C1.
T07C1.05
T08C2.7
T09C1.3
T10C1.55
;LEADER: 12 
;HEADER: 
;CODE  : ASCII 
;FILE  : pc065d_fibv2a_toplevel_29-1-8.drl for  ... layers TOP and BOTTOM
;DESIGN: pc065d_fibv2a_toplevel_29.brd
;T01 Holesize 1. = 0.203000 Tolerance = +0.000000/-0.000000 PLATED MM Quantity = 16
;T02 Holesize 2. = 0.300000 Tolerance = +0.000000/-0.000000 PLATED MM Quantity = 911
;T03 Holesize 3. = 0.406000 Tolerance = +0.000000/-0.000000 PLATED MM Quantity = 1
;T04 Holesize 4. = 0.813000 Tolerance = +0.000000/-0.000000 PLATED MM Quantity = 1
;T05 Holesize 5. = 0.950000 Tolerance = +0.050000/-0.050000 PLATED MM Quantity = 40
;T06 Holesize 6. = 1.000000 Tolerance = +0.000000/-0.000000 PLATED MM Quantity = 7
;T07 Holesize 7. = 1.050000 Tolerance = +0.050000/-0.050000 PLATED MM Quantity = 52
;T08 Holesize 8. = 2.700000 Tolerance = +0.000000/-0.000000 PLATED MM Quantity = 5
;T09 Holesize 9. = 1.300000 Tolerance = +0.000000/-0.000000 NON_PLATED MM Quantity = 2
;T10 Holesize 10. = 1.550000 Tolerance = +0.000000/-0.000000 NON_PLATED MM Quantity = 16
%
G90
T01
X13310000Y05442500
X13310000Y05597500
X13120000Y05520000
X13500000Y05520000
X04130000Y01237500
X04130000Y01082500
X03940000Y01160000
X04320000Y01160000
X05130000Y01237500
X05130000Y01082500
X04940000Y01160000
X05320000Y01160000
X06200000Y01082500
X06200000Y01237500
X06010000Y01160000
X06390000Y01160000
T02
X12220100Y01391100
X06585000Y00750000
X06505000Y00750000
X12347100Y01518100
X11839100Y00769900
X06425000Y00750000
X11966100Y01010100
X06345000Y00750000
X06265000Y00750000
X12093100Y01391100
X12220100Y01518100
X06185000Y00750000
X11712100Y00769900
X06105000Y00750000
X11839100Y01010100
X06025000Y00750000
X09820900Y01010100
X04440500Y00725000
X04367500Y00725000
X09553100Y00896900
X04221500Y00725000
X09312900Y00769900
X09058900Y01010100
X04075500Y00725000
X08946000Y00784000
X04002500Y00725000
X09947900Y01010100
X05513500Y00725000
X09941500Y01398500
X05440500Y00725000
X09680000Y01660000
X05367500Y00725000
X09566900Y01010100
X05294500Y00725000
X09570000Y01390000
X05221500Y00725000
X09439900Y00769900
X05148500Y00725000
X09185900Y01010100
X05075500Y00725000
X09074500Y00785500
X05002500Y00725000
X04247000Y01595000
R02X-00073000
X03955000Y01595000
X11760000Y02520000
X10074900Y01137100
X10201900Y01137100
X11670000Y02520000
X11331100Y00769900
X13140000Y05160000
X06232500Y01570000
X04674000Y04430000
X11712100Y01391100
X13240000Y05030000
X11458100Y00769900
X13430000Y05090000
X06552500Y01570000
X10844000Y04438000
X13530000Y05220000
X11839100Y01391100
X13548100Y05820000
X13470000Y05880000
X13392500Y05940000
X13332500Y06000000
X13260000Y05920000
X13195000Y05875000
X13120000Y05920000
X13040000Y05870000
X11839100Y00642900
X11712100Y00642900
X12347100Y00642900
X11905500Y03427400
X12601100Y01518100
X10480500Y03367400
X10963900Y01518100
X10696100Y00515900
X09055500Y03527400
X07630500Y03427400
X10442100Y00642900
X11832500Y03427400
X12728100Y01518100
X10823100Y00515900
X08982500Y03527400
X07557500Y03427400
X10569100Y00642900
X01937700Y00423500
X01937700Y00496500
X05174000Y01595000
X04955000Y01595000
X13380000Y05030000
X11585100Y01010100
X06392500Y01570000
X07994000Y04430000
X13700000Y01700000
X11458100Y01010100
X13090000Y05220000
X06312500Y01570000
X06099000Y04430000
X06152500Y01570000
X03249000Y04430000
X06072500Y01570000
X01824000Y04430000
X11839100Y01518100
X13190000Y05090000
X06632500Y01570000
X12269000Y04430000
X06472500Y01570000
X09421300Y04379000
X13480000Y05160000
X11966100Y01518100
X04028000Y01595000
X05101000Y01595000
X05028000Y01595000
X04320000Y01595000
X05466000Y01595000
R03X-00073000
X04466000Y01595000
X04393000Y01595000
X10407500Y03367400
X11090900Y01518100
X08296900Y01010100
X01460500Y03427400
X08423900Y01010100
X01387500Y03427400
X07320000Y00390000
X07240000Y00357500
X12855100Y01137100
X07870000Y03910000
X09295000Y03915000
X10720000Y03910000
X12145000Y03915000
X05975000Y03915000
X04550000Y03910000
X03125000Y03915000
X07720000Y03916800
X09145000Y03915000
X10570000Y03910000
X11995000Y03915000
X05825000Y03916800
X04400000Y03910000
X02975000Y03915000
X07680000Y02640000
X06410000Y02680000
X04110000Y02640000
X07680000Y02740000
X06380000Y02760000
X04110000Y02740000
X09827200Y01701800
X05735500Y03427400
X04613500Y02362400
X02865000Y02585000
X03193500Y02400000
X13080500Y02500000
X02110000Y00790000
X07840000Y02640000
X04310500Y03427400
X08804900Y00642900
X01773500Y02326900
X02040000Y01470000
X02885500Y03427400
X08550900Y01137100
X02035700Y01360000
X12223500Y02422400
X10803500Y02422400
X09363500Y02422400
X07943500Y02482400
X04505000Y02570000
X06043500Y02412400
X06510000Y02670000
X09878900Y01753500
X05662500Y03427400
X04686500Y02362400
X02865000Y02805000
X03266500Y02400000
X12998500Y02500000
X07840000Y02740000
X04237500Y03427400
X08931900Y00642900
X01846500Y02326900
X02812500Y03427400
X08677900Y01137100
X12296500Y02422400
X10876500Y02422400
X09436500Y02422400
X08016500Y02482400
X04505000Y02815000
X06116500Y02412400
X06510000Y02750000
X02846500Y00489800
X08042900Y01137100
X02773500Y00489800
X08169900Y01137100
X13720000Y02640000
X04565000Y01085000
X05530000Y01020000
X03610000Y00830000
X02635000Y01255000
X12955000Y05425000
X12830000Y02640000
X11970000Y03035000
X10530000Y03035000
X09110000Y03035000
X07975000Y02995000
X07240000Y02520000
X06625000Y03005000
X05900000Y02520000
X04345000Y03000000
X03675000Y02465000
X02705000Y02985000
X01910000Y02500000
X13350000Y04130000
X13260000Y03035000
X13260000Y02860000
X13200000Y01710000
X13370000Y01710000
X13370000Y01780000
R02Y00070000
X13200000Y01780000
R02Y00070000
X13515000Y00635000
R03X-00075000
X13515000Y00560000
R05X-00075000
X01700000Y03910000
X01560000Y03910000
X02390000Y02640000
X02390000Y02740000
X03450000Y01090000
X04630000Y01180000
X05715000Y01235000
X06790000Y00610000
X12950000Y05545000
X06195000Y03020000
X03890000Y02980000
X02275000Y02985000
X07545000Y02985000
X00140000Y01600000
X01530000Y01910000
X07600000Y00510000
X13340000Y02010000
X00845000Y02780000
X00845000Y02520000
X13660000Y00635000
X13660000Y00560000
X13810000Y00635000
X13735000Y00635000
X13810000Y00560000
X13735000Y00560000
X13810000Y00485000
R03Y-00075000
X13735000Y00260000
X13660000Y00260000
X13810000Y00185000
R02X-00075000
X13810000Y00110000
R02X-00075000
X08765000Y03685000
X04760000Y05080000
X04540000Y05080000
X04430000Y05080000
X02330000Y03360000
X00530000Y02590000
X13510000Y03464300
X13600000Y03060000
X06472500Y00422500
X00775000Y02075000
X06480000Y00340000
X00595000Y02075000
X12423500Y02422400
X11003500Y02422400
X09563500Y02422400
X08143500Y02482400
X06243500Y02412400
X04813500Y02362400
X03393500Y02400000
X01973500Y02326900
X12496500Y02422400
X11076500Y02422400
X09636500Y02422400
X08216500Y02482400
X06316500Y02412400
X04886500Y02362400
X03466500Y02400000
X02046500Y02326900
X08296900Y01518100
X01582400Y01206500
X08423900Y01518100
X01582400Y01133500
X02350000Y01480000
R03Y00070000
X02420000Y01690000
X02490000Y01690000
X03150000Y00740000
X03220000Y00740000
X03290000Y00600000
R02Y00070000
X01650000Y01070000
X01650000Y01290000
X01860000Y00350000
X01860000Y00570000
X02730000Y00390000
X02890000Y00390000
X04655000Y00995000
X12550000Y02480000
X12170000Y02480000
X12360000Y02470000
X11140000Y02460000
X10740000Y02460000
X10940000Y02460000
X09690000Y02360000
X09290000Y02440000
X09500000Y02460000
X08280000Y02520000
X08080000Y02520000
X06380000Y02370000
X06180000Y02450000
X05980000Y02370000
X04750000Y02400000
X04950000Y02400000
X04550000Y02400000
X03530000Y02360000
X03330000Y02440000
X03130000Y02440000
X02110000Y02290000
X01710000Y02370000
X01910000Y02370000
X03440000Y01240000
X04630000Y01400000
X04890000Y00710000
X03890000Y00710000
X08169900Y01518100
X05690000Y00940000
X05755000Y01325000
X05900000Y01530000
X06450000Y00210000
X07250000Y00255000
X10049500Y01289500
X08928000Y01014000
X09058900Y00642900
X08931900Y00515900
X08804900Y00515900
X08801000Y01141000
X13780000Y05060000
X12940000Y05280000
X12950000Y05635000
X12960000Y06270000
X09299100Y01391100
X10696100Y00642900
X12093100Y01010100
X11966100Y01137100
X11966100Y01391100
X11585100Y01391100
X08550900Y01010100
X08042900Y01010100
X08423900Y01137100
X02410000Y00330000
X02400000Y00690000
X02400000Y00550000
X02400000Y00620000
X02330000Y00690000
R02Y-00070000
X03220000Y01500000
X03290000Y01500000
X03290000Y01570000
X03220000Y01570000
X03220000Y01640000
X03290000Y01640000
X13575000Y02005000
X01800000Y00240000
X01800000Y00680000
X01110000Y00827500
X01110000Y00387500
X01110000Y00092500
X01110000Y00532500
X01380000Y01610000
X00590000Y01880000
X06535000Y03005000
X06285000Y03020000
X04220000Y02930000
X04090000Y02930000
X02420000Y02930000
X02550000Y02930000
X02607500Y02592500
X04212500Y02592500
X06472500Y02592500
X07872500Y02512600
X07680000Y02930000
X07820000Y02930000
X01000000Y01785000
X00820000Y01780000
X00480000Y01600000
X01350000Y01910000
X02260000Y01430000
X03105000Y00325000
X03040000Y01090000
X13070000Y02120000
X13420000Y02680000
X13420000Y03060000
X13790000Y03040000
X07915900Y01137100
X12093100Y01264100
X01810000Y01470000
X00973000Y00993000
X11989000Y03624000
X07714000Y03624000
X09139000Y03624000
X02940000Y03590000
X05814100Y03612900
X13810000Y02350000
X04362500Y03587500
X10540000Y03590000
X00270000Y01930000
X01520000Y03600000
X02565000Y03940000
X08664300Y03805000
X04910000Y03180000
X01810000Y00980000
X01810000Y00790000
X00400000Y02600000
X13219500Y04250000
X00130000Y02090000
X01059500Y03715000
X01059500Y03805000
X01140000Y04719500
X01700000Y04155500
X01550000Y04310500
X01400000Y04155500
X13330000Y03464300
X13219500Y03890000
X02565000Y04719500
X03125000Y04155500
X02975000Y04310500
X02825000Y04155500
X03909500Y03715000
X03909500Y03805000
X03990000Y04719500
X04550000Y04155500
X04400000Y04310500
X04250000Y04155500
X05334500Y03715000
X05334500Y03805000
X05415000Y04719500
X05975000Y04155500
X05825000Y04310500
X05675000Y04155500
X11504500Y03715000
X11504500Y03805000
X11585000Y04719500
X12145000Y04155500
X11995000Y04310500
X11845000Y04155500
X10079500Y03715000
X10079500Y03805000
X10160000Y04719500
X10720000Y04155500
X10570000Y04310500
X10420000Y04155500
X08735000Y04719500
X09295000Y04155500
X09145000Y04310500
X08995000Y04155500
X07229500Y03715000
X07229500Y03805000
X07310000Y04719500
X07870000Y04155500
X07720000Y04310500
X07570000Y04155500
X08545000Y02780000
X08320000Y02930000
X08479300Y03080000
X09965000Y02770000
X09840000Y02920000
X09890000Y03070000
X11405000Y02780000
X11300000Y03040000
X11410000Y03135500
X12644500Y02710000
X12640000Y02965000
X12730000Y03135500
X00660000Y02267000
X00660000Y02513000
X00266500Y03053000
R02X00127000
X00139500Y02267000
X00266500Y02267000
X00139500Y03053000
X07170000Y00500000
X08957500Y03203000
X08892500Y03270000
X08827500Y03203000
X09010000Y02490000
X08860000Y02490000
X08630000Y02640000
X08699300Y03080000
X09100000Y02640000
X10377500Y03203000
X10320000Y03270000
X10247500Y03203000
X10310000Y02480000
X10200000Y02480000
X10050000Y02640000
X10119300Y03080000
X10430000Y02500000
X11820200Y03200200
X11752500Y03280000
X11687500Y03203000
X11490000Y02640000
X11559300Y03080000
X11960000Y02640000
X13137500Y03203000
X13072500Y03290000
X13007500Y03203000
X12820000Y03080000
X13200000Y02480000
X12982100Y00642900
X12855100Y00515900
X12728100Y00642900
X12474100Y00642900
X12220100Y00515900
X07915900Y00642900
X11966100Y00642900
X07915900Y00388900
X11839100Y00515900
X11712100Y00515900
X12855100Y00769900
X12982100Y01264100
X12982100Y01010100
X08042900Y01264100
X12601100Y00515900
X12347100Y00515900
X09566900Y00642900
X09439900Y01264100
X09058900Y00515900
X09058900Y01264100
X12474100Y01137100
X12601100Y01264100
X12093100Y01137100
X08677900Y01264100
X11712100Y01137100
X11204100Y00642900
X11458100Y01264100
R02X-00381000
X10201900Y01264100
X10074900Y00515900
X09693900Y01137100
X09820900Y01264100
X09566900Y00515900
X09693900Y00642900
X09566900Y01264100
X09185900Y00515900
X09185900Y01264100
X12601100Y01137100
X12220100Y01137100
X08804900Y01264100
X11585100Y01264100
X11204100Y01264100
X10823100Y01264100
X10328900Y01264100
X10201900Y00515900
X09820900Y01137100
X09947900Y01264100
X09693900Y00515900
X12982100Y00261900
X12855100Y00388900
X12728100Y00515900
X12728100Y00388900
X12601100Y00642900
X12601100Y00261900
X12474100Y00515900
X12474100Y00261900
X12347100Y00769900
X12347100Y00388900
X12220100Y00388900
X12093100Y00515900
X12093100Y00261900
X11966100Y00769900
R02Y-00254000
X11839100Y00388900
X11712100Y00388900
X11585100Y00769900
R02Y-00254000
X11458100Y00261900
X11204100Y00769900
X11077100Y00642900
X11077100Y00515900
X11077100Y00261900
X10950100Y00515900
X10950100Y00261900
X10569100Y00515900
X10569100Y00261900
X10328900Y00769900
R02Y-00254000
X10201900Y00642900
X10201900Y00388900
X10074900Y00388900
X09947900Y00769900
R02Y-00254000
X09820900Y00642900
X09820900Y00515900
X09820900Y00261900
X09693900Y00388900
X09566900Y00769900
X09566900Y00388900
X09439900Y00642900
X09439900Y00515900
X09439900Y00261900
X09312900Y00261900
X09185900Y00769900
X09185900Y00388900
X09058900Y00388900
X08931900Y00261900
X08797500Y00762500
X08804900Y00261900
X08677900Y00642900
X08677900Y00388900
X08550900Y00642900
X08550900Y00388900
X08423900Y00769900
X08423900Y00261900
X08296900Y00261900
X08169900Y00388900
X08042900Y00388900
X07915900Y00261900
X07915900Y01391100
X08296900Y00769900
X07915900Y00769900
X08169900Y00642900
X08042900Y00642900
X12855100Y01518100
X12474100Y01518100
X12474100Y01264100
X12347100Y01137100
X12093100Y01518100
X11712100Y01518100
X11712100Y01264100
X11712100Y01010100
X11585100Y01137100
X11274500Y01540000
X11331100Y01010100
X11204100Y01137100
X10950100Y01010100
X10823100Y01391100
X10823100Y01137100
X10569100Y01518100
R02Y-00254000
X10328900Y01391100
X10328900Y01137100
X10070000Y01530000
X10074900Y01010100
X09947900Y01137100
X09810000Y01540000
X09693900Y01264100
X09693900Y01010100
X09566900Y01137100
X09312900Y01518100
X09312900Y01010100
X09185900Y01137100
X08931900Y01518100
X08550900Y01518100
X08550900Y01264100
X08423900Y01391100
X08296900Y01391100
X12982100Y01391100
X12982100Y01137100
X12855100Y01010100
X12982100Y00769900
X12728100Y00769900
X12855100Y00642900
X12982100Y00515900
X01228500Y03760000
X01784000Y03609500
X02024000Y03910500
X01984000Y04429500
X01344000Y04429500
X01264000Y04429500
X02653500Y03760000
X03209000Y03609500
X03449000Y03910500
X03409000Y04429500
X02769000Y04429500
X02689000Y04429500
X04078500Y03760000
X04634000Y03609500
X04874000Y03910500
X04834000Y04429500
X04194000Y04429500
X04114000Y04429500
X05503500Y03760000
X06059000Y03609500
X06299000Y03910500
X06259000Y04429500
X05619000Y04429500
X05530000Y04380000
X12229000Y03609500
X12469000Y03900700
X12429000Y04429500
X11789000Y04429500
X11709000Y04429500
X11749000Y03619300
X10248500Y03760000
X10804000Y03580000
X11044000Y03900700
X11004000Y04439300
X10364000Y04439300
X10284000Y04439300
X08823500Y03760000
X09379000Y03609500
X09619000Y03910500
X09579000Y04429500
X08939000Y04429500
X08859000Y04429500
X07398500Y03760000
X07954000Y03609500
X08194000Y03910500
X08154000Y04429500
X07514000Y04429500
X07434000Y04429500
X01810000Y04131800
X01290000Y04121800
X03235000Y04131800
X02715000Y04121800
X04660000Y04131800
X04140000Y04121800
X06085000Y04131800
X05565000Y04121800
X12255000Y04131800
X11735000Y04121800
X10830000Y04131800
X10310000Y04121800
X09405000Y04131800
X08885000Y04121800
X07980000Y04131800
X07460000Y04121800
X01710000Y03336000
X02110000Y03335000
X01910000Y04834500
X01910000Y05080000
X01360000Y04834500
X01360000Y05080000
X01580000Y05080000
X01580000Y04834500
X01690000Y04834500
X01690000Y05080000
X01800000Y04834500
X01800000Y05080100
X01470000Y04834500
X01470000Y05080000
X03140000Y03336000
X03530000Y03335000
X03335000Y04834500
X03335000Y05080000
X02785000Y04834500
X02785000Y05080000
X03005000Y04834500
X03005000Y05080000
X03115000Y04834500
X03115000Y05080000
X03225000Y04834500
X03225000Y05080000
X02895000Y04834500
X02895000Y05080000
X04560000Y03336000
X04960000Y03335000
X04760000Y04834500
X04210000Y04834500
X04210000Y05080000
X04430000Y04834500
R02X00110000
X04650000Y05080000
X04320000Y04834500
X04320000Y05080000
X05980000Y03336000
X06390000Y03335000
X06185000Y04834500
X06185000Y05080000
X05635000Y04834500
X05635000Y05080000
X05855000Y04834500
X05855000Y05080000
X05965000Y04834500
X05965000Y05080000
X06075000Y04834500
X06075000Y05080000
X05745000Y04834500
X05745000Y05080000
X12141300Y03336000
X12567700Y03335000
X12355000Y04834500
X12355000Y05075700
X11805000Y04834500
X11805000Y05075700
X12025000Y04834500
X12025000Y05075700
X12135000Y04834500
X12135000Y05075700
X12245000Y04834500
X12245000Y05075700
X11915000Y04834500
X11915000Y05075700
X10716300Y03336000
X11142700Y03335000
X10930000Y04834500
X10930000Y05075700
X10380000Y04834500
X10380000Y05075700
X10600000Y04834500
X10600000Y05075700
X10710000Y04834500
X10710000Y05075700
X10820000Y04834500
X10820000Y05075700
X10490000Y04834500
X10490000Y05075700
X09291300Y03336000
X09717700Y03335000
X09505000Y04834500
X09505000Y05075700
X08955000Y04834500
X08955000Y05075700
X09175000Y04834500
X09175000Y05075700
X09285000Y04834500
X09285000Y05075700
X09395000Y04834500
X09395000Y05075700
X09065000Y04834500
X09065000Y05075700
X07866300Y03336000
X08292700Y03335000
X08080000Y04834500
X08080000Y05075700
X07530000Y04834500
X07530000Y05075700
X07750000Y04834500
X07750000Y05075700
X07860000Y04834500
X07860000Y05075700
X07970000Y04834500
X07970000Y05075700
X07640000Y04834500
X07640000Y05075700
X06910000Y00615500
X06910000Y00190000
X06790000Y00200000
X09090000Y02810000
X08639800Y02810000
X09085500Y02930000
X08634500Y02930000
X10510000Y02810000
X10059800Y02810000
X10505500Y02930000
X10054500Y02930000
X11945500Y02780000
X11494500Y02780000
X11945500Y02930000
X11490000Y03000000
X13255700Y02790000
X12814500Y02790000
X13255700Y02950000
X12817500Y03017500
X00140000Y02597000
X00270000Y02597000
X01760000Y03180000
X02060000Y03180000
X03190000Y03180000
X03490000Y03180000
X04610000Y03180000
X06040000Y03180000
X06340000Y03180000
X12194300Y03180000
X12515700Y03180000
X10832500Y03066800
X11090700Y03180000
X09344300Y03180000
X09665700Y03180000
X07930000Y03180000
X08230000Y03180000
X13374500Y04400000
X13380000Y03720000
X13374500Y04040000
X13810000Y01820000
X13590000Y01700000
X13500000Y02350000
T03
X13820000Y02640000
T04
X13440000Y04866000
T05
X03782500Y06760000
X03782500Y05760000
X00932500Y04980000
X02357500Y04980000
X05207500Y04980000
X06632500Y04980000
X00932500Y04510000
X03782500Y04760000
X05207500Y04510000
X00932500Y04010000
X05207500Y04010000
X01645000Y03550000
X02125000Y03550000
X03070000Y03550000
X03782500Y03760000
X03550000Y03550000
X04495000Y03550000
X04975000Y03550000
X05920000Y03550000
X06400000Y03550000
X09947500Y06760000
X09947500Y05760000
X07097500Y04980000
X08522500Y04980000
X11372500Y04980000
X12797500Y04980000
X07097500Y04510000
X09947500Y04760000
X11372500Y04510000
X07097500Y04010000
X11372500Y04010000
X07810000Y03550000
X08290000Y03550000
X09235000Y03550000
X09947500Y03760000
X09715000Y03550000
X10660000Y03550000
X11140000Y03550000
X12085000Y03550000
X12565000Y03550000
T06
X01130000Y03024000
R02Y-00254000
X13730000Y03519000
R03Y00254000
T07
X00932500Y07260000
X01500000Y07260000
X02925000Y07260000
X04350000Y07260000
X05207500Y07260000
X05775000Y07260000
X02357500Y06760000
X06632500Y06760000
X00932500Y06260000
X05207500Y06260000
X01250000Y05760000
X01790000Y05760000
X02357500Y05760000
X02675000Y05760000
X03215000Y05760000
X04100000Y05760000
X04640000Y05760000
X05525000Y05760000
X06065000Y05760000
X06632500Y05760000
X00932500Y05260000
X05207500Y05260000
X02357500Y04760000
X06632500Y04760000
X02357500Y03760000
X06632500Y03760000
X07097500Y07260000
X07665000Y07260000
X09090000Y07260000
X10515000Y07260000
X11372500Y07260000
X11940000Y07260000
X08522500Y06760000
X12797500Y06760000
X07097500Y06260000
X11372500Y06260000
X07415000Y05760000
X07955000Y05760000
X08522500Y05760000
X08840000Y05760000
X09380000Y05760000
X10265000Y05760000
X10805000Y05760000
X11690000Y05760000
X12230000Y05760000
X12797500Y05760000
X07097500Y05260000
X11372500Y05260000
X08522500Y04760000
X12797500Y04760000
X08522500Y03760000
X12797500Y03760000
T08
X13205000Y06550000
X00550000Y06550000
X07300000Y01090000
X00300000Y01090000
X13600000Y01090000
T09
X13168000Y01195000
X07730000Y00890000
T10
X02124000Y04170000
X01164000Y04170000
X03549000Y04170000
X02589000Y04170000
X04974000Y04170000
X04014000Y04170000
X06399000Y04170000
X05439000Y04170000
X12569000Y04170000
X11609000Y04170000
X11144000Y04170000
X10184000Y04170000
X09719000Y04170000
X08759000Y04170000
X08294000Y04170000
X07334000Y04170000
M30
