G04 ================== begin FILE IDENTIFICATION RECORD ==================*
G04 Layout Name:  pc065a_toplevel_54.brd*
G04 Film Name:    art_pc065a_L04P.ger*
G04 File Format:  Gerber RS274X*
G04 File Origin:  Cadence Allegro 17.2-S063*
G04 Origin Date:  Wed Apr 08 15:11:59 2020*
G04 *
G04 Layer:  VIA CLASS/L4_GND*
G04 Layer:  PIN/L4_GND*
G04 Layer:  ETCH/L4_GND*
G04 *
G04 Offset:    (0.0000 0.0000)*
G04 Mirror:    No*
G04 Mode:      Positive*
G04 Rotation:  0*
G04 FullContactRelief:  No*
G04 UndefLineWidth:     0.2000*
G04 ================== end FILE IDENTIFICATION RECORD ====================*
%FSLAX25Y25*MOIN*%
%IR0*IPPOS*OFA0.00000B0.00000*MIA0B0*SFA1.00000B1.00000*%
%ADD10C,.025591*%
%ADD15C,.03937*%
%ADD12C,.066929*%
%ADD17C,.039402*%
%ADD11C,.141732*%
%ADD14C,.064961*%
%ADD16C,.068898*%
%ADD13C,.055*%
%ADD18C,.007874*%
%ADD19C,.019685*%
%ADD23C,.08663*%
%ADD28C,.161433*%
%ADD20C,.078913*%
%ADD26C,.045291*%
%ADD21C,.074976*%
%ADD27C,.06722*%
%ADD24C,.076945*%
%ADD25C,.077039*%
%ADD22C,.074701*%
G75*
%LPD*%
G75*
G36*
G01X-2756Y149606D02*
G03X3150Y155512I0J5906D01*
G01Y156692D01*
X12206D01*
Y180906D01*
X3150D01*
Y209289D01*
G02X3847Y209557I400J0D01*
G03X9843Y206889I5996J5404D01*
G03Y223032I0J8072D01*
G03X3847Y220365I0J-8071D01*
G02X3150Y220632I-297J268D01*
G01Y256299D01*
X514961D01*
Y220406D01*
G02X514254Y220149I-400J0D01*
G03X508071Y223032I-6183J-5188D01*
G03Y206889I0J-8072D01*
G03X515839Y212770I0J8072D01*
G02X516519Y212932I385J-108D01*
G03X520866Y211024I4347J3998D01*
G01X523228D01*
Y174409D01*
G03X529134Y168504I5906J0D01*
G01X533465D01*
Y160738D01*
G02X532699Y160576I-400J0D01*
G03X528740Y163150I-3959J-1757D01*
G03Y154487I0J-4331D01*
G03X532699Y157061I0J4331D01*
G02X533465Y156900I366J-162D01*
G01Y150738D01*
G02X532699Y150576I-400J0D01*
G03X528740Y153150I-3959J-1757D01*
G03Y144487I0J-4331D01*
G03X532699Y147061I0J4331D01*
G02X533465Y146900I366J-162D01*
G01Y140738D01*
G02X532699Y140576I-400J0D01*
G03X528740Y143150I-3959J-1757D01*
G03Y134487I0J-4331D01*
G03X532699Y137061I0J4331D01*
G02X533465Y136900I366J-162D01*
G01Y127549D01*
G02X532699Y127387I-400J0D01*
G03X528740Y129961I-3959J-1757D01*
G03Y121298I0J-4331D01*
G03X532699Y123872I0J4331D01*
G02X533465Y123711I366J-162D01*
G01Y117549D01*
G02X532699Y117387I-400J0D01*
G03X528740Y119961I-3959J-1757D01*
G03Y111298I0J-4331D01*
G03X532699Y113872I0J4331D01*
G02X533465Y113711I366J-162D01*
G01Y107549D01*
G02X532699Y107387I-400J0D01*
G03X528740Y109961I-3959J-1757D01*
G03Y101298I0J-4331D01*
G03X532699Y103872I0J4331D01*
G02X533465Y103711I366J-162D01*
G01Y60402D01*
G02X532829Y60079I-400J0D01*
G03X531496Y60513I-1333J-1831D01*
G03Y55983I0J-2265D01*
G03X532829Y56417I0J2265D01*
G02X533465Y56094I235J-323D01*
G01Y-40945D01*
X314565D01*
G02X314206Y-40369I0J400D01*
G03X314438Y-39370I-2033J998D01*
G03X312174Y-37106I-2265J0D01*
G03X310179Y-38297I0J-2265D01*
G02X309475I-352J189D01*
G03X307480Y-37106I-1994J-1073D01*
G03X305216Y-39370I0J-2265D01*
G03X305448Y-40369I2265J0D01*
G02X305089Y-40945I-359J-176D01*
G01X136836D01*
G02X136566Y-40250I0J400D01*
G03X137301Y-38580I-1529J1670D01*
G03X135037Y-36315I-2265J0D01*
G03X134270Y-36449I0J-2265D01*
G02X133738Y-36126I-135J376D01*
G03X131493Y-34163I-2244J-302D01*
G03Y-38692I0J-2265D01*
G03X132260Y-38558I0J2265D01*
G02X132792Y-38881I135J-376D01*
G03X133507Y-40250I2244J302D01*
G02X133237Y-40945I-270J-295D01*
G01X60277D01*
G02X59887Y-40457I0J400D01*
G03X59942Y-39961I-2209J497D01*
G03X55413I-2265J0D01*
G03X55468Y-40457I2265J0D01*
G02X55078Y-40945I-390J-88D01*
G01X-9843D01*
Y-29726D01*
G02X-9210Y-29401I400J0D01*
G03X-7893Y-29824I1317J1842D01*
G03Y-25294I0J2265D01*
G03X-9210Y-25717I0J-2265D01*
G02X-9843Y-25392I-233J325D01*
G01Y-22510D01*
G02X-9225Y-22175I400J0D01*
G03X-7991Y-22540I1233J1899D01*
G03Y-18011I0J2265D01*
G03X-9225Y-18376I0J-2265D01*
G02X-9843Y-18041I-218J336D01*
G01Y12954D01*
G02X-9269Y13314I400J0D01*
G03X-8287Y13090I982J2041D01*
G03X-8287Y17619I0J2265D01*
G03X-9269Y17395I0J-2265D01*
G02X-9843Y17755I-174J360D01*
G01Y21641D01*
G02X-9121Y21879I400J0D01*
G03X-7302Y20964I1819J1349D01*
G03Y25493I0J2265D01*
G03X-9121Y24578I0J-2265D01*
G02X-9843Y24816I-321J238D01*
G01Y149606D01*
X-2756D01*
G37*
%LPC*%
G75*
G36*
G01X60790Y-31284D02*
G03X60206Y-31225I-319J-241D01*
G02X58707Y-31792I-1499J1698D01*
G02Y-27263I0J2265D01*
G02X60515Y-28165I0J-2265D01*
G03X61100Y-28224I319J241D01*
G02X62598Y-27657I1499J-1698D01*
G02Y-32186I0J-2265D01*
G02X60790Y-31284I0J2265D01*
G37*
G36*
G01X275548Y-29666D02*
G03X275293Y-29770I-73J-186D01*
G02X273228Y-31103I-2064J932D01*
G02Y-26574I0J2265D01*
G02X274058Y-26731I0J-2265D01*
G03X274314Y-26628I73J186D01*
G02X276378Y-25294I2064J-932D01*
G02Y-29824I0J-2265D01*
G02X275548Y-29666I0J2265D01*
G37*
G36*
G01X412303Y-29689D02*
G03X411771Y-29303I-400J9D01*
G02X411024Y-29430I-747J2138D01*
G02X413288Y-27165I0J2265D01*
G02X413288Y-27216I-2265J-8D01*
G03X413820Y-27602I400J-9D01*
G02X414567Y-27476I747J-2138D01*
G02X412302Y-29740I0J-2265D01*
G02X412303Y-29689I2265J8D01*
G37*
G36*
G01X512613Y-28385D02*
G02X513289Y-30000I-1588J-1615D01*
G02X508760I-2265J0D01*
G02X509436Y-28386I2265J0D01*
G02X508759Y-26772I1588J1615D01*
G02X513288I2265J0D01*
G02X512613Y-28385I-2265J0D01*
G37*
G36*
G01X100407Y-27992D02*
G02X101083Y-29606I-1588J-1614D01*
G02X96554I-2265J0D01*
G02X97231Y-27992I2264J0D01*
G02X96554Y-26378I1588J1614D01*
G02X101083I2265J0D01*
G02X100407Y-27992I-2264J0D01*
G37*
G36*
G01X241480Y-28189D02*
G03X241456Y-27926I-161J118D01*
G02X240747Y-26280I1556J1646D01*
G02X245276I2265J0D01*
G02X244839Y-27618I-2265J0D01*
G03X244863Y-27881I161J-118D01*
G02X245572Y-29528I-1556J-1646D01*
G02X241043I-2265J0D01*
G02X241480Y-28189I2265J0D01*
G37*
G36*
G01X335654Y-27119D02*
G02X336532Y-28910I-1387J-1791D01*
G02X332003I-2265J0D01*
G02X332500Y-27495I2265J0D01*
G02X331621Y-25704I1387J1791D01*
G02X336150I2265J0D01*
G02X335654Y-27119I-2265J0D01*
G37*
G36*
G01X443209Y-25936D02*
G03X442618I-296J-269D01*
G02X440945Y-26674I-1673J1526D01*
G02Y-22145I0J2265D01*
G02X442618Y-22883I0J-2265D01*
G03X443209I296J269D01*
G02X444882Y-22145I1673J-1526D01*
G02Y-26674I0J-2265D01*
G02X443209Y-25936I0J2265D01*
G37*
G36*
G01X432973Y-25542D02*
G03X432381I-296J-269D01*
G02X430709Y-26280I-1673J1526D01*
G02Y-21751I0J2265D01*
G02X432381Y-22489I0J-2265D01*
G03X432973I296J269D01*
G02X434646Y-21751I1673J-1526D01*
G02Y-26280I0J-2265D01*
G02X432973Y-25542I0J2265D01*
G37*
G36*
G01X188677Y-22924D02*
G03X188013Y-22926I-331J-224D01*
G02X186131Y-23931I-1882J1259D01*
G02Y-19402I0J2265D01*
G02X188006Y-20396I0J-2264D01*
G03X188669Y-20394I331J224D01*
G02X190551Y-19389I1882J-1259D01*
G02Y-23918I0J-2265D01*
G02X188677Y-22924I0J2264D01*
G37*
G36*
G01X85907Y-18536D02*
G03X85696Y-18693I-16J-199D01*
G02X83484Y-20470I-2212J487D01*
G02Y-15941I0J2265D01*
G02X83671Y-15949I-2J-2264D01*
G03X83882Y-15793I16J199D01*
G02X86094Y-14015I2212J-487D01*
G02X88346Y-16043I0J-2265D01*
G02X88386Y-16043I42J-2264D01*
G02Y-20572I0J-2265D01*
G02X86133Y-18544I0J2265D01*
G02X86094Y-18544I-42J2264D01*
G02X85907Y-18536I2J2264D01*
G37*
G36*
G01X192169Y-17022D02*
G03X191629Y-17021I-271J-295D01*
G02X190104Y-17612I-1525J1674D01*
G02Y-13083I0J2265D01*
G02X191635Y-13680I0J-2264D01*
G03X192176Y-13681I271J295D01*
G02X193701Y-13090I1525J-1674D01*
G02Y-17619I0J-2265D01*
G02X192169Y-17022I0J2264D01*
G37*
G36*
G01X179580Y-16637D02*
G03X178989Y-16696I-269J-296D01*
G02X177165Y-17619I-1824J1342D01*
G02Y-13090I0J2265D01*
G02X178687Y-13678I0J-2265D01*
G03X179278Y-13619I269J296D01*
G02X181102Y-12696I1824J-1342D01*
G02X182794Y-13455I0J-2265D01*
G03X183326Y-13514I299J266D01*
G02X184646Y-13090I1320J-1840D01*
G02Y-17619I0J-2265D01*
G02X182954Y-16860I0J2265D01*
G03X182422Y-16801I-299J-266D01*
G02X181102Y-17225I-1320J1840D01*
G02X179580Y-16637I0J2265D01*
G37*
G36*
G01X121227Y-15631D02*
G02X121855Y-17196I-1637J-1566D01*
G02X117326I-2265J0D01*
G02X118052Y-15535I2265J0D01*
G02X117423Y-13969I1637J1566D01*
G02X121952I2265J0D01*
G02X121227Y-15631I-2265J0D01*
G37*
G36*
G01X169916Y-8539D02*
G03X169643Y-8507I-153J-128D01*
G02X168287Y-8957I-1356J1815D01*
G02Y-4428I0J2265D01*
G02X170025Y-5241I0J-2264D01*
G03X170298Y-5272I153J128D01*
G02X171654Y-4822I1356J-1815D01*
G02Y-9351I0J-2265D01*
G02X169916Y-8539I0J2264D01*
G37*
G36*
G01X249489Y-8592D02*
G03X248957Y-8533I-299J-266D01*
G02X247638Y-8957I-1320J1840D01*
G02Y-4428I0J2265D01*
G02X249330Y-5187I0J-2265D01*
G03X249861Y-5246I299J266D01*
G02X251181Y-4822I1320J-1840D01*
G02Y-9351I0J-2265D01*
G02X249489Y-8592I0J2265D01*
G37*
G36*
G01X364187Y-7422D02*
G02X364863Y-9036I-1588J-1614D01*
G02X360334I-2265J0D01*
G02X361010Y-7422I2264J0D01*
G02X360334Y-5808I1588J1614D01*
G02X364863I2265J0D01*
G02X364187Y-7422I-2264J0D01*
G37*
G36*
G01X490178Y-7110D02*
G03X490288Y-6519I-205J344D01*
G02X489802Y-5118I1780J1401D01*
G02X494331I2265J0D01*
G02X493227Y-7063I-2265J0D01*
G03X493118Y-7654I205J-344D01*
G02X493603Y-9055I-1780J-1401D01*
G02X489074I-2265J0D01*
G02X490178Y-7110I2265J0D01*
G37*
G36*
G01X119639Y-6276D02*
G02X120378Y-7950I-1525J-1674D01*
G02X115849I-2265J0D01*
G02X116465Y-6398I2265J0D01*
G02X115725Y-4724I1525J1674D01*
G02X120254I2265J0D01*
G02X119639Y-6276I-2265J0D01*
G37*
G36*
G01X211152Y-4469D02*
G03X210502I-325J-233D01*
G02X208661Y-5414I-1840J1319D01*
G02Y-885I0J2265D01*
G02X210502Y-1830I0J-2264D01*
G03X211152I325J233D01*
G02X212992Y-885I1840J-1319D01*
G02Y-5414I0J-2265D01*
G02X211152Y-4469I0J2264D01*
G37*
G36*
G01X16260Y482D02*
G03X15669Y778I-396J-54D01*
G02X14567Y491I-1102J1978D01*
G02Y5020I0J2265D01*
G02X16811Y3061I0J-2264D01*
G03X17402Y2766I396J54D01*
G02X18504Y3052I1102J-1978D01*
G02Y-1477I0J-2265D01*
G02X16260Y482I0J2264D01*
G37*
G36*
G01X129737Y1339D02*
G02X130412Y-274I-1590J-1613D01*
G02X125883I-2265J0D01*
G02X126560Y1341I2264J0D01*
G02X125885Y2954I1590J1613D01*
G02X130415I2265J0D01*
G02X129737Y1339I-2264J0D01*
G37*
G36*
G01X181509Y3583D02*
G02X182186Y1969I-1588J-1614D01*
G02X177657I-2265J0D01*
G02X178333Y3583I2264J0D01*
G02X177657Y5197I1588J1614D01*
G02X182186I2265J0D01*
G02X181509Y3583I-2264J0D01*
G37*
G36*
G01X150801Y6260D02*
G02X151477Y4646I-1588J-1614D01*
G02X146948I-2265J0D01*
G02X147624Y6260I2264J0D01*
G02X146948Y7874I1588J1614D01*
G02X151477I2265J0D01*
G02X150801Y6260I-2264J0D01*
G37*
G36*
G01X469449Y10446D02*
G02X471063Y11123I1614J-1588D01*
G02Y6594I0J-2265D01*
G02X469449Y7270I0J2264D01*
G02X467835Y6594I-1614J1588D01*
G02Y11123I0J2265D01*
G02X469449Y10446I0J-2264D01*
G37*
G36*
G01X35927Y4262D02*
G02X35241Y5886I1579J1624D01*
G02X35922Y7504I2264J0D01*
G02X35250Y9114I1592J1610D01*
G02X39779I2265J0D01*
G02X39098Y7496I-2264J0D01*
G02X39770Y5886I-1592J-1610D01*
G02X38996Y4180I-2265J0D01*
G03X38980Y3593I263J-301D01*
G02X39666Y1969I-1579J-1624D01*
G02X35137I-2265J0D01*
G02X35911Y3674I2265J0D01*
G03X35927Y4262I-263J301D01*
G37*
G36*
G01X266121Y8667D02*
G02X266797Y7052I-1588J-1614D01*
G02X262268I-2265J0D01*
G02X262944Y8667I2264J0D01*
G02X262268Y10281I1588J1614D01*
G02X266797I2265J0D01*
G02X266121Y8667I-2264J0D01*
G37*
G36*
G01X55640Y14035D02*
G03X54990I-325J-233D01*
G02X53150Y13090I-1840J1319D01*
G02Y17619I0J2265D01*
G02X54990Y16674I0J-2264D01*
G03X55640I325J233D01*
G02X57480Y17619I1840J-1319D01*
G02Y13090I0J-2265D01*
G02X55640Y14035I0J2264D01*
G37*
G36*
G01X208143Y13908D02*
G03Y14510I-263J301D01*
G02X207371Y16213I1493J1703D01*
G02X211900I2265J0D01*
G02X211128Y14510I-2265J0D01*
G03Y13908I263J-301D01*
G02X211900Y12205I-1493J-1703D01*
G02X207371I-2265J0D01*
G02X208143Y13908I2265J0D01*
G37*
G36*
G01X320099Y18405D02*
G02X320375Y17323I-1989J-1083D01*
G02X315846I-2265J0D01*
G02X317061Y19330I2265J0D01*
G02X316785Y20412I1989J1083D01*
G02X321314I2265J0D01*
G02X320099Y18405I-2265J0D01*
G37*
G36*
G01X73168Y19859D02*
G03X73198Y20450I-254J309D01*
G02X72539Y22047I1605J1597D01*
G02X77068I2265J0D01*
G02X76241Y20298I-2264J0D01*
G03X76212Y19707I254J-309D01*
G02X76871Y18110I-1605J-1597D01*
G02X72342I-2265J0D01*
G02X73168Y19859I2264J0D01*
G37*
G36*
G01X88598Y27705D02*
G03X87977I-310J-252D01*
G02X86220Y26869I-1757J1429D01*
G02Y31398I0J2265D01*
G02X87977Y30563I0J-2265D01*
G03X88598I310J252D01*
G02X90354Y31398I1757J-1429D01*
G02Y26869I0J-2265D01*
G02X88598Y27705I0J2265D01*
G37*
G36*
G01X321278Y30349D02*
G02X321949Y28740I-1593J-1609D01*
G02X317420I-2265J0D01*
G02X318102Y30359I2265J0D01*
G02X317430Y31969I1593J1609D01*
G02X321959I2265J0D01*
G02X321278Y30349I-2265J0D01*
G37*
G36*
G01X53994Y30402D02*
G03Y30996I-268J297D01*
G02X53247Y32677I1517J1681D01*
G02X57776I2265J0D01*
G02X57029Y30996I-2265J0D01*
G03Y30402I268J-297D01*
G02X57776Y28721I-1517J-1681D01*
G02X53247I-2265J0D01*
G02X53994Y30402I2265J0D01*
G37*
G36*
G01X377572Y33504D02*
G02X378249Y31890I-1588J-1614D01*
G02X373720I-2265J0D01*
G02X374396Y33504I2264J0D01*
G02X373720Y35118I1588J1614D01*
G02X378249I2265J0D01*
G02X377572Y33504I-2264J0D01*
G37*
G36*
G01X356793Y33068D02*
G03X356610Y33276I-200J8D01*
G02X354546Y35531I200J2256D01*
G02X359075I2265J0D01*
G02X359073Y35436I-2265J-1D01*
G03X359255Y35228I200J-8D01*
G02Y30717I-200J-2256D01*
G03X359073Y30509I17J-199D01*
G02X359075Y30413I-2263J-94D01*
G02X354546I-2265J0D01*
G02X356610Y32669I2265J0D01*
G03X356793Y32877I-17J199D01*
G02X356791Y32972I2263J94D01*
G02X356793Y33068I2265J1D01*
G37*
G36*
G01X404428Y32977D02*
G03X403914Y33361I-400J1D01*
G02X403267Y33267I-647J2170D01*
G02X405531Y35531I0J2265D01*
G01Y35527D01*
G03X406046Y35143I400J-1D01*
G02X406693Y35237I647J-2170D01*
G02Y30708I0J-2265D01*
G02X406046Y30802I0J2264D01*
G03X405531Y30418I-114J-383D01*
G01Y30413D01*
G02X403267Y32678I-2265J0D01*
G02X403914Y32583I0J-2264D01*
G03X404428Y32968I114J383D01*
G01Y32972D01*
Y32977D01*
G37*
G36*
G01X450491D02*
G03X449977Y33361I-400J1D01*
G02X449330Y33267I-647J2170D01*
G02X451594Y35531I0J2265D01*
G01Y35527D01*
G03X452109Y35143I400J-1D01*
G02X452756Y35237I647J-2170D01*
G02Y30708I0J-2265D01*
G02X452109Y30802I0J2264D01*
G03X451594Y30418I-114J-383D01*
G01Y30413D01*
G02X449330Y32678I-2265J0D01*
G02X449977Y32583I0J-2264D01*
G03X450491Y32968I114J383D01*
G01Y32972D01*
Y32977D01*
G37*
G36*
G01X496554D02*
G03X496040Y33361I-400J1D01*
G02X495393Y33267I-647J2170D01*
G02X497657Y35531I0J2265D01*
G01Y35527D01*
G03X498172Y35143I400J-1D01*
G02X498819Y35237I647J-2170D01*
G02Y30708I0J-2265D01*
G02X498172Y30802I0J2264D01*
G03X497657Y30418I-114J-383D01*
G01Y30413D01*
G02X495393Y32678I-2265J0D01*
G02X496040Y32583I0J-2264D01*
G03X496554Y32968I114J383D01*
G01Y32972D01*
Y32977D01*
G37*
G36*
G01X420367Y33713D02*
G03X420358Y34363I-237J322D01*
G02X419389Y36220I1296J1857D01*
G02X423918I2265J0D01*
G02X422996Y34397I-2264J0D01*
G03X423005Y33747I237J-322D01*
G02X423974Y31890I-1296J-1857D01*
G02X419445I-2265J0D01*
G02X420367Y33713I2264J0D01*
G37*
G36*
G01X465009Y33956D02*
G03Y34548I-269J296D01*
G02X464271Y36220I1526J1673D01*
G02X468800I2265J0D01*
G02X468062Y34548I-2265J0D01*
G03Y33956I269J-296D01*
G02X468800Y32283I-1526J-1673D01*
G02X464271I-2265J0D01*
G02X465009Y33956I2265J0D01*
G37*
G36*
G01X282529Y35974D02*
G03X282657Y36216I-65J189D01*
G02X282578Y36811I2185J595D01*
G02X287107I2265J0D01*
G02X285575Y34668I-2265J0D01*
G03X285446Y34426I65J-189D01*
G02X285526Y33831I-2185J-595D01*
G02X280997I-2265J0D01*
G02X282529Y35974I2265J0D01*
G37*
G36*
G01X321273Y39803D02*
G02X321950Y38189I-1588J-1614D01*
G02X317420I-2265J0D01*
G02X318097Y39803I2264J0D01*
G02X317420Y41417I1588J1614D01*
G02X321950I2265J0D01*
G02X321273Y39803I-2264J0D01*
G37*
G36*
G01X359016Y46470D02*
G02X360630Y47146I1614J-1588D01*
G02Y42617I0J-2265D01*
G02X359016Y43294I0J2264D01*
G02X357402Y42617I-1614J1588D01*
G02Y47146I0J2265D01*
G02X359016Y46470I0J-2264D01*
G37*
G36*
G01X370092Y43622D02*
G02X370769Y42008I-1588J-1614D01*
G02X366239I-2265J0D01*
G02X366916Y43622I2264J0D01*
G02X366239Y45236I1588J1614D01*
G02X370769I2265J0D01*
G02X370092Y43622I-2264J0D01*
G37*
G36*
G01X256313Y44173D02*
G02X256989Y42559I-1588J-1614D01*
G02X252460I-2265J0D01*
G02X253136Y44173I2264J0D01*
G02X252460Y45787I1588J1614D01*
G02X256989I2265J0D01*
G02X256313Y44173I-2264J0D01*
G37*
G36*
G01X343913Y43841D02*
G03X343676Y44340I-380J126D01*
G02X342216Y46457I804J2117D01*
G02X346745I2265J0D01*
G02X346630Y45745I-2265J0D01*
G03X346868Y45246I380J-126D01*
G02X348328Y43129I-804J-2117D01*
G02X343798I-2265J0D01*
G02X343913Y43841I2265J0D01*
G37*
G36*
G01X390370D02*
G03X390132Y44340I-380J126D01*
G02X388672Y46457I804J2117D01*
G02X393202I2265J0D01*
G02X393087Y45745I-2265J0D01*
G03X393324Y45246I380J-126D01*
G02X394784Y43129I-804J-2117D01*
G02X390255I-2265J0D01*
G02X390370Y43841I2265J0D01*
G37*
G36*
G01X482861Y43748D02*
G03X482565Y44248I-385J109D01*
G02X480798Y46457I498J2209D01*
G02X485328I2265J0D01*
G02X485241Y45838I-2264J0D01*
G03X485538Y45338I385J-109D01*
G02X487304Y43129I-498J-2209D01*
G02X482775I-2265J0D01*
G02X482861Y43748I2264J0D01*
G37*
G36*
G01X263010Y48460D02*
G02X263682Y46850I-1592J-1609D01*
G02X259153I-2265J0D01*
G02X259834Y48469I2265J0D01*
G02X259162Y50079I1592J1609D01*
G02X263691I2265J0D01*
G02X263010Y48460I-2265J0D01*
G37*
G36*
G01X279541Y48465D02*
G02X280217Y46850I-1588J-1614D01*
G02X275688I-2265J0D01*
G02X276365Y48465I2264J0D01*
G02X275688Y50079I1588J1614D01*
G02X280217I2265J0D01*
G02X279541Y48465I-2264J0D01*
G37*
G36*
G01X506059Y49007D02*
G03Y49630I-251J311D01*
G02X505216Y51394I1421J1763D01*
G02X509745I2265J0D01*
G02X508901Y49630I-2265J0D01*
G03Y49007I251J-311D01*
G02X509745Y47244I-1421J-1763D01*
G02X505216I-2265J0D01*
G02X506059Y49007I2265J0D01*
G37*
G36*
G01X231398Y51623D02*
G03X230807I-296J-269D01*
G02X229134Y50885I-1673J1526D01*
G02Y55414I0J2265D01*
G02X230807Y54676I0J-2265D01*
G03X231398I296J269D01*
G02X233071Y55414I1673J-1526D01*
G02Y50885I0J-2265D01*
G02X231398Y51623I0J2265D01*
G37*
G36*
G01X370619Y51857D02*
G02X371327Y50213I-1556J-1644D01*
G02X366798I-2265J0D01*
G02X367444Y51796I2265J0D01*
G02X366736Y53441I1556J1644D01*
G02X371265I2265J0D01*
G02X370619Y51857I-2265J0D01*
G37*
G36*
G01X392254Y53405D02*
G03X391604I-325J-233D01*
G02X389764Y52460I-1840J1319D01*
G02Y56989I0J2265D01*
G02X391604Y56044I0J-2264D01*
G03X392254I325J233D01*
G02X394094Y56989I1840J-1319D01*
G02Y52460I0J-2265D01*
G02X392254Y53405I0J2264D01*
G37*
G36*
G01X170007Y56710D02*
G02X171626Y57391I1619J-1584D01*
G02Y52862I0J-2265D01*
G02X170016Y53534I0J2264D01*
G02X168397Y52853I-1619J1584D01*
G02Y57382I0J2265D01*
G02X170007Y56710I0J-2264D01*
G37*
G36*
G01X501554Y57100D02*
G02X503168Y57776I1614J-1589D01*
G02Y53246I0J-2265D01*
G02X501553Y53923I0J2264D01*
G02X499939Y53248I-1614J1589D01*
G02Y57777I0J2265D01*
G02X501554Y57100I0J-2264D01*
G37*
G36*
G01X309068Y61428D02*
G02X310686Y62108I1618J-1584D01*
G02Y57579I0J-2265D01*
G02X309076Y58251I0J2265D01*
G02X307457Y57571I-1618J1584D01*
G02Y62100I0J2265D01*
G02X309068Y61428I0J-2265D01*
G37*
G36*
G01X221220Y62612D02*
G02X222835Y63288I1614J-1588D01*
G02Y58759I0J-2265D01*
G02X221220Y59435I0J2264D01*
G02X219606Y58759I-1614J1588D01*
G02Y63288I0J2265D01*
G02X221220Y62612I0J-2264D01*
G37*
G36*
G01X508476Y71110D02*
G03X508451Y71642I-311J252D01*
G02X507802Y73228I1616J1586D01*
G02X512331I2265J0D01*
G02X511827Y71803I-2265J0D01*
G03X511852Y71271I311J-252D01*
G02X512501Y69685I-1616J-1586D01*
G02X511943Y68197I-2265J0D01*
G02X512331Y66929I-1876J-1268D01*
G02X507802I-2265J0D01*
G02X508360Y68417I2265J0D01*
G02X507972Y69685I1876J1268D01*
G02X508476Y71110I2265J0D01*
G37*
G36*
G01X406421Y74442D02*
G03X406411Y75043I-269J296D01*
G02X405609Y76772I1464J1728D01*
G02X410139I2265J0D01*
G02X409396Y75095I-2265J0D01*
G03X409407Y74494I269J-296D01*
G02X410208Y72765I-1464J-1728D01*
G02X405679I-2265J0D01*
G02X406421Y74442I2265J0D01*
G37*
G36*
G01X156715Y76931D02*
G03X157188Y77300I74J393D01*
G02X159449Y79430I2261J-135D01*
G02Y74901I0J-2265D01*
G02X159033Y74939I0J2265D01*
G03X158560Y74570I-74J-393D01*
G02X158319Y73680I-2261J135D01*
G03X158614Y73104I357J-181D01*
G02X160532Y70866I-346J-2238D01*
G02X156003I-2265J0D01*
G02X156248Y71891I2265J0D01*
G03X155953Y72467I-357J181D01*
G02X154035Y74705I346J2238D01*
G02X156299Y76969I2265J0D01*
G02X156715Y76931I0J-2265D01*
G37*
G36*
G01X248037Y78275D02*
G03X248300Y78193I174J98D01*
G02X249300Y78426I1000J-2032D01*
G02X250181Y78248I0J-2265D01*
G03X250700Y78448I156J368D01*
G02X252756Y79765I2056J-948D01*
G02Y75235I0J-2265D01*
G02X251875Y75414I0J2265D01*
G03X251356Y75213I-156J-368D01*
G02X249300Y73897I-2056J948D01*
G02X247326Y75052I0J2265D01*
G03X247063Y75133I-174J-98D01*
G02X246063Y74901I-1000J2032D01*
G02Y79430I0J2265D01*
G02X248037Y78275I0J-2265D01*
G37*
G36*
G01X442351Y76571D02*
G02X442816Y75197I-1800J-1375D01*
G02X438287I-2265J0D01*
G02X439145Y76972I2264J0D01*
G02X438680Y78346I1800J1375D01*
G02X443209I2265J0D01*
G02X442351Y76571I-2264J0D01*
G37*
G36*
G01X494763Y77040D02*
G02X495080Y75886I-1948J-1154D01*
G02X490550I-2265J0D01*
G02X490965Y77192I2265J0D01*
G02X490649Y78346I1948J1154D01*
G02X495178I2265J0D01*
G02X494763Y77040I-2265J0D01*
G37*
G36*
G01X282253Y79867D02*
G02X282886Y78296I-1631J-1570D01*
G02X278357I-2265J0D01*
G02X279078Y79953I2264J0D01*
G02X278445Y81523I1631J1570D01*
G02X282974I2265J0D01*
G02X282253Y79867I-2264J0D01*
G37*
G36*
G01X202329Y80539D02*
G02X200512Y79625I-1817J1351D01*
G02X198917Y80282I0J2265D01*
G02X197283Y79586I-1633J1569D01*
G02Y84115I0J2265D01*
G02X198878Y83458I0J-2265D01*
G02X200512Y84154I1633J-1569D01*
G02X202442Y83074I0J-2264D01*
G03X203104Y83044I341J209D01*
G02X204921Y83957I1817J-1351D01*
G02Y79428I0J-2265D01*
G02X202991Y80509I0J2264D01*
G03X202329Y80539I-341J-209D01*
G37*
G36*
G01X30991Y83346D02*
G02X32448Y83878I1457J-1733D01*
G02Y79348I0J-2265D01*
G02X30691Y80184I0J2265D01*
G02X29234Y79653I-1457J1733D01*
G02Y84182I0J2265D01*
G02X30991Y83346I0J-2265D01*
G37*
G36*
G01X143276Y83669D02*
G02X144887Y84343I1612J-1591D01*
G02Y79814I0J-2265D01*
G02X143271Y80493I0J2264D01*
G02X141659Y79819I-1612J1591D01*
G02Y84348I0J2265D01*
G02X143276Y83669I0J-2264D01*
G37*
G36*
G01X87601Y80484D02*
G03X87339Y80468I-121J-159D01*
G02X85748Y79814I-1591J1611D01*
G02Y84343I0J2265D01*
G02X87123Y83878I0J-2265D01*
G03X87385Y83894I121J159D01*
G02X88976Y84548I1591J-1611D01*
G02Y80019I0J-2265D01*
G02X87601Y80484I0J2265D01*
G37*
G36*
G01X132767Y86464D02*
G02X134528Y87304I1760J-1425D01*
G02Y82775I0J-2265D01*
G02X134044Y82827I0J2265D01*
G02X132283Y81987I-1760J1425D01*
G02Y86517I0J2265D01*
G02X132767Y86464I0J-2265D01*
G37*
G36*
G01X152461Y82592D02*
G03X152280Y82784I-200J-7D01*
G02X150216Y85039I201J2256D01*
G02X152480Y87304I2265J0D01*
G02X154743Y85124I0J-2265D01*
G03X154925Y84933I200J7D01*
G02X156989Y82677I-201J-2256D01*
G02X154724Y80413I-2265J0D01*
G02X152461Y82592I0J2265D01*
G37*
G36*
G01X191563Y83264D02*
G02X192028Y81890I-1800J-1375D01*
G02X187499I-2265J0D01*
G02X188358Y83665I2264J0D01*
G02X187893Y85039I1800J1375D01*
G02X192422I2265J0D01*
G02X191563Y83264I-2264J0D01*
G37*
G36*
G01X394281Y83107D02*
G02X394026Y83093I-256J2250D01*
G02X393896Y83096I-2J2265D01*
G02X391634Y80924I-2263J92D01*
G02Y85453I0J2265D01*
G02X391763Y85449I2J-2265D01*
G02X394026Y87622I2263J-92D01*
G02X396276Y85614I0J-2265D01*
G03X396497Y85438I199J23D01*
G02X396752Y85453I256J-2250D01*
G02Y80924I0J-2265D01*
G02X394502Y82931I0J2265D01*
G03X394281Y83107I-199J-23D01*
G37*
G36*
G01X335639Y85451D02*
G03X336023Y85847I-16J400D01*
G02X340552I2265J-21D01*
G03X340936Y85451I400J3D01*
G02X343111Y83188I-90J-2263D01*
G02X340846Y80924I-2265J0D01*
G02X338582Y83168I0J2265D01*
G03X338198Y83564I-400J-3D01*
G01X338195D01*
G03X337987Y83350I-8J-200D01*
G02X337993Y83188I-2259J-163D01*
G02X333464I-2265J0D01*
G02X335639Y85451I2264J0D01*
G37*
G36*
G01X448259Y85452D02*
G03X448643Y85907I-12J400D01*
G02X448621Y86220I2243J312D01*
G02X453150I2265J0D01*
G02X453114Y85816I-2264J1D01*
G03X453514Y85344I394J-71D01*
G02X453553Y85345I42J-2264D01*
G02X451288Y83080I0J-2265D01*
G02X451325Y83485I2264J-1D01*
G03X450924Y83956I-394J71D01*
G02X450886Y83956I-42J2264D01*
G02X450737Y83961I-3J2265D01*
G03X450529Y83715I-13J-200D01*
G02X450591Y83188I-2202J-527D01*
G02X446062I-2265J0D01*
G02X448259Y85452I2264J0D01*
G37*
G36*
G01X500300Y85453D02*
G03X500684Y85967I1J400D01*
G02X500590Y86614I2170J647D01*
G02X505119I2265J0D01*
G02X505024Y85967I-2264J0D01*
G03X505409Y85453I383J-114D01*
G01X505413D01*
G02X503149Y83188I0J-2265D01*
G02X503243Y83835I2264J0D01*
G03X502859Y84350I-383J114D01*
G01X502854D01*
X502850D01*
G03X502465Y83835I-1J-400D01*
G02X502560Y83188I-2170J-647D01*
G02X500295Y85453I-2265J0D01*
G01X500300D01*
G37*
G36*
G01X407307Y86516D02*
G03X406736Y86362I-215J-337D01*
G02X404724Y85137I-2012J1039D01*
G02Y89666I0J2265D01*
G02X405942Y89311I0J-2265D01*
G03X406513Y89465I215J337D01*
G02X408524Y90690I2012J-1039D01*
G02Y86161I0J-2265D01*
G02X407307Y86516I0J2265D01*
G37*
G36*
G01X161059Y87023D02*
G03X160527Y86905I-202J-345D01*
G02X158661Y85924I-1865J1284D01*
G02Y90454I0J2265D01*
G02X159807Y90142I0J-2265D01*
G03X160339Y90260I202J345D01*
G02X162205Y91241I1865J-1284D01*
G02X164028Y90320I0J-2265D01*
G03X164304Y90275I161J118D01*
G02X165611Y90690I1307J-1850D01*
G02Y86161I0J-2265D01*
G02X163788Y87082I0J2265D01*
G03X163511Y87127I-161J-118D01*
G02X162205Y86712I-1307J1850D01*
G02X161059Y87023I0J2265D01*
G37*
G36*
G01X385053Y87441D02*
G02X385729Y85827I-1588J-1614D01*
G02X381200I-2265J0D01*
G02X381876Y87441I2264J0D01*
G02X381200Y89055I1588J1614D01*
G02X385729I2265J0D01*
G02X385053Y87441I-2264J0D01*
G37*
G36*
G01X217739Y86670D02*
G03X217621Y87205I-344J205D01*
G02X216633Y89075I1276J1870D01*
G02X218898Y91339I2265J0D01*
G02X220815Y90280I0J-2265D01*
G03X221406Y90182I339J213D01*
G02X222835Y90690I1429J-1757D01*
G02Y86161I0J-2265D01*
G02X222408Y86201I0J2265D01*
G03X221935Y85764I-75J-393D01*
G02X221950Y85512I-2250J-253D01*
G02X221273Y83898I-2264J0D01*
G02X221509Y83626I-1588J-1615D01*
G03X222100Y83567I322J237D01*
G02X223622Y84154I1522J-1677D01*
G02Y79625I0J-2265D01*
G02X221798Y80548I0J2265D01*
G03X221207Y80607I-322J-237D01*
G02X219685Y80019I-1522J1677D01*
G02X217420Y82283I0J2265D01*
G02X218097Y83898I2264J0D01*
G02X217420Y85512I1588J1614D01*
G02X217739Y86670I2265J0D01*
G37*
G36*
G01X324207Y87561D02*
G02X324922Y85909I-1549J-1652D01*
G02X320393I-2265J0D01*
G02X321032Y87485I2264J0D01*
G02X320317Y89137I1549J1652D01*
G02X324846I2265J0D01*
G02X324207Y87561I-2264J0D01*
G37*
G36*
G01X78026Y87224D02*
G03X78221Y87874I-105J386D01*
G02X77657Y89370I1700J1496D01*
G02X82186I2265J0D01*
G02X80517Y87185I-2264J0D01*
G03X80322Y86535I105J-386D01*
G02X80887Y85039I-1700J-1496D01*
G02X80398Y83635I-2265J0D01*
G02X80611Y82677I-2052J-958D01*
G02X76082I-2265J0D01*
G02X76570Y84081I2265J0D01*
G02X76357Y85039I2052J958D01*
G02X78026Y87224I2264J0D01*
G37*
G36*
G01X442844Y87917D02*
G02X443520Y86303I-1588J-1614D01*
G02X438991I-2265J0D01*
G02X439668Y87917I2264J0D01*
G02X438991Y89531I1588J1614D01*
G02X443520I2265J0D01*
G02X442844Y87917I-2264J0D01*
G37*
G36*
G01X214472Y92825D02*
G02X215502Y90926I-1235J-1899D01*
G02X210973I-2265J0D01*
G02X211359Y92191I2265J0D01*
G02X210329Y94090I1235J1899D01*
G02X214858I2265J0D01*
G02X214472Y92825I-2265J0D01*
G37*
G36*
G01X140163Y102185D02*
G03X139558Y102282I-343J-205D01*
G02X137106Y101369I-2452J2836D01*
G02Y108867I0J3749D01*
G02X140796Y105778I0J-3749D01*
G03X141328Y105473I394J70D01*
G02X142107Y105611I779J-2126D01*
G02Y101082I0J-2265D01*
G02X140163Y102185I0J2265D01*
G37*
G36*
G01X383020Y102285D02*
G03X382393Y102389I-353J-188D01*
G02X379823Y101369I-2570J2730D01*
G02Y108867I0J3749D01*
G02X383525Y105710I0J-3749D01*
G03X384085Y105409I395J63D01*
G02X385020Y105611I936J-2062D01*
G02Y101082I0J-2265D01*
G02X383020Y102285I0J2265D01*
G37*
G36*
G01X37046Y118176D02*
G03X36452Y118276I-341J-209D01*
G02X34016Y117408I-2437J2984D01*
G02Y125112I0J3852D01*
G02X37822Y121853I0J-3852D01*
G03X38331Y121531I395J61D01*
G02X38976Y121625I646J-2170D01*
G02Y117096I0J-2265D01*
G02X37046Y118176I0J2264D01*
G37*
G36*
G01X93149D02*
G03X92555Y118276I-341J-209D01*
G02X90118Y117408I-2437J2984D01*
G02Y125112I0J3852D01*
G02X93924Y121853I0J-3852D01*
G03X94433Y121531I395J61D01*
G02X95079Y121625I646J-2170D01*
G02Y117096I0J-2265D01*
G02X93149Y118176I0J2264D01*
G37*
G36*
G01X149251D02*
G03X148657Y118276I-341J-209D01*
G02X146220Y117408I-2437J2984D01*
G02Y125112I0J3852D01*
G02X150026Y121853I0J-3852D01*
G03X150536Y121531I395J61D01*
G02X151181Y121625I646J-2170D01*
G02Y117096I0J-2265D01*
G02X149251Y118176I0J2264D01*
G37*
G36*
G01X205354D02*
G03X204759Y118276I-341J-209D01*
G02X202323Y117408I-2437J2984D01*
G02Y125112I0J3852D01*
G02X206129Y121853I0J-3852D01*
G03X206638Y121531I395J61D01*
G02X207283Y121625I646J-2170D01*
G02Y117096I0J-2265D01*
G02X205354Y118176I0J2264D01*
G37*
G36*
G01X279960D02*
G03X279366Y118276I-341J-209D01*
G02X276929Y117408I-2437J2984D01*
G02Y125112I0J3852D01*
G02X280735Y121853I0J-3852D01*
G03X281244Y121531I395J61D01*
G02X281890Y121625I646J-2170D01*
G02Y117096I0J-2265D01*
G02X279960Y118176I0J2264D01*
G37*
G36*
G01X336062D02*
G03X335468Y118276I-341J-209D01*
G02X333031Y117408I-2437J2984D01*
G02Y125112I0J3852D01*
G02X336837Y121853I0J-3852D01*
G03X337347Y121531I395J61D01*
G02X337992Y121625I646J-2170D01*
G02Y117096I0J-2265D01*
G02X336062Y118176I0J2264D01*
G37*
G36*
G01X392165D02*
G03X391570Y118276I-341J-209D01*
G02X389134Y117408I-2437J2984D01*
G02Y125112I0J3852D01*
G02X392940Y121853I0J-3852D01*
G03X393449Y121531I395J61D01*
G02X394094Y121625I646J-2170D01*
G02Y117096I0J-2265D01*
G02X392165Y118176I0J2264D01*
G37*
G36*
G01X448267D02*
G03X447673Y118276I-341J-209D01*
G02X445236Y117408I-2437J2984D01*
G02Y125112I0J3852D01*
G02X449042Y121853I0J-3852D01*
G03X449552Y121531I395J61D01*
G02X450197Y121625I646J-2170D01*
G02Y117096I0J-2265D01*
G02X448267Y118176I0J2264D01*
G37*
G36*
G01X260491Y127824D02*
G03Y128475I-233J325D01*
G02X259546Y130315I1319J1840D01*
G02X264076I2265J0D01*
G02X263131Y128475I-2264J0D01*
G03Y127824I233J-325D01*
G02X264076Y125984I-1319J-1840D01*
G02X259546I-2265J0D01*
G02X260491Y127824I2264J0D01*
G37*
G36*
G01X354400Y129411D02*
G03X353868I-266J-299D01*
G02X352362Y128838I-1506J1691D01*
G02Y133367I0J2265D01*
G02X353868Y132794I0J-2264D01*
G03X354400I266J299D01*
G02X355906Y133367I1506J-1691D01*
G02X358020Y131911I0J-2264D01*
G03X358501Y131669I374J143D01*
G02X359105Y131751I603J-2183D01*
G02Y127222I0J-2265D01*
G02X356990Y128677I0J2264D01*
G03X356509Y128920I-374J-143D01*
G02X355906Y128838I-603J2183D01*
G02X354400Y129411I0J2264D01*
G37*
G36*
G01X498278Y139207D02*
G03X498574Y139680I-96J388D01*
G02X498523Y140157I2214J477D01*
G02X503052I2265J0D01*
G02X501328Y137958I-2265J0D01*
G03X501033Y137485I96J-388D01*
G02X501083Y137008I-2214J-477D01*
G02X496554I-2265J0D01*
G02X498278Y139207I2265J0D01*
G37*
G36*
G01X56565Y148742D02*
G03X57215I325J233D01*
G02X60895I1840J-1319D01*
G03X61546I325J233D01*
G02X63386Y149687I1840J-1319D01*
G02Y145157I0J-2265D01*
G02X61546Y146102I0J2264D01*
G03X60895I-325J-233D01*
G02X57215I-1840J1319D01*
G03X56565I-325J-233D01*
G02X52884I-1840J1319D01*
G03X52234I-325J-233D01*
G02X48554I-1840J1319D01*
G03X47903I-325J-233D01*
G02X44223I-1840J1319D01*
G03X43572I-325J-233D01*
G02X41732Y145157I-1840J1319D01*
G02Y149687I0J2265D01*
G02X43572Y148742I0J-2264D01*
G03X44223I325J233D01*
G02X47903I1840J-1319D01*
G03X48554I325J233D01*
G02X52234I1840J-1319D01*
G03X52884I325J233D01*
G02X56565I1840J-1319D01*
G37*
G36*
G01X112667D02*
G03X113317I325J233D01*
G02X116998I1840J-1319D01*
G03X117648I325J233D01*
G02X119488Y149687I1840J-1319D01*
G02Y145157I0J-2265D01*
G02X117648Y146102I0J2264D01*
G03X116998I-325J-233D01*
G02X113317I-1840J1319D01*
G03X112667I-325J-233D01*
G02X108987I-1840J1319D01*
G03X108336I-325J-233D01*
G02X104656I-1840J1319D01*
G03X104006I-325J-233D01*
G02X102165Y145157I-1840J1319D01*
G02X100325Y146102I0J2264D01*
G03X99675I-325J-233D01*
G02X97835Y145157I-1840J1319D01*
G02Y149687I0J2265D01*
G02X99675Y148742I0J-2264D01*
G03X100325I325J233D01*
G02X102165Y149687I1840J-1319D01*
G02X104006Y148742I0J-2264D01*
G03X104656I325J233D01*
G02X108336I1840J-1319D01*
G03X108987I325J233D01*
G02X112667I1840J-1319D01*
G37*
G36*
G01X168769D02*
G03X169420I325J233D01*
G02X173100I1840J-1319D01*
G03X173750I325J233D01*
G02X175591Y149687I1840J-1319D01*
G02Y145157I0J-2265D01*
G02X173750Y146102I0J2264D01*
G03X173100I-325J-233D01*
G02X169420I-1840J1319D01*
G03X168769I-325J-233D01*
G02X165089I-1840J1319D01*
G03X164439I-325J-233D01*
G02X160758I-1840J1319D01*
G03X160108I-325J-233D01*
G02X156428I-1840J1319D01*
G03X155777I-325J-233D01*
G02X153937Y145157I-1840J1319D01*
G02Y149687I0J2265D01*
G02X155777Y148742I0J-2264D01*
G03X156428I325J233D01*
G02X160108I1840J-1319D01*
G03X160758I325J233D01*
G02X164439I1840J-1319D01*
G03X165089I325J233D01*
G02X168769I1840J-1319D01*
G37*
G36*
G01X224872D02*
G03X225522I325J233D01*
G02X229202I1840J-1319D01*
G03X229853I325J233D01*
G02X231693Y149687I1840J-1319D01*
G02Y145157I0J-2265D01*
G02X229853Y146102I0J2264D01*
G03X229202I-325J-233D01*
G02X225522I-1840J1319D01*
G03X224872I-325J-233D01*
G02X221191I-1840J1319D01*
G03X220541I-325J-233D01*
G02X216861I-1840J1319D01*
G03X216210I-325J-233D01*
G02X212530I-1840J1319D01*
G03X211880I-325J-233D01*
G02X211543Y145728I-1840J1319D01*
G03X211566Y145111I266J-299D01*
G02X212461Y143307I-1369J-1804D01*
G02X207932I-2265J0D01*
G02X208694Y145001I2264J0D01*
G03X208670Y145619I-266J299D01*
G02X207775Y147422I1369J1804D01*
G02X210039Y149687I2265J0D01*
G02X211880Y148742I0J-2264D01*
G03X212530I325J233D01*
G02X216210I1840J-1319D01*
G03X216861I325J233D01*
G02X220541I1840J-1319D01*
G03X221191I325J233D01*
G02X224872I1840J-1319D01*
G37*
G36*
G01X299478D02*
G03X300128I325J233D01*
G02X303809I1840J-1319D01*
G03X304459I325J233D01*
G02X306299Y149687I1840J-1319D01*
G02Y145157I0J-2265D01*
G02X304459Y146102I0J2264D01*
G03X303809I-325J-233D01*
G02X300128I-1840J1319D01*
G03X299478I-325J-233D01*
G02X295798I-1840J1319D01*
G03X295147I-325J-233D01*
G02X291467I-1840J1319D01*
G03X290817I-325J-233D01*
G02X287136I-1840J1319D01*
G03X286486I-325J-233D01*
G02X284646Y145157I-1840J1319D01*
G02Y149687I0J2265D01*
G02X286486Y148742I0J-2264D01*
G03X287136I325J233D01*
G02X290817I1840J-1319D01*
G03X291467I325J233D01*
G02X295147I1840J-1319D01*
G03X295798I325J233D01*
G02X299478I1840J-1319D01*
G37*
G36*
G01X355580D02*
G03X356231I325J233D01*
G02X359911I1840J-1319D01*
G03X360561I325J233D01*
G02X362402Y149687I1840J-1319D01*
G02Y145157I0J-2265D01*
G02X360561Y146102I0J2264D01*
G03X359911I-325J-233D01*
G02X356231I-1840J1319D01*
G03X355580I-325J-233D01*
G02X351900I-1840J1319D01*
G03X351250I-325J-233D01*
G02X347569I-1840J1319D01*
G03X346919I-325J-233D01*
G02X343239I-1840J1319D01*
G03X342588I-325J-233D01*
G02X340748Y145157I-1840J1319D01*
G02Y149687I0J2265D01*
G02X342588Y148742I0J-2264D01*
G03X343239I325J233D01*
G02X346919I1840J-1319D01*
G03X347569I325J233D01*
G02X351250I1840J-1319D01*
G03X351900I325J233D01*
G02X355580I1840J-1319D01*
G37*
G36*
G01X411683D02*
G03X412333I325J233D01*
G02X414173Y149687I1840J-1319D01*
G02X416013Y148742I0J-2264D01*
G03X416664I325J233D01*
G02X418504Y149687I1840J-1319D01*
G02Y145157I0J-2265D01*
G02X416664Y146102I0J2264D01*
G03X416013I-325J-233D01*
G02X414173Y145157I-1840J1319D01*
G02X412333Y146102I0J2264D01*
G03X411683I-325J-233D01*
G02X408002I-1840J1319D01*
G03X407352I-325J-233D01*
G02X403672I-1840J1319D01*
G03X403021I-325J-233D01*
G02X399341I-1840J1319D01*
G03X398691I-325J-233D01*
G02X396850Y145157I-1840J1319D01*
G02Y149687I0J2265D01*
G02X398691Y148742I0J-2264D01*
G03X399341I325J233D01*
G02X403021I1840J-1319D01*
G03X403672I325J233D01*
G02X407352I1840J-1319D01*
G03X408002I325J233D01*
G02X411683I1840J-1319D01*
G37*
G36*
G01X467785D02*
G03X468435I325J233D01*
G02X472116I1840J-1319D01*
G03X472766I325J233D01*
G02X474606Y149687I1840J-1319D01*
G02Y145157I0J-2265D01*
G02X472766Y146102I0J2264D01*
G03X472116I-325J-233D01*
G02X468435I-1840J1319D01*
G03X467785I-325J-233D01*
G02X464105I-1840J1319D01*
G03X463454I-325J-233D01*
G02X459774I-1840J1319D01*
G03X459124I-325J-233D01*
G02X455443I-1840J1319D01*
G03X454793I-325J-233D01*
G02X452953Y145157I-1840J1319D01*
G02Y149687I0J2265D01*
G02X454793Y148742I0J-2264D01*
G03X455443I325J233D01*
G02X459124I1840J-1319D01*
G03X459774I325J233D01*
G02X463454I1840J-1319D01*
G03X464105I325J233D01*
G02X467785I1840J-1319D01*
G37*
G36*
G01X113455Y155403D02*
G03X112923I-266J-299D01*
G02X111417Y154830I-1506J1691D01*
G02Y159359I0J2265D01*
G02X112923Y158786I0J-2264D01*
G03X113455I266J299D01*
G02X114961Y159359I1506J-1691D01*
G02Y154830I0J-2265D01*
G02X113455Y155403I0J2264D01*
G37*
G36*
G01X44223Y155983D02*
G03X43572I-325J-233D01*
G02X41732Y155038I-1840J1319D01*
G02Y159567I0J2265D01*
G02X43572Y158622I0J-2264D01*
G03X44223I325J233D01*
G02X46063Y159567I1840J-1319D01*
G02X47816Y158735I0J-2264D01*
G03X48407Y158704I310J253D01*
G02X50000Y159359I1593J-1609D01*
G02Y154830I0J-2265D01*
G02X48247Y155661I0J2264D01*
G03X47656Y155693I-310J-253D01*
G02X46063Y155038I-1593J1609D01*
G02X44223Y155983I0J2264D01*
G37*
G36*
G01X100325D02*
G03X99675I-325J-233D01*
G02X97835Y155038I-1840J1319D01*
G02Y159567I0J2265D01*
G02X99675Y158622I0J-2264D01*
G03X100325I325J233D01*
G02X102165Y159567I1840J-1319D01*
G02X103994Y158639I0J-2265D01*
G03X104614Y158607I323J236D01*
G02X106299Y159359I1685J-1513D01*
G02Y154830I0J-2265D01*
G02X104471Y155758I0J2265D01*
G03X103850Y155789I-323J-236D01*
G02X102165Y155038I-1685J1513D01*
G02X100325Y155983I0J2264D01*
G37*
G36*
G01X156428D02*
G03X155777I-325J-233D01*
G02X153937Y155038I-1840J1319D01*
G02Y159567I0J2265D01*
G02X155777Y158622I0J-2264D01*
G03X156428I325J233D01*
G02X158268Y159567I1840J-1319D01*
G02X160021Y158735I0J-2264D01*
G03X160612Y158704I310J253D01*
G02X162205Y159359I1593J-1609D01*
G02Y154830I0J-2265D01*
G02X160452Y155661I0J2264D01*
G03X159860Y155693I-310J-253D01*
G02X158268Y155038I-1593J1609D01*
G02X156428Y155983I0J2264D01*
G37*
G36*
G01X169853Y155528D02*
G03X169321Y155496I-249J-313D01*
G02X167717Y154830I-1605J1598D01*
G02Y159359I0J2265D01*
G02X169123Y158869I0J-2265D01*
G03X169655Y158900I249J313D01*
G02X171260Y159567I1605J-1598D01*
G02Y155038I0J-2265D01*
G02X169853Y155528I0J2265D01*
G37*
G36*
G01X299478Y158622D02*
G03X300128I325J233D01*
G02X303809I1840J-1319D01*
G03X304459I325J233D01*
G02X306299Y159567I1840J-1319D01*
G02Y155038I0J-2265D01*
G02X304459Y155983I0J2264D01*
G03X303809I-325J-233D01*
G02X300128I-1840J1319D01*
G03X299478I-325J-233D01*
G02X295798I-1840J1319D01*
G03X295147I-325J-233D01*
G02X291467I-1840J1319D01*
G03X290817I-325J-233D01*
G02X287136I-1840J1319D01*
G03X286486I-325J-233D01*
G02X284646Y155038I-1840J1319D01*
G02Y159567I0J2265D01*
G02X286486Y158622I0J-2264D01*
G03X287136I325J233D01*
G02X290817I1840J-1319D01*
G03X291467I325J233D01*
G02X295147I1840J-1319D01*
G03X295798I325J233D01*
G02X299478I1840J-1319D01*
G37*
G36*
G01X355580D02*
G03X356231I325J233D01*
G02X359911I1840J-1319D01*
G03X360561I325J233D01*
G02X362402Y159567I1840J-1319D01*
G02Y155038I0J-2265D01*
G02X360561Y155983I0J2264D01*
G03X359911I-325J-233D01*
G02X356231I-1840J1319D01*
G03X355580I-325J-233D01*
G02X351900I-1840J1319D01*
G03X351250I-325J-233D01*
G02X347569I-1840J1319D01*
G03X346919I-325J-233D01*
G02X343239I-1840J1319D01*
G03X342588I-325J-233D01*
G02X340748Y155038I-1840J1319D01*
G02Y159567I0J2265D01*
G02X342588Y158622I0J-2264D01*
G03X343239I325J233D01*
G02X346919I1840J-1319D01*
G03X347569I325J233D01*
G02X351250I1840J-1319D01*
G03X351900I325J233D01*
G02X355580I1840J-1319D01*
G37*
G36*
G01X411683D02*
G03X412333I325J233D01*
G02X414173Y159567I1840J-1319D01*
G02X416013Y158622I0J-2264D01*
G03X416664I325J233D01*
G02X418504Y159567I1840J-1319D01*
G02Y155038I0J-2265D01*
G02X416664Y155983I0J2264D01*
G03X416013I-325J-233D01*
G02X414173Y155038I-1840J1319D01*
G02X412333Y155983I0J2264D01*
G03X411683I-325J-233D01*
G02X408002I-1840J1319D01*
G03X407352I-325J-233D01*
G02X403672I-1840J1319D01*
G03X403021I-325J-233D01*
G02X399341I-1840J1319D01*
G03X398691I-325J-233D01*
G02X396850Y155038I-1840J1319D01*
G02Y159567I0J2265D01*
G02X398691Y158622I0J-2264D01*
G03X399341I325J233D01*
G02X403021I1840J-1319D01*
G03X403672I325J233D01*
G02X407352I1840J-1319D01*
G03X408002I325J233D01*
G02X411683I1840J-1319D01*
G37*
G36*
G01X467785D02*
G03X468435I325J233D01*
G02X472116I1840J-1319D01*
G03X472766I325J233D01*
G02X474606Y159567I1840J-1319D01*
G02Y155038I0J-2265D01*
G02X472766Y155983I0J2264D01*
G03X472116I-325J-233D01*
G02X468435I-1840J1319D01*
G03X467785I-325J-233D01*
G02X464105I-1840J1319D01*
G03X463454I-325J-233D01*
G02X459774I-1840J1319D01*
G03X459124I-325J-233D01*
G02X455443I-1840J1319D01*
G03X454793I-325J-233D01*
G02X452953Y155038I-1840J1319D01*
G02Y159567I0J2265D01*
G02X454793Y158622I0J-2264D01*
G03X455443I325J233D01*
G02X459124I1840J-1319D01*
G03X459774I325J233D01*
G02X463454I1840J-1319D01*
G03X464105I325J233D01*
G02X467785I1840J-1319D01*
G37*
G36*
G01X512600Y194448D02*
G03X512220Y194980I-378J132D01*
G01X512205D01*
G02X514469Y197244I0J2265D01*
G02X514343Y196497I-2265J0D01*
G03X514723Y195965I378J-132D01*
G01X514738D01*
G02X512474Y193701I0J-2265D01*
G02X512600Y194448I2265J0D01*
G37*
G36*
G01X505278Y199886D02*
G03X504737Y200244I-400J-17D01*
G02X503937Y200098I-800J2119D01*
G02Y204627I0J2265D01*
G02X506200Y202456I0J-2265D01*
G03X506741Y202099I400J17D01*
G02X507541Y202245I800J-2119D01*
G02Y197716I0J-2265D01*
G02X505278Y199886I0J2265D01*
G37*
G36*
G01X255616Y230462D02*
G03X255557Y231112I-260J304D01*
G02X254428Y233071I1136J1959D01*
G02X258957I2265J0D01*
G02X258164Y231349I-2264J0D01*
G03X258223Y230699I260J-304D01*
G02X259351Y228740I-1136J-1959D01*
G02X254822I-2265J0D01*
G02X255616Y230462I2264J0D01*
G37*
G36*
G01X257519Y-37484D02*
G02X255512Y-38701I-2007J1047D01*
G02Y-34172I0J2265D01*
G02X257519Y-35389I0J-2264D01*
G03X258229I355J185D01*
G02X260236Y-34172I2007J-1047D01*
G02Y-38701I0J-2265D01*
G02X258229Y-37484I0J2264D01*
G03X257519I-355J-185D01*
G37*
G36*
G01X423285Y-30600D02*
G02X421291Y-31792I-1994J1073D01*
G02Y-27263I0J2265D01*
G02X423285Y-28455I0J-2265D01*
G03X423990I352J189D01*
G02X425984Y-27263I1994J-1073D01*
G02Y-31792I0J-2265D01*
G02X423990Y-30600I0J2265D01*
G03X423285I-352J-189D01*
G37*
G36*
G01X349330Y-25685D02*
G02X347244Y-27068I-2085J882D01*
G02Y-22539I0J2265D01*
G02X349330Y-23921I0J-2264D01*
G03X350067I369J156D01*
G02X352152Y-22539I2085J-882D01*
G02Y-27068I0J-2265D01*
G02X350067Y-25685I0J2264D01*
G03X349330I-369J-156D01*
G37*
G36*
G01X33849Y-23844D02*
G02X32467Y-21759I882J2085D01*
G02X36996I2265J0D01*
G02X35613Y-23844I-2264J0D01*
G03Y-24581I156J-369D01*
G02X36996Y-26667I-882J-2085D01*
G02X32467I-2265J0D01*
G02X33849Y-24581I2264J0D01*
G03Y-23844I-156J369D01*
G37*
G36*
G01X411192Y-19400D02*
G02X409331Y-20375I-1861J1290D01*
G02Y-15846I0J2265D01*
G02X411384Y-17155I0J-2264D01*
G03X412076Y-17214I363J169D01*
G02X413937Y-16239I1861J-1290D01*
G02Y-20769I0J-2265D01*
G02X411884Y-19459I0J2264D01*
G03X411192Y-19400I-363J-169D01*
G37*
G36*
G01X281036Y-17024D02*
G02X278950Y-18406I-2085J882D01*
G02Y-13877I0J2265D01*
G02X281036Y-15259I0J-2264D01*
G03X281773I369J156D01*
G02X283858Y-13877I2085J-882D01*
G02Y-18406I0J-2265D01*
G02X281773Y-17024I0J2264D01*
G03X281036I-369J-156D01*
G37*
G36*
G01X259595Y-16022D02*
G02X259331Y-14961I2000J1061D01*
G02X263860I2265J0D01*
G02X262441Y-17061I-2264J0D01*
G03X262237Y-17620I149J-371D01*
G02X262501Y-18682I-2000J-1061D01*
G02X260236Y-20946I-2265J0D01*
G02X258229Y-19730I0J2264D01*
G03X257519I-355J-185D01*
G02X255512Y-20946I-2007J1047D01*
G02Y-16417I0J2265D01*
G02X257519Y-17634I0J-2264D01*
G03X258229I355J185D01*
G02X259391Y-16581I2008J-1048D01*
G03X259595Y-16022I-149J371D01*
G37*
G36*
G01X236216Y-14498D02*
G02X235924Y-13386I1973J1112D01*
G02X238189Y-15650I2265J0D01*
G02X237820Y-15620I0J2264D01*
G03X237406Y-16211I-65J-395D01*
G02X237698Y-17323I-1973J-1112D01*
G02X235433Y-15058I-2265J0D01*
G02X235802Y-15089I0J-2264D01*
G03X236216Y-14498I65J395D01*
G37*
G36*
G01X198780Y-6680D02*
G02X200394Y-6003I1614J-1588D01*
G02X202401Y-7220I0J-2264D01*
G03X203111I355J185D01*
G02X205118Y-6003I2007J-1047D01*
G02Y-10532I0J-2265D01*
G02X203111Y-9315I0J2264D01*
G03X202401I-355J-185D01*
G02X200394Y-10532I-2007J1047D01*
G02X198780Y-9856I0J2264D01*
G02X197165Y-10532I-1614J1588D01*
G02Y-6003I0J2265D01*
G02X198780Y-6680I0J-2264D01*
G37*
G36*
G01X329148Y-4830D02*
G02X327067Y-6202I-2081J893D01*
G02Y-1672I0J2265D01*
G02X329068Y-2877I0J-2265D01*
G03X329789Y-2847I353J187D01*
G02X331870Y-1476I2081J-893D01*
G02Y-6005I0J-2265D01*
G02X329869Y-4800I0J2265D01*
G03X329148Y-4830I-353J-187D01*
G37*
G36*
G01X51874Y-3708D02*
G02X50491Y-1623I882J2085D01*
G02X55020I2265J0D01*
G02X53638Y-3708I-2264J0D01*
G03Y-4445I156J-369D01*
G02X55020Y-6531I-882J-2085D01*
G02X53979Y-8436I-2264J0D01*
G03X53861Y-8993I216J-337D01*
G02X54233Y-10236I-1893J-1244D01*
G02X49704I-2265J0D01*
G02X50745Y-8331I2264J0D01*
G03X50863Y-7774I-216J337D01*
G02X50491Y-6531I1893J1244D01*
G02X51874Y-4445I2264J0D01*
G03Y-3708I-156J369D01*
G37*
G36*
G01X109942Y-695D02*
G02X112205Y1477I2263J-92D01*
G02Y-3052I0J-2265D01*
G02X110787Y-2553I0J2265D01*
G03X110137Y-2848I-250J-312D01*
G02X107874Y-5020I-2263J92D01*
G02Y-491I0J2265D01*
G02X109292Y-990I0J-2265D01*
G03X109942Y-695I250J312D01*
G37*
G36*
G01X343612Y52D02*
G02X342342Y2087I994J2035D01*
G02X346871I2265J0D01*
G02X345500Y6I-2264J0D01*
G03X345482Y-721I158J-368D01*
G02X346753Y-2756I-994J-2035D01*
G02X342224I-2265J0D01*
G02X343594Y-675I2264J0D01*
G03X343612Y52I-158J368D01*
G37*
G36*
G01X363432Y5093D02*
G02X362519Y6909I1351J1817D01*
G02X367048I2265J0D01*
G02X365750Y4862I-2264J0D01*
G03X365682Y4179I171J-362D01*
G02X366595Y2362I-1351J-1817D01*
G02X362066I-2265J0D01*
G02X363364Y4410I2264J0D01*
G03X363432Y5093I-171J362D01*
G37*
G36*
G01X205296Y6273D02*
G02X203913Y8359I882J2085D01*
G02X208443I2265J0D01*
G02X207060Y6273I-2264J0D01*
G03Y5536I156J-369D01*
G02X208443Y3451I-882J-2085D01*
G02X203913I-2265J0D01*
G02X205296Y5536I2264J0D01*
G03Y6273I-156J369D01*
G37*
G36*
G01X326520Y10793D02*
G02X328769Y12784I2248J-273D01*
G02X331033Y10519I0J-2265D01*
G01Y10518D01*
G03X331383Y10121I400J0D01*
G02X333367Y7874I-281J-2247D01*
G02X328838I-2265J0D01*
G01Y7875D01*
G03X328487Y8272I-400J0D01*
G02X327063Y9029I281J2247D01*
G03X326365Y8814I-301J-263D01*
G02X324117Y6823I-2248J273D01*
G02Y11352I0J2265D01*
G02X325822Y10578I0J-2264D01*
G03X326520Y10793I301J263D01*
G37*
G36*
G01X409112Y9951D02*
G02X407118Y8759I-1994J1073D01*
G02Y13288I0J2265D01*
G02X409112Y12096I0J-2265D01*
G03X409817I352J189D01*
G02X411811Y13288I1994J-1073D01*
G02Y8759I0J-2265D01*
G02X409817Y9951I0J2265D01*
G03X409112I-352J-189D01*
G37*
G36*
G01X394136Y10329D02*
G02X392141Y9137I-1994J1073D01*
G02Y13666I0J2265D01*
G02X394136Y12474I0J-2265D01*
G03X394840I352J189D01*
G02X396835Y13666I1994J-1073D01*
G02Y9137I0J-2265D01*
G02X394840Y10329I0J2265D01*
G03X394136I-352J-189D01*
G37*
G36*
G01X367527Y13160D02*
G02X366135Y15250I872J2090D01*
G02X370664I2265J0D01*
G02X369277Y13162I-2265J0D01*
G03X369278Y12424I155J-369D01*
G02X370670Y10334I-872J-2090D01*
G02X366141I-2265J0D01*
G02X367528Y12422I2265J0D01*
G03X367527Y13160I-155J369D01*
G37*
G36*
G01X177464Y14056D02*
G02X176082Y16142I882J2085D01*
G02X180611I2265J0D01*
G02X179229Y14056I-2264J0D01*
G03Y13319I156J-369D01*
G02X180611Y11234I-882J-2085D01*
G02X176082I-2265J0D01*
G02X177464Y13319I2264J0D01*
G03Y14056I-156J369D01*
G37*
G36*
G01X291637Y25593D02*
G02X290255Y27678I882J2085D01*
G02X292520Y29943I2265J0D01*
G02X294239Y29152I0J-2265D01*
G03X294830Y29134I304J260D01*
G02X296457Y29824I1627J-1575D01*
G02Y25294I0J-2265D01*
G02X294737Y26085I0J2265D01*
G03X294146Y26103I-304J-260D01*
G02X293402Y25593I-1627J1575D01*
G03Y24856I156J-369D01*
G02X294784Y22770I-882J-2085D01*
G02X290255I-2265J0D01*
G02X291637Y24856I2264J0D01*
G03Y25593I-156J369D01*
G37*
G36*
G01X29831Y25598D02*
G02X28449Y27683I882J2085D01*
G02X32978I2265J0D01*
G02X31596Y25598I-2264J0D01*
G03Y24861I156J-369D01*
G02X32978Y22775I-882J-2085D01*
G02X28449I-2265J0D01*
G02X29831Y24861I2264J0D01*
G03Y25598I-156J369D01*
G37*
G36*
G01X113425Y28086D02*
G02X111417Y26869I-2007J1047D01*
G02Y31398I0J2265D01*
G02X113425Y30181I0J-2264D01*
G03X114134I355J185D01*
G02X116142Y31398I2007J-1047D01*
G02Y26869I0J-2265D01*
G02X114134Y28086I0J2264D01*
G03X113425I-355J-185D01*
G37*
G36*
G01X122695Y28768D02*
G02X121598Y30709I1167J1941D01*
G02X126127I2265J0D01*
G02X125029Y28768I-2265J0D01*
G03Y28082I206J-343D01*
G02X126127Y26141I-1167J-1941D01*
G02X121598I-2265J0D01*
G02X122695Y28082I2265J0D01*
G03Y28768I-206J343D01*
G37*
G36*
G01X144035Y30415D02*
G02X142938Y32356I1167J1941D01*
G02X147467I2265J0D01*
G02X146369Y30415I-2265J0D01*
G03Y29730I206J-343D01*
G02X147467Y27789I-1167J-1941D01*
G02X147450Y27509I-2265J0D01*
G03X147815Y27061I397J-50D01*
G02X149436Y26179I-177J-2258D01*
G03X150072I318J243D01*
G02X151870Y27068I1798J-1376D01*
G02Y22539I0J-2265D01*
G02X150072Y23427I0J2264D01*
G03X149436I-318J-243D01*
G02X147638Y22539I-1798J1376D01*
G02X145373Y24803I0J2265D01*
G02X145391Y25083I2265J0D01*
G03X145025Y25531I-397J50D01*
G02X142938Y27789I177J2257D01*
G02X144035Y29730I2265J0D01*
G03Y30415I-206J343D01*
G37*
G36*
G01X41447Y31470D02*
G02X40255Y33465I1073J1994D01*
G02X44784I2265J0D01*
G02X43593Y31470I-2265J0D01*
G03Y30766I189J-352D01*
G02X44784Y28771I-1073J-1994D01*
G02X40255I-2265J0D01*
G02X41447Y30766I2265J0D01*
G03Y31470I-189J352D01*
G37*
G36*
G01X15369Y37833D02*
G03X15930I281J285D01*
G02X17520Y38485I1589J-1613D01*
G02Y33956I0J-2265D01*
G02X15930Y34607I0J2264D01*
G03X15369I-281J-285D01*
G02X13780Y33956I-1589J1613D01*
G02X11935Y34906I0J2265D01*
G03X11226Y34788I-326J-232D01*
G02X9055Y33169I-2171J645D01*
G02Y37698I0J2265D01*
G02X10900Y36747I0J-2265D01*
G03X11609Y36865I326J232D01*
G02X13780Y38485I2171J-645D01*
G02X15369Y37833I0J-2264D01*
G37*
G36*
G01X182976Y35106D02*
G02X181594Y37191I882J2085D01*
G02X186123I2265J0D01*
G02X184741Y35106I-2264J0D01*
G03Y34369I156J-369D01*
G02X186123Y32283I-882J-2085D01*
G02X181594I-2265J0D01*
G02X182976Y34369I2264J0D01*
G03Y35106I-156J369D01*
G37*
G36*
G01X327562Y44928D02*
G03X328155Y44929I296J269D01*
G02X329834Y45674I1680J-1520D01*
G02X331900Y44339I0J-2265D01*
G03X332622Y44323I365J164D01*
G02X334646Y45572I2024J-1016D01*
G02Y41043I0J-2265D01*
G02X332580Y42378I0J2265D01*
G03X331858Y42394I-365J-164D01*
G02X331663Y42074I-2024J1016D01*
G03X331736Y41527I323J-236D01*
G02X332580Y39764I-1421J-1763D01*
G02X331592Y37893I-2265J0D01*
G03X331533Y37282I226J-330D01*
G02X332186Y35691I-1611J-1591D01*
G02X327657I-2265J0D01*
G02X328644Y37561I2265J0D01*
G03X328704Y38173I-226J330D01*
G02X328050Y39764I1611J1591D01*
G02X328486Y41099I2264J0D01*
G03X328413Y41646I-323J236D01*
G02X328158Y41887I1421J1763D01*
G03X327565Y41886I-296J-269D01*
G02X325886Y41141I-1680J1520D01*
G02Y45670I0J2265D01*
G02X327562Y44928I0J-2264D01*
G37*
G36*
G01X86913Y46043D02*
G02X85531Y48128I882J2085D01*
G02X90060I2265J0D01*
G02X88678Y46043I-2264J0D01*
G03Y45306I156J-369D01*
G02X90060Y43220I-882J-2085D01*
G02X85531I-2265J0D01*
G02X86913Y45306I2264J0D01*
G03Y46043I-156J369D01*
G37*
G36*
G01X291761Y48738D02*
G02X290460Y50787I963J2049D01*
G02X294989I2265J0D01*
G02X293848Y48822I-2264J0D01*
G03X293877Y48112I199J-347D01*
G02X295178Y46063I-963J-2049D01*
G02X294502Y44449I-2264J0D01*
G02X295178Y42835I-1588J-1614D01*
G02X290649I-2265J0D01*
G02X291325Y44449I2264J0D01*
G02X290649Y46063I1588J1614D01*
G02X291789Y48029I2264J0D01*
G03X291761Y48738I-199J347D01*
G37*
G36*
G01X19441Y49065D02*
G02X18058Y51151I882J2085D01*
G02X22587I2265J0D01*
G02X21205Y49065I-2264J0D01*
G03Y48328I156J-369D01*
G02X22587Y46243I-882J-2085D01*
G02X18058I-2265J0D01*
G02X19441Y48328I2264J0D01*
G03Y49065I-156J369D01*
G37*
G36*
G01X99731Y49924D02*
G02X97638Y48523I-2093J863D01*
G02Y53052I0J2265D01*
G02X99559Y51985I0J-2264D01*
G03X100269Y52044I340J212D01*
G02X102362Y53446I2093J-863D01*
G02Y48917I0J-2265D01*
G02X100441Y49983I0J2264D01*
G03X99731Y49924I-340J-212D01*
G37*
G36*
G01X131630Y49389D02*
G02X130248Y51474I882J2085D01*
G02X134777I2265J0D01*
G02X133395Y49389I-2264J0D01*
G03Y48652I156J-369D01*
G02X134777Y46567I-882J-2085D01*
G02X130248I-2265J0D01*
G02X131630Y48652I2264J0D01*
G03Y49389I-156J369D01*
G37*
G36*
G01X73613Y49554D02*
G02X72230Y51639I882J2085D01*
G02X76759I2265J0D01*
G02X75377Y49554I-2264J0D01*
G03Y48817I156J-369D01*
G02X76759Y46731I-882J-2085D01*
G02X72230I-2265J0D01*
G02X73613Y48817I2264J0D01*
G03Y49554I-156J369D01*
G37*
G36*
G01X56919Y52102D02*
G02X54834Y50720I-2085J882D01*
G02Y55249I0J2265D01*
G02X56919Y53867I0J-2264D01*
G03X57656I369J156D01*
G02X59742Y55249I2085J-882D01*
G02Y50720I0J-2265D01*
G02X57656Y52102I0J2264D01*
G03X56919I-369J-156D01*
G37*
G36*
G01X112651Y52267D02*
G02X110566Y50885I-2085J882D01*
G02Y55414I0J2265D01*
G02X112651Y54032I0J-2264D01*
G03X113388I369J156D01*
G02X115474Y55414I2085J-882D01*
G02Y50885I0J-2265D01*
G02X113388Y52267I0J2264D01*
G03X112651I-369J-156D01*
G37*
G36*
G01X453652Y51155D02*
G02X452460Y53150I1073J1994D01*
G02X456989I2265J0D01*
G02X455797Y51155I-2265J0D01*
G03Y50451I189J-352D01*
G02X456989Y48456I-1073J-1994D01*
G02X452460I-2265J0D01*
G02X453652Y50451I2265J0D01*
G03Y51155I-189J352D01*
G37*
G36*
G01X473254Y52864D02*
G02X471260Y51672I-1994J1073D01*
G02Y56202I0J2265D01*
G02X473254Y55010I0J-2265D01*
G03X473959I352J189D01*
G02X475953Y56202I1994J-1073D01*
G02Y51672I0J-2265D01*
G02X473959Y52864I0J2265D01*
G03X473254I-352J-189D01*
G37*
G36*
G01X446513Y53709D02*
G02X444488Y52460I-2024J1015D01*
G02Y56989I0J2265D01*
G02X446513Y55739I0J-2265D01*
G03X447228I357J179D01*
G02X449252Y56989I2024J-1015D01*
G02Y52460I0J-2265D01*
G02X447228Y53709I0J2265D01*
G03X446513I-357J-179D01*
G37*
G36*
G01X425889Y54406D02*
G02X424507Y56492I882J2085D01*
G02X429036I2265J0D01*
G02X427654Y54406I-2264J0D01*
G03Y53669I156J-369D01*
G02X429036Y51584I-882J-2085D01*
G02X424507I-2265J0D01*
G02X425889Y53669I2264J0D01*
G03Y54406I-156J369D01*
G37*
G36*
G01X327176Y70387D02*
G02X325866Y72441I955J2054D01*
G02X330395I2265J0D01*
G02X329262Y70479I-2265J0D01*
G03X329293Y69770I200J-346D01*
G02X330603Y67717I-955J-2054D01*
G02X326074I-2265J0D01*
G02X327207Y69678I2265J0D01*
G03X327176Y70387I-200J346D01*
G37*
G36*
G01X344917Y70394D02*
G02X343620Y72441I968J2047D01*
G02X348150I2265J0D01*
G02X347005Y70473I-2264J0D01*
G03X347031Y69763I198J-348D01*
G02X348328Y67717I-968J-2047D01*
G02X343798I-2265J0D01*
G02X344943Y69685I2264J0D01*
G03X344917Y70394I-198J348D01*
G37*
G36*
G01X383081Y70387D02*
G02X381772Y72441I955J2054D01*
G02X386301I2265J0D01*
G02X385168Y70479I-2265J0D01*
G03X385199Y69770I200J-346D01*
G02X386509Y67717I-955J-2054D01*
G02X381980I-2265J0D01*
G02X383113Y69678I2265J0D01*
G03X383081Y70387I-200J346D01*
G37*
G36*
G01X400822Y70394D02*
G02X399526Y72441I968J2047D01*
G02X404055I2265J0D01*
G02X402911Y70473I-2264J0D01*
G03X402937Y69763I198J-348D01*
G02X404056Y68595I-968J-2047D01*
G03X404647Y68418I369J155D01*
G02X405906Y68800I1259J-1882D01*
G02X408170Y66535I0J-2265D01*
G02X406769Y64442I-2264J0D01*
G03X406710Y63733I152J-370D01*
G02X407776Y61811I-1198J-1922D01*
G02X403247I-2265J0D01*
G02X404648Y63904I2264J0D01*
G03X404707Y64614I-152J370D01*
G02X403819Y65657I1198J1922D01*
G03X403227Y65834I-369J-155D01*
G02X401969Y65452I-1259J1882D01*
G02X399704Y67717I0J2265D01*
G02X400848Y69685I2264J0D01*
G03X400822Y70394I-198J348D01*
G37*
G36*
G01X273532Y73212D02*
G02X272441Y72932I-1091J1985D01*
G02X274706Y75197I0J2265D01*
G02X274696Y74990I-2265J0D01*
G03X275287Y74603I398J-37D01*
G02X276378Y74883I1091J-1985D01*
G02X274113Y72618I0J-2265D01*
G02X274123Y72825I2265J0D01*
G03X273532Y73212I-398J37D01*
G37*
G36*
G01X431019Y78445D02*
G03X431550Y78450I263J301D01*
G02X433071Y79036I1520J-1679D01*
G02Y74507I0J-2265D01*
G02X431580Y75067I0J2265D01*
G03X431048Y75062I-263J-301D01*
G02X430600Y74746I-1521J1678D01*
G03Y74042I189J-352D01*
G02X431792Y72047I-1073J-1994D01*
G02X427263I-2265J0D01*
G02X428455Y74042I2265J0D01*
G03Y74746I-189J352D01*
G02X427263Y76741I1073J1994D01*
G02X429528Y79005I2265J0D01*
G02X431019Y78445I0J-2265D01*
G37*
G36*
G01X354250Y75651D02*
G02X352854Y77743I868J2092D01*
G02X357383I2265J0D01*
G02X356224Y75766I-2265J0D01*
G03X356266Y75048I195J-349D01*
G02X357663Y72956I-868J-2092D01*
G02X353133I-2265J0D01*
G02X354293Y74932I2265J0D01*
G03X354250Y75651I-195J349D01*
G37*
G36*
G01X294501Y81109D02*
G02X294173Y82283I1937J1174D01*
G02X298702I2265J0D01*
G02X297052Y80104I-2264J0D01*
G03X296819Y79511I108J-385D01*
G02X297146Y78337I-1937J-1174D01*
G02X295764Y76252I-2264J0D01*
G03Y75515I156J-369D01*
G02X297146Y73430I-882J-2085D01*
G02X292617I-2265J0D01*
G02X294000Y75515I2264J0D01*
G03Y76252I-156J369D01*
G02X292617Y78337I882J2085D01*
G02X294268Y80517I2264J0D01*
G03X294501Y81109I-108J385D01*
G37*
G36*
G01X263190Y134793D02*
G02X261597Y134137I-1593J1609D01*
G02Y138667I0J2265D01*
G02X263806Y136902I0J-2265D01*
G03X264526Y136765I390J88D01*
G02X267618Y138394I3093J-2119D01*
G02Y130897I0J-3749D01*
G02X263871Y134522I0J3749D01*
G03X263190Y134793I-400J-13D01*
G37*
G36*
G01X57087Y158722D02*
G02X58661Y159359I1575J-1627D01*
G02X60623Y158226I0J-2265D01*
G03X61332Y158257I346J200D01*
G02X63386Y159567I2054J-955D01*
G02Y155038I0J-2265D01*
G02X61424Y156171I0J2265D01*
G03X60715Y156140I-346J-200D01*
G02X58661Y154830I-2054J955D01*
G02X57087Y155467I0J2264D01*
G02X55512Y154830I-1575J1627D01*
G02Y159359I0J2265D01*
G02X57087Y158722I0J-2264D01*
G37*
G36*
G01X225122Y158791D02*
G03X225683Y158822I265J300D01*
G02X227362Y159567I1679J-1520D01*
G02X229326Y158430I0J-2264D01*
G03X230000Y158399I347J199D01*
G02X231850Y159359I1851J-1304D01*
G02Y154830I0J-2265D01*
G02X229887Y155967I0J2264D01*
G03X229213Y155998I-347J-199D01*
G02X227362Y155038I-1851J1304D01*
G02X225862Y155606I0J2264D01*
G03X225301Y155574I-265J-300D01*
G02X223622Y154830I-1679J1520D01*
G02X221494Y156319I0J2264D01*
G03X220756Y156350I-376J-137D01*
G02X218701Y155038I-2055J952D01*
G02X216861Y155983I0J2264D01*
G03X216210I-325J-233D01*
G02X212530I-1840J1319D01*
G03X211880I-325J-233D01*
G02X210039Y155038I-1840J1319D01*
G02Y159567I0J2265D01*
G02X211880Y158622I0J-2264D01*
G03X212530I325J233D01*
G02X216210I1840J-1319D01*
G03X216861I325J233D01*
G02X218701Y159567I1840J-1319D01*
G02X220828Y158078I0J-2264D01*
G03X221567Y158046I376J137D01*
G02X223622Y159359I2055J-952D01*
G02X225122Y158791I0J-2264D01*
G37*
G54D23*
X26772Y551D03*
Y-9449D03*
X272047Y35591D03*
Y25591D03*
G54D28*
X0Y0D03*
X275591D03*
X523622D03*
G54D20*
X24902Y242913D03*
X47244D03*
X103346D03*
X159449D03*
X193209D03*
X215551D03*
X81004Y223228D03*
X249311D03*
X24902Y203543D03*
X193209D03*
X37402Y183858D03*
X58661D03*
X81004D03*
X93504D03*
X114764D03*
X149606D03*
X170866D03*
X205709D03*
X226969D03*
X249311D03*
X24902Y164173D03*
X193209D03*
X81004Y144488D03*
X249311D03*
X81004Y105118D03*
X249311D03*
X267618Y242913D03*
X289961D03*
X346063D03*
X402165D03*
X435925D03*
X458268D03*
X323720Y223228D03*
X492028D03*
X267618Y203543D03*
X435925D03*
X280118Y183858D03*
X301378D03*
X323720D03*
X336220D03*
X357480D03*
X392323D03*
X413583D03*
X448425D03*
X469685D03*
X492028D03*
X267618Y164173D03*
X435925D03*
X323720Y144488D03*
X492028D03*
X323720Y105118D03*
X492028D03*
G54D26*
X49606Y111024D03*
X451969Y-31496D03*
X298031Y111024D03*
X217520Y111292D03*
X55118Y111024D03*
X103150Y-15354D03*
X53524Y82283D03*
X348228Y111220D03*
X167323Y111024D03*
X229921Y-2972D03*
X227756Y119754D03*
X223425Y111220D03*
X109627Y82283D03*
X166929D03*
X352540D03*
X408643D03*
X464745D03*
X464627Y88425D03*
X484546Y88386D03*
X428444D03*
X372342D03*
X352422Y88425D03*
X316239Y88386D03*
X296320Y88425D03*
X241633Y88386D03*
X185531D03*
X129428D03*
X109509Y88425D03*
X73326Y88386D03*
X53406Y88425D03*
X460433Y111220D03*
X176378Y157094D03*
X120079D03*
X441123Y103346D03*
X105315Y111220D03*
X292126Y111292D03*
X354134Y111220D03*
X111220D03*
X414567Y119754D03*
X470669D03*
X404331Y111024D03*
X466339Y111220D03*
X410236Y110630D03*
X358465Y119754D03*
X302362D03*
X161417Y111024D03*
X56299Y2756D03*
X171654Y119754D03*
X115551D03*
X59449D03*
X335433Y101181D03*
X272816Y103346D03*
X198209D03*
X29902D03*
X72638Y-27165D03*
X82677Y-25984D03*
X102756Y13780D03*
X66732Y18701D03*
X107874Y11811D03*
X88386Y17717D03*
X66535Y30531D03*
X113386Y-18898D03*
X249213Y-36220D03*
X527953Y83858D03*
X519783Y37477D03*
X266535Y-36614D03*
X525197Y26950D03*
X243848Y-17717D03*
X218863Y23481D03*
X219291Y18504D03*
X145276Y-35039D03*
X172835Y-34252D03*
X228740Y-31102D03*
X223622Y-6693D03*
X192520Y-34646D03*
X228740Y-16142D03*
X193307Y-27165D03*
X222441Y-21654D03*
X199213Y-21850D03*
X340157Y43129D03*
X150787Y-15354D03*
X143307Y-14173D03*
X65157Y2953D03*
X238976Y-34252D03*
X346063Y25760D03*
X213145Y-33969D03*
X198031Y-31496D03*
X262205Y18504D03*
X351969Y42913D03*
X177559Y-21850D03*
X262205Y26378D03*
X328896Y27559D03*
X340157Y25375D03*
X218110Y-7874D03*
X197539Y18209D03*
X527953Y64567D03*
X436614Y48425D03*
X438976Y43129D03*
X433071D03*
Y25375D03*
X438976D03*
X426969Y43504D03*
X444488Y42913D03*
X387008Y43129D03*
Y25375D03*
X392520D03*
X381102Y43307D03*
X398425Y42913D03*
X162303Y18209D03*
X479134Y43129D03*
Y25375D03*
X485039D03*
X473228Y43307D03*
X490551Y42913D03*
X315748Y72441D03*
X375591Y72047D03*
X383858Y61024D03*
X384252Y78346D03*
X334646Y55906D03*
X340142Y55890D03*
X327953Y61024D03*
X328346Y78346D03*
X492698Y66929D03*
X492520Y61024D03*
X440729Y66535D03*
X458483D03*
Y72441D03*
X440551Y61024D03*
X485827Y73819D03*
X154724Y20768D03*
X203937Y-33071D03*
X161811Y23327D03*
X249598Y32283D03*
X224803Y40157D03*
X219685D03*
X255118Y9843D03*
X239764Y-3543D03*
X389764Y-4331D03*
X105512Y-24803D03*
X283268Y27756D03*
X51181Y-29134D03*
X116102Y127598D03*
X107874Y-9055D03*
X312067Y-3621D03*
X105512Y29134D03*
X303150Y9843D03*
X271260Y83465D03*
X7087Y23228D03*
X444882Y-31890D03*
X492067Y-26378D03*
X520079Y91732D03*
X374823Y-12618D03*
X255512Y218819D03*
X307067Y-3621D03*
X205906Y52756D03*
X266535Y76378D03*
X141732Y-3937D03*
X277953Y62992D03*
X517531Y58248D03*
X60000Y128898D03*
X319735Y2294D03*
X465354Y-27165D03*
X479921Y-3150D03*
X221654Y-31890D03*
X255125Y149515D03*
X242126Y71654D03*
X499213Y174409D03*
X172205Y128583D03*
X228307Y129173D03*
X501181Y168898D03*
X259055Y161417D03*
X64961Y-38189D03*
X499213Y9055D03*
X82677Y17717D03*
X102756Y-787D03*
X66929Y9055D03*
X34252Y-9843D03*
X100787Y5118D03*
X280315Y-35039D03*
X394331Y-18110D03*
X497067Y-12776D03*
X165551Y-33465D03*
X389370Y-18071D03*
X345513Y10474D03*
X353543Y9055D03*
X340023Y-17951D03*
X334646Y-18110D03*
X527953Y37402D03*
X372047Y-3937D03*
X377067Y-3839D03*
X484646Y2362D03*
X471220Y129567D03*
X487067Y-12657D03*
X343701Y90157D03*
X255906Y178482D03*
X508268Y32972D03*
X202362Y133858D03*
X470472Y-9449D03*
X413386Y130079D03*
X301850Y130197D03*
X459882Y-6654D03*
X131102Y16929D03*
X133858Y-7874D03*
X22323Y85039D03*
X206299Y64173D03*
X404724Y19291D03*
X205512Y42520D03*
X287008Y24016D03*
X298031Y-27559D03*
X120079Y-25984D03*
X282283Y12598D03*
X418268Y113150D03*
X253150Y89370D03*
X12992Y67323D03*
X40945Y68110D03*
X506299Y-15748D03*
X182262Y64173D03*
X218504Y70472D03*
X100394Y75984D03*
X511417Y-18898D03*
X40551Y78346D03*
X254724Y132283D03*
X198031Y53150D03*
X504724Y148819D03*
X507087Y18110D03*
X151969Y62598D03*
X268307Y88976D03*
X210236Y85039D03*
X255118Y138583D03*
X404331Y53937D03*
X400394Y89764D03*
X267323Y57087D03*
X261614Y149409D03*
X261811Y64567D03*
X414173Y16535D03*
X96575Y85039D03*
X291339Y33465D03*
X298425Y55512D03*
X16535Y79921D03*
X130709Y71654D03*
X307480Y53543D03*
X97244Y62598D03*
X282283Y18110D03*
X307480Y26772D03*
X479449Y-12992D03*
X40276Y85039D03*
X68504Y71260D03*
X254724Y62598D03*
X513780Y119685D03*
X519291Y21654D03*
X512992Y18898D03*
G54D21*
X137106Y223228D03*
Y183858D03*
X24902Y153150D03*
X81004D03*
X193209D03*
X249311D03*
X24902Y134646D03*
X137106Y144488D03*
X193209Y134646D03*
X24902Y114961D03*
X193209D03*
X52953Y96850D03*
X71850D03*
X109055D03*
X127953D03*
X165157D03*
X184055D03*
X221260D03*
X240157D03*
X379823Y223228D03*
Y183858D03*
X267618Y153150D03*
X323720D03*
X435925D03*
X492028D03*
X379823Y144488D03*
X435925Y134646D03*
X267618Y114961D03*
X435925D03*
X295669Y96850D03*
X314567D03*
X351772D03*
X370669D03*
X407874D03*
X426772D03*
X463976D03*
X482874D03*
G54D27*
X506614Y4134D03*
X292520Y-7874D03*
G54D24*
X26772Y-19449D03*
X272047Y15591D03*
X528740Y95630D03*
G54D25*
X71811Y121260D03*
X127913D03*
X184016D03*
X240118D03*
X370827D03*
X314724D03*
X426929D03*
X483031D03*
G54D22*
X25591Y36220D03*
X517323Y158661D03*
%LPD*%
G75*
G54D10*
X-7893Y-34646D03*
Y-27559D03*
X-7991Y-20276D03*
X-7302Y23228D03*
X-8287Y15354D03*
Y35433D03*
X4528Y-38189D03*
X3150Y-19507D03*
X-2756Y9843D03*
X-2362Y29134D03*
X7087Y23228D03*
X13780Y36220D03*
X9055Y35433D03*
X12992Y67323D03*
X22441Y-37205D03*
X17717Y-21831D03*
X14567Y12205D03*
X17717Y-3150D03*
X18504Y787D03*
X14567Y2756D03*
X27782Y21083D03*
X21260Y28346D03*
Y20866D03*
X27782Y29376D03*
X30713Y27683D03*
Y22775D03*
X17392Y44550D03*
Y52843D03*
X17520Y36220D03*
X20323Y51151D03*
Y46243D03*
X18504Y55512D03*
X20079Y72047D03*
X30709Y72441D03*
X16535Y75984D03*
X16839Y73319D03*
X22323Y85039D03*
X16535Y79921D03*
X29234Y81918D03*
X32448Y81613D03*
X29902Y106890D03*
Y103346D03*
X33071Y142894D03*
X37795Y-29528D03*
X34731Y-26667D03*
X51181Y-29134D03*
X41517Y-13386D03*
Y-17717D03*
X37402Y-18898D03*
X34731Y-21759D03*
X51969Y-10236D03*
X34252Y-9843D03*
X52756Y-6531D03*
X41910Y1181D03*
X33858Y5906D03*
Y9449D03*
X37514Y9114D03*
X37506Y5886D03*
X37402Y1969D03*
X52756Y-1623D03*
X39370Y31102D03*
X42520Y28771D03*
Y33465D03*
X44882Y36614D03*
X42717Y71457D03*
X40945Y68110D03*
X40752Y73498D03*
X40276Y85039D03*
X40551Y78346D03*
X36556Y105118D03*
X48031Y98819D03*
X49606Y111024D03*
X49213Y126791D03*
X43307Y120688D03*
X38976Y119361D03*
X37953Y131477D03*
X41102D03*
X41732Y147422D03*
X50394D03*
X46063D03*
X50000Y157094D03*
X46063Y157302D03*
X41732D03*
X57677Y-39961D03*
X64961Y-38189D03*
X58707Y-29528D03*
X62598Y-29921D03*
X65157Y2953D03*
X56299Y2756D03*
X66929Y9055D03*
X62205Y30531D03*
X70866D03*
X55512Y28721D03*
Y32677D03*
X57480Y15354D03*
X66732Y18701D03*
X53150Y15354D03*
X66535Y30531D03*
X60236Y49213D03*
X54331D03*
X70472Y51969D03*
Y46457D03*
X59742Y52985D03*
X54834D03*
X68504Y71260D03*
X53406Y88425D03*
X53524Y82283D03*
X67874Y111043D03*
X58425Y99194D03*
X55118Y111024D03*
Y120688D03*
X59449Y119754D03*
X60000Y128898D03*
X66299Y131477D03*
X54724Y147422D03*
X59055D03*
X63386D03*
Y157302D03*
X58661Y157094D03*
X55512D03*
X82677Y-25984D03*
X72638Y-27165D03*
X79528Y-11024D03*
X86614D03*
X72441D03*
X83484Y-18206D03*
X88386Y-18307D03*
X86094Y-16280D03*
X86614Y3150D03*
X72441D03*
X79528D03*
X72441Y-3937D03*
X86614D03*
X79528D03*
X80709Y30531D03*
X83643Y33071D03*
X86220Y29134D03*
X90354D03*
X82677Y17717D03*
X88386D03*
X74606Y18110D03*
X74803Y22047D03*
X84864Y49820D03*
X84252Y45669D03*
X74495Y51639D03*
Y46731D03*
X87795Y48128D03*
Y43220D03*
X74803Y55512D03*
X73247Y82283D03*
X87402Y72441D03*
X72835Y72835D03*
X72638Y75394D03*
X73326Y88386D03*
X79921Y89370D03*
X78622Y85039D03*
X78346Y82677D03*
X85748Y82079D03*
X88976Y82283D03*
X89173Y112205D03*
Y142894D03*
X102362Y-31102D03*
X105512Y-24803D03*
X98819Y-26378D03*
Y-29606D03*
X101575Y-23622D03*
X107874Y-9055D03*
X103150Y-15354D03*
X107874Y11811D03*
Y-2756D03*
X100787Y5118D03*
X102756Y13780D03*
Y-787D03*
X103740Y22441D03*
X97638Y32079D03*
X105512Y29134D03*
X108172Y50756D03*
X102362Y51181D03*
X97638Y50787D03*
X97807Y71429D03*
X97244Y62598D03*
X110566Y53150D03*
X96654Y73425D03*
X109509Y88425D03*
X109627Y82283D03*
X96575Y85039D03*
X100394Y75984D03*
X92658Y105118D03*
X103937Y98425D03*
X105315Y126791D03*
X99409Y120688D03*
X95079Y119361D03*
X105315Y111220D03*
X94055Y131477D03*
X97205D03*
X97835Y147422D03*
X106496D03*
X110827D03*
X102165D03*
X97835Y157302D03*
X102165D03*
X106299Y157094D03*
X115964Y-32677D03*
Y-24803D03*
X120079Y-25984D03*
X122047Y-19291D03*
X122835Y-12992D03*
X121654Y-9843D03*
X113386Y-18898D03*
X119688Y-13969D03*
X118113Y-7950D03*
X119591Y-17196D03*
X119507Y12598D03*
X122047Y-3543D03*
X123622Y4724D03*
X128150Y2954D03*
X117990Y-4724D03*
X128147Y-274D03*
X112205Y-787D03*
X127559Y31102D03*
Y25984D03*
X116142Y29134D03*
X111417D03*
X123862Y30709D03*
Y26141D03*
X111417Y42913D03*
X129134Y51969D03*
Y45669D03*
X116142Y42913D03*
X115474Y53150D03*
X129350Y82283D03*
X128543Y75394D03*
X129428Y88386D03*
X123976Y111043D03*
X114528Y99194D03*
X111220Y120688D03*
X115551Y119754D03*
X116102Y127598D03*
X111220Y111220D03*
X122402Y131477D03*
X115157Y147422D03*
X119488D03*
X111417Y157094D03*
X114961D03*
X120079D03*
X145276Y-35039D03*
X131493Y-36428D03*
X135037Y-38580D03*
X133858Y-7874D03*
X143307Y-14173D03*
X131102Y4724D03*
Y-1575D03*
X141732Y-3937D03*
X149213Y7874D03*
Y4646D03*
X141339Y27559D03*
Y32283D03*
X131102Y16929D03*
X147638Y24803D03*
X145202Y32356D03*
Y27789D03*
X132513Y51474D03*
Y46567D03*
X134252Y72047D03*
X130734Y55614D03*
X130709Y71654D03*
X143307Y72441D03*
X134528Y85039D03*
X132283Y84252D03*
X141659Y82083D03*
X144887Y82078D03*
X142107Y106890D03*
X148761Y105118D03*
X142107Y103346D03*
X145276Y142894D03*
X157874Y-33858D03*
X165551Y-33465D03*
X164567Y-20866D03*
X161470Y-8215D03*
X168898Y-19094D03*
X168287Y-6693D03*
X150787Y-15354D03*
X151969Y10236D03*
X152362Y1969D03*
X162303Y18209D03*
X154724Y20768D03*
X161811Y23327D03*
X151870Y24803D03*
X166904Y52108D03*
X153449Y69591D03*
X151969Y62598D03*
X168397Y55118D03*
X158268Y70866D03*
X152165Y73425D03*
X165611Y88425D03*
X166929Y82283D03*
X152480Y85039D03*
X154724Y82677D03*
X158661Y88189D03*
X162205Y88976D03*
X159449Y77165D03*
X156299Y74705D03*
X160236Y98622D03*
X161417Y111024D03*
X167323D03*
Y120688D03*
X161417Y126791D03*
X155512Y120688D03*
X151181Y119361D03*
X150157Y131477D03*
X153307D03*
X153937Y147422D03*
X162598D03*
X166929D03*
X158268D03*
X153937Y157302D03*
X158268D03*
X162205Y157094D03*
X167717D03*
X172835Y-34252D03*
X186131Y-21667D03*
X171654Y-7087D03*
X177165Y-15354D03*
X181102Y-14961D03*
X184646Y-15354D03*
X177559Y-21850D03*
X181382Y10135D03*
X176378Y6693D03*
Y1181D03*
X178346Y11234D03*
X179921Y5197D03*
Y1969D03*
X185956Y29761D03*
X180709Y18504D03*
X178346Y16142D03*
X183858Y32283D03*
X172771Y52108D03*
X183858Y37191D03*
X186614Y55512D03*
X182262Y64173D03*
X171626Y55126D03*
X183858Y82283D03*
X185039Y72441D03*
X180315D03*
X185531Y88386D03*
X180079Y111043D03*
X170630Y99194D03*
X171654Y119754D03*
X172205Y128583D03*
X178504Y131477D03*
X171260Y147422D03*
X175591D03*
X171260Y157302D03*
X176378Y157094D03*
X192520Y-34646D03*
X198031Y-31496D03*
X193307Y-27165D03*
X203937Y-33071D03*
X199213Y-21850D03*
X190551Y-21654D03*
X205118Y-8268D03*
X200394D03*
X197165D03*
X193701Y-15354D03*
X190104Y-15347D03*
X206178Y8359D03*
Y3451D03*
X197539Y25886D03*
Y18209D03*
X205906Y52756D03*
X205512Y42520D03*
X206299Y64173D03*
X198031Y53150D03*
X198819Y72441D03*
X190157Y85039D03*
X204921Y81693D03*
X189764Y81890D03*
X197283Y81850D03*
X200512Y81890D03*
X198209Y106890D03*
X204863Y105118D03*
X198209Y103346D03*
X205906Y129528D03*
X207283Y119361D03*
X201378Y142894D03*
X202362Y133858D03*
X211614Y-36811D03*
X213145Y-33969D03*
X221654Y-31890D03*
X211024Y-20866D03*
X210039Y-8268D03*
X214961Y-19488D03*
X223622Y-6693D03*
X218110Y-7874D03*
X222441Y-21654D03*
X216929Y-2972D03*
X220079Y-3150D03*
X225433Y-3522D03*
X225984Y8268D03*
X208661Y-3150D03*
X212992D03*
X209635Y12205D03*
X222441Y17717D03*
X222089Y23624D03*
X219291Y31693D03*
Y18504D03*
X218863Y23481D03*
X209635Y16213D03*
X224803Y40157D03*
X219685D03*
X209449Y70866D03*
X219606Y61024D03*
X222835D03*
X218504Y70472D03*
X210630Y88976D03*
X215748Y81102D03*
X216142Y86654D03*
X222835Y88425D03*
X223622Y81890D03*
X210236Y85039D03*
X218898Y89075D03*
X219685Y85512D03*
Y82283D03*
X213238Y90926D03*
X226732Y99194D03*
X216337Y94847D03*
X217090Y99328D03*
X212594Y94090D03*
X217520Y126791D03*
X211614Y120688D03*
X223425D03*
X217520Y111292D03*
X223425Y111220D03*
X209409Y131477D03*
X210039Y147422D03*
X218701D03*
X223031D03*
X214370D03*
X210197Y143307D03*
X214370Y157302D03*
X210039D03*
X218701D03*
X223622Y157094D03*
X237224Y-25984D03*
X228740Y-31102D03*
X243307Y-29528D03*
X238976Y-34252D03*
X243012Y-26280D03*
X238189Y-13386D03*
X228740Y-16142D03*
X235433Y-17323D03*
X243848Y-17717D03*
X234252Y-2972D03*
X238780Y8268D03*
X229921Y-2972D03*
X239764Y-3543D03*
X237795Y21654D03*
X230315Y40157D03*
X233071Y53150D03*
X229134D03*
X242126Y71654D03*
X238976Y81890D03*
X241633Y88386D03*
X246063Y77165D03*
X236181Y111043D03*
X227756Y119754D03*
X228307Y129173D03*
X234606Y131477D03*
X227362Y147422D03*
X231693D03*
X227362Y157302D03*
X231850Y157094D03*
X249213Y-36220D03*
X255512Y-36436D03*
X260236D03*
X255512Y-18682D03*
X261595Y-14961D03*
X260236Y-18682D03*
X247638Y-6693D03*
X251181Y-7087D03*
X262205Y14173D03*
X253929Y6693D03*
X258268Y7480D03*
X261024Y5512D03*
X255118Y9843D03*
X264533Y10281D03*
Y7052D03*
X254331Y32283D03*
X262205Y18504D03*
X249598Y32283D03*
X262205Y26378D03*
X247463Y43151D03*
X264567Y51299D03*
Y45669D03*
X250787Y41339D03*
X250164Y48386D03*
X261417Y46850D03*
X261427Y50079D03*
X254724Y45787D03*
Y42559D03*
X246850Y62598D03*
X254724D03*
X261811Y64567D03*
X259843Y83465D03*
X262992D03*
X253150Y89370D03*
X249300Y76161D03*
X252756Y77500D03*
X261811Y125984D03*
Y130315D03*
X261614Y149409D03*
X255125Y149515D03*
X261597Y136402D03*
X254724Y132283D03*
X255118Y138583D03*
X259055Y161417D03*
X255906Y178482D03*
X255512Y218819D03*
X256693Y233071D03*
X257087Y228740D03*
X275984Y-36614D03*
X266535D03*
X273228Y-28839D03*
X276378Y-27559D03*
X280315Y-35039D03*
X266535Y-18504D03*
X271476Y-14961D03*
X274803Y-15748D03*
X278950Y-16142D03*
X283858D03*
X282283Y12598D03*
X283268Y27756D03*
X282283Y18110D03*
X280709Y44882D03*
Y51969D03*
X283261Y33831D03*
X284843Y36811D03*
X277953Y50079D03*
Y46850D03*
Y62992D03*
X267323Y57087D03*
X283694Y83170D03*
Y77304D03*
X266535Y76378D03*
X280622Y78296D03*
X272441Y75197D03*
X276378Y72618D03*
X280709Y81523D03*
X268307Y88976D03*
X271260Y83465D03*
X272816Y106890D03*
X279469Y105118D03*
X272816Y103346D03*
X281890Y119361D03*
X280866Y131477D03*
X284016D03*
X275984Y142894D03*
X284646Y147422D03*
Y157302D03*
X303937Y-27559D03*
X298031D03*
X287008Y-17717D03*
X303172Y-3206D03*
X303150Y9843D03*
X303543Y26378D03*
X300394D03*
X291339Y33465D03*
X296457Y27559D03*
X292520Y27678D03*
Y22770D03*
X287008Y24016D03*
X302362Y44094D03*
X293307Y37008D03*
X292724Y50787D03*
X292913Y42835D03*
Y46063D03*
X304230Y59774D03*
X302756Y53543D03*
X298425Y55512D03*
X291339Y73622D03*
Y78740D03*
X296320Y88425D03*
X296438Y82283D03*
X294882Y78337D03*
Y73430D03*
X301339Y99194D03*
X291890Y99764D03*
X298031Y111024D03*
Y120688D03*
X292126Y126791D03*
X286220Y120688D03*
X302362Y119754D03*
X301850Y130197D03*
X292126Y111292D03*
X293307Y147422D03*
X288976D03*
X297638D03*
X301969D03*
X288976Y157302D03*
X293307D03*
X297638D03*
X301969D03*
X317323Y-27953D03*
X322067D03*
X312174Y-39370D03*
X307480D03*
X304724Y-17717D03*
X314409D03*
X315354Y9449D03*
X309839Y6854D03*
X322067Y-3524D03*
X317067Y-3406D03*
X312067Y-3621D03*
X307067D03*
X319735Y2294D03*
X322047Y18504D03*
X322441Y26772D03*
X312992D03*
X319050Y20412D03*
X318110Y17323D03*
X307480Y26772D03*
X319695Y31969D03*
X319685Y28740D03*
X321260Y35039D03*
X319685Y38189D03*
Y41417D03*
X322020Y64370D03*
X313386Y57874D03*
X310686Y59844D03*
X307457Y59835D03*
X307480Y53543D03*
X316161Y82283D03*
X322020Y78346D03*
X316239Y88386D03*
X315748Y72441D03*
X322581Y89137D03*
X322658Y85909D03*
X310787Y111043D03*
X309213Y131477D03*
X306299Y147422D03*
Y157302D03*
X336844Y-24409D03*
X337402Y-29921D03*
X342067Y-24862D03*
X339430Y-26438D03*
X333886Y-25704D03*
X334268Y-28910D03*
X334252Y-6693D03*
X324803Y-17638D03*
X334646Y-18110D03*
X340023Y-17951D03*
X327067Y7776D03*
X331870Y-3740D03*
X327067Y-3937D03*
X331102Y7874D03*
X328769Y10519D03*
X324117Y9087D03*
X334252Y26378D03*
X342067Y18051D03*
X340157Y25375D03*
X328896Y27559D03*
X341252Y46457D03*
X334646Y43307D03*
X330315Y39764D03*
X340157Y43129D03*
X329921Y35691D03*
X325886Y43406D03*
X329834Y43409D03*
X327953Y61024D03*
X328339Y67717D03*
X334646Y55906D03*
X340142Y55890D03*
X326772Y90551D03*
X326674Y85000D03*
X328131Y72441D03*
X328346Y78346D03*
X335728Y83188D03*
X338287Y85827D03*
X340846Y83188D03*
X335572Y105118D03*
X335433Y101181D03*
X342323Y120688D03*
X332087Y111417D03*
X337992Y119361D03*
X336969Y131477D03*
X340118D03*
X332087Y142894D03*
X340748Y147422D03*
Y157302D03*
X362067Y-25059D03*
X357067Y-25197D03*
X352152Y-24803D03*
X347244D03*
X351181Y-6693D03*
X362067Y-12224D03*
X349606Y-12598D03*
X362598Y-5808D03*
Y-9036D03*
X357067Y7776D03*
X353543Y9055D03*
X345513Y10474D03*
X344606Y2087D03*
X344488Y-2756D03*
X346063Y25760D03*
X359055Y32972D03*
X356810Y30413D03*
X354153Y46457D03*
X362205Y41732D03*
X356299D03*
X346063Y43129D03*
X351969Y42913D03*
X344480Y46457D03*
X356810Y35531D03*
X360630Y44882D03*
X357402D03*
X346457Y61024D03*
X346063Y67717D03*
X351969Y74894D03*
X352422Y88425D03*
X352540Y82283D03*
X345885Y72441D03*
X355118Y77743D03*
X355398Y72956D03*
X343701Y90157D03*
X357441Y99194D03*
X347992Y99764D03*
X348228Y126791D03*
X354134Y120688D03*
X358465Y119754D03*
X359105Y129486D03*
X348228Y111220D03*
X354134D03*
X352362Y131102D03*
X355906D03*
X349409Y147422D03*
X345079D03*
X353740D03*
X358071D03*
X362402D03*
X349409Y157302D03*
X345079D03*
X353740D03*
X358071D03*
X362402D03*
X365748Y-10236D03*
X382067Y-24193D03*
X378740Y-24016D03*
X369008Y-6583D03*
X379449Y-12992D03*
X374823Y-12618D03*
X372047Y9843D03*
X365444Y-4283D03*
X369839Y6854D03*
X382067Y-3524D03*
X368406Y10334D03*
X377067Y-3839D03*
X364783Y6909D03*
X372047Y-3937D03*
X364331Y2362D03*
X381102Y24803D03*
X372047Y14567D03*
X368399Y15250D03*
X375984Y31890D03*
X373064Y48858D03*
X371786Y46079D03*
X371654Y40157D03*
X381102Y43307D03*
X375984Y35118D03*
X368504Y45236D03*
X369063Y50213D03*
X368504Y42008D03*
X380709Y67539D03*
X373064Y54724D03*
X375591Y72047D03*
X369000Y53441D03*
X372263Y82283D03*
X377559Y77953D03*
X380294Y84685D03*
X380315Y90551D03*
X362795Y77520D03*
X372342Y88386D03*
X366890Y111043D03*
X365315Y131477D03*
X399331Y-18110D03*
X392067Y-12224D03*
X394331Y-18110D03*
X389370Y-18071D03*
X387067Y7776D03*
X397067Y-3524D03*
X396835Y11402D03*
X392141D03*
X389764Y-4331D03*
X392520Y25375D03*
X387008D03*
X400609Y46457D03*
X387617D03*
X390937D03*
X392520Y43129D03*
X398425Y42913D03*
X387008Y43129D03*
X398819Y55512D03*
X384244Y67717D03*
X383858Y61024D03*
X389764Y54724D03*
X394094D03*
X384036Y72441D03*
X384252Y78346D03*
X383465Y89055D03*
Y85827D03*
X391634Y83188D03*
X394026Y85357D03*
X400394Y89764D03*
X396752Y83188D03*
X385020Y106890D03*
X391674Y105118D03*
X385020Y103346D03*
X398425Y120688D03*
X394094Y119361D03*
X393071Y131477D03*
X396220D03*
X388189Y142894D03*
X401181Y147422D03*
X396850D03*
Y157302D03*
X401181D03*
X411024Y-27165D03*
X414567Y-29740D03*
X419685Y-23622D03*
X407067Y-12224D03*
X404724Y-17717D03*
X413937Y-18504D03*
X409331Y-18110D03*
X414567Y7126D03*
X404294Y6854D03*
X414294Y1854D03*
X411811Y11024D03*
X407118D03*
X406693Y32972D03*
X404724Y19291D03*
X414173Y16535D03*
X403267Y30413D03*
Y35531D03*
X401969Y67717D03*
X405906Y66535D03*
X405512Y61811D03*
X404331Y53937D03*
X408524Y88425D03*
X408643Y82283D03*
X401791Y72441D03*
X407874Y76772D03*
X407943Y72765D03*
X404724Y87402D03*
X413543Y99194D03*
X404094Y99764D03*
X404331Y111024D03*
X410236Y110630D03*
Y120688D03*
X404331Y126791D03*
X414567Y119754D03*
X413386Y130079D03*
X418268Y113150D03*
X405512Y147422D03*
X409843D03*
X414173D03*
X418504D03*
X405512Y157302D03*
X409843D03*
X414173D03*
X418504D03*
X430827Y-29134D03*
X435039Y-29528D03*
X425984D03*
X421291D03*
X427953Y-11811D03*
X439764Y-18504D03*
X434646Y-24016D03*
X430709D03*
X432067Y7776D03*
X429294Y1854D03*
X427165Y23228D03*
X438976Y25375D03*
X433071D03*
X421709Y31890D03*
X433680Y46457D03*
X426772Y51584D03*
X436614Y48425D03*
X438976Y43129D03*
X426969Y43504D03*
X433071Y43129D03*
X421654Y36220D03*
X437402Y67539D03*
X429921Y54331D03*
X426772Y56492D03*
X429528Y72047D03*
X428365Y82283D03*
X437402Y80531D03*
X436818Y84646D03*
Y90512D03*
X428444Y88386D03*
X433071Y76772D03*
X429528Y76741D03*
X422992Y111043D03*
X421417Y131477D03*
X440945Y-24409D03*
X444882D03*
Y-31890D03*
X451969Y-31496D03*
X441378Y-11063D03*
X452362Y-5079D03*
X459294Y-22602D03*
X444294Y1854D03*
X449294Y6854D03*
X452756Y32972D03*
X449330Y30413D03*
X446672Y46457D03*
X444488Y42913D03*
X454724Y48456D03*
X449330Y35531D03*
X459055Y61024D03*
X440729Y66535D03*
X458483D03*
X440551Y61024D03*
X444488Y54724D03*
X454724Y53150D03*
X449252Y54724D03*
X440551Y75197D03*
X458483Y72441D03*
X440945Y78346D03*
X441256Y89531D03*
Y86303D03*
X448327Y83188D03*
X450886Y86220D03*
X453553Y83080D03*
X441123Y106890D03*
X447776Y105118D03*
X441123Y103346D03*
X454528Y120688D03*
X450197Y119361D03*
X444291Y142894D03*
X449173Y131477D03*
X452323D03*
X457283Y147422D03*
X452953D03*
Y157302D03*
X457283D03*
X472638Y-30315D03*
X465354Y-27165D03*
X464294Y-22602D03*
X459882Y-6654D03*
X470472Y-9449D03*
X462067Y7776D03*
X474294Y1854D03*
X471063Y8858D03*
X467835D03*
X473228Y24803D03*
X466535Y32283D03*
X473228Y43307D03*
X466535Y36220D03*
X475953Y53937D03*
X471260D03*
X464627Y88425D03*
X464745Y82283D03*
X469646Y99194D03*
X460197Y99764D03*
X460433Y126791D03*
X466339Y120688D03*
X470669Y119754D03*
X471220Y129567D03*
X460433Y111220D03*
X466339D03*
X477520Y131477D03*
X461614Y147422D03*
X465945D03*
X470276D03*
X474606D03*
X461614Y157302D03*
X465945D03*
X470276D03*
X474606D03*
X492067Y-26378D03*
X479294Y-22602D03*
X489370Y-18071D03*
X484724Y-18031D03*
X489294Y-22602D03*
X479528Y-9449D03*
X497067Y-12776D03*
X491339Y-9055D03*
X487067Y-12657D03*
X479449Y-12992D03*
X492067Y-5118D03*
X479294Y6854D03*
X487067Y-3524D03*
X487638Y9055D03*
X484646Y2362D03*
X479921Y-3150D03*
X485039Y25375D03*
X479134D03*
X495393Y30413D03*
X492735Y46457D03*
X479743D03*
X483063D03*
X485039Y43129D03*
X490551Y42913D03*
X479134Y43129D03*
X495393Y35531D03*
X489370Y67539D03*
X492698Y66929D03*
X492520Y61024D03*
X484468Y82283D03*
X489370Y80531D03*
X484546Y88386D03*
X492815Y75886D03*
X492913Y78346D03*
X485827Y73819D03*
X479094Y111043D03*
X509387Y-32782D03*
X511024Y-26772D03*
X511025Y-30000D03*
X499294Y-22602D03*
X513780Y-23228D03*
X511417Y-18898D03*
X506299Y-15748D03*
X499294Y1854D03*
X499213Y9055D03*
X507087Y18110D03*
X512992Y18898D03*
X498819Y32972D03*
X508268D03*
X516929Y49606D03*
X507480Y51394D03*
Y47244D03*
X507874Y54724D03*
X517323Y62992D03*
X517531Y58248D03*
X510067Y66929D03*
X510236Y69685D03*
X499939Y55512D03*
X503168Y55511D03*
X513386Y91339D03*
X510067Y73228D03*
X500295Y83188D03*
X502854Y86614D03*
X505413Y83188D03*
X508643Y110236D03*
X514665Y100295D03*
X514745Y116142D03*
X508643Y124409D03*
X514745Y130315D03*
X513780Y119685D03*
X498819Y137008D03*
X500787Y140157D03*
X504724Y148819D03*
X501181Y168898D03*
X499213Y174409D03*
X503937Y202362D03*
X512205Y197244D03*
X507541Y199980D03*
X514738Y193701D03*
X531102Y22047D03*
X525197Y26950D03*
X519291Y21654D03*
X531890Y49606D03*
X519783Y37477D03*
X527953Y37402D03*
X518504Y69685D03*
X527953Y64567D03*
X531496Y58248D03*
X518110Y83465D03*
X527953Y83858D03*
X520079Y91732D03*
G54D11*
X0Y0D03*
X9843Y214961D03*
X275591Y0D03*
X508071Y214961D03*
X523622Y0D03*
G54D12*
X26772Y-9449D03*
Y-19449D03*
Y551D03*
X272047Y15591D03*
Y25591D03*
Y35591D03*
X528740Y105630D03*
Y95630D03*
Y115630D03*
Y125630D03*
Y148819D03*
Y138819D03*
Y158819D03*
G54D13*
X25591Y36220D03*
X517323Y158661D03*
G54D14*
X24902Y114961D03*
Y134646D03*
Y153150D03*
X52953Y96850D03*
X71850D03*
X81004Y153150D03*
X109055Y96850D03*
X127953D03*
X137106Y105118D03*
Y144488D03*
Y183858D03*
Y223228D03*
X165157Y96850D03*
X184055D03*
X193209Y114961D03*
Y134646D03*
Y153150D03*
X221260Y96850D03*
X240157D03*
X249311Y153150D03*
X267618Y114961D03*
Y134646D03*
Y153150D03*
X295669Y96850D03*
X314567D03*
X323720Y153150D03*
X351772Y96850D03*
X370669D03*
X379823Y105118D03*
Y144488D03*
Y183858D03*
Y223228D03*
X407874Y96850D03*
X426772D03*
X435925Y114961D03*
Y134646D03*
Y153150D03*
X463976Y96850D03*
X482874D03*
X492028Y153150D03*
G54D15*
X34016Y121260D03*
X71811D03*
X90118D03*
X127913D03*
X146220D03*
X184016D03*
X202323D03*
X240118D03*
X276929D03*
X314724D03*
X333031D03*
X370827D03*
X389134D03*
X426929D03*
X445236D03*
X483031D03*
G54D16*
X24902Y164173D03*
Y203543D03*
Y242913D03*
X37402Y183858D03*
X47244Y242913D03*
X58661Y183858D03*
X81004Y105118D03*
Y144488D03*
Y183858D03*
X93504D03*
X81004Y223228D03*
X103346Y242913D03*
X114764Y183858D03*
X149606D03*
X170866D03*
X159449Y242913D03*
X193209Y164173D03*
X205709Y183858D03*
X193209Y203543D03*
Y242913D03*
X226969Y183858D03*
X215551Y242913D03*
X249311Y105118D03*
Y144488D03*
Y183858D03*
Y223228D03*
X267618Y164173D03*
Y203543D03*
Y242913D03*
X280118Y183858D03*
X301378D03*
X289961Y242913D03*
X323720Y105118D03*
Y144488D03*
Y183858D03*
Y223228D03*
X336220Y183858D03*
X346063Y242913D03*
X357480Y183858D03*
X392323D03*
X402165Y242913D03*
X413583Y183858D03*
X435925Y164173D03*
Y203543D03*
Y242913D03*
X448425Y183858D03*
X458268Y242913D03*
X469685Y183858D03*
X492028Y105118D03*
Y144488D03*
Y183858D03*
Y223228D03*
G54D17*
X292520Y-7874D03*
X506614Y4134D03*
G54D18*
G01X11024Y178307D02*
X4724D01*
X9239Y175394D01*
Y179331D01*
G54D19*
G01X26772Y-23496D02*
Y-19449D01*
G01D02*
Y-15402D01*
G01X22724Y-19449D02*
X26772D01*
G01D02*
X30819D01*
G01X23710Y-22511D02*
X26772Y-19449D01*
G01D02*
X29833Y-16387D01*
G01X23710D02*
X26772Y-19449D01*
G01D02*
X29833Y-22511D01*
G01X24902Y111012D02*
Y114961D01*
G01D02*
Y118909D01*
G01X20953Y114961D02*
X24902D01*
G01D02*
X28850D01*
G01X21909Y111969D02*
X24902Y114961D01*
G01D02*
X27894Y117953D01*
G01X21909D02*
X24902Y114961D01*
G01D02*
X27894Y111969D01*
G01X24902Y149201D02*
Y153150D01*
G01Y130697D02*
Y134646D01*
G01D02*
Y138594D01*
G01X20953Y134646D02*
X24902D01*
G01D02*
X28850D01*
G01X21909Y131654D02*
X24902Y134646D01*
G01D02*
X27894Y137638D01*
G01X21909D02*
X24902Y134646D01*
G01D02*
X27894Y131654D01*
G01X24902Y160028D02*
Y164173D01*
G01D02*
Y168319D01*
G01X20756Y164173D02*
X24902D01*
G01D02*
X29047D01*
G01X21770Y161042D02*
X24902Y164173D01*
G01D02*
X28033Y167305D01*
G01X21770D02*
X24902Y164173D01*
G01D02*
X28033Y161042D01*
G01X24902Y153150D02*
Y157098D01*
G01X20953Y153150D02*
X24902D01*
G01D02*
X28850D01*
G01X21909Y150157D02*
X24902Y153150D01*
G01D02*
X27894Y156142D01*
G01X21909D02*
X24902Y153150D01*
G01D02*
X27894Y150157D01*
G01X24902Y199398D02*
Y203543D01*
G01D02*
Y207689D01*
G01X20756Y203543D02*
X24902D01*
G01D02*
X29047D01*
G01X21770Y200412D02*
X24902Y203543D01*
G01D02*
X28033Y206675D01*
G01X21770D02*
X24902Y203543D01*
G01D02*
X28033Y200412D01*
G01X24902Y238768D02*
Y242913D01*
G01D02*
Y247059D01*
G01X20756Y242913D02*
X24902D01*
G01D02*
X29047D01*
G01X21770Y239782D02*
X24902Y242913D01*
G01D02*
X28033Y246045D01*
G01X21770D02*
X24902Y242913D01*
G01D02*
X28033Y239782D01*
G01X49004Y96850D02*
X52953D01*
G01X49961Y93858D02*
X52953Y96850D01*
G01X49961Y99843D02*
X52953Y96850D01*
G01X37402Y179713D02*
Y183858D01*
G01D02*
Y188004D01*
G01X33256Y183858D02*
X37402D01*
G01D02*
X41547D01*
G01X34270Y180727D02*
X37402Y183858D01*
G01D02*
X40533Y186990D01*
G01X34270D02*
X37402Y183858D01*
G01D02*
X40533Y180727D01*
G01X47244Y238768D02*
Y242913D01*
G01D02*
Y247059D01*
G01X43098Y242913D02*
X47244D01*
G01D02*
X51390D01*
G01X44113Y239782D02*
X47244Y242913D01*
G01D02*
X50376Y246045D01*
G01X44113D02*
X47244Y242913D01*
G01D02*
X50376Y239782D01*
G01X67902Y96850D02*
X71850D01*
G01X68858Y93858D02*
X71850Y96850D01*
G01D02*
X74843Y99843D01*
G01X68858D02*
X71850Y96850D01*
G01D02*
X74843Y93858D01*
G01X52953Y92902D02*
Y96850D01*
G01D02*
Y100799D01*
G01Y96850D02*
X56902D01*
G01X52953D02*
X55945Y99843D01*
G01X52953Y96850D02*
X55945Y93858D01*
G01X58661Y179713D02*
Y183858D01*
G01D02*
Y188004D01*
G01X54516Y183858D02*
X58661D01*
G01D02*
X62807D01*
G01X55530Y180727D02*
X58661Y183858D01*
G01D02*
X61793Y186990D01*
G01X55530D02*
X58661Y183858D01*
G01D02*
X61793Y180727D01*
G01X81004Y100972D02*
Y105118D01*
G01D02*
Y109264D01*
G01X76858Y105118D02*
X81004D01*
G01D02*
X85150D01*
G01X77872Y101987D02*
X81004Y105118D01*
G01D02*
X84135Y108250D01*
G01X77872D02*
X81004Y105118D01*
G01D02*
X84135Y101987D01*
G01X71850Y92902D02*
Y96850D01*
G01D02*
Y100799D01*
G01Y96850D02*
X75799D01*
G01X81004Y140343D02*
Y144488D01*
G01D02*
Y148634D01*
G01X76858Y144488D02*
X81004D01*
G01D02*
X85150D01*
G01X77872Y141357D02*
X81004Y144488D01*
G01D02*
X84135Y147620D01*
G01X77872D02*
X81004Y144488D01*
G01D02*
X84135Y141357D01*
G01X81004Y149201D02*
Y153150D01*
G01D02*
Y157098D01*
G01X77055Y153150D02*
X81004D01*
G01D02*
X84953D01*
G01X78012Y150157D02*
X81004Y153150D01*
G01D02*
X83996Y156142D01*
G01X78012D02*
X81004Y153150D01*
G01D02*
X83996Y150157D01*
G01X89358Y183858D02*
X93504D01*
G01X90372Y180727D02*
X93504Y183858D01*
G01X90372Y186990D02*
X93504Y183858D01*
G01X81004Y179713D02*
Y183858D01*
G01D02*
Y188004D01*
G01X76858Y183858D02*
X81004D01*
G01D02*
X85150D01*
G01X77872Y180727D02*
X81004Y183858D01*
G01D02*
X84135Y186990D01*
G01X77872D02*
X81004Y183858D01*
G01D02*
X84135Y180727D01*
G01X81004Y219083D02*
Y223228D01*
G01D02*
Y227374D01*
G01X76858Y223228D02*
X81004D01*
G01D02*
X85150D01*
G01X77872Y220097D02*
X81004Y223228D01*
G01D02*
X84135Y226360D01*
G01X77872D02*
X81004Y223228D01*
G01D02*
X84135Y220097D01*
G01X109055Y92902D02*
Y96850D01*
G01D02*
Y100799D01*
G01X105106Y96850D02*
X109055D01*
G01D02*
X113004D01*
G01X106063Y93858D02*
X109055Y96850D01*
G01D02*
X112047Y99843D01*
G01X106063D02*
X109055Y96850D01*
G01D02*
X112047Y93858D01*
G01X93504Y179713D02*
Y183858D01*
G01D02*
Y188004D01*
G01Y183858D02*
X97650D01*
G01X93504D02*
X96635Y186990D01*
G01X93504Y183858D02*
X96635Y180727D01*
G01X103346Y238768D02*
Y242913D01*
G01D02*
Y247059D01*
G01X99201Y242913D02*
X103346D01*
G01D02*
X107492D01*
G01X100215Y239782D02*
X103346Y242913D01*
G01D02*
X106478Y246045D01*
G01X100215D02*
X103346Y242913D01*
G01D02*
X106478Y239782D01*
G01X127953Y92902D02*
Y96850D01*
G01D02*
Y100799D01*
G01X124004Y96850D02*
X127953D01*
G01D02*
X131902D01*
G01X124961Y93858D02*
X127953Y96850D01*
G01D02*
X130945Y99843D01*
G01X124961D02*
X127953Y96850D01*
G01D02*
X130945Y93858D01*
G01X114764Y179713D02*
Y183858D01*
G01D02*
Y188004D01*
G01X110618Y183858D02*
X114764D01*
G01D02*
X118909D01*
G01X111632Y180727D02*
X114764Y183858D01*
G01D02*
X117895Y186990D01*
G01X111632D02*
X114764Y183858D01*
G01D02*
X117895Y180727D01*
G01X137106Y101169D02*
Y105118D01*
G01D02*
Y109067D01*
G01X133157Y105118D02*
X137106D01*
G01X134114Y102126D02*
X137106Y105118D01*
G01D02*
X140098Y108110D01*
G01X134114D02*
X137106Y105118D01*
G01Y140539D02*
Y144488D01*
G01D02*
Y148437D01*
G01X133157Y144488D02*
X137106D01*
G01D02*
X141055D01*
G01X134114Y141496D02*
X137106Y144488D01*
G01D02*
X140098Y147480D01*
G01X134114D02*
X137106Y144488D01*
G01D02*
X140098Y141496D01*
G01X145461Y183858D02*
X149606D01*
G01X146475Y180727D02*
X149606Y183858D01*
G01D02*
X152738Y186990D01*
G01X146475D02*
X149606Y183858D01*
G01D02*
X152738Y180727D01*
G01X137106Y179909D02*
Y183858D01*
G01D02*
Y187807D01*
G01X133157Y183858D02*
X137106D01*
G01D02*
X141055D01*
G01X134114Y180866D02*
X137106Y183858D01*
G01D02*
X140098Y186850D01*
G01X134114D02*
X137106Y183858D01*
G01D02*
X140098Y180866D01*
G01X137106Y219280D02*
Y223228D01*
G01D02*
Y227177D01*
G01X133157Y223228D02*
X137106D01*
G01D02*
X141055D01*
G01X134114Y220236D02*
X137106Y223228D01*
G01D02*
X140098Y226220D01*
G01X134114D02*
X137106Y223228D01*
G01D02*
X140098Y220236D01*
G01X165157Y92902D02*
Y96850D01*
G01D02*
Y100799D01*
G01X161209Y96850D02*
X165157D01*
G01D02*
X169106D01*
G01X162165Y93858D02*
X165157Y96850D01*
G01D02*
X168150Y99843D01*
G01X162165D02*
X165157Y96850D01*
G01D02*
X168150Y93858D01*
G01X166720Y183858D02*
X170866D01*
G01X167735Y180727D02*
X170866Y183858D01*
G01X167735Y186990D02*
X170866Y183858D01*
G01X149606Y179713D02*
Y183858D01*
G01D02*
Y188004D01*
G01Y183858D02*
X153752D01*
G01X159449Y238768D02*
Y242913D01*
G01D02*
Y247059D01*
G01X155303Y242913D02*
X159449D01*
G01D02*
X163594D01*
G01X156317Y239782D02*
X159449Y242913D01*
G01D02*
X162580Y246045D01*
G01X156317D02*
X159449Y242913D01*
G01D02*
X162580Y239782D01*
G01X184055Y92902D02*
Y96850D01*
G01D02*
Y100799D01*
G01X180106Y96850D02*
X184055D01*
G01D02*
X188004D01*
G01X181063Y93858D02*
X184055Y96850D01*
G01D02*
X187047Y99843D01*
G01X181063D02*
X184055Y96850D01*
G01D02*
X187047Y93858D01*
G01X170866Y179713D02*
Y183858D01*
G01D02*
Y188004D01*
G01Y183858D02*
X175012D01*
G01X170866D02*
X173998Y186990D01*
G01X170866Y183858D02*
X173998Y180727D01*
G01X193209Y111012D02*
Y114961D01*
G01D02*
Y118909D01*
G01X189260Y114961D02*
X193209D01*
G01D02*
X197157D01*
G01X190217Y111969D02*
X193209Y114961D01*
G01D02*
X196201Y117953D01*
G01X190217D02*
X193209Y114961D01*
G01D02*
X196201Y111969D01*
G01X193209Y130697D02*
Y134646D01*
G01D02*
Y138594D01*
G01X189260Y134646D02*
X193209D01*
G01D02*
X197157D01*
G01X190217Y131654D02*
X193209Y134646D01*
G01D02*
X196201Y137638D01*
G01X190217D02*
X193209Y134646D01*
G01D02*
X196201Y131654D01*
G01X193209Y149201D02*
Y153150D01*
G01Y160028D02*
Y164173D01*
G01D02*
Y168319D01*
G01X189063Y164173D02*
X193209D01*
G01D02*
X197354D01*
G01X190077Y161042D02*
X193209Y164173D01*
G01D02*
X196340Y167305D01*
G01X190077D02*
X193209Y164173D01*
G01D02*
X196340Y161042D01*
G01X193209Y153150D02*
Y157098D01*
G01X189260Y153150D02*
X193209D01*
G01D02*
X197157D01*
G01X190217Y150157D02*
X193209Y153150D01*
G01D02*
X196201Y156142D01*
G01X190217D02*
X193209Y153150D01*
G01D02*
X196201Y150157D01*
G01X205709Y179713D02*
Y183858D01*
G01D02*
Y188004D01*
G01X201563Y183858D02*
X205709D01*
G01D02*
X209854D01*
G01X202577Y180727D02*
X205709Y183858D01*
G01D02*
X208840Y186990D01*
G01X202577D02*
X205709Y183858D01*
G01D02*
X208840Y180727D01*
G01X193209Y199398D02*
Y203543D01*
G01D02*
Y207689D01*
G01X189063Y203543D02*
X193209D01*
G01D02*
X197354D01*
G01X190077Y200412D02*
X193209Y203543D01*
G01D02*
X196340Y206675D01*
G01X190077D02*
X193209Y203543D01*
G01D02*
X196340Y200412D01*
G01X193209Y238768D02*
Y242913D01*
G01D02*
Y247059D01*
G01X189063Y242913D02*
X193209D01*
G01D02*
X197354D01*
G01X190077Y239782D02*
X193209Y242913D01*
G01D02*
X196340Y246045D01*
G01X190077D02*
X193209Y242913D01*
G01D02*
X196340Y239782D01*
G01X221260Y92902D02*
Y96850D01*
G01D02*
Y100799D01*
G01X217311Y96850D02*
X221260D01*
G01D02*
X225209D01*
G01X218268Y93858D02*
X221260Y96850D01*
G01D02*
X224252Y99843D01*
G01X218268D02*
X221260Y96850D01*
G01D02*
X224252Y93858D01*
G01X222823Y183858D02*
X226969D01*
G01X223837Y180727D02*
X226969Y183858D01*
G01D02*
X230100Y186990D01*
G01X223837D02*
X226969Y183858D01*
G01D02*
X230100Y180727D01*
G01X215551Y238768D02*
Y242913D01*
G01D02*
Y247059D01*
G01X211406Y242913D02*
X215551D01*
G01D02*
X219697D01*
G01X212420Y239782D02*
X215551Y242913D01*
G01D02*
X218683Y246045D01*
G01X212420D02*
X215551Y242913D01*
G01D02*
X218683Y239782D01*
G01X245165Y105118D02*
X249311D01*
G01X246180Y101987D02*
X249311Y105118D01*
G01X246180Y108250D02*
X249311Y105118D01*
G01X240157Y92902D02*
Y96850D01*
G01D02*
Y100799D01*
G01X236209Y96850D02*
X240157D01*
G01D02*
X244106D01*
G01X237165Y93858D02*
X240157Y96850D01*
G01D02*
X243150Y99843D01*
G01X237165D02*
X240157Y96850D01*
G01D02*
X243150Y93858D01*
G01X245165Y144488D02*
X249311D01*
G01X246180Y141357D02*
X249311Y144488D01*
G01X246180Y147620D02*
X249311Y144488D01*
G01X245362Y153150D02*
X249311D01*
G01X246319Y150157D02*
X249311Y153150D01*
G01X246319Y156142D02*
X249311Y153150D01*
G01X245165Y183858D02*
X249311D01*
G01X246180Y180727D02*
X249311Y183858D01*
G01X246180Y186990D02*
X249311Y183858D01*
G01X226969Y179713D02*
Y183858D01*
G01D02*
Y188004D01*
G01Y183858D02*
X231114D01*
G01X245165Y223228D02*
X249311D01*
G01X246180Y220097D02*
X249311Y223228D01*
G01X246180Y226360D02*
X249311Y223228D01*
G01Y100972D02*
Y105118D01*
G01D02*
Y109264D01*
G01Y105118D02*
X253457D01*
G01X249311D02*
X252443Y108250D01*
G01X249311Y105118D02*
X252443Y101987D01*
G01X263669Y114961D02*
X267618D01*
G01X264626Y111969D02*
X267618Y114961D01*
G01X264626Y117953D02*
X267618Y114961D01*
G01X249311Y149201D02*
Y153150D01*
G01X264626Y131654D02*
X267618Y134646D01*
G01X264626Y137638D02*
X267618Y134646D01*
G01X249311Y140343D02*
Y144488D01*
G01D02*
Y148634D01*
G01Y144488D02*
X253457D01*
G01X249311D02*
X252443Y147620D01*
G01X249311Y144488D02*
X252443Y141357D01*
G01X263472Y164173D02*
X267618D01*
G01X264487Y161042D02*
X267618Y164173D01*
G01X264487Y167305D02*
X267618Y164173D01*
G01X263669Y153150D02*
X267618D01*
G01X264626Y150157D02*
X267618Y153150D01*
G01X264626Y156142D02*
X267618Y153150D01*
G01X249311D02*
Y157098D01*
G01Y153150D02*
X253260D01*
G01X249311D02*
X252303Y156142D01*
G01X249311Y153150D02*
X252303Y150157D01*
G01X249311Y179713D02*
Y183858D01*
G01D02*
Y188004D01*
G01Y183858D02*
X253457D01*
G01X249311D02*
X252443Y186990D01*
G01X249311Y183858D02*
X252443Y180727D01*
G01X263472Y203543D02*
X267618D01*
G01X264487Y200412D02*
X267618Y203543D01*
G01X264487Y206675D02*
X267618Y203543D01*
G01X249311Y219083D02*
Y223228D01*
G01D02*
Y227374D01*
G01Y223228D02*
X253457D01*
G01X249311D02*
X252443Y226360D01*
G01X249311Y223228D02*
X252443Y220097D01*
G01X263472Y242913D02*
X267618D01*
G01X264487Y239782D02*
X267618Y242913D01*
G01X264487Y246045D02*
X267618Y242913D01*
G01X272047Y11543D02*
Y15591D01*
G01X268985Y12529D02*
X272047Y15591D01*
G01D02*
X275109Y12529D01*
G01X272047Y15591D02*
Y19638D01*
G01X268000Y15591D02*
X272047D01*
G01D02*
X276094D01*
G01X272047D02*
X275109Y18652D01*
G01X268985D02*
X272047Y15591D01*
G01X267618Y111012D02*
Y114961D01*
G01D02*
Y118909D01*
G01Y114961D02*
X271567D01*
G01X267618D02*
X270610Y117953D01*
G01X267618Y114961D02*
X270610Y111969D01*
G01X267618Y149201D02*
Y153150D01*
G01Y130697D02*
Y134646D01*
G01D02*
Y138594D01*
G01Y134646D02*
X271567D01*
G01X267618D02*
X270610Y137638D01*
G01X267618Y134646D02*
X270610Y131654D01*
G01X267618Y160028D02*
Y164173D01*
G01D02*
Y168319D01*
G01Y164173D02*
X271764D01*
G01X267618D02*
X270750Y167305D01*
G01X267618Y164173D02*
X270750Y161042D01*
G01X267618Y153150D02*
Y157098D01*
G01Y153150D02*
X271567D01*
G01X267618D02*
X270610Y156142D01*
G01X267618Y153150D02*
X270610Y150157D01*
G01X280118Y179713D02*
Y183858D01*
G01D02*
Y188004D01*
G01X275972Y183858D02*
X280118D01*
G01D02*
X284264D01*
G01X276987Y180727D02*
X280118Y183858D01*
G01D02*
X283250Y186990D01*
G01X276987D02*
X280118Y183858D01*
G01D02*
X283250Y180727D01*
G01X267618Y199398D02*
Y203543D01*
G01D02*
Y207689D01*
G01Y203543D02*
X271764D01*
G01X267618D02*
X270750Y206675D01*
G01X267618Y203543D02*
X270750Y200412D01*
G01X267618Y238768D02*
Y242913D01*
G01D02*
Y247059D01*
G01Y242913D02*
X271764D01*
G01X267618D02*
X270750Y246045D01*
G01X267618Y242913D02*
X270750Y239782D01*
G01X295669Y92902D02*
Y96850D01*
G01D02*
Y100799D01*
G01X291720Y96850D02*
X295669D01*
G01D02*
X299618D01*
G01X292677Y93858D02*
X295669Y96850D01*
G01D02*
X298661Y99843D01*
G01X292677D02*
X295669Y96850D01*
G01D02*
X298661Y93858D01*
G01X301378Y179713D02*
Y183858D01*
G01D02*
Y188004D01*
G01X297232Y183858D02*
X301378D01*
G01D02*
X305524D01*
G01X298246Y180727D02*
X301378Y183858D01*
G01D02*
X304509Y186990D01*
G01X298246D02*
X301378Y183858D01*
G01D02*
X304509Y180727D01*
G01X289961Y238768D02*
Y242913D01*
G01D02*
Y247059D01*
G01X285815Y242913D02*
X289961D01*
G01D02*
X294106D01*
G01X286829Y239782D02*
X289961Y242913D01*
G01D02*
X293092Y246045D01*
G01X286829D02*
X289961Y242913D01*
G01D02*
X293092Y239782D01*
G01X319575Y105118D02*
X323720D01*
G01X320589Y101987D02*
X323720Y105118D01*
G01D02*
X326852Y108250D01*
G01X320589D02*
X323720Y105118D01*
G01D02*
X326852Y101987D01*
G01X314567Y92902D02*
Y96850D01*
G01D02*
Y100799D01*
G01X310618Y96850D02*
X314567D01*
G01D02*
X318516D01*
G01X311575Y93858D02*
X314567Y96850D01*
G01D02*
X317559Y99843D01*
G01X311575D02*
X314567Y96850D01*
G01D02*
X317559Y93858D01*
G01X319575Y144488D02*
X323720D01*
G01X320589Y141357D02*
X323720Y144488D01*
G01D02*
X326852Y147620D01*
G01X320589D02*
X323720Y144488D01*
G01D02*
X326852Y141357D01*
G01X319772Y153150D02*
X323720D01*
G01X320728Y150157D02*
X323720Y153150D01*
G01D02*
X326713Y156142D01*
G01X320728D02*
X323720Y153150D01*
G01D02*
X326713Y150157D01*
G01X319575Y183858D02*
X323720D01*
G01X320589Y180727D02*
X323720Y183858D01*
G01D02*
X326852Y186990D01*
G01X320589D02*
X323720Y183858D01*
G01D02*
X326852Y180727D01*
G01X319575Y223228D02*
X323720D01*
G01X320589Y220097D02*
X323720Y223228D01*
G01D02*
X326852Y226360D01*
G01X320589D02*
X323720Y223228D01*
G01D02*
X326852Y220097D01*
G01X323720Y100972D02*
Y105118D01*
G01D02*
Y109264D01*
G01Y105118D02*
X327866D01*
G01X323720Y149201D02*
Y153150D01*
G01Y140343D02*
Y144488D01*
G01D02*
Y148634D01*
G01Y144488D02*
X327866D01*
G01X323720Y153150D02*
Y157098D01*
G01Y153150D02*
X327669D01*
G01X336220Y179713D02*
Y183858D01*
G01D02*
Y188004D01*
G01X332075Y183858D02*
X336220D01*
G01D02*
X340366D01*
G01X333089Y180727D02*
X336220Y183858D01*
G01D02*
X339352Y186990D01*
G01X333089D02*
X336220Y183858D01*
G01D02*
X339352Y180727D01*
G01X323720Y179713D02*
Y183858D01*
G01D02*
Y188004D01*
G01Y183858D02*
X327866D01*
G01X323720Y219083D02*
Y223228D01*
G01D02*
Y227374D01*
G01Y223228D02*
X327866D01*
G01X341917Y242913D02*
X346063D01*
G01X342931Y239782D02*
X346063Y242913D01*
G01X342931Y246045D02*
X346063Y242913D01*
G01X351772Y92902D02*
Y96850D01*
G01D02*
Y100799D01*
G01X347823Y96850D02*
X351772D01*
G01D02*
X355720D01*
G01X348780Y93858D02*
X351772Y96850D01*
G01D02*
X354764Y99843D01*
G01X348780D02*
X351772Y96850D01*
G01D02*
X354764Y93858D01*
G01X357480Y179713D02*
Y183858D01*
G01D02*
Y188004D01*
G01X353335Y183858D02*
X357480D01*
G01D02*
X361626D01*
G01X354349Y180727D02*
X357480Y183858D01*
G01D02*
X360612Y186990D01*
G01X354349D02*
X357480Y183858D01*
G01D02*
X360612Y180727D01*
G01X346063Y238768D02*
Y242913D01*
G01D02*
Y247059D01*
G01Y242913D02*
X350209D01*
G01X346063D02*
X349194Y246045D01*
G01X346063Y242913D02*
X349194Y239782D01*
G01X370669Y92902D02*
Y96850D01*
G01D02*
Y100799D01*
G01X366720Y96850D02*
X370669D01*
G01D02*
X374618D01*
G01X367677Y93858D02*
X370669Y96850D01*
G01D02*
X373661Y99843D01*
G01X367677D02*
X370669Y96850D01*
G01D02*
X373661Y93858D01*
G01X379823Y101169D02*
Y105118D01*
G01D02*
Y109067D01*
G01X375874Y105118D02*
X379823D01*
G01X376831Y102126D02*
X379823Y105118D01*
G01D02*
X382815Y108110D01*
G01X376831D02*
X379823Y105118D01*
G01Y140539D02*
Y144488D01*
G01D02*
Y148437D01*
G01X375874Y144488D02*
X379823D01*
G01D02*
X383772D01*
G01X376831Y141496D02*
X379823Y144488D01*
G01D02*
X382815Y147480D01*
G01X376831D02*
X379823Y144488D01*
G01D02*
X382815Y141496D01*
G01X379823Y179909D02*
Y183858D01*
G01D02*
Y187807D01*
G01X375874Y183858D02*
X379823D01*
G01D02*
X383772D01*
G01X376831Y180866D02*
X379823Y183858D01*
G01D02*
X382815Y186850D01*
G01X376831D02*
X379823Y183858D01*
G01D02*
X382815Y180866D01*
G01X379823Y219280D02*
Y223228D01*
G01D02*
Y227177D01*
G01X375874Y223228D02*
X379823D01*
G01D02*
X383772D01*
G01X376831Y220236D02*
X379823Y223228D01*
G01D02*
X382815Y226220D01*
G01X376831D02*
X379823Y223228D01*
G01D02*
X382815Y220236D01*
G01X392323Y179713D02*
Y183858D01*
G01D02*
Y188004D01*
G01X388177Y183858D02*
X392323D01*
G01D02*
X396469D01*
G01X389191Y180727D02*
X392323Y183858D01*
G01D02*
X395454Y186990D01*
G01X389191D02*
X392323Y183858D01*
G01D02*
X395454Y180727D01*
G01X398020Y242913D02*
X402165D01*
G01X399034Y239782D02*
X402165Y242913D01*
G01X399034Y246045D02*
X402165Y242913D01*
G01X407874Y92902D02*
Y96850D01*
G01D02*
Y100799D01*
G01X403925Y96850D02*
X407874D01*
G01D02*
X411823D01*
G01X404882Y93858D02*
X407874Y96850D01*
G01D02*
X410866Y99843D01*
G01X404882D02*
X407874Y96850D01*
G01D02*
X410866Y93858D01*
G01X413583Y179713D02*
Y183858D01*
G01D02*
Y188004D01*
G01X409437Y183858D02*
X413583D01*
G01D02*
X417728D01*
G01X410451Y180727D02*
X413583Y183858D01*
G01D02*
X416714Y186990D01*
G01X410451D02*
X413583Y183858D01*
G01D02*
X416714Y180727D01*
G01X402165Y238768D02*
Y242913D01*
G01D02*
Y247059D01*
G01Y242913D02*
X406311D01*
G01X402165D02*
X405297Y246045D01*
G01X402165Y242913D02*
X405297Y239782D01*
G01X426772Y92902D02*
Y96850D01*
G01D02*
Y100799D01*
G01X422823Y96850D02*
X426772D01*
G01D02*
X430720D01*
G01X423780Y93858D02*
X426772Y96850D01*
G01D02*
X429764Y99843D01*
G01X423780D02*
X426772Y96850D01*
G01D02*
X429764Y93858D01*
G01X435925Y111012D02*
Y114961D01*
G01D02*
Y118909D01*
G01X431976Y114961D02*
X435925D01*
G01D02*
X439874D01*
G01X432933Y111969D02*
X435925Y114961D01*
G01D02*
X438917Y117953D01*
G01X432933D02*
X435925Y114961D01*
G01D02*
X438917Y111969D01*
G01X435925Y149201D02*
Y153150D01*
G01Y130697D02*
Y134646D01*
G01D02*
Y138594D01*
G01X431976Y134646D02*
X435925D01*
G01D02*
X439874D01*
G01X432933Y131654D02*
X435925Y134646D01*
G01D02*
X438917Y137638D01*
G01X432933D02*
X435925Y134646D01*
G01D02*
X438917Y131654D01*
G01X435925Y153150D02*
Y157098D01*
G01X431976Y153150D02*
X435925D01*
G01D02*
X439874D01*
G01X432933Y150157D02*
X435925Y153150D01*
G01D02*
X438917Y156142D01*
G01X432933D02*
X435925Y153150D01*
G01D02*
X438917Y150157D01*
G01X435925Y160028D02*
Y164173D01*
G01D02*
Y168319D01*
G01X431780Y164173D02*
X435925D01*
G01D02*
X440071D01*
G01X432794Y161042D02*
X435925Y164173D01*
G01D02*
X439057Y167305D01*
G01X432794D02*
X435925Y164173D01*
G01D02*
X439057Y161042D01*
G01X435925Y199398D02*
Y203543D01*
G01D02*
Y207689D01*
G01X431780Y203543D02*
X435925D01*
G01D02*
X440071D01*
G01X432794Y200412D02*
X435925Y203543D01*
G01D02*
X439057Y206675D01*
G01X432794D02*
X435925Y203543D01*
G01D02*
X439057Y200412D01*
G01X435925Y238768D02*
Y242913D01*
G01D02*
Y247059D01*
G01X431780Y242913D02*
X435925D01*
G01D02*
X440071D01*
G01X432794Y239782D02*
X435925Y242913D01*
G01D02*
X439057Y246045D01*
G01X432794D02*
X435925Y242913D01*
G01D02*
X439057Y239782D01*
G01X448425Y179713D02*
Y183858D01*
G01D02*
Y188004D01*
G01X444280Y183858D02*
X448425D01*
G01D02*
X452571D01*
G01X445294Y180727D02*
X448425Y183858D01*
G01D02*
X451557Y186990D01*
G01X445294D02*
X448425Y183858D01*
G01D02*
X451557Y180727D01*
G01X458268Y238768D02*
Y242913D01*
G01D02*
Y247059D01*
G01X454122Y242913D02*
X458268D01*
G01D02*
X462413D01*
G01X455136Y239782D02*
X458268Y242913D01*
G01D02*
X461399Y246045D01*
G01X455136D02*
X458268Y242913D01*
G01D02*
X461399Y239782D01*
G01X463976Y92902D02*
Y96850D01*
G01D02*
Y100799D01*
G01X460028Y96850D02*
X463976D01*
G01D02*
X467925D01*
G01X460984Y93858D02*
X463976Y96850D01*
G01D02*
X466969Y99843D01*
G01X460984D02*
X463976Y96850D01*
G01D02*
X466969Y93858D01*
G01X469685Y179713D02*
Y183858D01*
G01D02*
Y188004D01*
G01X465539Y183858D02*
X469685D01*
G01D02*
X473831D01*
G01X466554Y180727D02*
X469685Y183858D01*
G01D02*
X472817Y186990D01*
G01X466554D02*
X469685Y183858D01*
G01D02*
X472817Y180727D01*
G01X492028Y100972D02*
Y105118D01*
G01D02*
Y109264D01*
G01X487882Y105118D02*
X492028D01*
G01D02*
X496173D01*
G01X488896Y101987D02*
X492028Y105118D01*
G01D02*
X495159Y108250D01*
G01X488896D02*
X492028Y105118D01*
G01D02*
X495159Y101987D01*
G01X482874Y92902D02*
Y96850D01*
G01D02*
Y100799D01*
G01X478925Y96850D02*
X482874D01*
G01D02*
X486823D01*
G01X479882Y93858D02*
X482874Y96850D01*
G01D02*
X485866Y99843D01*
G01X479882D02*
X482874Y96850D01*
G01D02*
X485866Y93858D01*
G01X492028Y140343D02*
Y144488D01*
G01D02*
Y148634D01*
G01X487882Y144488D02*
X492028D01*
G01D02*
X496173D01*
G01X488896Y141357D02*
X492028Y144488D01*
G01D02*
X495159Y147620D01*
G01X488896D02*
X492028Y144488D01*
G01D02*
X495159Y141357D01*
G01X492028Y149201D02*
Y153150D01*
G01D02*
Y157098D01*
G01X488079Y153150D02*
X492028D01*
G01D02*
X495976D01*
G01X489035Y150157D02*
X492028Y153150D01*
G01D02*
X495020Y156142D01*
G01X489035D02*
X492028Y153150D01*
G01D02*
X495020Y150157D01*
G01X492028Y179713D02*
Y183858D01*
G01D02*
Y188004D01*
G01X487882Y183858D02*
X492028D01*
G01D02*
X496173D01*
G01X488896Y180727D02*
X492028Y183858D01*
G01D02*
X495159Y186990D01*
G01X488896D02*
X492028Y183858D01*
G01D02*
X495159Y180727D01*
G01X492028Y219083D02*
Y223228D01*
G01D02*
Y227374D01*
G01X487882Y223228D02*
X492028D01*
G01D02*
X496173D01*
G01X488896Y220097D02*
X492028Y223228D01*
G01D02*
X495159Y226360D01*
G01X488896D02*
X492028Y223228D01*
G01D02*
X495159Y220097D01*
G01X528740Y91583D02*
Y95630D01*
G01D02*
Y99677D01*
G01X524693Y95630D02*
X528740D01*
G01X525678Y92568D02*
X528740Y95630D01*
G01D02*
X531802Y98692D01*
G01X525678D02*
X528740Y95630D01*
G01D02*
X531802Y92568D01*
M02*
